<svg xmlns="http://www.w3.org/2000/svg" xmlns:xlink="http://www.w3.org/1999/xlink" version="1.1" x="0px" y="0px" viewBox="0 0 100 125" enable-background="new 0 0 100 100" xml:space="preserve"><path d="M72.003,22.757c-1.482,0-2.839,0.501-3.949,1.32v-6.934c0-3.684-2.997-6.68-6.681-6.68c-1.482,0-2.839,0.502-3.948,1.321  V11.68c0-3.684-2.998-6.68-6.682-6.68c-3.284,0-6.008,2.388-6.562,5.516c-1.13-0.875-2.53-1.418-4.067-1.418  c-3.684,0-6.68,2.997-6.68,6.68v21.571c-1.28-1.047-2.914-1.677-4.692-1.677c-4.094,0-7.425,3.331-7.425,7.424v23.221  C21.316,82.132,34.184,95,50,95c15.815,0,28.684-12.868,28.684-28.684V29.437C78.684,25.753,75.687,22.757,72.003,22.757z   M61.373,13.195c2.178,0,3.949,1.771,3.949,3.948v12.293v21.727c-2.582-0.972-5.218-1.749-7.897-2.329V17.144  C57.425,14.967,59.196,13.195,61.373,13.195z M46.795,11.68c0-2.177,1.771-3.948,3.948-3.948c2.178,0,3.949,1.771,3.949,3.948v5.463  v31.172c-2.599-0.429-5.233-0.674-7.897-0.736V15.778V11.68z M36.165,15.778c0-2.177,1.771-3.948,3.948-3.948  c2.178,0,3.95,1.771,3.95,3.948v31.801c-2.649,0.064-5.293,0.313-7.898,0.748v-5.231V15.778z M75.952,66.316  c0,14.31-11.643,25.952-25.952,25.952S24.048,80.626,24.048,66.316V43.096c0-2.587,2.105-4.692,4.693-4.692  c2.587,0,4.692,2.105,4.692,4.692v13.659c0,0.176,0.038,0.343,0.101,0.499c0.021,0.053,0.056,0.096,0.083,0.146  c0.053,0.097,0.107,0.189,0.182,0.27c0.043,0.048,0.092,0.084,0.142,0.124c0.078,0.065,0.159,0.122,0.252,0.169  c0.06,0.03,0.121,0.052,0.187,0.073c0.051,0.018,0.095,0.048,0.148,0.059c7.944,1.613,15.542,5.104,21.973,10.094  c0.599,0.464,1.455,0.354,1.917-0.241c0.463-0.597,0.354-1.454-0.241-1.917c-6.466-5.017-14.055-8.592-22.011-10.379v-4.553  c3.045-0.534,6.15-0.819,9.252-0.82c0.005,0,0.008,0.003,0.012,0.003s0.008-0.003,0.013-0.003  c7.161,0.002,14.123,1.392,20.689,4.131c0.172,0.072,0.35,0.105,0.525,0.105c0.533,0,1.042-0.316,1.261-0.84  c0.004-0.009,0.001-0.018,0.005-0.025c0.08-0.175,0.132-0.364,0.132-0.57v-0.05V29.437c0-2.177,1.771-3.949,3.949-3.949  s3.949,1.771,3.949,3.949V66.316z"/><text x="0" y="115" fill="#000000" font-size="5px" font-weight="bold" font-family="'Helvetica Neue', Helvetica, Arial-Unicode, Arial, Sans-serif">Created by Deivid Sáenz</text><text x="0" y="120" fill="#000000" font-size="5px" font-weight="bold" font-family="'Helvetica Neue', Helvetica, Arial-Unicode, Arial, Sans-serif">from the Noun Project</text></svg>