<?xml version="1.0" encoding="utf-8"?>
<!-- Generator: Adobe Illustrator 16.0.2, SVG Export Plug-In . SVG Version: 6.00 Build 0)  -->
<!DOCTYPE svg PUBLIC "-//W3C//DTD SVG 1.1//EN" "http://www.w3.org/Graphics/SVG/1.1/DTD/svg11.dtd">
<svg version="1.1" id="Layer_1" xmlns="http://www.w3.org/2000/svg" xmlns:xlink="http://www.w3.org/1999/xlink" x="0px" y="0px"
	 width="512px" height="512px" viewBox="0 0 512 512" enable-background="new 0 0 512 512" xml:space="preserve">
<path d="M383.828,95.844l-112-13.906v-70L175.828,0v48.063l64,7.969V160h-32v-31.844V73.938l-62-7.688
	c-5.844-1.313-11.813-2.25-18-2.25c-38.406,0-71.656,26.688-80,64.156v160l128,15.906V512h64V312.031l64,7.969h32v96
	c0,26.5,21.5,48,48,48s48-21.5,48-48v-96h32V160C455.484,122.5,422.234,95.844,383.828,95.844z M431.828,288h-96V163.938
	c6.125-21.406,25.469-36.094,48-36.094s41.875,14.688,48,36.094V288z"/>
</svg>
