<?xml version="1.0" encoding="iso-8859-1"?>
<!-- Generator: Adobe Illustrator 15.0.0, SVG Export Plug-In . SVG Version: 6.00 Build 0)  -->
<!DOCTYPE svg PUBLIC "-//W3C//DTD SVG 1.1//EN" "http://www.w3.org/Graphics/SVG/1.1/DTD/svg11.dtd">
<svg version="1.1" id="Layer_1" xmlns="http://www.w3.org/2000/svg" xmlns:xlink="http://www.w3.org/1999/xlink" x="0px" y="0px"
	 width="612px" height="792px" viewBox="0 0 612 792" style="enable-background:new 0 0 612 792;" xml:space="preserve">
<path style="fill:#010101;" d="M322.133,308c-61.304,0-111,49.696-111,111s49.696,111,111,111s111-49.696,111-111
	S383.437,308,322.133,308z M322.133,508c-49.153,0-89-39.847-89-89s31.333-94.667,89-37c57.334-57.333,89-12.153,89,37
	S371.287,508,322.133,508z"/>
<g>
	<circle style="fill:#010101;" cx="277.133" cy="409.333" r="24"/>
	<circle style="fill:#010101;" cx="367.133" cy="409.333" r="24"/>
</g>
<polygon style="fill:#010101;" points="322.89,451.333 321.376,451.333 281.798,451.333 281.798,462.771 281.798,488.001 
	296.936,462.771 321.376,462.771 322.89,462.771 347.331,462.771 362.469,488.001 362.469,462.771 362.469,451.333 "/>
<path style="fill:#010101;" d="M368.964,540.111l-29.681,7.527c-1.153,0-2.261,0.188-3.301,0.527
	c-3.728-3.19-8.558-5.127-13.849-5.127c-5.291,0-10.122,1.938-13.849,5.127c-1.04-0.339-2.148-0.527-3.302-0.527l-29.68-7.527
	c-5.892,0-10.668,4.775-10.668,10.668v27.171c0,5.893,4.776,10.668,10.668,10.668l29.68-7.527c1.154,0,2.262-0.188,3.302-0.527
	c3.728,3.189,8.559,5.127,13.849,5.127c5.291,0,10.122-1.938,13.849-5.127c1.04,0.339,2.147,0.527,3.301,0.527l29.681,7.527
	c5.892,0,10.668-4.776,10.668-10.668V550.78C379.633,544.887,374.856,540.111,368.964,540.111z"/>
<g>
	<polygon style="fill:#010101;" points="258.133,534 258.133,519.333 136.8,505.333 272.8,644 280.8,644 221.8,549.333 	"/>
	<polygon style="fill:#010101;" points="386.134,523.333 386.134,538 422.467,553.333 363.467,648 371.467,648 507.467,509.333 	"/>
</g>
</svg>
