<?xml version="1.0" encoding="iso-8859-1"?>
<!-- Generator: Adobe Illustrator 15.0.0, SVG Export Plug-In . SVG Version: 6.00 Build 0)  -->
<!DOCTYPE svg PUBLIC "-//W3C//DTD SVG 1.1//EN" "http://www.w3.org/Graphics/SVG/1.1/DTD/svg11.dtd">
<svg version="1.1" id="Layer_1" xmlns="http://www.w3.org/2000/svg" xmlns:xlink="http://www.w3.org/1999/xlink" x="0px" y="0px"
	 width="612px" height="792px" viewBox="0 0 612 792" style="enable-background:new 0 0 612 792;" xml:space="preserve">
<circle cx="173.584" cy="297.577" r="22.576"/>
<path d="M206.518,377.781c0,7.485-6.067,13.552-13.552,13.552H154.2c-7.484,0-13.552-6.067-13.552-13.552v-38.234
	c0-7.485,6.067-13.552,13.552-13.552h38.766c7.484,0,13.552,6.067,13.552,13.552V377.781z"/>
<path style="fill:#010101;" d="M285.288,242.792v-15.954c0-4.697-3.807-8.504-8.504-8.504H101.299c-4.697,0-8.504,3.807-8.504,8.504
	v15.954v13.037v198.453h352.482v-211.49H285.288z M120,275.171c0-4.697,3.807-8.504,8.504-8.504h88.992
	c4.697,0,8.504,3.807,8.504,8.504v88.992c0,4.697-3.807,8.504-8.504,8.504h-88.992c-4.697,0-8.504-3.807-8.504-8.504V275.171z
	 M420,435.667H120v-14h300V435.667z M420,411.667H120v-14h300V411.667z M420,371.667H257.333v-14H420V371.667z M420,342.667H257.333
	v-14H420V342.667z M420,313.667H257.333v-14H420V313.667z M420,284.667H257.333v-14H420V284.667z"/>
</svg>
