<?xml version="1.0" encoding="iso-8859-1"?>
<!-- Generator: Adobe Illustrator 15.0.0, SVG Export Plug-In . SVG Version: 6.00 Build 0)  -->
<!DOCTYPE svg PUBLIC "-//W3C//DTD SVG 1.1//EN" "http://www.w3.org/Graphics/SVG/1.1/DTD/svg11.dtd">
<svg version="1.1" id="&#x421;&#x43B;&#x43E;&#x439;_1"
	 xmlns="http://www.w3.org/2000/svg" xmlns:xlink="http://www.w3.org/1999/xlink" x="0px" y="0px" width="600px" height="600px"
	 viewBox="0 0 600 600" style="enable-background:new 0 0 600 600;" xml:space="preserve">
<g>
	<rect x="414.471" y="-91.354" style="fill-rule:evenodd;clip-rule:evenodd;fill:#000003;" width="300" height="300"/>
	<g>
		<g>
			<path style="fill-rule:evenodd;clip-rule:evenodd;fill:#FFFFFF;" d="M435.15,62.946c-0.189,0.14-0.37,0.29-0.55,0.44
				c-0.38,0.3-0.601,0.98-1.09,0.97c-0.96-0.02-2.03-1.09-2.04-2.05c0-0.45,0.66-0.63,0.96-0.98c1.65-1.86,2.7-4.15,2.979-6.99
				c1.16,2.72,3.221,4.72,6.091,6.09c-2.131,0.27-3.86,0.89-5.381,1.85c1.95,2.57,3.38,1.79,2.49,2.7l-0.37,0.36
				C437.291,65.896,436.32,63.806,435.15,62.946L435.15,62.946z M434.351,63.116L434.351,63.116c0.479-0.42,0.979-0.77,1.51-1.1
				c-0.79-0.61-1.47-1.3-2.029-2.06c-0.341,0.55-0.73,1.08-1.161,1.56c-0.26,0.28-0.789,0.45-0.81,0.82
				c-0.03,0.78,0.82,1.59,1.59,1.59C433.841,63.916,434.041,63.366,434.351,63.116L434.351,63.116z M438.221,57.616
				c1.68,1.68,3.479,2.62,4.02,2.09c0.54-0.54-0.399-2.35-2.079-4.04c-1.69-1.69-3.49-2.62-4.03-2.08
				C435.591,54.116,436.53,55.916,438.221,57.616L438.221,57.616L438.221,57.616z M439.681,57.716L439.681,57.716
				c0.46-0.46,0.48-1.17,0.04-1.61c-0.431-0.44-1.16-0.42-1.62,0.04c-0.101,0.09-0.17,0.21-0.24,0.33
				c0.221,0.26,0.46,0.52,0.721,0.77c0.25,0.26,0.52,0.5,0.77,0.71C439.471,57.906,439.58,57.816,439.681,57.716z"/>
		</g>
		<g>
			<path style="fill-rule:evenodd;clip-rule:evenodd;fill:#FFFFFF;" d="M459.291,63.826c-0.24,0.18-0.471,0.36-0.69,0.55
				c-0.47,0.38-0.76,1.22-1.36,1.21c-1.199-0.03-2.54-1.36-2.56-2.56c0-0.57,0.83-0.79,1.21-1.22c2.06-2.33,3.38-5.19,3.72-8.75
				c1.45,3.41,4.03,5.9,7.61,7.61c-2.66,0.34-4.82,1.12-6.721,2.32c2.44,3.22,4.221,2.24,3.11,3.38l-0.46,0.45
				C461.95,67.516,460.75,64.896,459.291,63.826L459.291,63.826z M458.28,64.036L458.28,64.036c0.61-0.52,1.23-0.96,1.9-1.37
				c-1-0.77-1.84-1.62-2.55-2.57c-0.431,0.68-0.91,1.34-1.45,1.939c-0.32,0.35-0.99,0.561-1,1.021c-0.04,0.98,1.02,1.99,1.979,1.99
				C457.641,65.036,457.9,64.356,458.28,64.036L458.28,64.036z M463.12,57.156c2.11,2.1,4.36,3.29,5.03,2.62
				c0.67-0.67-0.5-2.94-2.6-5.05c-2.12-2.11-4.37-3.28-5.04-2.61C459.841,52.786,461.011,55.046,463.12,57.156L463.12,57.156
				L463.12,57.156z M464.95,57.286L464.95,57.286c0.57-0.569,0.601-1.459,0.05-2.009c-0.539-0.55-1.449-0.53-2.029,0.05
				c-0.12,0.12-0.21,0.26-0.29,0.41c0.27,0.32,0.57,0.65,0.899,0.97c0.311,0.31,0.641,0.62,0.95,0.88
				C464.69,57.516,464.82,57.416,464.95,57.286z"/>
		</g>
		<g>
			<path style="fill-rule:evenodd;clip-rule:evenodd;fill:#FFFFFF;" d="M486.16,64.706c-0.29,0.21-0.56,0.43-0.84,0.66
				c-0.56,0.45-0.899,1.47-1.63,1.45c-1.439-0.03-3.05-1.63-3.06-3.07c0-0.68,0.989-0.95,1.439-1.47
				c2.48-2.79,4.061-6.23,4.471-10.49c1.729,4.08,4.84,7.08,9.129,9.13c-3.189,0.41-5.789,1.35-8.06,2.78
				c2.92,3.86,5.061,2.689,3.73,4.06l-0.55,0.53C489.351,69.126,487.91,65.996,486.16,64.706L486.16,64.706z M484.95,64.956
				L484.95,64.956c0.73-0.62,1.47-1.16,2.271-1.65c-1.19-0.91-2.21-1.94-3.05-3.08c-0.521,0.82-1.101,1.61-1.74,2.33
				c-0.38,0.42-1.19,0.669-1.21,1.23c-0.05,1.17,1.229,2.38,2.38,2.38C484.181,66.156,484.48,65.336,484.95,64.956L484.95,64.956z
				 M490.761,56.706c2.52,2.52,5.22,3.94,6.03,3.14c0.8-0.81-0.601-3.53-3.131-6.06c-2.529-2.53-5.239-3.93-6.04-3.13
				C486.82,51.466,488.211,54.166,490.761,56.706L490.761,56.706L490.761,56.706z M492.94,56.866L492.94,56.866
				c0.69-0.69,0.72-1.77,0.06-2.42c-0.64-0.67-1.729-0.64-2.42,0.05c-0.149,0.15-0.26,0.32-0.359,0.5
				c0.33,0.39,0.689,0.78,1.08,1.16c0.38,0.38,0.78,0.75,1.14,1.07C492.631,57.136,492.79,57.006,492.94,56.866z"/>
		</g>
		<g>
			<path style="fill-rule:evenodd;clip-rule:evenodd;fill:#FFFFFF;" d="M515.29,65.146c-0.31,0.23-0.6,0.47-0.899,0.71
				c-0.61,0.49-0.98,1.59-1.76,1.57c-1.57-0.03-3.311-1.76-3.33-3.32c0-0.74,1.08-1.03,1.569-1.59
				c2.681-3.03,4.391-6.75,4.841-11.37c1.88,4.43,5.239,7.67,9.89,9.9c-3.46,0.43-6.271,1.45-8.74,3c3.17,4.19,5.49,2.92,4.04,4.4
				l-0.59,0.58C518.761,69.936,517.19,66.536,515.29,65.146L515.29,65.146z M513.98,65.416L513.98,65.416
				c0.79-0.67,1.59-1.25,2.47-1.78c-1.3-1-2.399-2.11-3.31-3.35c-0.561,0.89-1.19,1.75-1.891,2.53c-0.409,0.46-1.279,0.73-1.3,1.33
				c-0.06,1.27,1.32,2.58,2.58,2.58C513.15,66.716,513.48,65.836,513.98,65.416L513.98,65.416z M520.28,56.476
				c2.73,2.73,5.66,4.27,6.53,3.4s-0.65-3.82-3.38-6.56c-2.75-2.74-5.68-4.26-6.55-3.39
				C516.011,50.796,517.521,53.726,520.28,56.476L520.28,56.476L520.28,56.476z M522.65,56.646L522.65,56.646
				c0.74-0.74,0.78-1.91,0.061-2.62c-0.69-0.72-1.881-0.68-2.63,0.06c-0.16,0.16-0.271,0.35-0.381,0.54
				c0.351,0.42,0.74,0.84,1.17,1.26c0.4,0.41,0.83,0.81,1.24,1.15C522.311,56.946,522.48,56.806,522.65,56.646z"/>
		</g>
		<g>
			<path style="fill-rule:evenodd;clip-rule:evenodd;fill:#FFFFFF;" d="M546.261,66.026c-0.37,0.26-0.7,0.54-1.05,0.82
				c-0.7,0.57-1.131,1.84-2.03,1.81c-1.81-0.04-3.82-2.03-3.84-3.83c0-0.85,1.25-1.19,1.81-1.84c3.101-3.49,5.07-7.78,5.59-13.12
				c2.16,5.11,6.04,8.86,11.41,11.42c-3.99,0.51-7.24,1.68-10.08,3.48c3.65,4.82,6.33,3.36,4.66,5.06l-0.69,0.68
				C550.251,71.556,548.45,67.636,546.261,66.026L546.261,66.026z M544.74,66.336L544.74,66.336c0.92-0.78,1.84-1.44,2.851-2.06
				c-1.5-1.15-2.761-2.431-3.82-3.851c-0.64,1.02-1.37,2.01-2.18,2.9c-0.471,0.54-1.48,0.85-1.5,1.55
				c-0.061,1.46,1.53,2.98,2.979,2.98C543.78,67.836,544.16,66.816,544.74,66.336L544.74,66.336z M552.011,56.016
				c3.149,3.16,6.53,4.93,7.53,3.93c1.01-1-0.75-4.41-3.9-7.57c-3.17-3.17-6.55-4.92-7.55-3.91
				C547.081,49.466,548.83,52.846,552.011,56.016L552.011,56.016L552.011,56.016z M554.74,56.216L554.74,56.216
				c0.86-0.86,0.9-2.2,0.08-3.02c-0.8-0.83-2.18-0.79-3.04,0.07c-0.18,0.18-0.319,0.4-0.439,0.62c0.399,0.49,0.859,0.97,1.35,1.45
				c0.46,0.48,0.96,0.93,1.43,1.33C554.351,56.566,554.551,56.396,554.74,56.216z"/>
		</g>
		<g>
			<path style="fill-rule:evenodd;clip-rule:evenodd;fill:#FFFFFF;" d="M581.33,68.226c-0.479,0.35-0.93,0.72-1.39,1.09
				c-0.94,0.76-1.51,2.45-2.71,2.42c-2.41-0.05-5.09-2.709-5.11-5.11c0-1.14,1.65-1.59,2.4-2.45c4.13-4.66,6.76-10.38,7.45-17.49
				c2.89,6.81,8.06,11.8,15.22,15.22c-5.319,0.68-9.65,2.24-13.44,4.629c4.87,6.44,8.44,4.49,6.211,6.76l-0.91,0.9
				C586.66,75.596,584.25,70.366,581.33,68.226L581.33,68.226z M579.32,68.636L579.32,68.636c1.21-1.03,2.44-1.92,3.78-2.74
				c-1.99-1.53-3.68-3.24-5.08-5.14c-0.86,1.36-1.83,2.69-2.91,3.88c-0.63,0.7-1.97,1.13-2,2.05c-0.09,1.95,2.04,3.97,3.97,3.97
				C578.03,70.636,578.54,69.276,579.32,68.636L579.32,68.636z M589,54.886c4.2,4.2,8.711,6.57,10.051,5.23
				c1.34-1.34-1-5.88-5.21-10.09c-4.23-4.22-8.73-6.56-10.07-5.22S584.761,50.656,589,54.886L589,54.886L589,54.886z M592.65,55.146
				L592.65,55.146c1.14-1.15,1.19-2.93,0.1-4.03c-1.069-1.1-2.899-1.05-4.05,0.1c-0.239,0.24-0.43,0.53-0.59,0.82
				c0.54,0.65,1.15,1.3,1.8,1.94c0.62,0.63,1.29,1.24,1.9,1.77C592.131,55.606,592.391,55.396,592.65,55.146z"/>
		</g>
		<g>
			<path style="fill-rule:evenodd;clip-rule:evenodd;fill:#FFFFFF;" d="M622.771,69.986c-0.58,0.42-1.12,0.86-1.66,1.31
				c-1.13,0.91-1.81,2.94-3.26,2.9c-2.89-0.06-6.11-3.25-6.13-6.14c0-1.36,1.979-1.9,2.88-2.93c4.96-5.59,8.109-12.46,8.939-20.99
				c3.471,8.17,9.671,14.16,18.261,18.271c-6.381,0.81-11.58,2.689-16.13,5.55c5.85,7.73,10.13,5.39,7.46,8.11l-1.101,1.08
				C629.171,78.826,626.28,72.556,622.771,69.986L622.771,69.986z M620.36,70.476L620.36,70.476c1.45-1.24,2.93-2.31,4.54-3.29
				c-2.39-1.83-4.41-3.89-6.1-6.17c-1.03,1.64-2.19,3.23-3.49,4.65c-0.76,0.85-2.37,1.36-2.41,2.47c-0.1,2.34,2.45,4.77,4.77,4.77
				C618.82,72.876,619.431,71.246,620.36,70.476L620.36,70.476z M631.971,53.976c5.05,5.04,10.45,7.88,12.06,6.28
				c1.61-1.61-1.2-7.06-6.24-12.11c-5.079-5.07-10.479-7.87-12.09-6.26C624.091,43.496,626.891,48.896,631.971,53.976
				L631.971,53.976L631.971,53.976z M636.351,54.296L636.351,54.296c1.38-1.38,1.439-3.53,0.12-4.84c-1.28-1.33-3.48-1.27-4.86,0.11
				c-0.29,0.29-0.51,0.64-0.71,0.99c0.65,0.78,1.38,1.56,2.16,2.33c0.75,0.76,1.55,1.49,2.29,2.13
				C635.73,54.846,636.051,54.586,636.351,54.296z"/>
		</g>
		<g>
			<path style="fill-rule:evenodd;clip-rule:evenodd;fill:#FFFFFF;" d="M670.601,72.626c-0.73,0.52-1.4,1.07-2.09,1.64
				c-1.41,1.13-2.26,3.67-4.07,3.62c-3.61-0.08-7.63-4.06-7.66-7.669c0-1.701,2.48-2.37,3.601-3.67
				c6.199-6.98,10.14-15.57,11.18-26.24c4.33,10.22,12.09,17.71,22.83,22.84c-7.98,1.01-14.48,3.36-20.17,6.95
				c7.32,9.65,12.66,6.73,9.33,10.13l-1.38,1.35C678.591,83.676,674.98,75.836,670.601,72.626L670.601,72.626z M667.58,73.236
				L667.58,73.236c1.82-1.55,3.671-2.88,5.681-4.11c-2.99-2.29-5.521-4.87-7.63-7.71c-1.29,2.04-2.74,4.03-4.36,5.82
				c-0.95,1.06-2.96,1.69-3.01,3.08c-0.12,2.92,3.06,5.96,5.96,5.96C665.65,76.236,666.41,74.196,667.58,73.236L667.58,73.236z
				 M682.101,52.606c6.3,6.31,13.06,9.85,15.07,7.86c2.01-2.01-1.5-8.83-7.801-15.14c-6.35-6.34-13.1-9.84-15.109-7.83
				C672.25,39.506,675.74,46.266,682.101,52.606L682.101,52.606L682.101,52.606z M687.57,53.006L687.57,53.006
				c1.721-1.72,1.8-4.41,0.15-6.04c-1.6-1.66-4.351-1.59-6.07,0.14c-0.359,0.36-0.64,0.8-0.89,1.23c0.81,0.98,1.729,1.95,2.7,2.91
				c0.939,0.95,1.939,1.86,2.859,2.66C686.79,53.696,687.19,53.366,687.57,53.006z"/>
		</g>
	</g>
</g>
</svg>
