<?xml version="1.0" encoding="utf-8"?>
<!-- Generator: Adobe Illustrator 15.0.0, SVG Export Plug-In . SVG Version: 6.00 Build 0)  -->
<!DOCTYPE svg PUBLIC "-//W3C//DTD SVG 1.1//EN" "http://www.w3.org/Graphics/SVG/1.1/DTD/svg11.dtd">
<svg version="1.1" id="Layer_2" xmlns="http://www.w3.org/2000/svg" xmlns:xlink="http://www.w3.org/1999/xlink" x="0px" y="0px"
	 width="162px" height="148px" viewBox="0 0 162 148" enable-background="new 0 0 162 148" xml:space="preserve">
<path d="M139.833,37.667L66.065,57.256l-10.241-5.543c-0.823,0-1.489,0.667-1.489,1.489v25.263c0,0.822,0.667,1.489,1.489,1.489
	l10.249-5.547l22.783,5.435l-1.278,5.661c-0.69,3.054,1.226,6.089,4.281,6.779l17.227,3.891c3.054,0.69,6.088-1.226,6.779-4.28
	l1.202-5.322L139.833,92c1.565,0,2.834-1.269,2.834-2.834V40.501C142.667,38.936,141.398,37.667,139.833,37.667z M112.22,88.363
	c-0.484,2.14-2.613,3.485-4.754,3.001l-12.079-2.728c-2.141-0.484-3.484-2.613-3.001-4.753l0.686-3.036l19.78,4.718L112.22,88.363z"
	/>
</svg>
