<?xml version="1.0" encoding="utf-8"?>
<!-- Generator: Adobe Illustrator 15.0.0, SVG Export Plug-In . SVG Version: 6.00 Build 0)  -->
<!DOCTYPE svg PUBLIC "-//W3C//DTD SVG 1.1//EN" "http://www.w3.org/Graphics/SVG/1.1/DTD/svg11.dtd">
<svg version="1.1" id="Layer_1" xmlns="http://www.w3.org/2000/svg" xmlns:xlink="http://www.w3.org/1999/xlink" x="0px" y="0px"
	 width="283.464px" height="283.464px" viewBox="0 0 283.464 283.464" enable-background="new 0 0 283.464 283.464"
	 xml:space="preserve">
<g>
	<path d="M219.085,87.255c-10.483,0-19.678,2.762-24.968,6.924c-0.436-2.515-1.014-4.977-1.784-7.36
		c21.529-9.051,44.314-43.658,41.149-46.19c-2.913-2.33-35.447,19.352-64.165,16.86c-8.25-5.127-17.951-8.142-28.374-8.169v-0.005
		h-0.001l0,0c-0.024,0-0.046,0.002-0.07,0.002c-0.022,0-0.044-0.002-0.068-0.002l0,0h-0.001v0.005
		c-10.423,0.027-20.123,3.042-28.373,8.169c-28.718,2.492-61.252-19.189-64.165-16.86c-3.166,2.532,19.62,37.139,41.148,46.19
		c-0.77,2.383-1.349,4.845-1.784,7.36c-5.29-4.162-14.484-6.924-24.967-6.924c-16.409,0-30.396,10.056-29.71,15.084
		c0.686,5.028,3.645,12.342,20.054,12.342c11.512,0,26.217-1.982,33.987-6.037c1.662,19.868,12.601,31.537,11.439,75.06
		c0,24.946,17.455,31.467,42.371,31.533v0.006h0.001l0,0c0.024,0,0.046-0.002,0.068-0.002c0.024,0,0.046,0.002,0.07,0.002l0,0h0.001
		v-0.006c24.917-0.066,42.371-6.587,42.371-31.533c-1.162-43.523,9.777-55.191,11.439-75.06c7.77,4.055,22.476,6.037,33.987,6.037
		c16.409,0,19.368-7.313,20.054-12.342C249.481,97.311,235.494,87.255,219.085,87.255z M161.877,120.795
		c-7.657,9.942-9.829,40.453-6.4,48.681c3.428,8.228,13.393,13.351,13.393,21.647c0,10.883-15.227,11.609-27.997,11.659
		c-12.769-0.05-27.995-0.776-27.995-11.659c0-8.297,9.965-13.42,13.394-21.647c3.428-8.228,1.256-38.739-6.4-48.681
		c-7.657-9.942-22.398-13.465-22.398-25.7c0-14.781,9.691-36.887,43.4-36.951c33.711,0.064,43.402,22.17,43.402,36.951
		C184.275,107.33,169.533,110.853,161.877,120.795z"/>
	<path d="M150.912,175.318c2.357,5.655,9.207,9.175,9.207,14.879c0,7.48-10.467,7.98-19.245,8.013
		c-8.776-0.033-19.243-0.533-19.243-8.013c0-5.704,6.85-9.225,9.208-14.879C133.194,169.662,148.554,169.662,150.912,175.318z"/>
</g>
<g>
	<path fill-rule="evenodd" clip-rule="evenodd" d="M213.256,182.863c2.495,8.411-0.232,11.815-4.469,13.072
		c-4.238,1.258-8.379-0.109-10.875-8.522c-2.496-8.41,1.839-21.937,1.839-21.937S210.761,174.451,213.256,182.863z"/>
	<path fill-rule="evenodd" clip-rule="evenodd" d="M221.898,168.483c2.101,7.08-0.195,9.945-3.762,11.003
		c-3.566,1.058-7.053-0.093-9.153-7.172c-2.1-7.079,1.548-18.465,1.548-18.465S219.797,161.404,221.898,168.483z"/>
	<path fill-rule="evenodd" clip-rule="evenodd" d="M229.46,155.533c1.847,6.229-0.172,8.75-3.31,9.681s-6.205-0.082-8.053-6.311
		c-1.848-6.228,1.362-16.245,1.362-16.245S227.612,149.304,229.46,155.533z"/>
	<path fill-rule="evenodd" clip-rule="evenodd" d="M223.893,179.167c-8.412,2.496-9.779,6.638-8.521,10.875
		c1.257,4.237,4.662,6.963,13.073,4.468c8.412-2.495,17.387-13.505,17.387-13.505S232.304,176.671,223.893,179.167z"/>
	<path fill-rule="evenodd" clip-rule="evenodd" d="M231.234,164.082c-7.08,2.101-8.23,5.587-7.172,9.153
		c1.057,3.565,3.923,5.862,11.002,3.762c7.08-2.101,14.634-11.367,14.634-11.367S238.313,161.98,231.234,164.082z"/>
	<path fill-rule="evenodd" clip-rule="evenodd" d="M237.965,150.681c-6.23,1.847-7.241,4.915-6.311,8.052
		c0.93,3.138,3.453,5.158,9.681,3.31c6.229-1.847,12.875-10,12.875-10S244.194,148.833,237.965,150.681z"/>
	<path fill-rule="evenodd" clip-rule="evenodd" d="M242.255,143.262c-3.673,6.772-7.48,7.194-10.893,5.344
		c-3.412-1.851-5.135-5.272-1.461-12.045c3.672-6.772,14.764-12.48,14.764-12.48S245.929,136.489,242.255,143.262z"/>
	<polygon fill-rule="evenodd" clip-rule="evenodd" points="173.561,259.896 178.777,262.725 210.942,200.15 208.472,198.811 	"/>
	<path fill-rule="evenodd" clip-rule="evenodd" d="M176.104,260.601c0,0,18.993-57.806,61.257-49.941
		c-43.619,19.498-57.913,50.407-57.913,50.407"/>
</g>
</svg>
