<?xml version="1.0" encoding="iso-8859-1"?>
<!-- Generator: Adobe Illustrator 15.0.0, SVG Export Plug-In . SVG Version: 6.00 Build 0)  -->
<!DOCTYPE svg PUBLIC "-//W3C//DTD SVG 1.1//EN" "http://www.w3.org/Graphics/SVG/1.1/DTD/svg11.dtd">
<svg version="1.1" id="Layer_1" xmlns="http://www.w3.org/2000/svg" xmlns:xlink="http://www.w3.org/1999/xlink" x="0px" y="0px"
	 width="612px" height="792px" viewBox="0 0 612 792" style="enable-background:new 0 0 612 792;" xml:space="preserve">
<path d="M209.467,496.713c-0.852-14.082,4.305-45.379,31.662-42.215c6.155-0.208,23.818,0.232,19.127,0.232
	c48.413,21.867,74.097-31.059,128.627-24.858c-30.82,6.548-64.792,45.871-94.985,66.841
	C263.82,517.604,206.514,492.628,209.467,496.713z"/>
<path d="M160.875,480.883c0-8.208,0-16.418,0-24.626c12.732-16.597,37.356-8.496,49.251,3.518
	c-9.585,15.415-44.887-28.312-42.215,17.59c5.67,5.253,18.516,5.333,32.539,8.367c1.979,7.256,1.1,5.937,2.64,9.223"/>
<path d="M223.465,508.582v12.404h52.476v-7.5C257.514,516.567,236.508,511.938,223.465,508.582z"/>
<polygon points="241.165,438.313 234.457,450.772 259.083,450.772 252.375,438.313 "/>
<path d="M423.917,294.223c0,0-14.478,12.643-5.683,35.18c-13.742,0.22-51.12-4.301-51.12-4.301
	c24.119,6.335,55.614,5.294,67.502,23.858c-1.118,43.442-33.316,55.806-59.805,73.877c37.791-10.29,67.569-28.587,73.877-70.359
	C435.846,337.054,404.721,323.638,423.917,294.223z"/>
</svg>
