<?xml version="1.0" encoding="iso-8859-1"?>
<!-- Generator: Adobe Illustrator 15.0.0, SVG Export Plug-In . SVG Version: 6.00 Build 0)  -->
<!DOCTYPE svg PUBLIC "-//W3C//DTD SVG 1.1//EN" "http://www.w3.org/Graphics/SVG/1.1/DTD/svg11.dtd">
<svg version="1.1" id="Layer_1" xmlns="http://www.w3.org/2000/svg" xmlns:xlink="http://www.w3.org/1999/xlink" x="0px" y="0px"
	 width="612px" height="792px" viewBox="0 0 612 792" style="enable-background:new 0 0 612 792;" xml:space="preserve">
<rect x="244.289" y="370.432" width="121.845" height="65.234"/>
<path d="M374.697,338.099H235.726c-1.849,0-3.348,1.499-3.348,3.348v103.539c0,1.849,1.499,3.348,3.348,3.348h138.972
	c1.849,0,3.348-1.499,3.348-3.348V341.447C378.045,339.598,376.546,338.099,374.697,338.099z M364.167,345c3.589,0,6.5,2.91,6.5,6.5
	c0,3.589-2.91,6.5-6.5,6.5c-3.59,0-6.5-2.91-6.5-6.5C357.667,347.91,360.577,345,364.167,345z M344.167,345
	c3.589,0,6.5,2.91,6.5,6.5c0,3.589-2.91,6.5-6.5,6.5c-3.59,0-6.5-2.91-6.5-6.5C337.667,347.91,340.577,345,344.167,345z
	 M371.134,437.774c0,1.597-1.294,2.892-2.892,2.892H242.182c-1.597,0-2.893-1.295-2.893-2.892v-69.449
	c0-1.598,1.295-2.893,2.893-2.893h126.061c1.597,0,2.892,1.295,2.892,2.893V437.774z"/>
</svg>
