<?xml version="1.0" encoding="iso-8859-1"?>
<!-- Generator: Adobe Illustrator 15.0.0, SVG Export Plug-In . SVG Version: 6.00 Build 0)  -->
<!DOCTYPE svg PUBLIC "-//W3C//DTD SVG 1.1//EN" "http://www.w3.org/Graphics/SVG/1.1/DTD/svg11.dtd">
<svg version="1.1" id="Layer_1" xmlns="http://www.w3.org/2000/svg" xmlns:xlink="http://www.w3.org/1999/xlink" x="0px" y="0px"
	 width="612px" height="792px" viewBox="0 0 612 792" style="enable-background:new 0 0 612 792;" xml:space="preserve">
<g>
	<polygon points="277.602,351.098 277.602,380.822 298.028,380.822 323.506,400.724 323.506,331.197 298.03,351.098 	"/>
	<path d="M354.263,318.375l-5.99,9.427c10.902,4.695,19.167,20.264,19.167,38.157c0,17.74-8.125,33.195-18.889,38.033l5.86,9.472
		c14.081-7.186,24.11-25.741,24.11-47.505C378.521,344.118,368.423,325.504,354.263,318.375z"/>
	<path d="M342.612,336.709l-5.863,9.228c4.83,4.31,8.103,11.749,8.103,20.023c0,8.031-3.08,15.283-7.68,19.645l5.782,9.341
		c7.813-6.176,12.982-16.848,12.982-28.986C355.935,353.646,350.615,342.842,342.612,336.709z"/>
</g>
<g>
	<g>
		<path style="fill:#010101;" d="M256.258,339.591c10.8-29.806,39.388-51.16,72.875-51.16c33.487,0,62.076,21.354,72.876,51.16
			h13.531c-11.298-37.005-45.753-64.003-86.407-64.003s-75.107,26.999-86.406,64.003H256.258z"/>
		<path style="fill:#010101;" d="M402.008,392.249c-10.8,29.803-39.389,51.16-72.876,51.16c-33.486,0-62.074-21.357-72.875-51.16
			h-13.532c11.299,37.005,45.753,64.001,86.406,64.003c40.653-0.002,75.108-26.999,86.407-64.003H402.008z"/>
	</g>
	<polygon style="fill:#010101;" points="226.134,398.967 248.862,362.586 271.59,398.967 	"/>
	<polygon style="fill:#010101;" points="429.99,333.942 407.261,370.323 384.534,333.942 	"/>
</g>
</svg>
