<?xml version="1.0" encoding="iso-8859-1"?>
<!-- Generator: Adobe Illustrator 15.0.0, SVG Export Plug-In . SVG Version: 6.00 Build 0)  -->
<!DOCTYPE svg PUBLIC "-//W3C//DTD SVG 1.1//EN" "http://www.w3.org/Graphics/SVG/1.1/DTD/svg11.dtd">
<svg version="1.1" id="&#x421;&#x43B;&#x43E;&#x439;_1"
	 xmlns="http://www.w3.org/2000/svg" xmlns:xlink="http://www.w3.org/1999/xlink" x="0px" y="0px" width="600px" height="600px"
	 viewBox="0 0 600 600" style="enable-background:new 0 0 600 600;" xml:space="preserve">
<g>
	<rect x="461.779" y="-153.49" style="fill-rule:evenodd;clip-rule:evenodd;fill:#000003;" width="300" height="300"/>
	<g>
		<path style="fill-rule:evenodd;clip-rule:evenodd;fill:#FFFFFF;" d="M495.47,8.57l-6.45-6.45v-5.28h5.38l6.38,6.41
			c0.32,0.31,0.32,0.83,0,1.14l-4.17,4.18C496.3,8.88,495.779,8.88,495.47,8.57L495.47,8.57z M497.949,6.41L497.949,6.41L497.3,5.77
			c0.14-0.12,0.29-0.25,0.43-0.39c0.05-0.05,0.101-0.1,0.141-0.15l0.63,0.63l0.2-0.19l-0.65-0.65c0.24-0.271,0.42-0.561,0.56-0.85
			c0.19-0.42,0.271-0.82,0.23-1.18c-0.04-0.37-0.17-0.67-0.4-0.9c-0.24-0.23-0.5-0.36-0.8-0.39c-0.29-0.02-0.59,0.04-0.91,0.19
			c-0.25,0.12-0.64,0.34-1.149,0.66l-1.16-1.16c0.16-0.1,0.31-0.16,0.46-0.19c0.29-0.06,0.57-0.01,0.81,0.16l0.73-0.91
			c-0.32-0.21-0.62-0.32-0.92-0.34s-0.641,0.07-1.021,0.28c-0.22,0.11-0.43,0.25-0.64,0.42l-0.83-0.83l-0.189,0.19l0.8,0.81
			c-0.101,0.09-0.2,0.19-0.301,0.29c-0.09,0.09-0.17,0.18-0.249,0.271L492.26,0.73l-0.19,0.19l0.83,0.83
			c-0.079,0.11-0.16,0.22-0.229,0.33c-0.17,0.28-0.28,0.52-0.33,0.73c-0.07,0.28-0.08,0.54-0.021,0.8
			c0.051,0.25,0.17,0.47,0.351,0.66c0.2,0.189,0.44,0.32,0.729,0.36c0.29,0.04,0.601-0.01,0.931-0.15
			c0.199-0.09,0.479-0.24,0.83-0.46l1.319,1.31c-0.149,0.08-0.29,0.13-0.43,0.16c-0.36,0.06-0.7-0.02-1.021-0.25l-0.72,0.94
			c0.521,0.34,1.06,0.45,1.62,0.33c0.37-0.07,0.75-0.26,1.16-0.57l0.66,0.67L497.949,6.41L497.949,6.41z M496.72,5.19
			c0.14-0.1,0.29-0.229,0.44-0.379c0.05-0.05,0.1-0.101,0.14-0.15l-1.22-1.22c-0.051,0.03-0.09,0.06-0.141,0.09
			c-0.189,0.12-0.37,0.24-0.529,0.34L496.72,5.19L496.72,5.19L496.72,5.19z M497.479,4.45c0.19-0.24,0.3-0.47,0.34-0.69
			c0.061-0.31,0-0.56-0.17-0.73c-0.16-0.16-0.37-0.2-0.619-0.12c-0.131,0.04-0.37,0.16-0.711,0.38L497.479,4.45L497.479,4.45
			L497.479,4.45z M495.17,2.81c0.06-0.04,0.12-0.07,0.17-0.11l-1.15-1.15c-0.08,0.07-0.16,0.14-0.25,0.23
			c-0.109,0.11-0.21,0.22-0.3,0.33l1.021,1.02C494.8,3.041,494.97,2.94,495.17,2.81L495.17,2.81L495.17,2.81z M494.25,3.38
			c0.04-0.02,0.09-0.06,0.17-0.1l-0.94-0.95c-0.109,0.16-0.17,0.3-0.2,0.43c-0.06,0.27-0.02,0.47,0.12,0.61
			c0.09,0.09,0.2,0.14,0.34,0.14C493.89,3.521,494.05,3.47,494.25,3.38L494.25,3.38L494.25,3.38z M492.41-0.979L492.41-0.979
			c0-0.71-0.58-1.28-1.28-1.28s-1.271,0.57-1.271,1.28c0,0.7,0.57,1.27,1.271,1.27S492.41-0.28,492.41-0.979z"/>
		<path style="fill-rule:evenodd;clip-rule:evenodd;fill:#FFFFFF;" d="M516.359,10l-8.05-8.06v-6.6h6.73l7.97,8.02
			c0.39,0.39,0.39,1.03,0,1.43L517.8,10C517.399,10.4,516.76,10.4,516.359,10L516.359,10z M519.47,7.31L519.47,7.31l-0.81-0.8
			c0.18-0.15,0.35-0.31,0.539-0.49c0.061-0.06,0.11-0.12,0.171-0.19l0.79,0.79l0.239-0.24l-0.8-0.8c0.29-0.35,0.521-0.71,0.69-1.08
			c0.25-0.52,0.34-1.01,0.29-1.47c-0.051-0.46-0.221-0.83-0.5-1.12c-0.301-0.29-0.631-0.45-0.99-0.49
			c-0.37-0.03-0.75,0.05-1.15,0.24c-0.31,0.15-0.79,0.43-1.43,0.82l-1.45-1.45c0.19-0.12,0.38-0.2,0.57-0.24
			c0.37-0.07,0.71,0,1.021,0.21l0.909-1.14c-0.399-0.26-0.78-0.4-1.149-0.43c-0.37-0.02-0.801,0.1-1.28,0.35
			c-0.271,0.14-0.54,0.31-0.8,0.52l-1.04-1.03l-0.24,0.24l1.01,1.01c-0.13,0.12-0.25,0.24-0.38,0.36
			c-0.11,0.11-0.21,0.22-0.311,0.34l-1.01-1.02l-0.239,0.25l1.029,1.04c-0.1,0.13-0.189,0.26-0.279,0.4
			c-0.21,0.35-0.341,0.66-0.41,0.92c-0.09,0.35-0.101,0.68-0.03,1c0.061,0.32,0.21,0.59,0.44,0.82c0.25,0.25,0.55,0.4,0.909,0.45
			c0.36,0.05,0.751-0.01,1.16-0.19c0.25-0.11,0.601-0.3,1.05-0.57l1.641,1.64c-0.18,0.1-0.36,0.16-0.54,0.19
			c-0.45,0.09-0.87-0.01-1.271-0.3L514.92,7.02c0.65,0.43,1.33,0.57,2.02,0.42c0.46-0.1,0.95-0.34,1.45-0.72l0.83,0.83L519.47,7.31
			L519.47,7.31z M517.93,5.78c0.18-0.13,0.36-0.28,0.55-0.47c0.061-0.061,0.12-0.13,0.181-0.19l-1.53-1.53
			c-0.061,0.04-0.11,0.08-0.17,0.12c-0.24,0.15-0.471,0.3-0.67,0.43L517.93,5.78L517.93,5.78L517.93,5.78z M518.88,4.86
			c0.24-0.31,0.38-0.59,0.43-0.86c0.07-0.4,0-0.7-0.22-0.92c-0.2-0.19-0.45-0.25-0.771-0.149c-0.17,0.05-0.46,0.209-0.89,0.47
			L518.88,4.86L518.88,4.86L518.88,4.86z M515.989,2.81c0.07-0.05,0.15-0.09,0.221-0.14l-1.44-1.43c-0.1,0.08-0.2,0.17-0.31,0.28
			c-0.141,0.14-0.271,0.28-0.38,0.41l1.279,1.28C515.529,3.1,515.739,2.97,515.989,2.81L515.989,2.81L515.989,2.81z M514.84,3.521
			c0.05-0.03,0.12-0.07,0.22-0.13l-1.18-1.18c-0.13,0.2-0.21,0.37-0.25,0.54c-0.08,0.33-0.021,0.59,0.149,0.76
			c0.11,0.12,0.261,0.17,0.431,0.18C514.39,3.7,514.6,3.64,514.84,3.521L514.84,3.521L514.84,3.521z M512.54-1.93L512.54-1.93
			c0-0.88-0.71-1.6-1.591-1.6c-0.88,0-1.6,0.72-1.59,1.6c-0.01,0.87,0.71,1.59,1.59,1.59C511.83-0.34,512.54-1.06,512.54-1.93z"/>
		<path style="fill-rule:evenodd;clip-rule:evenodd;fill:#FFFFFF;" d="M540.26,11.44l-9.67-9.67v-7.92l8.08-0.01l9.569,9.62
			c0.471,0.48,0.471,1.25,0,1.72l-6.26,6.26C541.51,11.91,540.74,11.91,540.26,11.44L540.26,11.44z M543.99,8.21L543.99,8.21
			L543.02,7.25c0.21-0.18,0.42-0.38,0.641-0.59c0.069-0.08,0.14-0.15,0.21-0.22l0.949,0.94l0.29-0.29l-0.97-0.96
			c0.351-0.419,0.63-0.85,0.83-1.29c0.3-0.63,0.41-1.22,0.35-1.77c-0.06-0.55-0.26-0.99-0.6-1.34c-0.36-0.35-0.75-0.55-1.19-0.58
			c-0.439-0.04-0.899,0.05-1.369,0.28c-0.38,0.18-0.96,0.51-1.73,0.99l-1.74-1.74c0.24-0.15,0.471-0.25,0.69-0.29
			c0.439-0.09,0.85-0.01,1.22,0.25l1.09-1.37c-0.47-0.32-0.93-0.49-1.38-0.51c-0.439-0.03-0.95,0.11-1.53,0.41
			c-0.319,0.17-0.64,0.38-0.959,0.63l-1.24-1.24l-0.29,0.29l1.21,1.21c-0.15,0.14-0.311,0.28-0.46,0.439
			c-0.13,0.13-0.261,0.26-0.37,0.4l-1.21-1.22l-0.3,0.29l1.249,1.25c-0.119,0.16-0.239,0.32-0.34,0.49
			c-0.25,0.419-0.42,0.78-0.489,1.1c-0.11,0.41-0.12,0.81-0.04,1.2c0.079,0.38,0.26,0.71,0.529,0.98c0.301,0.3,0.66,0.48,1.091,0.54
			c0.43,0.07,0.899-0.01,1.399-0.23c0.3-0.13,0.72-0.35,1.25-0.68l1.971,1.97c-0.221,0.11-0.431,0.19-0.65,0.23
			c-0.53,0.1-1.04-0.02-1.521-0.36l-1.09,1.4c0.79,0.51,1.6,0.68,2.44,0.5c0.55-0.11,1.13-0.4,1.729-0.86l1,1L543.99,8.21
			L543.99,8.21z M542.14,6.37c0.22-0.15,0.44-0.34,0.66-0.56c0.08-0.081,0.149-0.15,0.22-0.23l-1.84-1.83
			c-0.07,0.04-0.14,0.09-0.21,0.14c-0.29,0.18-0.55,0.35-0.8,0.51L542.14,6.37L542.14,6.37L542.14,6.37z M543.279,5.271
			c0.29-0.37,0.46-0.72,0.511-1.04c0.09-0.47,0-0.84-0.261-1.1c-0.229-0.23-0.54-0.29-0.92-0.18c-0.199,0.06-0.56,0.25-1.069,0.57
			L543.279,5.271L543.279,5.271L543.279,5.271z M539.81,2.81c0.09-0.06,0.181-0.11,0.271-0.169l-1.73-1.72
			c-0.12,0.1-0.24,0.21-0.37,0.34c-0.17,0.17-0.319,0.34-0.449,0.49l1.529,1.54C539.26,3.16,539.52,3,539.81,2.81L539.81,2.81
			L539.81,2.81z M538.439,3.65c0.05-0.02,0.141-0.07,0.26-0.14l-1.419-1.42c-0.16,0.23-0.261,0.45-0.301,0.64
			c-0.09,0.4-0.03,0.71,0.181,0.92c0.14,0.14,0.31,0.21,0.52,0.21C537.89,3.87,538.14,3.8,538.439,3.65L538.439,3.65L538.439,3.65z
			 M535.67-2.88L535.67-2.88c0-1.06-0.86-1.92-1.91-1.91c-1.05,0-1.91,0.851-1.91,1.9c0,1.06,0.86,1.92,1.91,1.92
			S535.67-1.83,535.67-2.88z"/>
		<path style="fill-rule:evenodd;clip-rule:evenodd;fill:#FFFFFF;" d="M566.35,12.16L555.88,1.68v-8.58h8.75l10.359,10.42
			c0.511,0.51,0.521,1.35,0,1.86l-6.779,6.78C567.7,12.67,566.87,12.67,566.35,12.16L566.35,12.16z M570.39,8.66L570.39,8.66
			l-1.05-1.05c0.23-0.19,0.46-0.4,0.689-0.64c0.08-0.07,0.16-0.15,0.23-0.23l1.03,1.02l0.31-0.31l-1.04-1.05
			c0.38-0.45,0.67-0.91,0.9-1.39c0.319-0.68,0.439-1.32,0.38-1.92c-0.07-0.59-0.29-1.08-0.66-1.45c-0.38-0.38-0.81-0.59-1.29-0.63
			c-0.47-0.05-0.97,0.06-1.479,0.3c-0.42,0.2-1.041,0.56-1.87,1.07l-1.891-1.88c0.261-0.16,0.511-0.27,0.75-0.32
			c0.48-0.1,0.92,0,1.32,0.28l1.189-1.49c-0.52-0.34-1.02-0.52-1.499-0.55c-0.48-0.03-1.04,0.12-1.66,0.44
			c-0.351,0.19-0.7,0.41-1.04,0.69l-1.351-1.34l-0.31,0.31l1.31,1.31c-0.17,0.15-0.33,0.31-0.5,0.47
			c-0.14,0.14-0.27,0.29-0.399,0.44l-1.31-1.32l-0.32,0.32l1.35,1.35c-0.13,0.17-0.25,0.34-0.36,0.521
			c-0.279,0.46-0.46,0.86-0.54,1.2c-0.119,0.44-0.129,0.88-0.04,1.29c0.08,0.42,0.28,0.77,0.57,1.07c0.32,0.32,0.72,0.52,1.19,0.59
			c0.46,0.07,0.97-0.02,1.51-0.25c0.32-0.14,0.78-0.39,1.35-0.74L568,6.9c-0.24,0.13-0.471,0.21-0.7,0.25
			c-0.58,0.11-1.14-0.02-1.66-0.39l-1.17,1.52c0.86,0.56,1.73,0.74,2.64,0.54c0.601-0.12,1.221-0.43,1.88-0.93l1.08,1.08
			L570.39,8.66L570.39,8.66z M568.39,6.67c0.23-0.169,0.47-0.37,0.71-0.61c0.09-0.08,0.16-0.17,0.24-0.25l-1.99-1.99
			c-0.07,0.05-0.149,0.1-0.23,0.15c-0.31,0.21-0.6,0.39-0.859,0.56L568.39,6.67L568.39,6.67L568.39,6.67z M569.63,5.47
			c0.3-0.4,0.49-0.77,0.55-1.12c0.09-0.51,0-0.91-0.29-1.19c-0.25-0.26-0.58-0.32-0.99-0.2c-0.22,0.07-0.6,0.271-1.159,0.62
			L569.63,5.47L569.63,5.47L569.63,5.47z M565.87,2.81c0.09-0.06,0.189-0.13,0.28-0.18l-1.86-1.87c-0.141,0.11-0.271,0.23-0.41,0.36
			c-0.18,0.19-0.351,0.37-0.49,0.54l1.66,1.66C565.27,3.19,565.55,3.01,565.87,2.81L565.87,2.81L565.87,2.81z M564.38,3.72
			c0.06-0.03,0.15-0.08,0.28-0.16l-1.54-1.53c-0.17,0.25-0.271,0.48-0.32,0.69c-0.1,0.44-0.03,0.77,0.2,1
			c0.14,0.15,0.33,0.22,0.56,0.23C563.79,3.96,564.06,3.88,564.38,3.72L564.38,3.72L564.38,3.72z M561.38-3.36L561.38-3.36
			c0-1.14-0.931-2.07-2.07-2.07s-2.07,0.93-2.07,2.07s0.931,2.07,2.07,2.07S561.38-2.22,561.38-3.36z"/>
		<path style="fill-rule:evenodd;clip-rule:evenodd;fill:#FFFFFF;" d="M594.75,13.601L582.66,1.51v-9.91h10.1l11.96,12.02
			c0.59,0.6,0.59,1.56,0,2.15l-7.82,7.831C596.31,14.19,595.34,14.19,594.75,13.601L594.75,13.601z M599.409,9.561L599.409,9.561
			L598.2,8.35c0.26-0.22,0.52-0.47,0.8-0.74c0.09-0.09,0.18-0.18,0.26-0.27l1.18,1.18l0.37-0.36l-1.21-1.21
			c0.44-0.52,0.78-1.05,1.04-1.61c0.37-0.779,0.51-1.52,0.44-2.2c-0.08-0.69-0.33-1.25-0.761-1.68
			c-0.439-0.44-0.939-0.69-1.489-0.73c-0.551-0.05-1.12,0.07-1.71,0.35c-0.48,0.23-1.19,0.64-2.15,1.24l-2.18-2.18
			c0.29-0.18,0.58-0.31,0.859-0.36c0.551-0.12,1.061-0.01,1.53,0.31l1.36-1.71c-0.591-0.39-1.17-0.61-1.721-0.64
			c-0.56-0.03-1.199,0.14-1.919,0.52c-0.411,0.21-0.801,0.47-1.201,0.79l-1.56-1.55l-0.36,0.36l1.521,1.51
			c-0.19,0.17-0.39,0.35-0.58,0.54c-0.16,0.17-0.32,0.34-0.46,0.5l-1.521-1.51l-0.359,0.36l1.55,1.56c-0.15,0.2-0.29,0.4-0.41,0.61
			c-0.319,0.52-0.529,0.98-0.62,1.38c-0.14,0.51-0.16,1.01-0.05,1.49c0.101,0.48,0.32,0.89,0.66,1.23c0.37,0.37,0.83,0.6,1.37,0.68
			c0.54,0.08,1.12-0.02,1.74-0.28c0.38-0.17,0.899-0.45,1.569-0.86l2.46,2.46c-0.27,0.15-0.54,0.24-0.81,0.29
			c-0.67,0.12-1.311-0.03-1.91-0.45l-1.35,1.75c0.979,0.64,2,0.85,3.04,0.629c0.689-0.149,1.409-0.5,2.17-1.07l1.25,1.24
			L599.409,9.561L599.409,9.561z M597.1,7.26c0.271-0.19,0.551-0.43,0.82-0.7c0.1-0.1,0.189-0.19,0.28-0.29l-2.301-2.29
			c-0.08,0.05-0.17,0.11-0.26,0.169c-0.36,0.24-0.7,0.451-1,0.64L597.1,7.26L597.1,7.26L597.1,7.26z M598.529,5.88
			c0.351-0.46,0.561-0.89,0.641-1.29c0.1-0.59-0.01-1.05-0.33-1.38c-0.3-0.29-0.68-0.37-1.16-0.229c-0.25,0.08-0.69,0.31-1.33,0.72
			L598.529,5.88L598.529,5.88L598.529,5.88z M594.189,2.81c0.11-0.08,0.221-0.15,0.33-0.21l-2.149-2.16
			c-0.16,0.13-0.311,0.271-0.471,0.42c-0.22,0.22-0.41,0.43-0.569,0.63l1.909,1.91C593.5,3.24,593.819,3.041,594.189,2.81
			L594.189,2.81L594.189,2.81z M592.47,3.86c0.07-0.03,0.17-0.09,0.32-0.18l-1.771-1.77c-0.189,0.29-0.319,0.56-0.37,0.8
			c-0.109,0.5-0.04,0.89,0.23,1.15c0.16,0.17,0.38,0.26,0.64,0.26C591.79,4.13,592.1,4.05,592.47,3.86L592.47,3.86L592.47,3.86z
			 M589.01-4.31L589.01-4.31c0-1.32-1.07-2.39-2.38-2.39c-1.32,0-2.391,1.07-2.391,2.39c0,1.32,1.07,2.39,2.391,2.39
			C587.939-1.92,589.01-2.99,589.01-4.31z"/>
		<path style="fill-rule:evenodd;clip-rule:evenodd;fill:#FFFFFF;" d="M628.56,17.19L612.45,1.07v-13.21h13.46l15.949,16.03
			c0.78,0.79,0.791,2.08,0,2.87l-10.43,10.43C630.64,17.97,629.35,17.97,628.56,17.19L628.56,17.19z M634.77,11.8L634.77,11.8
			l-1.609-1.6c0.35-0.3,0.699-0.63,1.069-0.99c0.12-0.12,0.24-0.24,0.351-0.37l1.58,1.58l0.479-0.48l-1.61-1.61
			c0.58-0.7,1.04-1.411,1.391-2.14c0.49-1.05,0.68-2.03,0.58-2.95c-0.101-0.91-0.44-1.66-1.01-2.24c-0.591-0.59-1.25-0.91-1.98-0.97
			c-0.73-0.07-1.49,0.09-2.29,0.47c-0.63,0.3-1.59,0.851-2.87,1.65l-2.899-2.9c0.39-0.25,0.77-0.41,1.149-0.49
			c0.74-0.15,1.42-0.01,2.04,0.42l1.811-2.28c-0.79-0.52-1.551-0.81-2.3-0.85c-0.74-0.05-1.591,0.18-2.561,0.68
			c-0.53,0.29-1.061,0.63-1.601,1.061l-2.069-2.07l-0.48,0.48l2.021,2.03c-0.25,0.22-0.511,0.46-0.771,0.72
			c-0.22,0.21-0.42,0.44-0.62,0.66l-2.01-2.02l-0.49,0.49l2.07,2.07c-0.2,0.271-0.39,0.54-0.55,0.811c-0.43,0.7-0.7,1.32-0.83,1.84
			c-0.18,0.69-0.2,1.35-0.07,1.99c0.141,0.64,0.43,1.19,0.88,1.64c0.5,0.5,1.11,0.81,1.83,0.91c0.721,0.11,1.49-0.02,2.32-0.38
			c0.51-0.22,1.21-0.6,2.09-1.14l3.29,3.28c-0.37,0.189-0.73,0.32-1.08,0.38c-0.899,0.17-1.75-0.03-2.55-0.6l-1.8,2.35
			c1.31,0.85,2.66,1.12,4.06,0.83c0.91-0.19,1.88-0.669,2.891-1.43l1.659,1.661L634.77,11.8L634.77,11.8z M631.699,8.74
			c0.36-0.26,0.73-0.57,1.101-0.94c0.12-0.12,0.24-0.25,0.36-0.38l-3.061-3.05c-0.109,0.07-0.229,0.15-0.35,0.22
			c-0.48,0.32-0.931,0.6-1.34,0.86L631.699,8.74L631.699,8.74L631.699,8.74z M633.6,6.9c0.47-0.62,0.76-1.19,0.851-1.72
			c0.149-0.79,0-1.4-0.44-1.84c-0.39-0.39-0.9-0.49-1.53-0.3c-0.34,0.1-0.93,0.41-1.79,0.95L633.6,6.9L633.6,6.9L633.6,6.9z
			 M627.82,2.8c0.149-0.09,0.289-0.19,0.439-0.28l-2.87-2.87c-0.21,0.17-0.42,0.36-0.63,0.56c-0.28,0.29-0.54,0.57-0.76,0.83
			l2.56,2.56C626.899,3.38,627.319,3.12,627.82,2.8L627.82,2.8L627.82,2.8z M625.52,4.21c0.1-0.05,0.24-0.13,0.431-0.25l-2.36-2.359
			c-0.26,0.39-0.42,0.75-0.49,1.069c-0.15,0.67-0.05,1.19,0.3,1.54c0.221,0.22,0.511,0.34,0.86,0.34
			C624.62,4.57,625.04,4.46,625.52,4.21L625.52,4.21L625.52,4.21z M620.91-6.69L620.91-6.69c0-1.76-1.421-3.18-3.181-3.18
			c-1.75,0-3.18,1.42-3.18,3.18c0,1.76,1.42,3.19,3.18,3.19S620.91-4.93,620.91-6.69z"/>
		<path style="fill-rule:evenodd;clip-rule:evenodd;fill:#FFFFFF;" d="M669.069,20.06l-19.34-19.34l0.01-15.85h16.141l19.14,19.24
			c0.95,0.94,0.95,2.49,0,3.44l-12.51,12.51C671.56,21.01,670.02,21.01,669.069,20.06L669.069,20.06z M676.52,13.601L676.52,13.601
			l-1.939-1.931c0.43-0.35,0.85-0.75,1.29-1.18c0.14-0.14,0.279-0.29,0.42-0.44l1.89,1.89l0.58-0.58l-1.92-1.93
			c0.689-0.83,1.24-1.69,1.66-2.57c0.58-1.26,0.819-2.44,0.7-3.53c-0.12-1.1-0.53-2-1.221-2.69c-0.71-0.71-1.5-1.1-2.37-1.17
			c-0.88-0.08-1.8,0.11-2.75,0.57c-0.76,0.36-1.909,1.021-3.439,1.97l-3.49-3.48c0.47-0.29,0.93-0.49,1.38-0.58
			c0.89-0.18,1.7-0.01,2.45,0.51l2.18-2.74c-0.949-0.63-1.87-0.97-2.76-1.03c-0.89-0.05-1.92,0.22-3.07,0.83
			c-0.649,0.33-1.279,0.75-1.93,1.26L661.7-5.7l-0.58,0.58l2.43,2.43c-0.311,0.27-0.62,0.56-0.92,0.86
			c-0.271,0.261-0.51,0.53-0.75,0.8l-2.42-2.43l-0.58,0.59l2.49,2.49c-0.25,0.32-0.471,0.64-0.67,0.97
			c-0.511,0.84-0.841,1.58-0.99,2.21c-0.221,0.82-0.25,1.62-0.08,2.39c0.16,0.771,0.51,1.42,1.06,1.97c0.59,0.6,1.32,0.96,2.19,1.09
			c0.859,0.12,1.79-0.03,2.78-0.459c0.609-0.26,1.449-0.72,2.51-1.37l3.939,3.94c-0.43,0.229-0.869,0.38-1.29,0.46
			c-1.08,0.2-2.1-0.04-3.06-0.72l-2.16,2.81c1.58,1.02,3.2,1.35,4.87,0.99c1.1-0.22,2.26-0.8,3.47-1.71l2,1.99L676.52,13.601
			L676.52,13.601z M672.83,9.92c0.439-0.3,0.88-0.68,1.32-1.12c0.149-0.15,0.3-0.3,0.43-0.46l-3.66-3.66
			c-0.141,0.08-0.28,0.18-0.43,0.27c-0.57,0.38-1.11,0.72-1.601,1.03L672.83,9.92L672.83,9.92L672.83,9.92z M675.119,7.71
			c0.561-0.729,0.9-1.419,1.021-2.06c0.17-0.95,0-1.68-0.53-2.21c-0.47-0.46-1.08-0.59-1.84-0.36c-0.399,0.12-1.109,0.5-2.14,1.14
			L675.119,7.71L675.119,7.71L675.119,7.71z M668.18,2.8c0.18-0.12,0.35-0.23,0.53-0.33l-3.45-3.45c-0.25,0.2-0.5,0.42-0.75,0.67
			c-0.34,0.35-0.65,0.68-0.91,1l3.061,3.06C667.08,3.5,667.58,3.181,668.18,2.8L668.18,2.8L668.18,2.8z M665.42,4.49
			c0.109-0.06,0.28-0.15,0.52-0.3l-2.84-2.83c-0.31,0.46-0.5,0.89-0.59,1.28c-0.18,0.81-0.06,1.42,0.37,1.85
			c0.26,0.26,0.609,0.4,1.03,0.41C664.34,4.92,664.84,4.78,665.42,4.49L665.42,4.49L665.42,4.49z M659.89-8.59L659.89-8.59
			c0-2.11-1.71-3.82-3.81-3.82c-2.11,0-3.83,1.71-3.83,3.82s1.72,3.82,3.83,3.82C658.18-4.77,659.89-6.48,659.89-8.59z"/>
		<path style="fill-rule:evenodd;clip-rule:evenodd;fill:#FFFFFF;" d="M717.189,24.37L693.02,0.19v-19.81h20.19l23.92,24.05
			c1.18,1.18,1.18,3.11,0,4.3l-15.64,15.64C720.31,25.55,718.38,25.55,717.189,24.37L717.189,24.37z M726.5,16.3L726.5,16.3
			l-2.42-2.41c0.529-0.45,1.06-0.94,1.609-1.48c0.181-0.18,0.351-0.36,0.53-0.55l2.36,2.36l0.72-0.72l-2.4-2.41
			c0.87-1.05,1.551-2.12,2.07-3.22c0.74-1.57,1.03-3.04,0.88-4.42c-0.149-1.37-0.66-2.49-1.52-3.36
			c-0.891-0.88-1.881-1.36-2.971-1.46c-1.1-0.09-2.239,0.14-3.43,0.71c-0.95,0.46-2.39,1.28-4.31,2.47l-4.351-4.35
			c0.59-0.36,1.16-0.61,1.721-0.72c1.109-0.23,2.13-0.02,3.06,0.63l2.72-3.42c-1.18-0.8-2.33-1.22-3.45-1.29
			c-1.109-0.07-2.39,0.28-3.83,1.03c-0.81,0.42-1.609,0.95-2.409,1.58l-3.101-3.1L707.25-7.1l3.04,3.03
			c-0.39,0.34-0.771,0.7-1.16,1.08c-0.32,0.33-0.63,0.66-0.92,1l-3.03-3.04l-0.73,0.73l3.11,3.12c-0.31,0.4-0.58,0.8-0.83,1.21
			c-0.64,1.05-1.05,1.97-1.25,2.76c-0.27,1.04-0.3,2.03-0.1,2.99s0.649,1.78,1.33,2.46c0.75,0.75,1.66,1.21,2.739,1.36
			c1.08,0.16,2.24-0.03,3.48-0.57c0.75-0.33,1.8-0.9,3.13-1.71l4.931,4.92c-0.551,0.29-1.08,0.48-1.62,0.58
			c-1.341,0.25-2.61-0.05-3.82-0.9l-2.7,3.51c1.97,1.27,4,1.69,6.08,1.25c1.38-0.291,2.83-1.011,4.34-2.15l2.5,2.49L726.5,16.3
			L726.5,16.3z M721.89,11.7c0.54-0.38,1.09-0.85,1.65-1.41c0.189-0.189,0.37-0.38,0.54-0.56l-4.58-4.59
			c-0.181,0.11-0.35,0.23-0.53,0.34c-0.72,0.47-1.39,0.9-2,1.29L721.89,11.7L721.89,11.7L721.89,11.7z M724.75,8.94
			c0.7-0.92,1.13-1.78,1.28-2.58c0.209-1.19-0.011-2.11-0.66-2.76c-0.591-0.58-1.36-0.74-2.311-0.45c-0.5,0.15-1.39,0.62-2.68,1.42
			L724.75,8.94L724.75,8.94L724.75,8.94z M716.069,2.791c0.221-0.14,0.45-0.28,0.66-0.41l-4.31-4.31c-0.3,0.25-0.61,0.53-0.93,0.84
			c-0.431,0.44-0.811,0.85-1.141,1.24l3.83,3.831C714.7,3.66,715.33,3.27,716.069,2.791L716.069,2.791L716.069,2.791z M712.63,4.91
			c0.14-0.07,0.35-0.2,0.649-0.37l-3.55-3.55c-0.39,0.58-0.63,1.12-0.74,1.61c-0.229,1.01-0.069,1.78,0.46,2.3
			c0.33,0.34,0.761,0.51,1.291,0.52C711.27,5.45,711.899,5.28,712.63,4.91L712.63,4.91L712.63,4.91z M705.72-11.44L705.72-11.44
			c0-2.64-2.14-4.78-4.77-4.78c-2.641,0-4.79,2.14-4.78,4.78c-0.01,2.63,2.14,4.78,4.78,4.78C703.58-6.66,705.72-8.81,705.72-11.44z
			"/>
	</g>
</g>
</svg>
