<?xml version="1.0" encoding="iso-8859-1"?>
<!-- Generator: Adobe Illustrator 15.0.0, SVG Export Plug-In . SVG Version: 6.00 Build 0)  -->
<!DOCTYPE svg PUBLIC "-//W3C//DTD SVG 1.1//EN" "http://www.w3.org/Graphics/SVG/1.1/DTD/svg11.dtd">
<svg version="1.1" id="Layer_1" xmlns="http://www.w3.org/2000/svg" xmlns:xlink="http://www.w3.org/1999/xlink" x="0px" y="0px"
	 width="612px" height="792px" viewBox="0 0 612 792" style="enable-background:new 0 0 612 792;" xml:space="preserve">
<g>
	<polygon points="225.667,403.667 225.667,424.479 282.333,424.479 282.333,384.667 290.333,381.333 290.333,345.667 
		250.667,345.667 	"/>
	<rect x="225.667" y="434.188" width="56.667" height="13.146"/>
	<rect x="261" y="328" width="24.333" height="10"/>
	<polygon points="350,345.667 310.333,345.667 310.333,381.333 318.333,384.667 318.333,424.479 375,424.479 375,403.667 	"/>
	<rect x="318.333" y="434.188" width="56.667" height="13.146"/>
	<rect x="315.333" y="328" width="24.333" height="10"/>
	<polygon points="294.333,345.667 294.333,345.667 294.333,378.667 294.333,378.667 306.333,378.667 306.333,378.667 
		306.333,345.667 306.333,345.667 	"/>
</g>
</svg>
