<?xml version="1.0" encoding="utf-8"?>
<!-- Generator: Adobe Illustrator 15.0.0, SVG Export Plug-In . SVG Version: 6.00 Build 0)  -->
<!DOCTYPE svg PUBLIC "-//W3C//DTD SVG 1.1//EN" "http://www.w3.org/Graphics/SVG/1.1/DTD/svg11.dtd">
<svg version="1.1" id="Layer_1" xmlns="http://www.w3.org/2000/svg" xmlns:xlink="http://www.w3.org/1999/xlink" x="0px" y="0px"
	 width="162px" height="148px" viewBox="0 0 162 148" enable-background="new 0 0 162 148" xml:space="preserve">
<path fill="#010101" stroke="#010101" d="M95.854,46.167H85.688c0,0-1.324,12.057-9.01,18.665c-7.686-6.607-9.01-18.665-9.01-18.665
	H57.5c-1.765,1.009-9.813,12.467-9.813,12.467l5.596,7.843l6.136-5.262l3.365,18.422c0.756,8.447-1.42,20.152-1.42,20.152
	c4.412,0,8.452,0,12.157,0c0.736,0,1.458,0,2.166,0c0.671,0,1.331,0,1.979,0c0.708,0,1.43,0,2.166,0c3.705,0,7.745,0,12.157,0
	c0,0-2.177-11.705-1.42-20.152l3.365-18.422l6.136,5.262l5.596-7.843C105.667,58.634,97.62,47.176,95.854,46.167z"/>
</svg>
