<?xml version="1.0" encoding="iso-8859-1"?>
<!-- Generator: Adobe Illustrator 15.0.0, SVG Export Plug-In . SVG Version: 6.00 Build 0)  -->
<!DOCTYPE svg PUBLIC "-//W3C//DTD SVG 1.1//EN" "http://www.w3.org/Graphics/SVG/1.1/DTD/svg11.dtd">
<svg version="1.1" xmlns="http://www.w3.org/2000/svg" xmlns:xlink="http://www.w3.org/1999/xlink" x="0px" y="0px" width="300px"
	 height="300px" viewBox="0 0 300 300" style="enable-background:new 0 0 300 300;" xml:space="preserve">
<g id="Layer_1">
	<g>
		<rect x="0.56" y="-0.31" style="fill-rule:evenodd;clip-rule:evenodd;fill:#666666;" width="300" height="300"/>
		<g>
			<g>
				<path style="fill-rule:evenodd;clip-rule:evenodd;fill:#FFFFFF;" d="M57.56,162.5c-0.22-0.89-0.15-1.75,0.13-2.41l-11.68-5.54
					l0.01-0.01l-4.88-2.29l0.01-0.01l-9.27-4.4c-0.46,0.4-1,0.76-1.61,1.04c-2.41,1.12-5,0.66-5.79-1.03
					c-0.78-1.69,0.53-3.98,2.94-5.1c0.03-0.01,0.07-0.03,0.11-0.05c0.25-2.41,1.93-4.29,3.74-4.19c1.82,0.1,3.1,2.14,2.85,4.55
					c-0.04,0.39-0.12,0.77-0.23,1.13l11.52,5.47H45.4l6.01,2.85l8.23,3.9c0.53-0.61,1.25-1.16,2.1-1.561
					c2.4-1.109,5-0.649,5.78,1.04c0.79,1.69-0.52,3.971-2.93,5.091c-0.92,0.43-1.87,0.63-2.74,0.609
					c0.34,1.601-0.26,3.101-1.39,3.391C59.28,165.28,57.99,164.16,57.56,162.5z M31.55,164.97c-1.13-0.279-1.74-1.779-1.4-3.38
					c-0.87,0.021-1.82-0.18-2.74-0.609c-2.4-1.12-3.72-3.4-2.93-5.091c0.79-1.689,3.38-2.159,5.79-1.04
					c0.85,0.4,1.56,0.94,2.1,1.561l7.96-3.79l4.86,2.31l-10.88,5.16c0.29,0.66,0.35,1.521,0.13,2.41
					C34.02,164.16,32.72,165.27,31.55,164.97z M59.36,157.73c-0.55-0.12-0.96,0.14-1.16,0.659l-0.05-0.02l-0.08,0.42h0.02
					c-0.03,0.2-0.04,0.41-0.03,0.65c0.3-0.511,0.79-0.73,1.42-0.58c0.79,0.18,1.63,0.939,2.28,1.949
					C61.36,159.32,60.32,157.96,59.36,157.73z M32.52,158.86c0.63-0.15,1.12,0.069,1.43,0.569c0.06-1.17-0.46-1.899-1.3-1.699
					c-0.96,0.229-2.01,1.59-2.4,3.079C30.9,159.8,31.73,159.04,32.52,158.86z M46.18,152.78l-13.84-6.46
					c0.14-1.46-0.39-3.29-1.26-4.23c-0.8-0.84-1.63-0.69-2.05,0.26c0.52-0.14,1.13,0.09,1.72,0.72c0.69,0.74,1.22,1.88,1.5,3.1
					l0.14,0.76l8.33,3.84L46.18,152.78z M51.66,151.85l-4.87-2.29l11.32-5.37c-0.11-0.36-0.19-0.74-0.23-1.14
					c-0.25-2.41,1.03-4.45,2.85-4.55c1.82-0.09,3.5,1.79,3.74,4.2c0.04,0.02,0.08,0.04,0.12,0.05c2.41,1.12,3.72,3.41,2.93,5.1
					s-3.38,2.15-5.78,1.03c-0.62-0.28-1.16-0.64-1.61-1.05L51.66,151.85z M61.26,143.07c0.59-0.63,1.19-0.86,1.71-0.72
					c-0.41-0.96-1.25-1.1-2.04-0.26c-0.91,0.97-1.45,2.89-1.24,4.37C59.95,145.13,60.51,143.86,61.26,143.07z"/>
				<rect x="23.5" y="129.26" style="fill-rule:evenodd;clip-rule:evenodd;fill:none;" width="45" height="45"/>
			</g>
			<g>
				<path style="fill-rule:evenodd;clip-rule:evenodd;fill:#FFFFFF;" d="M103.79,160.35c-0.18-0.71-0.13-1.399,0.1-1.92l-9.35-4.439
					h0.01l-3.91-1.84l0.01-0.011l-7.41-3.52c-0.37,0.32-0.8,0.61-1.29,0.84c-1.93,0.89-4,0.53-4.63-0.83
					c-0.63-1.35,0.42-3.18,2.35-4.07c0.03-0.01,0.06-0.03,0.09-0.04c0.2-1.93,1.54-3.44,2.99-3.36c1.46,0.08,2.48,1.71,2.28,3.64
					c-0.03,0.32-0.09,0.62-0.18,0.91l9.21,4.37l0,0l4.8,2.28l6.58,3.12c0.43-0.49,1-0.921,1.69-1.24c1.92-0.9,3.99-0.53,4.62,0.819
					c0.63,1.36-0.42,3.181-2.34,4.08c-0.74,0.341-1.5,0.5-2.19,0.49c0.27,1.28-0.22,2.48-1.12,2.7
					C105.16,162.57,104.12,161.68,103.79,160.35z M82.97,162.33c-0.9-0.22-1.39-1.42-1.11-2.7c-0.7,0.01-1.46-0.149-2.2-0.49
					c-1.92-0.899-2.97-2.72-2.34-4.08c0.63-1.35,2.7-1.72,4.63-0.819c0.68,0.31,1.25,0.75,1.68,1.24l6.37-3.03l3.88,1.84l-8.7,4.13
					c0.23,0.53,0.28,1.22,0.11,1.93C84.95,161.68,83.91,162.57,82.97,162.33z M105.22,156.54c-0.44-0.1-0.76,0.11-0.93,0.52
					l-0.03-0.01l-0.07,0.33l0.01,0.01c-0.02,0.15-0.03,0.33-0.02,0.511c0.25-0.4,0.64-0.58,1.14-0.46c0.63,0.149,1.3,0.75,1.82,1.56
					C106.83,157.81,105.99,156.72,105.22,156.54z M83.75,157.44c0.51-0.12,0.9,0.06,1.14,0.46c0.05-0.94-0.36-1.521-1.04-1.36
					c-0.77,0.18-1.6,1.27-1.92,2.46C82.45,158.19,83.12,157.59,83.75,157.44z M94.68,152.58l-11.08-5.17c0.12-1.17-0.3-2.63-1-3.38
					c-0.64-0.68-1.31-0.56-1.64,0.21c0.42-0.12,0.9,0.07,1.37,0.57c0.56,0.59,0.98,1.5,1.21,2.48l0.11,0.61l6.66,3.07L94.68,152.58z
					 M99.06,151.83L95.17,150l9.05-4.3c-0.08-0.28-0.15-0.58-0.18-0.9c-0.2-1.93,0.83-3.56,2.28-3.64c1.45-0.08,2.8,1.42,2.99,3.35
					c0.03,0.02,0.07,0.03,0.09,0.05c1.93,0.89,2.98,2.72,2.35,4.07s-2.7,1.72-4.63,0.83c-0.49-0.23-0.92-0.52-1.28-0.84
					L99.06,151.83z M106.74,144.81c0.47-0.51,0.96-0.69,1.37-0.58c-0.33-0.76-1-0.88-1.63-0.2c-0.73,0.77-1.16,2.31-1,3.49
					C105.69,146.46,106.14,145.44,106.74,144.81z"/>
				<rect x="76.54" y="133.76" style="fill-rule:evenodd;clip-rule:evenodd;fill:none;" width="36" height="36"/>
			</g>
			<g>
				<path style="fill-rule:evenodd;clip-rule:evenodd;fill:#FFFFFF;" d="M143.28,158.92c-0.15-0.59-0.1-1.17,0.09-1.6l-7.79-3.7l0,0
					l-3.25-1.54h0.01l-6.18-2.94c-0.31,0.27-0.67,0.52-1.08,0.7c-1.6,0.75-3.33,0.44-3.85-0.69c-0.53-1.12,0.35-2.65,1.95-3.39
					c0.03-0.01,0.05-0.03,0.08-0.04c0.16-1.61,1.28-2.86,2.49-2.79c1.21,0.06,2.07,1.42,1.9,3.03c-0.02,0.26-0.08,0.52-0.15,0.76
					l7.68,3.64h-0.01l4.01,1.9l5.48,2.601c0.36-0.41,0.84-0.771,1.4-1.04c1.61-0.74,3.34-0.431,3.86,0.689
					c0.52,1.13-0.35,2.65-1.95,3.4c-0.62,0.29-1.25,0.42-1.83,0.41c0.23,1.06-0.18,2.06-0.93,2.25
					C144.43,160.77,143.56,160.03,143.28,158.92z M125.94,160.57c-0.76-0.19-1.16-1.19-0.94-2.25c-0.57,0.01-1.21-0.13-1.82-0.41
					c-1.6-0.75-2.48-2.271-1.96-3.4c0.53-1.12,2.26-1.43,3.86-0.689c0.57,0.27,1.05,0.63,1.4,1.04l5.31-2.521l3.24,1.53l-7.25,3.439
					c0.19,0.44,0.23,1.021,0.08,1.61C127.58,160.03,126.72,160.77,125.94,160.57z M144.47,155.74c-0.36-0.08-0.63,0.09-0.77,0.439
					l-0.03-0.01l-0.05,0.28h0.01c-0.02,0.13-0.03,0.27-0.02,0.43c0.2-0.34,0.53-0.479,0.95-0.39c0.53,0.13,1.08,0.63,1.52,1.31
					C145.81,156.8,145.12,155.89,144.47,155.74z M126.59,156.49c0.42-0.101,0.74,0.05,0.95,0.39c0.03-0.78-0.31-1.27-0.87-1.14
					c-0.64,0.149-1.34,1.06-1.6,2.06C125.5,157.12,126.06,156.62,126.59,156.49z M135.69,152.44l-9.23-4.311
					c0.1-0.97-0.25-2.19-0.84-2.81c-0.53-0.57-1.09-0.47-1.36,0.17c0.34-0.09,0.75,0.06,1.14,0.48c0.46,0.49,0.82,1.25,1.01,2.06
					l0.09,0.51l5.55,2.56L135.69,152.44z M139.35,151.82l-3.25-1.53l7.55-3.58c-0.08-0.24-0.13-0.49-0.16-0.75
					c-0.16-1.61,0.69-2.97,1.9-3.04c1.21-0.06,2.33,1.19,2.49,2.8c0.03,0.01,0.06,0.03,0.08,0.04c1.61,0.74,2.48,2.27,1.96,3.39
					c-0.53,1.13-2.25,1.44-3.86,0.69c-0.41-0.19-0.77-0.43-1.07-0.7L139.35,151.82z M145.74,145.96c0.4-0.41,0.8-0.56,1.15-0.47
					c-0.28-0.64-0.84-0.74-1.37-0.17c-0.6,0.64-0.96,1.92-0.83,2.91C144.87,147.34,145.24,146.5,145.74,145.96z"/>
				<rect x="120.57" y="136.76" style="fill-rule:evenodd;clip-rule:evenodd;fill:none;" width="30" height="30"/>
			</g>
			<g>
				<path style="fill-rule:evenodd;clip-rule:evenodd;fill:#FFFFFF;" d="M175.64,157.13c-0.109-0.439-0.08-0.87,0.061-1.2
					l-5.84-2.77v-0.01l-2.44-1.15h0.01l-4.63-2.2c-0.229,0.2-0.5,0.38-0.81,0.52c-1.2,0.56-2.5,0.33-2.891-0.52
					c-0.399-0.84,0.261-1.98,1.46-2.54c0.021-0.01,0.04-0.02,0.061-0.03c0.13-1.2,0.96-2.14,1.87-2.1c0.91,0.05,1.55,1.07,1.43,2.28
					c-0.02,0.2-0.06,0.39-0.12,0.57l5.76,2.73l0,0l3,1.42l4.11,1.96c0.271-0.31,0.63-0.58,1.061-0.78
					c1.199-0.56,2.489-0.329,2.89,0.521c0.39,0.84-0.26,1.979-1.47,2.54c-0.46,0.22-0.931,0.32-1.37,0.31
					c0.17,0.801-0.13,1.551-0.7,1.69C176.5,158.52,175.85,157.96,175.64,157.13z M162.63,158.37c-0.57-0.14-0.87-0.89-0.7-1.69
					c-0.43,0.011-0.91-0.09-1.37-0.31c-1.199-0.561-1.859-1.7-1.46-2.55c0.391-0.84,1.69-1.07,2.891-0.511
					c0.42,0.2,0.779,0.471,1.05,0.771l3.979-1.89l2.431,1.149l-5.44,2.59c0.141,0.32,0.181,0.761,0.07,1.2
					C163.86,157.96,163.22,158.52,162.63,158.37z M176.53,154.75c-0.271-0.07-0.471,0.07-0.58,0.33l-0.021-0.01l-0.04,0.199
					l0.011,0.011c-0.021,0.09-0.021,0.2-0.021,0.319c0.16-0.25,0.4-0.359,0.72-0.29c0.391,0.091,0.811,0.471,1.141,0.98
					C177.54,155.54,177.01,154.86,176.53,154.75z M163.12,155.31c0.31-0.069,0.56,0.04,0.71,0.29c0.03-0.59-0.23-0.949-0.65-0.85
					c-0.479,0.11-1,0.79-1.199,1.54C162.3,155.78,162.72,155.4,163.12,155.31z M169.95,152.27l-6.931-3.229
					c0.08-0.73-0.189-1.64-0.63-2.11c-0.39-0.42-0.81-0.35-1.02,0.13c0.26-0.07,0.56,0.04,0.86,0.35c0.35,0.37,0.609,0.95,0.75,1.56
					l0.069,0.37l4.17,1.93L169.95,152.27z M172.69,151.81l-2.44-1.149l5.66-2.68c-0.05-0.18-0.09-0.37-0.11-0.57
					c-0.13-1.21,0.51-2.23,1.42-2.28c0.91-0.04,1.75,0.89,1.87,2.1c0.021,0.01,0.04,0.02,0.061,0.03c1.199,0.56,1.859,1.7,1.47,2.54
					c-0.4,0.85-1.69,1.08-2.9,0.52c-0.3-0.14-0.569-0.32-0.8-0.52L172.69,151.81z M177.49,147.41c0.29-0.31,0.59-0.42,0.85-0.35
					c-0.2-0.48-0.62-0.56-1.02-0.13c-0.45,0.48-0.721,1.44-0.62,2.18C176.83,148.45,177.11,147.81,177.49,147.41z"/>
				<rect x="158.61" y="140.51" style="fill-rule:evenodd;clip-rule:evenodd;fill:none;" width="22.5" height="22.5"/>
			</g>
			<g>
				<path style="fill-rule:evenodd;clip-rule:evenodd;fill:#FFFFFF;" d="M203.9,156.41c-0.091-0.38-0.07-0.75,0.06-1.04l-5.06-2.4
					l0,0l-2.12-1h0.01l-4.021-1.91c-0.199,0.18-0.43,0.33-0.699,0.45c-1.04,0.49-2.16,0.29-2.5-0.44c-0.34-0.74,0.22-1.73,1.27-2.21
					c0.01-0.01,0.03-0.02,0.05-0.02c0.11-1.05,0.83-1.86,1.62-1.82s1.34,0.92,1.23,1.97c-0.01,0.17-0.05,0.34-0.101,0.49l5,2.37
					h-0.01l2.601,1.23l3.569,1.7c0.23-0.271,0.54-0.511,0.91-0.681c1.04-0.479,2.17-0.279,2.51,0.45c0.34,0.73-0.229,1.72-1.27,2.21
					c-0.4,0.181-0.811,0.271-1.19,0.26c0.15,0.7-0.109,1.351-0.6,1.471C204.65,157.62,204.09,157.14,203.9,156.41z M192.63,157.49
					c-0.49-0.13-0.75-0.771-0.61-1.471c-0.369,0.011-0.779-0.079-1.18-0.26c-1.05-0.49-1.609-1.479-1.27-2.21
					c0.34-0.729,1.46-0.93,2.5-0.45c0.37,0.17,0.68,0.41,0.91,0.67l3.46-1.63l2.1,0.99l-4.71,2.24c0.12,0.29,0.15,0.66,0.05,1.04
					C193.7,157.13,193.14,157.62,192.63,157.49z M204.68,154.35c-0.239-0.05-0.42,0.061-0.5,0.28h-0.02l-0.04,0.18h0.01
					c-0.01,0.08-0.02,0.181-0.01,0.28c0.13-0.22,0.34-0.32,0.61-0.25c0.35,0.08,0.71,0.4,0.989,0.84
					C205.55,155.04,205.1,154.45,204.68,154.35z M193.05,154.84c0.271-0.07,0.49,0.03,0.62,0.25c0.021-0.51-0.2-0.83-0.56-0.74
					c-0.42,0.101-0.87,0.69-1.051,1.33C192.35,155.24,192.71,154.92,193.05,154.84z M198.97,152.2l-6-2.8
					c0.061-0.63-0.17-1.42-0.55-1.83c-0.34-0.36-0.7-0.3-0.88,0.11c0.22-0.06,0.49,0.04,0.74,0.31c0.3,0.33,0.529,0.82,0.649,1.35
					l0.07,0.33l3.6,1.66L198.97,152.2z M201.35,151.8l-2.119-0.99l4.909-2.33c-0.05-0.16-0.08-0.32-0.1-0.49
					c-0.11-1.05,0.45-1.93,1.229-1.97c0.79-0.04,1.521,0.77,1.62,1.82c0.021,0,0.04,0.01,0.061,0.02c1.04,0.48,1.609,1.47,1.27,2.2
					c-0.34,0.74-1.47,0.94-2.51,0.45c-0.26-0.12-0.5-0.28-0.7-0.45L201.35,151.8z M205.5,147.99c0.26-0.27,0.52-0.37,0.75-0.31
					c-0.18-0.41-0.54-0.47-0.89-0.11c-0.391,0.42-0.63,1.25-0.54,1.89C204.94,148.89,205.18,148.34,205.5,147.99z"/>
				<rect x="189.14" y="142.01" style="fill-rule:evenodd;clip-rule:evenodd;fill:none;" width="19.5" height="19.5"/>
			</g>
			<g>
				<path style="fill-rule:evenodd;clip-rule:evenodd;fill:#FFFFFF;" d="M230.3,156.06c-0.09-0.359-0.06-0.699,0.05-0.97l-4.67-2.21
					v-0.01l-1.949-0.91l0.01-0.01l-3.71-1.76c-0.19,0.16-0.4,0.31-0.65,0.42c-0.96,0.45-2,0.26-2.31-0.41
					c-0.311-0.68,0.21-1.59,1.17-2.04c0.02-0.01,0.029-0.02,0.05-0.02c0.1-0.97,0.77-1.72,1.5-1.68c0.72,0.04,1.229,0.86,1.14,1.82
					c-0.02,0.16-0.05,0.31-0.1,0.45l4.61,2.19l0,0l2.399,1.14l3.29,1.561c0.21-0.24,0.5-0.46,0.84-0.62c0.96-0.45,2-0.26,2.32,0.41
					c0.31,0.68-0.21,1.59-1.18,2.04c-0.37,0.17-0.75,0.25-1.091,0.25c0.131,0.64-0.109,1.229-0.56,1.35
					C230.99,157.17,230.47,156.72,230.3,156.06z M219.9,157.05c-0.46-0.12-0.7-0.72-0.561-1.359c-0.35,0.01-0.729-0.07-1.1-0.24
					c-0.96-0.45-1.49-1.36-1.17-2.04c0.31-0.67,1.35-0.86,2.31-0.41c0.34,0.16,0.63,0.38,0.84,0.62l3.19-1.51l1.939,0.92l-4.35,2.06
					c0.12,0.271,0.14,0.61,0.05,0.97C220.88,156.72,220.37,157.17,219.9,157.05z M231.02,154.15c-0.22-0.051-0.38,0.06-0.46,0.26
					h-0.02l-0.04,0.16l0.01,0.01c-0.01,0.07-0.02,0.16-0.01,0.25c0.12-0.2,0.32-0.29,0.57-0.23c0.319,0.08,0.649,0.381,0.91,0.78
					C231.82,154.78,231.4,154.24,231.02,154.15z M220.29,154.6c0.25-0.06,0.44,0.03,0.57,0.23c0.02-0.47-0.19-0.76-0.521-0.68
					c-0.39,0.09-0.81,0.63-0.97,1.229C219.64,154.98,219.97,154.67,220.29,154.6z M225.75,152.17l-5.54-2.59
					c0.06-0.58-0.15-1.31-0.5-1.69c-0.32-0.33-0.66-0.27-0.82,0.11c0.21-0.06,0.45,0.03,0.681,0.28c0.279,0.3,0.489,0.76,0.609,1.24
					l0.051,0.31l3.329,1.54L225.75,152.17z M227.94,151.8l-1.95-0.92l4.529-2.15c-0.039-0.14-0.079-0.29-0.09-0.45
					c-0.1-0.97,0.41-1.78,1.141-1.82c0.729-0.04,1.399,0.71,1.489,1.68c0.021,0,0.04,0.01,0.051,0.02
					c0.96,0.45,1.489,1.36,1.18,2.04c-0.32,0.67-1.36,0.859-2.32,0.41c-0.239-0.11-0.46-0.26-0.64-0.42L227.94,151.8z
					 M231.78,148.28c0.239-0.25,0.479-0.34,0.689-0.28c-0.17-0.39-0.5-0.44-0.819-0.11c-0.37,0.39-0.58,1.16-0.5,1.75
					C231.26,149.11,231.48,148.6,231.78,148.28z"/>
				<rect x="216.68" y="142.76" style="fill-rule:evenodd;clip-rule:evenodd;fill:none;" width="18" height="18"/>
			</g>
			<g>
				<path style="fill-rule:evenodd;clip-rule:evenodd;fill:#FFFFFF;" d="M254.07,155.34c-0.08-0.29-0.061-0.58,0.04-0.8l-3.891-1.85
					l0,0l-1.63-0.771h0.01l-3.1-1.47c-0.15,0.14-0.33,0.26-0.53,0.35c-0.8,0.38-1.67,0.22-1.93-0.34c-0.26-0.57,0.17-1.33,0.979-1.7
					c0.011,0,0.021-0.01,0.04-0.02c0.08-0.8,0.641-1.43,1.24-1.4c0.61,0.04,1.04,0.72,0.95,1.52c-0.01,0.13-0.04,0.26-0.07,0.38
					l3.84,1.819h-0.01l2,0.95l2.75,1.3c0.181-0.199,0.41-0.38,0.7-0.52c0.8-0.37,1.66-0.21,1.93,0.35
					c0.261,0.561-0.18,1.32-0.979,1.7c-0.311,0.141-0.62,0.21-0.91,0.2c0.11,0.53-0.09,1.03-0.47,1.13
					C254.64,156.27,254.21,155.9,254.07,155.34z M245.39,156.17c-0.37-0.1-0.569-0.6-0.46-1.13c-0.29,0.01-0.609-0.06-0.91-0.2
					c-0.81-0.38-1.239-1.14-0.979-1.7c0.26-0.569,1.13-0.72,1.93-0.35c0.28,0.14,0.521,0.32,0.7,0.52l2.65-1.26l1.62,0.771
					l-3.62,1.72c0.09,0.22,0.109,0.51,0.04,0.8C246.22,155.89,245.79,156.27,245.39,156.17z M254.66,153.75
					c-0.18-0.04-0.311,0.05-0.38,0.22h-0.021l-0.02,0.13v0.011c-0.01,0.06-0.01,0.13-0.01,0.21c0.1-0.17,0.27-0.24,0.479-0.19
					c0.26,0.061,0.54,0.311,0.75,0.65C255.33,154.28,254.98,153.83,254.66,153.75z M245.72,154.13c0.21-0.05,0.37,0.021,0.471,0.19
					c0.02-0.391-0.15-0.63-0.431-0.57c-0.319,0.08-0.67,0.53-0.8,1.03C245.18,154.44,245.46,154.19,245.72,154.13z M250.27,152.1
					l-4.609-2.149c0.05-0.49-0.13-1.1-0.42-1.41c-0.271-0.28-0.55-0.23-0.681,0.09c0.171-0.05,0.37,0.03,0.57,0.23
					c0.23,0.25,0.41,0.63,0.5,1.04l0.05,0.25l2.771,1.28L250.27,152.1z M252.1,151.79l-1.619-0.76l3.77-1.79
					c-0.04-0.12-0.06-0.25-0.08-0.38c-0.08-0.8,0.35-1.48,0.95-1.52c0.61-0.03,1.17,0.6,1.25,1.4c0.01,0.01,0.03,0.01,0.04,0.02
					c0.8,0.37,1.24,1.13,0.979,1.7c-0.27,0.56-1.13,0.71-1.93,0.34c-0.21-0.09-0.39-0.21-0.54-0.35L252.1,151.79z M255.3,148.86
					c0.19-0.21,0.4-0.28,0.57-0.23c-0.14-0.32-0.42-0.37-0.68-0.09c-0.301,0.32-0.48,0.96-0.421,1.45
					C254.86,149.55,255.05,149.13,255.3,148.86z"/>
				<rect x="242.71" y="144.26" style="fill-rule:evenodd;clip-rule:evenodd;fill:none;" width="15" height="15"/>
			</g>
			<g>
				<path style="fill-rule:evenodd;clip-rule:evenodd;fill:#FFFFFF;" d="M274.83,154.62c-0.061-0.23-0.04-0.46,0.04-0.64
					l-3.12-1.471v-0.01l-1.3-0.61l0,0l-2.47-1.18c-0.12,0.11-0.261,0.21-0.431,0.28c-0.64,0.3-1.33,0.18-1.54-0.27
					c-0.21-0.45,0.141-1.06,0.78-1.36c0.01,0,0.02-0.01,0.03-0.01c0.069-0.65,0.52-1.15,1-1.12c0.479,0.02,0.83,0.57,0.76,1.21
					c-0.01,0.11-0.03,0.21-0.061,0.3l3.07,1.46l0,0l1.601,0.76l2.189,1.04c0.15-0.16,0.34-0.31,0.561-0.41
					c0.649-0.3,1.34-0.18,1.55,0.271c0.21,0.449-0.141,1.06-0.78,1.359c-0.25,0.12-0.5,0.17-0.74,0.16
					c0.101,0.43-0.069,0.83-0.37,0.91C275.29,155.37,274.94,155.07,274.83,154.62z M267.89,155.29c-0.3-0.08-0.46-0.48-0.37-0.91
					c-0.229,0.01-0.479-0.05-0.729-0.16c-0.64-0.3-0.99-0.91-0.78-1.359c0.21-0.45,0.9-0.57,1.54-0.271
					c0.23,0.101,0.42,0.25,0.561,0.41l2.13-1.01l1.29,0.62l-2.9,1.37c0.08,0.18,0.09,0.409,0.03,0.64
					C268.55,155.07,268.21,155.36,267.89,155.29z M275.31,153.35c-0.149-0.029-0.26,0.04-0.31,0.181l-0.01-0.011l-0.021,0.12l0,0
					c-0.01,0.051-0.01,0.11-0.01,0.17c0.08-0.14,0.21-0.189,0.38-0.159c0.21,0.05,0.44,0.25,0.61,0.529
					C275.84,153.78,275.57,153.41,275.31,153.35z M268.15,153.65c0.17-0.04,0.3,0.02,0.38,0.159c0.02-0.31-0.12-0.51-0.34-0.46
					c-0.261,0.061-0.54,0.431-0.641,0.83C267.72,153.9,267.94,153.7,268.15,153.65z M271.8,152.03l-3.7-1.72
					c0.04-0.39-0.1-0.88-0.33-1.13c-0.21-0.22-0.439-0.18-0.55,0.07c0.141-0.03,0.3,0.03,0.46,0.19c0.181,0.2,0.33,0.51,0.4,0.83
					l0.04,0.2l2.22,1.03L271.8,152.03z M273.26,151.79l-1.3-0.62l3.021-1.43c-0.03-0.09-0.051-0.19-0.061-0.3
					c-0.07-0.64,0.271-1.19,0.76-1.21c0.48-0.03,0.931,0.47,0.99,1.12c0.01,0,0.021,0.01,0.03,0.01c0.649,0.3,1,0.91,0.79,1.36
					c-0.21,0.45-0.9,0.57-1.55,0.27c-0.16-0.07-0.301-0.17-0.431-0.28L273.26,151.79z M275.82,149.44
					c0.149-0.16,0.31-0.22,0.449-0.19c-0.109-0.25-0.329-0.29-0.539-0.07c-0.24,0.26-0.391,0.77-0.33,1.17
					C275.47,149.99,275.62,149.66,275.82,149.44z"/>
				<rect x="265.75" y="145.76" style="fill-rule:evenodd;clip-rule:evenodd;fill:none;" width="12" height="12"/>
			</g>
		</g>
	</g>
</g>
<g id="Guides">
</g>
</svg>
