<?xml version="1.0" encoding="iso-8859-1"?>
<!-- Generator: Adobe Illustrator 15.0.0, SVG Export Plug-In . SVG Version: 6.00 Build 0)  -->
<!DOCTYPE svg PUBLIC "-//W3C//DTD SVG 1.1//EN" "http://www.w3.org/Graphics/SVG/1.1/DTD/svg11.dtd">
<svg version="1.1" id="Layer_1" xmlns="http://www.w3.org/2000/svg" xmlns:xlink="http://www.w3.org/1999/xlink" x="0px" y="0px"
	 width="612px" height="792px" viewBox="0 0 612 792" style="enable-background:new 0 0 612 792;" xml:space="preserve">
<g>
	<path d="M411.709,265.983H250.149c-8.435,0-15.271,6.841-15.271,15.271v185.801c0,8.43,6.837,15.267,15.271,15.267h161.561
		c8.435,0,15.275-6.837,15.275-15.267V281.254C426.985,272.824,420.144,265.983,411.709,265.983z M342.382,314.88l13.451,29.868
		h-49.52l16.41-29.868H342.382z M324.599,311.471l8.936-16.264l7.313,16.264H324.599z M357.188,346.894v98.328h-52.225v-98.328
		H357.188z M249.515,449.902h18.493v18.493h-18.493V449.902z M249.515,434.434v-18.498h18.493v18.498H249.515z M249.515,400.467
		V381.97h18.493v18.498H249.515z M249.515,366.501V348h18.493v18.501H249.515z M249.515,332.531v-18.494h18.493v18.494H249.515z
		 M249.515,298.565v-18.498h18.493v18.498H249.515z"/>
	<path d="M351.431,350.014c-2.79,0-7.097,0-11.979,0v92.081c4.882,0,9.188,0,11.979,0V350.014z"/>
	<path d="M348.183,339.79c-3.223-7.148-7.404-16.45-8.994-19.969c-3.681,0-10.114,0-13.539,0
		c-1.721,3.138-6.906,12.583-10.972,19.969C324.09,339.79,339.431,339.79,348.183,339.79z"/>
	<path d="M322.695,350.014c-3.691,0-7.046,0-9.675,0v92.081c2.629,0,5.983,0,9.675,0V350.014z"/>
</g>
</svg>
