<?xml version="1.0" encoding="utf-8"?>
<!-- Generator: Adobe Illustrator 15.0.0, SVG Export Plug-In . SVG Version: 6.00 Build 0)  -->
<!DOCTYPE svg PUBLIC "-//W3C//DTD SVG 1.1//EN" "http://www.w3.org/Graphics/SVG/1.1/DTD/svg11.dtd">
<svg version="1.1" id="Layer_1" xmlns="http://www.w3.org/2000/svg" xmlns:xlink="http://www.w3.org/1999/xlink" x="0px" y="0px"
	 width="162px" height="148px" viewBox="0 0 162 148" enable-background="new 0 0 162 148" xml:space="preserve">
<path fill-rule="evenodd" clip-rule="evenodd" d="M82.167,40c8.263,0.266,5.25,33.5,55.975,30.962
	c16.942,18.934-34.47,33.736-57.374,24.81c-3.927-1.53-7.437-6.137-10.079-6.202c-5.004-0.124-7.29,5.892-11.63,6.978
	C43.7,100.393,28.667,94,28.667,94v-11l3-4.333l-3-4.667l7-34C35.667,40,77.917,40,82.167,40z"/>
<path fill-rule="evenodd" clip-rule="evenodd" d="M80.767,100.773c-3.927-1.53-7.437-6.138-10.079-6.202
	c-5.004-0.123-7.29,5.892-11.63,6.978C43.7,105.393,28.667,99,28.667,99v7c0,0,15.033,6.393,30.392,2.548
	c4.34-1.086,6.626-7.101,11.63-6.978c2.642,0.064,6.152,4.672,10.079,6.202c21.264,8.286,67.087-3.879,59.987-20.814
	C135.119,99.985,98.956,107.862,80.767,100.773z"/>
</svg>
