<?xml version="1.0" encoding="iso-8859-1"?>
<!-- Generator: Adobe Illustrator 15.0.0, SVG Export Plug-In . SVG Version: 6.00 Build 0)  -->
<!DOCTYPE svg PUBLIC "-//W3C//DTD SVG 1.1//EN" "http://www.w3.org/Graphics/SVG/1.1/DTD/svg11.dtd">
<svg version="1.1" id="Layer_1" xmlns="http://www.w3.org/2000/svg" xmlns:xlink="http://www.w3.org/1999/xlink" x="0px" y="0px"
	 width="612px" height="792px" viewBox="0 0 612 792" style="enable-background:new 0 0 612 792;" xml:space="preserve">
<path d="M474.938,441.58l-93.077-26.625v23.339l-61.534-1.546c-0.565-4.59-2.518-9.041-6.042-12.565
	c-1.281-1.281-2.712-2.3-4.201-3.189c0.233-0.174,0.45-0.3,0.688-0.493c0,0,37.98-33.132,6.868-62.625
	c0,0-6.866-12.524-29.493-32.726c0,0-14.951-14.949-14.546-25.051c0,0,26.262,3.636,21.415-21.414c0,0-9.698-26.669-29.497-17.375
	c0,0-22.224,2.83-13.333,37.577c0,0,0.114,1.667,2.406,6.721l-77.669,124.272l-0.112,3.261l-7.045-0.177l-14.183-17.559
	l-38.831-2.363l22.96,22.96l-25.999,22.623l39.168,0.675l16.896-17.898l6.742,0.173l-0.045,1.296l71.782,122.131
	c-6.687,14.464-4.96,23.179-4.96,23.179c1.212,24.651,21.414,23.03,21.414,23.03c22.226-2.83,21.819-21.011,21.819-21.011
	c0-29.899-26.264-14.139-26.264-14.139c16.163-25.861,58.182-67.072,58.182-67.072c16.17-22.979,2.869-42.757-6.495-52.511
	c0.796-0.599,1.606-1.179,2.332-1.905c2.677-2.677,4.402-5.907,5.372-9.306l62.204,1.604v21.336L474.938,441.58z M188.273,433.345
	l72.478-115.966c3.35,5.855,7.969,13.376,14.468,23.123c0,0,42.425,44.042,19.396,76.768c0,0,0.133,0.408,0.401,1.011
	c-4.072,0.784-7.963,2.748-11.118,5.902c-3.251,3.251-5.208,7.29-5.939,11.5l-89.688-2.255L188.273,433.345z M283.898,454.572
	c3.259,3.259,7.309,5.215,11.53,5.943c18.79,31.588-32.332,82.004-32.332,82.004c-3.291,3.857-5.999,7.51-8.306,10.976
	l-65.587-111.594l89.007,2.296C279.082,447.995,280.939,451.614,283.898,454.572z"/>
</svg>
