<?xml version="1.0" encoding="utf-8"?>
<!-- Generator: Adobe Illustrator 15.0.0, SVG Export Plug-In . SVG Version: 6.00 Build 0)  -->
<!DOCTYPE svg PUBLIC "-//W3C//DTD SVG 1.1//EN" "http://www.w3.org/Graphics/SVG/1.1/DTD/svg11.dtd">
<svg version="1.1" id="Layer_1" xmlns="http://www.w3.org/2000/svg" xmlns:xlink="http://www.w3.org/1999/xlink" x="0px" y="0px"
	 width="162px" height="148px" viewBox="0 0 162 148" enable-background="new 0 0 162 148" xml:space="preserve">
<path stroke="#010101" d="M120.888,69.429V44.035h-3.26v24.641c0,0-16.119,2.637-30.229,24.082l-3.143,0.688l-3.144-0.688
	c-14.11-21.445-30.229-24.082-30.229-24.082V44.035h-3.26v25.395c-6.393,14.866-1.506,23.896-1.506,23.896l0.754,12.416
	c1.88,0.94,6.211-1.129,6.211-1.129c12.413,2.069,21.256-4.517,21.256-4.517c1.315,0.188,4.138-0.747,4.138-0.747
	c4.894,1.126,5.641,0,5.641,0l0.137-2.03l0.136,2.03c0,0,0.748,1.126,5.641,0c0,0,2.823,0.936,4.138,0.747
	c0,0,8.843,6.586,21.256,4.517c0,0,4.331,2.069,6.211,1.129l0.754-12.416C122.394,93.325,127.281,84.295,120.888,69.429z"/>
</svg>
