<?xml version="1.0" encoding="iso-8859-1"?>
<!-- Generator: Adobe Illustrator 15.0.0, SVG Export Plug-In . SVG Version: 6.00 Build 0)  -->
<!DOCTYPE svg PUBLIC "-//W3C//DTD SVG 1.1//EN" "http://www.w3.org/Graphics/SVG/1.1/DTD/svg11.dtd">
<svg version="1.1" id="Layer_1" xmlns="http://www.w3.org/2000/svg" xmlns:xlink="http://www.w3.org/1999/xlink" x="0px" y="0px"
	 width="612px" height="792px" viewBox="0 0 612 792" style="enable-background:new 0 0 612 792;" xml:space="preserve">
<path d="M398.799,269.201c-1.499,35.379-9.946,62.476-20.142,62.476c-11.015,0-19.983-31.624-20.361-71.146
	c-9.421-1.343-19.204-2.311-29.263-2.872c0,0.094,0.002,0.187,0.002,0.281c0,40.725-9.124,73.737-20.378,73.737
	c-11.255,0-20.379-33.013-20.379-73.737c0-0.094,0.002-0.187,0.002-0.281c-10.059,0.561-19.842,1.529-29.263,2.872
	c-0.378,39.522-9.346,71.146-20.36,71.146c-10.197,0-18.644-27.097-20.143-62.476c-45.743,13.495-76.019,36.958-76.019,63.648
	c0,41.839,74.393,45.757,166.162,45.757s166.162-3.918,166.162-45.757C474.818,306.159,444.542,282.695,398.799,269.201z"/>
</svg>
