<?xml version="1.0" encoding="iso-8859-1"?>
<!-- Generator: Adobe Illustrator 15.0.0, SVG Export Plug-In . SVG Version: 6.00 Build 0)  -->
<!DOCTYPE svg PUBLIC "-//W3C//DTD SVG 1.1//EN" "http://www.w3.org/Graphics/SVG/1.1/DTD/svg11.dtd">
<svg version="1.1" id="Layer_1" xmlns="http://www.w3.org/2000/svg" xmlns:xlink="http://www.w3.org/1999/xlink" x="0px" y="0px"
	 width="612px" height="792px" viewBox="0 0 612 792" style="enable-background:new 0 0 612 792;" xml:space="preserve">
<rect x="98.764" y="369.083" width="374.874" height="12.38"/>
<path d="M98.764,326.099v34.652h374.874v-34.652H98.764z M136.985,353.008H124.83v-14.006c-0.625-8.508,12.774-8.508,12.155-0.007
	V353.008z M151.93,353.008h-12.151v-14.006c-0.622-8.508,12.773-8.508,12.151-0.007V353.008z M166.886,353.008h-12.155v-14.006
	c-0.625-8.508,12.773-8.508,12.155-0.007V353.008z M181.838,353.008h-12.155v-14.006c-0.625-8.508,12.774-8.508,12.155-0.007
	V353.008z M225.249,353.008h-12.155v-14.006c-0.622-8.508,12.773-8.508,12.155-0.007V353.008z M240.198,353.008h-12.155v-14.006
	c-0.622-8.508,12.773-8.508,12.155-0.007V353.008z M255.15,353.008h-12.155v-14.006c-0.622-8.508,12.777-8.508,12.155-0.007V353.008
	z M270.102,353.008h-12.155v-14.006c-0.622-8.508,12.773-8.508,12.155-0.007V353.008z M313.509,353.008h-12.151v-14.006
	c-0.629-8.508,12.773-8.508,12.151-0.007V353.008z M328.461,353.008H316.31v-14.006c-0.625-8.508,12.773-8.508,12.152-0.007V353.008
	z M343.41,353.008h-12.151v-14.006c-0.626-8.508,12.773-8.508,12.151-0.007V353.008z M358.362,353.008h-12.155v-14.006
	c-0.622-8.508,12.774-8.508,12.155-0.007V353.008z M401.776,353.008h-12.156v-14.006c-0.622-8.508,12.774-8.508,12.156-0.007
	V353.008z M416.725,353.008h-12.155v-14.006c-0.618-8.508,12.773-8.508,12.155-0.007V353.008z M431.677,353.008h-12.156v-14.006
	c-0.625-8.508,12.777-8.508,12.156-0.007V353.008z M446.629,353.008h-12.155v-14.006c-0.626-8.508,12.773-8.508,12.155-0.007
	V353.008z"/>
<path d="M286.298,391.066h-0.191H98.746v128.096h49.376c21.072-50.204,74.077-85.835,136.123-85.835c0.626,0,1.24,0.052,1.862,0.066
	v0.007c0.033,0,0.063-0.004,0.096-0.004s0.063,0.004,0.096,0.004v-0.007c0.622-0.015,1.236-0.066,1.862-0.066
	c62.046,0,115.051,35.631,136.123,85.835h49.376V391.066H286.298z M208.435,423.078v0.004c-0.015,0-0.029-0.004-0.044-0.004
	s-0.026,0.004-0.044,0.004v-0.004c-0.287-0.007-0.574-0.033-0.865-0.033c-28.808,0-60.954,24.083-70.735,47.393h-15.39V415.14h86.99
	h0.088V423.078z M451.049,470.438h-15.39c-9.782-23.31-41.927-47.393-70.735-47.393c-0.291,0-0.578,0.026-0.865,0.033v0.004
	c-0.018,0-0.029-0.004-0.044-0.004s-0.029,0.004-0.044,0.004v-0.004v-7.938h0.088h86.99V470.438z"/>
</svg>
