<?xml version="1.0" encoding="utf-8"?>
<!-- Generator: Adobe Illustrator 15.0.0, SVG Export Plug-In . SVG Version: 6.00 Build 0)  -->
<!DOCTYPE svg PUBLIC "-//W3C//DTD SVG 1.1//EN" "http://www.w3.org/Graphics/SVG/1.1/DTD/svg11.dtd">
<svg version="1.1" id="Layer_1" xmlns="http://www.w3.org/2000/svg" xmlns:xlink="http://www.w3.org/1999/xlink" x="0px" y="0px"
	 width="162px" height="148px" viewBox="0 0 162 148" enable-background="new 0 0 162 148" xml:space="preserve">
<g>
	<polygon fill="#010101" stroke="#010101" points="122.996,79.617 146.177,68.642 146.177,49.081 106.515,49.081 	"/>
	<polygon fill="#010101" stroke="#010101" points="80.511,34.333 80.333,34.333 14.667,34.333 14.667,42 80.333,42 80.511,42 
		146.177,42 146.177,34.333 	"/>
	<path fill="#010101" stroke="#010101" d="M80.511,49.081h-0.177H67.586L45.958,89.155c5.985,10.832,18.604,29.75,34.376,31.382
		v0.023c0.03-0.003,0.059-0.009,0.089-0.012c0.029,0.003,0.059,0.009,0.088,0.012v-0.023c15.772-1.632,28.391-20.55,34.376-31.382
		L93.258,49.081H80.511z"/>
	<polygon fill="#010101" stroke="#010101" points="14.667,49.081 14.667,68.642 37.848,79.617 54.33,49.081 	"/>
</g>
</svg>
