<?xml version="1.0" encoding="iso-8859-1"?>
<!-- Generator: Adobe Illustrator 15.0.0, SVG Export Plug-In . SVG Version: 6.00 Build 0)  -->
<!DOCTYPE svg PUBLIC "-//W3C//DTD SVG 1.1//EN" "http://www.w3.org/Graphics/SVG/1.1/DTD/svg11.dtd">
<svg version="1.1" id="Layer_1" xmlns="http://www.w3.org/2000/svg" xmlns:xlink="http://www.w3.org/1999/xlink" x="0px" y="0px"
	 width="612px" height="792px" viewBox="0 0 612 792" style="enable-background:new 0 0 612 792;" xml:space="preserve">
<rect x="220.167" y="140.928" width="8.666" height="130.333"/>
<path d="M242.107,277l-1.408-4.225c-0.218-0.851-0.484-1.681-0.825-2.475c-0.968-2.254-2.419-4.246-4.209-5.872
	c-3.019-2.743-7.015-4.428-11.415-4.428s-8.396,1.686-11.415,4.428c-1.791,1.626-3.242,3.618-4.21,5.873
	c-0.341,0.793-0.606,1.623-0.824,2.473L206.393,277H242.107z"/>
<polygon points="248.44,296 243.94,282.5 204.559,282.5 200.059,296 "/>
<polygon points="198.226,301.5 198.226,344.428 202.226,344.428 202.226,318.333 205.226,318.333 205.226,344.428 209.067,344.428 
	209.067,318.333 212.067,318.333 212.067,344.428 215.908,344.428 215.908,318.333 218.908,318.333 218.908,344.428 222.75,344.429 
	222.75,318.333 225.75,318.333 225.75,344.429 229.591,344.429 229.591,318.333 232.591,318.333 232.591,344.429 236.432,344.429 
	236.432,318.333 239.432,318.333 239.432,344.429 243.273,344.429 243.273,318.333 246.273,318.333 246.273,344.429 
	250.273,344.429 250.273,301.5 "/>
</svg>
