<?xml version="1.0" encoding="utf-8"?>
<!-- Generator: Adobe Illustrator 15.0.0, SVG Export Plug-In . SVG Version: 6.00 Build 0)  -->
<!DOCTYPE svg PUBLIC "-//W3C//DTD SVG 1.1//EN" "http://www.w3.org/Graphics/SVG/1.1/DTD/svg11.dtd">
<svg version="1.1" id="Layer_2" xmlns="http://www.w3.org/2000/svg" xmlns:xlink="http://www.w3.org/1999/xlink" x="0px" y="0px"
	 width="162px" height="148px" viewBox="0 0 162 148" enable-background="new 0 0 162 148" xml:space="preserve">
<path d="M140.313,95.12c0.014-0.187,0.029-0.386,0.044-0.595c0.002-0.027,0.004-0.052,0.006-0.08
	c0.012-0.166,0.025-0.338,0.038-0.517c0.001-0.012,0.001-0.024,0.002-0.037c0-0.002,0-0.004,0-0.005
	c0.005-0.072,0.01-0.143,0.016-0.217c0.012-0.177,0.025-0.36,0.038-0.548c0.006-0.089,0.012-0.177,0.018-0.269
	c0.013-0.185,0.025-0.376,0.038-0.571c0.006-0.097,0.012-0.191,0.019-0.291c0.001-0.01,0.001-0.021,0.002-0.031
	c0.012-0.189,0.024-0.382,0.036-0.579c0.008-0.121,0.015-0.24,0.022-0.363c0.012-0.198,0.023-0.4,0.036-0.605
	c0.008-0.132,0.015-0.264,0.023-0.399c0.011-0.2,0.022-0.403,0.033-0.608c0.008-0.148,0.016-0.297,0.024-0.448
	c0.008-0.152,0.016-0.304,0.024-0.458c0.001-0.016,0.001-0.032,0.002-0.048c0.001-0.034,0.003-0.068,0.005-0.102
	c0.008-0.17,0.017-0.341,0.025-0.514c0.009-0.178,0.017-0.356,0.025-0.537c0.002-0.053,0.005-0.106,0.007-0.16
	c0.007-0.146,0.013-0.294,0.02-0.442c0.009-0.202,0.017-0.405,0.025-0.611c0.007-0.181,0.015-0.363,0.022-0.546
	c0.008-0.217,0.016-0.435,0.024-0.654c0.004-0.122,0.009-0.242,0.013-0.365c0.002-0.068,0.004-0.138,0.006-0.207
	c0.007-0.209,0.014-0.419,0.02-0.631c0.005-0.165,0.01-0.33,0.015-0.496c0.002-0.077,0.004-0.154,0.006-0.231
	c0.004-0.169,0.009-0.339,0.013-0.509c0.005-0.203,0.009-0.406,0.014-0.61c0-0.013,0-0.026,0.001-0.04
	c0.001-0.075,0.003-0.15,0.005-0.226c0.002-0.127,0.004-0.255,0.007-0.383c0.003-0.202,0.006-0.404,0.009-0.606
	c0.003-0.223,0.006-0.445,0.009-0.668c0.002-0.201,0.004-0.402,0.005-0.604c0.001-0.191,0.003-0.381,0.004-0.572
	c0-0.056,0-0.111,0-0.167c0-0.183,0-0.365,0-0.547c0-0.22,0-0.439-0.001-0.66c-0.001-0.212-0.003-0.424-0.005-0.636
	c-0.002-0.214-0.004-0.428-0.007-0.642c-0.001-0.1-0.002-0.2-0.004-0.3c-0.001-0.114-0.004-0.228-0.006-0.342
	c-0.004-0.211-0.008-0.423-0.013-0.633c-0.003-0.13-0.007-0.259-0.01-0.389c-0.003-0.127-0.007-0.255-0.011-0.382
	c-0.005-0.164-0.01-0.327-0.015-0.489c-0.006-0.164-0.012-0.326-0.019-0.488c-0.005-0.132-0.01-0.264-0.016-0.396
	c-0.005-0.119-0.01-0.237-0.016-0.354c-0.009-0.203-0.021-0.403-0.031-0.604c0-0.004,0-0.008,0-0.011
	c-0.006-0.124-0.012-0.248-0.019-0.371c-0.004-0.077-0.009-0.153-0.014-0.229c-0.012-0.201-0.026-0.399-0.04-0.598
	c-0.014-0.198-0.026-0.397-0.041-0.593c-0.015-0.2-0.032-0.395-0.049-0.592c-0.016-0.188-0.031-0.377-0.048-0.562
	c0-0.001,0-0.003,0-0.005c-0.002-0.027-0.004-0.055-0.007-0.082c-0.016-0.169-0.035-0.333-0.052-0.499
	c-0.019-0.178-0.036-0.358-0.055-0.533c-0.007-0.057-0.013-0.113-0.02-0.17c-0.014-0.12-0.03-0.236-0.044-0.354
	c-0.002-0.015-0.004-0.031-0.006-0.046c-0.021-0.169-0.041-0.341-0.063-0.507c-0.011-0.082-0.023-0.162-0.035-0.243
	c-0.019-0.133-0.039-0.263-0.059-0.394c-0.02-0.131-0.038-0.265-0.059-0.393c-0.017-0.107-0.037-0.209-0.055-0.315
	c-0.022-0.131-0.045-0.26-0.069-0.388c-0.017-0.089-0.032-0.183-0.049-0.271c-0.026-0.134-0.054-0.259-0.082-0.39
	c-0.025-0.122-0.05-0.244-0.077-0.362c-0.012-0.054-0.023-0.111-0.035-0.165c-0.039-0.167-0.081-0.324-0.123-0.485
	c-0.025-0.097-0.048-0.198-0.074-0.292c-0.007-0.025-0.013-0.052-0.02-0.077c-0.076-0.273-0.156-0.536-0.239-0.786
	c-0.19-0.569-0.378-1.116-0.564-1.645c-0.053-0.149-0.105-0.287-0.158-0.433c-0.127-0.354-0.254-0.712-0.382-1.049
	c-0.005-0.015-0.011-0.028-0.017-0.043c-0.069-0.183-0.139-0.354-0.208-0.533c-0.116-0.298-0.232-0.601-0.35-0.886
	c-0.077-0.188-0.156-0.363-0.234-0.545c-0.112-0.263-0.224-0.529-0.338-0.782c-0.083-0.181-0.168-0.353-0.252-0.529
	c-0.113-0.239-0.227-0.481-0.343-0.712c-0.089-0.176-0.184-0.345-0.275-0.516c-0.117-0.218-0.232-0.438-0.353-0.65
	c-0.097-0.17-0.201-0.334-0.301-0.501c-0.123-0.202-0.244-0.406-0.371-0.603c-0.106-0.164-0.218-0.323-0.328-0.483
	c-0.13-0.19-0.261-0.382-0.397-0.568c-0.116-0.158-0.239-0.313-0.36-0.467c-0.141-0.181-0.282-0.363-0.43-0.541
	c-0.127-0.153-0.262-0.305-0.396-0.456c-0.061-0.07-0.119-0.14-0.182-0.209c0,0,0.002,0,0.003,0l0-0.001
	c-0.017-0.019-0.037-0.037-0.054-0.056c-0.077-0.085-0.157-0.17-0.236-0.254c-0.14-0.149-0.288-0.297-0.434-0.445
	c-0.007-0.008-0.015-0.016-0.022-0.023c-0.083-0.084-0.161-0.169-0.246-0.253c-0.08-0.079-0.165-0.157-0.247-0.235
	c-0.153-0.146-0.314-0.293-0.475-0.439c-0.094-0.085-0.181-0.171-0.277-0.256c-0.006-0.006-0.012-0.012-0.019-0.018l0,0
	c-0.088-0.078-0.182-0.156-0.272-0.234c-0.168-0.145-0.344-0.291-0.519-0.437c-0.206-0.17-0.414-0.341-0.63-0.512
	c-0.183-0.145-0.375-0.292-0.566-0.438c-0.228-0.173-0.459-0.348-0.699-0.522c-0.2-0.146-0.407-0.294-0.616-0.442
	c-0.252-0.178-0.51-0.359-0.776-0.54c-0.217-0.149-0.442-0.3-0.668-0.451c-0.014-0.009-0.026-0.018-0.04-0.027
	c0-0.001,0.001-0.002,0-0.003c-0.053-0.035-0.11-0.071-0.163-0.106c-0.079-0.052-0.149-0.102-0.229-0.154
	c-0.003-0.002-0.007-0.001-0.011-0.002c-0.245-0.161-0.487-0.321-0.744-0.486c-4.257-4.631-12.524-7.382-17.472-8.686
	c0.001-0.003,0.003-0.006,0.004-0.01c0.231-1.131-1.383-2.415-3.604-2.87s-4.211,0.095-4.441,1.224
	c-0.001,0.007,0.001,0.015,0,0.023c-7.172-1.117-12.576-1.105-16.396-0.261l0.002,0c-0.219,0.01-0.439,0.021-0.658,0.033
	c-0.077,0.004-0.153,0.007-0.23,0.012c0,0,0-0.001-0.001-0.001c-0.007,0-0.015,0.001-0.022,0.001l0,0
	c-0.047,0.002-0.095,0.007-0.142,0.01c-0.008,0-0.017,0.001-0.024,0.001c-0.245,0.013-0.49,0.029-0.734,0.045
	c-0.206,0.014-0.41,0.03-0.615,0.045c-0.149,0.011-0.299,0.019-0.448,0.03c-0.094,0.008-0.187,0.019-0.281,0.027
	c-0.1,0.008-0.198,0.019-0.297,0.028c-0.316,0.028-0.631,0.057-0.945,0.09c-0.141,0.015-0.283,0.025-0.423,0.041
	c-0.058,0.006-0.114,0.015-0.172,0.022c-0.146,0.017-0.291,0.038-0.437,0.055c-0.306,0.037-0.611,0.074-0.914,0.115
	c-0.129,0.018-0.261,0.032-0.39,0.05c-0.042,0.006-0.083,0.014-0.125,0.02c-0.171,0.025-0.337,0.056-0.506,0.083
	c-0.296,0.046-0.592,0.092-0.884,0.144c-0.215,0.038-0.43,0.077-0.643,0.117c0,0,0-0.001,0-0.001l-0.001-0.004
	c-0.088,0.017-0.17,0.041-0.258,0.058c-0.033,0.006-0.065,0.013-0.098,0.02c-0.285,0.056-0.571,0.112-0.851,0.173
	c-0.104,0.023-0.213,0.042-0.317,0.065c0,0-0.001,0-0.002,0c-0.223,0.051-0.436,0.111-0.655,0.166
	c-0.188,0.046-0.381,0.085-0.566,0.134c-0.002,0-0.004,0.001-0.007,0.001l0,0c-0.081,0.021-0.156,0.047-0.236,0.068
	c-0.319,0.086-0.629,0.181-0.941,0.275c-0.257,0.078-0.516,0.154-0.767,0.237c-0.306,0.102-0.6,0.212-0.896,0.322
	c-0.242,0.09-0.486,0.177-0.722,0.272c-0.29,0.118-0.567,0.247-0.846,0.373c-0.225,0.102-0.453,0.2-0.67,0.308
	c-0.272,0.135-0.528,0.282-0.788,0.427c-0.206,0.114-0.416,0.224-0.613,0.344c-0.252,0.154-0.486,0.321-0.724,0.486
	c-0.185,0.127-0.376,0.249-0.552,0.382c-0.23,0.175-0.439,0.364-0.654,0.549c-0.162,0.14-0.332,0.273-0.484,0.419
	c-0.207,0.199-0.391,0.413-0.581,0.624c-0.135,0.15-0.281,0.292-0.407,0.449c-0.184,0.228-0.341,0.474-0.504,0.716
	c-0.106,0.157-0.226,0.305-0.322,0.467c-0.165,0.275-0.299,0.57-0.437,0.863c-0.069,0.146-0.154,0.283-0.216,0.434
	c-0.187,0.452-0.344,0.923-0.468,1.416c-0.132,0.527-0.262,1.071-0.391,1.63c-0.001,0.007-0.003,0.015-0.005,0.022
	c-0.04,0.174-0.08,0.359-0.12,0.536c-0.09,0.401-0.181,0.8-0.271,1.216c-0.042,0.194-0.084,0.399-0.126,0.598
	c-0.088,0.413-0.175,0.825-0.263,1.251c-0.038,0.183-0.076,0.374-0.113,0.559c-0.094,0.461-0.188,0.923-0.283,1.397
	c-0.017,0.085-0.034,0.174-0.051,0.26c-0.482,2.423-0.979,5.012-1.528,7.721c-0.008,0.042-0.017,0.084-0.026,0.127
	c-0.121,0.597-0.246,1.203-0.373,1.811c-0.031,0.15-0.061,0.298-0.093,0.448c-0.118,0.562-0.24,1.129-0.364,1.698
	c-0.042,0.195-0.083,0.388-0.125,0.583c-0.119,0.542-0.242,1.089-0.367,1.636c-0.052,0.228-0.102,0.454-0.155,0.682
	c-0.121,0.525-0.247,1.055-0.374,1.584c-0.061,0.255-0.121,0.51-0.184,0.766c-0.125,0.513-0.256,1.029-0.387,1.545
	c-0.07,0.274-0.138,0.547-0.209,0.822c-0.131,0.505-0.268,1.011-0.405,1.518c-0.078,0.29-0.156,0.58-0.237,0.87
	c-0.137,0.494-0.28,0.989-0.424,1.485c-0.088,0.304-0.176,0.607-0.266,0.911c-0.145,0.484-0.295,0.969-0.446,1.454
	c-0.155,0.497-0.307,0.995-0.47,1.492c-0.023,0.02-4.136,2.652-11.59,5.987c-0.121,0.054-0.242,0.108-0.362,0.162v0
	c-0.081,0.036-0.162,0.072-0.242,0.108v0c-0.179,0.081-0.354,0.159-0.532,0.238c-1.061,0.475-2.096,0.938-3.084,1.38l0,0
	c-0.044,0.02-0.084,0.038-0.128,0.058c-1.175,0.525-2.274,1.018-3.262,1.459c0,0,0,0,0,0c-0.142,0.063-0.26,0.117-0.397,0.178
	c-1.065,0.477-1.969,0.881-2.668,1.193c-0.539,0.191-1.07,0.4-1.585,0.642c-2.635,1.282-4.668,3.582-5.277,6.068
	c-0.644,2.479-0.027,4.819,1.022,6.41c2.216,3.277,20.96,13.886,55.626,9.219s42.307-6.482,48.08-13.946
	c2.608,0.093,5.287,0.145,8.058,0.145c3.4,0,4.714-0.267,4.662-0.677c0.001,0,0.01,0.002,0.01,0.002s0.037-0.403,0.095-1.124
	c0,0,0,0,0-0.001c0.005-0.067,0.012-0.149,0.018-0.223l0,0c0.005-0.07,0.011-0.146,0.018-0.221c0.012-0.155,0.025-0.323,0.039-0.499
	C140.313,95.124,140.313,95.122,140.313,95.12z"/>
</svg>
