<?xml version="1.0" encoding="iso-8859-1"?>
<!-- Generator: Adobe Illustrator 15.0.0, SVG Export Plug-In . SVG Version: 6.00 Build 0)  -->
<!DOCTYPE svg PUBLIC "-//W3C//DTD SVG 1.1//EN" "http://www.w3.org/Graphics/SVG/1.1/DTD/svg11.dtd">
<svg version="1.1" id="Layer_1" xmlns="http://www.w3.org/2000/svg" xmlns:xlink="http://www.w3.org/1999/xlink" x="0px" y="0px"
	 width="612px" height="792px" viewBox="0 0 612 792" style="enable-background:new 0 0 612 792;" xml:space="preserve">
<g>
	<path d="M457.563,305.549c-0.712-8.396-8.093-15.2-16.487-15.2h-180.24v-41.31h35.072c6.604,0,11.956-5.354,11.956-11.956v-23.892
		c0-6.602-5.353-11.956-11.956-11.956H190.471c-6.604,0-11.956,5.354-11.956,11.956v23.892c0,6.602,5.353,11.956,11.956,11.956
		h35.07v41.31h-54.939c-8.394,0-15.774,6.804-16.488,15.2l-16.371,189.676h336.192L457.563,305.549z M444.786,433.875
		c0.452,2.839-1.586,5.142-4.555,5.142h-12.268c-2.968,0-5.679-2.303-6.053-5.142l-1.551-11.737
		c-0.374-2.839,1.664-5.139,4.557-5.139h11.948c2.891,0,5.603,2.3,6.053,5.139L444.786,433.875z M315.524,329.379
		c0-8.755,8.582-15.856,19.168-15.856h87.46c10.585,0,19.168,7.102,19.168,15.856V359.2c0,8.761-8.583,15.859-19.168,15.859h-87.46
		c-10.587,0-19.168-7.098-19.168-15.859V329.379z M414.633,439.016h-12.266c-2.969,0-5.61-2.303-5.899-5.142l-1.195-11.737
		c-0.289-2.839,1.821-5.139,4.712-5.139h11.948c2.891,0,5.532,2.3,5.898,5.139l1.516,11.737
		C419.711,436.713,417.603,439.016,414.633,439.016z M299.542,422.138c0.039-2.839,2.414-5.139,5.305-5.139h11.948
		c2.893,0,5.268,2.3,5.305,5.139l0.16,11.737c0.039,2.839-2.336,5.142-5.305,5.142h-12.268c-2.968,0-5.343-2.303-5.304-5.142
		L299.542,422.138z M299.212,446.435c0.038-2.838,2.483-5.142,5.458-5.142h12.3c2.978,0,5.421,2.303,5.46,5.142l0.158,11.734
		c0.04,2.842-2.404,5.145-5.458,5.145H304.51c-3.052,0-5.496-2.303-5.458-5.145L299.212,446.435z M176.742,316.92h112.943v30.337
		H176.742V316.92z M226.37,422.138l-1.196,11.737c-0.289,2.839-2.928,5.142-5.897,5.142h-12.268c-2.968,0-5.078-2.303-4.712-5.142
		l1.516-11.737c0.368-2.839,3.009-5.139,5.899-5.139h11.948C224.55,416.999,226.659,419.299,226.37,422.138z M201.284,422.138
		l-1.55,11.737c-0.375,2.839-3.085,5.142-6.054,5.142h-12.268c-2.968,0-5.008-2.303-4.555-5.142l1.87-11.737
		c0.452-2.839,3.164-5.139,6.055-5.139h11.948C199.619,416.999,201.659,419.299,201.284,422.138z M194.863,470.732l-1.55,11.733
		c-0.375,2.839-3.224,5.142-6.363,5.142h-12.972c-3.141,0-5.318-2.303-4.866-5.142l1.872-11.733
		c0.451-2.842,3.301-5.142,6.361-5.142h12.653C193.06,465.59,195.239,467.89,194.863,470.732z M190.314,463.313h-12.621
		c-3.053,0-5.161-2.303-4.709-5.145l1.869-11.734c0.454-2.838,3.234-5.142,6.21-5.142h12.3c2.976,0,5.086,2.303,4.709,5.142
		l-1.55,11.734C196.147,461.01,193.369,463.313,190.314,463.313z M220.224,482.465c-0.289,2.839-3.067,5.142-6.207,5.142h-12.972
		c-3.14,0-5.387-2.303-5.021-5.142l1.516-11.733c0.366-2.842,3.146-5.142,6.207-5.142H216.4c3.063,0,5.308,2.3,5.019,5.142
		L220.224,482.465z M216.645,463.313h-12.619c-3.053,0-5.231-2.303-4.866-5.145l1.516-11.734c0.366-2.838,3.077-5.142,6.053-5.142
		h12.301c2.977,0,5.154,2.303,4.865,5.142l-1.195,11.734C222.409,461.01,219.701,463.313,216.645,463.313z M247.136,482.465
		c-0.203,2.839-2.913,5.142-6.052,5.142h-12.972c-3.139,0-5.457-2.303-5.176-5.142l1.16-11.733c0.281-2.842,2.991-5.142,6.053-5.142
		h12.652c3.063,0,5.378,2.3,5.176,5.142L247.136,482.465z M248.876,458.168c-0.204,2.842-2.843,5.145-5.897,5.145h-12.621
		c-3.053,0-5.302-2.303-5.021-5.145l1.16-11.734c0.281-2.838,2.92-5.142,5.898-5.142h12.3c2.978,0,5.225,2.303,5.021,5.142
		L248.876,458.168z M250.616,433.875c-0.203,2.839-2.775,5.142-5.743,5.142h-12.268c-2.968,0-5.146-2.303-4.867-5.142l1.16-11.737
		c0.281-2.839,2.852-5.139,5.745-5.139h11.947c2.891,0,5.07,2.3,4.866,5.139L250.616,433.875z M296.009,482.465
		c-0.047,2.839-2.63,5.142-5.769,5.142h-12.972c-3.139,0-5.583-2.303-5.458-5.142l0.514-11.733c0.126-2.842,2.708-5.142,5.769-5.142
		h12.653c3.063,0,5.504,2.3,5.457,5.142L296.009,482.465z M296.414,458.168c-0.047,2.842-2.561,5.145-5.615,5.145H278.18
		c-3.054,0-5.429-2.303-5.305-5.145l0.514-11.734c0.126-2.838,2.64-5.142,5.617-5.142h12.299c2.978,0,5.351,2.303,5.303,5.142
		L296.414,458.168z M296.817,433.875c-0.045,2.839-2.491,5.142-5.46,5.142h-12.266c-2.969,0-5.274-2.303-5.15-5.142l0.515-11.737
		c0.125-2.839,2.571-5.139,5.46-5.139h11.949c2.891,0,5.196,2.3,5.148,5.139L296.817,433.875z M317.308,487.607h-12.974
		c-3.138,0-5.651-2.303-5.612-5.142l0.158-11.733c0.039-2.842,2.553-5.142,5.614-5.142h12.653c3.063,0,5.574,2.3,5.614,5.142
		l0.16,11.733C322.958,485.304,320.447,487.607,317.308,487.607z M324.628,422.138c-0.047-2.839,2.257-5.139,5.15-5.139h11.948
		c2.891,0,5.336,2.3,5.46,5.139l0.516,11.737c0.124,2.839-2.181,5.142-5.15,5.142h-12.268c-2.97,0-5.415-2.303-5.46-5.142
		L324.628,422.138z M325.033,446.435c-0.048-2.838,2.327-5.142,5.303-5.142h12.3c2.978,0,5.491,2.303,5.615,5.142l0.515,11.734
		c0.126,2.842-2.249,5.145-5.303,5.145h-12.621c-3.053,0-5.568-2.303-5.615-5.145L325.033,446.435z M344.375,487.607h-12.972
		c-3.139,0-5.723-2.303-5.771-5.142l-0.194-11.733c-0.047-2.842,2.396-5.142,5.457-5.142h12.653c3.062,0,5.645,2.3,5.771,5.142
		l0.514,11.733C349.957,485.304,347.514,487.607,344.375,487.607z M370.186,422.138c-0.202-2.839,1.977-5.139,4.868-5.139H387
		c2.891,0,5.464,2.3,5.743,5.139l1.161,11.737c0.279,2.839-1.899,5.142-4.867,5.142H376.77c-2.969,0-5.54-2.303-5.743-5.142
		L370.186,422.138z M371.925,446.435c-0.203-2.838,2.045-5.142,5.021-5.142h12.3c2.978,0,5.617,2.303,5.898,5.142l1.16,11.734
		c0.281,2.842-1.967,5.145-5.021,5.145h-12.619c-3.054,0-5.695-2.303-5.897-5.145L371.925,446.435z M393.531,487.607h-12.972
		c-3.141,0-5.849-2.303-6.053-5.142l-0.839-11.733c-0.204-2.842,2.113-5.142,5.176-5.142h12.652c3.063,0,5.771,2.3,6.051,5.142
		l1.16,11.733C398.986,485.304,396.67,487.607,393.531,487.607z M397.748,446.435c-0.291-2.838,1.888-5.142,4.865-5.142h37.966
		c2.976,0,5.756,2.303,6.208,5.142l1.87,11.734c0.452,2.842-1.656,5.145-4.71,5.145h-38.951c-3.054,0-5.764-2.303-6.053-5.145
		L397.748,446.435z M447.665,487.607h-40.041c-3.138,0-5.917-2.303-6.207-5.142l-1.196-11.733c-0.289-2.842,1.958-5.142,5.02-5.142
		h39.054c3.063,0,5.911,2.3,6.364,5.142l1.87,11.733C452.981,485.304,450.804,487.607,447.665,487.607z"/>
	<path d="M135.391,515.442v55.771h0.015c-0.735,8.396,5.965,15.2,14.969,15.2h310.928c9.003,0,15.704-6.804,14.969-15.2v-55.771
		H135.391z M305.838,576.541c-8.322,0-15.069-6.746-15.069-15.069c0-8.324,6.747-15.072,15.069-15.072
		c8.323,0,15.07,6.749,15.07,15.072C320.909,569.795,314.162,576.541,305.838,576.541z"/>
</g>
</svg>
