<?xml version="1.0" encoding="iso-8859-1"?>
<!-- Generator: Adobe Illustrator 15.0.0, SVG Export Plug-In . SVG Version: 6.00 Build 0)  -->
<!DOCTYPE svg PUBLIC "-//W3C//DTD SVG 1.1//EN" "http://www.w3.org/Graphics/SVG/1.1/DTD/svg11.dtd">
<svg version="1.1" id="&#x421;&#x43B;&#x43E;&#x439;_1"
	 xmlns="http://www.w3.org/2000/svg" xmlns:xlink="http://www.w3.org/1999/xlink" x="0px" y="0px" width="600px" height="600px"
	 viewBox="0 0 600 600" style="enable-background:new 0 0 600 600;" xml:space="preserve">
<g>
	<rect x="460.56" y="-159.26" style="fill-rule:evenodd;clip-rule:evenodd;fill:#000003;" width="300" height="300"/>
	<g>
		<path style="fill-rule:evenodd;clip-rule:evenodd;fill:#FFFFFF;" d="M482.189-4.42v-0.59h-0.229v-2.36h0.229v-4.419
			c0-0.32,0.261-0.58,0.58-0.58h10.38c0.33,0,0.59,0.26,0.59,0.58v4.419h0.221V-5h-0.221v0.58H482.189L482.189-4.42z M485.02-5.1
			L485.02-5.1c0-0.16-0.119-0.28-0.28-0.28c-0.159,0-0.29,0.12-0.29,0.28s0.131,0.29,0.29,0.29C484.9-4.81,485.02-4.939,485.02-5.1
			L485.02-5.1z M491.47-5.1L491.47-5.1c0-0.16-0.13-0.28-0.29-0.28c-0.15,0-0.28,0.12-0.28,0.28s0.13,0.29,0.28,0.29
			C491.34-4.81,491.47-4.939,491.47-5.1L491.47-5.1z M486-5.94L486-5.94c0-0.16-0.13-0.29-0.29-0.29c-0.15,0-0.28,0.13-0.28,0.29
			c0,0.15,0.13,0.28,0.28,0.28C485.87-5.66,486-5.79,486-5.94L486-5.94z M490.5-5.94L490.5-5.94c0-0.16-0.13-0.29-0.29-0.29
			s-0.28,0.13-0.28,0.29c0,0.15,0.12,0.28,0.28,0.28S490.5-5.79,490.5-5.94L490.5-5.94z M484.6-6.45L484.6-6.45l0.14-0.44h6.45
			l0.13,0.44h1.38c0.11,0,0.19-0.09,0.19-0.2v-4.74c0-0.1-0.08-0.19-0.19-0.19h-9.479c-0.1,0-0.189,0.09-0.189,0.19v4.74
			c0,0.11,0.09,0.2,0.189,0.2H484.6L484.6-6.45z M483.68-9.18c0,0.7,0.59,1.27,1.33,1.27h5.9c0.739,0,1.33-0.569,1.33-1.27
			s-0.591-1.26-1.33-1.26h-5.9C484.27-10.44,483.68-9.88,483.68-9.18L483.68-9.18L483.68-9.18z M485.88-9.18L485.88-9.18
			c0-0.48-0.39-0.87-0.87-0.87s-0.87,0.39-0.87,0.87s0.39,0.87,0.87,0.87S485.88-8.7,485.88-9.18L485.88-9.18z M491.779-9.18
			L491.779-9.18c0-0.48-0.39-0.87-0.869-0.87c-0.48,0-0.86,0.39-0.86,0.87s0.38,0.87,0.86,0.87
			C491.39-8.31,491.779-8.7,491.779-9.18L491.779-9.18z M488.92-8.45L488.92-8.45v-1.46H487v1.46H488.92z"/>
		<path style="fill-rule:evenodd;clip-rule:evenodd;fill:#FFFFFF;" d="M501.63-3.43v-0.73h-0.28v-2.96h0.28v-5.52
			c0-0.4,0.33-0.73,0.73-0.73h12.979c0.399,0,0.729,0.33,0.729,0.73v5.52h0.28v2.96h-0.28v0.73H501.63L501.63-3.43z M505.18-4.28
			L505.18-4.28c0-0.19-0.16-0.35-0.36-0.35c-0.189,0-0.35,0.16-0.35,0.35c0,0.2,0.16,0.36,0.35,0.36
			C505.02-3.92,505.18-4.08,505.18-4.28L505.18-4.28z M513.24-4.28L513.24-4.28c0-0.19-0.16-0.35-0.36-0.35s-0.36,0.16-0.36,0.35
			c0,0.2,0.16,0.36,0.36,0.36S513.24-4.08,513.24-4.28L513.24-4.28z M506.399-5.33L506.399-5.33c0-0.2-0.16-0.36-0.359-0.36
			c-0.19,0-0.351,0.16-0.351,0.36c0,0.2,0.16,0.36,0.351,0.36C506.239-4.97,506.399-5.13,506.399-5.33L506.399-5.33z M512.02-5.33
			L512.02-5.33c0-0.2-0.159-0.36-0.359-0.36c-0.19,0-0.351,0.16-0.351,0.36c0,0.2,0.16,0.36,0.351,0.36
			C511.86-4.97,512.02-5.13,512.02-5.33L512.02-5.33z M504.649-5.97L504.649-5.97l0.17-0.54h8.061l0.18,0.54h1.71
			c0.141,0,0.25-0.11,0.25-0.24v-5.92c0-0.14-0.109-0.25-0.25-0.25h-11.84c-0.13,0-0.24,0.11-0.24,0.25v5.92
			c0,0.13,0.11,0.24,0.24,0.24H504.649L504.649-5.97z M503.5-9.37c0,0.87,0.74,1.58,1.66,1.58h7.38c0.92,0,1.67-0.71,1.67-1.58
			v-0.01c0-0.87-0.75-1.58-1.67-1.58h-7.38c-0.92,0-1.66,0.709-1.66,1.58V-9.37L503.5-9.37L503.5-9.37z M506.25-9.38L506.25-9.38
			c0-0.59-0.49-1.08-1.09-1.08c-0.601,0-1.08,0.49-1.08,1.08c0,0.6,0.479,1.09,1.08,1.09C505.76-8.29,506.25-8.78,506.25-9.38
			L506.25-9.38z M513.63-9.38L513.63-9.38c0-0.59-0.49-1.08-1.09-1.08c-0.601,0-1.08,0.49-1.08,1.08c0,0.6,0.479,1.09,1.08,1.09
			C513.14-8.29,513.63-8.78,513.63-9.38L513.63-9.38z M510.05-8.46L510.05-8.46v-1.83h-2.39v1.83H510.05z"/>
		<path style="fill-rule:evenodd;clip-rule:evenodd;fill:#FFFFFF;" d="M524.08-2.44v-0.87h-0.33v-3.55h0.33v-6.62
			c0-0.49,0.39-0.88,0.88-0.88h15.569c0.48,0,0.881,0.39,0.881,0.88v6.62h0.34v3.55h-0.34v0.87H524.08L524.08-2.44z M528.34-3.45
			L528.34-3.45c0-0.23-0.19-0.43-0.43-0.43c-0.24,0-0.431,0.2-0.431,0.43c0,0.24,0.19,0.43,0.431,0.43
			C528.149-3.02,528.34-3.21,528.34-3.45L528.34-3.45z M538-3.45L538-3.45c0-0.23-0.19-0.43-0.42-0.43c-0.24,0-0.431,0.2-0.431,0.43
			c0,0.24,0.19,0.43,0.431,0.43C537.81-3.02,538-3.21,538-3.45L538-3.45z M529.8-4.71L529.8-4.71c0-0.24-0.19-0.43-0.43-0.43
			c-0.24,0-0.431,0.19-0.431,0.43c0,0.23,0.19,0.42,0.431,0.42C529.609-4.29,529.8-4.479,529.8-4.71L529.8-4.71z M536.54-4.71
			L536.54-4.71c0-0.24-0.19-0.43-0.42-0.43c-0.24,0-0.431,0.19-0.431,0.43c0,0.23,0.19,0.42,0.431,0.42
			C536.35-4.29,536.54-4.479,536.54-4.71L536.54-4.71z M527.7-5.479L527.7-5.479l0.199-0.65h9.681l0.21,0.65h2.06
			c0.16,0,0.29-0.13,0.29-0.29v-7.11c0-0.16-0.13-0.29-0.29-0.29h-14.21c-0.16,0-0.29,0.13-0.29,0.29v7.11
			c0,0.16,0.13,0.29,0.29,0.29H527.7L527.7-5.479z M526.319-9.57c0,1.05,0.891,1.9,2,1.9h8.851c1.1,0,2-0.85,2-1.9
			c0-1.05-0.9-1.9-2-1.9h-8.851C527.21-11.47,526.319-10.62,526.319-9.57L526.319-9.57L526.319-9.57z M529.62-9.57L529.62-9.57
			c0-0.72-0.591-1.3-1.301-1.3c-0.72,0-1.31,0.58-1.31,1.3c0,0.72,0.59,1.3,1.31,1.3C529.029-8.27,529.62-8.85,529.62-9.57
			L529.62-9.57z M538.47-9.57L538.47-9.57c0-0.72-0.58-1.3-1.3-1.3s-1.301,0.58-1.301,1.3c0,0.72,0.581,1.3,1.301,1.3
			S538.47-8.85,538.47-9.57L538.47-9.57z M534.18-8.47L534.18-8.47v-2.19h-2.87v2.19H534.18z"/>
		<path style="fill-rule:evenodd;clip-rule:evenodd;fill:#FFFFFF;" d="M549.5-1.94v-0.94h-0.36v-3.85h0.36v-7.18
			c0-0.52,0.43-0.95,0.949-0.95h16.87c0.53,0,0.95,0.43,0.95,0.95v7.18h0.37v3.85h-0.37v0.94H549.5L549.5-1.94z M554.109-3.04
			L554.109-3.04c0-0.25-0.21-0.46-0.46-0.46c-0.26,0-0.46,0.21-0.46,0.46c0,0.26,0.2,0.47,0.46,0.47
			C553.899-2.57,554.109-2.78,554.109-3.04L554.109-3.04z M564.58-3.04L564.58-3.04c0-0.25-0.2-0.46-0.46-0.46
			c-0.25,0-0.46,0.21-0.46,0.46c0,0.26,0.21,0.47,0.46,0.47C564.38-2.57,564.58-2.78,564.58-3.04L564.58-3.04z M555.689-4.41
			L555.689-4.41c0-0.25-0.2-0.46-0.46-0.46c-0.25,0-0.46,0.21-0.46,0.46c0,0.26,0.21,0.46,0.46,0.46
			C555.489-3.95,555.689-4.149,555.689-4.41L555.689-4.41z M563-4.41L563-4.41c0-0.25-0.2-0.46-0.46-0.46
			c-0.261,0-0.46,0.21-0.46,0.46c0,0.26,0.199,0.46,0.46,0.46C562.8-3.95,563-4.149,563-4.41L563-4.41z M553.42-5.24L553.42-5.24
			l0.22-0.7h10.49l0.22,0.7h2.23c0.18,0,0.319-0.14,0.319-0.32v-7.69c0-0.18-0.14-0.32-0.319-0.32h-15.391
			c-0.18,0-0.319,0.14-0.319,0.32v7.69c0,0.18,0.14,0.32,0.319,0.32H553.42L553.42-5.24z M551.93-9.669c0,1.14,0.96,2.06,2.16,2.06
			h9.59c1.2,0,2.17-0.92,2.17-2.06c0-1.13-0.97-2.05-2.17-2.05h-9.59C552.89-11.72,551.93-10.8,551.93-9.669L551.93-9.669
			L551.93-9.669z M555.5-9.669L555.5-9.669c0-0.78-0.63-1.411-1.41-1.411s-1.41,0.63-1.41,1.411c0,0.78,0.63,1.41,1.41,1.41
			S555.5-8.89,555.5-9.669L555.5-9.669z M565.09-9.669L565.09-9.669c0-0.78-0.63-1.411-1.41-1.411s-1.41,0.63-1.41,1.411
			c0,0.78,0.63,1.41,1.41,1.41S565.09-8.89,565.09-9.669L565.09-9.669z M560.439-8.479L560.439-8.479v-2.37h-3.109v2.37H560.439z"/>
		<path style="fill-rule:evenodd;clip-rule:evenodd;fill:#FFFFFF;" d="M576.45-0.95v-1.09h-0.421v-4.44h0.421v-8.28
			c0-0.6,0.489-1.09,1.09-1.09h19.47c0.61,0,1.1,0.49,1.1,1.09v8.29h0.42v4.44h-0.42v1.08H576.45L576.45-0.95z M581.77-2.209
			L581.77-2.209c0-0.3-0.24-0.54-0.529-0.54c-0.301,0-0.54,0.24-0.54,0.54c0,0.29,0.239,0.53,0.54,0.53
			C581.529-1.68,581.77-1.92,581.77-2.209L581.77-2.209z M593.85-2.209L593.85-2.209c0-0.3-0.24-0.54-0.53-0.54
			c-0.3,0-0.54,0.24-0.54,0.54c0,0.29,0.24,0.53,0.54,0.53C593.609-1.68,593.85-1.92,593.85-2.209L593.85-2.209z M583.6-3.79
			L583.6-3.79c0-0.3-0.25-0.54-0.54-0.54s-0.529,0.24-0.529,0.54c0,0.29,0.239,0.53,0.529,0.53S583.6-3.5,583.6-3.79L583.6-3.79z
			 M592.029-3.79L592.029-3.79c0-0.3-0.239-0.54-0.54-0.54c-0.29,0-0.529,0.24-0.529,0.54c0,0.29,0.239,0.53,0.529,0.53
			C591.79-3.26,592.029-3.5,592.029-3.79L592.029-3.79z M580.97-4.75L580.97-4.75l0.26-0.81h12.101l0.25,0.81h2.58
			c0.199,0,0.359-0.17,0.359-0.37V-14c0-0.2-0.16-0.36-0.359-0.36H578.39c-0.2,0-0.359,0.16-0.359,0.36v8.88
			c0,0.2,0.159,0.37,0.359,0.37H580.97L580.97-4.75z M579.25-9.86c0,1.31,1.12,2.37,2.49,2.37h11.069c1.38,0,2.5-1.06,2.5-2.37
			s-1.12-2.37-2.5-2.37H581.74C580.37-12.23,579.25-11.17,579.25-9.86L579.25-9.86L579.25-9.86z M583.37-9.86L583.37-9.86
			c0-0.9-0.73-1.63-1.63-1.63c-0.9,0-1.631,0.73-1.631,1.63s0.73,1.62,1.631,1.62C582.64-8.24,583.37-8.96,583.37-9.86L583.37-9.86z
			 M594.439-9.86L594.439-9.86c0-0.9-0.729-1.63-1.63-1.63c-0.899,0-1.62,0.73-1.62,1.63s0.721,1.62,1.62,1.62
			C593.71-8.24,594.439-8.96,594.439-9.86L594.439-9.86z M589.069-8.49L589.069-8.49v-2.74h-3.59v2.74H589.069z"/>
		<path style="fill-rule:evenodd;clip-rule:evenodd;fill:#FFFFFF;" d="M606.479,1.541V0.09h-0.56v-5.92h0.56v-11.05
			c0-0.8,0.65-1.45,1.46-1.45h25.96c0.801,0,1.46,0.65,1.46,1.45v11.05h0.561v5.92h-0.561v1.45H606.479L606.479,1.541z M613.58-0.15
			L613.58-0.15c0-0.39-0.33-0.71-0.721-0.71c-0.39,0-0.71,0.32-0.71,0.71s0.32,0.71,0.71,0.71C613.25,0.561,613.58,0.24,613.58-0.15
			L613.58-0.15z M629.689-0.15L629.689-0.15c0-0.39-0.319-0.71-0.72-0.71c-0.39,0-0.71,0.32-0.71,0.71s0.32,0.71,0.71,0.71
			C629.37,0.561,629.689,0.24,629.689-0.15L629.689-0.15z M616.01-2.26L616.01-2.26c0-0.39-0.32-0.71-0.71-0.71
			c-0.4,0-0.72,0.32-0.72,0.71c0,0.39,0.319,0.71,0.72,0.71C615.689-1.55,616.01-1.87,616.01-2.26L616.01-2.26z M627.25-2.26
			L627.25-2.26c0-0.39-0.32-0.71-0.71-0.71c-0.391,0-0.71,0.32-0.71,0.71c0,0.39,0.319,0.71,0.71,0.71
			C626.93-1.55,627.25-1.87,627.25-2.26L627.25-2.26z M612.51-3.54L612.51-3.54l0.34-1.08h16.13l0.351,1.08h3.43
			c0.27,0,0.49-0.22,0.49-0.48V-15.87c0-0.26-0.221-0.479-0.49-0.479h-23.68c-0.271,0-0.49,0.22-0.49,0.479V-4.02
			c0,0.26,0.22,0.48,0.49,0.48H612.51L612.51-3.54z M610.21-10.35c0,1.74,1.49,3.16,3.33,3.16h14.76c1.83,0,3.33-1.42,3.33-3.16
			c0-1.75-1.5-3.16-3.33-3.16h-14.76C611.7-13.51,610.21-12.1,610.21-10.35L610.21-10.35L610.21-10.35z M615.71-10.35L615.71-10.35
			c0-1.2-0.971-2.17-2.17-2.17c-1.2,0-2.17,0.97-2.17,2.17c0,1.2,0.97,2.17,2.17,2.17C614.739-8.18,615.71-9.15,615.71-10.35
			L615.71-10.35z M630.47-10.35L630.47-10.35c0-1.2-0.97-2.17-2.17-2.17s-2.17,0.97-2.17,2.17c0,1.2,0.97,2.17,2.17,2.17
			S630.47-9.15,630.47-10.35L630.47-10.35z M623.31-8.52L623.31-8.52v-3.66h-4.779v3.66H623.31z"/>
		<path style="fill-rule:evenodd;clip-rule:evenodd;fill:#FFFFFF;" d="M643.979,3.53V1.78h-0.66v-7.1h0.66v-13.25
			c0-0.97,0.79-1.75,1.75-1.75h31.16c0.96,0,1.75,0.78,1.75,1.75v13.25h0.68v7.1h-0.68v1.75H643.979L643.979,3.53z M652.5,1.5
			L652.5,1.5c0-0.47-0.391-0.86-0.86-0.86s-0.85,0.39-0.85,0.86c0,0.47,0.38,0.85,0.85,0.85S652.5,1.97,652.5,1.5L652.5,1.5z
			 M671.83,1.5L671.83,1.5c0-0.47-0.38-0.86-0.851-0.86c-0.47,0-0.859,0.39-0.859,0.86c0,0.47,0.39,0.85,0.859,0.85
			C671.45,2.35,671.83,1.97,671.83,1.5L671.83,1.5z M655.42-1.03L655.42-1.03c0-0.47-0.391-0.86-0.86-0.86s-0.85,0.39-0.85,0.86
			c0,0.47,0.38,0.85,0.85,0.85S655.42-0.56,655.42-1.03L655.42-1.03z M668.91-1.03L668.91-1.03c0-0.47-0.381-0.86-0.851-0.86
			s-0.86,0.39-0.86,0.86c0,0.47,0.391,0.85,0.86,0.85S668.91-0.56,668.91-1.03L668.91-1.03z M651.22-2.57L651.22-2.57l0.41-1.29
			h19.36l0.409,1.29h4.12c0.32,0,0.59-0.26,0.59-0.58v-14.21c0-0.32-0.27-0.59-0.59-0.59H647.1c-0.32,0-0.59,0.27-0.59,0.59v14.21
			c0,0.32,0.27,0.58,0.59,0.58H651.22L651.22-2.57z M648.46-10.74c0,2.09,1.79,3.79,3.99,3.79h17.72c2.2,0,3.99-1.7,3.99-3.79
			c0-2.1-1.79-3.8-3.99-3.8h-17.72C650.25-14.54,648.46-12.84,648.46-10.74L648.46-10.74L648.46-10.74z M655.06-10.74L655.06-10.74
			c0-1.44-1.17-2.61-2.609-2.61c-1.431,0-2.601,1.17-2.601,2.61s1.17,2.6,2.601,2.6C653.89-8.14,655.06-9.3,655.06-10.74
			L655.06-10.74z M672.77-10.74L672.77-10.74c0-1.44-1.17-2.61-2.6-2.61c-1.44,0-2.61,1.17-2.61,2.61s1.17,2.6,2.61,2.6
			C671.6-8.14,672.77-9.3,672.77-10.74L672.77-10.74z M664.18-8.55L664.18-8.55v-4.38h-5.74v4.38H664.18z"/>
		<path style="fill-rule:evenodd;clip-rule:evenodd;fill:#FFFFFF;" d="M687.54,6.51V4.33h-0.83v-8.88h0.83v-16.56
			c0-1.21,0.979-2.19,2.189-2.19h38.94c1.21,0,2.189,0.98,2.189,2.19v16.56h0.851v8.88h-0.851v2.18H687.54L687.54,6.51z
			 M698.189,3.97L698.189,3.97c0-0.58-0.479-1.06-1.069-1.06c-0.591,0-1.07,0.48-1.07,1.06c0,0.59,0.479,1.07,1.07,1.07
			C697.71,5.04,698.189,4.561,698.189,3.97L698.189,3.97z M722.35,3.97L722.35,3.97c0-0.58-0.479-1.06-1.07-1.06
			c-0.59,0-1.069,0.48-1.069,1.06c0,0.59,0.479,1.07,1.069,1.07C721.87,5.04,722.35,4.561,722.35,3.97L722.35,3.97z M701.84,0.811
			L701.84,0.811c0-0.59-0.49-1.07-1.07-1.07c-0.59,0-1.07,0.48-1.07,1.07c0,0.59,0.48,1.069,1.07,1.069
			C701.35,1.88,701.84,1.4,701.84,0.811L701.84,0.811z M718.699,0.811L718.699,0.811c0-0.59-0.479-1.07-1.069-1.07
			c-0.58,0-1.061,0.48-1.061,1.07c0,0.59,0.48,1.069,1.061,1.069C718.22,1.88,718.699,1.4,718.699,0.811L718.699,0.811z
			 M696.59-1.11L696.59-1.11l0.51-1.62h24.2l0.51,1.62h5.16c0.4,0,0.72-0.33,0.72-0.73V-19.6c0-0.4-0.319-0.73-0.72-0.73h-35.53
			c-0.399,0-0.729,0.331-0.729,0.73v17.76c0,0.4,0.33,0.73,0.729,0.73H696.59L696.59-1.11z M693.14-11.33
			c0,2.62,2.24,4.75,4.99,4.75h22.14c2.75,0,4.99-2.13,4.99-4.75c0-2.62-2.24-4.74-4.99-4.74h-22.14
			C695.38-16.07,693.14-13.95,693.14-11.33L693.14-11.33L693.14-11.33z M701.38-11.33L701.38-11.33c0-1.79-1.45-3.25-3.25-3.25
			s-3.26,1.46-3.26,3.25c0,1.8,1.46,3.26,3.26,3.26S701.38-9.53,701.38-11.33L701.38-11.33z M723.529-11.33L723.529-11.33
			c0-1.79-1.459-3.25-3.26-3.25c-1.79,0-3.25,1.46-3.25,3.25c0,1.8,1.46,3.26,3.25,3.26C722.07-8.07,723.529-9.53,723.529-11.33
			L723.529-11.33z M712.79-8.59L712.79-8.59v-5.47h-7.181v5.47H712.79z"/>
	</g>
</g>
</svg>
