<?xml version="1.0" encoding="iso-8859-1"?>
<!-- Generator: Adobe Illustrator 15.0.0, SVG Export Plug-In . SVG Version: 6.00 Build 0)  -->
<!DOCTYPE svg PUBLIC "-//W3C//DTD SVG 1.1//EN" "http://www.w3.org/Graphics/SVG/1.1/DTD/svg11.dtd">
<svg version="1.1" xmlns="http://www.w3.org/2000/svg" xmlns:xlink="http://www.w3.org/1999/xlink" x="0px" y="0px" width="300px"
	 height="300px" viewBox="0 0 300 300" style="enable-background:new 0 0 300 300;" xml:space="preserve">
<g id="Layer_1">
	<g>
		<rect x="0.56" y="-0.31" style="fill-rule:evenodd;clip-rule:evenodd;fill:#666666;" width="300" height="300"/>
		<g>
			<g>
				<g>
					<g>
						<path style="fill-rule:evenodd;clip-rule:evenodd;fill:#FFFFFF;" d="M52.13,166.25v-6.05H49.5v-3.65h2.63v-2.89h3.65v2.89
							h2.63v3.65h-2.63v6.05H52.13z M34.84,166.25v-6.06H32.2v-3.65h2.64v-2.88h3.65v2.88h2.63v3.65h-2.63v6.06H34.84z
							 M69.42,166.25v-6.06h-2.63v-3.65h2.63v-2.88h3.65v2.88h2.63v3.65h-2.63v6.06H69.42z"/>
						<path style="fill-rule:evenodd;clip-rule:evenodd;fill:#FFFFFF;" d="M44.07,159.61v-4.851h-2.11v-2.93h2.11v-2.31H47v2.31
							h2.11v2.93H47v4.851H44.07z M60.91,159.61v-4.851H58.8v-2.93h2.11v-2.31h2.92v2.31h2.11v2.93h-2.11v4.851H60.91z"/>
					</g>
					<g>
						<path style="fill-rule:evenodd;clip-rule:evenodd;fill:#FFFFFF;" d="M52.6,150.47v-4.5h-1.96v-2.71h1.96v-2.14h2.71v2.14h1.95
							v2.71h-1.95v4.5H52.6z M39.75,150.47v-4.5h-1.96v-2.71h1.96v-2.14h2.71v2.14h1.96v2.71h-1.96v4.5H39.75z M65.45,150.47v-4.5
							h-1.96v-2.71h1.96v-2.14h2.71v2.14h1.95v2.71h-1.95v4.5H65.45z"/>
						<path style="fill-rule:evenodd;clip-rule:evenodd;fill:#FFFFFF;" d="M46.61,145.54v-3.61h-1.57v-2.17h1.57v-1.72h2.18v1.72
							h1.56v2.17h-1.56v3.61H46.61z M59.12,145.54v-3.61h-1.57v-2.17h1.57v-1.72h2.17v1.72h1.57v2.17h-1.57v3.61H59.12z"/>
					</g>
				</g>
				<rect x="31.45" y="129.64" style="fill-rule:evenodd;clip-rule:evenodd;fill:none;" width="45" height="45"/>
			</g>
			<g>
				<g>
					<g>
						<path style="fill-rule:evenodd;clip-rule:evenodd;fill:#FFFFFF;" d="M98.78,163.43v-4.84h-2.11v-2.92h2.11v-2.31h2.92v2.31
							h2.1v2.92h-2.1v4.84H98.78z M84.94,163.43v-4.85h-2.1v-2.92h2.1v-2.3h2.93v2.3h2.1v2.92h-2.1v4.85H84.94z M112.61,163.43
							v-4.85h-2.1v-2.92h2.1v-2.3h2.92v2.3h2.11v2.92h-2.11v4.85H112.61z"/>
						<path style="fill-rule:evenodd;clip-rule:evenodd;fill:#FFFFFF;" d="M92.33,158.12v-3.88h-1.68v-2.351h1.68v-1.84h2.35v1.84
							h1.68v2.351h-1.68v3.88H92.33z M105.8,158.12v-3.89h-1.69v-2.341h1.69v-1.85h2.34v1.85h1.69v2.341h-1.69v3.89H105.8z"/>
					</g>
					<g>
						<path style="fill-rule:evenodd;clip-rule:evenodd;fill:#FFFFFF;" d="M99.15,150.8v-3.59h-1.56v-2.17h1.56v-1.72h2.17v1.72
							h1.57v2.17h-1.57v3.59H99.15z M88.87,150.8v-3.59h-1.56v-2.17h1.56v-1.72h2.18v1.72h1.56v2.17h-1.56v3.59H88.87z
							 M109.43,150.8v-3.59h-1.56v-2.17h1.56v-1.72h2.17v1.72h1.57v2.17h-1.57v3.59H109.43z"/>
						<path style="fill-rule:evenodd;clip-rule:evenodd;fill:#FFFFFF;" d="M94.37,146.86v-2.89h-1.26v-1.73h1.26v-1.38h1.74v1.38
							h1.25v1.73h-1.25v2.89H94.37z M104.37,146.86v-2.89h-1.25v-1.74h1.25v-1.37h1.74v1.37h1.25v1.74h-1.25v2.89H104.37z"/>
					</g>
				</g>
				<rect x="82.24" y="134.14" style="fill-rule:evenodd;clip-rule:evenodd;fill:none;" width="36" height="36"/>
			</g>
			<g>
				<g>
					<g>
						<path style="fill-rule:evenodd;clip-rule:evenodd;fill:#FFFFFF;" d="M137.81,161.55v-4.04h-1.76v-2.43h1.76v-1.92h2.43v1.92
							h1.75v2.43h-1.75v4.04H137.81z M126.28,161.55v-4.04h-1.76v-2.43h1.76v-1.93h2.43v1.93h1.76v2.43h-1.76v4.04H126.28z
							 M149.33,161.55v-4.04h-1.75v-2.43h1.75v-1.93h2.439v1.93h1.75v2.43h-1.75v4.04H149.33z"/>
						<path style="fill-rule:evenodd;clip-rule:evenodd;fill:#FFFFFF;" d="M132.44,157.12v-3.23h-1.41v-1.949h1.41V150.4h1.95v1.541
							h1.4v1.949h-1.4v3.23H132.44z M143.66,157.12v-3.23h-1.41v-1.96h1.41v-1.54h1.95v1.54h1.41v1.96h-1.41v3.23H143.66z"/>
					</g>
					<g>
						<path style="fill-rule:evenodd;clip-rule:evenodd;fill:#FFFFFF;" d="M138.12,151.03v-3h-1.3v-1.81h1.3v-1.43h1.81v1.43h1.3
							v1.81h-1.3v3H138.12z M129.55,151.03v-3h-1.3v-1.81h1.3v-1.43h1.81v1.43h1.31v1.81h-1.31v3H129.55z M146.68,151.03v-3h-1.3
							v-1.81h1.3v-1.43h1.81v1.43h1.31v1.81h-1.31v3H146.68z"/>
						<path style="fill-rule:evenodd;clip-rule:evenodd;fill:#FFFFFF;" d="M134.13,147.74v-2.4h-1.05v-1.45h1.05v-1.15h1.45v1.15
							h1.04v1.45h-1.04v2.4H134.13z M142.47,147.74v-2.4h-1.05v-1.45h1.05v-1.15h1.45v1.15h1.04v1.45h-1.04v2.4H142.47z"/>
					</g>
				</g>
				<rect x="124.02" y="137.14" style="fill-rule:evenodd;clip-rule:evenodd;fill:none;" width="30" height="30"/>
			</g>
			<g>
				<g>
					<g>
						<path style="fill-rule:evenodd;clip-rule:evenodd;fill:#FFFFFF;" d="M170.15,159.2v-3.03h-1.32v-1.83h1.32V152.9h1.819v1.439
							h1.32v1.83h-1.32v3.03H170.15z M161.5,159.2v-3.03h-1.32v-1.83h1.32V152.9h1.83v1.439h1.31v1.83h-1.31v3.03H161.5z
							 M178.79,159.2v-3.03h-1.31v-1.83h1.31V152.9h1.83v1.439h1.31v1.83h-1.31v3.03H178.79z"/>
						<path style="fill-rule:evenodd;clip-rule:evenodd;fill:#FFFFFF;" d="M166.12,155.88v-2.43h-1.061v-1.46h1.061v-1.16h1.46v1.16
							h1.06v1.46h-1.06v2.43H166.12z M174.53,155.88v-2.43h-1.05v-1.46h1.05v-1.16H176v1.16h1.05v1.46H176v2.43H174.53z"/>
					</g>
					<g>
						<path style="fill-rule:evenodd;clip-rule:evenodd;fill:#FFFFFF;" d="M170.38,151.31v-2.25H169.4v-1.36h0.979v-1.07h1.36v1.07
							h0.97v1.36h-0.97v2.25H170.38z M163.96,151.31v-2.25h-0.979v-1.36h0.979v-1.07h1.35v1.07h0.98v1.36h-0.98v2.25H163.96z
							 M176.8,151.31v-2.25h-0.97v-1.36h0.97v-1.07h1.36v1.07h0.979v1.36h-0.979v2.25H176.8z"/>
						<path style="fill-rule:evenodd;clip-rule:evenodd;fill:#FFFFFF;" d="M167.39,148.84v-1.8h-0.79v-1.09h0.79v-0.86h1.091v0.86
							h0.779v1.09h-0.779v1.8H167.39z M173.64,148.84v-1.8h-0.779v-1.09h0.779v-0.86h1.091v0.86h0.779v1.09h-0.779v1.8H173.64z"/>
					</g>
				</g>
				<rect x="159.81" y="140.89" style="fill-rule:evenodd;clip-rule:evenodd;fill:none;" width="22.5" height="22.5"/>
			</g>
			<g>
				<g>
					<g>
						<path style="fill-rule:evenodd;clip-rule:evenodd;fill:#FFFFFF;" d="M197.05,158.26v-2.63h-1.14v-1.58h1.14v-1.25h1.59v1.25
							h1.141v1.58h-1.141v2.63H197.05z M189.56,158.26v-2.63h-1.14v-1.58h1.14v-1.25h1.58v1.25h1.141v1.58h-1.141v2.63H189.56z
							 M204.55,158.26v-2.63h-1.14v-1.58h1.14v-1.25h1.58v1.25h1.14v1.58h-1.14v2.63H204.55z"/>
						<path style="fill-rule:evenodd;clip-rule:evenodd;fill:#FFFFFF;" d="M193.56,155.38v-2.1h-0.909v-1.271h0.909v-1h1.271v1h0.91
							v1.271h-0.91v2.1H193.56z M200.86,155.38v-2.1h-0.92v-1.271h0.92v-1h1.26v1h0.92v1.271h-0.92v2.1H200.86z"/>
					</g>
					<g>
						<path style="fill-rule:evenodd;clip-rule:evenodd;fill:#FFFFFF;" d="M197.26,151.42v-1.95h-0.85v-1.18h0.85v-0.92h1.17v0.92
							h0.851v1.18h-0.851v1.95H197.26z M191.69,151.42v-1.95h-0.851v-1.18h0.851v-0.92h1.17v0.92h0.85v1.18h-0.85v1.95H191.69z
							 M202.82,151.42v-1.95h-0.84v-1.18h0.84v-0.92H204v0.92h0.85v1.18H204v1.95H202.82z"/>
						<path style="fill-rule:evenodd;clip-rule:evenodd;fill:#FFFFFF;" d="M194.66,149.28v-1.56h-0.68v-0.94h0.68v-0.75h0.939v0.75
							h0.681v0.94H195.6v1.56H194.66z M200.08,149.28v-1.56h-0.68v-0.94h0.68v-0.75h0.939v0.75h0.681v0.94h-0.681v1.56H200.08z"/>
					</g>
				</g>
				<rect x="188.09" y="142.39" style="fill-rule:evenodd;clip-rule:evenodd;fill:none;" width="19.5" height="19.5"/>
			</g>
			<g>
				<g>
					<g>
						<path style="fill-rule:evenodd;clip-rule:evenodd;fill:#FFFFFF;" d="M221.65,157.79v-2.43H220.6v-1.46h1.051v-1.15h1.46v1.15
							h1.05v1.46h-1.05v2.43H221.65z M214.73,157.79v-2.43h-1.051v-1.46h1.051v-1.15h1.46v1.15h1.05v1.46h-1.05v2.43H214.73z
							 M228.56,157.79v-2.43h-1.05v-1.46h1.05v-1.15h1.471v1.15h1.05v1.46h-1.05v2.43H228.56z"/>
						<path style="fill-rule:evenodd;clip-rule:evenodd;fill:#FFFFFF;" d="M218.43,155.13v-1.939h-0.85v-1.171h0.85v-0.92h1.17v0.92
							h0.841v1.171H219.6v1.939H218.43z M225.16,155.13v-1.939h-0.84v-1.171h0.84v-0.93h1.17v0.93h0.84v1.171h-0.84v1.939H225.16z"
							/>
					</g>
					<g>
						<path style="fill-rule:evenodd;clip-rule:evenodd;fill:#FFFFFF;" d="M221.84,151.47v-1.79h-0.79v-1.09h0.79v-0.86h1.08v0.86
							h0.78v1.09h-0.78v1.79H221.84z M216.7,151.47v-1.8h-0.79v-1.08h0.79v-0.86h1.08v0.86h0.779v1.08h-0.779v1.8H216.7z
							 M226.97,151.47v-1.8h-0.779v-1.08h0.779v-0.86h1.09v0.86h0.78v1.08h-0.78v1.8H226.97z"/>
						<path style="fill-rule:evenodd;clip-rule:evenodd;fill:#FFFFFF;" d="M219.44,149.5v-1.44h-0.631v-0.87h0.631v-0.69h0.869v0.69
							h0.631v0.87h-0.631v1.44H219.44z M224.44,149.5v-1.44h-0.62v-0.87h0.62v-0.69h0.869v0.69h0.631v0.87h-0.631v1.44H224.44z"/>
					</g>
				</g>
				<rect x="213.38" y="143.14" style="fill-rule:evenodd;clip-rule:evenodd;fill:none;" width="18" height="18"/>
			</g>
			<g>
				<g>
					<g>
						<path style="fill-rule:evenodd;clip-rule:evenodd;fill:#FFFFFF;" d="M244.05,156.85v-2.02h-0.87v-1.22h0.87v-0.96h1.22v0.96
							h0.881v1.22h-0.881v2.02H244.05z M238.29,156.85v-2.02h-0.88v-1.22h0.88v-0.96h1.22v0.96h0.88v1.22h-0.88v2.02H238.29z
							 M249.82,156.85v-2.02h-0.88v-1.22h0.88v-0.96h1.22v0.96h0.87v1.22h-0.87v2.02H249.82z"/>
						<path style="fill-rule:evenodd;clip-rule:evenodd;fill:#FFFFFF;" d="M241.37,154.63v-1.61h-0.7v-0.979h0.7v-0.771h0.979v0.771
							h0.7v0.979h-0.7v1.61H241.37z M246.98,154.63v-1.61h-0.7v-0.979h0.7v-0.771h0.979v0.771h0.7v0.979h-0.7v1.61H246.98z"/>
					</g>
					<g>
						<path style="fill-rule:evenodd;clip-rule:evenodd;fill:#FFFFFF;" d="M244.21,151.59v-1.5h-0.65v-0.91h0.65v-0.71h0.91v0.71
							h0.649v0.91h-0.649v1.5H244.21z M239.93,151.59v-1.5h-0.649v-0.91h0.649v-0.71h0.9v0.71h0.65v0.91h-0.65v1.5H239.93z
							 M248.49,151.59v-1.5h-0.65v-0.91h0.65v-0.71h0.91v0.71h0.649v0.91H249.4v1.5H248.49z"/>
						<path style="fill-rule:evenodd;clip-rule:evenodd;fill:#FFFFFF;" d="M242.22,149.94v-1.2h-0.529v-0.72h0.529v-0.58h0.721v0.58
							h0.52v0.72h-0.52v1.2H242.22z M246.38,149.94v-1.2h-0.52v-0.73h0.52v-0.57h0.73v0.57h0.52v0.73h-0.52v1.2H246.38z"/>
					</g>
				</g>
				<rect x="237.16" y="144.64" style="fill-rule:evenodd;clip-rule:evenodd;fill:none;" width="15" height="15"/>
			</g>
			<g>
				<g>
					<g>
						<path style="fill-rule:evenodd;clip-rule:evenodd;fill:#FFFFFF;" d="M263.46,155.91v-1.62h-0.7v-0.97h0.7v-0.771h0.98v0.771
							h0.699v0.97h-0.699v1.62H263.46z M258.85,155.9v-1.61h-0.699v-0.97h0.699v-0.771h0.971v0.771h0.71v0.97h-0.71v1.61H258.85z
							 M268.07,155.9v-1.61h-0.7v-0.97h0.7v-0.771h0.979v0.771h0.7v0.97h-0.7v1.61H268.07z"/>
						<path style="fill-rule:evenodd;clip-rule:evenodd;fill:#FFFFFF;" d="M261.31,154.14v-1.3h-0.56v-0.78h0.56v-0.619h0.78v0.619
							h0.57v0.78h-0.57v1.3H261.31z M265.8,154.13v-1.29h-0.56v-0.78h0.56v-0.619h0.78v0.619h0.57v0.78h-0.57v1.29H265.8z"/>
					</g>
					<g>
						<path style="fill-rule:evenodd;clip-rule:evenodd;fill:#FFFFFF;" d="M263.59,151.7v-1.2h-0.52v-0.73h0.52v-0.57h0.72v0.57
							h0.521v0.73h-0.521v1.2H263.59z M260.16,151.7v-1.2h-0.521v-0.73h0.521v-0.57h0.72v0.57h0.53v0.73h-0.53v1.2H260.16z
							 M267.01,151.7v-1.2h-0.52v-0.73h0.52v-0.57h0.73v0.57h0.52v0.73h-0.52v1.2H267.01z"/>
						<path style="fill-rule:evenodd;clip-rule:evenodd;fill:#FFFFFF;" d="M261.99,150.38v-0.96h-0.42v-0.58h0.42v-0.46h0.58v0.46
							h0.42v0.58h-0.42v0.96H261.99z M265.33,150.38v-0.96h-0.42v-0.58h0.42v-0.46h0.58v0.46h0.41v0.58h-0.41v0.96H265.33z"/>
					</g>
				</g>
				<rect x="257.95" y="146.14" style="fill-rule:evenodd;clip-rule:evenodd;fill:none;" width="12" height="12"/>
			</g>
		</g>
	</g>
</g>
<g id="Guides">
</g>
</svg>
