<?xml version="1.0" encoding="iso-8859-1"?>
<!-- Generator: Adobe Illustrator 15.0.0, SVG Export Plug-In . SVG Version: 6.00 Build 0)  -->
<!DOCTYPE svg PUBLIC "-//W3C//DTD SVG 1.1//EN" "http://www.w3.org/Graphics/SVG/1.1/DTD/svg11.dtd">
<svg version="1.1" id="Layer_1" xmlns="http://www.w3.org/2000/svg" xmlns:xlink="http://www.w3.org/1999/xlink" x="0px" y="0px"
	 width="612px" height="792px" viewBox="0 0 612 792" style="enable-background:new 0 0 612 792;" xml:space="preserve">
<g>
	<path d="M493.636,313.541c2.353-10.253,4.023-20.954,4.831-32.104H125.625c-0.824,4.432-0.868,16.256,2.079,32.104H493.636z"/>
	<path d="M136.856,345.967c12.896,33.999,39.004,74.206,90.263,103.25c0,6.897,0,13.807,0,20.716c55.238,0,110.477,0,165.715,0
		c0.696-7.593,1.379-15.186,2.076-22.779c31.566-16.246,68.157-51.488,88.473-101.187H136.856z"/>
</g>
<path d="M172.937,176.512c0-6.699,7.481-19.998,17.72-20.588c3.207-0.186,5.656-2.936,5.472-6.144
	c-0.185-3.206-2.945-5.634-6.143-5.474c-17.131,0.99-28.535,19.797-28.682,31.969c-0.71,9.723,1.158,19.996,2.969,29.933
	c4.672,25.664,6.212,40.546-16.446,48.013c-3.051,1.005-4.71,4.295-3.705,7.346c0.808,2.446,3.082,3.998,5.525,3.998
	c0.603,0,1.219-0.095,1.821-0.292c33.382-11.002,28.32-38.807,24.251-61.148c-1.69-9.281-3.437-18.878-2.799-27.164L172.937,176.512
	z"/>
<path d="M210.353,176.512c0-6.699,7.481-19.998,17.72-20.588c3.207-0.186,5.656-2.936,5.472-6.144
	c-0.185-3.206-2.945-5.634-6.142-5.474c-17.131,0.99-28.536,19.797-28.682,31.969c-0.711,9.723,1.158,19.996,2.969,29.933
	c4.671,25.664,6.212,40.546-16.446,48.013c-3.051,1.005-4.71,4.295-3.705,7.346c0.808,2.446,3.082,3.998,5.525,3.998
	c0.603,0,1.218-0.095,1.821-0.292c33.382-11.002,28.32-38.807,24.251-61.148c-1.69-9.281-3.437-18.878-2.799-27.164L210.353,176.512
	z"/>
<path d="M264.819,144.306c-17.132,0.99-28.536,19.797-28.682,31.969c-0.711,9.723,1.158,19.996,2.969,29.933
	c4.671,25.664,6.211,40.546-16.446,48.013c-3.051,1.005-4.71,4.295-3.705,7.346c0.807,2.446,3.082,3.998,5.524,3.998
	c0.603,0,1.219-0.095,1.822-0.292c33.382-11.002,28.32-38.807,24.251-61.148c-1.69-9.281-3.437-18.878-2.799-27.164l0.017-0.448
	c0-6.699,7.481-19.998,17.72-20.588c3.206-0.186,5.656-2.936,5.472-6.144C270.776,146.574,268.016,144.146,264.819,144.306z"/>
<g>
	<path d="M196.194,196.302h-18.056c0.396,2.384,0.829,4.777,1.262,7.15c0.806,4.431,1.668,9.185,2.26,14.051h18.103
		c-0.462-3.241-1.05-6.747-1.755-10.625C197.373,203.385,196.735,199.85,196.194,196.302z"/>
	<path d="M216.817,203.453c0.806,4.431,1.668,9.185,2.26,14.051h18.104c-0.462-3.241-1.05-6.747-1.756-10.625
		c-0.636-3.493-1.273-7.028-1.814-10.576h-18.056C215.951,198.686,216.384,201.08,216.817,203.453z"/>
	<path d="M160.592,206.878c-0.636-3.493-1.273-7.028-1.814-10.576h-30.829v21.202h34.398
		C161.885,214.263,161.297,210.757,160.592,206.878z"/>
	<path d="M252.971,196.302c0.396,2.384,0.83,4.777,1.263,7.15c0.806,4.431,1.668,9.185,2.26,14.051h239.384v-21.202H252.971z"/>
</g>
<g>
	<path d="M236.97,147.661c0.163,0.612,0.272,1.248,0.311,1.904c0.301,5.262-3.73,9.789-8.991,10.096
		c-4.726,0.272-9.043,4.653-11.647,9.202h16.851c2.011-7.467,6.802-15.568,13.709-21.202H236.97z"/>
	<path d="M274.387,147.661c0.163,0.612,0.272,1.248,0.311,1.904c0.301,5.262-3.731,9.789-8.991,10.096
		c-4.727,0.272-9.043,4.653-11.647,9.202h241.818v-21.202H274.387z"/>
	<path d="M209.787,147.661h-10.233c0.163,0.612,0.272,1.248,0.311,1.904c0.302,5.262-3.73,9.789-8.99,10.096
		c-4.727,0.272-9.043,4.653-11.647,9.202h16.85C198.088,161.396,202.879,153.295,209.787,147.661z"/>
	<path d="M172.37,147.661h-44.421v21.202h30.711C160.672,161.396,165.462,153.295,172.37,147.661z"/>
</g>
</svg>
