<?xml version="1.0" encoding="iso-8859-1"?>
<!-- Generator: Adobe Illustrator 15.0.0, SVG Export Plug-In . SVG Version: 6.00 Build 0)  -->
<!DOCTYPE svg PUBLIC "-//W3C//DTD SVG 1.1//EN" "http://www.w3.org/Graphics/SVG/1.1/DTD/svg11.dtd">
<svg version="1.1" id="Layer_1" xmlns="http://www.w3.org/2000/svg" xmlns:xlink="http://www.w3.org/1999/xlink" x="0px" y="0px"
	 width="612px" height="792px" viewBox="0 0 612 792" style="enable-background:new 0 0 612 792;" xml:space="preserve">
<g>
	<path d="M353.633,370.306l0.004-0.044c0.003-31.901-27.529-35.581-27.529-35.581c-1.369-0.312-2.7-0.576-4.017-0.804v-7.55
		c-0.007-3.995-3.239-7.208-7.224-7.223l-12.602,0.003c-3.977-0.011-7.179,3.225-7.187,7.202l0.003,7.572
		c-2.285,0.407-3.551,0.778-3.551,0.778s-27.521,3.668-27.537,35.574l0.008,0.052L353.633,370.306z M301.47,328.759
		c0.007-1.967,1.709-3.559,3.87-3.544l6.765,0.003c2.146-0.015,3.881,1.574,3.881,3.551v4.307
		c-5.631-0.514-10.591-0.407-14.509-0.074L301.47,328.759z"/>
	<path d="M368.714,429.01c-10.228-6.395-13.533-14.935-14.601-20.338l-90.628-0.019c-1.067,5.4-4.391,13.933-14.601,20.324
		c0,0-13.966,4.102-12.789,19.128l-0.007,13.427l50.024,0.007c3.661,8.786,12.319,14.975,22.444,14.979
		c10.107,0.015,18.776-6.182,22.456-14.968l50.446,0.007l0.003-13.401C382.574,433.793,368.714,429.01,368.714,429.01z"/>
	<path d="M353.556,396.873l0.132-16.457l-89.608,0.466l-0.146,16.439c0,0,0.003,0.22-0.007,0.554l89.612-0.455
		C353.534,397.083,353.556,396.873,353.556,396.873z"/>
</g>
</svg>
