<?xml version="1.0" encoding="iso-8859-1"?>
<!-- Generator: Adobe Illustrator 15.0.0, SVG Export Plug-In . SVG Version: 6.00 Build 0)  -->
<!DOCTYPE svg PUBLIC "-//W3C//DTD SVG 1.1//EN" "http://www.w3.org/Graphics/SVG/1.1/DTD/svg11.dtd">
<svg version="1.1" id="Layer_1" xmlns="http://www.w3.org/2000/svg" xmlns:xlink="http://www.w3.org/1999/xlink" x="0px" y="0px"
	 width="612px" height="792px" viewBox="0 0 612 792" style="enable-background:new 0 0 612 792;" xml:space="preserve">
<polygon points="198.135,250.256 181.884,246.761 181.884,278.625 198.135,276.877 "/>
<path d="M262.43,202.5c-10.345,0-18.944,7.408-20.832,17.209c-2.311-9.235-10.595-16.101-20.545-16.101
	c-11.731,0-21.245,9.509-21.245,21.24c0,9.481,6.253,17.418,14.825,20.15v8.805l-11.998-2.58v25.17l11.998-1.29v10.6h26.552h8.855
	h23.902v-44.138c5.846-3.79,9.737-10.339,9.737-17.817C283.68,212.008,274.175,202.5,262.43,202.5z M241.89,228.884
	c1.304,5.209,4.472,9.676,8.822,12.562h-16.546C238.077,238.352,240.906,233.973,241.89,228.884z M221.053,229.719
	c-2.69,0-4.87-2.181-4.87-4.871c0-2.695,2.18-4.861,4.87-4.861c2.686,0,4.866,2.167,4.866,4.861
	C225.919,227.539,223.738,229.719,221.053,229.719z M261.282,272h-33v-16.333h33V272z M262.43,228.61
	c-2.681,0-4.861-2.18-4.861-4.861c0-2.7,2.181-4.871,4.861-4.871c2.695,0,4.87,2.171,4.87,4.871
	C267.3,226.43,265.125,228.61,262.43,228.61z"/>
</svg>
