<?xml version="1.0" encoding="iso-8859-1"?>
<!-- Generator: Adobe Illustrator 15.0.0, SVG Export Plug-In . SVG Version: 6.00 Build 0)  -->
<!DOCTYPE svg PUBLIC "-//W3C//DTD SVG 1.1//EN" "http://www.w3.org/Graphics/SVG/1.1/DTD/svg11.dtd">
<svg version="1.1" id="Layer_1" xmlns="http://www.w3.org/2000/svg" xmlns:xlink="http://www.w3.org/1999/xlink" x="0px" y="0px"
	 width="612px" height="792px" viewBox="0 0 612 792" style="enable-background:new 0 0 612 792;" xml:space="preserve">
<path d="M374.925,338.099H235.953c-1.849,0-3.348,1.499-3.348,3.348v103.539c0,1.849,1.499,3.348,3.348,3.348h138.972
	c1.849,0,3.348-1.499,3.348-3.348V341.447C378.272,339.598,376.773,338.099,374.925,338.099z M362.895,344c4.418,0,8,3.582,8,8
	c0,4.418-3.582,8-8,8s-8-3.582-8-8C354.895,347.582,358.477,344,362.895,344z M371.361,437.774c0,1.597-1.294,2.892-2.892,2.892
	H242.409c-1.597,0-2.893-1.295-2.893-2.892v-69.449c0-1.598,1.296-2.893,2.893-2.893H368.47c1.598,0,2.892,1.295,2.892,2.893
	V437.774z"/>
<polygon points="328.42,387.326 321.113,380.019 305.439,395.693 289.765,380.019 282.458,387.325 298.133,403 282.458,418.674 
	289.765,425.98 305.439,410.307 321.113,425.98 328.42,418.674 312.746,403 "/>
</svg>
