<?xml version="1.0" encoding="utf-8"?>
<!-- Generator: Adobe Illustrator 15.0.0, SVG Export Plug-In . SVG Version: 6.00 Build 0)  -->
<!DOCTYPE svg PUBLIC "-//W3C//DTD SVG 1.1//EN" "http://www.w3.org/Graphics/SVG/1.1/DTD/svg11.dtd">
<svg version="1.1" id="Layer_1" xmlns="http://www.w3.org/2000/svg" xmlns:xlink="http://www.w3.org/1999/xlink" x="0px" y="0px"
	 width="283.464px" height="283.464px" viewBox="0 0 283.464 283.464" enable-background="new 0 0 283.464 283.464"
	 xml:space="preserve">
<g>
	<g>
		<path fill-rule="evenodd" clip-rule="evenodd" d="M153.559,217.286c-1.794-0.82-3.934-4.085-5.851-11.195
			c-1.965-7.012-4.265-13.434-7.968-19.52c-0.639-0.647-1.228-1.105-1.867-0.957l-2.369,0.403c-0.928,0.22-1.466,0.661-1.463,1.413
			c-0.523,9.252-0.834,18.473-0.251,27.587l-0.353,0.454l-0.96,0.051c-1.901,0.014-1.786-0.227-2.168-0.403
			c0.273-5.276-0.185-10.672-0.757-16.089c-0.772-8.033-2.845-15.693-6.401-22.929c-0.164-0.503-0.029-0.728,0.109-0.918
			c-2.054-5.23,3.126-14.42,9.581-18.429c0.246-0.265,0.377-0.41,0.489-0.538c-0.12-1.08,20.918,28.887,19.373,27.783
			c1.907,3.666,3.187,7.33,4.388,10.996c1.869,3.591,5.356,5.278,10.944,4.489c3.377-0.203,6.757,2.521,10.035,3.933
			c6.028,2.514,11.702,4.955,13.568,6.608c1.009,1.31,0.856,2.673,0,3.631c-0.19,0.736-0.692,1.158-1.415,1.361
			c-6.517,1.979-13.504,2.864-20.475,3.784C161.358,219.437,156.355,218.781,153.559,217.286z"/>
	</g>
	<path d="M264.613,74.713l-24.35-32.52l-17.907-3.826l-1.334-4.296l0.056-0.574l-0.233,0l-0.054-0.172l-10.813,0.085l-10.813-0.085
		l-0.054,0.172l-0.233,0l0.056,0.574l-1.333,4.296l-17.908,3.826l-24.35,32.52l-3.303,39.476l14.956,24.871l11.826-5.914
		c0,0,11.905,9.156,31.157,8.696c19.251,0.46,31.156-8.696,31.156-8.696l11.826,5.914l14.956-24.871L264.613,74.713z
		 M178.124,120.103l-11.997-23.827l12.87-15.824C183.167,104.448,178.124,120.103,178.124,120.103z M241.831,120.103
		c0,0-5.043-15.655-0.873-39.65l12.87,15.824L241.831,120.103z"/>
	<path d="M216.615,147.47c-0.144,1.76,0.349,4.769,0.709,6.976c0.452,2.742-0.491,14.79-0.447,19.224
		c0.042,4.432-2.725,24.734-3.74,29.599c-1.007,4.868-3.104,6.365-4.357,7.856c-1.255,1.489-8.973,11.059-11.902,13.835
		c-2.935,2.777-11.266,7.036-12.96,7.479c-1.685,0.431-15.733,5.573-16.353,6.85c-0.414,0.842-0.966,3.047-1.373,4.646h48.311
		c3.168-5.539,7.365-14.772,8.355-15.747c1.537-1.511,4.626-1.993,6.111-1.958c2.281,0.051,1.181,12.049,0.996,17.706h11.046
		c0.347-9.173,3.993-17.972,3.291-20.616c-0.642-2.418-4.518-7.583-4.518-7.583s-0.326-5.692-0.082-8.41
		c0.247-2.721,2.844-12.474,3.315-15.8c0.46-3.259,6.352-16.651,8.309-22.604c2.388-7.268,2.533-19.308,2.533-19.308
		c-0.104-0.735-0.209-1.47-0.551-2.142H216.615z"/>
	<g>
		<path d="M97.072,194.687l-7.797,6.167c-2.758,1.399-3.784,1.399-6.723,0l-8.851-6.167c-2.83-1.667-9.372,2.128-9.372,4.754
			l-7.695,26.402h57.504l-7.695-26.402C106.443,196.815,100.11,192.634,97.072,194.687z"/>
		<rect x="56.634" y="229.121" width="57.504" height="5.386"/>
		<rect x="45.188" y="236.816" width="80.396" height="7.118"/>
	</g>
	<g>
		<polygon fill-rule="evenodd" clip-rule="evenodd" points="105.882,106.778 62.353,106.778 60.326,119.953 53.984,182.957 
			83.849,182.957 84.385,182.957 114.25,182.957 107.909,119.953 		"/>
		<path fill-rule="evenodd" clip-rule="evenodd" d="M124.273,62.883c-2.064-9.118-7.762-10.528-14.728-14.729
			c-0.526-0.635-12.273-6.035-12.273-6.035h5.523l-10.023-8.795h-8.387h-0.536h-8.387L65.439,42.12h5.522
			c0,0-11.747,5.4-12.273,6.035c-6.966,4.2-12.664,5.611-14.728,14.729c-2.455,10.841-22.91,80.799-22.91,80.799l15.342,1.432
			l22.296-66.072l4.019,16.077h42.818l4.02-16.077l22.296,66.072l15.341-1.432C147.183,143.682,126.728,73.724,124.273,62.883z
			 M91.749,48.563l-7.632,5.285l-7.632-5.285V42.12c0,0,3.616-0.009,7.632-0.012c4.016,0.003,7.632,0.012,7.632,0.012V48.563z"/>
		<rect x="78.748" y="97.437" fill-rule="evenodd" clip-rule="evenodd" width="10.738" height="7.636"/>
		<rect x="100.703" y="97.437" fill-rule="evenodd" clip-rule="evenodd" width="3.647" height="7.636"/>
		<rect x="63.883" y="97.437" fill-rule="evenodd" clip-rule="evenodd" width="3.647" height="7.636"/>
	</g>
</g>
</svg>
