<?xml version="1.0" encoding="iso-8859-1"?>
<!-- Generator: Adobe Illustrator 15.0.0, SVG Export Plug-In . SVG Version: 6.00 Build 0)  -->
<!DOCTYPE svg PUBLIC "-//W3C//DTD SVG 1.1//EN" "http://www.w3.org/Graphics/SVG/1.1/DTD/svg11.dtd">
<svg version="1.1" id="Layer_1" xmlns="http://www.w3.org/2000/svg" xmlns:xlink="http://www.w3.org/1999/xlink" x="0px" y="0px"
	 width="612px" height="792px" viewBox="0 0 612 792" style="enable-background:new 0 0 612 792;" xml:space="preserve">
<path d="M457.072,331.062h-79.489c-2.706,0-4.898,2.193-4.898,4.898v114.339c0,2.706,2.193,4.898,4.898,4.898h79.489
	c2.706,0,4.898-2.193,4.898-4.898V335.96C461.971,333.255,459.778,331.062,457.072,331.062z M439.029,407.68
	c-5.936,4.983-15.347,2.477-18.744-2.365c-0.619-0.329-0.687-0.073-1.049-0.039c0.375,5.902,1.236,11.214,4.025,14.191
	c0.205,0.227,0.119,0.38-0.119,0.504l-10.086,0.034c-1.094-0.663,3.198-1.174,3.866-14.424c-0.362-0.504-1.065-0.538-1.507,0.085
	c-8.107,7.637-15.693,5.822-21.001,1.287c-5-5.347-6.06-12.881-0.113-18.914c2.006-2.348,4.888-3.81,9.354-3.691
	c-2.245-9.933,1.537-15.722,10.365-18.058c10.392-0.482,17.189,3.594,16.107,17.689C443.808,382.495,449.456,400.501,439.029,407.68
	z"/>
</svg>
