<?xml version="1.0" encoding="utf-8"?>
<!-- Generator: Adobe Illustrator 15.0.0, SVG Export Plug-In . SVG Version: 6.00 Build 0)  -->
<!DOCTYPE svg PUBLIC "-//W3C//DTD SVG 1.1//EN" "http://www.w3.org/Graphics/SVG/1.1/DTD/svg11.dtd">
<svg version="1.1" id="Layer_1" xmlns="http://www.w3.org/2000/svg" xmlns:xlink="http://www.w3.org/1999/xlink" x="0px" y="0px"
	 width="162px" height="148px" viewBox="0 0 162 148" enable-background="new 0 0 162 148" xml:space="preserve">
<g>
	<polygon fill-rule="evenodd" clip-rule="evenodd" points="100.067,73.168 62.162,73.168 60.396,84.641 54.875,139.504 
		80.881,139.504 81.347,139.504 107.354,139.504 101.832,84.641 	"/>
	<path fill-rule="evenodd" clip-rule="evenodd" d="M116.082,34.944c-1.797-7.939-6.759-9.168-12.825-12.825
		c-0.458-0.553-10.688-5.255-10.688-5.255h4.809L88.65,9.205h-7.303h-0.466h-7.303l-8.728,7.659h4.809
		c0,0-10.229,4.702-10.688,5.255c-6.065,3.657-11.027,4.886-12.825,12.825c-2.138,9.44-19.95,70.359-19.95,70.359l13.359,1.247
		l19.416-57.535l3.5,14h37.286l3.5-14l19.416,57.535l13.359-1.247C136.032,105.304,118.219,44.385,116.082,34.944z M87.76,22.475
		l-6.646,4.602l-6.646-4.602v-5.61c0,0,3.149-0.008,6.646-0.011c3.497,0.003,6.646,0.011,6.646,0.011V22.475z"/>
	<rect x="76.438" y="65.034" fill-rule="evenodd" clip-rule="evenodd" width="9.351" height="6.649"/>
	<rect x="95.557" y="65.034" fill-rule="evenodd" clip-rule="evenodd" width="3.176" height="6.649"/>
	<rect x="63.495" y="65.034" fill-rule="evenodd" clip-rule="evenodd" width="3.176" height="6.649"/>
</g>
</svg>
