<?xml version="1.0" encoding="iso-8859-1"?>
<!-- Generator: Adobe Illustrator 15.0.0, SVG Export Plug-In . SVG Version: 6.00 Build 0)  -->
<!DOCTYPE svg PUBLIC "-//W3C//DTD SVG 1.1//EN" "http://www.w3.org/Graphics/SVG/1.1/DTD/svg11.dtd">
<svg version="1.1" id="Layer_1" xmlns="http://www.w3.org/2000/svg" xmlns:xlink="http://www.w3.org/1999/xlink" x="0px" y="0px"
	 width="612px" height="792px" viewBox="0 0 612 792" style="enable-background:new 0 0 612 792;" xml:space="preserve">
<path style="fill:#010101;" d="M277.557,299.172c-34.029,0-61.616,27.587-61.616,61.616s27.586,61.616,61.616,61.616
	c34.03,0,61.616-27.587,61.616-61.616S311.586,299.172,277.557,299.172z M303.777,405.572h-52.374v-10.953h52.374V405.572z
	 M303.777,389.57h-52.374v-10.953h16.588v-41.593h-0.209l-16.446,5.971v-18.401l19.379-8.59h15.503v62.613h17.559V389.57z"/>
<path style="fill:#010101;" d="M235.992,304.879v-14.355h-0.209l-16.446,5.971v-18.401l19.379-8.59h15.503v25.763
	c7.462-2.642,15.482-4.095,23.838-4.095c9.332,0,18.243,1.813,26.426,5.074c-7.714-25.225-31.174-43.574-58.926-43.574
	c-34.029,0-61.616,27.587-61.616,61.616c0,19.187,8.772,36.324,22.522,47.625C206.747,338.493,218.321,317.751,235.992,304.879z"/>
</svg>
