<?xml version="1.0" encoding="utf-8"?>
<!-- Generator: Adobe Illustrator 15.0.0, SVG Export Plug-In . SVG Version: 6.00 Build 0)  -->
<!DOCTYPE svg PUBLIC "-//W3C//DTD SVG 1.1//EN" "http://www.w3.org/Graphics/SVG/1.1/DTD/svg11.dtd">
<svg version="1.1" id="Layer_2" xmlns="http://www.w3.org/2000/svg" xmlns:xlink="http://www.w3.org/1999/xlink" x="0px" y="0px"
	 width="162px" height="148px" viewBox="0 0 162 148" enable-background="new 0 0 162 148" xml:space="preserve">
<g>
	<polygon points="40.984,133.172 59.444,114.713 73.671,128.939 73.671,79.272 24.005,79.272 38.231,93.499 19.771,111.958 	"/>
	<polygon points="19.771,29.545 38.23,48.005 24.004,62.232 73.671,62.232 73.67,12.566 59.444,26.792 40.983,8.332 	"/>
	<polygon points="145.277,111.958 126.817,93.499 141.043,79.272 91.376,79.272 91.377,128.938 105.604,114.711 124.063,133.172 	
		"/>
	<polygon points="124.063,8.332 105.603,26.792 91.376,12.565 91.376,62.232 141.042,62.231 126.816,48.005 145.276,29.545 	"/>
</g>
</svg>
