<?xml version="1.0" encoding="iso-8859-1"?>
<!-- Generator: Adobe Illustrator 15.0.0, SVG Export Plug-In . SVG Version: 6.00 Build 0)  -->
<!DOCTYPE svg PUBLIC "-//W3C//DTD SVG 1.1//EN" "http://www.w3.org/Graphics/SVG/1.1/DTD/svg11.dtd">
<svg version="1.1" xmlns="http://www.w3.org/2000/svg" xmlns:xlink="http://www.w3.org/1999/xlink" x="0px" y="0px" width="300px"
	 height="300px" viewBox="0 0 300 300" style="enable-background:new 0 0 300 300;" xml:space="preserve">
<g id="Layer_1">
	<g>
		<rect x="0.56" y="-0.31" style="fill-rule:evenodd;clip-rule:evenodd;fill:#666666;" width="300" height="300"/>
		<g>
			<g>
				<path style="fill-rule:evenodd;clip-rule:evenodd;fill:#FFFFFF;" d="M33.98,170.49L33.98,170.49c0-1.66,1.35-3.01,3.02-3.01
					h33.95c1.67,0,3.02,1.35,3.02,3.01l0,0c0,1.66-1.35,3.01-3.02,3.01H37C35.33,173.5,33.98,172.15,33.98,170.49z M40.61,165.05
					v-15.34c0-6.04,4.02-11.15,9.53-12.8l0.01-3.08c0-2.12,1.71-3.83,3.82-3.83h0.01c2.1,0,3.82,1.71,3.82,3.83v3.08
					c5.51,1.65,9.53,6.76,9.53,12.8v15.34H40.61z"/>
				<rect x="31.47" y="129.25" style="fill-rule:evenodd;clip-rule:evenodd;fill:none;" width="45" height="45"/>
			</g>
			<g>
				<path style="fill-rule:evenodd;clip-rule:evenodd;fill:#FFFFFF;" d="M84.16,166.74L84.16,166.74c0-1.33,1.08-2.41,2.41-2.41
					h27.16c1.34,0,2.42,1.08,2.42,2.41l0,0c0,1.33-1.08,2.41-2.42,2.41H86.57C85.24,169.15,84.16,168.07,84.16,166.74z
					 M89.46,162.39v-12.27c0-4.83,3.22-8.92,7.63-10.24v-2.47c0-1.69,1.37-3.06,3.06-3.06l0,0c1.69,0,3.06,1.37,3.06,3.06v2.47
					c4.41,1.32,7.63,5.41,7.63,10.24v12.27H89.46z"/>
				<rect x="82.15" y="133.75" style="fill-rule:evenodd;clip-rule:evenodd;fill:none;" width="36" height="36"/>
			</g>
			<g>
				<path style="fill-rule:evenodd;clip-rule:evenodd;fill:#FFFFFF;" d="M125.5,164.24L125.5,164.24c0-1.11,0.9-2,2.01-2h22.64
					c1.11,0,2.01,0.89,2.01,2l0,0c0,1.109-0.9,2.01-2.01,2.01h-22.64C126.4,166.25,125.5,165.35,125.5,164.24z M129.92,160.62
					v-10.23c0-4.02,2.68-7.43,6.36-8.53v-2.06c0-1.41,1.14-2.55,2.55-2.55l0,0c1.41,0,2.55,1.14,2.55,2.55v2.06
					c3.67,1.1,6.36,4.51,6.36,8.53v10.23H129.92z"/>
				<rect x="123.83" y="136.75" style="fill-rule:evenodd;clip-rule:evenodd;fill:none;" width="30" height="30"/>
			</g>
			<g>
				<path style="fill-rule:evenodd;clip-rule:evenodd;fill:#FFFFFF;" d="M160.76,161.12L160.76,161.12c0-0.83,0.681-1.51,1.51-1.51
					h16.98c0.83,0,1.51,0.68,1.51,1.51l0,0c0,0.83-0.68,1.5-1.51,1.5h-16.98C161.44,162.62,160.76,161.95,160.76,161.12z
					 M164.08,158.4v-7.67c0-3.02,2.01-5.58,4.76-6.4l0.01-1.54c0-1.06,0.851-1.92,1.91-1.92l0,0c1.05,0,1.91,0.86,1.91,1.92v1.54
					c2.76,0.82,4.771,3.38,4.771,6.4v7.67H164.08z"/>
				<rect x="159.51" y="140.5" style="fill-rule:evenodd;clip-rule:evenodd;fill:none;" width="22.5" height="22.5"/>
			</g>
			<g>
				<path style="fill-rule:evenodd;clip-rule:evenodd;fill:#FFFFFF;" d="M188.77,159.87L188.77,159.87
					c0-0.72,0.591-1.311,1.311-1.311h14.71c0.72,0,1.31,0.591,1.31,1.311l0,0c0,0.72-0.59,1.3-1.31,1.3h-14.71
					C189.36,161.17,188.77,160.59,188.77,159.87z M191.65,157.51v-6.64c0-2.62,1.739-4.84,4.13-5.55v-1.34
					c0-0.91,0.739-1.66,1.66-1.66l0,0c0.909,0,1.649,0.75,1.649,1.66v1.34c2.391,0.71,4.141,2.93,4.141,5.55v6.64H191.65z"/>
				<rect x="187.69" y="142" style="fill-rule:evenodd;clip-rule:evenodd;fill:none;" width="19.5" height="19.5"/>
			</g>
			<g>
				<path style="fill-rule:evenodd;clip-rule:evenodd;fill:#FFFFFF;" d="M213.87,159.24L213.87,159.24c0-0.66,0.54-1.2,1.2-1.2
					h13.59c0.66,0,1.2,0.54,1.2,1.2l0,0c0,0.67-0.54,1.21-1.2,1.21h-13.59C214.41,160.45,213.87,159.91,213.87,159.24z
					 M216.52,157.07v-6.14c0-2.41,1.61-4.46,3.811-5.12v-1.23c0-0.85,0.689-1.53,1.53-1.53h0.01c0.84,0,1.52,0.68,1.52,1.53v1.23
					c2.21,0.66,3.82,2.71,3.82,5.12v6.14H216.52z"/>
				<rect x="212.86" y="142.75" style="fill-rule:evenodd;clip-rule:evenodd;fill:none;" width="18" height="18"/>
			</g>
			<g>
				<path style="fill-rule:evenodd;clip-rule:evenodd;fill:#FFFFFF;" d="M237.38,158v-0.01c0-0.55,0.45-1,1-1h11.32
					c0.56,0,1.01,0.45,1.01,1V158c0,0.55-0.45,1-1.01,1h-11.32C237.83,159,237.38,158.55,237.38,158z M239.59,156.18v-5.109
					c0-2.01,1.34-3.72,3.18-4.271v-1.03c0-0.7,0.57-1.27,1.271-1.27l0,0c0.71,0,1.28,0.57,1.28,1.27v1.03
					c1.83,0.55,3.18,2.26,3.18,4.271v5.109H239.59z"/>
				<rect x="236.54" y="144.25" style="fill-rule:evenodd;clip-rule:evenodd;fill:none;" width="15" height="15"/>
			</g>
			<g>
				<path style="fill-rule:evenodd;clip-rule:evenodd;fill:#FFFFFF;" d="M257.89,156.75L257.89,156.75c0-0.45,0.36-0.81,0.801-0.81
					h9.06c0.44,0,0.8,0.359,0.8,0.81l0,0c0,0.44-0.359,0.8-0.8,0.8h-9.06C258.25,157.55,257.89,157.19,257.89,156.75z M259.66,155.3
					v-4.09c0-1.62,1.07-2.98,2.54-3.42v-0.82c0-0.56,0.46-1.02,1.02-1.02l0,0c0.561,0,1.021,0.46,1.021,1.02v0.82
					c1.47,0.44,2.54,1.8,2.54,3.42v4.09H259.66z"/>
				<rect x="257.22" y="145.75" style="fill-rule:evenodd;clip-rule:evenodd;fill:none;" width="12" height="12"/>
			</g>
		</g>
	</g>
</g>
<g id="Guides">
</g>
</svg>
