<?xml version="1.0" encoding="iso-8859-1"?>
<!-- Generator: Adobe Illustrator 15.0.0, SVG Export Plug-In . SVG Version: 6.00 Build 0)  -->
<!DOCTYPE svg PUBLIC "-//W3C//DTD SVG 1.1//EN" "http://www.w3.org/Graphics/SVG/1.1/DTD/svg11.dtd">
<svg version="1.1" id="Layer_1" xmlns="http://www.w3.org/2000/svg" xmlns:xlink="http://www.w3.org/1999/xlink" x="0px" y="0px"
	 width="612px" height="792px" viewBox="0 0 612 792" style="enable-background:new 0 0 612 792;" xml:space="preserve">
<polygon points="247,305.595 207,285.595 207,258.262 247,238.262 "/>
<rect x="246.333" y="233.262" width="12.667" height="77.333"/>
<rect x="190" y="264.595" width="17.333" height="14.667"/>
<g>
	<rect x="258" y="244.595" width="27.333" height="14.667"/>
	<rect x="258" y="284.595" width="27.333" height="14.667"/>
</g>
<polygon points="319.333,258.262 280.667,238.928 280.667,233.262 268,233.262 268,241.761 268,244.262 272.333,244.262 
	272.333,258.928 268,258.928 268,284.262 272.333,284.262 272.333,298.928 268,298.928 268,299.262 268,302.095 268,310.595 
	280.667,310.595 280.667,304.929 319.333,285.595 "/>
<rect x="319" y="264.595" width="17.333" height="14.667"/>
</svg>
