<?xml version="1.0" encoding="iso-8859-1"?>
<!-- Generator: Adobe Illustrator 15.0.0, SVG Export Plug-In . SVG Version: 6.00 Build 0)  -->
<!DOCTYPE svg PUBLIC "-//W3C//DTD SVG 1.1//EN" "http://www.w3.org/Graphics/SVG/1.1/DTD/svg11.dtd">
<svg version="1.1" id="Layer_1" xmlns="http://www.w3.org/2000/svg" xmlns:xlink="http://www.w3.org/1999/xlink" x="0px" y="0px"
	 width="612px" height="792px" viewBox="0 0 612 792" style="enable-background:new 0 0 612 792;" xml:space="preserve">
<path style="fill:#010101;" d="M262.545,245.98c-34.029,0-61.616,27.586-61.616,61.616c0,34.03,27.586,61.616,61.616,61.616
	c0.119,0,0.236-0.008,0.354-0.009c-0.627-3.779-0.97-7.653-0.97-11.607c0-10.562,2.345-20.581,6.52-29.585
	c-2.34,1.957-5.447,3.219-9.348,3.763v5.34h-6.535v-5.516c-3.794-0.374-7.109-1.833-9.942-4.375
	c-2.835-2.541-4.251-6.973-4.251-13.297v-2.775h14.193v3.478c0,3.818,0.146,6.189,0.438,7.114c0.294,0.926,1.002,1.389,2.126,1.389
	c0.96,0,1.674-0.322,2.143-0.967c0.468-0.643,0.703-1.597,0.703-2.862c0-3.185-0.224-5.463-0.667-6.834
	c-0.445-1.369-1.967-2.862-4.567-4.479c-4.334-2.716-7.279-4.713-8.836-5.991c-1.558-1.276-2.904-3.074-4.04-5.392
	c-1.136-2.319-1.704-4.941-1.704-7.87c0-4.238,1.2-7.565,3.601-9.978c2.4-2.411,6.002-3.899,10.803-4.462v-4.532h6.535v4.532
	c4.379,0.563,7.659,2.032,9.837,4.41c2.179,2.376,3.268,5.662,3.268,9.854c0,0.587-0.048,1.476-0.141,2.67h-14.194v-2.354
	c0-2.505-0.165-4.146-0.491-4.918c-0.33-0.773-1.032-1.159-2.109-1.159c-0.867,0-1.516,0.334-1.949,1
	c-0.434,0.668-0.65,1.67-0.65,3.004c0,2.226,0.444,3.783,1.335,4.672c0.866,0.892,3.419,2.624,7.659,5.2
	c3.606,2.178,6.066,3.847,7.378,5.007c1.311,1.158,2.418,2.798,3.32,4.919c0.901,2.119,1.352,4.76,1.352,7.921
	c0,1.696-0.149,3.258-0.423,4.709c10.595-16.298,27.726-27.975,47.65-31.283C312.739,263.557,289.703,245.98,262.545,245.98z"/>
<path style="fill:#010101;" d="M332.545,295.98c-34.029,0-61.616,27.586-61.616,61.616c0,34.03,27.586,61.616,61.616,61.616
	c34.03,0,61.616-27.586,61.616-61.616C394.161,323.566,366.575,295.98,332.545,295.98z M344.873,352.917h-29.73
	c-0.314,1.392-0.494,2.833-0.494,4.318c0,1.313,0.135,2.594,0.382,3.836h29.842v6.236h-27.418c3.439,5.736,9.7,9.595,16.861,9.595
	c3.734,0,7.216-1.065,10.193-2.879h0.36v14.506c-3.322,1.128-6.851,1.804-10.553,1.804c-14.739,0-27.254-9.687-31.526-23.026h-8.766
	v-6.236h7.423c-0.146-1.259-0.229-2.538-0.229-3.836c0-1.465,0.105-2.904,0.291-4.318h-7.484v-6.235h8.93
	c4.416-13.09,16.801-22.545,31.362-22.545c3.702,0,7.23,0.677,10.553,1.805v14.504h-0.363c-2.976-1.813-6.457-2.878-10.19-2.878
	c-6.959,0-13.071,3.644-16.568,9.114h27.125V352.917z"/>
<path style="fill:#010101;" d="M344.841,271.371c-5.706-15.482-13.565-19.954-23.852-21.627v7.685
	c5.663,1.044,11.222,3.439,15.839,13.863l-8.751-0.087l12.904,21.122l13.323-20.861L344.841,271.371z"/>
<path style="fill:#010101;" d="M250.745,397.639c5.706,15.482,13.565,19.954,23.852,21.627v-7.685
	c-5.663-1.044-11.222-3.439-15.839-13.863l8.751,0.087l-12.904-21.122l-13.323,20.861L250.745,397.639z"/>
</svg>
