<?xml version="1.0" encoding="iso-8859-1"?>
<!-- Generator: Adobe Illustrator 15.0.0, SVG Export Plug-In . SVG Version: 6.00 Build 0)  -->
<!DOCTYPE svg PUBLIC "-//W3C//DTD SVG 1.1//EN" "http://www.w3.org/Graphics/SVG/1.1/DTD/svg11.dtd">
<svg version="1.1" id="Layer_1" xmlns="http://www.w3.org/2000/svg" xmlns:xlink="http://www.w3.org/1999/xlink" x="0px" y="0px"
	 width="612px" height="792px" viewBox="0 0 612 792" style="enable-background:new 0 0 612 792;" xml:space="preserve">
<rect x="130.504" y="491.988" width="356" height="50.006"/>
<g>
	<path d="M162.757,323.381c-4.847,2.797-10.465,4.405-16.463,4.405c-5.425,0-10.539-1.317-15.053-3.637l-0.737,136.019h103.191
		L162.757,323.381z"/>
	<circle cx="146.294" cy="274.788" r="32.998"/>
</g>
<g>
	<path d="M324.161,323.381c-4.847,2.797-10.465,4.405-16.463,4.405c-5.425,0-10.539-1.317-15.053-3.637l-35.737,136.019H360.1
		L324.161,323.381z"/>
	<circle cx="307.698" cy="274.788" r="32.998"/>
</g>
<g>
	<path d="M486.565,323.381c-4.847,2.797-10.465,4.405-16.463,4.405c-5.425,0-10.539-1.317-15.053-3.637l-71.737,136.019h103.191
		L486.565,323.381z"/>
	<circle cx="470.102" cy="274.788" r="32.998"/>
</g>
</svg>
