<?xml version="1.0" encoding="utf-8"?>
<!-- Generator: Adobe Illustrator 15.0.0, SVG Export Plug-In . SVG Version: 6.00 Build 0)  -->
<!DOCTYPE svg PUBLIC "-//W3C//DTD SVG 1.1//EN" "http://www.w3.org/Graphics/SVG/1.1/DTD/svg11.dtd">
<svg version="1.1" id="Layer_1" xmlns="http://www.w3.org/2000/svg" xmlns:xlink="http://www.w3.org/1999/xlink" x="0px" y="0px"
	 width="283.464px" height="283.464px" viewBox="0 0 283.464 283.464" enable-background="new 0 0 283.464 283.464"
	 xml:space="preserve">
<path fill-rule="evenodd" clip-rule="evenodd" d="M169.567,102.908l7.105-3.106L147.75,88.328l3.923-6.689l-30.143,7.718
	l-0.759-7.718L100.921,105.6l-5.149-5.799l-1.975,31.054l-7.574-1.664l16.655,26.283l-7.106,3.105l28.924,11.475l-3.924,6.689
	l30.144-7.718l0.758,7.718l19.852-23.962l5.148,5.798l1.976-31.054l7.574,1.665L169.567,102.908z M136.223,91.274
	c1.795,0,3.25,1.455,3.25,3.25s-1.455,3.25-3.25,3.25s-3.25-1.455-3.25-3.25S134.428,91.274,136.223,91.274z M109.411,102.379
	c1.27-1.27,3.327-1.27,4.597,0s1.27,3.327,0,4.596c-1.27,1.27-3.327,1.27-4.597,0C108.143,105.707,108.143,103.649,109.411,102.379z
	 M101.556,132.441c-1.795,0-3.25-1.455-3.25-3.25s1.455-3.25,3.25-3.25s3.25,1.455,3.25,3.25S103.351,132.441,101.556,132.441z
	 M114.008,156.002c-1.27,1.269-3.327,1.269-4.597,0c-1.269-1.27-1.269-3.327,0-4.597c1.27-1.27,3.327-1.27,4.597,0
	S115.277,154.733,114.008,156.002z M136.223,167.108c-1.795,0-3.25-1.455-3.25-3.25s1.455-3.25,3.25-3.25s3.25,1.455,3.25,3.25
	S138.018,167.108,136.223,167.108z M136.222,154.857c-14.174,0-25.665-11.491-25.665-25.666s11.491-25.666,25.665-25.666
	c14.176,0,25.667,11.491,25.667,25.666S150.397,154.857,136.222,154.857z M163.034,156.002c-1.27,1.269-3.327,1.269-4.596,0
	c-1.27-1.27-1.27-3.327,0-4.597c1.269-1.27,3.326-1.27,4.596,0S164.304,154.733,163.034,156.002z M163.034,106.975
	c-1.27,1.27-3.327,1.27-4.596,0c-1.27-1.269-1.27-3.326,0-4.596c1.269-1.27,3.326-1.27,4.596,0S164.304,105.707,163.034,106.975z
	 M170.89,132.441c-1.795,0-3.25-1.455-3.25-3.25s1.455-3.25,3.25-3.25s3.25,1.455,3.25,3.25S172.685,132.441,170.89,132.441z"/>
<path fill-rule="evenodd" clip-rule="evenodd" d="M136.223,109.344c-10.962,0-19.848,8.886-19.848,19.847
	c0,10.962,8.886,19.848,19.848,19.848s19.848-8.886,19.848-19.848C156.07,118.229,147.185,109.344,136.223,109.344z
	 M136.222,145.174c-8.827,0-15.983-7.155-15.983-15.982c0-8.828,7.156-15.983,15.983-15.983c8.828,0,15.983,7.155,15.983,15.983
	C152.206,138.019,145.05,145.174,136.222,145.174z"/>
</svg>
