<?xml version="1.0" encoding="iso-8859-1"?>
<!-- Generator: Adobe Illustrator 15.0.0, SVG Export Plug-In . SVG Version: 6.00 Build 0)  -->
<!DOCTYPE svg PUBLIC "-//W3C//DTD SVG 1.1//EN" "http://www.w3.org/Graphics/SVG/1.1/DTD/svg11.dtd">
<svg version="1.1" id="Layer_1" xmlns="http://www.w3.org/2000/svg" xmlns:xlink="http://www.w3.org/1999/xlink" x="0px" y="0px"
	 width="612px" height="792px" viewBox="0 0 612 792" style="enable-background:new 0 0 612 792;" xml:space="preserve">
<path d="M300.917,324.5c-31.204,0-56.5,25.296-56.5,56.5c0,14.756,5.663,28.187,14.926,38.25
	c10.325-11.217,25.126-18.25,41.574-18.25s31.249,7.033,41.574,18.25c9.264-10.063,14.926-23.494,14.926-38.25
	C357.417,349.796,332.121,324.5,300.917,324.5z M330.258,354.822c3.827-2.209,8.719-0.898,10.928,2.928
	c2.209,3.827,0.898,8.719-2.928,10.928c-3.826,2.209-8.719,0.898-10.928-2.928C325.121,361.923,326.432,357.031,330.258,354.822z
	 M254.417,381c0-4.418,3.582-8,8-8s8,3.582,8,8s-3.582,8-8,8S254.417,385.418,254.417,381z M271.575,407.178
	c-3.827,2.209-8.719,0.898-10.928-2.928c-2.209-3.827-0.898-8.719,2.928-10.928c3.826-2.209,8.719-0.898,10.928,2.928
	C276.712,400.077,275.401,404.969,271.575,407.178z M274.503,365.75c-2.209,3.827-7.102,5.137-10.928,2.928
	c-3.827-2.209-5.138-7.102-2.928-10.928c2.209-3.827,7.102-5.137,10.928-2.928C275.401,357.031,276.712,361.923,274.503,365.75z
	 M285.667,354.586c-3.827,2.209-8.719,0.898-10.928-2.928c-2.209-3.827-0.898-8.719,2.928-10.928
	c3.827-2.209,8.719-0.898,10.928,2.928C290.804,347.484,289.493,352.377,285.667,354.586z M292.917,342.5c0-4.418,3.582-8,8-8
	s8,3.582,8,8s-3.582,8-8,8S292.917,346.918,292.917,342.5z M321.342,367.2l-17.813,17.813c-0.789,0.789-2.069,0.789-2.858,0
	l-2.184-2.184c-0.789-0.789-0.789-2.068,0-2.858l17.813-17.813c0.79-0.789,2.069-0.789,2.858,0l2.184,2.184
	C322.131,365.131,322.131,366.41,321.342,367.2z M316.167,354.586c-3.827-2.209-5.137-7.102-2.928-10.928
	c2.209-3.827,7.102-5.138,10.928-2.928c3.827,2.209,5.137,7.102,2.928,10.928C324.885,355.484,319.993,356.795,316.167,354.586z
	 M341.187,404.25c-2.209,3.827-7.102,5.137-10.928,2.928c-3.826-2.209-5.137-7.102-2.928-10.928
	c2.209-3.827,7.102-5.137,10.928-2.928C342.085,395.531,343.396,400.423,341.187,404.25z M339.417,389c-4.418,0-8-3.582-8-8
	s3.582-8,8-8s8,3.582,8,8S343.835,389,339.417,389z"/>
</svg>
