<?xml version="1.0" encoding="iso-8859-1"?>
<!-- Generator: Adobe Illustrator 15.0.0, SVG Export Plug-In . SVG Version: 6.00 Build 0)  -->
<!DOCTYPE svg PUBLIC "-//W3C//DTD SVG 1.1//EN" "http://www.w3.org/Graphics/SVG/1.1/DTD/svg11.dtd">
<svg version="1.1" id="Layer_1" xmlns="http://www.w3.org/2000/svg" xmlns:xlink="http://www.w3.org/1999/xlink" x="0px" y="0px"
	 width="612px" height="792px" viewBox="0 0 612 792" style="enable-background:new 0 0 612 792;" xml:space="preserve">
<path d="M305.247,360.227c17.466,0,31.625,14.159,31.625,31.625s-14.159,31.625-31.625,31.625s-31.625-14.159-31.625-31.625
	S287.781,360.227,305.247,360.227 M305.247,355.227c-20.195,0-36.625,16.43-36.625,36.625s16.43,36.625,36.625,36.625
	s36.625-16.43,36.625-36.625S325.442,355.227,305.247,355.227L305.247,355.227z"/>
<g>
	<path d="M316.382,371.749c0.686,0,1.416,0.038,2.198,0.113c4.75,0.465,10.245,4.816,10.916,13.152v2.773
		c-0.624,7.979-6.647,17.821-24.253,30.168c-17.602-12.347-23.626-22.188-24.247-30.168v-2.773
		c0.668-8.336,6.163-12.687,10.913-13.152c0.78-0.075,1.51-0.113,2.195-0.113c5.491,0,8.125,2.374,11.139,5.965
		C308.261,374.123,310.894,371.749,316.382,371.749"/>
</g>
</svg>
