<?xml version="1.0" encoding="iso-8859-1"?>
<!-- Generator: Adobe Illustrator 15.0.0, SVG Export Plug-In . SVG Version: 6.00 Build 0)  -->
<!DOCTYPE svg PUBLIC "-//W3C//DTD SVG 1.1//EN" "http://www.w3.org/Graphics/SVG/1.1/DTD/svg11.dtd">
<svg version="1.1" id="Layer_1" xmlns="http://www.w3.org/2000/svg" xmlns:xlink="http://www.w3.org/1999/xlink" x="0px" y="0px"
	 width="612px" height="792px" viewBox="0 0 612 792" style="enable-background:new 0 0 612 792;" xml:space="preserve">
<path d="M341.633,335.13h-79.489c-2.706,0-4.898,2.193-4.898,4.898v114.339c0,2.706,2.193,4.898,4.898,4.898h79.489
	c2.706,0,4.898-2.193,4.898-4.898V340.028C346.531,337.323,344.338,335.13,341.633,335.13z M302.735,430.589
	c-6.134-12.7-14.412-24.453-27.395-34.108c11.849-8.726,21.885-19.628,26.947-32.674c7.559,14.333,16.806,24.708,26.149,32.249
	C316.57,403.721,308.733,416.313,302.735,430.589z"/>
</svg>
