<?xml version="1.0" encoding="iso-8859-1"?>
<!-- Generator: Adobe Illustrator 15.0.0, SVG Export Plug-In . SVG Version: 6.00 Build 0)  -->
<!DOCTYPE svg PUBLIC "-//W3C//DTD SVG 1.1//EN" "http://www.w3.org/Graphics/SVG/1.1/DTD/svg11.dtd">
<svg version="1.1" id="Layer_1" xmlns="http://www.w3.org/2000/svg" xmlns:xlink="http://www.w3.org/1999/xlink" x="0px" y="0px"
	 width="612px" height="792px" viewBox="0 0 612 792" style="enable-background:new 0 0 612 792;" xml:space="preserve">
<path style="fill:#010101;" d="M320.892,279.405L161.797,420.645h46.599v142.854h53.57v-95.831H379.82v95.831h53.57V420.645h46.597
	L320.892,279.405z M324.943,358.136c2.1-7.844,8.567-12.921,14.449-11.343c5.882,1.575,8.949,9.205,6.845,17.048
	c-2.099,7.834-8.571,12.922-14.452,11.34C325.908,373.604,322.84,365.969,324.943,358.136z M302.39,346.793
	c5.884-1.578,12.353,3.499,14.452,11.343c2.103,7.833-0.964,15.468-6.841,17.046c-5.885,1.57-12.354-3.506-14.453-11.34
	C293.45,355.998,296.513,348.368,302.39,346.793z M273.788,386.314c-2.1-7.843,0.964-15.475,6.842-17.057
	c5.884-1.567,12.353,3.506,14.452,11.352c2.099,7.836-0.957,15.475-6.841,17.048C282.355,399.228,275.887,394.151,273.788,386.314z
	 M354.222,439.305c-8.059,6.173-21.01,0.069-29.687-0.836c-1.244-0.136-2.453-0.163-3.641-0.159
	c-1.191-0.004-2.396,0.023-3.644,0.159c-8.68,0.905-21.633,7.009-29.682,0.836c-4.008-3.079-9.329-10.223-6.092-18.126
	c2.639-6.434,11.966-8.104,16.396-12.535c9.271-9.283,7.059-24.483,23.024-25.396c15.965,0.914,13.745,16.113,23.017,25.396
	c4.431,4.431,13.756,6.102,16.401,12.535C363.547,429.082,358.225,436.226,354.222,439.305z M367.994,386.307
	c-2.099,7.839-8.566,12.921-14.452,11.35c-5.878-1.585-8.94-9.212-6.837-17.057c2.094-7.837,8.567-12.921,14.449-11.343
	C367.034,370.839,370.097,378.471,367.994,386.307z"/>
</svg>
