<?xml version="1.0" encoding="iso-8859-1"?>
<!-- Generator: Adobe Illustrator 15.0.0, SVG Export Plug-In . SVG Version: 6.00 Build 0)  -->
<!DOCTYPE svg PUBLIC "-//W3C//DTD SVG 1.1//EN" "http://www.w3.org/Graphics/SVG/1.1/DTD/svg11.dtd">
<svg version="1.1" id="Layer_1" xmlns="http://www.w3.org/2000/svg" xmlns:xlink="http://www.w3.org/1999/xlink" x="0px" y="0px"
	 width="612px" height="792px" viewBox="0 0 612 792" style="enable-background:new 0 0 612 792;" xml:space="preserve">
<path style="fill:#010101;" d="M277.871,299.608c-34.029,0-61.616,27.587-61.616,61.616s27.586,61.616,61.616,61.616
	c34.03,0,61.616-27.587,61.616-61.616S311.9,299.608,277.871,299.608z M295.923,390.614c-3.114,3.683-7.784,5.958-14.011,6.826
	v6.826h-8.352v-7.05c-4.85-0.479-9.086-2.342-12.708-5.591c-3.623-3.248-5.434-8.913-5.434-16.997v-3.547h18.142v4.446
	c0,4.88,0.187,7.911,0.561,9.093c0.375,1.183,1.28,1.773,2.717,1.773c1.228,0,2.14-0.411,2.739-1.235
	c0.599-0.823,0.898-2.043,0.898-3.66c0-4.071-0.285-6.982-0.854-8.734c-0.569-1.751-2.515-3.659-5.838-5.725
	c-5.539-3.472-9.303-6.024-11.293-7.656c-1.992-1.632-3.713-3.93-5.165-6.893c-1.453-2.964-2.178-6.317-2.178-10.059
	c0-5.418,1.534-9.669,4.603-12.753c3.068-3.083,7.671-4.984,13.809-5.703v-5.793h8.352v5.793c5.598,0.718,9.789,2.597,12.573,5.635
	c2.784,3.039,4.176,7.238,4.176,12.596c0,0.749-0.06,1.886-0.179,3.413H280.34v-3.009c0-3.203-0.209-5.299-0.628-6.287
	c-0.419-0.988-1.317-1.482-2.694-1.482c-1.108,0-1.939,0.427-2.493,1.28c-0.554,0.854-0.831,2.133-0.831,3.839
	c0,2.845,0.568,4.835,1.706,5.973c1.107,1.138,4.371,3.353,9.79,6.646c4.609,2.784,7.753,4.917,9.43,6.399
	c1.676,1.482,3.09,3.578,4.244,6.286c1.152,2.71,1.729,6.085,1.729,10.126C300.593,381.858,299.036,386.932,295.923,390.614z"/>
</svg>
