<?xml version="1.0" encoding="utf-8"?>
<!-- Generator: Adobe Illustrator 15.0.0, SVG Export Plug-In . SVG Version: 6.00 Build 0)  -->
<!DOCTYPE svg PUBLIC "-//W3C//DTD SVG 1.1//EN" "http://www.w3.org/Graphics/SVG/1.1/DTD/svg11.dtd">
<svg version="1.1" id="Layer_1" xmlns="http://www.w3.org/2000/svg" xmlns:xlink="http://www.w3.org/1999/xlink" x="0px" y="0px"
	 width="162px" height="148px" viewBox="0 0 162 148" enable-background="new 0 0 162 148" xml:space="preserve">
<path fill="#010101" stroke="#010101" d="M94.294,77.867c0,0-6.163-19.972-6-23.127c0,0,3.456-13.49,3-15.781c0.213-0.566,0,0,0,0
	s0.28-0.358,0,0c-0.012-0.021,0.012,0.021,0,0c0.18-0.241-0.257,0.344,0,0c3.156-4.207,5.599-12.115,5.599-12.115l-4.934-1.132
	c-9.627,13.268-22.734,0-22.734,0l-4.771,1.132c0,2.913,5.051,12.115,5.051,12.115c0,2.508,3,15.781,3,15.781
	c0.163,3.155-7,23.127-7,23.127L51,109c3.966,2.184,14.991,1.331,14.991,1.331c2.913-1.213,6.148-1.456,6.148-1.456
	c1.778,0.971,5.258,1.78,6.634,0.323c1.375-1.456,5.661-0.728,5.661-0.728c1.861,0.971,3.642,0.728,4.207,0.647
	c1.472-0.21,4.449-0.972,4.449-0.972s-5.744-2.021,0-0.242s16.76,1.455,16.76,1.455L94.294,77.867z"/>
</svg>
