<?xml version="1.0" encoding="iso-8859-1"?>
<!-- Generator: Adobe Illustrator 15.0.0, SVG Export Plug-In . SVG Version: 6.00 Build 0)  -->
<!DOCTYPE svg PUBLIC "-//W3C//DTD SVG 1.1//EN" "http://www.w3.org/Graphics/SVG/1.1/DTD/svg11.dtd">
<svg version="1.1" id="&#x421;&#x43B;&#x43E;&#x439;_1"
	 xmlns="http://www.w3.org/2000/svg" xmlns:xlink="http://www.w3.org/1999/xlink" x="0px" y="0px" width="600px" height="600px"
	 viewBox="0 0 600 600" style="enable-background:new 0 0 600 600;" xml:space="preserve">
<g>
	<rect x="486.409" y="-123.309" style="fill-rule:evenodd;clip-rule:evenodd;fill:#000003;" width="299.999" height="300"/>
	<g>
		<path style="fill-rule:evenodd;clip-rule:evenodd;fill:#FFFFFF;" d="M512.929,33.251v-2.36c0-0.26,0.21-0.47,0.46-0.47h11.07
			c0.26,0,0.47,0.21,0.47,0.47v2.36c0,0.26-0.21,0.46-0.47,0.46h-11.07C513.139,33.711,512.929,33.511,512.929,33.251
			L512.929,33.251z M522.279,32.151L522.279,32.151v-0.71h-8.511v0.71H522.279L522.279,32.151z M524.019,32.151L524.019,32.151
			v-0.71h-1.149v0.71H524.019L524.019,32.151z M513.269,29.821L513.269,29.821l1.91-2.92h1.29l2.46,2.46l2.45-2.46h1.3l1.9,2.92
			H513.269L513.269,29.821z M518.929,28.611l4.11-4.12h-2.45v-2.7h-3.32v2.7h-2.46L518.929,28.611L518.929,28.611z"/>
		<path style="fill-rule:evenodd;clip-rule:evenodd;fill:#FFFFFF;" d="M531.459,34.621v-2.95c0-0.32,0.26-0.58,0.58-0.58h13.84
			c0.32,0,0.58,0.26,0.58,0.58v2.95c0,0.32-0.26,0.58-0.58,0.58h-13.84C531.719,35.201,531.459,34.941,531.459,34.621
			L531.459,34.621z M543.159,33.251L543.159,33.251v-0.88h-10.65v0.88H543.159L543.159,33.251z M545.329,33.251L545.329,33.251
			v-0.88h-1.44v0.88H545.329L545.329,33.251z M531.889,30.331L531.889,30.331l2.391-3.64h1.609l3.07,3.07l3.07-3.07h1.619l2.38,3.64
			H531.889L531.889,30.331z M538.959,28.821l5.149-5.15h-3.069v-3.37h-4.15v3.37h-3.07L538.959,28.821L538.959,28.821z"/>
		<path style="fill-rule:evenodd;clip-rule:evenodd;fill:#FFFFFF;" d="M552.999,36.001v-3.54c0-0.39,0.31-0.7,0.699-0.7h16.601
			c0.39,0,0.7,0.31,0.7,0.7v3.54c0,0.38-0.311,0.7-0.7,0.7h-16.601C553.309,36.701,552.999,36.381,552.999,36.001L552.999,36.001z
			 M567.029,34.351L567.029,34.351v-1.06h-12.771v1.06H567.029L567.029,34.351z M569.639,34.351L569.639,34.351v-1.06h-1.729v1.06
			H569.639L569.639,34.351z M553.509,30.851L553.509,30.851l2.87-4.37h1.93l3.69,3.69l3.68-3.69h1.94l2.859,4.37H553.509
			L553.509,30.851z M561.999,29.031l6.17-6.17h-3.681v-4.05h-4.979v4.05h-3.69L561.999,29.031L561.999,29.031z"/>
		<path style="fill-rule:evenodd;clip-rule:evenodd;fill:#FFFFFF;" d="M577.528,36.681v-3.83c0-0.42,0.341-0.76,0.761-0.76h17.99
			c0.42,0,0.75,0.34,0.75,0.76v3.83c0,0.42-0.33,0.76-0.75,0.76h-17.99C577.869,37.441,577.528,37.101,577.528,36.681
			L577.528,36.681z M592.739,34.901L592.739,34.901v-1.15h-13.841v1.15H592.739L592.739,34.901z M595.568,34.901L595.568,34.901
			v-1.15h-1.88v1.15H595.568L595.568,34.901z M578.089,31.111L578.089,31.111l3.1-4.74h2.101l3.99,4l3.999-4h2.101l3.1,4.74H578.089
			L578.089,31.111z M587.279,29.141l6.689-6.69h-3.99v-4.39h-5.39v4.39h-4L587.279,29.141L587.279,29.141z"/>
		<path style="fill-rule:evenodd;clip-rule:evenodd;fill:#FFFFFF;" d="M603.569,38.061v-4.42c0-0.49,0.39-0.88,0.869-0.88h20.76
			c0.48,0,0.871,0.39,0.871,0.88v4.42c0,0.48-0.391,0.87-0.871,0.87h-20.76C603.959,38.931,603.569,38.541,603.569,38.061
			L603.569,38.061z M621.109,36.011L621.109,36.011v-1.33h-15.971v1.33H621.109L621.109,36.011z M624.379,36.011L624.379,36.011
			v-1.33h-2.17v1.33H624.379L624.379,36.011z M604.209,31.621L604.209,31.621l3.58-5.46h2.42l4.609,4.61l4.61-4.61h2.42l3.58,5.46
			H604.209L604.209,31.621z M614.818,29.351l7.721-7.72h-4.61v-5.06h-6.22v5.06h-4.61L614.818,29.351L614.818,29.351z"/>
		<path style="fill-rule:evenodd;clip-rule:evenodd;fill:#FFFFFF;" d="M632.608,41.491v-5.89c0-0.65,0.521-1.17,1.16-1.17h27.67
			c0.65,0,1.171,0.52,1.171,1.17v5.89c0,0.65-0.521,1.17-1.171,1.17h-27.67C633.129,42.661,632.608,42.141,632.608,41.491
			L632.608,41.491z M655.989,38.761L655.989,38.761v-1.78h-21.28v1.78H655.989L655.989,38.761z M660.349,38.761L660.349,38.761
			v-1.78h-2.9v1.78H660.349L660.349,38.761z M633.459,32.911L633.459,32.911l4.78-7.28h3.22l6.149,6.15l6.141-6.15h3.229l4.771,7.28
			H633.459L633.459,32.911z M647.608,29.891l10.29-10.3h-6.149v-6.74h-8.29v6.74h-6.15L647.608,29.891L647.608,29.891z"/>
		<path style="fill-rule:evenodd;clip-rule:evenodd;fill:#FFFFFF;" d="M669.139,44.241v-7.07c0-0.78,0.63-1.4,1.4-1.4h33.21
			c0.77,0,1.39,0.62,1.39,1.4v7.07c0,0.77-0.62,1.4-1.39,1.4h-33.21C669.769,45.641,669.139,45.011,669.139,44.241L669.139,44.241z
			 M697.209,40.961L697.209,40.961v-2.13h-25.55v2.13H697.209L697.209,40.961z M702.429,40.961L702.429,40.961v-2.13h-3.47v2.13
			H702.429L702.429,40.961z M670.169,33.951L670.169,33.951l5.729-8.74h3.87l7.37,7.37l7.37-7.37h3.88l5.72,8.74H670.169
			L670.169,33.951z M687.139,30.311l12.35-12.35h-7.369v-8.1h-9.96v8.1h-7.37L687.139,30.311L687.139,30.311z"/>
		<path style="fill-rule:evenodd;clip-rule:evenodd;fill:#FFFFFF;" d="M711.679,48.371v-8.85c0-0.97,0.78-1.75,1.74-1.75h41.51
			c0.97,0,1.75,0.78,1.75,1.75v8.85c0,0.96-0.78,1.74-1.75,1.74h-41.51C712.459,50.111,711.679,49.331,711.679,48.371
			L711.679,48.371z M746.759,44.261L746.759,44.261v-2.66h-31.93v2.66H746.759L746.759,44.261z M753.289,44.261L753.289,44.261
			v-2.66h-4.34v2.66H753.289L753.289,44.261z M712.959,35.491L712.959,35.491l7.16-10.92h4.84l9.22,9.22l9.21-9.22h4.84l7.16,10.92
			H712.959L712.959,35.491z M734.179,30.961l15.44-15.45h-9.221V5.391h-12.439v10.12h-9.22L734.179,30.961L734.179,30.961z"/>
	</g>
</g>
</svg>
