<?xml version="1.0" encoding="iso-8859-1"?>
<!-- Generator: Adobe Illustrator 15.0.0, SVG Export Plug-In . SVG Version: 6.00 Build 0)  -->
<!DOCTYPE svg PUBLIC "-//W3C//DTD SVG 1.1//EN" "http://www.w3.org/Graphics/SVG/1.1/DTD/svg11.dtd">
<svg version="1.1" id="&#x421;&#x43B;&#x43E;&#x439;_1"
	 xmlns="http://www.w3.org/2000/svg" xmlns:xlink="http://www.w3.org/1999/xlink" x="0px" y="0px" width="600px" height="600px"
	 viewBox="0 0 600 600" style="enable-background:new 0 0 600 600;" xml:space="preserve">
<g>
	<rect x="446.479" y="-157.32" style="fill-rule:evenodd;clip-rule:evenodd;fill:#000003;" width="300" height="300"/>
	<g>
		<path style="fill-rule:evenodd;clip-rule:evenodd;fill:#FFFFFF;" d="M465.979,0.55v-2.36c0-0.25,0.21-0.46,0.47-0.46h11.07
			c0.25,0,0.46,0.21,0.46,0.46v2.36c0,0.26-0.21,0.47-0.46,0.47h-11.07C466.189,1.021,465.979,0.811,465.979,0.55L465.979,0.55z
			 M475.34-0.54L475.34-0.54v-0.71h-8.521v0.71H475.34L475.34-0.54z M477.08-0.54L477.08-0.54v-0.71h-1.16v0.71H477.08L477.08-0.54z
			 M466.33-2.88L466.33-2.88l1.899-2.91h1.59v2.24h4.33v-2.24h1.58l1.91,2.91H466.33L466.33-2.88z M470.32-4.02h3.319v-2.7h2.46
			l-4.12-4.12l-4.109,4.12h2.45V-4.02L470.32-4.02z"/>
		<path style="fill-rule:evenodd;clip-rule:evenodd;fill:#FFFFFF;" d="M485.91,1.92v-2.95c0-0.32,0.26-0.58,0.58-0.58h13.84
			c0.319,0,0.58,0.26,0.58,0.58v2.95c0,0.32-0.261,0.58-0.58,0.58h-13.84C486.17,2.5,485.91,2.24,485.91,1.92L485.91,1.92z
			 M497.6,0.55L497.6,0.55v-0.89h-10.64v0.89H497.6L497.6,0.55z M499.779,0.55L499.779,0.55v-0.89h-1.449v0.89H499.779L499.779,0.55
			z M486.34-2.37L486.34-2.37l2.38-3.64h1.99v2.8h5.399v-2.8h1.98l2.39,3.64H486.34L486.34-2.37z M491.34-3.8h4.14v-3.37h3.08
			l-5.149-5.15l-5.15,5.15h3.08V-3.8L491.34-3.8z"/>
		<path style="fill-rule:evenodd;clip-rule:evenodd;fill:#FFFFFF;" d="M508.84,3.28v-3.53c0-0.39,0.31-0.7,0.7-0.7h16.6
			c0.39,0,0.7,0.31,0.7,0.7v3.53c0,0.39-0.311,0.7-0.7,0.7h-16.6C509.149,3.98,508.84,3.67,508.84,3.28L508.84,3.28z M522.87,1.64
			L522.87,1.64V0.58H510.1v1.06H522.87L522.87,1.64z M525.479,1.64L525.479,1.64V0.58h-1.729v1.06H525.479L525.479,1.64z
			 M509.35-1.859L509.35-1.859l2.87-4.371h2.38v3.37h6.48v-3.37h2.38l2.859,4.371H509.35L509.35-1.859z M515.35-3.58h4.98v-4.04
			h3.68l-6.17-6.18l-6.18,6.18h3.689V-3.58L515.35-3.58z"/>
		<path style="fill-rule:evenodd;clip-rule:evenodd;fill:#FFFFFF;" d="M534.77,3.97V0.13c0-0.41,0.34-0.75,0.75-0.75h17.99
			c0.42,0,0.76,0.34,0.76,0.75v3.84c0,0.42-0.34,0.75-0.76,0.75h-17.99C535.109,4.72,534.77,4.39,534.77,3.97L534.77,3.97z
			 M549.97,2.19L549.97,2.19V1.04h-13.84v1.15H549.97L549.97,2.19z M552.8,2.19L552.8,2.19V1.04h-1.88v1.15H552.8L552.8,2.19z
			 M535.319-1.61L535.319-1.61l3.11-4.73H541v3.65h7.029v-3.65h2.58l3.101,4.73H535.319L535.319-1.61z M541.819-3.46h5.391v-4.39h4
			l-6.69-6.69l-6.689,6.69h3.989V-3.46L541.819-3.46z"/>
		<path style="fill-rule:evenodd;clip-rule:evenodd;fill:#FFFFFF;" d="M562.189,5.33V0.91c0-0.48,0.4-0.87,0.88-0.87h20.75
			c0.48,0,0.87,0.39,0.87,0.87v4.42c0,0.49-0.39,0.88-0.87,0.88h-20.75C562.59,6.21,562.189,5.82,562.189,5.33L562.189,5.33z
			 M579.729,3.28L579.729,3.28V1.95h-15.96v1.33H579.729L579.729,3.28z M583,3.28L583,3.28V1.95h-2.17v1.33H583L583,3.28z
			 M562.84-1.1L562.84-1.1l3.58-5.46h2.97v4.21h8.11v-4.21h2.97l3.58,5.46H562.84L562.84-1.1z M570.33-3.24h6.229V-8.3h4.61
			l-7.721-7.72l-7.72,7.72h4.601V-3.24L570.33-3.24z"/>
		<path style="fill-rule:evenodd;clip-rule:evenodd;fill:#FFFFFF;" d="M592.62,8.75v-5.9c0-0.64,0.53-1.16,1.17-1.16h27.67
			c0.64,0,1.16,0.52,1.16,1.16v5.9c0,0.64-0.521,1.16-1.16,1.16h-27.67C593.15,9.91,592.62,9.39,592.62,8.75L592.62,8.75z
			 M616.01,6.01L616.01,6.01V4.23h-21.29v1.78H616.01L616.01,6.01z M620.359,6.01L620.359,6.01V4.23h-2.89v1.78H620.359
			L620.359,6.01z M593.479,0.17L593.479,0.17l4.771-7.291h3.97V-1.5h10.81V-7.12h3.961l4.779,7.291H593.479L593.479,0.17z
			 M603.479-2.69h8.29v-6.74h6.15l-10.301-10.3L597.33-9.43h6.149V-2.69L603.479-2.69z"/>
		<path style="fill-rule:evenodd;clip-rule:evenodd;fill:#FFFFFF;" d="M630.55,11.48V4.4c0-0.77,0.63-1.399,1.399-1.399h33.211
			c0.77,0,1.39,0.63,1.39,1.399v7.081c0,0.77-0.62,1.39-1.39,1.39h-33.211C631.18,12.87,630.55,12.25,630.55,11.48L630.55,11.48z
			 M658.609,8.19L658.609,8.19V6.06h-25.54v2.13H658.609L658.609,8.19z M663.84,8.19L663.84,8.19V6.06h-3.47v2.13H663.84
			L663.84,8.19z M631.58,1.18L631.58,1.18l5.729-8.74h4.75v6.74h12.98v-6.74h4.75l5.729,8.74H631.58L631.58,1.18z M643.569-2.24
			h9.96v-8.1h7.37l-12.35-12.35l-12.351,12.35h7.37V-2.24L643.569-2.24z"/>
		<path style="fill-rule:evenodd;clip-rule:evenodd;fill:#FFFFFF;" d="M674.479,15.58V6.73c0-0.97,0.78-1.75,1.74-1.75h41.52
			c0.96,0,1.74,0.78,1.74,1.75v8.85c0,0.96-0.78,1.74-1.74,1.74h-41.52C675.26,17.32,674.479,16.541,674.479,15.58L674.479,15.58z
			 M709.56,11.47L709.56,11.47v-2.66h-31.93v2.66H709.56L709.56,11.47z M716.09,11.47L716.09,11.47v-2.66h-4.34v2.66H716.09
			L716.09,11.47z M675.76,2.7L675.76,2.7l7.16-10.92h5.949V0.2h16.221v-8.42h5.939l7.16,10.92H675.76L675.76,2.7z M690.76-1.569
			h12.439V-11.7h9.221l-15.44-15.44L681.54-11.7h9.22V-1.569L690.76-1.569z"/>
	</g>
</g>
</svg>
