<?xml version="1.0" encoding="iso-8859-1"?>
<!-- Generator: Adobe Illustrator 15.0.0, SVG Export Plug-In . SVG Version: 6.00 Build 0)  -->
<!DOCTYPE svg PUBLIC "-//W3C//DTD SVG 1.1//EN" "http://www.w3.org/Graphics/SVG/1.1/DTD/svg11.dtd">
<svg version="1.1" id="Layer_1" xmlns="http://www.w3.org/2000/svg" xmlns:xlink="http://www.w3.org/1999/xlink" x="0px" y="0px"
	 width="612px" height="792px" viewBox="0 0 612 792" style="enable-background:new 0 0 612 792;" xml:space="preserve">
<path style="fill:#010101;" d="M317.563,269.543c-70.87,1.703-148.633,131.702-149.238,249.891
	c-0.618,117.917,62.137,166.592,156.181,166.592c94.038,0,150.14-73.84,149.238-159.649
	C472.388,395.816,393.156,267.67,317.563,269.543z M253.604,370.114c2.781-15.096,14.27-30.343,27.196-32.437
	c14.251-2.314,14.711,16.206,10.998,31.283c-4.604,18.653-6.779,25.312-21.415,27.815
	C260.3,398.496,250.135,388.937,253.604,370.114z M405.623,632.723c-34.852,31.094-85.241,38.541-129.943,29.845
	c-5.284-2.175-24.895-1.665-18.135-10.562c20.954,0.044,42.186-1.368,62.307-7.617c51.442-14.901,90.456-60.51,103.226-111.751
	c10.953-51.984,4.603-106.429-11.452-156.679c-0.567-7.844-10.701-18.041-4.13-24.252c6.136,3.84,8.595,12.883,12.378,19.232
	c20.601,45.673,33.717,95.457,33.458,145.79C454.234,559.677,438.167,603.875,405.623,632.723z"/>
</svg>
