<?xml version="1.0" encoding="iso-8859-1"?>
<!-- Generator: Adobe Illustrator 15.0.0, SVG Export Plug-In . SVG Version: 6.00 Build 0)  -->
<!DOCTYPE svg PUBLIC "-//W3C//DTD SVG 1.1//EN" "http://www.w3.org/Graphics/SVG/1.1/DTD/svg11.dtd">
<svg version="1.1" id="Layer_1" xmlns="http://www.w3.org/2000/svg" xmlns:xlink="http://www.w3.org/1999/xlink" x="0px" y="0px"
	 width="612px" height="792px" viewBox="0 0 612 792" style="enable-background:new 0 0 612 792;" xml:space="preserve">
<path style="fill:#010101;" d="M184.784,300.158c-34.029,0-61.616,27.587-61.616,61.616s27.586,61.616,61.616,61.616
	c34.03,0,61.616-27.587,61.616-61.616S218.814,300.158,184.784,300.158z M201.959,356.14h-38.793
	c-0.41,1.816-0.644,3.697-0.644,5.635c0,1.713,0.176,3.385,0.498,5.006h38.939v8.137h-35.776c4.488,7.484,12.657,12.52,22,12.52
	c4.873,0,9.416-1.39,13.3-3.757h0.469v18.928c-4.335,1.473-8.939,2.354-13.77,2.354c-19.232,0-35.562-12.64-41.136-30.045H135.61
	v-8.137h9.686c-0.191-1.643-0.299-3.312-0.299-5.006c0-1.912,0.138-3.789,0.379-5.635h-9.766v-8.136h11.652
	c5.762-17.08,21.922-29.417,40.921-29.417c4.83,0,9.435,0.883,13.77,2.355v18.925h-0.473c-3.883-2.365-8.425-3.755-13.296-3.755
	c-9.081,0-17.056,4.754-21.618,11.892h35.394V356.14z"/>
</svg>
