<?xml version="1.0" encoding="iso-8859-1"?>
<!-- Generator: Adobe Illustrator 15.0.0, SVG Export Plug-In . SVG Version: 6.00 Build 0)  -->
<!DOCTYPE svg PUBLIC "-//W3C//DTD SVG 1.1//EN" "http://www.w3.org/Graphics/SVG/1.1/DTD/svg11.dtd">
<svg version="1.1" id="&#x421;&#x43B;&#x43E;&#x439;_1"
	 xmlns="http://www.w3.org/2000/svg" xmlns:xlink="http://www.w3.org/1999/xlink" x="0px" y="0px" width="600px" height="600px"
	 viewBox="0 0 600 600" style="enable-background:new 0 0 600 600;" xml:space="preserve">
<g>
	<rect x="455.939" y="-155.08" style="fill-rule:evenodd;clip-rule:evenodd;fill:#000003;" width="300" height="300"/>
	<g>
		<path style="fill-rule:evenodd;clip-rule:evenodd;fill:#FFFFFF;" d="M486.899,2.49l-5.399-5.4c-0.23-0.239-0.23-0.62,0-0.85
			l5.399-5.4c0.23-0.24,0.62-0.24,0.851,0l5.399,5.4c0.23,0.23,0.23,0.61,0,0.85l-5.399,5.4C487.52,2.72,487.13,2.72,486.899,2.49
			L486.899,2.49z M488.1-0.28L488.1-0.28c0-0.43-0.35-0.78-0.77-0.78c-0.431,0-0.78,0.35-0.78,0.78c0,0.42,0.35,0.77,0.78,0.77
			C487.75,0.49,488.1,0.14,488.1-0.28L488.1-0.28z M487.819-2.38L487.819-2.38l0.37-3.95c0.01-1.11-1.71-1.12-1.729,0l0.37,3.95
			c0,0.43,0.21,0.77,0.46,0.77h0.069C487.609-1.61,487.819-1.95,487.819-2.38z"/>
		<path style="fill-rule:evenodd;clip-rule:evenodd;fill:#FFFFFF;" d="M507.93,3.94l-6.75-6.74c-0.29-0.3-0.29-0.78,0-1.07
			l6.75-6.75c0.29-0.29,0.771-0.29,1.061,0l6.749,6.75c0.29,0.29,0.29,0.77,0,1.07l-6.749,6.74C508.7,4.24,508.22,4.24,507.93,3.94
			L507.93,3.94z M509.43,0.48L509.43,0.48c0-0.53-0.439-0.97-0.97-0.97s-0.971,0.44-0.971,0.97c0,0.53,0.44,0.97,0.971,0.97
			S509.43,1.01,509.43,0.48L509.43,0.48z M509.08-2.15L509.08-2.15l0.46-4.93c0.02-1.38-2.14-1.39-2.16,0l0.46,4.93
			c0,0.54,0.26,0.98,0.57,0.98h0.1C508.819-1.17,509.08-1.61,509.08-2.15z"/>
		<path style="fill-rule:evenodd;clip-rule:evenodd;fill:#FFFFFF;" d="M531.95,5.4l-8.091-8.1c-0.35-0.35-0.35-0.92,0-1.28
			l8.091-8.09c0.359-0.36,0.93-0.36,1.279,0l8.101,8.09c0.35,0.36,0.35,0.93,0,1.28l-8.101,8.1C532.88,5.75,532.31,5.75,531.95,5.4
			L531.95,5.4z M533.76,1.24L533.76,1.24c0-0.64-0.53-1.16-1.17-1.16s-1.16,0.521-1.16,1.16s0.521,1.16,1.16,1.16
			S533.76,1.88,533.76,1.24L533.76,1.24z M533.33-1.91L533.33-1.91l0.56-5.92c0.021-1.65-2.56-1.67-2.59,0l0.55,5.92
			c0,0.65,0.311,1.17,0.681,1.17h0.119C533.03-0.74,533.33-1.26,533.33-1.91z"/>
		<path style="fill-rule:evenodd;clip-rule:evenodd;fill:#FFFFFF;" d="M558.29,6.13l-8.771-8.77c-0.39-0.39-0.39-1.01,0-1.39
			l8.771-8.77c0.38-0.38,1-0.38,1.38,0l8.77,8.77c0.38,0.38,0.38,1,0,1.39l-8.77,8.77C559.29,6.51,558.67,6.51,558.29,6.13
			L558.29,6.13z M560.239,1.62L560.239,1.62c0-0.69-0.569-1.25-1.26-1.25c-0.689,0-1.26,0.56-1.26,1.25c0,0.7,0.57,1.26,1.26,1.26
			C559.67,2.88,560.239,2.32,560.239,1.62L560.239,1.62z M559.78-1.79L559.78-1.79l0.6-6.41c0.03-1.8-2.771-1.82-2.811,0l0.61,6.41
			c0,0.7,0.33,1.271,0.729,1.271h0.131C559.449-0.52,559.78-1.09,559.78-1.79z"/>
		<path style="fill-rule:evenodd;clip-rule:evenodd;fill:#FFFFFF;" d="M586.81,7.58l-10.12-10.12c-0.439-0.44-0.439-1.16,0-1.6
			l10.12-10.12c0.44-0.44,1.16-0.44,1.601,0l10.119,10.12c0.44,0.44,0.44,1.16,0,1.6L588.41,7.58
			C587.97,8.021,587.25,8.021,586.81,7.58L586.81,7.58z M589.069,2.391L589.069,2.391c0-0.801-0.659-1.45-1.46-1.45
			c-0.8,0-1.449,0.649-1.449,1.45c0,0.8,0.649,1.45,1.449,1.45C588.41,3.84,589.069,3.19,589.069,2.391L589.069,2.391z M588.54-1.55
			L588.54-1.55l0.689-7.4c0.03-2.07-3.2-2.09-3.239,0l0.699,7.4c0,0.81,0.381,1.46,0.851,1.46h0.149
			C588.16-0.09,588.54-0.74,588.54-1.55z"/>
		<path style="fill-rule:evenodd;clip-rule:evenodd;fill:#FFFFFF;" d="M620.43,11.22l-13.49-13.49c-0.59-0.59-0.59-1.55,0-2.13
			l13.49-13.5c0.59-0.58,1.54-0.58,2.13,0l13.5,13.5c0.58,0.58,0.58,1.54,0,2.13l-13.5,13.49
			C621.97,11.81,621.02,11.81,620.43,11.22L620.43,11.22z M623.43,4.3L623.43,4.3c0-1.07-0.86-1.94-1.93-1.94
			c-1.07,0-1.94,0.87-1.94,1.94c0,1.06,0.87,1.93,1.94,1.93C622.569,6.23,623.43,5.36,623.43,4.3L623.43,4.3z M622.729-0.95
			L622.729-0.95l0.931-9.87c0.029-2.76-4.271-2.79-4.32,0l0.92,9.87c0,1.07,0.51,1.94,1.14,1.94h0.19
			C622.22,0.99,622.729,0.121,622.729-0.95z"/>
		<path style="fill-rule:evenodd;clip-rule:evenodd;fill:#FFFFFF;" d="M660.85,14.13L644.66-2.06c-0.7-0.7-0.7-1.85,0-2.56
			l16.189-16.19c0.71-0.7,1.86-0.7,2.561,0L679.6-4.62c0.71,0.71,0.71,1.86,0,2.56L663.41,14.13
			C662.71,14.84,661.56,14.84,660.85,14.13L660.85,14.13z M664.46,5.82L664.46,5.82c0-1.28-1.05-2.32-2.33-2.32
			s-2.32,1.04-2.32,2.32c0,1.28,1.04,2.33,2.32,2.33S664.46,7.1,664.46,5.82L664.46,5.82z M663.609-0.479L663.609-0.479l1.11-11.84
			c0.05-3.31-5.12-3.35-5.18,0l1.11,11.84c0,1.29,0.609,2.34,1.359,2.34h0.24C663,1.86,663.609,0.811,663.609-0.479z"/>
		<path style="fill-rule:evenodd;clip-rule:evenodd;fill:#FFFFFF;" d="M708.67,18.5L688.43-1.74c-0.88-0.88-0.88-2.32,0-3.2
			l20.24-20.24c0.88-0.88,2.31-0.88,3.2,0l20.239,20.24c0.881,0.879,0.881,2.319,0,3.2L711.87,18.5
			C710.979,19.38,709.55,19.38,708.67,18.5L708.67,18.5z M713.17,8.11L713.17,8.11c0-1.6-1.3-2.9-2.9-2.9c-1.6,0-2.91,1.3-2.91,2.9
			s1.311,2.91,2.91,2.91C711.87,11.02,713.17,9.71,713.17,8.11L713.17,8.11z M712.12,0.24L712.12,0.24l1.39-14.81
			c0.05-4.14-6.41-4.18-6.48,0l1.391,14.81c0,1.61,0.76,2.92,1.7,2.92h0.29C711.35,3.16,712.12,1.851,712.12,0.24z"/>
	</g>
</g>
</svg>
