<?xml version="1.0" encoding="iso-8859-1"?>
<!-- Generator: Adobe Illustrator 15.0.0, SVG Export Plug-In . SVG Version: 6.00 Build 0)  -->
<!DOCTYPE svg PUBLIC "-//W3C//DTD SVG 1.1//EN" "http://www.w3.org/Graphics/SVG/1.1/DTD/svg11.dtd">
<svg version="1.1" id="Layer_1" xmlns="http://www.w3.org/2000/svg" xmlns:xlink="http://www.w3.org/1999/xlink" x="0px" y="0px"
	 width="612px" height="792px" viewBox="0 0 612 792" style="enable-background:new 0 0 612 792;" xml:space="preserve">
<polygon points="349.089,394.711 349.089,351.015 305.393,351.015 319.062,364.685 289.981,393.765 306.339,410.123 335.42,381.042 
	"/>
<path d="M319.375,406.986v9.686c0,3.076-2.502,5.578-5.578,5.578h-32.095c-3.076,0-5.578-2.502-5.578-5.578v-32.095
	c0-3.076,2.502-5.578,5.578-5.578h13.144l8.75-8.75h-28.387c-4.32,0-7.834,3.515-7.834,7.834v45.081c0,4.32,3.515,7.834,7.834,7.834
	h45.081c4.32,0,7.834-3.515,7.834-7.834v-24.929L319.375,406.986z"/>
</svg>
