<?xml version="1.0" encoding="iso-8859-1"?>
<!-- Generator: Adobe Illustrator 15.0.0, SVG Export Plug-In . SVG Version: 6.00 Build 0)  -->
<!DOCTYPE svg PUBLIC "-//W3C//DTD SVG 1.1//EN" "http://www.w3.org/Graphics/SVG/1.1/DTD/svg11.dtd">
<svg version="1.1" id="Layer_1" xmlns="http://www.w3.org/2000/svg" xmlns:xlink="http://www.w3.org/1999/xlink" x="0px" y="0px"
	 width="612px" height="792px" viewBox="0 0 612 792" style="enable-background:new 0 0 612 792;" xml:space="preserve">
<path d="M538.432,199.21c-16.01,4.919-70.069,49.572-70.498,49.682l-3.743,29.872c15.028,16.474,39.624,41.76,62.983,58.443
	C498.257,270.282,517.56,244.458,538.432,199.21z"/>
<path d="M211.64,196.364c-55.199-11.133-105.917,74.108-107.603,88.974c17.03,20.893,41.61,33.552,70.087,40.469l0.283-0.34
	c53.496-17.048,63.028-85.053,61.811-98.635S219.75,198,211.64,196.364z M184.813,271.689c-12.168,0-22.029-8.735-22.029-19.505
	c0-10.77,9.86-19.505,22.029-19.505c12.166,0,22.031,8.735,22.031,19.505C206.845,262.954,196.979,271.689,184.813,271.689z"/>
<polygon points="454,271.446 246.667,271.28 250.333,247.946 455,264.946 "/>
<path d="M288.348,274.1c0-32.79,9.377-62.493,24.558-84.089c-26.419,6.198-46.561,38.535-46.561,77.504
	c0,33.963,15.298,62.892,36.718,73.867C293.78,322.216,288.348,299.053,288.348,274.1z"/>
<path d="M328.563,272.69c0-27.289,7.804-52.009,20.438-69.982c-21.987,5.158-38.749,32.07-38.749,64.501
	c0,28.265,12.732,52.34,30.558,61.475C333.083,312.734,328.563,293.457,328.563,272.69z"/>
<path d="M368.782,271.247c0-21.655,6.193-41.271,16.218-55.534c-17.447,4.093-30.749,25.449-30.749,51.185
	c0,22.43,10.104,41.534,24.249,48.783C372.369,303.022,368.782,287.725,368.782,271.247z"/>
<path d="M409.001,269.803c0-16.021,4.582-30.534,11.999-41.085c-12.908,3.028-22.749,18.828-22.749,37.868
	c0,16.594,7.475,30.728,17.94,36.091C411.655,293.312,409.001,281.994,409.001,269.803z"/>
<path d="M436.221,268.359c0-10.388,2.971-19.796,7.779-26.637c-8.369,1.963-14.749,12.207-14.749,24.551
	c0,10.759,4.846,19.922,11.631,23.399C437.941,283.601,436.221,276.263,436.221,268.359z"/>
</svg>
