<?xml version="1.0" encoding="iso-8859-1"?>
<!-- Generator: Adobe Illustrator 15.0.0, SVG Export Plug-In . SVG Version: 6.00 Build 0)  -->
<!DOCTYPE svg PUBLIC "-//W3C//DTD SVG 1.1//EN" "http://www.w3.org/Graphics/SVG/1.1/DTD/svg11.dtd">
<svg version="1.1" id="Layer_1" xmlns="http://www.w3.org/2000/svg" xmlns:xlink="http://www.w3.org/1999/xlink" x="0px" y="0px"
	 width="612px" height="792px" viewBox="0 0 612 792" style="enable-background:new 0 0 612 792;" xml:space="preserve">
<path style="fill:#010101;" d="M358.583,507.141c-20.362,0.31-51.633-1.581-67.912-14.664c-0.107-0.106-0.15-0.224-0.15-0.374
	c0-0.3,0.246-0.545,0.545-0.545l26.054-11.979c0.77,0,1.422-0.641,1.422-1.422c0-0.587-0.278-0.993-0.898-1.303l-14.516-9.927
	c-0.267-0.171-0.459-0.47-0.459-0.813c0-0.267,0.107-0.502,0.278-0.674c0,0,17.679-22.627,55.635-22.284V507.141z M339.936,475.386
	c5.984,0,10.759-4.841,10.759-10.795c0-5.987-4.775-10.829-10.759-10.829c-5.984,0-10.828,4.841-10.828,10.829
	C329.108,470.545,333.951,475.386,339.936,475.386"/>
<path style="fill:#010101;" d="M318.045,438.592c0.116,0.793,0.372,2.543,0.372,2.543c-0.4,3.275-3.382,5.62-6.657,5.218
	c0,0-1.075-0.359-1.746-0.586c-0.667,0.565-17.686,14.753-17.686,14.753l-15.096,12.556c-1.377,1.176-2.211,2.827-2.336,4.628
	c-0.141,1.816,0.442,3.559,1.624,4.904c1.134,1.323,2.679,2.095,4.293,2.292c1.822,0.224,3.733-0.288,5.237-1.564
	c0,0,0.721-0.999,1.284-1.756c-1.193-0.324-4.841-1.274-4.841-1.274l16.137-9.769l-5.911,12.236c-1.561,3.217-3.425,4.4-3.497,4.438
	c-4.804,4.148-12.265,3.609-16.514-1.291c-4.264-4.934-3.691-12.39,1.227-16.653l0.178-0.109l14.445-11.872
	c0,0,17.722-14.668,18.301-15.148c-0.109-0.825-0.315-2.457-0.315-2.457c0.398-3.261,3.392-5.586,6.668-5.184
	c0,0,0.844,0.265,1.454,0.453"/>
</svg>
