<?xml version="1.0" encoding="iso-8859-1"?>
<!-- Generator: Adobe Illustrator 15.0.0, SVG Export Plug-In . SVG Version: 6.00 Build 0)  -->
<!DOCTYPE svg PUBLIC "-//W3C//DTD SVG 1.1//EN" "http://www.w3.org/Graphics/SVG/1.1/DTD/svg11.dtd">
<svg version="1.1" id="Layer_1" xmlns="http://www.w3.org/2000/svg" xmlns:xlink="http://www.w3.org/1999/xlink" x="0px" y="0px"
	 width="612px" height="792px" viewBox="0 0 612 792" style="enable-background:new 0 0 612 792;" xml:space="preserve">
<path d="M357.214,376.935h-15.047v24.498h15.047c1.565,0,2.834-1.269,2.834-2.834V379.77
	C360.048,378.205,358.779,376.935,357.214,376.935z M354.5,397.018h-5.667v-5.667h5.667V397.018z M354.5,387.018h-5.667v-5.667
	h5.667V387.018z"/>
<path d="M262.333,372.018v0.039c-0.063-0.001-0.124-0.015-0.188-0.015c-6.087,0-11.021,7.676-11.021,17.146
	c0,9.47,4.934,17.146,11.021,17.146c0.063,0,0.125-0.013,0.188-0.015v0.032h74.334v-34.333H262.333z M262.146,401.333
	c-2.455,0-6.021-4.731-6.021-12.146c0-7.414,3.566-12.146,6.021-12.146c0.061,0,0.125,0.016,0.188,0.022v24.248
	C262.271,401.317,262.207,401.333,262.146,401.333z M318,394.518h-44.667v-10.667H318V394.518z"/>
</svg>
