<?xml version="1.0" encoding="iso-8859-1"?>
<!-- Generator: Adobe Illustrator 15.0.0, SVG Export Plug-In . SVG Version: 6.00 Build 0)  -->
<!DOCTYPE svg PUBLIC "-//W3C//DTD SVG 1.1//EN" "http://www.w3.org/Graphics/SVG/1.1/DTD/svg11.dtd">
<svg version="1.1" id="&#x421;&#x43B;&#x43E;&#x439;_1"
	 xmlns="http://www.w3.org/2000/svg" xmlns:xlink="http://www.w3.org/1999/xlink" x="0px" y="0px" width="600px" height="600px"
	 viewBox="0 0 600 600" style="enable-background:new 0 0 600 600;" xml:space="preserve">
<g>
	<rect x="457.399" y="-157.229" style="fill-rule:evenodd;clip-rule:evenodd;fill:#000003;" width="300" height="300"/>
	<g>
		<path style="fill-rule:evenodd;clip-rule:evenodd;fill:#FFFFFF;" d="M520.52-6.4l0.521-2.92c-0.99-0.25-1.721-1.15-1.721-2.21
			c0-0.01,0-0.02,0-0.03c0-0.02,0-0.04,0-0.05c0-0.02,0-0.03,0-0.05c0-0.01,0-0.02,0-0.04c0-0.01,0-0.02,0-0.04
			c0-0.01,0-0.02,0-0.04c0-0.01,0-0.03,0-0.04c0-0.01,0-0.03,0-0.04s0-0.03,0-0.04c0-0.011,0-0.03,0-0.041c0-0.02,0-0.03,0-0.04
			c0-0.02,0-0.03,0-0.04c0-0.02,0-0.03,0-0.04c0-0.02,0-0.03,0-0.05c0-0.01,0-0.02,0-0.04c0-0.011,0-0.021,0-0.04
			c0-0.01,0-0.03,0-0.041c0-0.01,0-0.03,0-0.04c0-0.01,0-0.03,0-0.04c0-0.01,0-0.03,0-0.04c0-0.02,0-0.03,0-0.04
			c0-0.021,0-0.03,0-0.04c0-0.02,0-0.03,0-0.04c0-0.02,0-0.03,0-0.05c0-0.01,0-0.02,0-0.04c0-0.01,0-0.02,0-0.04
			c0-0.01,0-0.03,0-0.04s0-0.03,0-0.04s0-0.03,0-0.04s0-0.03,0-0.04c0-0.02,0-0.03,0-0.04c0-0.02,0-0.03,0-0.04
			c0-0.02,0-0.03,0-0.04c0-0.02,0-0.03,0-0.05c0-0.01,0-0.02,0-0.04c0-0.01,0-0.02,0-0.04c0-0.01,0-0.02,0-0.04
			c0-0.01,0-0.03,0-0.04c0-0.01,0-0.03,0-0.04c0-0.01,0-0.03,0-0.04c0-0.02,0-0.03,0-0.04c0-0.02,0-0.03,0-0.04
			c0-0.02,0-0.03,0-0.04c0-0.02,0-0.03,0-0.05c0-0.01,0-0.02,0-0.04c0-0.01,0-0.02,0-0.041c0-0.01,0-0.03,0-0.04
			c0-0.01,0-0.03,0-0.04c0-0.01,0-0.03,0-0.04c0-0.01,0-0.03,0-0.04c0-0.021,0-0.03,0-0.04c0-0.02,0-0.03,0-0.04
			c0-0.02,0-0.03,0-0.04c0-0.02,0-0.03,0-0.05c0-0.01,0-0.02,0-0.04c0-0.01,0-0.02,0-0.04c0-0.01,0-0.021,0-0.04
			c0-0.01,0-0.03,0-0.04c0-0.01,0-0.03,0-0.04s0-0.03,0-0.04s0-0.03,0-0.04c0-0.02,0-0.03,0-0.04c0-0.02,0-0.03,0-0.04
			c0-0.02,0-0.03,0-0.05c0-0.01,0-0.02,0-0.04c0-0.01,0-0.02,0-0.04c0-0.01,0-0.02,0-0.04c0-0.01,0-0.03,0-0.04
			c0-0.01,0-0.03,0-0.04c0-0.01,0-0.03,0-0.04c0-0.01,0-0.03,0-0.04c0-0.02,0-0.03,0-0.04c0-0.021,0-0.03,0-0.04
			c0-0.021,0-0.03,0-0.05c0-0.01,0-0.02,0-0.04c0-0.01,0-0.02,0-0.04c0-0.01,0-0.02,0-0.04c0-0.01,0-0.02,0-0.04
			c0-0.01,0-0.03,0-0.04c0-0.01,0-0.03,0-0.04s0-0.03,0-0.04c0-0.02,0-0.03,0-0.04c0-0.02,0-0.03,0-0.04c0-0.02,0-0.03,0-0.04
			c0-0.02,0-0.03,0-0.05c0-0.01,0-0.021,0-0.04c0-0.01,0-0.02,0-0.04c0-0.01,0-0.02,0-0.04c0-0.01,0-0.03,0-0.04
			c0-0.01,0-0.03,0-0.04s0-0.03,0-0.04c0-0.02,0-0.03,0-0.04c0-0.02,0-0.03,0-0.04c0-0.02,0-0.03,0-0.04c0-0.02,0-0.03,0-0.05
			c0-0.01,0-0.02,0-0.04v-0.01h0.99v3.81h0.88v-3.81h0.84v3.81h0.88v-3.81h0.99v0.01c0,0.02,0,0.03,0,0.04c0,0.02,0,0.03,0,0.05
			c0,0.01,0,0.021,0,0.04c0,0.01,0,0.02,0,0.04c0,0.01,0,0.02,0,0.04c0,0.01,0,0.03,0,0.04s0,0.03,0,0.04c0,0.01,0,0.03,0,0.04
			c0,0.02,0,0.03,0,0.04c0,0.02,0,0.03,0,0.04c0,0.02,0,0.03,0,0.04c0,0.02,0,0.03,0,0.05c0,0.01,0,0.02,0,0.04
			c0,0.01,0,0.02,0,0.04c0,0.01,0,0.02,0,0.04c0,0.01,0,0.03,0,0.04s0,0.03,0,0.04c0,0.01,0,0.03,0,0.04c0,0.021,0,0.03,0,0.04
			c0,0.02,0,0.03,0,0.04c0,0.02,0,0.03,0,0.04c0,0.02,0,0.03,0,0.04c0,0.02,0,0.03,0,0.05c0,0.01,0,0.02,0,0.04
			c0,0.01,0,0.02,0,0.04c0,0.01,0,0.03,0,0.04c0,0.01,0,0.03,0,0.04c0,0.01,0,0.03,0,0.04c0,0.01,0,0.03,0,0.04
			c0,0.02,0,0.03,0,0.04c0,0.02,0,0.03,0,0.04c0,0.02,0,0.03,0,0.04c0,0.02,0,0.03,0,0.05c0,0.01,0,0.02,0,0.04
			c0,0.01,0,0.02,0,0.04c0,0.01,0,0.03,0,0.04s0,0.03,0,0.04s0,0.03,0,0.04c0,0.01,0,0.03,0,0.04c0,0.02,0,0.03,0,0.04
			c0,0.02,0,0.03,0,0.04c0,0.021,0,0.03,0,0.04c0,0.021,0,0.03,0,0.05c0,0.01,0,0.02,0,0.04c0,0.01,0,0.02,0,0.04
			c0,0.01,0,0.02,0,0.04c0,0.01,0,0.03,0,0.04c0,0.01,0,0.03,0,0.04c0,0.01,0,0.03,0,0.04c0,0.01,0,0.03,0,0.04
			c0,0.021,0,0.03,0,0.041c0,0.02,0,0.029,0,0.04c0,0.02,0,0.03,0,0.05c0,0.01,0,0.021,0,0.04c0,0.01,0,0.021,0,0.04
			c0,0.01,0,0.021,0,0.04c0,0.01,0,0.03,0,0.04c0,0.01,0,0.03,0,0.04c0,0.01,0,0.03,0,0.04c0,0.02,0,0.03,0,0.04
			c0,0.02,0,0.03,0,0.04c0,0.02,0,0.03,0,0.04c0,0.02,0,0.03,0,0.05c0,0.01,0,0.02,0,0.04c0,0.01,0,0.02,0,0.04
			c0,0.01,0,0.02,0,0.04c0,0.01,0,0.03,0,0.04s0,0.03,0,0.04s0,0.03,0,0.04s0,0.03,0,0.04c0,0.02,0,0.03,0,0.04
			c0,0.02,0,0.03,0,0.04c0,0.021,0,0.03,0,0.05c0,0.01,0,0.02,0,0.04c0,0.01,0,0.02,0,0.04c0,0.01,0,0.02,0,0.04
			c0,0.01,0,0.03,0,0.04c0,0.01,0,0.03,0,0.04c0,0.01,0,0.03,0,0.04c0,0.01,0,0.03,0,0.041c0,0.02,0,0.029,0,0.04
			c0,0.02,0,0.03,0,0.04c0,0.02,0,0.03,0,0.05c0,0.01,0,0.02,0,0.04c0,0.01,0,0.02,0,0.04c0,0.01,0,0.021,0,0.04
			c0,0.01,0,0.03,0,0.041c0,0.01,0,0.029,0,0.04s0,0.03,0,0.04c0,0.01,0,0.03,0,0.04c0,0.02,0,0.03,0,0.04c0,0.02,0,0.03,0,0.04
			c0,0.02,0,0.03,0,0.04c0,0.02,0,0.03,0,0.05c0,0,0,0.01,0,0.02c0,0.02,0,0.04,0,0.06c0,1.06-0.729,1.96-1.72,2.21l0.53,2.92
			c0.28,1.61-0.21,2.92-1.101,2.92C520.72-3.479,520.229-4.79,520.52-6.4z"/>
		<path style="fill-rule:evenodd;clip-rule:evenodd;fill:#FFFFFF;" d="M539.3-5.63l0.66-3.65c-1.24-0.31-2.15-1.43-2.15-2.77
			c0-0.01,0-0.02,0-0.03c0-0.02,0-0.04,0-0.07c0-0.011,0-0.03,0-0.05s0-0.03,0-0.05c0-0.021,0-0.03,0-0.05s0-0.04,0-0.05
			c0-0.02,0-0.04,0-0.05c0-0.021,0-0.04,0-0.061c0-0.01,0-0.03,0-0.05c0-0.01,0-0.03,0-0.05c0-0.01,0-0.03,0-0.05s0-0.03,0-0.05
			c0-0.02,0-0.029,0-0.05c0-0.02,0-0.03,0-0.05s0-0.04,0-0.05c0-0.02,0-0.04,0-0.06c0-0.01,0-0.03,0-0.05c0-0.01,0-0.03,0-0.05
			c0-0.01,0-0.03,0-0.05c0-0.02,0-0.03,0-0.05s0-0.03,0-0.05s0-0.04,0-0.05c0-0.02,0-0.04,0-0.05c0-0.02,0-0.04,0-0.05
			c0-0.021,0-0.041,0-0.06c0-0.01,0-0.03,0-0.05c0-0.01,0-0.03,0-0.05s0-0.03,0-0.05c0-0.021,0-0.03,0-0.05s0-0.03,0-0.05
			c0-0.021,0-0.04,0-0.05c0-0.021,0-0.041,0-0.06c0-0.01,0-0.03,0-0.05c0-0.01,0-0.03,0-0.05c0-0.01,0-0.03,0-0.05
			c0-0.01,0-0.03,0-0.05s0-0.03,0-0.05c0-0.021,0-0.03,0-0.05s0-0.04,0-0.05c0-0.02,0-0.04,0-0.05c0-0.02,0-0.04,0-0.06
			c0-0.01,0-0.03,0-0.05c0-0.01,0-0.03,0-0.05c0-0.02,0-0.03,0-0.05s0-0.03,0-0.05s0-0.03,0-0.05s0-0.04,0-0.05
			c0-0.02,0-0.04,0-0.05c0-0.02,0-0.04,0-0.06c0-0.01,0-0.03,0-0.05c0-0.01,0-0.03,0-0.05c0-0.01,0-0.03,0-0.05
			c0-0.021,0-0.03,0-0.05s0-0.03,0-0.05c0-0.02,0-0.04,0-0.05c0-0.02,0-0.04,0-0.05c0-0.02,0-0.04,0-0.05c0-0.021,0-0.04,0-0.06
			c0-0.01,0-0.03,0-0.05c0-0.01,0-0.03,0-0.05s0-0.03,0-0.05s0-0.03,0-0.05s0-0.04,0-0.05c0-0.021,0-0.04,0-0.05
			c0-0.02,0-0.04,0-0.05c0-0.02,0-0.04,0-0.06c0-0.01,0-0.03,0-0.05c0-0.01,0-0.03,0-0.05s0-0.03,0-0.05c0-0.02,0-0.029,0-0.05
			c0-0.02,0-0.03,0-0.05s0-0.04,0-0.05c0-0.02,0-0.04,0-0.05c0-0.02,0-0.04,0-0.06c0-0.01,0-0.03,0-0.05c0-0.01,0-0.03,0-0.05
			c0-0.02,0-0.03,0-0.05s0-0.03,0-0.05s0-0.04,0-0.05c0-0.02,0-0.04,0-0.05c0-0.02,0-0.04,0-0.05c0-0.02,0-0.04,0-0.06
			c0-0.01,0-0.03,0-0.05c0-0.01,0-0.03,0-0.05c0-0.01,0-0.03,0-0.05c0-0.021,0-0.03,0-0.05s0-0.03,0-0.05c0-0.02,0-0.04,0-0.05
			c0-0.02,0-0.04,0-0.05c0-0.02,0-0.04,0-0.061c0-0.01,0-0.029,0-0.05c0-0.01,0-0.03,0-0.05c0-0.01,0-0.03,0-0.05s0-0.03,0-0.05
			s0-0.03,0-0.05c0-0.02,0-0.04,0-0.05c0-0.01,0-0.02,0-0.02h1.24v4.76h1.09v-4.76h1.061v4.76h1.09v-4.76h1.239c0,0,0,0.01,0,0.02
			c0,0.01,0,0.03,0,0.05c0,0.021,0,0.03,0,0.05s0,0.03,0,0.05s0,0.04,0,0.05c0,0.02,0,0.04,0,0.05c0,0.021,0,0.04,0,0.05
			c0,0.021,0,0.041,0,0.061c0,0.01,0,0.03,0,0.05c0,0.01,0,0.03,0,0.05c0,0.02,0,0.03,0,0.05s0,0.03,0,0.05c0,0.02,0,0.04,0,0.05
			c0,0.02,0,0.04,0,0.05c0,0.02,0,0.04,0,0.05c0,0.02,0,0.04,0,0.06c0,0.01,0,0.03,0,0.05c0,0.01,0,0.03,0,0.05
			c0,0.01,0,0.03,0,0.05s0,0.03,0,0.05s0,0.03,0,0.05c0,0.02,0,0.041,0,0.05c0,0.02,0,0.04,0,0.05c0,0.02,0,0.04,0,0.06
			c0,0.01,0,0.03,0,0.05c0,0.01,0,0.03,0,0.05s0,0.03,0,0.05c0,0.021,0,0.03,0,0.05c0,0.021,0,0.03,0,0.05s0,0.04,0,0.05
			c0,0.021,0,0.04,0,0.05c0,0.02,0,0.04,0,0.06c0,0.01,0,0.03,0,0.05c0,0.01,0,0.03,0,0.05c0,0.01,0,0.03,0,0.05s0,0.03,0,0.05
			s0,0.03,0,0.05s0,0.04,0,0.05c0,0.02,0,0.04,0,0.05c0,0.02,0,0.04,0,0.06c0,0.01,0,0.03,0,0.05c0,0.01,0,0.03,0,0.05
			c0,0.01,0,0.03,0,0.05c0,0.02,0,0.03,0,0.05s0,0.03,0,0.05c0,0.02,0,0.04,0,0.05c0,0.02,0,0.04,0,0.05c0,0.02,0,0.04,0,0.05
			c0,0.02,0,0.04,0,0.06c0,0.01,0,0.03,0,0.05c0,0.01,0,0.03,0,0.05s0,0.03,0,0.05s0,0.03,0,0.05s0,0.03,0,0.05
			c0,0.021,0,0.04,0,0.05c0,0.02,0,0.04,0,0.05c0,0.02,0,0.04,0,0.06c0,0.01,0,0.03,0,0.05c0,0.01,0,0.03,0,0.05s0,0.03,0,0.05
			c0,0.02,0,0.03,0,0.05s0,0.04,0,0.05c0,0.02,0,0.04,0,0.05c0,0.021,0,0.04,0,0.05c0,0.02,0,0.04,0,0.05c0,0.02,0,0.04,0,0.06
			c0,0.01,0,0.029,0,0.05c0,0.02,0,0.03,0,0.05s0,0.03,0,0.05c0,0.02,0,0.03,0,0.05s0,0.04,0,0.05c0,0.02,0,0.04,0,0.05
			c0,0.02,0,0.04,0,0.06c0,0.01,0,0.03,0,0.05c0,0.01,0,0.03,0,0.05c0,0.01,0,0.03,0,0.05s0,0.03,0,0.05s0,0.03,0,0.05
			c0,0.02,0,0.04,0,0.05c0,0.02,0,0.04,0,0.05c0,0.021,0,0.04,0,0.05c0,0.02,0,0.04,0,0.06c0,0.01,0,0.03,0,0.05s0,0.03,0,0.05
			c0,0.021,0,0.03,0,0.05c0,0.021,0,0.03,0,0.05s0,0.04,0,0.05c0,0.02,0,0.04,0,0.05c0,0.02,0,0.04,0,0.05c0,0.021,0,0.04,0,0.061
			c0,0.01,0,0.03,0,0.05c0,0.01,0,0.03,0,0.05s0,0.03,0,0.05c0,0.02,0,0.03,0,0.05s0,0.04,0,0.05c0,0.01,0,0.02,0,0.03
			c0,0.03,0,0.05,0,0.07c0,1.34-0.92,2.46-2.149,2.77l0.66,3.65c0.359,2.01-0.25,3.65-1.37,3.65S538.939-3.62,539.3-5.63z"/>
		<path style="fill-rule:evenodd;clip-rule:evenodd;fill:#FFFFFF;" d="M559.229-4.86l0.79-4.37c-1.49-0.39-2.58-1.73-2.58-3.33
			c0-0.01,0-0.02,0-0.03c0-0.03,0-0.06,0-0.09c0-0.02,0-0.04,0-0.06s0-0.04,0-0.06s0-0.04,0-0.06c0-0.03,0-0.05,0-0.07
			s0-0.04,0-0.06s0-0.04,0-0.06s0-0.04,0-0.06s0-0.04,0-0.06c0-0.02,0-0.04,0-0.06c0-0.021,0-0.05,0-0.07s0-0.04,0-0.06
			c0-0.02,0-0.04,0-0.06c0-0.02,0-0.04,0-0.06c0-0.021,0-0.04,0-0.061c0-0.02,0-0.04,0-0.06c0-0.02,0-0.04,0-0.06
			c0-0.03,0-0.05,0-0.07c0-0.021,0-0.04,0-0.061c0-0.02,0-0.04,0-0.06c0-0.02,0-0.04,0-0.06s0-0.04,0-0.06s0-0.04,0-0.06
			s0-0.04,0-0.06s0-0.05,0-0.07s0-0.04,0-0.06s0-0.04,0-0.06s0-0.04,0-0.06s0-0.04,0-0.06s0-0.04,0-0.06c0-0.02,0-0.041,0-0.07
			c0-0.02,0-0.04,0-0.06s0-0.04,0-0.06s0-0.04,0-0.06c0-0.021,0-0.041,0-0.06c0-0.021,0-0.04,0-0.06s0-0.04,0-0.06s0-0.04,0-0.06
			s0-0.05,0-0.07c0-0.021,0-0.04,0-0.06s0-0.04,0-0.06s0-0.04,0-0.06s0-0.04,0-0.06s0-0.04,0-0.06s0-0.04,0-0.07
			c0-0.02,0-0.04,0-0.06s0-0.04,0-0.06s0-0.04,0-0.06s0-0.04,0-0.06c0-0.02,0-0.04,0-0.06c0-0.02,0-0.04,0-0.06
			c0-0.02,0-0.04,0-0.07c0-0.02,0-0.04,0-0.06c0-0.02,0-0.04,0-0.06c0-0.02,0-0.04,0-0.06c0-0.02,0-0.04,0-0.06s0-0.04,0-0.061
			c0-0.02,0-0.04,0-0.06s0-0.05,0-0.07c0-0.02,0-0.04,0-0.06s0-0.04,0-0.061c0-0.02,0-0.04,0-0.06c0-0.02,0-0.04,0-0.06
			s0-0.04,0-0.06s0-0.04,0-0.06c0-0.03,0-0.05,0-0.07c0-0.02,0-0.04,0-0.06s0-0.04,0-0.06s0-0.04,0-0.06s0-0.04,0-0.06
			c0-0.02,0-0.04,0-0.06c0-0.02,0-0.041,0-0.06c0-0.02,0-0.05,0-0.07s0-0.04,0-0.06c0-0.02,0-0.04,0-0.06c0-0.021,0-0.041,0-0.06
			c0-0.021,0-0.04,0-0.06s0-0.04,0-0.06s0-0.04,0-0.07c0-0.021,0-0.04,0-0.06c0-0.021,0-0.04,0-0.06s0-0.04,0-0.06s0-0.04,0-0.06
			s0-0.04,0-0.06s0-0.04,0-0.06s0-0.05,0-0.06c0-0.03,0-0.05,0-0.07s0-0.04,0-0.06s0-0.04,0-0.06s0-0.04,0-0.06
			c0-0.02,0-0.04,0-0.06c0-0.02,0-0.04,0-0.06c0-0.021,0-0.04,0-0.07c0-0.02,0-0.04,0-0.06s0-0.04,0-0.06c0-0.01,0-0.01,0-0.02h1.48
			v5.72h1.319v-5.72h1.261v5.72h1.319v-5.72h1.48c0,0.01,0,0.01,0,0.02c0,0.021,0,0.04,0,0.06s0,0.04,0,0.06c0,0.03,0,0.05,0,0.07
			c0,0.02,0,0.04,0,0.06c0,0.021,0,0.04,0,0.06c0,0.021,0,0.04,0,0.06s0,0.04,0,0.06s0,0.04,0,0.06s0,0.04,0,0.07
			c0,0.01,0,0.04,0,0.06s0,0.04,0,0.06s0,0.04,0,0.06s0,0.04,0,0.06s0,0.04,0,0.06s0,0.04,0,0.06c0,0.02,0,0.04,0,0.06
			c0,0.03,0,0.05,0,0.07s0,0.04,0,0.06s0,0.04,0,0.06c0,0.02,0,0.04,0,0.06c0,0.02,0,0.04,0,0.06c0,0.021,0,0.04,0,0.06
			s0,0.05,0,0.07c0,0.02,0,0.04,0,0.06c0,0.02,0,0.04,0,0.06c0,0.021,0,0.04,0,0.06s0,0.04,0,0.06s0,0.04,0,0.06s0,0.04,0,0.06
			c0,0.02,0,0.04,0,0.07c0,0.02,0,0.04,0,0.06s0,0.04,0,0.06s0,0.04,0,0.06c0,0.02,0,0.04,0,0.06c0,0.021,0,0.041,0,0.061
			s0,0.04,0,0.06c0,0.02,0,0.05,0,0.07s0,0.04,0,0.06c0,0.021,0,0.041,0,0.061s0,0.04,0,0.06c0,0.02,0,0.04,0,0.06
			c0,0.02,0,0.041,0,0.06c0,0.02,0,0.04,0,0.06c0,0.03,0,0.05,0,0.07c0,0.02,0,0.04,0,0.06c0,0.02,0,0.04,0,0.06
			c0,0.021,0,0.04,0,0.06s0,0.04,0,0.06s0,0.04,0,0.06s0,0.04,0,0.06c0,0.03,0,0.05,0,0.07s0,0.04,0,0.06s0,0.04,0,0.06
			s0,0.04,0,0.06s0,0.04,0,0.06s0,0.04,0,0.06c0,0.02,0,0.05,0,0.07s0,0.04,0,0.06s0,0.04,0,0.06s0,0.04,0,0.06
			c0,0.02,0,0.04,0,0.06c0,0.02,0,0.04,0,0.06s0,0.04,0,0.06s0,0.04,0,0.06c0,0.03,0,0.05,0,0.07c0,0.02,0,0.04,0,0.06
			s0,0.04,0,0.06s0,0.04,0,0.06s0,0.04,0,0.06s0,0.04,0,0.06s0,0.05,0,0.07s0,0.04,0,0.06s0,0.04,0,0.06s0,0.04,0,0.06
			s0,0.04,0,0.06c0,0.021,0,0.041,0,0.06c0,0.021,0,0.04,0,0.061c0,0.02,0,0.04,0,0.07c0,0.02,0,0.04,0,0.06c0,0.021,0,0.041,0,0.06
			c0,0.021,0,0.04,0,0.061c0,0.02,0,0.04,0,0.06c0,0.021,0,0.041,0,0.06c0,0.02,0,0.04,0,0.06s0,0.05,0,0.07c0,0.02,0,0.04,0,0.06
			c0,0.021,0,0.04,0,0.06s0,0.04,0,0.06s0,0.04,0,0.06s0,0.04,0,0.06s0,0.04,0,0.07c0,0.02,0,0.04,0,0.06s0,0.04,0,0.06
			s0,0.04,0,0.06c0,0.01,0,0.02,0,0.04c0,0.02,0,0.05,0,0.08c0,1.6-1.09,2.95-2.58,3.33l0.79,4.37c0.43,2.42-0.3,4.38-1.64,4.38
			S558.8-2.44,559.229-4.86z"/>
		<path style="fill-rule:evenodd;clip-rule:evenodd;fill:#FFFFFF;" d="M580.149-4.47L581-9.21c-1.6-0.42-2.79-1.87-2.79-3.6
			c0-0.02,0-0.03,0-0.04c0-0.03,0-0.07,0-0.1c0-0.02,0-0.04,0-0.06c0-0.03,0-0.05,0-0.07c0-0.02,0-0.04,0-0.07
			c0-0.021,0-0.04,0-0.061c0-0.03,0-0.05,0-0.07s0-0.04,0-0.07c0-0.02,0-0.04,0-0.06c0-0.03,0-0.05,0-0.07c0-0.021,0-0.04,0-0.07
			c0-0.02,0-0.04,0-0.06c0-0.03,0-0.05,0-0.07s0-0.04,0-0.07c0-0.02,0-0.04,0-0.06c0-0.02,0-0.05,0-0.07s0-0.04,0-0.07
			c0-0.02,0-0.04,0-0.06c0-0.03,0-0.05,0-0.07s0-0.04,0-0.07c0-0.02,0-0.04,0-0.06c0-0.02,0-0.05,0-0.07s0-0.04,0-0.06
			c0-0.03,0-0.05,0-0.07s0-0.05,0-0.07c0-0.021,0-0.04,0-0.07c0-0.02,0-0.04,0-0.06s0-0.05,0-0.07s0-0.04,0-0.06
			c0-0.03,0-0.05,0-0.07c0-0.02,0-0.05,0-0.07s0-0.04,0-0.07c0-0.02,0-0.04,0-0.06s0-0.05,0-0.07s0-0.04,0-0.06
			c0-0.03,0-0.05,0-0.07c0-0.021,0-0.05,0-0.07s0-0.04,0-0.06c0-0.03,0-0.05,0-0.07s0-0.04,0-0.07c0-0.02,0-0.04,0-0.06
			c0-0.03,0-0.05,0-0.07c0-0.021,0-0.041,0-0.07c0-0.02,0-0.04,0-0.06c0-0.03,0-0.05,0-0.07c0-0.021,0-0.04,0-0.07
			c0-0.02,0-0.04,0-0.06c0-0.03,0-0.05,0-0.07s0-0.04,0-0.07c0-0.02,0-0.041,0-0.06c0-0.03,0-0.05,0-0.07c0-0.021,0-0.04,0-0.07
			c0-0.02,0-0.04,0-0.06s0-0.05,0-0.07c0-0.02,0-0.04,0-0.07c0-0.02,0-0.04,0-0.06c0-0.03,0-0.05,0-0.07s0-0.04,0-0.07
			c0-0.02,0-0.04,0-0.06s0-0.05,0-0.07s0-0.04,0-0.06c0-0.03,0-0.05,0-0.07c0-0.021,0-0.05,0-0.07s0-0.04,0-0.07
			c0-0.02,0-0.04,0-0.06c0-0.021,0-0.05,0-0.07c0-0.02,0-0.04,0-0.06c0-0.03,0-0.05,0-0.07s0-0.05,0-0.07s0-0.04,0-0.06
			c0-0.03,0-0.05,0-0.07c0-0.021,0-0.05,0-0.07s0-0.04,0-0.06c0-0.03,0-0.05,0-0.07s0-0.05,0-0.07c0-0.02,0-0.04,0-0.06
			c0-0.03,0-0.05,0-0.07c0-0.021,0-0.04,0-0.07c0-0.02,0-0.04,0-0.06c0-0.03,0-0.05,0-0.07s0-0.05,0-0.07c0-0.02,0-0.04,0-0.06
			c0-0.03,0-0.05,0-0.07s0-0.04,0-0.07c0-0.02,0-0.04,0-0.06c0-0.03,0-0.05,0-0.07c0-0.02,0-0.05,0-0.07s0-0.04,0-0.06
			c0-0.03,0-0.05,0-0.07s0-0.04,0-0.07c0-0.02,0-0.04,0-0.06c0-0.03,0-0.05,0-0.07c0-0.02,0-0.04,0-0.07c0-0.02,0-0.04,0-0.06
			c0-0.03,0-0.05,0-0.07s0-0.04,0-0.07c0,0,0-0.01,0-0.021h1.609v6.2h1.431v-6.2h1.359v6.2h1.431v-6.2h1.6
			c0,0.01,0.01,0.021,0.01,0.021c0,0.03-0.01,0.05-0.01,0.07s0.01,0.04,0.01,0.07c0,0.02-0.01,0.04-0.01,0.06
			c0,0.03,0.01,0.05,0.01,0.07c0,0.02-0.01,0.04-0.01,0.07c0,0.02,0.01,0.04,0.01,0.06c0,0.03-0.01,0.05-0.01,0.07
			s0.01,0.04,0.01,0.07c0,0.02-0.01,0.04-0.01,0.06s0.01,0.05,0.01,0.07c0,0.021-0.01,0.04-0.01,0.07c0,0.02,0.01,0.04,0.01,0.06
			c0,0.03-0.01,0.05-0.01,0.07s0.01,0.04,0.01,0.07c0,0.02-0.01,0.04-0.01,0.06c0,0.021,0.01,0.05,0.01,0.07s-0.01,0.04-0.01,0.07
			c0,0.02,0.01,0.04,0.01,0.06c0,0.03-0.01,0.05-0.01,0.07c0,0.02,0.01,0.04,0.01,0.07c0,0.02-0.01,0.04-0.01,0.06
			c0,0.02,0.01,0.05,0.01,0.07s-0.01,0.04-0.01,0.07c0,0.021,0.01,0.04,0.01,0.06s-0.01,0.05-0.01,0.07c0,0.02,0.01,0.04,0.01,0.07
			c0,0.02-0.01,0.04-0.01,0.06s0.01,0.05,0.01,0.07s-0.01,0.04-0.01,0.07c0,0.02,0.01,0.041,0.01,0.06c0,0.021-0.01,0.05-0.01,0.07
			c0,0.02,0.01,0.04,0.01,0.06c0,0.03-0.01,0.05-0.01,0.07s0.01,0.05,0.01,0.07c0,0.02-0.01,0.04-0.01,0.07
			c0,0.02,0.01,0.04,0.01,0.06s-0.01,0.05-0.01,0.07s0.01,0.04,0.01,0.06c0,0.03-0.01,0.05-0.01,0.07s0.01,0.04,0.01,0.07
			c0,0.02-0.01,0.04-0.01,0.06c0,0.03,0.01,0.05,0.01,0.07c0,0.021-0.01,0.05-0.01,0.07s0.01,0.04,0.01,0.06
			c0,0.03-0.01,0.05-0.01,0.07c0,0.02,0.01,0.04,0.01,0.07c0,0.02-0.01,0.04-0.01,0.06c0,0.03,0.01,0.05,0.01,0.07
			s-0.01,0.04-0.01,0.07c0,0.02,0.01,0.041,0.01,0.06c0,0.03-0.01,0.05-0.01,0.07c0,0.02,0.01,0.04,0.01,0.07
			c0,0.02-0.01,0.04-0.01,0.06c0,0.03,0.01,0.05,0.01,0.07c0,0.02-0.01,0.04-0.01,0.07c0,0.02,0.01,0.04,0.01,0.06
			c0,0.03-0.01,0.05-0.01,0.07s0.01,0.04,0.01,0.07c0,0.02-0.01,0.04-0.01,0.06s0.01,0.05,0.01,0.07c0,0.02-0.01,0.04-0.01,0.07
			c0,0.02,0.01,0.04,0.01,0.06s-0.01,0.05-0.01,0.07s0.01,0.04,0.01,0.06c0,0.03-0.01,0.05-0.01,0.07s0.01,0.05,0.01,0.07
			c0,0.02-0.01,0.04-0.01,0.07c0,0.02,0.01,0.04,0.01,0.06s-0.01,0.05-0.01,0.07s0.01,0.04,0.01,0.06c0,0.03-0.01,0.05-0.01,0.07
			c0,0.02,0.01,0.05,0.01,0.07s-0.01,0.04-0.01,0.07c0,0.02,0.01,0.04,0.01,0.06s-0.01,0.05-0.01,0.07c0,0.02,0.01,0.041,0.01,0.06
			c0,0.03-0.01,0.05-0.01,0.07s0.01,0.04,0.01,0.07c0,0.02-0.01,0.04-0.01,0.06c0,0.03,0.01,0.05,0.01,0.07s-0.01,0.05-0.01,0.07
			c0,0.02,0.01,0.04,0.01,0.06c0,0.03-0.01,0.05-0.01,0.07s0.01,0.04,0.01,0.07c0,0.02-0.01,0.04-0.01,0.06
			c0,0.03,0.01,0.05,0.01,0.07c0,0.02-0.01,0.04-0.01,0.07c0,0.02,0.01,0.04,0.01,0.06c0,0.03-0.01,0.05-0.01,0.07
			s0.01,0.04,0.01,0.07c0,0.021-0.01,0.04-0.01,0.061c0,0.03,0.01,0.05,0.01,0.07c0,0.02-0.01,0.04-0.01,0.07
			c0,0.02,0.01,0.04,0.01,0.06s-0.01,0.03-0.01,0.04c0.01,0.03,0.01,0.06,0.01,0.1c0,1.73-1.189,3.18-2.8,3.6l0.86,4.74
			c0.47,2.61-0.33,4.74-1.78,4.74S579.68-1.859,580.149-4.47z"/>
		<path style="fill-rule:evenodd;clip-rule:evenodd;fill:#FFFFFF;" d="M601.79-3.7l0.989-5.47c-1.85-0.48-3.22-2.16-3.22-4.16
			c0-0.01,0-0.03,0-0.04c0-0.04,0-0.07,0-0.11c0-0.03,0-0.05,0-0.08c0-0.02,0-0.05,0-0.07c0-0.03,0-0.05,0-0.081
			c0-0.03,0-0.05,0-0.08c0-0.02,0-0.05,0-0.07c0-0.03,0-0.05,0-0.08c0-0.03,0-0.05,0-0.08c0-0.021,0-0.05,0-0.08
			c0-0.02,0-0.05,0-0.07c0-0.03,0-0.05,0-0.081c0-0.02,0-0.05,0-0.07c0-0.03,0-0.06,0-0.08c0-0.03,0-0.05,0-0.08
			c0-0.021,0-0.05,0-0.08c0-0.02,0-0.05,0-0.07c0-0.03,0-0.05,0-0.08c0-0.03,0-0.05,0-0.081c0-0.02,0-0.05,0-0.07
			c0-0.03,0-0.05,0-0.08c0-0.03,0-0.05,0-0.08c0-0.021,0-0.05,0-0.07c0-0.03,0-0.05,0-0.08c0-0.03,0-0.05,0-0.08
			c0-0.02,0-0.05,0-0.07c0-0.03,0-0.05,0-0.08c0-0.03,0-0.05,0-0.08c0-0.02,0-0.05,0-0.07c0-0.03,0-0.05,0-0.08
			c0-0.03,0-0.05,0-0.08c0-0.021,0-0.05,0-0.08c0-0.02,0-0.05,0-0.07c0-0.03,0-0.05,0-0.08c0-0.02,0-0.05,0-0.07
			c0-0.03,0-0.06,0-0.08c0-0.03,0-0.05,0-0.08c0-0.02,0-0.05,0-0.08c0-0.02,0-0.05,0-0.07c0-0.03,0-0.05,0-0.08
			c0-0.03,0-0.05,0-0.081c0-0.02,0-0.05,0-0.07c0-0.03,0-0.05,0-0.08s0-0.05,0-0.08c0-0.02,0-0.05,0-0.07c0-0.03,0-0.05,0-0.08
			c0-0.03,0-0.05,0-0.08c0-0.021,0-0.05,0-0.07c0-0.03,0-0.06,0-0.08c0-0.03,0-0.05,0-0.08c0-0.02,0-0.05,0-0.07
			c0-0.03,0-0.06,0-0.08c0-0.03,0-0.05,0-0.08c0-0.021,0-0.05,0-0.08c0-0.021,0-0.05,0-0.07c0-0.03,0-0.05,0-0.08
			c0-0.03,0-0.05,0-0.08c0-0.02,0-0.05,0-0.07c0-0.03,0-0.05,0-0.08c0-0.02,0-0.05,0-0.08c0-0.021,0-0.05,0-0.07
			c0-0.03,0-0.05,0-0.08c0-0.03,0-0.05,0-0.08c0-0.02,0-0.05,0-0.07c0-0.03,0-0.05,0-0.08c0-0.03,0-0.05,0-0.08
			c0-0.02,0-0.05,0-0.07c0-0.03,0-0.05,0-0.08c0-0.03,0-0.05,0-0.08c0-0.02,0-0.05,0-0.07c0-0.03,0-0.06,0-0.08
			c0-0.03,0-0.05,0-0.08c0-0.02,0-0.05,0-0.07c0-0.03,0-0.06,0-0.08c0-0.03,0-0.05,0-0.08c0-0.02,0-0.05,0-0.08
			c0-0.02,0-0.05,0-0.07c0-0.03,0-0.05,0-0.08c0-0.03,0-0.05,0-0.081c0-0.02,0-0.05,0-0.07c0-0.03,0-0.05,0-0.08
			c0-0.02,0-0.05,0-0.08c0-0.02,0-0.05,0-0.07c0-0.03,0-0.05,0-0.08c0-0.03,0-0.05,0-0.08c0-0.021,0-0.05,0-0.07
			c0-0.03,0-0.06,0-0.08c0-0.03,0-0.05,0-0.08c0-0.02,0-0.05,0-0.07c0-0.03,0-0.06,0-0.08c0-0.03,0-0.05,0-0.08
			c0-0.02,0-0.05,0-0.07c0-0.03,0-0.06,0-0.08c0-0.03,0-0.05,0-0.08c0-0.02,0-0.05,0-0.07c0-0.029,0-0.06,0-0.08
			c0-0.01,0-0.02,0-0.03h1.851v7.15h1.649v-7.15h1.58v7.15h1.64v-7.15h1.851c0,0.01,0,0.021,0,0.03c0,0.02,0,0.05,0,0.08
			c0,0.021,0,0.05,0,0.07c0,0.03,0,0.05,0,0.08c0,0.02,0,0.05,0,0.08c0,0.02,0,0.05,0,0.07c0,0.03,0,0.05,0,0.08
			c0,0.02,0,0.05,0,0.08c0,0.02,0,0.05,0,0.07c0,0.03,0,0.05,0,0.08c0,0.02,0,0.05,0,0.08c0,0.02,0,0.05,0,0.07
			c0,0.029,0,0.05,0,0.08c0,0.03,0,0.05,0,0.08c0,0.02,0,0.05,0,0.07c0,0.03,0,0.061,0,0.08c0,0.03,0,0.05,0,0.08
			c0,0.02,0,0.05,0,0.07c0,0.03,0,0.05,0,0.081c0,0.029,0,0.05,0,0.08c0,0.02,0,0.05,0,0.07c0,0.03,0,0.06,0,0.08
			c0,0.03,0,0.05,0,0.08c0,0.02,0,0.05,0,0.08c0,0.02,0,0.05,0,0.07c0,0.03,0,0.05,0,0.08c0,0.02,0,0.05,0,0.08
			c0,0.02,0,0.05,0,0.07c0,0.03,0,0.05,0,0.08c0,0.03,0,0.05,0,0.08c0,0.02,0,0.05,0,0.07c0,0.03,0,0.05,0,0.08
			c0,0.03,0,0.05,0,0.08c0,0.02,0,0.05,0,0.07c0,0.03,0,0.05,0,0.08c0,0.03,0,0.05,0,0.08c0,0.02,0,0.05,0,0.07
			c0,0.03,0,0.06,0,0.08c0,0.03,0,0.05,0,0.08c0,0.02,0,0.05,0,0.07c0,0.03,0,0.05,0,0.08c0,0.03,0,0.05,0,0.08
			c0,0.02,0,0.05,0,0.07c0,0.03,0,0.06,0,0.08c0,0.03,0,0.05,0,0.08c0,0.02,0,0.05,0,0.08c0,0.02,0,0.05,0,0.07
			c0,0.03,0,0.05,0,0.08c0,0.02,0,0.05,0,0.08c0,0.02,0,0.05,0,0.07c0,0.029,0,0.05,0,0.08c0,0.03,0,0.05,0,0.08
			c0,0.02,0,0.05,0,0.07c0,0.03,0,0.05,0,0.08s0,0.05,0,0.08c0,0.02,0,0.05,0,0.07c0,0.03,0,0.05,0,0.081c0,0.029,0,0.05,0,0.08
			c0,0.02,0,0.05,0,0.07c0,0.03,0,0.06,0,0.08c0,0.03,0,0.05,0,0.08c0,0.02,0,0.05,0,0.08c0,0.02,0,0.05,0,0.07
			c0,0.03,0,0.05,0,0.08c0,0.02,0,0.05,0,0.07c0,0.03,0,0.06,0,0.08c0,0.03,0,0.05,0,0.08c0,0.03,0,0.05,0,0.08
			c0,0.02,0,0.05,0,0.07c0,0.03,0,0.05,0,0.08c0,0.03,0,0.05,0,0.08c0,0.02,0,0.05,0,0.07c0,0.03,0,0.05,0,0.08
			c0,0.03,0,0.05,0,0.08c0,0.021,0,0.05,0,0.07c0,0.03,0,0.05,0,0.08c0,0.03,0,0.05,0,0.08c0,0.02,0,0.05,0,0.07
			c0,0.03,0,0.05,0,0.081c0,0.03,0,0.05,0,0.08c0,0.02,0,0.05,0,0.07c0,0.03,0,0.06,0,0.08c0,0.03,0,0.05,0,0.08
			c0,0.02,0,0.05,0,0.08c0,0.02,0,0.05,0,0.07c0,0.03,0,0.05,0,0.081c0,0.02,0,0.05,0,0.07c0,0.03,0,0.06,0,0.08
			c0,0.03,0,0.05,0,0.08c0,0.03,0,0.05,0,0.08c0,0.02,0,0.05,0,0.07c0,0.03,0,0.05,0,0.08c0,0.03,0,0.05,0,0.081
			c0,0.02,0,0.05,0,0.07c0,0.03,0,0.05,0,0.08c0,0.02,0,0.03,0,0.05c0,0.03,0.01,0.07,0.01,0.1c0,2-1.38,3.68-3.229,4.16l0.989,5.47
			c0.54,3.02-0.38,5.47-2.05,5.47C602.17,1.77,601.25-0.68,601.79-3.7z"/>
		<path style="fill-rule:evenodd;clip-rule:evenodd;fill:#FFFFFF;" d="M625.029-1.77l1.311-7.3c-2.47-0.63-4.29-2.87-4.29-5.54
			c0-0.02,0-0.04,0-0.06c0-0.05,0-0.09,0-0.14c0-0.04,0-0.07,0-0.1c0-0.04,0-0.07,0-0.11c0-0.03,0-0.07,0-0.1c0-0.03,0-0.07,0-0.1
			c0-0.04,0-0.07,0-0.1c0-0.04,0-0.07,0-0.11c0-0.03,0-0.07,0-0.1c0-0.03,0-0.07,0-0.1c0-0.04,0-0.07,0-0.1c0-0.04,0-0.07,0-0.11
			c0-0.03,0-0.07,0-0.1c0-0.03,0-0.07,0-0.1c0-0.04,0-0.07,0-0.1c0-0.04,0-0.07,0-0.11c0-0.03,0-0.07,0-0.1c0-0.03,0-0.07,0-0.1
			c0-0.04,0-0.07,0-0.1c0-0.04,0-0.07,0-0.11c0-0.029,0-0.07,0-0.1s0-0.07,0-0.1c0-0.04,0-0.07,0-0.1c0-0.04,0-0.07,0-0.11
			c0-0.03,0-0.07,0-0.1c0-0.03,0-0.07,0-0.1c0-0.04,0-0.07,0-0.1c0-0.04,0-0.07,0-0.11c0-0.03,0-0.07,0-0.1c0-0.03,0-0.07,0-0.1
			c0-0.04,0-0.07,0-0.1c0-0.04,0-0.07,0-0.11c0-0.03,0-0.06,0-0.1c0-0.03,0-0.07,0-0.1c0-0.04,0-0.07,0-0.1c0-0.04,0-0.07,0-0.11
			c0-0.03,0-0.06,0-0.1c0-0.03,0-0.07,0-0.1c0-0.04,0-0.07,0-0.1c0-0.04,0-0.07,0-0.11c0-0.03,0-0.06,0-0.1c0-0.03,0-0.07,0-0.1
			c0-0.04,0-0.07,0-0.1c0-0.04,0-0.07,0-0.11c0-0.03,0-0.06,0-0.1c0-0.03,0-0.07,0-0.1c0-0.041,0-0.07,0-0.101c0-0.04,0-0.07,0-0.11
			c0-0.03,0-0.06,0-0.1c0-0.03,0-0.07,0-0.1c0-0.03,0-0.07,0-0.1c0-0.04,0-0.07,0-0.11c0-0.03,0-0.06,0-0.1c0-0.03,0-0.07,0-0.1
			s0-0.07,0-0.1c0-0.04,0-0.07,0-0.11c0-0.03,0-0.06,0-0.1c0-0.03,0-0.07,0-0.1c0-0.03,0-0.07,0-0.1c0-0.041,0-0.07,0-0.1
			c0-0.04,0-0.07,0-0.11c0-0.03,0-0.06,0-0.1c0-0.03,0-0.07,0-0.1c0-0.04,0-0.07,0-0.11c0-0.03,0-0.06,0-0.1c0-0.03,0-0.07,0-0.1
			s0-0.07,0-0.1c0-0.03,0-0.07,0-0.11c0-0.03,0-0.06,0-0.1c0-0.03,0-0.06,0-0.1c0-0.03,0-0.07,0-0.1c0-0.03,0-0.07,0-0.1
			c0-0.04,0-0.07,0-0.11c0-0.03,0-0.06,0-0.1c0-0.03,0-0.07,0-0.101c0-0.04,0-0.07,0-0.1c0-0.04,0-0.07,0-0.1c0-0.04,0-0.07,0-0.11
			c0-0.029,0-0.07,0-0.1s0-0.07,0-0.11c0-0.03,0-0.06,0-0.1c0-0.03,0-0.06,0-0.1c0-0.03,0-0.07,0-0.1c0-0.03,0-0.07,0-0.1
			c0-0.04,0-0.07,0-0.11c0-0.03,0-0.06,0-0.1c0-0.03,0-0.07,0-0.1c0-0.03,0-0.07,0-0.1c0-0.04,0-0.07,0-0.1c0-0.04,0-0.07,0-0.11
			c0-0.03,0-0.07,0-0.1s0-0.07,0-0.1c0-0.04,0-0.07,0-0.1c0-0.04,0-0.07,0-0.11c0-0.03,0-0.07,0-0.1c0-0.03,0-0.07,0-0.1
			c0-0.02,0-0.03,0-0.04h2.47v9.53h2.19v-9.53h2.109v9.53h2.19v-9.53h2.47c0,0.01,0,0.021,0,0.04c0,0.03,0,0.07,0,0.1
			c0,0.03,0,0.07,0,0.1c0,0.04,0,0.07,0,0.11c0,0.03,0,0.061,0,0.1c0,0.03,0,0.07,0,0.1s0,0.07,0,0.1c0,0.04,0,0.07,0,0.11
			c0,0.03,0,0.06,0,0.1c0,0.03,0,0.07,0,0.1c0,0.03,0,0.07,0,0.1c0,0.04,0,0.07,0,0.1c0,0.04,0,0.07,0,0.11c0,0.03,0,0.07,0,0.1
			c0,0.03,0,0.07,0,0.1c0,0.04,0,0.07,0,0.1c0,0.04,0,0.07,0,0.1c0,0.04,0,0.08,0,0.11s0,0.07,0,0.1c0,0.041,0,0.07,0,0.11
			c0,0.03,0,0.06,0,0.1c0,0.03,0,0.06,0,0.1c0,0.03,0,0.07,0,0.101c0,0.04,0,0.07,0,0.1c0,0.04,0,0.07,0,0.11c0,0.03,0,0.07,0,0.1
			c0,0.03,0,0.07,0,0.1c0,0.04,0,0.07,0,0.1c0,0.04,0,0.07,0,0.1c0,0.04,0,0.08,0,0.11c0,0.03,0,0.07,0,0.1s0,0.07,0,0.1
			c0,0.04,0,0.07,0,0.1c0,0.04,0,0.07,0,0.11c0,0.03,0,0.07,0,0.1c0,0.04,0,0.07,0,0.1c0,0.04,0,0.07,0,0.11c0,0.03,0,0.06,0,0.1
			c0,0.029,0,0.07,0,0.1c0,0.03,0,0.07,0,0.1c0,0.04,0,0.07,0,0.1c0,0.04,0,0.07,0,0.11c0,0.03,0,0.07,0,0.1s0,0.07,0,0.1
			c0,0.04,0,0.07,0,0.1c0,0.04,0,0.07,0,0.11c0,0.03,0,0.07,0,0.1c0,0.03,0,0.07,0,0.1c0,0.04,0,0.07,0,0.1c0,0.04,0,0.07,0,0.11
			c0,0.03,0,0.06,0,0.101c0,0.029,0,0.069,0,0.1c0,0.04,0,0.07,0,0.1c0,0.04,0,0.07,0,0.11c0,0.03,0,0.06,0,0.1c0,0.03,0,0.07,0,0.1
			c0,0.04,0,0.07,0,0.1c0,0.041,0,0.07,0,0.11c0,0.03,0,0.06,0,0.1c0,0.03,0,0.07,0,0.1c0,0.04,0,0.07,0,0.1c0,0.04,0,0.07,0,0.11
			c0,0.03,0,0.06,0,0.1c0,0.03,0,0.07,0,0.1c0,0.04,0,0.07,0,0.1c0,0.04,0,0.07,0,0.11c0,0.03,0,0.06,0,0.1c0,0.03,0,0.07,0,0.1
			c0,0.03,0,0.07,0,0.1c0,0.04,0,0.07,0,0.11c0,0.03,0,0.06,0,0.1c0,0.03,0,0.07,0,0.1c0,0.03,0,0.07,0,0.1c0,0.04,0,0.07,0,0.11
			c0,0.03,0,0.061,0,0.1c0,0.03,0,0.07,0,0.1s0,0.07,0,0.1c0,0.041,0,0.07,0,0.11c0,0.03,0,0.06,0,0.1c0,0.03,0,0.07,0,0.1
			c0,0.03,0,0.07,0,0.1c0,0.04,0,0.07,0,0.11c0,0.03,0,0.06,0,0.1c0,0.03,0,0.07,0,0.1c0,0.03,0,0.07,0,0.1c0,0.04,0,0.07,0,0.11
			c0,0.03,0,0.06,0,0.1c0,0.03,0,0.07,0,0.1c0,0.03,0,0.07,0,0.1c0,0.04,0,0.07,0,0.11c0,0.03,0,0.06,0,0.1c0,0.03,0,0.07,0,0.1
			c0,0.03,0,0.07,0,0.1c0,0.04,0,0.07,0,0.11c0,0.03,0,0.06,0,0.1c0,0.02,0,0.04,0,0.06c0,0.05,0,0.09,0,0.14
			c0,2.67-1.819,4.91-4.29,5.54l1.311,7.3c0.72,4.02-0.5,7.29-2.73,7.29C625.529,5.521,624.31,2.25,625.029-1.77z"/>
		<path style="fill-rule:evenodd;clip-rule:evenodd;fill:#FFFFFF;" d="M650.97-0.229l1.58-8.76c-2.96-0.76-5.15-3.44-5.15-6.64
			c0-0.03,0-0.05,0-0.08c-0.01-0.05-0.01-0.11-0.01-0.17c0-0.04,0-0.08,0-0.12s0-0.08,0-0.13c0-0.04,0-0.08,0-0.12s0-0.08,0-0.121
			c0-0.04,0-0.08,0-0.12s0-0.08,0-0.13c0-0.041,0-0.08,0-0.12s0-0.08,0-0.12c0-0.04,0-0.08,0-0.12c0-0.05,0-0.09,0-0.13
			c0-0.04,0-0.08,0-0.12c0-0.041,0-0.081,0-0.13c0-0.04,0-0.08,0-0.12s0-0.081,0-0.12c0-0.04,0-0.08,0-0.12s0-0.08,0-0.13
			c0-0.04,0-0.08,0-0.12s0-0.08,0-0.12c0-0.04,0-0.08,0-0.12c0-0.05,0-0.09,0-0.13s0-0.08,0-0.12s0-0.08,0-0.12
			c0-0.05,0-0.09,0-0.13c0-0.04,0-0.08,0-0.12c0-0.04,0-0.08,0-0.12s0-0.08,0-0.13c0-0.04,0-0.08,0-0.12s0-0.08,0-0.12
			c0-0.041,0-0.081,0-0.121s0-0.09,0-0.129c0-0.041,0-0.081,0-0.121s0-0.08,0-0.12s0-0.09,0-0.12c0-0.05,0-0.09,0-0.13
			s0-0.08,0-0.12s0-0.08,0-0.12c0-0.05,0-0.09,0-0.13s0-0.08,0-0.12s0-0.08,0-0.12c0-0.04,0-0.08,0-0.13c0-0.04,0-0.08,0-0.12
			c0-0.04,0-0.08,0-0.12s0-0.08,0-0.121c0-0.05,0-0.089,0-0.129s0-0.08,0-0.121c0-0.04,0-0.08,0-0.129c0-0.03,0-0.08,0-0.121
			c0-0.04,0-0.08,0-0.12s0-0.08,0-0.12c0-0.04,0-0.08,0-0.13c0-0.04,0-0.08,0-0.12c0-0.04,0-0.08,0-0.12c0-0.041,0-0.081,0-0.12
			c0-0.04,0-0.08,0-0.13c0-0.04,0-0.081,0-0.12c0-0.04,0-0.08,0-0.12s0-0.08,0-0.13c0-0.04,0-0.08,0-0.12s0-0.08,0-0.12
			c0-0.04,0-0.08,0-0.13c0-0.04,0-0.08,0-0.12s0-0.08,0-0.12c0-0.04,0-0.08,0-0.12s0-0.09,0-0.13c0-0.04,0-0.08,0-0.12
			s0-0.08,0-0.12s0-0.08,0-0.13c0-0.04,0-0.08,0-0.12s0-0.08,0-0.12c0-0.041,0-0.081,0-0.121c0-0.05,0-0.09,0-0.129
			c0-0.041,0-0.081,0-0.121c0-0.04,0-0.08,0-0.12s0-0.09,0-0.13c0-0.04,0-0.08,0-0.12s0-0.08,0-0.12s0-0.08,0-0.12s0-0.09,0-0.13
			s0-0.08,0-0.12s0-0.08,0-0.12c0-0.05,0-0.09,0-0.13s0-0.08,0-0.12c0-0.04,0-0.08,0-0.12s0-0.081,0-0.12c0-0.05,0-0.09,0-0.13
			s0-0.08,0-0.12s0-0.08,0-0.12s0-0.09,0-0.13s0-0.08,0-0.12s0-0.08,0-0.12s0-0.09,0-0.12c0-0.05,0-0.09,0-0.13
			c0-0.04,0-0.08,0-0.12c0-0.041,0-0.08,0-0.13c0-0.01,0-0.03,0-0.04h2.97v11.44h2.631v-11.44h2.529v11.44h2.641v-11.44h2.96
			c0,0.01,0,0.03,0,0.04c0,0.05,0,0.089,0,0.13c0,0.04,0,0.08,0,0.12c0,0.04,0,0.08,0,0.13c0,0.03,0,0.08,0,0.12s0,0.08,0,0.12
			s0,0.08,0,0.12s0,0.09,0,0.13s0,0.08,0,0.12s0,0.08,0,0.12s0,0.08,0,0.13c0,0.04,0,0.08,0,0.12s0,0.08,0,0.12
			c0,0.04,0,0.08,0,0.12s0,0.08,0,0.13c0,0.04,0,0.08,0,0.12s0,0.08,0,0.12s0,0.09,0,0.13s0,0.08,0,0.12s0,0.08,0,0.12
			s0,0.08,0,0.12c0,0.04,0,0.09,0,0.13s0,0.08,0,0.12c0,0.04,0,0.08,0,0.121c0,0.04,0,0.08,0,0.129c0,0.04,0,0.08,0,0.121
			c0,0.04,0,0.08,0,0.12s0,0.08,0,0.12c0,0.05,0,0.09,0,0.13s0,0.08,0,0.12s0,0.08,0,0.12c0,0.041,0,0.09,0,0.13s0,0.08,0,0.12
			c0,0.041,0,0.08,0,0.12s0,0.08,0,0.12c0,0.05,0,0.09,0,0.13c0,0.04,0,0.08,0,0.12s0,0.08,0,0.12c0,0.05,0,0.09,0,0.13
			s0,0.08,0,0.12c0,0.04,0,0.08,0,0.12c0,0.05,0,0.09,0,0.13c0,0.04,0,0.08,0,0.12c0,0.04,0,0.08,0,0.12c0,0.04,0,0.08,0,0.12
			c0,0.05,0,0.09,0,0.13c0,0.04,0,0.08,0,0.12s0,0.08,0,0.12c0,0.041,0,0.09,0,0.121c0,0.05,0,0.09,0,0.129c0,0.041,0,0.081,0,0.121
			s0,0.08,0,0.129c0,0.041,0,0.081,0,0.121s0,0.08,0,0.12c0,0.04,0,0.08,0,0.12c0,0.05,0,0.09,0,0.13c0,0.04,0,0.08,0,0.12
			s0,0.08,0,0.12s0,0.08,0,0.13c0,0.04,0,0.08,0,0.12s0,0.08,0,0.12s0,0.08,0,0.13c0,0.03,0,0.08,0,0.12s0,0.08,0,0.12
			s0,0.08,0,0.121c0,0.04,0,0.089,0,0.129s0,0.08,0,0.121c0,0.04,0,0.08,0,0.12s0,0.08,0,0.12c0,0.05,0,0.09,0,0.13s0,0.08,0,0.12
			c0,0.04,0,0.08,0,0.12c0,0.041,0,0.08,0,0.13c0,0.04,0,0.08,0,0.12s0,0.08,0,0.12s0,0.08,0,0.13c0,0.04,0,0.081,0,0.12
			c0,0.04,0,0.08,0,0.12s0,0.08,0,0.12c0,0.05,0,0.09,0,0.13s0,0.08,0,0.12c0,0.04,0,0.08,0,0.12s0,0.08,0,0.12
			c0,0.05,0,0.09,0,0.13c0,0.04,0,0.08,0,0.12c0,0.04,0,0.08,0,0.13c0,0.04,0,0.08,0,0.12c0,0.04,0,0.08,0,0.12s0,0.08,0,0.12
			c0,0.05,0,0.09,0,0.13s0,0.08,0,0.12c0,0.041,0,0.081,0,0.121s0,0.08,0,0.12c0,0.05,0,0.09,0,0.13s0,0.08,0,0.12
			c0,0.03,0,0.05,0,0.08c0,0.05,0,0.11,0,0.17c0,3.2-2.19,5.88-5.16,6.64l1.58,8.76c0.87,4.83-0.601,8.75-3.28,8.75
			S650.109,4.601,650.97-0.229z"/>
		<path style="fill-rule:evenodd;clip-rule:evenodd;fill:#FFFFFF;" d="M679.5,2.08l1.97-10.94c-3.7-0.95-6.44-4.31-6.44-8.31
			c0-0.03,0-0.06,0-0.09c0-0.07,0-0.15,0-0.22c0-0.05,0-0.1,0-0.15c0-0.05,0-0.1,0-0.16c0-0.05,0-0.1,0-0.149c0-0.05,0-0.101,0-0.15
			s0-0.11,0-0.15c0-0.06,0-0.11,0-0.16s0-0.1,0-0.15s0-0.11,0-0.16c0-0.05,0-0.1,0-0.15c0-0.05,0-0.1,0-0.15c0-0.06,0-0.11,0-0.16
			c0-0.05,0-0.1,0-0.149c0-0.05,0-0.11,0-0.161c0-0.05,0-0.1,0-0.15c0-0.05,0-0.1,0-0.15c0-0.05,0-0.11,0-0.16c0-0.05,0-0.1,0-0.15
			c0-0.05,0-0.1,0-0.16c0-0.05,0-0.1,0-0.15c0-0.05,0-0.1,0-0.15c0-0.05,0-0.1,0-0.15c0-0.05,0-0.11,0-0.16s0-0.1,0-0.15
			c0-0.05,0-0.1,0-0.16c0-0.05,0-0.1,0-0.15s0-0.1,0-0.15c0-0.05,0-0.11,0-0.16c0-0.05,0-0.1,0-0.15c0-0.05,0-0.1,0-0.15
			c0-0.06,0-0.11,0-0.16c0-0.05,0-0.1,0-0.15s0-0.1,0-0.16c0-0.05,0-0.101,0-0.15c0-0.05,0-0.1,0-0.15c0-0.05,0-0.11,0-0.16
			c0-0.05,0-0.1,0-0.15s0-0.1,0-0.15c0-0.05,0-0.1,0-0.16c0-0.05,0-0.1,0-0.15s0-0.1,0-0.16c0-0.05,0-0.1,0-0.15s0-0.1,0-0.15
			c0-0.05,0-0.1,0-0.15c0-0.06,0-0.11,0-0.16c0-0.05,0-0.1,0-0.15c0-0.05,0-0.11,0-0.16c0-0.05,0-0.1,0-0.15s0-0.1,0-0.15
			c0-0.06,0-0.11,0-0.16c0-0.05,0-0.1,0-0.15s0-0.1,0-0.16c0-0.05,0-0.1,0-0.15s0-0.1,0-0.15c0-0.05,0-0.1,0-0.16
			c0-0.05,0-0.1,0-0.15s0-0.1,0-0.16c0-0.04,0-0.1,0-0.15c0-0.05,0-0.1,0-0.15s0-0.1,0-0.15c0-0.05,0-0.11,0-0.16s0-0.1,0-0.15
			c0-0.049,0-0.1,0-0.16c0-0.05,0-0.1,0-0.15c0-0.05,0-0.1,0-0.15c0-0.05,0-0.11,0-0.16s0-0.1,0-0.15s0-0.1,0-0.15
			c0-0.06,0-0.11,0-0.16s0-0.1,0-0.15c0-0.05,0-0.1,0-0.16c0-0.05,0-0.1,0-0.15c0-0.05,0-0.1,0-0.15c0-0.05,0-0.1,0-0.16
			c0-0.05,0-0.1,0-0.15c0-0.05,0-0.1,0-0.15c0-0.05,0-0.1,0-0.16c0-0.05,0-0.1,0-0.15c0-0.05,0-0.1,0-0.16c0-0.04,0-0.1,0-0.15
			c0-0.05,0-0.1,0-0.149c0-0.05,0-0.101,0-0.15c0-0.06,0-0.11,0-0.16c0-0.05,0-0.1,0-0.15c0-0.05,0-0.1,0-0.16c0-0.05,0-0.1,0-0.15
			c0-0.05,0-0.1,0-0.15c0-0.061,0-0.11,0-0.16s0-0.1,0-0.15c0-0.05,0-0.1,0-0.149c0-0.061,0-0.11,0-0.161c0-0.05,0-0.1,0-0.15
			c0-0.05,0-0.1,0-0.16c0-0.05,0-0.1,0-0.15c0-0.05,0-0.1,0-0.15c0-0.02,0-0.04,0-0.06h3.71v14.3h3.29v-14.3h3.16v14.3h3.29v-14.3
			h3.7c0,0.02,0,0.04,0,0.06c0,0.05,0,0.1,0,0.15c0,0.05,0,0.1,0,0.15c0,0.06,0,0.11,0,0.16c0,0.05,0,0.1,0,0.15
			c0,0.05,0,0.1,0,0.161c0,0.05,0,0.1,0,0.149c0,0.05,0,0.101,0,0.15s0,0.1,0,0.16c0,0.05,0,0.1,0,0.15c0,0.05,0,0.1,0,0.15
			c0,0.06,0,0.11,0,0.16c0,0.05,0,0.1,0,0.15c0,0.05,0,0.1,0,0.16c0,0.05,0,0.1,0,0.15c0,0.05,0,0.1,0,0.149c0,0.05,0,0.11,0,0.15
			c0,0.06,0,0.11,0,0.16c0,0.05,0,0.1,0,0.15c0,0.06,0,0.11,0,0.16c0,0.05,0,0.1,0,0.15c0,0.05,0,0.1,0,0.15c0,0.06,0,0.11,0,0.16
			c0,0.05,0,0.1,0,0.15c0,0.05,0,0.1,0,0.15c0,0.06,0,0.11,0,0.16c0,0.05,0,0.1,0,0.15s0,0.1,0,0.16c0,0.05,0,0.1,0,0.15
			s0,0.1,0,0.15s0,0.11,0,0.16c0,0.05,0,0.1,0,0.15c0,0.05,0,0.1,0,0.15c0,0.06,0,0.11,0,0.16c0,0.05,0,0.1,0,0.15s0,0.11,0,0.16
			c0,0.05,0,0.1,0,0.15s0,0.1,0,0.15c0,0.05,0,0.11,0,0.15c0,0.06,0,0.11,0,0.16s0,0.1,0,0.15c0,0.06,0,0.11,0,0.16
			c0,0.05,0,0.1,0,0.15s0,0.1,0,0.15c0,0.06,0,0.11,0,0.16s0,0.1,0,0.15c0,0.05,0,0.1,0,0.16c0,0.05,0,0.1,0,0.15s0,0.1,0,0.15
			c0,0.05,0,0.11,0,0.16c0,0.05,0,0.1,0,0.15c0,0.05,0,0.1,0,0.16c0,0.05,0,0.1,0,0.15c0,0.05,0,0.1,0,0.15s0,0.1,0,0.15
			c0,0.06,0,0.11,0,0.16s0,0.1,0,0.15c0,0.06,0,0.11,0,0.16c0,0.05,0,0.1,0,0.15s0,0.1,0,0.15c0,0.05,0,0.11,0,0.16
			c0,0.05,0,0.1,0,0.15c0,0.05,0,0.1,0,0.15c0,0.06,0,0.109,0,0.16s0,0.1,0,0.15c0,0.05,0,0.1,0,0.16c0,0.05,0,0.1,0,0.15
			c0,0.05,0,0.1,0,0.15c0,0.05,0,0.11,0,0.16c0,0.05,0,0.1,0,0.15s0,0.1,0,0.15c0,0.06,0,0.11,0,0.16c0,0.05,0,0.1,0,0.15
			s0,0.11,0,0.16c0,0.05,0,0.1,0,0.15c0,0.05,0,0.1,0,0.15c0,0.05,0,0.1,0,0.15c0,0.06,0,0.11,0,0.16c0,0.05,0,0.1,0,0.15
			c0,0.05,0,0.11,0,0.16c0,0.05,0,0.1,0,0.15c0,0.05,0,0.1,0,0.15c0,0.05,0,0.11,0,0.161c0,0.05,0,0.1,0,0.149c0,0.05,0,0.1,0,0.16
			c0,0.05,0,0.1,0,0.15c0,0.05,0,0.1,0,0.15c0,0.05,0,0.11,0,0.16s0,0.1,0,0.15s0,0.1,0,0.16c0,0.04,0,0.1,0,0.15s0,0.1,0,0.15
			c0,0.05,0,0.1,0,0.149c0,0.061,0,0.11,0,0.16c0,0.05,0,0.1,0,0.15c0,0.03,0,0.06,0,0.1c0,0.07,0.01,0.14,0.01,0.21
			c0,4-2.75,7.36-6.45,8.31l1.971,10.94c1.08,6.04-0.75,10.94-4.101,10.94C680.26,13.021,678.42,8.12,679.5,2.08z"/>
	</g>
</g>
</svg>
