<?xml version="1.0" encoding="iso-8859-1"?>
<!-- Generator: Adobe Illustrator 15.0.0, SVG Export Plug-In . SVG Version: 6.00 Build 0)  -->
<!DOCTYPE svg PUBLIC "-//W3C//DTD SVG 1.1//EN" "http://www.w3.org/Graphics/SVG/1.1/DTD/svg11.dtd">
<svg version="1.1" id="Layer_1" xmlns="http://www.w3.org/2000/svg" xmlns:xlink="http://www.w3.org/1999/xlink" x="0px" y="0px"
	 width="612px" height="792px" viewBox="0 0 612 792" style="enable-background:new 0 0 612 792;" xml:space="preserve">
<path d="M242.127,451.374c3.791,2.944,7.158,6.312,10.102,10.102c-9.108,8.514-1.739,16.352,4.456,22.459h104.563
	c-3.175-10.922-9.666-21.958-9.008-29.53c0.958-11.03,18.627-16.743,24.245-29.296c3.438-7.683,3.149-13.803,2.021-25.255
	c16.589-9.188,37.609-22.802,34.347-47.48c-2.069-15.653-14.976-26.662-28.285-33.337c5.288,11.231,6.359,17.204,4.04,30.306
	c-5.061,2.297-10.31,7.578-18.184,6.062c-7.654-1.475-15.657-15.695-29.296-19.194c-16.935-4.344-30.172,2.355-42.429,3.031
	c-10.762-13.862,8.418-30.306,7.071-30.306c-19.281,11.459-53.019,30.488-36.367,61.623c-3.67,8.801-2.438,16.282-6.062,23.235
	c-3.34,6.411-10.174,9.168-11.112,16.164c-3.652,27.242,30.372,29.398,45.459,43.439c0.717,7.115-1.149,11.646-5.051,14.143
	c-8.381,1.285-9.599-6.42-17.173-3.03c0.612-3.092,2.145-5.264,3.031-8.082c-3.329-21.015-24.741,0.493-29.296-12.122
	c6.718-18.309-7.712-29.857-20.204-35.357c-1.188,4.579,5.92,9.553,6.062,16.163c2.147,3.599,3.762-4.457,6.061-1.01
	c2.572,3.24,4.333,10.082,2.021,15.153c-4.668-3.208-19.344-5.163-12.123-11.112c-5.048-2.023-11.312-2.832-16.163-5.051
	c1.207,5.527,4.854,8.615,6.061,14.143c4.56-2.515,13.33,5.346,13.133,10.102c-4.14,2.932-12.305,1.838-19.194,2.021
	c-2.498-2.617,2.18-3.756,2.02-7.071c-6.642,0.244-12.749-0.047-18.184-1.01c0,0.336,0,0.673,0,1.01
	C204.644,455.147,229.983,465.359,242.127,451.374z M284.556,377.628c-1.534-0.361-2.534-0.527-4.041,0
	c-6.566,2.189-8.304,9.206-9.092,17.173c-1.254-19.777,10.291-35.503,27.276-40.408c-1.491,10.968-7.126,17.792-9.092,28.286
	C287.751,381.167,287.088,378.463,284.556,377.628z M296.678,383.689c1.916-6.476,5.91-18.71,12.123-22.225
	c25.619-14.491,29.339,66.828-6.061,52.531c6.396-6.322,13.469-26.194,1.01-31.316C302.355,382.268,299.855,381.268,296.678,383.689
	z"/>
</svg>
