<?xml version="1.0" encoding="iso-8859-1"?>
<!-- Generator: Adobe Illustrator 15.0.0, SVG Export Plug-In . SVG Version: 6.00 Build 0)  -->
<!DOCTYPE svg PUBLIC "-//W3C//DTD SVG 1.1//EN" "http://www.w3.org/Graphics/SVG/1.1/DTD/svg11.dtd">
<svg version="1.1" id="Layer_1" xmlns="http://www.w3.org/2000/svg" xmlns:xlink="http://www.w3.org/1999/xlink" x="0px" y="0px"
	 width="612px" height="792px" viewBox="0 0 612 792" style="enable-background:new 0 0 612 792;" xml:space="preserve">
<g>
	<path d="M239.503,279.16h-0.078c-0.386,1.546-0.773,3.71-1.159,5.179l-1.121,4.638h4.832l-1.198-4.677
		C240.392,282.832,239.89,280.706,239.503,279.16z"/>
	<path d="M296.02,270.127l-4.504-3.504h-81.992l-4.504,4.504l-9,32.492l3.504,4.504h101.992l3.504-4.504L296.02,270.127z
		 M244.605,300.186l-1.662-6.029h-6.726l-1.469,6.029h-7.228l7.576-26.05h9.276l7.769,26.05H244.605z M267.527,300.186l-0.309-2.512
		h-0.155c-0.696,1.043-2.357,2.938-5.759,2.938c-4.251,0-6.725-2.744-6.725-8.233v-11.208h6.957v10.088
		c0,2.435,0.812,3.749,2.435,3.749c1.314,0,1.971-0.889,2.242-1.624c0.154-0.271,0.193-0.618,0.193-1.005v-11.208h6.958v12.523
		c0,2.706,0.077,4.87,0.154,6.493H267.527z"/>
</g>
</svg>
