<?xml version="1.0" encoding="iso-8859-1"?>
<!-- Generator: Adobe Illustrator 15.0.0, SVG Export Plug-In . SVG Version: 6.00 Build 0)  -->
<!DOCTYPE svg PUBLIC "-//W3C//DTD SVG 1.1//EN" "http://www.w3.org/Graphics/SVG/1.1/DTD/svg11.dtd">
<svg version="1.1" id="Layer_1" xmlns="http://www.w3.org/2000/svg" xmlns:xlink="http://www.w3.org/1999/xlink" x="0px" y="0px"
	 width="612px" height="792px" viewBox="0 0 612 792" style="enable-background:new 0 0 612 792;" xml:space="preserve">
<g>
	<path d="M275.993,323.404c0-13.048-10.577-23.633-23.64-23.633c-13.049,0-23.625,10.584-23.625,23.633
		c0,13.049,10.577,23.626,23.625,23.626C265.416,347.03,275.993,336.453,275.993,323.404z"/>
	<path d="M365.267,299.021c-13.26,0-24.01,10.748-24.01,24.001c0,13.267,10.75,24.008,24.01,24.008
		c13.259,0,24.001-10.742,24.001-24.008C389.268,309.769,378.525,299.021,365.267,299.021z"/>
	<path d="M305.244,375.543c0-12.435-10.072-22.507-22.508-22.507c-12.425,0-22.506,10.072-22.506,22.507
		c0,12.42,10.081,22.507,22.506,22.507C295.171,398.05,305.244,387.964,305.244,375.543z"/>
	<path d="M335.996,351.535c-12.837,0-23.245,10.414-23.245,23.258c0,12.844,10.408,23.258,23.245,23.258
		c12.857,0,23.272-10.414,23.272-23.258C359.268,361.949,348.853,351.535,335.996,351.535z"/>
	<path d="M308.623,400.296c-13.057,0-23.634,10.572-23.634,23.626c0,13.056,10.577,23.634,23.634,23.634
		c13.046,0,23.632-10.578,23.632-23.634C332.255,410.868,321.669,400.296,308.623,400.296z"/>
	<path d="M308.623,299.77c-13.057,0-23.634,10.572-23.634,23.626c0,13.056,10.577,23.634,23.634,23.634
		c13.046,0,23.632-10.578,23.632-23.634C332.255,310.342,321.669,299.77,308.623,299.77z"/>
</g>
<rect x="304.035" y="226.925" width="9.927" height="63.102"/>
<path d="M346.044,239.994c-4.868,4.233-8.68,9.314-11.219,14.609c-2.755,5.505-4.659,10.799-5.715,16.092
	c-1.272,5.083-1.909,9.53-2.119,12.917l-0.426,4.87v0.423h0.21l5.083,0.636c3.386,0.212,7.834,0.424,13.129,0
	c5.294-0.213,11.009-1.059,16.729-2.965c5.925-1.906,11.431-4.658,16.305-8.682c4.868-4.234,8.68-9.317,11.435-14.821
	c2.54-5.295,4.443-10.587,5.715-15.881c1.056-5.294,1.903-9.528,2.119-12.917l0.21-5.505l-5.293-0.423
	c-3.386-0.423-7.625-0.423-13.129-0.21c-5.294,0.422-10.799,1.269-16.724,3.176C356.633,233.005,351.129,235.759,346.044,239.994
	L346.044,239.994z"/>
</svg>
