<?xml version="1.0" encoding="iso-8859-1"?>
<!-- Generator: Adobe Illustrator 15.0.0, SVG Export Plug-In . SVG Version: 6.00 Build 0)  -->
<!DOCTYPE svg PUBLIC "-//W3C//DTD SVG 1.1//EN" "http://www.w3.org/Graphics/SVG/1.1/DTD/svg11.dtd">
<svg version="1.1" id="Layer_1" xmlns="http://www.w3.org/2000/svg" xmlns:xlink="http://www.w3.org/1999/xlink" x="0px" y="0px"
	 width="612px" height="792px" viewBox="0 0 612 792" style="enable-background:new 0 0 612 792;" xml:space="preserve">
<path d="M249.771,431.809c0,6.236,5.052,11.289,11.289,11.289h88.757c6.232,0,11.29-5.053,11.29-11.289v-8.181H249.771V431.809z"/>
<path d="M305.438,332.578c-43.822,0-55.762,14.983-55.762,33.458h111.526C361.202,347.561,348.842,332.578,305.438,332.578z"/>
<rect x="249.676" y="390.664" width="111.526" height="4.872"/>
<path d="M361.993,409.861c0,4.295-2.46,7.776-5.496,7.776H254.381c-3.036,0-5.496-3.481-5.496-7.776l0,0
	c0-4.294,2.46-7.777,5.496-7.777h54.1l19.155,14.196l18.243-14.196h10.619C359.532,402.084,361.993,405.567,361.993,409.861
	L361.993,409.861z"/>
<path d="M303.873,386.882c-0.321-0.006-0.641-0.06-0.95-0.163l-18.651-3.449l-21.186,3.431c-0.448,0.071-0.904,0.049-1.341-0.069
	l-14.949-4.026l-13.226,1.38c-1.712,0.413-3.471,1.184-3.886-0.53c-0.414-1.713,0.606-1.615,2.32-2.029l14.116-7.043
	c0.521-0.126,1.063-0.119,1.581,0.021l15.007,7.708l21.348-7.095c0.508-0.083,1.03-0.041,1.518,0.121l18.269,7.91l23.979-4.043
	c0.798-0.285,1.676-0.241,2.441,0.121l8.319,3.939l17.338-10.645c0.637-0.158,1.307-0.115,1.919,0.122l21.375,11.942
	c1.645,0.636,2.494,0.661,1.858,2.305c-0.637,1.644-2.449,0.637-4.096,0.002l-20.534-6.107l-17.35,4.292
	c-0.714,0.177-1.467,0.101-2.133-0.213l-8.152-3.861l-23.804,5.792C304.639,386.827,304.255,386.889,303.873,386.882z"/>
<path d="M378.833,412.74c0,6.378-2.835,7.637-6.333,7.637c-3.498,0-6.333-3.494-6.333-9.873s0-6.659,0-11.549
	C369.665,398.956,378.833,406.362,378.833,412.74z"/>
<path d="M236.667,397.909c0,4.49,1.996,5.376,4.458,5.376c2.462,0,4.458-2.46,4.458-6.95c0-4.49,0-4.688,0-8.13
	C243.121,388.206,236.667,393.419,236.667,397.909z"/>
</svg>
