<?xml version="1.0" encoding="iso-8859-1"?>
<!-- Generator: Adobe Illustrator 15.0.0, SVG Export Plug-In . SVG Version: 6.00 Build 0)  -->
<!DOCTYPE svg PUBLIC "-//W3C//DTD SVG 1.1//EN" "http://www.w3.org/Graphics/SVG/1.1/DTD/svg11.dtd">
<svg version="1.1" id="Layer_1" xmlns="http://www.w3.org/2000/svg" xmlns:xlink="http://www.w3.org/1999/xlink" x="0px" y="0px"
	 width="612px" height="792px" viewBox="0 0 612 792" style="enable-background:new 0 0 612 792;" xml:space="preserve">
<g>
	<path d="M333.562,399.258l-39.309-22.174l-0.147-0.262l-0.158,0.089l-0.158-0.089l-0.147,0.262l-39.309,22.174
		c-0.989,0.558-1.478,1.713-1.189,2.812c0.289,1.099,1.282,1.865,2.418,1.865h37h2.773h37c1.136,0,2.129-0.766,2.418-1.865
		C335.04,400.972,334.551,399.816,333.562,399.258z M295.334,398.936h-2.773h-27.479l28.866-16.283l28.866,16.283H295.334z"/>
	<path style="fill:none;stroke:#000000;stroke-width:5;stroke-linecap:round;stroke-miterlimit:10;" d="M305.511,362.608
		c-0.415-1.002-1.026-1.942-1.841-2.758c-3.322-3.321-8.707-3.321-12.028,0c-3.321,3.321-3.321,8.706,0,12.028
		c0.816,0.816,1.757,1.425,2.76,1.838"/>
	
		<line style="fill:none;stroke:#000000;stroke-width:5;stroke-linecap:round;stroke-miterlimit:10;" x1="294.333" y1="374" x2="294.333" y2="378.333"/>
</g>
</svg>
