<?xml version="1.0" encoding="utf-8"?>
<!-- Generator: Adobe Illustrator 15.0.0, SVG Export Plug-In . SVG Version: 6.00 Build 0)  -->
<!DOCTYPE svg PUBLIC "-//W3C//DTD SVG 1.1//EN" "http://www.w3.org/Graphics/SVG/1.1/DTD/svg11.dtd">
<svg version="1.1" id="Layer_2" xmlns="http://www.w3.org/2000/svg" xmlns:xlink="http://www.w3.org/1999/xlink" x="0px" y="0px"
	 width="162px" height="148px" viewBox="0 0 162 148" enable-background="new 0 0 162 148" xml:space="preserve">
<circle cx="85.625" cy="56.959" r="8.5"/>
<path fill="none" stroke="#000000" stroke-width="6" stroke-miterlimit="10" d="M123.072,106.698
	c1.367,1.999,0.502,4.97-1.933,6.634l-13.472,9.212c-2.434,1.665-5.517,1.393-6.884-0.605L81.972,81.078
	c-1.367-2-0.502-4.969,1.932-6.634l1.033-0.706c2.434-1.665,5.516-1.394,6.883,0.606L123.072,106.698z"/>
<path d="M134.291,5.458H36.96c-1.565,0-2.834,1.269-2.834,2.834v127.332c0,1.564,1.269,2.834,2.834,2.834h97.331
	c1.565,0,2.834-1.27,2.834-2.834V8.293C137.125,6.728,135.856,5.458,134.291,5.458z M50,131c-4.418,0-8-3.582-8-8s3.582-8,8-8
	s8,3.582,8,8S54.418,131,50,131z M123.072,106.698c1.367,1.999,0.502,4.97-1.933,6.634l-13.472,9.212
	c-2.434,1.665-5.517,1.393-6.884-0.605L88.909,96.145c-1.083,0.09-2.176,0.147-3.283,0.147c-21.724,0-39.333-17.61-39.333-39.333
	c0-21.723,17.61-39.333,39.333-39.333c21.723,0,39.333,17.61,39.333,39.333c0,13.862-7.177,26.041-18.012,33.045L123.072,106.698z"
	/>
</svg>
