<?xml version="1.0" encoding="iso-8859-1"?>
<!-- Generator: Adobe Illustrator 15.0.0, SVG Export Plug-In . SVG Version: 6.00 Build 0)  -->
<!DOCTYPE svg PUBLIC "-//W3C//DTD SVG 1.1//EN" "http://www.w3.org/Graphics/SVG/1.1/DTD/svg11.dtd">
<svg version="1.1" id="Layer_1" xmlns="http://www.w3.org/2000/svg" xmlns:xlink="http://www.w3.org/1999/xlink" x="0px" y="0px"
	 width="612px" height="792px" viewBox="0 0 612 792" style="enable-background:new 0 0 612 792;" xml:space="preserve">
<path d="M232.793,336.647h-79.488c-2.706,0-4.898,2.193-4.898,4.898v114.339c0,2.706,2.192,4.898,4.898,4.898h79.488
	c2.706,0,4.898-2.193,4.898-4.898V341.545C237.691,338.84,235.499,336.647,232.793,336.647z M215.333,397.922
	c-7.519,8.13-18.189,17.207-21.256,25.57c-0.13,0.346-0.402,0.34-0.674,0.005c-2.24-5.345-7.064-11.61-16.986-19.702
	c-3.708-2.964-6.974-6.372-9.174-11.14c-2.063-11.646,2.473-18.381,13.358-18.977c6.316,0.528,9.74,3.748,11.907,9.412
	c0.214,0.578,0.958,0.481,1.28,0.135c3.48-11.894,20.149-12.818,25.31,0.245C219.891,388.715,218.763,393.562,215.333,397.922z"/>
</svg>
