<?xml version="1.0" encoding="utf-8"?>
<!-- Generator: Adobe Illustrator 15.0.0, SVG Export Plug-In . SVG Version: 6.00 Build 0)  -->
<!DOCTYPE svg PUBLIC "-//W3C//DTD SVG 1.1//EN" "http://www.w3.org/Graphics/SVG/1.1/DTD/svg11.dtd">
<svg version="1.1" id="Layer_2" xmlns="http://www.w3.org/2000/svg" xmlns:xlink="http://www.w3.org/1999/xlink" x="0px" y="0px"
	 width="162px" height="148px" viewBox="0 0 162 148" enable-background="new 0 0 162 148" xml:space="preserve">
<path d="M86.522,29.75c-0.099,1.205,0.238,3.263,0.485,4.772c0.31,1.876-0.335,10.12-0.306,13.153
	c0.029,3.032-1.864,16.923-2.559,20.251c-0.689,3.33-2.124,4.355-2.981,5.375c-0.858,1.019-6.139,7.566-8.143,9.466
	c-2.008,1.9-7.708,4.814-8.867,5.117c-1.153,0.295-10.765,3.813-11.188,4.687c-0.283,0.577-0.661,2.085-0.939,3.179h33.054
	c2.167-3.79,5.039-10.107,5.716-10.774c1.051-1.034,3.165-1.363,4.182-1.34c1.56,0.035,0.808,8.244,0.681,12.114h7.558
	c0.237-6.276,2.732-12.296,2.251-14.105c-0.439-1.655-3.091-5.188-3.091-5.188s-0.223-3.895-0.056-5.754
	c0.169-1.861,1.946-8.534,2.268-10.811c0.315-2.229,4.346-11.393,5.685-15.465c1.633-4.973,1.733-13.21,1.733-13.21
	c-0.07-0.503-0.143-1.006-0.376-1.465H86.522z"/>
</svg>
