<?xml version="1.0" encoding="iso-8859-1"?>
<!-- Generator: Adobe Illustrator 15.0.0, SVG Export Plug-In . SVG Version: 6.00 Build 0)  -->
<!DOCTYPE svg PUBLIC "-//W3C//DTD SVG 1.1//EN" "http://www.w3.org/Graphics/SVG/1.1/DTD/svg11.dtd">
<svg version="1.1" id="Layer_1" xmlns="http://www.w3.org/2000/svg" xmlns:xlink="http://www.w3.org/1999/xlink" x="0px" y="0px"
	 width="612px" height="792px" viewBox="0 0 612 792" style="enable-background:new 0 0 612 792;" xml:space="preserve">
<path d="M245.54,311.935c-22.982,3.465-29.8-8.327-38.249-22.438c-1.409-0.411-0.117,2.477,0,0
	c12.44,3.002,21.51-11.153,30.498-2.543c7.344-7.681,19.519,3.883,29.066,3.02C269.396,289.744,260.296,309.71,245.54,311.935z
	 M209.369,290.619c10.099,14.229,48.596,13.05,56.84,0C251.98,295.555,223.641,295.352,209.369,290.619z"/>
<path d="M265,374.375c-22.982,3.465-30.594-4.434-39.042-18.545c-1.409-0.411-0.117,2.477,0,0c12.44,3.002,21.68-9.69,30.667-1.08
	c7.344-7.681,19.349,2.419,28.896,1.556C288.062,356.078,279.757,372.15,265,374.375z M228.035,356.953
	c10.099,14.229,48.596,13.05,56.84,0C270.647,361.888,242.308,361.685,228.035,356.953z"/>
</svg>
