<?xml version="1.0" encoding="iso-8859-1"?>
<!-- Generator: Adobe Illustrator 15.0.0, SVG Export Plug-In . SVG Version: 6.00 Build 0)  -->
<!DOCTYPE svg PUBLIC "-//W3C//DTD SVG 1.1//EN" "http://www.w3.org/Graphics/SVG/1.1/DTD/svg11.dtd">
<svg version="1.1" id="Layer_1" xmlns="http://www.w3.org/2000/svg" xmlns:xlink="http://www.w3.org/1999/xlink" x="0px" y="0px"
	 width="612px" height="792px" viewBox="0 0 612 792" style="enable-background:new 0 0 612 792;" xml:space="preserve">
<path d="M284.342,314.422c0.163,8.184,0.489,27.152,0.569,33.982c0.027,8.861-29.375,19.402-53.817,38.128
	c-24.172,18.671-85.254,74.928-38.292,148.88c46.827,74.17,118.07,59.808,160.913,34.01c43.006-25.717,62.166-69.265,68.019-111.43
	c5.826-42.112-21.456,1.357-35.439,26.504c-14.173,25.256-103.067,107.886-151.151,40.803
	c-48.083-67.083,34.178-128.916,68.621-136.315c27.504-5.799,43.366-43.832,43.555-78.22"/>
<path d="M186.222,218.506c1.847,67.912,57.438,122.405,125.794,122.405c68.357,0,123.948-54.494,125.795-122.405H186.222z"/>
<rect x="186.222" y="160.085" width="251.589" height="34.774"/>
</svg>
