<?xml version="1.0" encoding="iso-8859-1"?>
<!-- Generator: Adobe Illustrator 15.0.0, SVG Export Plug-In . SVG Version: 6.00 Build 0)  -->
<!DOCTYPE svg PUBLIC "-//W3C//DTD SVG 1.1//EN" "http://www.w3.org/Graphics/SVG/1.1/DTD/svg11.dtd">
<svg version="1.1" id="&#x421;&#x43B;&#x43E;&#x439;_1"
	 xmlns="http://www.w3.org/2000/svg" xmlns:xlink="http://www.w3.org/1999/xlink" x="0px" y="0px" width="600px" height="600px"
	 viewBox="0 0 600 600" style="enable-background:new 0 0 600 600;" xml:space="preserve">
<g>
	<rect x="464.409" y="-150.57" style="fill-rule:evenodd;clip-rule:evenodd;fill:#000003;" width="300.001" height="300"/>
	<g>
		<path style="fill-rule:evenodd;clip-rule:evenodd;fill:#FFFFFF;" d="M520.63,5.021l-2.98-6.61c-0.159-0.35-0.149-0.66-0.01-0.89
			c-0.03,0.06-0.03,0.11-0.03,0.17c0,0.44,0.55,0.8,1.24,0.8H519c0.08,0.55,0.52,0.97,1.05,0.97s0.97-0.419,1.05-0.97h0.19
			c0.069,0.55,0.51,0.97,1.05,0.97c0.53,0,0.97-0.419,1.05-0.97h0.16c0.67,0,1.229-0.36,1.229-0.8c0-0.05-0.01-0.11-0.029-0.17
			c0.14,0.23,0.14,0.54-0.011,0.89l-2.989,6.61C521.45,5.7,520.95,5.7,520.63,5.021L520.63,5.021z M521.29-2.28
			c0.069,0.55,0.51,0.98,1.05,0.98c0.53,0,0.97-0.43,1.05-0.98h0.16c0.67,0,1.229-0.35,1.229-0.78c0-0.38-0.42-0.69-0.96-0.77
			c0.061-0.18,0.101-0.37,0.101-0.57c0-1.15-1.22-2.07-2.72-2.07c-1.511,0-2.73,0.92-2.73,2.07c0,0.2,0.03,0.39,0.1,0.57
			c-0.55,0.07-0.96,0.39-0.96,0.77c0,0.43,0.55,0.78,1.24,0.78H519c0.08,0.55,0.52,0.98,1.05,0.98s0.97-0.43,1.05-0.98H521.29
			L521.29-2.28z"/>
		<path style="fill-rule:evenodd;clip-rule:evenodd;fill:#FFFFFF;" d="M538.17,6.39l-3.73-8.26c-0.189-0.44-0.18-0.83-0.01-1.12
			c-0.029,0.08-0.04,0.15-0.04,0.22c0,0.55,0.69,1,1.55,1h0.2c0.09,0.69,0.64,1.21,1.31,1.21c0.66,0,1.211-0.52,1.301-1.21h0.239
			c0.091,0.69,0.641,1.21,1.32,1.21c0.66,0,1.2-0.52,1.311-1.21h0.189c0.851,0,1.55-0.45,1.55-1c0-0.06-0.02-0.141-0.04-0.21
			c0.17,0.28,0.181,0.67-0.02,1.11l-3.73,8.26C539.189,7.24,538.569,7.24,538.17,6.39L538.17,6.39z M538.989-2.73
			c0.091,0.69,0.641,1.22,1.32,1.22c0.66,0,1.2-0.53,1.311-1.22h0.189c0.851,0,1.55-0.44,1.55-0.98c0-0.47-0.52-0.86-1.21-0.96
			c0.09-0.23,0.13-0.47,0.13-0.71c0-1.44-1.52-2.59-3.399-2.59s-3.41,1.15-3.41,2.59c0,0.24,0.04,0.48,0.12,0.71
			c-0.68,0.09-1.2,0.49-1.2,0.96c0,0.54,0.69,0.98,1.55,0.98h0.2c0.09,0.69,0.64,1.22,1.31,1.22c0.66,0,1.211-0.53,1.301-1.22
			H538.989L538.989-2.73z"/>
		<path style="fill-rule:evenodd;clip-rule:evenodd;fill:#FFFFFF;" d="M557.54,7.77l-4.471-9.92c-0.239-0.53-0.229-0.99-0.02-1.34
			c-0.03,0.09-0.05,0.17-0.05,0.27c0,0.65,0.84,1.18,1.87,1.18h0.229c0.11,0.83,0.771,1.46,1.58,1.46c0.79,0,1.45-0.63,1.561-1.46
			h0.289c0.11,0.83,0.761,1.46,1.57,1.46c0.79,0,1.45-0.63,1.58-1.46h0.23c1.02,0,1.85-0.53,1.85-1.18c0-0.08-0.01-0.18-0.04-0.26
			c0.2,0.34,0.22,0.8-0.02,1.33l-4.48,9.92C558.76,8.78,558.02,8.78,557.54,7.77L557.54,7.77z M558.529-3.18
			c0.11,0.82,0.761,1.47,1.57,1.47c0.79,0,1.45-0.65,1.58-1.47h0.23c1.02,0,1.85-0.52,1.85-1.18c0-0.56-0.62-1.02-1.44-1.15
			c0.101-0.28,0.15-0.56,0.15-0.85c0-1.72-1.82-3.11-4.08-3.11s-4.1,1.39-4.1,3.11c0,0.29,0.05,0.569,0.149,0.85
			C553.619-5.4,553-4.92,553-4.36c0,0.66,0.84,1.18,1.87,1.18h0.229c0.11,0.82,0.771,1.47,1.58,1.47c0.79,0,1.45-0.65,1.561-1.47
			H558.529L558.529-3.18z"/>
		<path style="fill-rule:evenodd;clip-rule:evenodd;fill:#FFFFFF;" d="M578.359,8.45l-4.85-10.74c-0.26-0.57-0.25-1.08-0.021-1.45
			c-0.04,0.1-0.05,0.18-0.05,0.29c0,0.71,0.9,1.28,2.021,1.28h0.25c0.12,0.9,0.83,1.58,1.71,1.58c0.859,0,1.569-0.68,1.689-1.58
			h0.311c0.12,0.9,0.83,1.58,1.71,1.58c0.86,0,1.569-0.68,1.71-1.58h0.25c1.1,0,2-0.57,2-1.28c0-0.09-0.01-0.19-0.04-0.28
			c0.22,0.36,0.229,0.87-0.021,1.44L580.17,8.45C579.68,9.55,578.87,9.55,578.359,8.45L578.359,8.45z M579.42-3.41
			c0.12,0.9,0.83,1.59,1.71,1.59c0.86,0,1.569-0.69,1.71-1.59h0.25c1.1,0,2-0.56,2-1.27c0-0.61-0.67-1.11-1.561-1.25
			c0.11-0.3,0.16-0.6,0.16-0.92c0-1.87-1.97-3.37-4.42-3.37c-2.439,0-4.43,1.5-4.43,3.37c0,0.32,0.05,0.62,0.16,0.92
			c-0.891,0.12-1.561,0.64-1.561,1.25c0,0.71,0.9,1.27,2.021,1.27h0.25c0.12,0.9,0.83,1.59,1.71,1.59c0.859,0,1.569-0.69,1.689-1.59
			H579.42L579.42-3.41z"/>
		<path style="fill-rule:evenodd;clip-rule:evenodd;fill:#FFFFFF;" d="M600.47,9.83l-5.59-12.4c-0.3-0.66-0.28-1.24-0.021-1.68
			c-0.05,0.12-0.06,0.22-0.06,0.34c0,0.82,1.04,1.48,2.33,1.48h0.29c0.14,1.04,0.96,1.82,1.97,1.82c0.99,0,1.81-0.78,1.95-1.82
			h0.359c0.141,1.04,0.961,1.82,1.971,1.82c0.99,0,1.81-0.78,1.97-1.82h0.3c1.271,0,2.311-0.66,2.311-1.48
			c0-0.1-0.021-0.22-0.05-0.32c0.25,0.419,0.26,1-0.03,1.66l-5.601,12.4C602,11.101,601.06,11.101,600.47,9.83L600.47,9.83z
			 M601.699-3.86c0.141,1.03,0.961,1.83,1.971,1.83c0.99,0,1.81-0.8,1.97-1.83h0.3c1.271,0,2.311-0.65,2.311-1.47
			c0-0.7-0.78-1.28-1.8-1.44c0.119-0.34,0.18-0.7,0.18-1.06c0-2.16-2.28-3.89-5.101-3.89c-2.819,0-5.119,1.73-5.119,3.89
			c0,0.36,0.069,0.72,0.189,1.06c-1.03,0.14-1.8,0.74-1.8,1.44c0,0.82,1.04,1.47,2.33,1.47h0.29c0.14,1.03,0.96,1.83,1.97,1.83
			c0.99,0,1.81-0.8,1.95-1.83H601.699L601.699-3.86z"/>
		<path style="fill-rule:evenodd;clip-rule:evenodd;fill:#FFFFFF;" d="M625.58,13.26l-7.46-16.54c-0.391-0.87-0.37-1.65-0.021-2.22
			c-0.06,0.15-0.08,0.28-0.08,0.44c0,1.1,1.38,1.98,3.1,1.98h0.391c0.19,1.39,1.28,2.43,2.63,2.43c1.32,0,2.42-1.04,2.61-2.43h0.47
			c0.19,1.39,1.28,2.43,2.63,2.43c1.32,0,2.41-1.04,2.62-2.43h0.4c1.689,0,3.079-0.88,3.079-1.98c0-0.13-0.029-0.29-0.069-0.42
			c0.34,0.55,0.359,1.33-0.04,2.2l-7.46,16.54C627.609,14.95,626.37,14.95,625.58,13.26L625.58,13.26z M627.22-4.99
			c0.19,1.38,1.28,2.45,2.63,2.45c1.32,0,2.41-1.07,2.62-2.45h0.4c1.689,0,3.079-0.87,3.079-1.96c0-0.93-1.039-1.71-2.399-1.91
			c0.16-0.47,0.24-0.94,0.24-1.43c0-2.87-3.03-5.18-6.8-5.18c-3.761,0-6.82,2.31-6.82,5.18c0,0.49,0.08,0.96,0.25,1.43
			c-1.37,0.17-2.4,0.98-2.4,1.91c0,1.09,1.38,1.96,3.1,1.96h0.391c0.19,1.38,1.28,2.45,2.63,2.45c1.32,0,2.42-1.07,2.61-2.45H627.22
			L627.22-4.99z"/>
		<path style="fill-rule:evenodd;clip-rule:evenodd;fill:#FFFFFF;" d="M654.88,16l-8.95-19.84c-0.48-1.04-0.45-1.979-0.03-2.67
			c-0.069,0.19-0.09,0.35-0.09,0.53c0,1.32,1.66,2.38,3.721,2.38H650c0.22,1.66,1.529,2.91,3.149,2.91c1.58,0,2.9-1.25,3.13-2.91
			h0.57c0.22,1.66,1.53,2.91,3.15,2.91c1.58,0,2.899-1.25,3.149-2.91h0.471c2.04,0,3.699-1.06,3.699-2.38
			c0-0.15-0.029-0.34-0.079-0.5c0.399,0.661,0.43,1.6-0.051,2.64L658.24,16C657.319,18.04,655.83,18.04,654.88,16L654.88,16z
			 M656.85-5.9c0.22,1.66,1.53,2.94,3.15,2.94c1.58,0,2.899-1.28,3.149-2.94h0.471c2.04,0,3.699-1.04,3.699-2.34
			c0-1.13-1.239-2.06-2.88-2.3c0.2-0.56,0.3-1.12,0.3-1.709c0-3.44-3.649-6.22-8.17-6.22c-4.51,0-8.189,2.78-8.189,6.22
			c0,0.59,0.1,1.15,0.3,1.709c-1.64,0.21-2.87,1.17-2.87,2.3c0,1.3,1.66,2.34,3.721,2.34H650c0.22,1.66,1.529,2.94,3.149,2.94
			c1.58,0,2.9-1.28,3.13-2.94H656.85L656.85-5.9z"/>
		<path style="fill-rule:evenodd;clip-rule:evenodd;fill:#FFFFFF;" d="M688.619,20.12L677.42-4.68c-0.59-1.3-0.561-2.47-0.03-3.34
			c-0.09,0.24-0.12,0.43-0.12,0.67c0,1.64,2.08,2.97,4.65,2.97h0.59c0.28,2.07,1.92,3.64,3.939,3.64c1.98,0,3.631-1.57,3.91-3.64
			h0.711c0.279,2.07,1.93,3.64,3.939,3.64c1.98,0,3.63-1.57,3.939-3.64h0.591c2.55,0,4.63-1.33,4.63-2.97c0-0.2-0.04-0.43-0.1-0.63
			c0.5,0.83,0.529,2-0.061,3.3l-11.2,24.8C691.66,22.66,689.8,22.66,688.619,20.12L688.619,20.12z M691.07-7.25
			c0.279,2.07,1.93,3.67,3.939,3.67c1.98,0,3.63-1.6,3.939-3.67h0.591c2.55,0,4.63-1.3,4.63-2.94c0-1.4-1.561-2.56-3.61-2.87
			c0.25-0.69,0.37-1.399,0.37-2.14c0-4.3-4.55-7.77-10.2-7.77c-5.64,0-10.239,3.47-10.239,7.77c0,0.74,0.13,1.45,0.369,2.14
			c-2.04,0.271-3.59,1.47-3.59,2.87c0,1.64,2.08,2.94,4.65,2.94h0.59c0.28,2.07,1.92,3.67,3.939,3.67c1.98,0,3.631-1.6,3.91-3.67
			H691.07L691.07-7.25z"/>
	</g>
</g>
</svg>
