<?xml version="1.0" encoding="iso-8859-1"?>
<!-- Generator: Adobe Illustrator 15.0.0, SVG Export Plug-In . SVG Version: 6.00 Build 0)  -->
<!DOCTYPE svg PUBLIC "-//W3C//DTD SVG 1.1//EN" "http://www.w3.org/Graphics/SVG/1.1/DTD/svg11.dtd">
<svg version="1.1" id="Layer_1" xmlns="http://www.w3.org/2000/svg" xmlns:xlink="http://www.w3.org/1999/xlink" x="0px" y="0px"
	 width="612px" height="792px" viewBox="0 0 612 792" style="enable-background:new 0 0 612 792;" xml:space="preserve">
<g>
	<polygon points="445.932,214.262 425.398,234.796 425.398,397.717 430.726,403.045 445.932,418.251 493.724,418.251 
		493.724,214.262 	"/>
	<polygon points="241.942,418.251 226.737,433.456 226.737,481.249 430.726,481.249 430.726,433.457 410.191,412.923 
		247.27,412.923 	"/>
	<polygon points="415.52,214.262 430.726,199.056 430.726,151.263 226.736,151.264 226.736,199.056 241.942,214.262 247.271,219.59 
		410.192,219.59 	"/>
	<polygon points="226.736,229.467 211.531,214.262 163.738,214.262 163.738,418.251 211.53,418.251 232.064,397.716 
		232.064,234.795 	"/>
</g>
<polygon points="433.781,716 351.359,633.577 344.731,626.949 344.731,504 312.731,504 312.731,626.951 306.104,633.577 
	223.681,716 268.936,716 312.731,672.206 312.731,716 344.731,716 344.731,672.204 388.527,716 "/>
</svg>
