<?xml version="1.0" encoding="iso-8859-1"?>
<!-- Generator: Adobe Illustrator 15.0.0, SVG Export Plug-In . SVG Version: 6.00 Build 0)  -->
<!DOCTYPE svg PUBLIC "-//W3C//DTD SVG 1.1//EN" "http://www.w3.org/Graphics/SVG/1.1/DTD/svg11.dtd">
<svg version="1.1" id="Layer_1" xmlns="http://www.w3.org/2000/svg" xmlns:xlink="http://www.w3.org/1999/xlink" x="0px" y="0px"
	 width="612px" height="792px" viewBox="0 0 612 792" style="enable-background:new 0 0 612 792;" xml:space="preserve">
<polygon points="281.832,374.825 281.832,418.522 325.528,418.522 311.859,404.852 340.94,375.772 324.582,359.414 295.5,388.495 
	"/>
<path d="M307.125,425.522v4.65c0,3.076-2.502,5.578-5.578,5.578h-32.095c-3.076,0-5.578-2.502-5.578-5.578v-32.095
	c0-3.076,2.502-5.578,5.578-5.578h5.379v-8.75h-11.872c-4.32,0-7.834,3.515-7.834,7.834v45.081c0,4.32,3.515,7.834,7.834,7.834
	h45.081c4.32,0,7.834-3.515,7.834-7.834v-11.144H307.125z"/>
</svg>
