<?xml version="1.0" encoding="iso-8859-1"?>
<!-- Generator: Adobe Illustrator 15.0.0, SVG Export Plug-In . SVG Version: 6.00 Build 0)  -->
<!DOCTYPE svg PUBLIC "-//W3C//DTD SVG 1.1//EN" "http://www.w3.org/Graphics/SVG/1.1/DTD/svg11.dtd">
<svg version="1.1" id="Imported_Layer_1" xmlns="http://www.w3.org/2000/svg" xmlns:xlink="http://www.w3.org/1999/xlink" x="0px"
	 y="0px" width="600px" height="600px" viewBox="0 0 600 600" style="enable-background:new 0 0 600 600;" xml:space="preserve">
<rect x="453.17" y="-160.89" style="fill-rule:evenodd;clip-rule:evenodd;fill:#000003;" width="300" height="300"/>
<g>
	<path style="fill-rule:evenodd;clip-rule:evenodd;fill:#FFFFFF;" d="M493.79-5.41c-0.25-0.03-0.48-0.1-0.68-0.22
		c-0.61-0.38-0.751-1.12-0.65-1.85c0.04-0.32,0.12-0.63,0.21-0.919c0.08-0.25,0.17-0.48,0.27-0.71c0.221-0.51,0.48-1,0.76-1.47
		c0.931-1.53,2.15-2.98,3.551-4.24c0.08-0.07,0.17-0.15,0.26-0.221c-2.07,0.73-3.57,2.16-4.5,4.05c0.09-2.82,2.41-5.08,5.26-5.08
		c0.17,0,0.34,0.01,0.51,0.02c0.511-0.36,1.051-0.68,1.61-0.93c0.3-0.13,0.61-0.25,0.94-0.331c0.21-0.05,0.449-0.08,0.699-0.07
		c0.181,0,0.36,0.04,0.521,0.1c0.13,0.05,0.26,0.13,0.37,0.23c0.59,0.58,0.479,1.58,0.34,2.38c0-0.42-0.021-0.81-0.1-1.18
		c-0.051-0.21-0.12-0.43-0.24-0.61c-0.07-0.09-0.141-0.18-0.24-0.25c-0.41-0.3-1.02-0.07-1.41,0.12c-0.09,0.05-0.18,0.1-0.27,0.15
		c-0.13,0.08-0.26,0.15-0.38,0.24c-0.2,0.13-0.4,0.28-0.601,0.43c2.04,0.72,3.5,2.67,3.5,4.95c0,0.11-0.01,0.23-0.01,0.34h-3.63
		h-3.23v0.5c0,0.89,0.73,1.61,1.62,1.61c0.73,0,1.36-0.49,1.55-1.17h3.54c-0.569,2.28-2.64,3.97-5.09,3.97
		c-0.689,0-1.34-0.13-1.93-0.36c-0.42,0.17-0.84,0.32-1.29,0.42C494.66-5.42,494.22-5.35,493.79-5.41L493.79-5.41z M495.069-5.89
		L495.069-5.89c0.32-0.02,0.62-0.07,0.921-0.12c0.039-0.01,0.069-0.02,0.109-0.02c-1.02-0.46-1.86-1.24-2.41-2.2
		c-0.09,0.18-0.17,0.37-0.24,0.56c-0.089,0.24-0.159,0.49-0.189,0.76c-0.01,0.12,0,0.25,0.02,0.35c0.131,0.61,0.881,0.69,1.44,0.68
		C494.84-5.88,494.96-5.88,495.069-5.89L495.069-5.89z M498.27-13.27L498.27-13.27c-0.88,0-1.6,0.7-1.62,1.57h3.23
		C499.859-12.57,499.14-13.27,498.27-13.27z"/>
	<path style="fill-rule:evenodd;clip-rule:evenodd;fill:#FFFFFF;" d="M510.66-3.91c-0.311-0.04-0.601-0.13-0.851-0.29
		c-0.77-0.47-0.94-1.39-0.819-2.3c0.05-0.41,0.149-0.79,0.27-1.161c0.09-0.3,0.21-0.6,0.34-0.879c0.271-0.63,0.59-1.24,0.95-1.83
		c1.149-1.92,2.68-3.73,4.43-5.31c0.11-0.09,0.21-0.18,0.32-0.28c-2.58,0.91-4.45,2.709-5.61,5.07c0.11-3.52,3.011-6.36,6.561-6.36
		c0.22,0,0.43,0.021,0.64,0.04c0.64-0.45,1.32-0.85,2.021-1.17c0.37-0.17,0.76-0.31,1.17-0.41c0.27-0.06,0.57-0.11,0.87-0.09
		c0.239,0.01,0.449,0.05,0.649,0.13c0.17,0.06,0.33,0.16,0.47,0.29c0.74,0.72,0.59,1.97,0.431,2.96c0-0.51-0.021-1-0.131-1.46
		c-0.06-0.27-0.149-0.54-0.3-0.77c-0.079-0.11-0.18-0.23-0.3-0.311c-0.51-0.37-1.28-0.089-1.76,0.15c-0.12,0.06-0.23,0.12-0.35,0.19
		c-0.16,0.09-0.311,0.19-0.461,0.29c-0.26,0.17-0.51,0.35-0.749,0.54c2.539,0.91,4.369,3.34,4.369,6.19c0,0.15-0.01,0.29-0.02,0.43
		h-4.53v-0.01h-4.029v0.63c0,1.11,0.899,2.02,2.01,2.02c0.92,0,1.7-0.62,1.939-1.47h4.431c-0.721,2.86-3.301,4.97-6.37,4.97
		c-0.851,0-1.66-0.16-2.41-0.46c-0.521,0.21-1.05,0.4-1.61,0.53C511.75-3.93,511.189-3.84,510.66-3.91L510.66-3.91z M512.26-4.52
		L512.26-4.52c0.39-0.03,0.78-0.081,1.15-0.15c0.04-0.01,0.09-0.02,0.13-0.02c-1.271-0.58-2.32-1.55-3.01-2.75
		c-0.11,0.23-0.211,0.47-0.301,0.71C510.12-6.44,510.03-6.12,510-5.79c-0.01,0.15-0.01,0.311,0.02,0.44
		c0.16,0.76,1.091,0.86,1.8,0.85C511.97-4.5,512.12-4.51,512.26-4.52L512.26-4.52z M516.25-13.74L516.25-13.74
		c-1.09,0-1.99,0.87-2.01,1.96h4.029C518.24-12.87,517.35-13.74,516.25-13.74z"/>
	<path style="fill-rule:evenodd;clip-rule:evenodd;fill:#FFFFFF;" d="M530.3-2.42c-0.37-0.04-0.72-0.15-1.021-0.34
		c-0.92-0.57-1.119-1.67-0.989-2.77c0.069-0.48,0.189-0.94,0.33-1.38c0.109-0.36,0.25-0.72,0.399-1.07
		c0.33-0.75,0.72-1.48,1.15-2.19c1.38-2.3,3.21-4.47,5.32-6.36c0.119-0.12,0.25-0.23,0.379-0.34c-3.089,1.09-5.34,3.25-6.739,6.08
		c0.13-4.229,3.61-7.63,7.88-7.63c0.26,0,0.521,0.02,0.77,0.04c0.771-0.54,1.57-1.02,2.421-1.4c0.449-0.2,0.909-0.37,1.399-0.49
		c0.33-0.08,0.69-0.13,1.05-0.11c0.28,0.01,0.54,0.06,0.78,0.15c0.2,0.08,0.4,0.2,0.561,0.35c0.879,0.87,0.72,2.37,0.52,3.56
		c-0.01-0.62-0.03-1.21-0.16-1.76c-0.07-0.32-0.18-0.65-0.359-0.92c-0.101-0.14-0.211-0.27-0.351-0.37
		c-0.63-0.45-1.54-0.1-2.12,0.18c-0.14,0.07-0.279,0.15-0.42,0.23c-0.19,0.11-0.37,0.22-0.56,0.35c-0.3,0.2-0.601,0.42-0.891,0.65
		c3.05,1.08,5.24,4,5.24,7.42c0,0.18-0.01,0.35-0.021,0.51h-5.439h-4.84v0.76c0,1.33,1.09,2.41,2.42,2.41c1.1,0,2.04-0.74,2.33-1.76
		h5.31c-0.859,3.43-3.949,5.96-7.64,5.96c-1.02,0-2-0.19-2.89-0.54c-0.631,0.25-1.271,0.47-1.94,0.63
		C531.609-2.44,530.939-2.33,530.3-2.42L530.3-2.42z M532.22-3.14L532.22-3.14c0.47-0.04,0.93-0.1,1.38-0.19
		c0.05-0.01,0.11-0.02,0.16-0.03c-1.52-0.69-2.79-1.85-3.609-3.29c-0.131,0.27-0.261,0.56-0.371,0.85
		c-0.129,0.35-0.239,0.73-0.27,1.13c-0.021,0.18-0.01,0.37,0.02,0.53c0.19,0.91,1.32,1.03,2.171,1.02
		C531.87-3.12,532.05-3.13,532.22-3.14L532.22-3.14z M537.01-14.22L537.01-14.22c-1.31,0-2.39,1.06-2.42,2.36h4.84
		C539.39-13.16,538.319-14.22,537.01-14.22z"/>
	<path style="fill-rule:evenodd;clip-rule:evenodd;fill:#FFFFFF;" d="M576.34-0.17c-0.46-0.06-0.9-0.19-1.271-0.43
		c-1.149-0.71-1.409-2.09-1.229-3.46c0.07-0.61,0.22-1.18,0.399-1.73c0.141-0.459,0.32-0.9,0.511-1.33
		c0.41-0.95,0.89-1.859,1.42-2.75c1.74-2.87,4.02-5.59,6.66-7.95c0.149-0.14,0.31-0.28,0.479-0.42c-3.87,1.37-6.68,4.06-8.43,7.61
		c0.17-5.3,4.521-9.54,9.85-9.54c0.32,0,0.65,0.01,0.96,0.04c0.96-0.67,1.971-1.27,3.021-1.74c0.569-0.26,1.14-0.47,1.76-0.62
		c0.41-0.1,0.85-0.16,1.31-0.14c0.36,0.01,0.681,0.08,0.98,0.2c0.25,0.09,0.49,0.23,0.69,0.43c1.109,1.09,0.899,2.96,0.649,4.45
		c0-0.77-0.03-1.51-0.189-2.2c-0.101-0.41-0.23-0.81-0.46-1.15c-0.12-0.17-0.261-0.34-0.44-0.47c-0.771-0.55-1.92-0.13-2.64,0.23
		c-0.181,0.09-0.351,0.18-0.521,0.28c-0.24,0.14-0.47,0.29-0.7,0.44c-0.38,0.26-0.76,0.53-1.13,0.81
		c3.82,1.36,6.561,5.01,6.561,9.291c0,0.209-0.011,0.419-0.021,0.629h-6.8h-6.05v0.94c0,1.67,1.35,3.03,3.02,3.03
		c1.38,0,2.55-0.93,2.91-2.2h6.64c-1.069,4.28-4.939,7.45-9.55,7.45c-1.28,0-2.49-0.25-3.609-0.69c-0.78,0.32-1.58,0.6-2.421,0.79
		C577.979-0.2,577.14-0.07,576.34-0.17L576.34-0.17z M578.739-1.08L578.739-1.08c0.591-0.05,1.171-0.13,1.73-0.23
		c0.06-0.01,0.13-0.02,0.2-0.04c-1.91-0.86-3.49-2.311-4.51-4.12c-0.17,0.35-0.33,0.7-0.46,1.06c-0.171,0.45-0.301,0.92-0.351,1.42
		c-0.02,0.22-0.01,0.46,0.03,0.66c0.24,1.14,1.64,1.29,2.71,1.271C578.31-1.06,578.529-1.07,578.739-1.08L578.739-1.08z
		 M584.729-14.92L584.729-14.92c-1.64,0-2.979,1.31-3.02,2.94h6.04C587.71-13.61,586.37-14.92,584.729-14.92z"/>
	<path style="fill-rule:evenodd;clip-rule:evenodd;fill:#FFFFFF;" d="M603.43,3.56c-0.62-0.08-1.2-0.25-1.71-0.57
		c-1.53-0.94-1.87-2.78-1.64-4.61c0.1-0.81,0.31-1.57,0.54-2.31c0.189-0.6,0.43-1.2,0.68-1.77c0.54-1.26,1.19-2.48,1.9-3.66
		c2.31-3.83,5.359-7.46,8.869-10.6c0.21-0.19,0.421-0.38,0.641-0.57c-5.16,1.82-8.91,5.42-11.23,10.14
		c0.22-7.05,6.021-12.72,13.13-12.72c0.431,0,0.86,0.03,1.28,0.07c1.29-0.9,2.63-1.7,4.03-2.33c0.75-0.34,1.52-0.62,2.34-0.819
		c0.55-0.13,1.14-0.22,1.75-0.19c0.47,0.02,0.91,0.11,1.3,0.26c0.34,0.13,0.66,0.32,0.931,0.58c1.479,1.45,1.199,3.95,0.859,5.93
		c0-1.03-0.04-2.01-0.25-2.93c-0.13-0.54-0.31-1.08-0.609-1.529c-0.16-0.23-0.351-0.46-0.591-0.63c-1.029-0.74-2.56-0.17-3.52,0.31
		c-0.24,0.12-0.47,0.24-0.7,0.37c-0.311,0.19-0.63,0.38-0.93,0.59c-0.511,0.34-1.011,0.7-1.5,1.08
		c5.09,1.811,8.739,6.67,8.739,12.38c0,0.29-0.01,0.57-0.029,0.85h-9.07v-0.01h-8.06v1.26c0,2.23,1.8,4.03,4.029,4.03
		c1.841,0,3.4-1.24,3.88-2.93h8.851c-1.43,5.71-6.59,9.93-12.73,9.93c-1.7,0-3.33-0.32-4.819-0.91c-1.04,0.43-2.11,0.79-3.23,1.05
		C605.6,3.53,604.49,3.7,603.43,3.56L603.43,3.56z M606.63,2.35L606.63,2.35c0.78-0.06,1.55-0.17,2.3-0.3
		c0.08-0.02,0.17-0.04,0.26-0.05c-2.539-1.15-4.649-3.09-6.01-5.5c-0.229,0.46-0.43,0.94-0.61,1.419
		c-0.229,0.59-0.409,1.22-0.46,1.891c-0.029,0.29-0.02,0.61,0.041,0.879c0.31,1.51,2.18,1.72,3.609,1.701
		C606.05,2.38,606.34,2.37,606.63,2.35L606.63,2.35z M614.609-16.1L614.609-16.1c-2.189,0-3.979,1.75-4.029,3.93h8.06
		C618.58-14.35,616.8-16.1,614.609-16.1z"/>
	<path style="fill-rule:evenodd;clip-rule:evenodd;fill:#FFFFFF;" d="M637.27,6.55c-0.739-0.09-1.439-0.3-2.04-0.68
		c-1.84-1.14-2.25-3.34-1.97-5.54c0.12-0.97,0.36-1.88,0.65-2.77c0.229-0.72,0.51-1.44,0.81-2.13c0.65-1.51,1.42-2.97,2.28-4.39
		c2.77-4.59,6.43-8.939,10.64-12.72c0.25-0.23,0.51-0.45,0.771-0.68c-6.19,2.19-10.69,6.51-13.471,12.17
		c0.261-8.46,7.211-15.26,15.75-15.26c0.521,0,1.03,0.03,1.54,0.08c1.54-1.08,3.15-2.04,4.83-2.8c0.91-0.399,1.83-0.74,2.811-0.98
		c0.659-0.16,1.37-0.26,2.1-0.23c0.57,0.03,1.09,0.13,1.57,0.31c0.399,0.16,0.779,0.39,1.1,0.7c1.78,1.74,1.44,4.74,1.04,7.12
		c-0.01-1.24-0.05-2.42-0.31-3.52c-0.15-0.65-0.36-1.3-0.73-1.84c-0.18-0.28-0.42-0.55-0.7-0.75c-1.24-0.89-3.069-0.2-4.229,0.37
		c-0.28,0.14-0.561,0.29-0.83,0.45c-0.38,0.22-0.76,0.45-1.12,0.7c-0.61,0.41-1.21,0.84-1.8,1.3c6.109,2.17,10.49,8.01,10.49,14.85
		c0,0.35-0.011,0.69-0.04,1.02h-10.881v-0.01h-9.68v1.52c0,2.66,2.17,4.83,4.84,4.83c2.21,0,4.08-1.49,4.65-3.51h10.63
		c-1.71,6.84-7.91,11.91-15.28,11.91c-2.04,0-3.99-0.38-5.779-1.09c-1.25,0.51-2.53,0.95-3.88,1.26
		C639.88,6.51,638.55,6.72,637.27,6.55L637.27,6.55z M641.109,5.101L641.109,5.101c0.94-0.07,1.86-0.2,2.76-0.37
		c0.101-0.021,0.211-0.041,0.32-0.06c-3.05-1.38-5.58-3.7-7.22-6.59c-0.271,0.55-0.51,1.12-0.73,1.7
		c-0.27,0.71-0.479,1.47-0.55,2.27c-0.029,0.35-0.029,0.73,0.051,1.06c0.369,1.81,2.619,2.05,4.329,2.03
		C640.42,5.14,640.77,5.12,641.109,5.101L641.109,5.101z M650.689-17.04L650.689-17.04c-2.63,0-4.77,2.1-4.84,4.71h9.67
		C655.46-14.94,653.319-17.04,650.689-17.04z"/>
	<path style="fill-rule:evenodd;clip-rule:evenodd;fill:#FFFFFF;" d="M677,11.041c-0.931-0.12-1.8-0.38-2.55-0.85
		c-2.301-1.43-2.811-4.18-2.471-6.93c0.16-1.21,0.46-2.35,0.82-3.46c0.28-0.91,0.63-1.8,1.01-2.66c0.811-1.89,1.78-3.72,2.851-5.49
		c3.47-5.75,8.04-11.18,13.31-15.9c0.311-0.29,0.63-0.57,0.96-0.85c-7.74,2.74-13.359,8.13-16.85,15.22
		c0.33-10.59,9.02-19.08,19.689-19.08c0.65,0,1.301,0.03,1.93,0.09c1.92-1.35,3.94-2.54,6.041-3.49c1.13-0.51,2.279-0.93,3.51-1.23
		c0.819-0.2,1.71-0.33,2.63-0.29c0.71,0.03,1.35,0.16,1.95,0.39c0.5,0.2,0.979,0.48,1.39,0.88c2.22,2.17,1.79,5.92,1.3,8.89
		c-0.01-1.54-0.07-3.02-0.39-4.4c-0.19-0.81-0.46-1.62-0.91-2.291c-0.24-0.35-0.53-0.689-0.88-0.94
		c-1.561-1.109-3.84-0.26-5.29,0.46c-0.351,0.18-0.7,0.36-1.04,0.56c-0.479,0.28-0.94,0.57-1.4,0.88c-0.76,0.51-1.51,1.05-2.25,1.62
		c7.641,2.72,13.11,10.01,13.11,18.57c0,0.43-0.01,0.85-0.04,1.27H699.82V-8h-12.091v1.89c0,3.34,2.71,6.05,6.04,6.05
		c2.771,0,5.101-1.86,5.82-4.4h13.29c-2.15,8.56-9.89,14.9-19.11,14.9c-2.55,0-4.99-0.49-7.22-1.37c-1.56,0.64-3.16,1.19-4.851,1.58
		C680.27,10.99,678.59,11.25,677,11.041L677,11.041z M681.8,9.22L681.8,9.22c1.17-0.09,2.33-0.25,3.45-0.46
		c0.13-0.02,0.26-0.04,0.399-0.07c-3.81-1.73-6.97-4.63-9.029-8.24c-0.33,0.69-0.641,1.4-0.91,2.12c-0.33,0.89-0.601,1.83-0.69,2.84
		c-0.04,0.44-0.029,0.91,0.061,1.32c0.479,2.27,3.279,2.57,5.41,2.54C680.939,9.271,681.37,9.25,681.8,9.22L681.8,9.22z
		 M693.77-18.46L693.77-18.46c-3.28,0-5.96,2.63-6.04,5.89h12.091C699.739-15.83,697.06-18.46,693.77-18.46z"/>
	<path style="fill-rule:evenodd;clip-rule:evenodd;fill:#FFFFFF;" d="M552.55-1.67c-0.41-0.05-0.79-0.16-1.11-0.37
		c-1-0.61-1.22-1.81-1.069-3c0.069-0.52,0.199-1.02,0.35-1.5c0.13-0.39,0.28-0.78,0.44-1.15c0.35-0.82,0.77-1.62,1.24-2.38
		c1.499-2.49,3.479-4.85,5.76-6.89c0.14-0.13,0.279-0.25,0.42-0.37c-3.351,1.19-5.79,3.52-7.301,6.59
		c0.141-4.58,3.91-8.26,8.53-8.26c0.28,0,0.561,0.01,0.84,0.041c0.83-0.59,1.7-1.1,2.61-1.521c0.49-0.21,0.99-0.4,1.53-0.53
		c0.35-0.08,0.739-0.14,1.13-0.12c0.31,0.01,0.59,0.07,0.85,0.17c0.221,0.08,0.431,0.2,0.6,0.38c0.961,0.94,0.78,2.56,0.561,3.85
		c0-0.669-0.03-1.31-0.16-1.91c-0.09-0.35-0.2-0.7-0.4-0.99c-0.1-0.15-0.229-0.3-0.379-0.41c-0.671-0.48-1.66-0.11-2.291,0.2
		c-0.149,0.08-0.3,0.16-0.449,0.24c-0.21,0.12-0.41,0.25-0.61,0.38c-0.33,0.23-0.649,0.46-0.97,0.71c3.31,1.18,5.68,4.33,5.68,8.04
		c0,0.19-0.01,0.37-0.02,0.56h-5.9v-0.01h-5.24v0.82c0,1.451,1.18,2.62,2.62,2.62c1.2,0,2.21-0.81,2.521-1.9h5.76
		c-0.93,3.7-4.28,6.45-8.28,6.45c-1.1,0-2.16-0.21-3.13-0.59c-0.68,0.27-1.37,0.51-2.1,0.68C553.96-1.69,553.229-1.58,552.55-1.67
		L552.55-1.67z M554.62-2.459L554.62-2.459c0.51-0.03,1.01-0.11,1.5-0.19c0.06-0.021,0.109-0.03,0.17-0.041
		c-1.65-0.75-3.021-2-3.91-3.57c-0.141,0.3-0.28,0.61-0.391,0.92c-0.149,0.39-0.27,0.8-0.3,1.23c-0.02,0.19-0.02,0.4,0.021,0.57
		c0.21,0.99,1.42,1.12,2.35,1.11C554.25-2.44,554.439-2.44,554.62-2.459L554.62-2.459z M559.81-14.45L559.81-14.45
		c-1.42,0-2.58,1.14-2.62,2.55h5.24C562.399-13.31,561.239-14.45,559.81-14.45z"/>
</g>
</svg>
