<?xml version="1.0" encoding="utf-8"?>
<!-- Generator: Adobe Illustrator 15.0.0, SVG Export Plug-In . SVG Version: 6.00 Build 0)  -->
<!DOCTYPE svg PUBLIC "-//W3C//DTD SVG 1.1//EN" "http://www.w3.org/Graphics/SVG/1.1/DTD/svg11.dtd">
<svg version="1.1" id="Layer_2" xmlns="http://www.w3.org/2000/svg" xmlns:xlink="http://www.w3.org/1999/xlink" x="0px" y="0px"
	 width="162px" height="148px" viewBox="0 0 162 148" enable-background="new 0 0 162 148" xml:space="preserve">
<path d="M119.891,65.381l-19.115-25.528l-14.058-3.003l-1.047-3.373l0.043-0.451l-0.183,0l-0.042-0.135l-8.488,0.067l-8.489-0.067
	l-0.042,0.135l-0.183,0l0.043,0.451l-1.047,3.373l-14.058,3.003L34.111,65.381L31.518,96.37l11.741,19.524l9.283-4.643
	c0,0,9.346,7.188,24.459,6.827c15.112,0.361,24.458-6.827,24.458-6.827l9.283,4.643l11.741-19.524L119.891,65.381z M51.995,101.013
	l-9.418-18.705L52.68,69.886C55.954,88.723,51.995,101.013,51.995,101.013z M102.006,101.013c0,0-3.959-12.29-0.685-31.126
	l10.103,12.422L102.006,101.013z"/>
</svg>
