<?xml version="1.0" encoding="utf-8"?>
<!-- Generator: Adobe Illustrator 15.0.0, SVG Export Plug-In . SVG Version: 6.00 Build 0)  -->
<!DOCTYPE svg PUBLIC "-//W3C//DTD SVG 1.1//EN" "http://www.w3.org/Graphics/SVG/1.1/DTD/svg11.dtd">
<svg version="1.1" id="Layer_2" xmlns="http://www.w3.org/2000/svg" xmlns:xlink="http://www.w3.org/1999/xlink" x="0px" y="0px"
	 width="162px" height="148px" viewBox="0 0 162 148" enable-background="new 0 0 162 148" xml:space="preserve">
<path d="M130.012,62.443c-8.509-17.765-24.963-27.59-36.751-21.944c-3.603,1.726-6.347,4.7-8.187,8.501h-15.48
	c-1.839-3.801-4.584-6.775-8.187-8.501c-11.788-5.646-28.243,4.179-36.751,21.944c-8.509,17.766-5.85,36.745,5.938,42.391
	c8.92,4.273,20.51-0.318,29.31-10.501h34.86c8.8,10.183,20.39,14.774,29.31,10.501C135.862,99.188,138.521,80.209,130.012,62.443z
	 M61.167,73.483H51.65V83h-7.3v-9.517h-9.517v-7.3h9.517v-9.517h7.3v9.517h9.517V73.483z M97.5,63c0-3.59,2.91-6.5,6.5-6.5
	s6.5,2.91,6.5,6.5s-2.91,6.5-6.5,6.5S97.5,66.59,97.5,63z M114.667,86.5c-3.59,0-6.5-2.91-6.5-6.5s2.91-6.5,6.5-6.5
	s6.5,2.91,6.5,6.5S118.257,86.5,114.667,86.5z"/>
</svg>
