<?xml version="1.0" encoding="iso-8859-1"?>
<!-- Generator: Adobe Illustrator 15.0.0, SVG Export Plug-In . SVG Version: 6.00 Build 0)  -->
<!DOCTYPE svg PUBLIC "-//W3C//DTD SVG 1.1//EN" "http://www.w3.org/Graphics/SVG/1.1/DTD/svg11.dtd">
<svg version="1.1" xmlns="http://www.w3.org/2000/svg" xmlns:xlink="http://www.w3.org/1999/xlink" x="0px" y="0px" width="300px"
	 height="300px" viewBox="0 0 300 300" style="enable-background:new 0 0 300 300;" xml:space="preserve">
<g id="Layer_1">
	<g>
		<rect x="0.56" y="-0.31" style="fill-rule:evenodd;clip-rule:evenodd;fill:#666666;" width="300" height="300"/>
		<g>
			<g>
				<path style="fill-rule:evenodd;clip-rule:evenodd;fill:#FFFFFF;" d="M50.9,169.71c-0.32-0.71,0-1.54,0.71-1.86
					c1.85-0.83,2.6-1.63,2.81-2.229c0.09-0.271,0.11-0.601-0.02-1c-0.12-0.44-0.42-0.96-0.98-1.63c-0.48-0.58-0.41-1.46,0.17-1.96
					c0.6-0.5,1.48-0.41,1.96,0.17c0.71,0.83,1.25,1.71,1.52,2.6c0.27,0.9,0.29,1.84-0.02,2.72c-0.6,1.73-2.25,2.961-4.32,3.881
					C52.05,170.71,51.21,170.4,50.9,169.71z M58.72,165.64l1.86-3.88l-3.13,1.29c-0.4-0.79-0.94-1.58-1.59-2.33
					c-0.71-0.83-1.96-0.96-2.79-0.25c-0.84,0.71-0.94,1.96-0.23,2.79c0.31,0.38,0.58,0.71,0.77,1.05c-0.98-0.109-1.9-0.729-2.3-1.71
					c-0.6-1.42,0.09-3.05,1.51-3.63l11.14-4.649c0.2-0.09,0.16-0.07,0.35-0.09c-0.86,0.75-1.44,1.46-2.09,2.399
					c-0.68,0.67-0.56,1.75,0.11,2.44c0.66,0.689,1.75,0.71,2.44,0.04c1.36-0.96,2.1-2.04,2.86-3.17c0,0.02-0.03-0.141-0.03-0.12
					c0.32,0.71,0.3,1.46,0,2.12l-0.25,0.399l-2.79,5.84l3.4-0.1l3.59-7.53c-0.21-0.319-1.99-3.939-2.21-4.47
					c-0.32-3.04-0.76-4.42-2.99-7.17c-0.79-0.98-2.21-1.13-3.17-0.33c-0.96,0.77-1,1.93-0.23,2.9c0.71,0.58,1.15,1.22,1.57,1.87
					c-0.23,0.15-1.27,0.13-1.84-0.08c-0.73-0.27-2.48-1.94-2.13-3.96c0.34-2.03,2.28-3.38,4.3-3.03c3.44,0.61,6.45,1.61,8.8,3.57
					c2.44,2,3.8,4.67,4.61,7.76c0.32,1.18,0,2.42-0.73,3.31c-0.04,0.09-0.08,0.19-0.12,0.271l-2.67,5.63l8.88-0.311
					c1.55-0.06,2.84,1.15,2.88,2.69c0.06,1.53-1.14,2.819-2.69,2.88l-8.78,0.31c-0.21,0.07-0.42,0.11-0.65,0.11l-13.47,0.46
					C59.18,169.02,57.99,167.2,58.72,165.64z M43.02,159.68c0.18-1.96,1.91-3.43,3.87-3.26c1.97,0.19,3.42,1.92,3.24,3.88
					c-0.17,1.96-1.9,3.42-3.86,3.23C44.31,163.37,42.85,161.64,43.02,159.68z M62.74,158.59c-0.54-0.54-0.52-1.42,0.05-1.96
					c2.1-2.06,2.89-3.71,2.94-5.07c0.04-1.379-0.63-2.83-2.25-4.589c-0.53-0.56-0.5-1.44,0.06-1.96c0.56-0.52,1.44-0.5,1.98,0.06
					c1.86,1.99,3.06,4.16,2.98,6.57c-0.08,2.42-1.42,4.7-3.77,6.99C64.16,159.15,63.29,159.15,62.74,158.59z M50.58,143.84
					c0.21-2.31,2.26-4,4.55-3.79c2.3,0.21,4.01,2.23,3.8,4.53c-0.21,2.29-2.23,4-4.55,3.79C52.09,148.16,50.4,146.14,50.58,143.84z"
					/>
				<rect x="42.25" y="132.78" style="fill-rule:evenodd;clip-rule:evenodd;fill:none;" width="45" height="45"/>
			</g>
			<g>
				<path style="fill-rule:evenodd;clip-rule:evenodd;fill:#FFFFFF;" d="M98.03,166.82c-0.25-0.57,0-1.23,0.56-1.48
					c1.49-0.67,2.09-1.31,2.26-1.79c0.06-0.21,0.08-0.479-0.02-0.8c-0.1-0.35-0.33-0.77-0.78-1.3c-0.39-0.47-0.34-1.17,0.13-1.57
					c0.48-0.399,1.18-0.33,1.57,0.13c0.56,0.67,1,1.37,1.21,2.09c0.22,0.721,0.24,1.471-0.01,2.17c-0.48,1.381-1.8,2.37-3.45,3.101
					C98.95,167.62,98.28,167.37,98.03,166.82z M104.28,163.57l1.49-3.101l-2.5,1.03c-0.32-0.64-0.76-1.27-1.27-1.87
					c-0.57-0.67-1.57-0.77-2.24-0.2c-0.67,0.57-0.75,1.57-0.18,2.24c0.25,0.3,0.47,0.561,0.62,0.83c-0.79-0.08-1.52-0.58-1.84-1.37
					c-0.48-1.13,0.07-2.43,1.2-2.899l8.91-3.721c0.17-0.069,0.14-0.05,0.29-0.069c-0.69,0.6-1.16,1.17-1.67,1.92
					c-0.55,0.529-0.45,1.399,0.08,1.949c0.53,0.551,1.4,0.57,1.95,0.03c1.09-0.76,1.69-1.63,2.29-2.53c0,0.021-0.02-0.119-0.02-0.1
					c0.25,0.57,0.24,1.17,0,1.7l-0.2,0.32l-2.23,4.67l2.72-0.08l2.87-6.03c-0.17-0.25-1.59-3.15-1.77-3.57
					c-0.25-2.43-0.6-3.54-2.39-5.74c-0.63-0.78-1.77-0.9-2.53-0.26c-0.77,0.61-0.81,1.55-0.19,2.32c0.57,0.46,0.92,0.98,1.25,1.5
					c-0.18,0.11-1.02,0.1-1.47-0.07c-0.58-0.22-1.98-1.55-1.7-3.17c0.27-1.62,1.82-2.7,3.44-2.42c2.75,0.48,5.16,1.28,7.04,2.85
					c1.95,1.6,3.04,3.74,3.69,6.21c0.25,0.949,0,1.939-0.59,2.649c-0.03,0.07-0.06,0.15-0.1,0.22l-2.13,4.5l7.11-0.25
					c1.23-0.04,2.26,0.921,2.3,2.16c0.05,1.221-0.92,2.25-2.15,2.3l-7.03,0.25c-0.16,0.051-0.33,0.08-0.52,0.08l-10.78,0.37
					C104.65,166.27,103.7,164.82,104.28,163.57z M91.72,158.8c0.15-1.569,1.54-2.74,3.1-2.609c1.57,0.149,2.74,1.54,2.59,3.109
					c-0.13,1.561-1.52,2.73-3.09,2.58C92.75,161.75,91.59,160.37,91.72,158.8z M107.5,157.93c-0.43-0.43-0.41-1.14,0.04-1.569
					c1.68-1.65,2.32-2.971,2.35-4.061c0.03-1.1-0.5-2.26-1.8-3.67c-0.42-0.45-0.4-1.15,0.05-1.56c0.45-0.42,1.15-0.4,1.58,0.04
					c1.49,1.59,2.46,3.33,2.39,5.26c-0.07,1.939-1.14,3.76-3.02,5.59C108.64,158.38,107.94,158.38,107.5,157.93z M97.78,146.13
					c0.16-1.85,1.8-3.2,3.63-3.04c1.84,0.17,3.21,1.79,3.04,3.63c-0.17,1.83-1.78,3.2-3.64,3.03
					C98.98,149.59,97.63,147.97,97.78,146.13z"/>
				<rect x="91.11" y="137.28" style="fill-rule:evenodd;clip-rule:evenodd;fill:none;" width="36" height="36"/>
			</g>
			<g>
				<path style="fill-rule:evenodd;clip-rule:evenodd;fill:#FFFFFF;" d="M136.73,164.9c-0.21-0.48,0-1.03,0.47-1.24
					c1.24-0.561,1.74-1.08,1.88-1.49c0.06-0.18,0.07-0.4-0.01-0.66c-0.09-0.3-0.28-0.649-0.66-1.09c-0.32-0.39-0.27-0.97,0.12-1.31
					c0.4-0.33,0.98-0.271,1.3,0.109c0.47,0.561,0.84,1.141,1.02,1.74c0.18,0.6,0.19,1.23-0.02,1.81c-0.4,1.16-1.5,1.98-2.88,2.591
					C137.5,165.56,136.94,165.36,136.73,164.9z M141.94,162.19l1.24-2.591l-2.08,0.86c-0.27-0.53-0.63-1.05-1.06-1.56
					c-0.47-0.551-1.31-0.631-1.86-0.16c-0.56,0.47-0.63,1.3-0.16,1.859c0.21,0.25,0.39,0.471,0.52,0.7
					c-0.66-0.069-1.27-0.49-1.53-1.14c-0.41-0.95,0.05-2.03,1-2.42l7.43-3.101c0.13-0.06,0.11-0.05,0.23-0.06
					c-0.57,0.5-0.96,0.97-1.39,1.6c-0.46,0.44-0.37,1.17,0.07,1.63s1.17,0.471,1.63,0.021c0.9-0.64,1.4-1.36,1.9-2.11
					c0,0.021-0.01-0.1-0.01-0.08c0.21,0.471,0.19,0.971,0,1.42l-0.17,0.261l-1.86,3.89l2.27-0.07l2.39-5.02
					c-0.14-0.2-1.33-2.62-1.48-2.97c-0.21-2.03-0.5-2.95-1.99-4.791c-0.53-0.65-1.47-0.75-2.11-0.22c-0.64,0.52-0.67,1.3-0.15,1.94
					c0.47,0.38,0.76,0.81,1.04,1.25c-0.15,0.09-0.85,0.08-1.22-0.061c-0.49-0.18-1.66-1.29-1.42-2.64c0.22-1.35,1.51-2.25,2.86-2.02
					c2.3,0.41,4.3,1.07,5.871,2.38c1.63,1.33,2.529,3.12,3.069,5.17c0.21,0.8,0,1.62-0.479,2.21c-0.03,0.06-0.061,0.13-0.09,0.18
					l-1.78,3.76l5.93-0.21c1.03-0.04,1.891,0.761,1.91,1.79c0.05,1.021-0.76,1.88-1.79,1.92l-5.85,0.21
					c-0.141,0.04-0.28,0.07-0.431,0.07l-8.99,0.311C142.25,164.44,141.46,163.23,141.94,162.19z M131.48,158.21
					c0.12-1.31,1.27-2.28,2.58-2.17c1.31,0.13,2.28,1.28,2.16,2.59c-0.11,1.3-1.27,2.28-2.58,2.15
					C132.34,160.67,131.36,159.52,131.48,158.21z M144.63,157.49c-0.36-0.36-0.35-0.95,0.03-1.311c1.4-1.38,1.93-2.479,1.96-3.38
					c0.02-0.92-0.42-1.89-1.5-3.06c-0.35-0.37-0.34-0.96,0.04-1.31c0.37-0.34,0.96-0.33,1.32,0.05c1.24,1.32,2.04,2.76,1.99,4.38
					c-0.06,1.609-0.95,3.12-2.52,4.649C145.57,157.86,144.99,157.86,144.63,157.49z M136.52,147.65c0.14-1.54,1.5-2.66,3.03-2.53
					c1.53,0.14,2.67,1.49,2.53,3.02c-0.14,1.53-1.48,2.67-3.03,2.53C137.52,150.53,136.4,149.19,136.52,147.65z"/>
				<rect x="130.97" y="140.28" style="fill-rule:evenodd;clip-rule:evenodd;fill:none;" width="30" height="30"/>
			</g>
			<g>
				<path style="fill-rule:evenodd;clip-rule:evenodd;fill:#FFFFFF;" d="M169.15,162.49c-0.16-0.351,0-0.771,0.35-0.931
					c0.93-0.409,1.3-0.81,1.41-1.109c0.04-0.141,0.05-0.3-0.01-0.5c-0.061-0.22-0.21-0.48-0.49-0.82
					c-0.24-0.29-0.21-0.729,0.08-0.979c0.3-0.25,0.74-0.2,0.979,0.09c0.36,0.41,0.63,0.85,0.761,1.3
					c0.14,0.45,0.149,0.92-0.011,1.36c-0.3,0.859-1.12,1.479-2.149,1.939C169.72,162.99,169.3,162.84,169.15,162.49z M173.06,160.46
					l0.931-1.94l-1.57,0.65c-0.2-0.4-0.47-0.8-0.79-1.17c-0.36-0.42-0.979-0.48-1.399-0.13c-0.421,0.36-0.471,0.979-0.11,1.399
					c0.149,0.19,0.29,0.351,0.38,0.521c-0.49-0.05-0.95-0.36-1.14-0.85c-0.311-0.71,0.04-1.53,0.75-1.82l5.569-2.32
					c0.101-0.05,0.08-0.04,0.17-0.05c-0.42,0.38-0.72,0.73-1.04,1.2c-0.34,0.34-0.279,0.88,0.051,1.22
					c0.34,0.35,0.88,0.36,1.22,0.021c0.68-0.48,1.06-1.021,1.43-1.58c0,0.01-0.01-0.07-0.01-0.061c0.16,0.351,0.15,0.73,0,1.061
					l-0.13,0.199l-1.39,2.921l1.699-0.051l1.79-3.77c-0.1-0.15-0.989-1.97-1.1-2.23c-0.16-1.52-0.38-2.21-1.5-3.59
					c-0.39-0.49-1.101-0.56-1.58-0.16c-0.48,0.38-0.5,0.97-0.12,1.45c0.36,0.29,0.58,0.61,0.79,0.93c-0.12,0.08-0.64,0.07-0.92-0.04
					c-0.37-0.13-1.24-0.97-1.06-1.979c0.159-1.01,1.13-1.69,2.14-1.51c1.72,0.3,3.229,0.8,4.399,1.78c1.221,1,1.9,2.34,2.311,3.88
					c0.16,0.6,0,1.21-0.37,1.659c-0.02,0.04-0.04,0.091-0.06,0.131l-1.33,2.819l4.439-0.16c0.771-0.029,1.42,0.58,1.44,1.351
					c0.03,0.76-0.57,1.41-1.351,1.439l-4.39,0.15c-0.1,0.04-0.21,0.06-0.32,0.06l-6.739,0.23
					C173.29,162.15,172.69,161.24,173.06,160.46z M165.21,157.48c0.09-0.98,0.96-1.721,1.94-1.631c0.979,0.091,1.71,0.96,1.609,1.94
					c-0.08,0.979-0.95,1.71-1.93,1.61C165.85,159.32,165.12,158.46,165.21,157.48z M175.07,156.93
					c-0.271-0.27-0.261-0.71,0.02-0.979c1.061-1.03,1.45-1.851,1.47-2.53c0.021-0.689-0.31-1.42-1.119-2.29
					c-0.271-0.29-0.25-0.72,0.029-0.99c0.28-0.26,0.721-0.25,0.99,0.04c0.93,0.99,1.53,2.07,1.49,3.28s-0.71,2.35-1.891,3.49
					C175.78,157.21,175.34,157.21,175.07,156.93z M168.99,149.56c0.1-1.16,1.13-2,2.27-1.9c1.15,0.11,2.01,1.12,1.9,2.27
					c-0.101,1.14-1.11,2-2.271,1.89C169.74,151.72,168.9,150.71,168.99,149.56z"/>
				<rect x="164.82" y="144.03" style="fill-rule:evenodd;clip-rule:evenodd;fill:none;" width="22.5" height="22.5"/>
			</g>
			<g>
				<path style="fill-rule:evenodd;clip-rule:evenodd;fill:#FFFFFF;" d="M194.93,161.53c-0.14-0.311,0-0.67,0.301-0.811
					c0.81-0.359,1.13-0.7,1.229-0.96c0.03-0.12,0.04-0.26-0.01-0.439c-0.061-0.19-0.181-0.41-0.431-0.7
					c-0.21-0.25-0.18-0.63,0.07-0.851c0.271-0.22,0.641-0.18,0.851,0.07c0.31,0.36,0.55,0.74,0.659,1.13
					c0.12,0.391,0.131,0.8-0.01,1.181c-0.26,0.75-0.97,1.279-1.87,1.68C195.43,161.96,195.06,161.83,194.93,161.53z M198.32,159.77
					l0.8-1.68l-1.351,0.561c-0.18-0.351-0.409-0.69-0.689-1.021c-0.311-0.36-0.85-0.41-1.21-0.1c-0.36,0.3-0.41,0.84-0.101,1.21
					c0.131,0.16,0.25,0.3,0.33,0.45c-0.42-0.051-0.819-0.32-0.989-0.74c-0.261-0.62,0.029-1.32,0.649-1.58l4.83-2.01
					c0.09-0.04,0.07-0.03,0.15-0.04c-0.37,0.33-0.63,0.64-0.9,1.04c-0.3,0.29-0.25,0.76,0.04,1.06s0.76,0.311,1.061,0.021
					c0.59-0.421,0.909-0.891,1.239-1.381c0,0.011-0.01-0.06-0.01-0.05c0.13,0.311,0.12,0.63,0,0.92l-0.11,0.17l-1.21,2.53
					l1.471-0.04l1.56-3.26c-0.09-0.14-0.86-1.71-0.96-1.94c-0.14-1.319-0.33-1.909-1.29-3.11c-0.35-0.42-0.96-0.48-1.38-0.14
					c-0.41,0.33-0.43,0.84-0.1,1.26c0.31,0.25,0.5,0.529,0.68,0.81c-0.1,0.06-0.55,0.05-0.8-0.04c-0.311-0.12-1.07-0.84-0.92-1.71
					c0.149-0.88,0.989-1.47,1.859-1.32c1.49,0.27,2.8,0.7,3.82,1.55c1.06,0.869,1.64,2.029,2,3.359c0.13,0.521,0,1.05-0.32,1.44
					c-0.02,0.04-0.04,0.08-0.06,0.12l-1.15,2.439l3.851-0.14c0.67-0.03,1.229,0.5,1.25,1.17c0.02,0.66-0.5,1.22-1.17,1.24
					l-3.811,0.14c-0.08,0.03-0.18,0.05-0.28,0.05l-5.83,0.19C198.52,161.23,198,160.44,198.32,159.77z M191.51,157.18
					c0.08-0.85,0.83-1.479,1.681-1.41c0.85,0.08,1.479,0.83,1.399,1.681c-0.07,0.85-0.82,1.49-1.67,1.399
					C192.07,158.78,191.44,158.03,191.51,157.18z M200.06,156.71c-0.229-0.229-0.22-0.61,0.021-0.85c0.91-0.891,1.26-1.61,1.27-2.19
					c0.021-0.6-0.27-1.229-0.97-1.99c-0.229-0.25-0.22-0.63,0.03-0.85c0.24-0.23,0.62-0.22,0.85,0.03
					c0.811,0.85,1.33,1.791,1.3,2.84c-0.04,1.05-0.619,2.04-1.64,3.03C200.68,156.96,200.3,156.96,200.06,156.71z M194.79,150.32
					c0.09-1,0.979-1.73,1.97-1.64c1,0.09,1.74,0.96,1.65,1.96c-0.09,0.99-0.97,1.73-1.97,1.64S194.71,151.32,194.79,150.32z"/>
				<rect x="191.18" y="145.53" style="fill-rule:evenodd;clip-rule:evenodd;fill:none;" width="19.5" height="19.5"/>
			</g>
			<g>
				<path style="fill-rule:evenodd;clip-rule:evenodd;fill:#FFFFFF;" d="M218,161.05c-0.13-0.29,0-0.62,0.28-0.74
					c0.739-0.34,1.04-0.649,1.13-0.899c0.03-0.101,0.04-0.24-0.01-0.4c-0.051-0.17-0.17-0.38-0.391-0.649
					c-0.189-0.23-0.17-0.58,0.061-0.78c0.25-0.2,0.6-0.17,0.79,0.06c0.279,0.341,0.5,0.69,0.609,1.051
					c0.101,0.359,0.11,0.729-0.01,1.079c-0.24,0.7-0.9,1.19-1.729,1.551C218.46,161.45,218.12,161.32,218,161.05z M221.13,159.42
					l0.74-1.55l-1.25,0.52c-0.16-0.319-0.38-0.64-0.64-0.939c-0.28-0.33-0.78-0.38-1.12-0.101c-0.33,0.29-0.37,0.79-0.091,1.12
					c0.131,0.15,0.24,0.28,0.311,0.42c-0.39-0.04-0.76-0.29-0.92-0.689c-0.24-0.561,0.04-1.21,0.609-1.45l4.45-1.86
					c0.08-0.029,0.07-0.02,0.141-0.029c-0.341,0.3-0.58,0.58-0.83,0.96c-0.28,0.26-0.23,0.699,0.04,0.97
					c0.27,0.28,0.699,0.29,0.97,0.02c0.55-0.38,0.85-0.819,1.15-1.27c0,0.01-0.011-0.06-0.011-0.05c0.12,0.29,0.12,0.59,0,0.85
					l-0.1,0.16l-1.12,2.34l1.36-0.04l1.439-3.02c-0.09-0.12-0.8-1.57-0.89-1.78c-0.12-1.22-0.3-1.77-1.19-2.87
					c-0.319-0.39-0.89-0.45-1.27-0.13c-0.38,0.3-0.4,0.77-0.09,1.16c0.279,0.229,0.46,0.49,0.62,0.75
					c-0.091,0.05-0.5,0.05-0.73-0.04c-0.29-0.11-0.99-0.771-0.85-1.58c0.13-0.81,0.909-1.35,1.72-1.21
					c1.37,0.24,2.58,0.64,3.52,1.42c0.971,0.8,1.521,1.87,1.841,3.11c0.13,0.47,0,0.97-0.29,1.319c-0.021,0.04-0.03,0.08-0.051,0.11
					l-1.069,2.25l3.56-0.12c0.61-0.02,1.13,0.46,1.15,1.08c0.02,0.61-0.46,1.12-1.08,1.15l-3.51,0.119
					c-0.08,0.03-0.17,0.051-0.261,0.051l-5.39,0.18C221.31,160.77,220.83,160.05,221.13,159.42z M214.84,157.04
					c0.08-0.79,0.771-1.37,1.561-1.31c0.779,0.079,1.359,0.77,1.29,1.56c-0.07,0.78-0.761,1.37-1.54,1.29
					C215.36,158.51,214.78,157.82,214.84,157.04z M222.73,156.6c-0.211-0.21-0.2-0.569,0.02-0.779c0.85-0.83,1.16-1.49,1.18-2.03
					c0.011-0.55-0.25-1.13-0.899-1.83c-0.21-0.229-0.2-0.58,0.02-0.79c0.23-0.21,0.58-0.2,0.79,0.03c0.75,0.79,1.23,1.66,1.2,2.62
					c-0.04,0.97-0.57,1.88-1.51,2.8C223.3,156.83,222.95,156.83,222.73,156.6z M217.87,150.7c0.09-0.92,0.899-1.6,1.82-1.51
					c0.92,0.08,1.6,0.89,1.52,1.81c-0.08,0.91-0.89,1.6-1.82,1.51C218.47,152.43,217.8,151.62,217.87,150.7z"/>
				<rect x="214.54" y="146.28" style="fill-rule:evenodd;clip-rule:evenodd;fill:none;" width="18" height="18"/>
			</g>
			<g>
				<path style="fill-rule:evenodd;clip-rule:evenodd;fill:#FFFFFF;" d="M239.28,160.09c-0.11-0.24,0-0.52,0.229-0.62
					c0.62-0.279,0.87-0.55,0.94-0.75c0.03-0.09,0.04-0.2-0.01-0.33c-0.04-0.149-0.131-0.319-0.32-0.54
					c-0.16-0.199-0.14-0.489,0.05-0.659c0.21-0.16,0.5-0.131,0.66,0.06c0.229,0.28,0.41,0.57,0.5,0.87c0.1,0.3,0.1,0.61,0,0.899
					c-0.2,0.58-0.75,0.99-1.44,1.301C239.66,160.42,239.38,160.32,239.28,160.09z M241.88,158.73l0.62-1.29l-1.04,0.43
					c-0.13-0.271-0.31-0.53-0.53-0.78c-0.239-0.28-0.649-0.32-0.93-0.08c-0.28,0.23-0.31,0.65-0.08,0.931
					c0.11,0.119,0.2,0.229,0.26,0.35c-0.33-0.04-0.63-0.25-0.76-0.57c-0.21-0.479,0.021-1.02,0.5-1.21l3.71-1.55
					c0.07-0.03,0.05-0.03,0.12-0.03c-0.29,0.25-0.48,0.48-0.7,0.801c-0.229,0.22-0.189,0.579,0.04,0.81
					c0.22,0.229,0.58,0.24,0.811,0.01c0.449-0.319,0.699-0.68,0.949-1.05c0,0,0-0.05,0-0.04c0.101,0.23,0.091,0.48,0,0.7l-0.09,0.14
					l-0.93,1.94l1.13-0.03l1.2-2.51c-0.07-0.11-0.66-1.311-0.74-1.49c-0.1-1.01-0.25-1.47-0.99-2.39
					c-0.27-0.33-0.739-0.38-1.06-0.11c-0.32,0.26-0.33,0.64-0.08,0.97c0.24,0.19,0.39,0.4,0.53,0.62
					c-0.08,0.05-0.431,0.04-0.62-0.03c-0.24-0.09-0.82-0.64-0.7-1.319c0.11-0.67,0.75-1.12,1.43-1.01
					c1.141,0.21,2.15,0.541,2.931,1.19c0.81,0.67,1.27,1.561,1.54,2.59c0.1,0.391,0,0.811-0.25,1.101
					c-0.011,0.029-0.021,0.069-0.04,0.09l-0.891,1.88l2.971-0.1c0.51-0.021,0.939,0.38,0.949,0.89c0.03,0.51-0.38,0.939-0.89,0.96
					l-2.93,0.11c-0.07,0.02-0.141,0.029-0.221,0.029l-4.489,0.16C242.04,159.86,241.64,159.25,241.88,158.73z M236.65,156.74
					c0.06-0.65,0.64-1.141,1.29-1.08c0.659,0.06,1.14,0.64,1.079,1.29c-0.06,0.649-0.63,1.14-1.289,1.08
					C237.08,157.97,236.59,157.4,236.65,156.74z M243.23,156.38c-0.181-0.18-0.181-0.47,0.01-0.649c0.7-0.69,0.97-1.24,0.979-1.69
					c0.011-0.46-0.21-0.95-0.75-1.53c-0.18-0.189-0.17-0.479,0.021-0.66c0.189-0.17,0.479-0.159,0.66,0.021
					c0.619,0.67,1.02,1.39,0.989,2.189c-0.02,0.811-0.47,1.57-1.25,2.33C243.7,156.57,243.41,156.57,243.23,156.38z M239.17,151.46
					c0.07-0.77,0.75-1.33,1.521-1.26c0.76,0.07,1.329,0.74,1.26,1.51c-0.07,0.76-0.74,1.33-1.51,1.26
					C239.67,152.9,239.11,152.23,239.17,151.46z"/>
				<rect x="236.4" y="147.78" style="fill-rule:evenodd;clip-rule:evenodd;fill:none;" width="15" height="15"/>
			</g>
			<g>
				<path style="fill-rule:evenodd;clip-rule:evenodd;fill:#FFFFFF;" d="M257.56,159.12c-0.09-0.19,0-0.41,0.19-0.49
					c0.49-0.22,0.69-0.439,0.75-0.6c0.02-0.07,0.03-0.16-0.01-0.261c-0.03-0.119-0.11-0.26-0.26-0.439
					c-0.131-0.15-0.11-0.39,0.05-0.521c0.16-0.13,0.39-0.109,0.52,0.04c0.19,0.23,0.33,0.46,0.4,0.7c0.08,0.24,0.08,0.49,0,0.72
					c-0.16,0.461-0.601,0.79-1.15,1.04C257.86,159.39,257.64,159.31,257.56,159.12z M259.64,158.04l0.5-1.04l-0.84,0.35
					c-0.1-0.21-0.25-0.42-0.42-0.619c-0.189-0.23-0.52-0.261-0.74-0.07c-0.229,0.189-0.25,0.52-0.069,0.74
					c0.09,0.109,0.16,0.189,0.21,0.279c-0.261-0.02-0.511-0.189-0.61-0.449c-0.16-0.381,0.021-0.811,0.4-0.971l2.97-1.24
					c0.06-0.02,0.04-0.02,0.09-0.02c-0.22,0.2-0.38,0.39-0.55,0.64c-0.19,0.17-0.15,0.46,0.03,0.65c0.17,0.18,0.46,0.19,0.649,0.01
					c0.36-0.26,0.561-0.55,0.76-0.85c0,0.01-0.01-0.04-0.01-0.03c0.09,0.19,0.08,0.39,0,0.57l-0.06,0.1l-0.75,1.561l0.91-0.03
					l0.949-2.01c-0.05-0.08-0.52-1.051-0.59-1.19c-0.08-0.81-0.2-1.18-0.79-1.91c-0.21-0.26-0.59-0.3-0.85-0.09
					c-0.25,0.21-0.26,0.521-0.061,0.771c0.19,0.159,0.311,0.329,0.421,0.51c-0.061,0.03-0.341,0.03-0.49-0.03
					c-0.19-0.07-0.66-0.51-0.57-1.05s0.61-0.91,1.15-0.811c0.92,0.16,1.72,0.431,2.35,0.95c0.65,0.53,1.01,1.25,1.22,2.07
					c0.091,0.32,0,0.64-0.189,0.88c-0.01,0.03-0.021,0.05-0.03,0.08l-0.71,1.5l2.36-0.09c0.42-0.01,0.76,0.31,0.77,0.72
					c0.021,0.41-0.3,0.75-0.72,0.771l-2.34,0.079c-0.05,0.021-0.11,0.03-0.17,0.03l-3.59,0.12
					C259.77,158.94,259.45,158.46,259.64,158.04z M255.46,156.45c0.05-0.521,0.51-0.91,1.03-0.87c0.52,0.05,0.91,0.51,0.859,1.03
					c-0.04,0.529-0.5,0.92-1.029,0.87C255.8,157.43,255.41,156.97,255.46,156.45z M260.72,156.16c-0.149-0.15-0.14-0.38,0.011-0.521
					c0.56-0.55,0.77-0.989,0.779-1.359c0.01-0.36-0.16-0.75-0.6-1.221c-0.141-0.149-0.13-0.38,0.02-0.52
					c0.15-0.14,0.38-0.14,0.53,0.01c0.49,0.53,0.81,1.11,0.79,1.76c-0.02,0.641-0.38,1.25-1,1.86
					C261.1,156.31,260.86,156.31,260.72,156.16z M257.47,152.23c0.061-0.62,0.601-1.07,1.221-1.021c0.609,0.06,1.06,0.6,1.01,1.21
					c-0.061,0.61-0.601,1.07-1.21,1.01C257.87,153.38,257.42,152.84,257.47,152.23z"/>
				<rect x="255.25" y="149.28" style="fill-rule:evenodd;clip-rule:evenodd;fill:none;" width="12" height="12"/>
			</g>
		</g>
	</g>
</g>
<g id="Guides">
</g>
</svg>
