<?xml version="1.0" encoding="iso-8859-1"?>
<!-- Generator: Adobe Illustrator 15.0.0, SVG Export Plug-In . SVG Version: 6.00 Build 0)  -->
<!DOCTYPE svg PUBLIC "-//W3C//DTD SVG 1.1//EN" "http://www.w3.org/Graphics/SVG/1.1/DTD/svg11.dtd">
<svg version="1.1" id="Layer_1" xmlns="http://www.w3.org/2000/svg" xmlns:xlink="http://www.w3.org/1999/xlink" x="0px" y="0px"
	 width="612px" height="792px" viewBox="0 0 612 792" style="enable-background:new 0 0 612 792;" xml:space="preserve">
<g>
	<path d="M313.98,449.207l4.846-37.006l3.083-3.524l0.294-7.93l0.041-0.011l-13.43-19.72l-0.121,0.053l-59.328-39.65l-4.699,1.762
		l4.993,5.287l3.23,2.35l2.35,2.056l4.112,2.35l-0.881,9.839l17.916,9.251l24.671,23.79l-2.35,7.636l0.587,42l10.279,3.671
		l-1.468,9.251l19.384,0.587c0,0-5.581-3.231-9.986-4.993C313.099,454.493,313.98,449.207,313.98,449.207z"/>
	<path d="M351.28,379.599c1.175,1.469,13.804-6.461,6.755-16.3c-7.049-9.839-16.3-4.405-16.3-4.405l-0.147,4.259l-2.056,7.636
		l-4.993-4.405l-3.524-0.881l-27.314-14.979l-2.35,8.518l21.293,15.86l-9.184,4.06l13.921,20.373l7.745-2.112l-1.468,6.461
		l9.986-0.294l11.307-11.454C354.951,391.935,350.105,378.131,351.28,379.599z"/>
</g>
<path d="M331.333,404.333c0,2.025-1.642,3.667-3.667,3.667l0,0c-2.025,0-3.667-1.642-3.667-3.667l0,0
	c0-2.025,1.642-3.667,3.667-3.667l0,0C329.691,400.667,331.333,402.308,331.333,404.333L331.333,404.333z"/>
<rect x="333.333" y="407" transform="matrix(0.9414 -0.3374 0.3374 0.9414 -120.0165 137.412)" width="4" height="14"/>
<rect x="322.666" y="409.667" transform="matrix(0.9918 0.1274 -0.1274 0.9918 55.7494 -37.9793)" width="4" height="14"/>
<path d="M297.155,349.55c0.58-1.099,1.634-1.682,2.355-1.302l5.222,2.754c0.721,0.38,0.835,1.579,0.256,2.678l0,0
	c-0.58,1.099-1.634,1.682-2.355,1.302l-5.222-2.754C296.69,351.849,296.575,350.649,297.155,349.55L297.155,349.55z"/>
<ellipse transform="matrix(-0.9547 -0.2975 0.2975 -0.9547 475.8399 775.8297)" cx="296.955" cy="351.707" rx="4.135" ry="4.785"/>
</svg>
