<?xml version="1.0" encoding="iso-8859-1"?>
<!-- Generator: Adobe Illustrator 15.0.0, SVG Export Plug-In . SVG Version: 6.00 Build 0)  -->
<!DOCTYPE svg PUBLIC "-//W3C//DTD SVG 1.1//EN" "http://www.w3.org/Graphics/SVG/1.1/DTD/svg11.dtd">
<svg version="1.1" id="Layer_1" xmlns="http://www.w3.org/2000/svg" xmlns:xlink="http://www.w3.org/1999/xlink" x="0px" y="0px"
	 width="612px" height="792px" viewBox="0 0 612 792" style="enable-background:new 0 0 612 792;" xml:space="preserve">
<g>
	<path d="M257.331,339h-10.328c-3.131,0-5.669,2.538-5.669,5.669v10.328c0,3.131,2.538,5.669,5.669,5.669h10.328
		c3.131,0,5.669-2.538,5.669-5.669V344.67C263,341.539,260.462,339,257.331,339z"/>
	<path d="M367.331,339h-90.328c-3.131,0-5.669,2.538-5.669,5.669v10.328c0,3.131,2.538,5.669,5.669,5.669h90.328
		c3.131,0,5.669-2.538,5.669-5.669V344.67C373,341.539,370.462,339,367.331,339z"/>
	<path d="M257.331,379h-10.328c-3.131,0-5.669,2.538-5.669,5.669v10.328c0,3.131,2.538,5.669,5.669,5.669h10.328
		c3.131,0,5.669-2.538,5.669-5.669V384.67C263,381.539,260.462,379,257.331,379z"/>
	<path d="M367.331,379h-90.328c-3.131,0-5.669,2.538-5.669,5.669v10.328c0,3.131,2.538,5.669,5.669,5.669h90.328
		c3.131,0,5.669-2.538,5.669-5.669V384.67C373,381.539,370.462,379,367.331,379z"/>
	<path d="M257.331,419h-10.328c-3.131,0-5.669,2.538-5.669,5.669v10.328c0,3.131,2.538,5.669,5.669,5.669h10.328
		c3.131,0,5.669-2.538,5.669-5.669V424.67C263,421.539,260.462,419,257.331,419z"/>
	<path d="M367.331,419h-90.328c-3.131,0-5.669,2.538-5.669,5.669v10.328c0,3.131,2.538,5.669,5.669,5.669h90.328
		c3.131,0,5.669-2.538,5.669-5.669V424.67C373,421.539,370.462,419,367.331,419z"/>
</g>
</svg>
