<?xml version="1.0" encoding="iso-8859-1"?>
<!-- Generator: Adobe Illustrator 15.0.0, SVG Export Plug-In . SVG Version: 6.00 Build 0)  -->
<!DOCTYPE svg PUBLIC "-//W3C//DTD SVG 1.1//EN" "http://www.w3.org/Graphics/SVG/1.1/DTD/svg11.dtd">
<svg version="1.1" id="Layer_1" xmlns="http://www.w3.org/2000/svg" xmlns:xlink="http://www.w3.org/1999/xlink" x="0px" y="0px"
	 width="612px" height="792px" viewBox="0 0 612 792" style="enable-background:new 0 0 612 792;" xml:space="preserve">
<g>
	<polygon points="325.917,313.255 322.917,313.255 322.917,321.255 325.799,321.255 325.917,320.662 	"/>
	<rect x="313.417" y="317.629" transform="matrix(0.5 0.866 -0.866 0.5 435.0697 -115.3295)" width="8" height="3"/>
	<rect x="308.291" y="322.754" transform="matrix(0.8661 0.4999 -0.4999 0.8661 203.9254 -112.6942)" width="8.001" height="3"/>
	<path d="M314.416,330.298v-0.545h-7.999v3h7.999v-0.103C314.331,331.873,314.327,331.085,314.416,330.298z"/>
	<path d="M308.077,338.955l1.5,2.598l6.696-3.865c-0.563-0.838-1.01-1.744-1.332-2.694L308.077,338.955z"/>
	<path d="M317.871,339.591l-3.754,6.502l2.599,1.5l3.597-6.233C319.411,340.875,318.592,340.28,317.871,339.591z"/>
	<path d="M322.917,349.253h3v-6.422c-0.992-0.033-1.997-0.171-3-0.442V349.253z"/>
	<path d="M332.117,347.593l2.597-1.5l-2.665-4.619c-0.903,0.461-1.859,0.818-2.86,1.049L332.117,347.593z"/>
	<path d="M335.164,339.191l4.091,2.361l1.499-2.596l-3.743-2.163C336.492,337.684,335.865,338.48,335.164,339.191z"/>
	<path d="M342.417,332.753l-0.002-2.998l-3.528-0.001c-0.027,1-0.135,2.003-0.35,3L342.417,332.753z"/>
	<path d="M340.755,323.552l-1.501-2.596l-1.971,1.138c0.427,0.925,0.776,1.882,1.037,2.864L340.755,323.552z"/>
	<path d="M334.146,317.403l0.57-0.987l-2.599-1.5l-0.243,0.42C332.697,315.96,333.452,316.656,334.146,317.403z"/>
	<polygon points="325.917,320.662 325.799,321.255 325.917,321.255 	"/>
	<rect x="260.771" y="310" width="3" height="18.958"/>
	<rect x="260.771" y="359.208" width="3" height="18.958"/>
	<rect x="282.078" y="322.302" transform="matrix(0.5 0.866 -0.866 0.5 429.1249 -79.6938)" width="3" height="18.958"/>
	<rect x="239.463" y="346.906" transform="matrix(-0.5 -0.866 0.866 -0.5 52.8009 743.2555)" width="3" height="18.958"/>
	<rect x="273.073" y="313.296" transform="matrix(0.866 0.5 -0.5 0.866 198.1687 -94.0418)" width="3" height="18.958"/>
	<rect x="248.468" y="355.912" transform="matrix(-0.866 -0.5 0.5 -0.866 283.7572 806.8125)" width="3" height="18.959"/>
	<rect x="277.396" y="342.583" width="18.958" height="3"/>
	<rect x="228.187" y="342.583" width="18.959" height="3"/>
	<rect x="239.463" y="322.302" transform="matrix(-0.5 0.866 -0.866 -0.5 648.7745 288.9875)" width="3" height="18.958"/>
	<rect x="282.078" y="346.906" transform="matrix(0.5 -0.866 0.866 0.5 -166.8488 423.7838)" width="3" height="18.958"/>
	<rect x="248.468" y="313.296" transform="matrix(-0.866 0.5 -0.5 -0.866 627.8331 477.3273)" width="3" height="18.958"/>
	<rect x="273.072" y="355.912" transform="matrix(0.866 -0.5 0.5 0.866 -145.9077 186.2346)" width="3" height="18.959"/>
	<rect x="261.975" y="442.066" width="1.217" height="10.101"/>
	<polygon points="261.975,442.066 261.475,442.066 261.475,452.667 263.691,452.667 263.691,441.566 261.475,441.566 
		261.475,442.066 261.975,442.066 261.975,442.566 262.691,442.566 262.691,451.667 262.475,451.667 262.475,442.066 
		261.975,442.066 261.975,442.566 	"/>
	<rect x="261.975" y="406.167" width="1.217" height="16.672"/>
	<polygon points="263.191,422.839 263.691,422.839 263.691,405.667 261.475,405.667 261.475,423.339 263.691,423.339 
		263.691,422.839 263.191,422.839 263.191,422.339 262.475,422.339 262.475,406.667 262.691,406.667 262.691,422.839 
		263.191,422.839 263.191,422.339 	"/>
	<rect x="267.603" y="444.736" transform="matrix(-0.5 -0.866 0.866 -0.5 22.2205 903.517)" width="8.64" height="1.217"/>
	<polygon points="269.236,441.907 268.803,442.157 273.373,450.073 275.293,448.964 270.473,440.616 268.553,441.724 
		268.803,442.157 269.236,441.907 269.486,442.34 270.107,441.982 273.927,448.598 273.739,448.707 269.669,441.657 
		269.236,441.907 269.486,442.34 	"/>
	<rect x="247.189" y="415.385" transform="matrix(0.5 0.866 -0.866 0.5 487.7549 -12.8172)" width="15.577" height="1.217"/>
	<polygon points="259.398,422.434 259.832,422.184 251.793,408.261 249.873,409.37 258.162,423.726 260.082,422.617 
		259.832,422.184 259.398,422.434 259.148,422.001 258.528,422.359 251.239,409.736 251.427,409.627 258.965,422.684 
		259.398,422.434 259.148,422.001 	"/>
	<rect x="275.803" y="438.264" transform="matrix(-0.866 -0.5 0.5 -0.866 301.917 958.6428)" width="7.18" height="1.217"/>
	<polygon points="275.979,437.604 275.729,438.037 282.38,441.877 283.489,439.957 276.405,435.867 275.296,437.787 
		275.729,438.037 275.979,437.604 276.413,437.854 276.771,437.233 282.123,440.323 282.014,440.511 276.229,437.171 
		275.979,437.604 276.413,437.854 	"/>
	<rect x="241.694" y="420.679" transform="matrix(0.866 0.5 -0.5 0.866 243.9912 -68.0258)" width="14.482" height="1.217"/>
	<polygon points="255.51,424.381 255.76,423.948 242.786,416.457 241.677,418.377 255.085,426.118 256.193,424.198 255.76,423.948 
		255.51,424.381 255.077,424.131 254.719,424.751 243.043,418.011 243.152,417.823 255.26,424.814 255.51,424.381 255.077,424.131 	
		"/>
	<rect x="279.864" y="428.559" width="5.719" height="1.217"/>
	<polygon points="279.864,429.775 279.864,430.275 286.083,430.275 286.083,428.059 279.364,428.059 279.364,430.275 
		279.864,430.275 279.864,429.775 280.364,429.775 280.364,429.059 285.083,429.059 285.083,429.275 279.864,429.275 
		279.864,429.775 280.364,429.775 	"/>
	<rect x="239.583" y="428.559" width="13.386" height="1.217"/>
	<polygon points="252.969,428.559 252.969,428.059 239.083,428.059 239.083,430.275 253.469,430.275 253.469,428.059 
		252.969,428.059 252.969,428.559 252.469,428.559 252.469,429.275 240.083,429.275 240.083,429.059 252.969,429.059 
		252.969,428.559 252.469,428.559 	"/>
	<rect x="278.528" y="418.124" transform="matrix(-0.866 0.5001 -0.5001 -0.866 733.0948 641.0045)" width="4.259" height="1.217"/>
	<polygon points="279.117,420.324 279.367,420.757 283.489,418.377 282.38,416.457 277.826,419.086 278.934,421.007 
		279.367,420.757 279.117,420.324 279.55,420.074 279.192,419.453 282.014,417.823 282.123,418.011 278.867,419.891 
		279.117,420.324 279.55,420.074 	"/>
	<rect x="241.841" y="436.986" transform="matrix(0.866 -0.5 0.5 0.866 -185.5711 182.6164)" width="12.291" height="1.217"/>
	<polygon points="253.005,433.995 252.755,433.562 241.677,439.957 242.786,441.877 254.296,435.231 253.188,433.312 
		252.755,433.562 253.005,433.995 252.572,434.245 252.93,434.865 243.152,440.511 243.043,440.323 253.255,434.428 
		253.005,433.995 252.572,434.245 	"/>
	<rect x="272.051" y="409.813" transform="matrix(-0.5001 0.866 -0.866 -0.5001 765.5483 378.92)" width="2.709" height="1.217"/>
	<polygon points="273.255,411.899 273.688,412.149 275.293,409.37 273.373,408.261 271.519,411.474 273.438,412.582 
		273.688,412.149 273.255,411.899 273.505,411.466 272.885,411.107 273.739,409.627 273.927,409.736 272.822,411.649 
		273.255,411.899 273.505,411.466 	"/>
	<rect x="248.284" y="443.629" transform="matrix(0.5 -0.866 0.866 0.5 -257.78 441.9957)" width="11.196" height="1.217"/>
	<polygon points="256.154,439.085 255.721,438.835 249.873,448.964 251.793,450.073 257.891,439.511 255.971,438.402 
		255.721,438.835 256.154,439.085 255.904,439.519 256.525,439.877 251.427,448.707 251.239,448.598 256.587,439.335 
		256.154,439.085 255.904,439.519 	"/>
	<rect x="341.438" y="386.667" width="3" height="18.958"/>
	<polyline style="fill:#808285;" points="344.438,435.875 341.438,435.875 341.438,454.833 344.438,454.833 344.438,435.875 	"/>
	<polyline style="fill:#D1D3D4;" points="371.705,402.409 355.286,411.888 356.786,414.486 373.205,405.007 371.705,402.409 	"/>
	<polyline style="fill:#58595B;" points="329.089,427.013 312.67,436.492 314.17,439.09 330.589,429.611 329.089,427.013 	"/>
	<polyline style="fill:#E6E7E8;" points="358.68,390.483 349.201,406.901 351.799,408.401 361.278,391.983 358.68,390.483 	"/>
	<polyline style="fill:#6D6F71;" points="334.076,433.098 324.597,449.517 327.195,451.017 336.674,434.598 334.076,433.098 	"/>
	<polyline style="fill:#BCBDC0;" points="358.063,419.25 358.063,422.25 377.021,422.25 377.021,419.25 358.063,419.25 	"/>
	<polyline style="fill:#404041;" points="327.813,419.25 308.854,419.25 308.854,422.25 327.813,422.25 327.813,419.25 	"/>
	<rect x="320.13" y="398.969" transform="matrix(-0.5 0.866 -0.866 -0.5 836.1697 334.1263)" width="3" height="18.958"/>
	<polyline style="fill:#A7A9AC;" points="356.786,427.013 355.286,429.611 371.705,439.09 373.205,436.492 356.786,427.013 	"/>
	<rect x="329.135" y="389.963" transform="matrix(-0.866 0.5 -0.5 -0.866 816.6927 580.0566)" width="3" height="18.958"/>
	<polyline style="fill:#939598;" points="351.799,433.098 349.201,434.598 358.68,451.017 361.278,449.517 351.799,433.098 	"/>
</g>
</svg>
