<?xml version="1.0" encoding="iso-8859-1"?>
<!-- Generator: Adobe Illustrator 15.0.0, SVG Export Plug-In . SVG Version: 6.00 Build 0)  -->
<!DOCTYPE svg PUBLIC "-//W3C//DTD SVG 1.1//EN" "http://www.w3.org/Graphics/SVG/1.1/DTD/svg11.dtd">
<svg version="1.1" id="&#x421;&#x43B;&#x43E;&#x439;_1"
	 xmlns="http://www.w3.org/2000/svg" xmlns:xlink="http://www.w3.org/1999/xlink" x="0px" y="0px" width="600px" height="600px"
	 viewBox="0 0 600 600" style="enable-background:new 0 0 600 600;" xml:space="preserve">
<g>
	<rect x="460.399" y="-154.55" style="fill-rule:evenodd;clip-rule:evenodd;fill:#000003;" width="300" height="300"/>
	<g>
		<path style="fill-rule:evenodd;clip-rule:evenodd;fill:#FFFFFF;" d="M499.319-9.03c4.54,0.54,7.971-1.6,10.561-2.3
			c1.34,6.19-0.11,11.29-2.931,11.9C504.16,1.33,500.74-2.53,499.319-9.03L499.319-9.03z M508.7-3.97L508.7-3.97
			c-1.801,1.45-3.511,1.81-5.101,1.11C505.72-0.79,507.439-1.05,508.7-3.97L508.7-3.97z M505.02-5.7L505.02-5.7
			c-1.029-1.63-2.229-1.95-3.649-0.72C502.37-4.91,503.59-4.67,505.02-5.7L505.02-5.7z M509.229-8.08L509.229-8.08
			c-1.779-0.62-2.77,0.14-3.1,2.05C507.85-5.6,508.88-6.29,509.229-8.08z"/>
		<path style="fill-rule:evenodd;clip-rule:evenodd;fill:#FFFFFF;" d="M515.27-9.959c5.681,0.68,9.96-1.99,13.21-2.87
			c1.66,7.74-0.149,14.11-3.68,14.88C521.319,3,517.04-1.83,515.27-9.959L515.27-9.959z M526.99-3.63L526.99-3.63
			c-2.24,1.81-4.381,2.26-6.37,1.39C523.27,0.351,525.42,0.021,526.99-3.63L526.99-3.63z M522.39-5.8L522.39-5.8
			c-1.28-2.03-2.79-2.43-4.55-0.89C519.09-4.81,520.6-4.5,522.39-5.8L522.39-5.8z M527.66-8.77L527.66-8.77
			c-2.23-0.771-3.471,0.18-3.88,2.57C525.939-5.66,527.22-6.53,527.66-8.77z"/>
		<path style="fill-rule:evenodd;clip-rule:evenodd;fill:#FFFFFF;" d="M533.989-10.88c6.811,0.81,11.95-2.4,15.841-3.45
			c2,9.29-0.171,16.93-4.4,17.85C541.25,4.66,536.109-1.13,533.989-10.88L533.989-10.88z M548.06-3.29L548.06-3.29
			c-2.7,2.17-5.26,2.71-7.649,1.67C543.59,1.48,546.17,1.09,548.06-3.29L548.06-3.29z M542.54-5.89L542.54-5.89
			c-1.54-2.44-3.351-2.92-5.471-1.07C538.569-4.7,540.39-4.33,542.54-5.89L542.54-5.89z M548.85-9.45L548.85-9.45
			c-2.67-0.93-4.16,0.2-4.649,3.08C546.79-5.73,548.33-6.77,548.85-9.45z"/>
		<path style="fill-rule:evenodd;clip-rule:evenodd;fill:#FFFFFF;" d="M555.47-11.34c7.38,0.88,12.95-2.6,17.17-3.74
			c2.16,10.06-0.189,18.34-4.77,19.34C563.34,5.49,557.77-0.78,555.47-11.34L555.47-11.34z M570.71-3.12L570.71-3.12
			c-2.91,2.35-5.69,2.94-8.29,1.8C565.87,2.05,568.67,1.62,570.71-3.12L570.71-3.12z M564.729-5.94L564.729-5.94
			c-1.67-2.64-3.63-3.16-5.92-1.16C560.43-4.65,562.41-4.25,564.729-5.94L564.729-5.94z M571.58-9.8L571.58-9.8
			c-2.9-1-4.511,0.23-5.04,3.34C569.34-5.76,571.01-6.89,571.58-9.8z"/>
		<path style="fill-rule:evenodd;clip-rule:evenodd;fill:#FFFFFF;" d="M578.34-12.27c8.51,1.021,14.939-2.99,19.81-4.31
			c2.49,11.61-0.22,21.17-5.51,22.32C587.41,7.16,580.99-0.07,578.34-12.27L578.34-12.27z M595.92-2.78L595.92-2.78
			c-3.36,2.71-6.57,3.39-9.561,2.08C590.34,3.19,593.569,2.69,595.92-2.78L595.92-2.78z M589.02-6.03L589.02-6.03
			c-1.92-3.05-4.18-3.65-6.84-1.34C584.06-4.55,586.34-4.08,589.02-6.03L589.02-6.03z M596.92-10.48L596.92-10.48
			c-3.34-1.16-5.2,0.26-5.811,3.85C594.34-5.83,596.27-7.12,596.92-10.48z"/>
		<path style="fill-rule:evenodd;clip-rule:evenodd;fill:#FFFFFF;" d="M603.97-14.58c11.36,1.35,19.92-3.99,26.41-5.75
			c3.33,15.48-0.29,28.22-7.34,29.76C616.069,11.33,607.51,1.68,603.97-14.58L603.97-14.58z M627.42-1.93L627.42-1.93
			c-4.49,3.62-8.771,4.53-12.75,2.78C619.97,6.03,624.279,5.37,627.42-1.93L627.42-1.93z M618.22-6.26L618.22-6.26
			c-2.569-4.06-5.58-4.86-9.12-1.79C611.6-4.29,614.64-3.67,618.22-6.26L618.22-6.26z M628.75-12.2L628.75-12.2
			c-4.46-1.55-6.94,0.35-7.75,5.13C625.31-5.99,627.88-7.72,628.75-12.2z"/>
		<path style="fill-rule:evenodd;clip-rule:evenodd;fill:#FFFFFF;" d="M636.52-16.43c13.63,1.62,23.91-4.79,31.69-6.91
			c4,18.59-0.34,33.88-8.811,35.72C651.04,14.66,640.77,3.08,636.52-16.43L636.52-16.43z M664.66-1.25L664.66-1.25
			c-5.391,4.34-10.521,5.43-15.311,3.33C655.72,8.3,660.89,7.51,664.66-1.25L664.66-1.25z M653.62-6.45L653.62-6.45
			c-3.08-4.87-6.7-5.83-10.94-2.14C645.68-4.08,649.319-3.34,653.62-6.45L653.62-6.45z M666.25-13.58L666.25-13.58
			c-5.34-1.85-8.32,0.42-9.3,6.169C662.13-6.12,665.21-8.2,666.25-13.58z"/>
		<path style="fill-rule:evenodd;clip-rule:evenodd;fill:#FFFFFF;" d="M674.6-19.2c17.04,2.03,29.89-5.99,39.62-8.63
			c5,23.22-0.44,42.33-11.01,44.64C692.76,19.65,679.91,5.18,674.6-19.2L674.6-19.2z M709.779-0.229L709.779-0.229
			c-6.739,5.43-13.149,6.79-19.13,4.17C698.6,11.71,705.06,10.72,709.779-0.229L709.779-0.229z M695.979-6.72L695.979-6.72
			c-3.859-6.1-8.38-7.3-13.68-2.68C686.05-3.76,690.609-2.84,695.979-6.72L695.979-6.72z M711.77-15.64L711.77-15.64
			c-6.68-2.31-10.399,0.53-11.63,7.71C706.609-6.32,710.47-8.91,711.77-15.64z"/>
	</g>
</g>
</svg>
