<?xml version="1.0" encoding="iso-8859-1"?>
<!-- Generator: Adobe Illustrator 15.0.0, SVG Export Plug-In . SVG Version: 6.00 Build 0)  -->
<!DOCTYPE svg PUBLIC "-//W3C//DTD SVG 1.1//EN" "http://www.w3.org/Graphics/SVG/1.1/DTD/svg11.dtd">
<svg version="1.1" id="&#x421;&#x43B;&#x43E;&#x439;_1"
	 xmlns="http://www.w3.org/2000/svg" xmlns:xlink="http://www.w3.org/1999/xlink" x="0px" y="0px" width="600px" height="600px"
	 viewBox="0 0 600 600" style="enable-background:new 0 0 600 600;" xml:space="preserve">
<g>
	<rect x="454.13" y="-161.04" style="fill-rule:evenodd;clip-rule:evenodd;fill:#000003;" width="300" height="300"/>
	<g>
		<path style="fill-rule:evenodd;clip-rule:evenodd;fill:#FFFFFF;" d="M470.399-1.68l3.21-6.69h1.471l-3.2,6.69H470.399
			L470.399-1.68z M468.08-3.2h0.979v-1.34h1.34v-0.97h-1.34v-1.34h-0.979v1.34h-1.341v0.97h1.341V-3.2L468.08-3.2L468.08-3.2z
			 M475.09-3.54L475.09-3.54v-0.98h3.65v0.98H475.09L475.09-3.54z M475.09-5.53L475.09-5.53v-0.98h3.65v0.98H475.09z"/>
		<path style="fill-rule:evenodd;clip-rule:evenodd;fill:#FFFFFF;" d="M494.13-0.85l4.01-8.36h1.851l-4.011,8.36H494.13L494.13-0.85
			z M491.24-2.74h1.22v-1.68h1.67v-1.22h-1.67v-1.67h-1.22v1.67h-1.681v1.22h1.681V-2.74L491.24-2.74L491.24-2.74z M499.99-3.17
			h4.569v-1.22h-4.569V-3.17L499.99-3.17L499.99-3.17z M499.99-5.66h4.569v-1.22h-4.569V-5.66L499.99-5.66z"/>
		<path style="fill-rule:evenodd;clip-rule:evenodd;fill:#FFFFFF;" d="M520.87-0.01l4.81-10.03h2.22L523.08-0.01H520.87L520.87-0.01
			z M517.39-2.28L517.39-2.28v-2.01h-2.01v-1.47h2.01v-2.01h1.47v2.01h2v1.47h-2v2.01H517.39L517.39-2.28z M527.899-2.8h5.48v-1.47
			h-5.48V-2.8L527.899-2.8L527.899-2.8z M527.899-5.78h5.48v-1.47h-5.48V-5.78L527.899-5.78z"/>
		<path style="fill-rule:evenodd;clip-rule:evenodd;fill:#FFFFFF;" d="M550.149,0.41l5.21-10.87h2.4l-5.21,10.87H550.149
			L550.149,0.41z M546.38-2.06L546.38-2.06v-2.17h-2.18v-1.59h2.18V-8h1.59v2.18h2.17v1.59h-2.17v2.17H546.38L546.38-2.06z
			 M557.76-2.62h5.94V-4.2h-5.94V-2.62L557.76-2.62L557.76-2.62z M557.76-5.85h5.94v-1.59h-5.94V-5.85L557.76-5.85z"/>
		<path style="fill-rule:evenodd;clip-rule:evenodd;fill:#FFFFFF;" d="M581.38,1.24l6.02-12.54h2.771l-6.02,12.54H581.38
			L581.38,1.24z M577.04-1.6h1.83v-2.51h2.51v-1.83h-2.51v-2.51h-1.83v2.51h-2.521v1.83h2.521V-1.6L577.04-1.6L577.04-1.6z
			 M590.17-2.25h6.85v-1.83h-6.85V-2.25L590.17-2.25L590.17-2.25z M590.17-5.97h6.85v-1.84h-6.85V-5.97L590.17-5.97z"/>
		<path style="fill-rule:evenodd;clip-rule:evenodd;fill:#FFFFFF;" d="M659.64,5.01l9.62-20.07h4.43L664.07,5.01H659.64L659.64,5.01
			z M652.68,0.46L652.68,0.46v-4.02h-4.01v-2.93h4.01v-4.02h2.93v4.02h4.021v2.93h-4.021v4.02H652.68L652.68,0.46z M673.699-0.58
			L673.699-0.58v-2.93h10.971v2.93H673.699L673.699-0.58z M673.699-6.54L673.699-6.54v-2.93h10.971v2.93H673.699z"/>
		<path style="fill-rule:evenodd;clip-rule:evenodd;fill:#FFFFFF;" d="M709.199,7.52l12.03-25.09h5.54l-12.03,25.09H709.199
			L709.199,7.52z M700.51,1.83L700.51,1.83v-5.02h-5.021v-3.66h5.021v-5.03h3.66v5.03h5.02v3.66h-5.02v5.02H700.51L700.51,1.83z
			 M726.779,0.53L726.779,0.53v-3.66h13.71v3.66H726.779L726.779,0.53z M726.779-6.92L726.779-6.92v-3.66h13.71v3.66H726.779z"/>
		<path style="fill-rule:evenodd;clip-rule:evenodd;fill:#FFFFFF;" d="M616.99,3.34l8.02-16.73h3.689l-8.02,16.73H616.99
			L616.99,3.34z M611.189-0.46L611.189-0.46V-3.8h-3.34v-2.44h3.34v-3.35h2.44v3.35h3.35v2.44h-3.35v3.34H611.189L611.189-0.46z
			 M628.71-1.319L628.71-1.319v-2.44h9.13v2.44H628.71L628.71-1.319z M628.71-6.29L628.71-6.29v-2.439h9.13v2.439H628.71z"/>
	</g>
</g>
</svg>
