<?xml version="1.0" encoding="iso-8859-1"?>
<!-- Generator: Adobe Illustrator 15.0.0, SVG Export Plug-In . SVG Version: 6.00 Build 0)  -->
<!DOCTYPE svg PUBLIC "-//W3C//DTD SVG 1.1//EN" "http://www.w3.org/Graphics/SVG/1.1/DTD/svg11.dtd">
<svg version="1.1" xmlns="http://www.w3.org/2000/svg" xmlns:xlink="http://www.w3.org/1999/xlink" x="0px" y="0px" width="300px"
	 height="300px" viewBox="0 0 300 300" style="enable-background:new 0 0 300 300;" xml:space="preserve">
<g id="Layer_1">
	<g>
		<rect x="0.56" y="-0.31" style="fill-rule:evenodd;clip-rule:evenodd;fill:#666666;" width="300" height="300"/>
		<g>
			<g>
				<g>
					<path style="fill-rule:evenodd;clip-rule:evenodd;fill:#FFFFFF;" d="M64.93,158.49l-4.34-4.33l1.12-1.13
						c-0.02-0.021-0.04-0.04-0.06-0.061c-5.19-5.2-5.19-13.63,0-18.83c5.2-5.2,13.64-5.2,18.83,0c0.02,0.02,0.04,0.04,0.06,0.06
						l1.13-1.12l4.34,4.34L64.93,158.49z M76.59,138.04c-3.05-3.05-7.99-3.05-11.04,0c-3.05,3.04-3.05,7.99,0,11.04
						c0.02,0.01,0.04,0.04,0.06,0.05l11.04-11.03C76.63,138.08,76.61,138.06,76.59,138.04z M76.6,136.37l1.63-2.19l-0.57-0.43
						l-1.64,2.19L76.6,136.37z M63.88,149.08l-0.43-0.57l-2.19,1.64l0.43,0.57L63.88,149.08z M75.07,135.38l1.13-2.49l-0.65-0.29
						l-1.13,2.49L75.07,135.38z M62.89,147.56l-0.29-0.65l-2.49,1.13l0.3,0.65L62.89,147.56z M73.36,134.72l0.61-2.66l-0.69-0.16
						l-0.62,2.66L73.36,134.72z M62.23,145.85l-0.16-0.7l-2.66,0.62l0.16,0.69L62.23,145.85z M71.54,134.43l0.09-2.74l-0.71-0.02
						l-0.1,2.73L71.54,134.43z M61.94,144.02l-0.03-0.71l-2.73,0.1l0.02,0.71L61.94,144.02z M62,142.21l0.13-0.7l-2.69-0.49
						l-0.13,0.7L62,142.21z M69.72,134.49l-0.48-2.69l-0.71,0.12l0.49,2.7L69.72,134.49z M62.44,140.42l0.26-0.66l-2.55-1
						l-0.26,0.66L62.44,140.42z M67.93,134.93l-0.99-2.55l-0.67,0.26l1,2.55L67.93,134.93z M63.2,138.79l0.4-0.59l-2.26-1.54
						l-0.4,0.59L63.2,138.79z M66.3,135.69l-1.54-2.26l-0.59,0.4l1.54,2.26L66.3,135.69z M64.33,137.3l0.25-0.25l0.23-0.23v-0.01
						l0.02-0.02l-0.97-0.95l-0.96-0.98l-0.02,0.03l-0.01-0.01l-0.23,0.23l-0.25,0.25l0.01,0.01l-0.03,0.02l0.98,0.96l0.95,0.97
						l0.03-0.03V137.3z"/>
					<path style="fill-rule:evenodd;clip-rule:evenodd;fill:#FFFFFF;" d="M50.13,166.72v-6.13h40.25c4.02,0.18,4.64,5.57,0,6.13
						H50.13z M56.73,165.42v-2.4H56.1v2.4H56.73z M59.37,165.42v-2.4h-0.63v2.4H59.37z M62.01,165.42v-2.4h-0.63v2.4H62.01z
						 M64.65,165.42v-2.4h-0.62v2.4H64.65z M67.29,165.42v-2.4h-0.62v2.4H67.29z M69.93,165.42v-2.4h-0.62v2.4H69.93z M72.58,165.42
						v-2.4h-0.63v2.4H72.58z M75.22,165.42v-2.4h-0.63v2.4H75.22z M77.86,165.42v-2.4h-0.63v2.4H77.86z M80.5,165.42v-2.4h-0.63v2.4
						H80.5z M83.14,165.42v-2.4h-0.63v2.4H83.14z M85.78,165.42v-2.4h-0.62v2.4H85.78z M88.98,163.7c0-0.51-0.42-0.92-0.92-0.92
						c-0.51,0-0.93,0.41-0.93,0.92c0,0.5,0.42,0.92,0.93,0.92C88.56,164.62,88.98,164.2,88.98,163.7z M55.35,164.29v-2.4h-0.63v2.4
						H55.35z M57.99,164.29v-2.4h-0.63v2.4H57.99z M60.63,164.29v-2.4h-0.62v2.4H60.63z M63.27,164.29v-2.4h-0.62v2.4H63.27z
						 M65.92,164.29v-2.4h-0.63v2.4H65.92z M68.56,164.29v-2.4h-0.63v2.4H68.56z M71.2,164.29v-2.4h-0.63v2.4H71.2z M73.84,164.29
						v-2.4h-0.63v2.4H73.84z M76.48,164.29v-2.4h-0.63v2.4H76.48z M79.12,164.29v-2.4H78.5v2.4H79.12z M81.76,164.29v-2.4h-0.62v2.4
						H81.76z M84.4,164.29v-2.4h-0.62v2.4H84.4z"/>
				</g>
				<rect x="49.38" y="125.98" style="fill-rule:evenodd;clip-rule:evenodd;fill:none;" width="45" height="45"/>
			</g>
			<g>
				<g>
					<path style="fill-rule:evenodd;clip-rule:evenodd;fill:#FFFFFF;" d="M107.89,156.49l-3.47-3.471l0.9-0.899
						c-0.02-0.01-0.03-0.03-0.05-0.05c-4.16-4.15-4.16-10.9,0-15.061c4.16-4.16,10.91-4.16,15.06,0c0.02,0.02,0.04,0.03,0.05,0.05
						l0.9-0.9l3.47,3.47L107.89,156.49z M117.22,140.13c-2.44-2.44-6.4-2.44-8.83,0c-2.44,2.43-2.44,6.39,0,8.83
						c0.01,0.01,0.03,0.03,0.05,0.04l8.82-8.82C117.25,140.16,117.23,140.14,117.22,140.13z M117.22,138.79l1.31-1.75l-0.46-0.34
						l-1.3,1.75L117.22,138.79z M107.05,148.96l-0.34-0.46l-1.75,1.32l0.34,0.46L107.05,148.96z M116,138l0.91-1.99l-0.52-0.23
						l-0.91,1.99L116,138z M106.26,147.74l-0.24-0.52l-1.98,0.91l0.23,0.52L106.26,147.74z M114.63,137.48l0.49-2.14l-0.55-0.12
						l-0.49,2.13L114.63,137.48z M105.73,146.37l-0.12-0.55l-2.13,0.49l0.12,0.56L105.73,146.37z M113.18,137.24l0.07-2.19
						l-0.57-0.02l-0.08,2.19L113.18,137.24z M105.5,144.92l-0.02-0.57l-2.19,0.07l0.02,0.58L105.5,144.92z M105.55,143.47l0.1-0.57
						l-2.15-0.39l-0.11,0.57L105.55,143.47z M111.72,137.29l-0.38-2.15l-0.57,0.1l0.39,2.15L111.72,137.29z M105.9,142.03l0.2-0.53
						l-2.03-0.8l-0.21,0.54L105.9,142.03z M110.29,137.64l-0.79-2.04l-0.54,0.21l0.8,2.04L110.29,137.64z M106.51,140.73l0.32-0.48
						l-1.81-1.23l-0.32,0.48L106.51,140.73z M108.98,138.25l-1.22-1.81l-0.48,0.32l1.23,1.81L108.98,138.25z M107.41,139.54l0.2-0.2
						l0.19-0.19h-0.01l0.02-0.02l-0.78-0.76l-0.76-0.78l-0.02,0.02l-0.01-0.01l-0.18,0.19l-0.2,0.2h0.01l-0.02,0.02l0.78,0.77
						l0.76,0.77l0.02-0.02V139.54z"/>
					<path style="fill-rule:evenodd;clip-rule:evenodd;fill:#FFFFFF;" d="M96.05,163.08v-4.91h32.2c3.21,0.14,3.72,4.45,0,4.91
						H96.05z M101.33,162.03v-1.92h-0.5v1.92H101.33z M103.44,162.03v-1.92h-0.5v1.92H103.44z M105.56,162.03v-1.92h-0.51v1.92
						H105.56z M107.67,162.03v-1.92h-0.5v1.92H107.67z M109.78,162.03v-1.92h-0.5v1.92H109.78z M111.89,162.03v-1.92h-0.5v1.92
						H111.89z M114.01,162.03v-1.92h-0.5v1.92H114.01z M116.12,162.03v-1.92h-0.5v1.92H116.12z M118.23,162.03v-1.92h-0.5v1.92
						H118.23z M120.35,162.03v-1.92h-0.5v1.92H120.35z M122.46,162.03v-1.92h-0.5v1.92H122.46z M124.57,162.03v-1.92h-0.5v1.92
						H124.57z M127.13,160.65c0-0.4-0.33-0.73-0.74-0.73c-0.41,0-0.74,0.33-0.74,0.73c0,0.409,0.33,0.739,0.74,0.739
						C126.8,161.39,127.13,161.06,127.13,160.65z M100.23,161.13v-1.92h-0.5v1.92H100.23z M102.34,161.13v-1.92h-0.5v1.92H102.34z
						 M104.45,161.13v-1.92h-0.5v1.92H104.45z M106.57,161.13v-1.92h-0.5l-0.01,1.92H106.57z M108.68,161.13v-1.92h-0.5v1.92H108.68
						z M110.79,161.13v-1.92h-0.5v1.92H110.79z M112.9,161.13v-1.92h-0.5v1.92H112.9z M115.02,161.13v-1.92h-0.5v1.92H115.02z
						 M117.13,161.13v-1.92h-0.5v1.92H117.13z M119.24,161.13v-1.92h-0.5v1.92H119.24z M121.36,161.13v-1.92h-0.5v1.92H121.36z
						 M123.47,161.13v-1.92h-0.5v1.92H123.47z"/>
				</g>
				<rect x="95.45" y="130.48" style="fill-rule:evenodd;clip-rule:evenodd;fill:none;" width="36" height="36"/>
			</g>
			<g>
				<g>
					<path style="fill-rule:evenodd;clip-rule:evenodd;fill:#FFFFFF;" d="M142.89,155.16L140,152.27l0.75-0.75
						c-0.02-0.02-0.03-0.029-0.05-0.039c-3.46-3.471-3.46-9.09,0-12.561c3.47-3.46,9.09-3.46,12.56,0
						c0.01,0.02,0.021,0.03,0.04,0.04l0.75-0.75l2.891,2.9L142.89,155.16z M150.66,141.52c-2.03-2.03-5.33-2.03-7.36,0
						c-2.03,2.03-2.03,5.33,0,7.36c0.02,0.01,0.03,0.03,0.04,0.04l7.36-7.36C150.69,141.55,150.67,141.53,150.66,141.52z
						 M150.67,140.41l1.09-1.46l-0.39-0.29l-1.09,1.46L150.67,140.41z M142.19,148.88l-0.29-0.38l-1.45,1.1l0.28,0.38L142.19,148.88
						z M149.65,139.75l0.75-1.66l-0.43-0.2l-0.75,1.66L149.65,139.75z M141.53,147.87l-0.2-0.44l-1.65,0.76l0.19,0.43L141.53,147.87
						z M148.51,139.31l0.41-1.78l-0.47-0.1l-0.41,1.77L148.51,139.31z M141.09,146.73l-0.1-0.47l-1.78,0.41l0.11,0.47L141.09,146.73
						z M147.29,139.11l0.07-1.82l-0.48-0.02l-0.06,1.82L147.29,139.11z M140.89,145.51l-0.01-0.48l-1.82,0.07l0.01,0.48
						L140.89,145.51z M140.94,144.3l0.08-0.47l-1.79-0.32l-0.09,0.47L140.94,144.3z M146.08,139.15l-0.32-1.79l-0.47,0.08l0.32,1.8
						L146.08,139.15z M141.23,143.11l0.17-0.45l-1.7-0.66l-0.17,0.44L141.23,143.11z M144.89,139.45l-0.66-1.7l-0.45,0.17l0.67,1.7
						L144.89,139.45z M141.74,142.02l0.26-0.4l-1.51-1.02l-0.26,0.39L141.74,142.02z M143.8,139.95l-1.02-1.5l-0.4,0.26l1.03,1.51
						L143.8,139.95z M142.49,141.03l0.16-0.17l0.16-0.15v-0.01l0.01-0.01l-0.65-0.63l-0.63-0.66l-0.02,0.02v-0.01l-0.15,0.16
						l-0.17,0.16v0.01l-0.02,0.02l0.66,0.63l0.63,0.65l0.02-0.02V141.03z"/>
					<path style="fill-rule:evenodd;clip-rule:evenodd;fill:#FFFFFF;" d="M133.02,160.64v-4.09h26.83c2.681,0.13,3.101,3.72,0,4.09
						H133.02z M137.42,159.77v-1.6H137v1.6H137.42z M139.18,159.77v-1.6h-0.42v1.6H139.18z M140.94,159.77v-1.6h-0.42v1.6H140.94z
						 M142.7,159.77v-1.6h-0.41v1.6H142.7z M144.46,159.77v-1.6h-0.41v1.6H144.46z M146.22,159.77l0.01-1.6h-0.42v1.6H146.22z
						 M147.99,159.77v-1.6h-0.42v1.6H147.99z M149.75,159.77v-1.6h-0.42v1.6H149.75z M151.51,159.77v-1.6h-0.42v1.6H151.51z
						 M153.27,159.77v-1.6h-0.42v1.6H153.27z M155.03,159.77v-1.6h-0.42v1.6H155.03z M156.79,159.77v-1.6h-0.42v1.6H156.79z
						 M158.92,158.63c0-0.34-0.27-0.62-0.61-0.62c-0.34,0-0.619,0.28-0.619,0.62c0,0.33,0.279,0.61,0.619,0.61
						C158.65,159.24,158.92,158.96,158.92,158.63z M136.5,159.02v-1.6h-0.42v1.6H136.5z M138.26,159.02v-1.6h-0.41v1.6H138.26z
						 M140.02,159.02v-1.6h-0.41v1.6H140.02z M141.78,159.02v-1.6h-0.41v1.6H141.78z M143.55,159.02v-1.6h-0.42v1.6H143.55z
						 M145.31,159.02v-1.6h-0.42v1.6H145.31z M147.07,159.02v-1.6h-0.42v1.6H147.07z M148.83,159.02v-1.6h-0.42v1.6H148.83z
						 M150.59,159.02v-1.6h-0.42v1.6H150.59z M152.35,159.02v-1.6h-0.42v1.6H152.35z M154.11,159.02v-1.6h-0.42v1.6H154.11z
						 M155.87,159.02v-1.6h-0.42v1.6H155.87z"/>
				</g>
				<rect x="132.52" y="133.48" style="fill-rule:evenodd;clip-rule:evenodd;fill:none;" width="30" height="30"/>
			</g>
			<g>
				<g>
					<path style="fill-rule:evenodd;clip-rule:evenodd;fill:#FFFFFF;" d="M193.9,152.82l-1.881-1.88l0.49-0.49
						c-0.01,0-0.02-0.01-0.029-0.02c-2.25-2.25-2.25-5.91,0-8.16c2.26-2.25,5.909-2.25,8.159,0c0.011,0.01,0.021,0.02,0.03,0.02
						l0.49-0.48l1.88,1.88L193.9,152.82z M198.95,143.96c-1.32-1.32-3.46-1.32-4.78,0s-1.32,3.46,0,4.78
						c0.01,0.01,0.021,0.02,0.03,0.03l4.78-4.79C198.97,143.97,198.96,143.97,198.95,143.96z M198.96,143.23l0.71-0.95l-0.25-0.18
						l-0.71,0.95L198.96,143.23z M193.45,148.74l-0.19-0.25l-0.95,0.72l0.19,0.24L193.45,148.74z M198.3,142.81l0.49-1.08
						l-0.28-0.13l-0.49,1.08L198.3,142.81z M193.02,148.08l-0.13-0.28l-1.08,0.49l0.131,0.28L193.02,148.08z M197.56,142.52
						l0.261-1.15l-0.301-0.07l-0.27,1.15L197.56,142.52z M192.74,147.34l-0.07-0.3l-1.16,0.27l0.07,0.3L192.74,147.34z
						 M196.77,142.39l0.04-1.18l-0.31-0.01l-0.04,1.18L196.77,142.39z M192.61,146.55l-0.011-0.31l-1.189,0.04l0.01,0.31
						L192.61,146.55z M192.63,145.77l0.061-0.31l-1.171-0.21l-0.05,0.3L192.63,145.77z M195.98,142.42l-0.211-1.17l-0.3,0.06
						l0.2,1.16L195.98,142.42z M192.82,144.99l0.12-0.29l-1.11-0.43l-0.11,0.29L192.82,144.99z M195.2,142.61l-0.431-1.1
						l-0.279,0.11l0.43,1.1L195.2,142.61z M193.15,144.28l0.18-0.25l-0.98-0.67l-0.18,0.25L193.15,144.28z M194.5,142.94l-0.67-0.98
						l-0.26,0.17l0.67,0.98L194.5,142.94z M193.64,143.64l0.11-0.11l0.1-0.1l0,0l0.011-0.01l-0.42-0.41l-0.41-0.43l-0.021,0.01l0,0
						l-0.1,0.1l-0.11,0.11h0.01l-0.01,0.01l0.42,0.41l0.41,0.43l0.01-0.02V143.64z"/>
					<path style="fill-rule:evenodd;clip-rule:evenodd;fill:#FFFFFF;" d="M187.49,156.39v-2.659h17.439
						c1.74,0.079,2.011,2.409,0,2.659H187.49z M190.35,155.82v-1.04h-0.27v1.04H190.35z M191.49,155.82v-1.04h-0.271v1.04H191.49z
						 M192.64,155.82v-1.04h-0.27v1.04H192.64z M193.78,155.82v-1.04h-0.271v1.04H193.78z M194.93,155.82v-1.04h-0.27v1.04H194.93z
						 M196.07,155.82v-1.04H195.8v1.04H196.07z M197.22,155.82v-1.04h-0.27v1.04H197.22z M198.36,155.82v-1.04h-0.271v1.04H198.36z
						 M199.51,155.82v-1.04h-0.279v1.04H199.51z M200.65,155.82v-1.04h-0.271v1.04H200.65z M201.79,155.82v-1.04h-0.271v1.04H201.79
						z M202.94,155.82v-1.04h-0.271v1.04H202.94z M204.32,155.08c0-0.22-0.181-0.4-0.4-0.4s-0.39,0.181-0.39,0.4
						s0.17,0.39,0.39,0.39S204.32,155.3,204.32,155.08z M189.75,155.33v-1.04h-0.27v1.04H189.75z M190.9,155.33v-1.04h-0.28v1.04
						H190.9z M192.04,155.33v-1.04h-0.271v1.04H192.04z M193.19,155.33v-1.04h-0.28v1.04H193.19z M194.33,155.33v-1.04h-0.271v1.04
						H194.33z M195.48,155.33l-0.011-1.04h-0.27v1.04H195.48z M196.62,155.33v-1.04h-0.271v1.04H196.62z M197.76,155.33v-1.04h-0.27
						v1.04H197.76z M198.91,155.33v-1.04h-0.271v1.04H198.91z M200.05,155.33v-1.04h-0.27v1.04H200.05z M201.2,155.33v-1.04h-0.271
						v1.04H201.2z M202.34,155.33v-1.04h-0.27v1.04H202.34z"/>
				</g>
				<rect x="187.17" y="138.73" style="fill-rule:evenodd;clip-rule:evenodd;fill:none;" width="19.5" height="19.5"/>
			</g>
			<g>
				<g>
					<path style="fill-rule:evenodd;clip-rule:evenodd;fill:#FFFFFF;" d="M171.37,153.49l-2.17-2.17l0.56-0.561
						c-0.01-0.01-0.02-0.02-0.029-0.03c-2.601-2.6-2.601-6.82,0-9.42c2.6-2.6,6.819-2.6,9.42,0c0.01,0.01,0.02,0.02,0.029,0.03
						l0.561-0.56l2.17,2.17L171.37,153.49z M177.2,143.26c-1.53-1.52-4-1.52-5.521,0c-1.52,1.52-1.52,4,0,5.52
						c0.011,0.01,0.021,0.02,0.03,0.03l5.521-5.52C177.22,143.28,177.21,143.27,177.2,143.26z M177.2,142.43l0.819-1.1l-0.289-0.21
						l-0.811,1.09L177.2,142.43z M170.84,148.78l-0.21-0.28l-1.09,0.82l0.21,0.28L170.84,148.78z M176.44,141.93l0.569-1.24
						l-0.33-0.15l-0.569,1.25L176.44,141.93z M170.35,148.02l-0.149-0.32l-1.24,0.56l0.15,0.33L170.35,148.02z M175.58,141.6
						l0.31-1.33l-0.35-0.08l-0.3,1.33L175.58,141.6z M170.02,147.16l-0.079-0.34l-1.33,0.31l0.08,0.34L170.02,147.16z
						 M174.67,141.45l0.05-1.36l-0.359-0.01l-0.04,1.36L174.67,141.45z M169.87,146.25l-0.01-0.35l-1.37,0.05l0.02,0.35
						L169.87,146.25z M169.9,145.35l0.069-0.35l-1.35-0.25l-0.061,0.35L169.9,145.35z M173.76,141.49l-0.24-1.35l-0.35,0.06
						l0.24,1.35L173.76,141.49z M170.12,144.45l0.13-0.33l-1.27-0.5l-0.131,0.33L170.12,144.45z M172.87,141.71l-0.5-1.28
						l-0.33,0.13l0.5,1.28L172.87,141.71z M170.5,143.63l0.2-0.29l-1.13-0.77l-0.2,0.3L170.5,143.63z M172.05,142.09l-0.77-1.13
						l-0.29,0.2l0.77,1.13L172.05,142.09z M171.07,142.89l0.12-0.12l0.119-0.12l0,0l0.011-0.01l-0.49-0.48l-0.47-0.49l-0.021,0.02
						v-0.01l-0.109,0.12l-0.131,0.12v0.01l-0.01,0.01l0.49,0.48l0.47,0.48L171.07,142.89L171.07,142.89z"/>
					<path style="fill-rule:evenodd;clip-rule:evenodd;fill:#FFFFFF;" d="M163.97,157.6v-3.06h20.12c2.01,0.09,2.33,2.78,0,3.06
						H163.97z M167.27,156.95v-1.2h-0.319v1.2H167.27z M168.59,156.95v-1.2h-0.31v1.2H168.59z M169.91,156.95v-1.2H169.6v1.2H169.91
						z M171.23,156.95v-1.2h-0.311v1.2H171.23z M172.55,156.95v-1.2h-0.31v1.2H172.55z M173.87,156.95v-1.2h-0.311v1.2H173.87z
						 M175.19,156.95v-1.2h-0.311v1.2H175.19z M176.51,156.95v-1.2h-0.31v1.2H176.51z M177.83,156.95v-1.2h-0.311v1.2H177.83z
						 M179.15,156.95v-1.2h-0.311v1.2H179.15z M180.47,156.95v-1.2h-0.31v1.2H180.47z M181.8,156.95v-1.2h-0.319v1.2H181.8z
						 M183.39,156.09c0-0.25-0.199-0.46-0.46-0.46c-0.25,0-0.46,0.21-0.46,0.46s0.21,0.46,0.46,0.46
						C183.19,156.55,183.39,156.34,183.39,156.09z M166.58,156.39v-1.199h-0.311v1.199H166.58z M167.9,156.39v-1.199h-0.311v1.199
						H167.9z M169.22,156.39v-1.199h-0.31v1.199H169.22z M170.54,156.39v-1.199h-0.31v1.199H170.54z M171.86,156.39v-1.199h-0.311
						v1.199H171.86z M173.18,156.39v-1.199h-0.31v1.199H173.18z M174.5,156.39v-1.199h-0.31v1.199H174.5z M175.82,156.39v-1.199
						h-0.311v1.199H175.82z M177.14,156.39v-1.199h-0.31v1.199H177.14z M178.47,156.39v-1.199h-0.319v1.199H178.47z M179.79,156.39
						v-1.199h-0.32v1.199H179.79z M181.11,156.39v-1.199h-0.32v1.199H181.11z"/>
				</g>
				<rect x="163.59" y="137.23" style="fill-rule:evenodd;clip-rule:evenodd;fill:none;" width="22.5" height="22.5"/>
			</g>
			<g>
				<g>
					<path style="fill-rule:evenodd;clip-rule:evenodd;fill:#FFFFFF;" d="M213.96,152.49l-1.74-1.74l0.45-0.45
						c-0.01-0.01-0.02-0.01-0.02-0.02c-2.08-2.08-2.08-5.45-0.011-7.53c2.08-2.08,5.46-2.08,7.54,0c0.011,0,0.011,0.01,0.021,0.02
						l0.45-0.45l1.739,1.74L213.96,152.49z M218.62,144.31c-1.22-1.22-3.2-1.22-4.42,0c-1.21,1.21-1.21,3.19,0,4.41
						c0.01,0.01,0.02,0.02,0.03,0.02l4.409-4.41C218.63,144.32,218.63,144.31,218.62,144.31z M218.62,143.64l0.66-0.88l-0.23-0.17
						l-0.66,0.88L218.62,143.64z M213.53,148.72l-0.17-0.23l-0.87,0.66l0.17,0.23L213.53,148.72z M218.01,143.24l0.46-0.99
						l-0.26-0.12l-0.46,0.99L218.01,143.24z M213.14,148.11l-0.12-0.26l-0.989,0.46l0.12,0.26L213.14,148.11z M217.33,142.98
						l0.24-1.07l-0.28-0.06l-0.24,1.07L217.33,142.98z M212.88,147.43l-0.07-0.28l-1.06,0.25l0.06,0.27L212.88,147.43z
						 M216.6,142.86l0.04-1.09l-0.29-0.01l-0.04,1.09L216.6,142.86z M212.76,146.7l-0.01-0.29l-1.09,0.04l0.01,0.29L212.76,146.7z
						 M212.78,145.97l0.05-0.28l-1.07-0.19l-0.05,0.28L212.78,145.97z M215.87,142.89l-0.19-1.08l-0.279,0.05l0.189,1.08
						L215.87,142.89z M212.96,145.26l0.1-0.27l-1.02-0.4l-0.1,0.27L212.96,145.26z M215.16,143.06l-0.4-1.02l-0.27,0.11l0.399,1.01
						L215.16,143.06z M213.26,144.6l0.16-0.23l-0.9-0.62l-0.159,0.24L213.26,144.6z M214.5,143.37l-0.61-0.91l-0.239,0.16
						l0.619,0.91L214.5,143.37z M213.72,144.01l0.101-0.1l0.09-0.09l0,0l0.01-0.01l-0.39-0.38l-0.38-0.4l-0.021,0.01l0,0l-0.09,0.1
						l-0.1,0.09v0.01l-0.011,0.01l0.4,0.38l0.37,0.39l0.01-0.01H213.72z"/>
					<path style="fill-rule:evenodd;clip-rule:evenodd;fill:#FFFFFF;" d="M208.04,155.78v-2.46h16.09c1.61,0.08,1.86,2.229,0,2.46
						H208.04z M210.67,155.26l0.01-0.96h-0.26v0.96H210.67z M211.73,155.26v-0.96h-0.25v0.96H211.73z M212.79,155.26v-0.96h-0.25
						v0.96H212.79z M213.84,155.26v-0.96h-0.25v0.96H213.84z M214.9,155.26v-0.96h-0.25v0.96H214.9z M215.96,155.26v-0.96h-0.25
						v0.96H215.96z M217.01,155.26v-0.96h-0.25v0.96H217.01z M218.07,155.26v-0.96h-0.25v0.96H218.07z M219.13,155.26v-0.96h-0.25
						v0.96H219.13z M220.18,155.26v-0.96h-0.25v0.96H220.18z M221.24,155.26v-0.96h-0.25v0.96H221.24z M222.3,155.26v-0.96h-0.25
						v0.96H222.3z M223.57,154.57c0-0.21-0.16-0.37-0.36-0.37c-0.21,0-0.37,0.16-0.37,0.37c0,0.199,0.16,0.37,0.37,0.37
						C223.41,154.94,223.57,154.77,223.57,154.57z M210.12,154.81v-0.96h-0.25v0.96H210.12z M211.18,154.81v-0.96h-0.25v0.96H211.18
						z M212.24,154.81v-0.96h-0.25v0.96H212.24z M213.29,154.81v-0.96h-0.25v0.96H213.29z M214.35,154.81v-0.96h-0.25v0.96H214.35z
						 M215.41,154.81v-0.96h-0.25v0.96H215.41z M216.46,154.81v-0.96h-0.25v0.96H216.46z M217.52,154.81v-0.96h-0.25v0.96H217.52z
						 M218.58,154.81v-0.96h-0.25v0.96H218.58z M219.63,154.81v-0.96h-0.25v0.96H219.63z M220.69,154.81v-0.96h-0.25v0.96H220.69z
						 M221.75,154.81v-0.96h-0.26v0.96H221.75z"/>
				</g>
				<rect x="207.74" y="139.48" style="fill-rule:evenodd;clip-rule:evenodd;fill:none;" width="18" height="18"/>
			</g>
			<g>
				<g>
					<path style="fill-rule:evenodd;clip-rule:evenodd;fill:#FFFFFF;" d="M231.99,151.82l-1.45-1.45l0.38-0.37
						c-0.01-0.01-0.02-0.01-0.02-0.02c-1.73-1.73-1.73-4.54,0-6.28c1.729-1.73,4.54-1.73,6.27,0c0.01,0.01,0.021,0.02,0.021,0.02
						l0.38-0.37l1.449,1.44L231.99,151.82z M235.88,145c-1.02-1.01-2.67-1.01-3.68,0c-1.021,1.02-1.021,2.67,0,3.68
						c0,0.01,0.01,0.01,0.02,0.02l3.681-3.68C235.89,145.02,235.88,145.01,235.88,145z M235.88,144.45l0.54-0.74l-0.189-0.14
						l-0.54,0.73L235.88,144.45z M231.64,148.68l-0.14-0.19l-0.73,0.55l0.141,0.19L231.64,148.68z M235.37,144.12l0.38-0.83
						l-0.22-0.1l-0.38,0.83L235.37,144.12z M231.31,148.17l-0.1-0.21l-0.83,0.38l0.101,0.21L231.31,148.17z M234.8,143.9l0.2-0.89
						l-0.23-0.05l-0.199,0.88L234.8,143.9z M231.09,147.6l-0.05-0.23l-0.89,0.21l0.05,0.23L231.09,147.6z M234.19,143.8l0.029-0.91
						l-0.229-0.01l-0.04,0.91L234.19,143.8z M230.99,147l-0.01-0.24l-0.91,0.03l0.01,0.24L230.99,147z M231.01,146.39l0.05-0.23
						L230.16,146l-0.04,0.23L231.01,146.39z M233.59,143.82l-0.16-0.9l-0.239,0.04l0.159,0.9L233.59,143.82z M231.16,145.8
						l0.09-0.23l-0.85-0.33l-0.091,0.22L231.16,145.8z M232.99,143.96l-0.33-0.84l-0.22,0.08l0.329,0.85L232.99,143.96z
						 M231.41,145.25l0.14-0.2l-0.76-0.51l-0.13,0.2L231.41,145.25z M232.45,144.22l-0.521-0.76l-0.189,0.14l0.51,0.75
						L232.45,144.22z M231.79,144.76l0.08-0.09l0.08-0.07v-0.01h0.01l-0.33-0.32l-0.32-0.33v0.01h-0.01l-0.069,0.08l-0.091,0.08
						h0.011l-0.011,0.01l0.33,0.32l0.311,0.32l0.01-0.01V144.76z"/>
					<path style="fill-rule:evenodd;clip-rule:evenodd;fill:#FFFFFF;" d="M227.06,154.56v-2.04h13.41c1.34,0.061,1.55,1.851,0,2.04
						H227.06z M229.26,154.13v-0.8h-0.21v0.8H229.26z M230.14,154.13v-0.8h-0.21v0.8H230.14z M231.02,154.13v-0.8h-0.21v0.8H231.02z
						 M231.9,154.13v-0.8h-0.21v0.8H231.9z M232.78,154.13v-0.8h-0.21v0.8H232.78z M233.66,154.13v-0.8h-0.21v0.8H233.66z
						 M234.54,154.13v-0.8h-0.21v0.8H234.54z M235.42,154.13v-0.8h-0.21v0.8H235.42z M236.3,154.13v-0.8h-0.21v0.8H236.3z
						 M237.18,154.13v-0.8h-0.21v0.8H237.18z M238.06,154.13v-0.8h-0.21v0.8H238.06z M238.94,154.13v-0.8h-0.21v0.8H238.94z
						 M240.01,153.55c0-0.17-0.14-0.3-0.31-0.3s-0.311,0.13-0.311,0.3s0.141,0.311,0.311,0.311S240.01,153.72,240.01,153.55z
						 M228.8,153.75v-0.8h-0.21v0.8H228.8z M229.68,153.75v-0.8h-0.21v0.8H229.68z M230.56,153.75v-0.8h-0.21v0.8H230.56z
						 M231.44,153.75v-0.8h-0.21v0.8H231.44z M232.32,153.75v-0.8h-0.21v0.8H232.32z M233.2,153.75v-0.8h-0.21v0.8H233.2z
						 M234.08,153.75v-0.8h-0.21v0.8H234.08z M234.96,153.75v-0.8h-0.21v0.8H234.96z M235.84,153.75v-0.8h-0.21v0.8H235.84z
						 M236.72,153.75v-0.8h-0.21v0.8H236.72z M237.6,153.75v-0.8h-0.21v0.8H237.6z M238.48,153.75v-0.8h-0.211v0.8H238.48z"/>
				</g>
				<rect x="226.81" y="140.98" style="fill-rule:evenodd;clip-rule:evenodd;fill:none;" width="15" height="15"/>
			</g>
			<g>
				<g>
					<path style="fill-rule:evenodd;clip-rule:evenodd;fill:#FFFFFF;" d="M247.02,151.15L245.87,150l0.3-0.3
						c-0.01-0.01-0.01-0.01-0.02-0.02c-1.381-1.39-1.381-3.63,0-5.02c1.39-1.39,3.64-1.39,5.02,0c0.01,0,0.01,0.01,0.021,0.02
						l0.3-0.3l1.149,1.15L247.02,151.15z M250.13,145.7c-0.81-0.81-2.13-0.81-2.939,0c-0.811,0.81-0.811,2.13,0,2.94
						c0.01,0.01,0.01,0.01,0.02,0.02l2.94-2.95C250.14,145.71,250.14,145.7,250.13,145.7z M250.14,145.25l0.431-0.58l-0.15-0.11
						l-0.439,0.58L250.14,145.25z M246.74,148.64l-0.11-0.15l-0.58,0.44l0.11,0.15L246.74,148.64z M249.73,144.99l0.3-0.66
						l-0.17-0.08l-0.301,0.66L249.73,144.99z M246.48,148.24l-0.08-0.18l-0.66,0.31l0.08,0.17L246.48,148.24z M249.27,144.81
						l0.171-0.71l-0.19-0.04l-0.16,0.71L249.27,144.81z M246.31,147.78l-0.05-0.19l-0.71,0.17l0.05,0.18L246.31,147.78z
						 M248.79,144.73l0.02-0.72L248.62,144l-0.021,0.73H248.79z M246.23,147.29l-0.011-0.19l-0.729,0.03l0.01,0.19L246.23,147.29z
						 M246.24,146.81l0.04-0.19l-0.721-0.13l-0.029,0.19L246.24,146.81z M248.3,144.75l-0.13-0.72l-0.18,0.04l0.12,0.72
						L248.3,144.75z M246.36,146.33l0.069-0.17l-0.68-0.27l-0.07,0.18L246.36,146.33z M247.82,144.87l-0.261-0.68l-0.18,0.07
						l0.271,0.68L247.82,144.87z M246.56,145.9l0.11-0.16l-0.6-0.41l-0.11,0.16L246.56,145.9z M247.39,145.07l-0.409-0.6l-0.16,0.11
						l0.41,0.6L247.39,145.07z M246.87,145.5l0.06-0.07l0.061-0.06l0,0H247l-0.26-0.26l-0.26-0.26v0.01l0,0l-0.061,0.06l-0.07,0.06
						v0.01h-0.01l0.26,0.26l0.261,0.26v-0.01H246.87z"/>
					<path style="fill-rule:evenodd;clip-rule:evenodd;fill:#FFFFFF;" d="M243.08,153.35v-1.64h10.729c1.07,0.05,1.24,1.49,0,1.64
						H243.08z M244.84,153v-0.64h-0.17V153H244.84z M245.54,153v-0.64h-0.17V153H245.54z M246.25,153v-0.64h-0.17V153H246.25z
						 M246.95,153v-0.64h-0.17V153H246.95z M247.65,153v-0.64h-0.16V153H247.65z M248.36,153v-0.64h-0.17V153H248.36z M249.06,153
						v-0.64H248.9V153H249.06z M249.77,153v-0.64h-0.17V153H249.77z M250.47,153v-0.64h-0.16V153H250.47z M251.18,153v-0.64h-0.17
						V153H251.18z M251.88,153v-0.64h-0.17V153H251.88z M252.59,153v-0.64h-0.17V153H252.59z M253.44,152.54
						c0-0.14-0.11-0.25-0.25-0.25c-0.131,0-0.24,0.11-0.24,0.25s0.109,0.25,0.24,0.25C253.33,152.79,253.44,152.68,253.44,152.54z
						 M244.47,152.7v-0.641h-0.17v0.641H244.47z M245.17,152.7v-0.641h-0.16v0.641H245.17z M245.88,152.7v-0.641h-0.17v0.641H245.88
						z M246.58,152.7v-0.641h-0.16v0.641H246.58z M247.29,152.7v-0.641h-0.17v0.641H247.29z M247.99,152.7v-0.641h-0.17v0.641
						H247.99z M248.7,152.7v-0.641h-0.17v0.641H248.7z M249.4,152.7v-0.641h-0.17v0.641H249.4z M250.1,152.7v-0.641h-0.159v0.641
						H250.1z M250.81,152.7v-0.641h-0.17v0.641H250.81z M251.51,152.7v-0.641h-0.16v0.641H251.51z M252.22,152.7v-0.641h-0.17v0.641
						H252.22z"/>
				</g>
				<rect x="242.88" y="142.48" style="fill-rule:evenodd;clip-rule:evenodd;fill:none;" width="12" height="12"/>
			</g>
		</g>
	</g>
</g>
<g id="Guides">
</g>
</svg>
