<?xml version="1.0" encoding="iso-8859-1"?>
<!-- Generator: Adobe Illustrator 15.0.0, SVG Export Plug-In . SVG Version: 6.00 Build 0)  -->
<!DOCTYPE svg PUBLIC "-//W3C//DTD SVG 1.1//EN" "http://www.w3.org/Graphics/SVG/1.1/DTD/svg11.dtd">
<svg version="1.1" id="_x23_Layer_1" xmlns="http://www.w3.org/2000/svg" xmlns:xlink="http://www.w3.org/1999/xlink" x="0px"
	 y="0px" width="600px" height="600px" viewBox="0 0 600 600" style="enable-background:new 0 0 600 600;" xml:space="preserve">
<rect x="446.1" y="-150.17" style="fill-rule:evenodd;clip-rule:evenodd;fill:#000003;" width="300" height="300"/>
<g>
	<path style="fill-rule:evenodd;clip-rule:evenodd;fill:#FFFFFF;" d="M478.87,7.92V5.69h-2.221l2.05-2.05
		c0.61,0.9,1.5,1.59,2.53,1.92L478.87,7.92L478.87,7.92z M486.42,7.92L486.42,7.92l-2.34-2.34c1.04-0.33,1.939-1.01,2.55-1.9
		l2.02,2.01h-2.229V7.92L486.42,7.92z M478.38,0.94c0,2.38,1.939,4.32,4.33,4.32c2.38,0,4.319-1.94,4.319-4.32
		c0-2.39-1.939-4.33-4.319-4.33C480.319-3.39,478.38-1.45,478.38,0.94L478.38,0.94L478.38,0.94z M485.46,0.94L485.46,0.94
		c0-1.52-1.23-2.75-2.75-2.75c-1.521,0-2.75,1.23-2.75,2.75c0,1.51,1.229,2.75,2.75,2.75C484.229,3.69,485.46,2.45,485.46,0.94
		L485.46,0.94z M480.37,0.94L480.37,0.94c0-1.3,1.05-2.34,2.34-2.34s2.34,1.04,2.34,2.34c0,1.29-1.05,2.33-2.34,2.33
		S480.37,2.23,480.37,0.94z"/>
	<path style="fill-rule:evenodd;clip-rule:evenodd;fill:#FFFFFF;" d="M497.12,9.33V6.55h-2.78l2.57-2.57
		c0.75,1.13,1.859,1.99,3.159,2.41L497.12,9.33L497.12,9.33z M506.55,9.33L506.55,9.33l-2.93-2.92c1.31-0.41,2.43-1.26,3.189-2.38
		l2.53,2.52h-2.79V9.33L506.55,9.33z M496.51,0.601c0,2.99,2.42,5.41,5.4,5.41c2.989,0,5.409-2.42,5.409-5.41
		c0-2.98-2.42-5.4-5.409-5.4C498.93-4.8,496.51-2.38,496.51,0.601L496.51,0.601L496.51,0.601z M505.35,0.601L505.35,0.601
		c0-1.891-1.54-3.43-3.439-3.43c-1.891,0-3.431,1.54-3.431,3.43c0,1.9,1.54,3.439,3.431,3.439C503.81,4.04,505.35,2.5,505.35,0.601
		L505.35,0.601z M498.99,0.601L498.99,0.601c0-1.61,1.31-2.92,2.92-2.92c1.619,0,2.93,1.31,2.93,2.92c0,1.62-1.311,2.93-2.93,2.93
		C500.3,3.53,498.99,2.22,498.99,0.601z"/>
	<path style="fill-rule:evenodd;clip-rule:evenodd;fill:#FFFFFF;" d="M518.37,10.75V7.41h-3.34l3.079-3.09
		c0.91,1.35,2.24,2.39,3.801,2.89L518.37,10.75L518.37,10.75z M529.689,10.75L529.689,10.75l-3.52-3.52
		c1.57-0.48,2.91-1.5,3.83-2.85l3.03,3.03h-3.341V10.75L529.689,10.75z M517.63,0.271c0,3.58,2.91,6.49,6.49,6.49
		s6.489-2.91,6.489-6.49c0-3.58-2.909-6.49-6.489-6.49S517.63-3.31,517.63,0.271L517.63,0.271L517.63,0.271z M528.24,0.271
		L528.24,0.271c0-2.28-1.841-4.12-4.12-4.12c-2.28,0-4.131,1.84-4.131,4.12c0,2.28,1.851,4.129,4.131,4.129
		C526.399,4.4,528.24,2.55,528.24,0.271L528.24,0.271z M520.609,0.271L520.609,0.271c0-1.94,1.57-3.51,3.511-3.51
		c1.939,0,3.51,1.57,3.51,3.51c0,1.94-1.57,3.51-3.51,3.51C522.18,3.78,520.609,2.21,520.609,0.271z"/>
	<path style="fill-rule:evenodd;clip-rule:evenodd;fill:#FFFFFF;" d="M542.34,11.46V7.84h-3.62l3.34-3.35
		c0.98,1.47,2.42,2.59,4.11,3.13L542.34,11.46L542.34,11.46z M554.6,11.46L554.6,11.46l-3.81-3.81c1.699-0.53,3.149-1.63,4.149-3.09
		l3.28,3.28h-3.62V11.46L554.6,11.46z M541.54,0.101c0,3.88,3.149,7.03,7.029,7.03c3.881,0,7.021-3.15,7.021-7.03
		c0-3.871-3.14-7.021-7.021-7.021C544.689-6.92,541.54-3.77,541.54,0.101L541.54,0.101L541.54,0.101z M553.04,0.101L553.04,0.101
		c0-2.46-2.01-4.47-4.471-4.47c-2.47,0-4.47,2.01-4.47,4.47c0,2.47,2,4.47,4.47,4.47C551.03,4.57,553.04,2.57,553.04,0.101
		L553.04,0.101z M544.77,0.101L544.77,0.101c0-2.09,1.7-3.8,3.8-3.8c2.101,0,3.801,1.71,3.801,3.8c0,2.1-1.7,3.8-3.801,3.8
		C546.47,3.9,544.77,2.2,544.77,0.101z"/>
	<path style="fill-rule:evenodd;clip-rule:evenodd;fill:#FFFFFF;" d="M569.88,17.42v-5.97h-5.97l5.51-5.51
		c1.62,2.42,4,4.26,6.78,5.16L569.88,17.42L569.88,17.42z M590.1,17.42L590.1,17.42l-6.28-6.28c2.801-0.87,5.2-2.69,6.841-5.09
		l5.41,5.4H590.1V17.42L590.1,17.42z M568.56-1.3c0,6.4,5.2,11.59,11.59,11.59c6.4,0,11.601-5.189,11.601-11.59
		c0-6.4-5.2-11.59-11.601-11.59C573.76-12.89,568.56-7.7,568.56-1.3L568.56-1.3L568.56-1.3z M587.529-1.3L587.529-1.3
		c0-4.07-3.31-7.37-7.38-7.37c-4.06,0-7.37,3.3-7.37,7.37s3.311,7.37,7.37,7.37C584.22,6.07,587.529,2.77,587.529-1.3L587.529-1.3z
		 M573.88-1.3L573.88-1.3c0-3.46,2.81-6.27,6.27-6.27c3.471,0,6.271,2.81,6.271,6.27s-2.8,6.27-6.271,6.27
		C576.689,4.97,573.88,2.16,573.88-1.3z"/>
	<path style="fill-rule:evenodd;clip-rule:evenodd;fill:#FFFFFF;" d="M607.33,16.4v-5.56h-5.57l5.15-5.15
		c1.51,2.26,3.72,3.98,6.319,4.81L607.33,16.4L607.33,16.4z M626.189,16.4L626.189,16.4l-5.859-5.85c2.619-0.82,4.85-2.51,6.39-4.76
		l5.04,5.05h-5.57V16.4L626.189,16.4z M606.1-1.06c0,5.97,4.851,10.81,10.811,10.81c5.97,0,10.819-4.84,10.819-10.81
		c0-5.97-4.85-10.811-10.819-10.811C610.95-11.87,606.1-7.03,606.1-1.06L606.1-1.06L606.1-1.06z M623.79-1.06L623.79-1.06
		c0-3.8-3.08-6.88-6.87-6.88c-3.8,0-6.88,3.08-6.88,6.88c0,3.8,3.08,6.88,6.88,6.88C620.71,5.82,623.79,2.74,623.79-1.06
		L623.79-1.06z M611.069-1.06L611.069-1.06c0-3.23,2.62-5.85,5.851-5.85c3.22,0,5.84,2.62,5.84,5.85c0,3.229-2.62,5.85-5.84,5.85
		C613.689,4.79,611.069,2.17,611.069-1.06z"/>
	<path style="fill-rule:evenodd;clip-rule:evenodd;fill:#FFFFFF;" d="M644.13,19.23v-6.68h-6.681l6.181-6.18
		c1.81,2.71,4.47,4.78,7.58,5.78L644.13,19.23L644.13,19.23z M666.77,19.23L666.77,19.23l-7.03-7.03c3.131-0.97,5.82-3.01,7.66-5.7
		l6.05,6.05h-6.68V19.23L666.77,19.23z M642.66-1.72c0,7.16,5.81,12.97,12.979,12.97c7.16,0,12.97-5.81,12.97-12.97
		c0-7.17-5.81-12.98-12.97-12.98C648.47-14.7,642.66-8.89,642.66-1.72L642.66-1.72L642.66-1.72z M663.89-1.73L663.89-1.73
		c0-4.55-3.7-8.25-8.25-8.25c-4.56,0-8.25,3.7-8.25,8.25c0,4.56,3.69,8.26,8.25,8.26C660.189,6.53,663.89,2.83,663.89-1.73
		L663.89-1.73z M648.62-1.73L648.62-1.73c0-3.87,3.14-7.01,7.02-7.01c3.87,0,7.01,3.14,7.01,7.01c0,3.88-3.14,7.02-7.01,7.02
		C651.76,5.29,648.62,2.15,648.62-1.73z"/>
	<path style="fill-rule:evenodd;clip-rule:evenodd;fill:#FFFFFF;" d="M687.489,23.47v-8.35h-8.35l7.72-7.72
		c2.261,3.39,5.591,5.97,9.48,7.22L687.489,23.47L687.489,23.47z M715.79,23.47L715.79,23.47L707,14.69
		c3.92-1.22,7.279-3.77,9.569-7.14l7.57,7.57h-8.35V23.47L715.79,23.47z M685.66-2.72c0,8.95,7.26,16.21,16.21,16.21
		c8.949,0,16.22-7.26,16.22-16.21s-7.271-16.22-16.22-16.22C692.92-18.94,685.66-11.67,685.66-2.72L685.66-2.72L685.66-2.72z
		 M712.18-2.72L712.18-2.72c0-5.7-4.61-10.32-10.31-10.32c-5.69,0-10.311,4.62-10.311,10.32c0,5.69,4.62,10.31,10.311,10.31
		C707.569,7.59,712.18,2.97,712.18-2.72L712.18-2.72z M693.1-2.72L693.1-2.72c0-4.84,3.93-8.77,8.771-8.77
		c4.84,0,8.77,3.93,8.77,8.77s-3.93,8.77-8.77,8.77C697.029,6.05,693.1,2.12,693.1-2.72z"/>
</g>
</svg>
