<?xml version="1.0" encoding="iso-8859-1"?>
<!-- Generator: Adobe Illustrator 15.0.0, SVG Export Plug-In . SVG Version: 6.00 Build 0)  -->
<!DOCTYPE svg PUBLIC "-//W3C//DTD SVG 1.1//EN" "http://www.w3.org/Graphics/SVG/1.1/DTD/svg11.dtd">
<svg version="1.1" id="&#x421;&#x43B;&#x43E;&#x439;_1"
	 xmlns="http://www.w3.org/2000/svg" xmlns:xlink="http://www.w3.org/1999/xlink" x="0px" y="0px" width="600px" height="600px"
	 viewBox="0 0 600 600" style="enable-background:new 0 0 600 600;" xml:space="preserve">
<g>
	<rect x="456.67" y="-151.95" style="fill-rule:evenodd;clip-rule:evenodd;fill:#000003;" width="300" height="300"/>
	<g>
		<path style="fill-rule:evenodd;clip-rule:evenodd;fill:#FFFFFF;" d="M471.93,1.46l-0.14-0.19c0.14-0.1,0.2-0.28,0.26-0.54
			c0.02-0.12,0.05-0.25,0.09-0.379c0.03-0.12,0.08-0.24,0.16-0.351l-0.55-0.229l0.01,0.08l-0.01,0.01h-0.05c-0.021,0-0.04,0-0.061,0
			c-0.01,0-0.02,0-0.02,0h-0.011c-0.029,0.06-0.05,0.12-0.069,0.19c-0.04,0.12-0.061,0.24-0.09,0.36
			c-0.05,0.24-0.12,0.53-0.351,0.68L470.97,0.9c0.13-0.09,0.19-0.27,0.25-0.54c0.03-0.12,0.05-0.25,0.09-0.37
			c0.03-0.12,0.08-0.24,0.15-0.34l-0.54-0.229l0.01,0.07h-0.01h-0.05c-0.021,0-0.04,0.01-0.061,0c0,0-0.01,0-0.02,0h-0.011
			c-0.029,0.06-0.05,0.12-0.069,0.19c-0.04,0.12-0.061,0.24-0.09,0.37c-0.05,0.23-0.12,0.52-0.351,0.67l-0.13-0.19
			c0.14-0.09,0.2-0.27,0.25-0.53c0.03-0.12,0.06-0.26,0.09-0.38c0.04-0.11,0.08-0.23,0.15-0.33l-0.53-0.22v0.05h-0.01l-0.05,0.01
			c-0.021,0-0.04,0-0.051,0c-0.01,0-0.02-0.01-0.029-0.01l-0.011,0.01c-0.029,0.05-0.05,0.12-0.069,0.19
			c-0.03,0.11-0.061,0.23-0.08,0.36c-0.06,0.24-0.13,0.52-0.36,0.68l-0.13-0.2c0.14-0.09,0.2-0.27,0.26-0.53
			c0.021-0.12,0.051-0.25,0.08-0.38c0.04-0.11,0.08-0.209,0.141-0.31l-0.521-0.22v0.03l-0.05,0.01c-0.021,0-0.04,0-0.06,0
			c-0.011,0-0.021,0-0.03,0v-0.01v0.01c-0.03,0.06-0.061,0.12-0.08,0.19c-0.03,0.11-0.05,0.24-0.08,0.36
			c-0.05,0.24-0.13,0.53-0.35,0.68l-0.141-0.19c0.141-0.1,0.2-0.28,0.261-0.54c0.02-0.12,0.05-0.25,0.09-0.38
			c0.029-0.1,0.069-0.2,0.12-0.29l-0.5-0.22v0.02h-0.011h-0.05c-0.021,0-0.04,0-0.06,0c-0.011,0-0.021,0-0.03,0
			c-0.03,0.06-0.05,0.12-0.08,0.19c-0.03,0.12-0.05,0.24-0.08,0.37c-0.05,0.23-0.12,0.52-0.35,0.67l-0.13-0.19
			c0.13-0.09,0.189-0.27,0.25-0.53c0.029-0.12,0.05-0.26,0.09-0.38c0.029-0.1,0.06-0.2,0.12-0.29l-0.511-0.21h-0.05
			c-0.02,0.01-0.04,0.01-0.05,0.01c-0.01-0.01-0.02-0.01-0.03-0.01h-0.01v0.01c-0.03,0.05-0.05,0.11-0.07,0.19
			c-0.04,0.11-0.06,0.23-0.09,0.36c-0.05,0.24-0.12,0.52-0.35,0.68l-0.13-0.2c0.14-0.09,0.199-0.27,0.25-0.53
			c0.029-0.12,0.06-0.26,0.09-0.38c0.03-0.09,0.06-0.18,0.109-0.27l-0.27-0.12v-1.48h0.01l5.79,2.45l5.8-2.45h0.021v1.48l-0.26,0.11
			c0.05,0.09,0.09,0.18,0.12,0.28c0.029,0.12,0.06,0.26,0.09,0.38c0.05,0.26,0.109,0.44,0.25,0.53l-0.131,0.2
			c-0.119-0.08-0.189-0.19-0.239-0.31s-0.09-0.25-0.11-0.37c-0.03-0.13-0.05-0.25-0.09-0.36c-0.02-0.08-0.04-0.14-0.07-0.19v-0.01
			h-0.01c-0.01,0-0.02,0-0.03,0.01c-0.01,0-0.029,0-0.05-0.01h-0.04h-0.02v-0.01l-0.511,0.21c0.061,0.09,0.101,0.2,0.13,0.3
			c0.041,0.12,0.061,0.26,0.091,0.38c0.05,0.25,0.109,0.44,0.25,0.53l-0.13,0.19c-0.12-0.07-0.19-0.19-0.24-0.3
			c-0.05-0.12-0.08-0.25-0.11-0.37c-0.029-0.13-0.05-0.25-0.09-0.37c-0.02-0.07-0.04-0.13-0.07-0.19h-0.01c-0.01,0-0.01,0-0.02,0
			c-0.021,0-0.04,0-0.061,0h-0.04h-0.02v-0.03l-0.51,0.22c0.06,0.09,0.1,0.2,0.13,0.3c0.04,0.13,0.06,0.26,0.09,0.38
			c0.06,0.26,0.12,0.44,0.25,0.54l-0.13,0.19c-0.11-0.08-0.19-0.19-0.24-0.31c-0.05-0.11-0.08-0.24-0.11-0.37
			c-0.029-0.12-0.05-0.25-0.08-0.36c-0.02-0.07-0.05-0.13-0.08-0.19v-0.01v0.01c-0.01,0-0.02,0-0.029,0c-0.021,0-0.04,0-0.061,0
			l-0.029-0.01h-0.03l0.01-0.04l-0.529,0.22c0.069,0.1,0.109,0.21,0.14,0.32c0.04,0.13,0.069,0.26,0.09,0.38
			c0.061,0.26,0.12,0.44,0.26,0.53l-0.13,0.2c-0.12-0.08-0.19-0.19-0.25-0.31c-0.05-0.11-0.08-0.25-0.109-0.37
			c-0.021-0.13-0.051-0.25-0.081-0.36c-0.02-0.07-0.05-0.14-0.069-0.19l-0.011-0.01c-0.01,0-0.02,0.01-0.029,0.01
			c-0.02,0-0.04,0-0.05,0h-0.01l-0.03-0.01h-0.021v-0.06l-0.53,0.22c0.07,0.11,0.11,0.22,0.15,0.34c0.03,0.12,0.06,0.26,0.08,0.38
			c0.06,0.26,0.12,0.44,0.26,0.53l-0.13,0.19c-0.12-0.07-0.19-0.18-0.24-0.3c-0.05-0.12-0.09-0.25-0.109-0.37
			c-0.03-0.13-0.061-0.25-0.091-0.37c-0.02-0.07-0.039-0.13-0.069-0.19h-0.01c-0.011,0-0.021,0-0.03,0c-0.01,0.01-0.03,0-0.05,0
			h-0.011h-0.029h-0.021l0.01-0.08l-0.55,0.23c0.08,0.1,0.12,0.22,0.16,0.35c0.04,0.12,0.061,0.25,0.09,0.37
			c0.05,0.26,0.11,0.44,0.25,0.54l-0.13,0.189c-0.12-0.08-0.189-0.189-0.24-0.3c-0.05-0.12-0.079-0.25-0.109-0.38
			c-0.03-0.12-0.05-0.24-0.09-0.36c-0.021-0.07-0.04-0.13-0.07-0.19h-0.01c-0.01,0-0.01,0-0.021,0c-0.02,0-0.04,0-0.06,0h-0.04
			l-0.021-0.01l0.011-0.09l-0.561,0.23c0.08,0.11,0.13,0.24,0.17,0.36c0.04,0.13,0.061,0.26,0.09,0.379
			c0.061,0.26,0.12,0.44,0.25,0.54l-0.13,0.19c-0.109-0.08-0.189-0.19-0.239-0.31c-0.051-0.11-0.081-0.24-0.11-0.37
			c-0.03-0.13-0.05-0.25-0.08-0.36c-0.021-0.07-0.05-0.14-0.08-0.19V0.22c-0.01,0.01-0.02,0.01-0.03,0.01c-0.02,0-0.04,0-0.06,0
			l-0.03-0.01h-0.03l0.021-0.12l-0.28,0.12l-0.24-0.1l0.011,0.1l-0.051,0.01c-0.02,0-0.039,0-0.06,0c-0.01,0-0.02,0-0.03-0.01v0.01
			c-0.029,0.05-0.06,0.12-0.08,0.19c-0.029,0.11-0.05,0.23-0.08,0.36C472.229,1.021,472.149,1.311,471.93,1.46L471.93,1.46z
			 M472.819-1.77l5.811-2.34l-5.811-2.34l-5.81,2.34L472.819-1.77L472.819-1.77L472.819-1.77z M470.33-3.64L470.33-3.64l0.189-0.07
			l-0.93-0.38l-0.19,0.08L470.33-3.64L470.33-3.64z M470.8-3.83l-0.93-0.37l0.17-0.07l0.13,0.05c-0.021-0.07,0.05-0.14,0.2-0.2
			c0.069-0.03,0.14-0.05,0.22-0.06c0.07-0.021,0.14-0.021,0.2-0.021c0.06,0,0.12,0.01,0.18,0.021c0.03,0.01,0.09,0.03,0.16,0.06
			l0.57,0.23l-0.19,0.07l-0.561-0.22c-0.069-0.03-0.119-0.05-0.17-0.05c-0.04-0.01-0.09-0.01-0.149,0
			c-0.06,0.01-0.11,0.02-0.16,0.04c-0.08,0.03-0.13,0.07-0.14,0.11c-0.021,0.04,0.029,0.08,0.149,0.13l0.51,0.21L470.8-3.83
			L470.8-3.83L470.8-3.83z M469.229-4.08l-0.18-0.08l0.19-0.07l0.18,0.07L469.229-4.08L469.229-4.08L469.229-4.08z M472.109-4.37
			c-0.06,0.01-0.109,0.01-0.149,0.01c-0.05-0.01-0.12-0.03-0.21-0.07l-0.53-0.22l-0.14,0.06l-0.12-0.05l0.13-0.06l-0.229-0.09
			l0.1-0.11l0.319,0.13l0.19-0.081l0.12,0.05L471.4-4.72l0.55,0.22c0.04,0.021,0.069,0.03,0.09,0.03c0.02,0,0.04,0,0.06,0
			c0.03,0,0.05-0.01,0.08-0.02c0.021-0.01,0.05-0.02,0.08-0.04l0.16,0.05c-0.04,0.02-0.08,0.04-0.13,0.06
			C472.229-4.39,472.16-4.379,472.109-4.37L472.109-4.37L472.109-4.37z M473.069-4.729c-0.17,0.07-0.34,0.11-0.51,0.11
			c-0.18,0-0.35-0.02-0.5-0.08c-0.16-0.07-0.229-0.14-0.22-0.21s0.09-0.14,0.24-0.2c0.149-0.06,0.319-0.09,0.489-0.1
			c0.181,0,0.351,0.03,0.5,0.09c0.011,0,0.021,0.01,0.04,0.02l-0.819,0.33c0.109,0.04,0.22,0.06,0.34,0.05
			c0.11,0,0.21-0.02,0.31-0.06c0.07-0.03,0.11-0.06,0.13-0.09c0.021-0.03,0.011-0.06-0.029-0.1l0.21-0.07
			c0.069,0.05,0.08,0.101,0.05,0.16C473.27-4.83,473.189-4.78,473.069-4.729L473.069-4.729L473.069-4.729z M472.069-4.939
			L472.069-4.939c0.011-0.05,0.061-0.09,0.15-0.12c0.09-0.04,0.2-0.06,0.32-0.06c0.08,0,0.16,0.02,0.25,0.04l-0.62,0.25
			C472.09-4.86,472.06-4.9,472.069-4.939L472.069-4.939z M473.76-5.02l-1.28-0.521l0.19-0.08l1.279,0.52L473.76-5.02L473.76-5.02z"
			/>
		<path style="fill-rule:evenodd;clip-rule:evenodd;fill:#FFFFFF;" d="M496.449,2.45l-0.159-0.24c0.17-0.12,0.24-0.34,0.31-0.67
			c0.04-0.15,0.07-0.32,0.11-0.47c0.05-0.16,0.109-0.31,0.21-0.44l-0.69-0.29l0.011,0.1h-0.011l-0.06,0.01c-0.03,0-0.05,0-0.07,0
			c-0.02,0-0.03,0-0.04,0h-0.01c-0.03,0.07-0.06,0.15-0.09,0.24c-0.04,0.14-0.07,0.29-0.11,0.45c-0.06,0.3-0.149,0.66-0.43,0.85
			l-0.17-0.24c0.17-0.121,0.25-0.34,0.319-0.67c0.03-0.15,0.061-0.32,0.11-0.47c0.04-0.15,0.1-0.3,0.19-0.42l-0.681-0.29L495.2-0.02
			h-0.011l-0.06,0.01c-0.021,0-0.05,0-0.07,0c-0.01,0-0.02,0-0.03,0h-0.01c-0.04,0.07-0.069,0.15-0.09,0.24
			c-0.05,0.14-0.07,0.29-0.11,0.45c-0.06,0.3-0.149,0.66-0.439,0.85l-0.16-0.24c0.17-0.12,0.24-0.34,0.31-0.67
			c0.04-0.15,0.07-0.32,0.12-0.47c0.04-0.14,0.091-0.279,0.181-0.41l-0.67-0.28l0.01,0.061l-0.01,0.01H494.1c-0.03,0-0.05,0-0.07,0
			c-0.02,0-0.029,0-0.04,0h-0.01c-0.029,0.07-0.06,0.15-0.09,0.24c-0.04,0.14-0.07,0.29-0.1,0.46c-0.07,0.29-0.16,0.65-0.44,0.84
			l-0.17-0.24c0.17-0.11,0.25-0.34,0.32-0.67c0.029-0.15,0.069-0.32,0.11-0.47c0.04-0.13,0.089-0.27,0.169-0.39l-0.649-0.27v0.04
			h-0.01h-0.061c-0.02,0-0.05,0.01-0.07,0c-0.01,0-0.02,0-0.029,0h-0.011c-0.039,0.07-0.069,0.15-0.09,0.24
			c-0.039,0.15-0.069,0.3-0.109,0.46c-0.061,0.29-0.15,0.65-0.44,0.84l-0.16-0.24c0.17-0.11,0.24-0.34,0.32-0.67
			c0.03-0.15,0.061-0.31,0.11-0.47c0.029-0.13,0.08-0.26,0.149-0.37l-0.63-0.27v0.02h-0.01h-0.06c-0.03,0.01-0.051,0.01-0.07,0.01
			c-0.011-0.01-0.03-0.01-0.04-0.01l-0.01,0.01c-0.03,0.07-0.061,0.15-0.091,0.23c-0.04,0.15-0.069,0.3-0.1,0.46
			c-0.07,0.29-0.16,0.65-0.44,0.84l-0.17-0.24c0.17-0.11,0.25-0.34,0.32-0.66c0.03-0.15,0.07-0.32,0.11-0.48
			c0.04-0.12,0.08-0.24,0.149-0.35l-0.63-0.27L491-1.84c-0.03,0-0.061,0-0.08,0c-0.01,0-0.021-0.01-0.03-0.01h-0.01v0.01
			c-0.04,0.07-0.07,0.15-0.09,0.23c-0.04,0.15-0.07,0.3-0.11,0.46c-0.06,0.3-0.15,0.65-0.439,0.84l-0.16-0.24
			c0.17-0.11,0.25-0.34,0.319-0.66c0.03-0.15,0.061-0.32,0.11-0.48c0.03-0.11,0.07-0.23,0.14-0.33l-0.35-0.15v-1.86h0.02l7.24,3.07
			l7.25-3.07h0.021v1.86l-0.32,0.13c0.06,0.11,0.11,0.23,0.14,0.35c0.051,0.16,0.08,0.33,0.11,0.48c0.07,0.32,0.149,0.55,0.32,0.66
			l-0.171,0.24c-0.14-0.09-0.229-0.23-0.3-0.38c-0.06-0.14-0.1-0.31-0.13-0.46c-0.04-0.16-0.069-0.31-0.11-0.46
			c-0.029-0.08-0.06-0.16-0.09-0.23l-0.01-0.01c-0.01,0-0.02,0.01-0.04,0.01c-0.02,0-0.04,0-0.06,0h-0.01l-0.04-0.01h-0.03v-0.01
			l-0.63,0.27c0.069,0.11,0.12,0.24,0.16,0.36c0.04,0.16,0.069,0.33,0.109,0.48c0.07,0.32,0.141,0.54,0.311,0.66l-0.16,0.24
			c-0.14-0.089-0.24-0.229-0.3-0.379c-0.061-0.14-0.11-0.311-0.141-0.46c-0.029-0.16-0.06-0.31-0.109-0.46
			c-0.021-0.08-0.051-0.16-0.091-0.23v-0.01h-0.01c-0.01,0-0.02,0-0.029,0.01c-0.021,0-0.05,0-0.07-0.01h-0.05h-0.021v-0.04
			l-0.64,0.28c0.069,0.12,0.12,0.25,0.16,0.38c0.05,0.16,0.08,0.32,0.109,0.47c0.07,0.33,0.15,0.55,0.32,0.67l-0.16,0.24
			c-0.15-0.09-0.239-0.23-0.31-0.38c-0.061-0.14-0.101-0.31-0.13-0.46c-0.04-0.16-0.07-0.311-0.11-0.46
			c-0.03-0.09-0.061-0.17-0.09-0.24h-0.011c-0.01,0-0.02,0-0.029,0c-0.03,0.01-0.05,0-0.07,0h-0.01h-0.04h-0.03l0.01-0.06
			l-0.659,0.28c0.079,0.12,0.14,0.26,0.18,0.4c0.04,0.15,0.07,0.32,0.11,0.47c0.069,0.33,0.14,0.55,0.319,0.67l-0.17,0.24
			c-0.14-0.1-0.239-0.23-0.3-0.38s-0.1-0.31-0.14-0.459c-0.03-0.17-0.061-0.32-0.101-0.46c-0.029-0.09-0.06-0.17-0.1-0.24
			c-0.021,0-0.03,0-0.04,0c-0.021,0-0.05,0-0.07,0h-0.05l-0.02-0.01L501-0.55l-0.681,0.28c0.09,0.13,0.15,0.27,0.19,0.419
			c0.05,0.15,0.08,0.32,0.11,0.47c0.069,0.33,0.149,0.55,0.319,0.67l-0.16,0.24c-0.149-0.1-0.239-0.23-0.3-0.38
			c-0.07-0.15-0.109-0.311-0.14-0.47c-0.04-0.16-0.07-0.31-0.11-0.45c-0.02-0.09-0.05-0.17-0.09-0.24h-0.01c-0.01,0-0.021,0-0.03,0
			c-0.03,0-0.05,0-0.07,0h-0.01h-0.04l-0.029-0.01l0.02-0.1l-0.69,0.29c0.091,0.13,0.15,0.29,0.2,0.44
			c0.04,0.15,0.08,0.32,0.11,0.47c0.07,0.32,0.14,0.55,0.32,0.67l-0.17,0.24c-0.141-0.1-0.23-0.24-0.301-0.38
			c-0.06-0.15-0.1-0.31-0.14-0.47c-0.03-0.16-0.06-0.31-0.1-0.45c-0.03-0.089-0.061-0.169-0.091-0.24h-0.01c-0.01,0-0.03,0-0.04,0
			c-0.02,0-0.04,0-0.06,0h-0.01h-0.04l-0.03-0.01l0.01-0.12l-0.7,0.3c0.101,0.13,0.171,0.29,0.21,0.45
			c0.05,0.15,0.08,0.32,0.12,0.47c0.07,0.32,0.141,0.55,0.311,0.67l-0.16,0.24c-0.15-0.1-0.24-0.24-0.3-0.38
			c-0.07-0.15-0.11-0.31-0.141-0.47c-0.04-0.16-0.06-0.311-0.109-0.45c-0.021-0.09-0.05-0.17-0.091-0.24V0.9l-0.01,0.01
			c-0.01,0-0.02,0-0.03,0c-0.02,0-0.05,0-0.069,0h-0.011L497.91,0.9h-0.021l0.01-0.14l-0.34,0.14l-0.3-0.13l0.01,0.13h-0.01
			l-0.061,0.01c-0.029,0-0.05,0-0.069,0c-0.01,0-0.021,0-0.03,0l-0.01-0.01v0.01c-0.04,0.07-0.07,0.15-0.09,0.24
			c-0.051,0.14-0.08,0.29-0.11,0.45C496.819,1.9,496.729,2.26,496.449,2.45L496.449,2.45z M497.57-1.58l7.26-2.93l-7.26-2.93
			L490.3-4.51L497.57-1.58L497.57-1.58L497.57-1.58z M494.45-3.92L494.45-3.92l0.239-0.1l-1.16-0.47l-0.239,0.1L494.45-3.92
			L494.45-3.92z M495.05-4.16l-1.17-0.47l0.22-0.081l0.16,0.06c-0.03-0.09,0.06-0.18,0.25-0.25c0.08-0.04,0.17-0.06,0.27-0.08
			C494.87-5,494.96-5.01,495.029-5c0.08,0,0.15,0.01,0.221,0.03c0.05,0.01,0.109,0.03,0.2,0.07l0.72,0.29l-0.24,0.09l-0.7-0.29
			c-0.08-0.03-0.149-0.05-0.21-0.06c-0.06-0.01-0.12,0-0.189,0c-0.07,0.01-0.141,0.03-0.2,0.06c-0.101,0.04-0.16,0.08-0.18,0.13
			c-0.021,0.05,0.05,0.11,0.199,0.17l0.63,0.25L495.05-4.16L495.05-4.16L495.05-4.16z M493.08-4.479l-0.23-0.09l0.24-0.09l0.22,0.09
			L493.08-4.479L493.08-4.479L493.08-4.479z M496.68-4.84c-0.07,0.01-0.13,0.02-0.189,0.01c-0.051-0.01-0.141-0.04-0.261-0.08
			l-0.67-0.27l-0.17,0.07l-0.149-0.07l0.17-0.06l-0.29-0.12l0.12-0.14l0.399,0.16l0.24-0.09l0.149,0.06L495.8-5.28L496.47-5
			c0.061,0.021,0.1,0.03,0.12,0.04c0.03,0,0.06,0,0.08-0.01c0.029,0,0.06-0.01,0.1-0.02c0.021-0.01,0.061-0.03,0.09-0.05
			l0.211,0.061c-0.051,0.03-0.11,0.06-0.16,0.08C496.83-4.87,496.75-4.85,496.68-4.84L496.68-4.84L496.68-4.84z M497.87-5.28
			c-0.2,0.08-0.41,0.12-0.631,0.13c-0.229,0-0.43-0.03-0.619-0.11c-0.2-0.07-0.29-0.16-0.28-0.25c0.02-0.09,0.12-0.18,0.31-0.26
			c0.181-0.07,0.391-0.11,0.61-0.11c0.22-0.01,0.43,0.03,0.62,0.1c0.01,0.01,0.03,0.02,0.05,0.03l-1.03,0.41
			c0.141,0.05,0.28,0.07,0.421,0.07c0.149-0.01,0.279-0.03,0.39-0.08c0.09-0.03,0.14-0.07,0.17-0.11
			c0.02-0.041,0.01-0.081-0.04-0.13l0.271-0.09c0.079,0.07,0.1,0.13,0.06,0.2C498.13-5.41,498.029-5.35,497.87-5.28L497.87-5.28
			L497.87-5.28z M496.63-5.55L496.63-5.55c0.01-0.06,0.08-0.11,0.18-0.15c0.12-0.05,0.261-0.07,0.41-0.07c0.09,0,0.2,0.02,0.3,0.05
			l-0.77,0.31C496.66-5.45,496.62-5.5,496.63-5.55L496.63-5.55z M498.739-5.65l-1.6-0.65l0.24-0.09l1.6,0.64L498.739-5.65
			L498.739-5.65z"/>
		<path style="fill-rule:evenodd;clip-rule:evenodd;fill:#FFFFFF;" d="M523.97,3.44l-0.189-0.29c0.199-0.14,0.29-0.41,0.38-0.8
			c0.039-0.18,0.079-0.38,0.13-0.57c0.05-0.18,0.13-0.37,0.25-0.53l-0.83-0.35l0.01,0.13h-0.01l-0.08,0.01c-0.03,0-0.061,0-0.08,0
			s-0.03,0-0.04,0l-0.01-0.01v0.01c-0.051,0.09-0.08,0.18-0.11,0.29c-0.05,0.17-0.09,0.35-0.13,0.54c-0.08,0.36-0.19,0.79-0.53,1.02
			L522.54,2.6c0.2-0.14,0.29-0.41,0.38-0.8c0.04-0.18,0.08-0.39,0.13-0.57c0.05-0.18,0.12-0.36,0.229-0.51l-0.81-0.34l0.01,0.1
			h-0.01l-0.08,0.01c-0.03,0-0.06,0-0.08,0c-0.02,0-0.03,0-0.04,0l-0.01-0.01v0.01c-0.05,0.08-0.08,0.18-0.11,0.29
			c-0.05,0.17-0.09,0.35-0.13,0.54c-0.08,0.36-0.189,0.79-0.529,1.02l-0.2-0.29c0.21-0.14,0.3-0.41,0.39-0.8
			c0.04-0.18,0.07-0.39,0.13-0.57c0.05-0.17,0.11-0.34,0.21-0.49l-0.79-0.34l0.01,0.08h-0.02l-0.069,0.01c-0.03,0-0.061,0-0.081,0
			c-0.02,0-0.029,0-0.04-0.01h-0.01l-0.01,0.01c-0.04,0.08-0.07,0.18-0.109,0.28c-0.051,0.18-0.081,0.36-0.121,0.55
			c-0.08,0.36-0.189,0.79-0.529,1.02l-0.2-0.29c0.21-0.14,0.3-0.411,0.38-0.811c0.04-0.18,0.08-0.379,0.14-0.56
			c0.04-0.16,0.11-0.33,0.2-0.47l-0.78-0.33L520-0.62h-0.021l-0.069,0.01c-0.03,0-0.061,0-0.08,0c-0.021,0-0.03,0-0.051-0.01
			l-0.01,0.01c-0.04,0.08-0.08,0.18-0.109,0.28c-0.051,0.18-0.08,0.36-0.12,0.55c-0.08,0.35-0.19,0.78-0.53,1.02l-0.2-0.3
			c0.21-0.13,0.3-0.4,0.38-0.8c0.04-0.18,0.08-0.38,0.141-0.56c0.04-0.16,0.1-0.31,0.189-0.45l-0.77-0.32v0.02h-0.01l-0.07,0.01
			c-0.03,0-0.061,0-0.09,0c-0.011,0-0.021-0.01-0.04-0.01l-0.011,0.01c-0.039,0.08-0.079,0.18-0.109,0.28
			c-0.05,0.17-0.08,0.36-0.12,0.55c-0.08,0.35-0.19,0.78-0.53,1.01l-0.2-0.29c0.2-0.13,0.3-0.4,0.381-0.8
			c0.04-0.18,0.079-0.38,0.13-0.57c0.05-0.14,0.1-0.29,0.18-0.42l-0.76-0.32l-0.07,0.01c-0.03,0-0.06,0-0.09,0
			c-0.01,0-0.03-0.01-0.04-0.01h-0.01v0.01c-0.04,0.08-0.08,0.18-0.11,0.28c-0.05,0.17-0.08,0.35-0.13,0.55
			c-0.07,0.35-0.18,0.78-0.521,1.01l-0.199-0.29c0.199-0.14,0.29-0.41,0.38-0.8c0.04-0.18,0.08-0.38,0.13-0.57
			c0.04-0.13,0.09-0.27,0.17-0.4l-0.42-0.18v-2.22h0.02l8.7,3.67L534-4.33h0.029v2.22l-0.39,0.16c0.08,0.14,0.13,0.28,0.17,0.42
			c0.061,0.19,0.101,0.39,0.14,0.57c0.08,0.39,0.171,0.66,0.381,0.8l-0.2,0.29c-0.17-0.11-0.28-0.28-0.36-0.46
			c-0.08-0.17-0.12-0.37-0.17-0.55c-0.04-0.2-0.07-0.38-0.12-0.55c-0.03-0.1-0.069-0.2-0.109-0.28l-0.011-0.01
			c-0.02,0-0.029,0.01-0.039,0.01c-0.03,0-0.061,0-0.091,0l-0.05-0.01h-0.04l0.01-0.02l-0.76,0.33c0.08,0.13,0.141,0.28,0.18,0.43
			c0.061,0.189,0.101,0.39,0.141,0.57c0.08,0.39,0.17,0.66,0.38,0.8l-0.2,0.29c-0.17-0.11-0.28-0.28-0.359-0.46
			c-0.081-0.17-0.131-0.36-0.171-0.55s-0.069-0.38-0.119-0.55c-0.03-0.1-0.07-0.2-0.11-0.28l-0.01-0.01
			c-0.021,0-0.03,0.01-0.051,0.01c-0.02,0-0.05,0-0.079,0l-0.061-0.01h-0.03l0.01-0.04l-0.779,0.32c0.09,0.15,0.16,0.31,0.2,0.47
			c0.06,0.18,0.1,0.38,0.13,0.56c0.09,0.39,0.18,0.66,0.39,0.8l-0.2,0.3c-0.17-0.12-0.29-0.29-0.359-0.46
			c-0.08-0.18-0.13-0.37-0.171-0.56c-0.039-0.19-0.079-0.37-0.129-0.55c-0.03-0.1-0.061-0.2-0.11-0.28v-0.01h-0.01
			c-0.011,0.01-0.021,0.01-0.04,0.01c-0.021,0-0.051,0-0.08,0h-0.01l-0.051-0.01h-0.029l0.01-0.07l-0.79,0.34
			c0.1,0.14,0.16,0.31,0.21,0.48c0.061,0.18,0.09,0.38,0.13,0.56c0.09,0.39,0.18,0.661,0.38,0.811l-0.189,0.29
			c-0.181-0.12-0.29-0.29-0.36-0.46c-0.08-0.18-0.13-0.37-0.17-0.56c-0.04-0.19-0.08-0.37-0.13-0.55c-0.03-0.1-0.061-0.2-0.11-0.28
			v-0.01h-0.01c-0.01,0.01-0.021,0.01-0.04,0.01c-0.03,0-0.05,0-0.08,0h-0.01l-0.051-0.01h-0.029l0.01-0.1l-0.81,0.35
			c0.109,0.15,0.18,0.32,0.229,0.5s0.09,0.39,0.13,0.57c0.091,0.379,0.181,0.66,0.38,0.8l-0.189,0.29
			c-0.181-0.12-0.29-0.29-0.37-0.46c-0.07-0.18-0.12-0.37-0.16-0.56s-0.08-0.37-0.13-0.54c-0.03-0.11-0.061-0.21-0.11-0.29V0.48
			l-0.01,0.01c-0.01,0-0.03,0-0.04,0c-0.03,0-0.05,0-0.08,0h-0.01l-0.05-0.01h-0.03l0.01-0.12l-0.819,0.35
			c0.109,0.15,0.18,0.34,0.239,0.52c0.051,0.18,0.091,0.39,0.131,0.57c0.09,0.38,0.17,0.66,0.38,0.8l-0.19,0.29
			c-0.18-0.12-0.29-0.28-0.37-0.46c-0.069-0.18-0.12-0.37-0.16-0.56s-0.08-0.37-0.13-0.54c-0.029-0.11-0.069-0.2-0.11-0.29V1.03
			l-0.01,0.01c-0.01,0-0.029,0-0.04,0c-0.029,0-0.06,0-0.08,0h-0.01l-0.05-0.01h-0.03l0.011-0.15l-0.841,0.36
			c0.131,0.16,0.2,0.35,0.261,0.54c0.05,0.19,0.09,0.39,0.13,0.57c0.09,0.39,0.17,0.66,0.38,0.8l-0.2,0.29
			c-0.17-0.12-0.28-0.28-0.36-0.46C526.25,2.8,526.2,2.61,526.16,2.42c-0.051-0.189-0.08-0.37-0.131-0.54
			c-0.029-0.11-0.069-0.2-0.109-0.29V1.58l-0.01,0.01c-0.011,0-0.03,0-0.04,0c-0.03,0-0.061,0-0.08,0h-0.011l-0.05-0.01H525.7
			l0.02-0.17l-0.41,0.17l-0.37-0.15l0.021,0.15h-0.011l-0.069,0.01c-0.04,0-0.07,0-0.09,0c-0.011,0-0.03,0-0.04,0l-0.011-0.01v0.01
			c-0.04,0.09-0.079,0.18-0.109,0.29c-0.05,0.17-0.09,0.351-0.13,0.54C524.42,2.78,524.32,3.21,523.97,3.44L523.97,3.44z
			 M525.31-1.4l8.72-3.52l-8.72-3.51l-8.71,3.51L525.31-1.4L525.31-1.4L525.31-1.4z M521.58-4.21L521.58-4.21l0.279-0.11l-1.39-0.56
			l-0.28,0.11L521.58-4.21L521.58-4.21z M522.29-4.49l-1.39-0.57l0.25-0.1l0.199,0.08c-0.03-0.11,0.061-0.21,0.29-0.3
			c0.101-0.04,0.21-0.08,0.33-0.1c0.11-0.021,0.21-0.03,0.3-0.021c0.09,0,0.181,0.01,0.26,0.03c0.061,0.01,0.141,0.04,0.25,0.09
			l0.86,0.34l-0.28,0.12l-0.85-0.35c-0.1-0.04-0.18-0.06-0.25-0.07c-0.07-0.01-0.15-0.01-0.23,0c-0.09,0.01-0.17,0.03-0.239,0.06
			c-0.12,0.05-0.19,0.11-0.21,0.17c-0.03,0.06,0.05,0.12,0.229,0.2l0.76,0.3L522.29-4.49L522.29-4.49L522.29-4.49z M519.93-4.87
			l-0.27-0.11l0.279-0.12l0.271,0.11L519.93-4.87L519.93-4.87L519.93-4.87z M524.25-5.3c-0.08,0.01-0.16,0.01-0.23,0
			c-0.06-0.01-0.17-0.04-0.31-0.1l-0.801-0.32L522.7-5.64l-0.181-0.07l0.21-0.081l-0.35-0.14l0.14-0.17l0.49,0.19l0.28-0.11
			l0.18,0.07l-0.28,0.12L524-5.5c0.07,0.021,0.12,0.041,0.149,0.041c0.03,0,0.061,0,0.09,0c0.04,0,0.07-0.01,0.11-0.03
			c0.04-0.01,0.08-0.03,0.12-0.06l0.25,0.07c-0.07,0.04-0.13,0.07-0.19,0.1C524.43-5.34,524.33-5.32,524.25-5.3L524.25-5.3
			L524.25-5.3z M525.68-5.84c-0.24,0.1-0.49,0.15-0.76,0.16c-0.271,0-0.521-0.04-0.74-0.13c-0.24-0.09-0.35-0.2-0.33-0.31
			c0.01-0.11,0.13-0.21,0.36-0.3c0.22-0.09,0.47-0.14,0.739-0.14c0.261-0.01,0.511,0.04,0.74,0.13c0.021,0,0.04,0.01,0.061,0.02
			l-1.23,0.5c0.16,0.06,0.33,0.09,0.5,0.08c0.18,0,0.33-0.03,0.47-0.09c0.101-0.04,0.171-0.08,0.2-0.13
			c0.021-0.05,0.011-0.1-0.05-0.16l0.32-0.1c0.1,0.07,0.13,0.15,0.08,0.23S525.88-5.92,525.68-5.84L525.68-5.84L525.68-5.84z
			 M524.189-6.17L524.189-6.17c0.021-0.06,0.09-0.12,0.221-0.17c0.14-0.06,0.3-0.09,0.479-0.09c0.12,0,0.24,0.02,0.37,0.07
			l-0.92,0.37C524.229-6.04,524.18-6.1,524.189-6.17L524.189-6.17z M526.729-6.29l-1.92-0.77l0.28-0.11l1.92,0.77L526.729-6.29
			L526.729-6.29z"/>
		<path style="fill-rule:evenodd;clip-rule:evenodd;fill:#FFFFFF;" d="M553.859,3.93l-0.21-0.31c0.22-0.15,0.32-0.439,0.41-0.87
			c0.04-0.19,0.09-0.41,0.15-0.621c0.05-0.189,0.13-0.39,0.26-0.57l-0.9-0.37l0.021,0.13l-0.021,0.01h-0.079
			c-0.03,0.01-0.061,0.01-0.091,0.01c-0.01-0.01-0.029-0.01-0.04-0.01h-0.01l-0.01,0.01c-0.04,0.09-0.08,0.19-0.11,0.311
			c-0.06,0.18-0.1,0.38-0.14,0.59c-0.09,0.38-0.2,0.85-0.57,1.1l-0.22-0.32c0.22-0.15,0.32-0.44,0.42-0.87
			c0.04-0.19,0.08-0.41,0.14-0.61c0.061-0.19,0.131-0.38,0.25-0.55l-0.88-0.37l0.01,0.11h-0.01l-0.079,0.01c-0.041,0-0.07,0-0.091,0
			c-0.02,0-0.03,0-0.05-0.01H552v0.01c-0.051,0.09-0.09,0.19-0.12,0.31c-0.05,0.18-0.09,0.38-0.141,0.59
			c-0.079,0.38-0.199,0.85-0.569,1.1l-0.21-0.32c0.22-0.14,0.319-0.439,0.41-0.86c0.04-0.2,0.09-0.42,0.149-0.62
			c0.051-0.18,0.12-0.36,0.23-0.52l-0.86-0.37l0.01,0.08h-0.02l-0.08,0.01c-0.03,0-0.06,0-0.09,0c-0.011,0-0.03,0-0.04,0l-0.01-0.01
			l-0.011,0.01c-0.04,0.09-0.08,0.2-0.109,0.31c-0.061,0.19-0.101,0.38-0.141,0.59c-0.09,0.39-0.199,0.85-0.569,1.1l-0.221-0.31
			c0.221-0.15,0.32-0.44,0.42-0.87c0.04-0.19,0.08-0.41,0.141-0.62c0.05-0.17,0.12-0.34,0.22-0.5l-0.84-0.36v0.05l-0.01,0.01h-0.08
			c-0.04,0.01-0.07,0.01-0.091,0.01c-0.02-0.01-0.029-0.01-0.05-0.01h-0.01v0.01c-0.05,0.09-0.08,0.19-0.12,0.31
			c-0.05,0.18-0.09,0.38-0.14,0.59c-0.08,0.38-0.2,0.85-0.57,1.1l-0.21-0.32c0.221-0.15,0.32-0.44,0.41-0.87
			c0.04-0.19,0.09-0.41,0.15-0.61c0.04-0.17,0.109-0.33,0.199-0.479l-0.819-0.35v0.02h-0.021l-0.08,0.01c-0.029,0-0.06,0-0.09,0
			c-0.01,0-0.03,0-0.04-0.01h-0.01v0.01c-0.05,0.09-0.09,0.19-0.12,0.31c-0.06,0.18-0.1,0.38-0.14,0.59
			c-0.08,0.38-0.2,0.85-0.57,1.1l-0.22-0.32c0.229-0.14,0.319-0.44,0.42-0.86c0.04-0.2,0.08-0.42,0.14-0.62
			c0.05-0.16,0.11-0.31,0.19-0.46l-0.82-0.35l-0.08,0.01c-0.03,0-0.07,0-0.09,0s-0.03,0-0.05,0l-0.01-0.01v0.01
			c-0.05,0.09-0.08,0.2-0.12,0.31c-0.051,0.19-0.09,0.38-0.141,0.59c-0.079,0.39-0.199,0.851-0.569,1.101l-0.21-0.311
			c0.22-0.15,0.319-0.45,0.41-0.87c0.05-0.19,0.09-0.41,0.149-0.62c0.04-0.14,0.101-0.29,0.18-0.43l-0.449-0.19v-2.41h0.02
			l9.42,3.979l9.41-3.979h0.04v2.399l-0.43,0.18c0.09,0.14,0.149,0.3,0.189,0.45c0.061,0.21,0.101,0.43,0.15,0.62
			c0.09,0.42,0.18,0.71,0.41,0.87l-0.21,0.311c-0.19-0.12-0.311-0.3-0.4-0.49c-0.08-0.19-0.13-0.41-0.18-0.61
			c-0.04-0.209-0.08-0.4-0.13-0.59c-0.04-0.11-0.08-0.22-0.12-0.31l-0.01-0.01v0.01c-0.021,0-0.03,0-0.051,0c-0.03,0-0.06,0-0.09,0
			l-0.06-0.01h-0.03v-0.01l-0.82,0.351c0.09,0.14,0.15,0.31,0.2,0.47c0.061,0.2,0.1,0.42,0.14,0.62c0.09,0.419,0.19,0.71,0.41,0.86
			l-0.21,0.32c-0.189-0.13-0.31-0.31-0.39-0.5s-0.14-0.4-0.18-0.6c-0.051-0.21-0.081-0.41-0.141-0.59
			c-0.03-0.12-0.069-0.22-0.12-0.31v-0.01h-0.01c-0.01,0.01-0.03,0.01-0.04,0.01c-0.03,0-0.06,0-0.09,0h-0.01l-0.05-0.01h-0.04
			l0.01-0.04l-0.84,0.35c0.1,0.15,0.159,0.33,0.21,0.5c0.06,0.2,0.1,0.42,0.149,0.61c0.09,0.43,0.181,0.72,0.41,0.87l-0.21,0.32
			c-0.189-0.13-0.31-0.31-0.4-0.5c-0.079-0.19-0.129-0.4-0.18-0.6c-0.04-0.21-0.08-0.41-0.13-0.59c-0.04-0.12-0.08-0.22-0.12-0.31
			l-0.01-0.01c-0.021,0-0.03,0-0.05,0.01c-0.03,0-0.061,0-0.091-0.01h-0.06l-0.03-0.01v-0.07l-0.85,0.36
			c0.1,0.16,0.18,0.34,0.229,0.52c0.061,0.21,0.101,0.43,0.141,0.62c0.09,0.42,0.189,0.71,0.41,0.87l-0.21,0.31
			c-0.19-0.12-0.311-0.3-0.391-0.49s-0.14-0.41-0.18-0.61c-0.05-0.21-0.08-0.4-0.14-0.59c-0.03-0.11-0.07-0.22-0.12-0.31V0.13
			l-0.011,0.01c-0.01,0-0.029,0-0.04,0c-0.029,0-0.06,0-0.09,0h-0.01l-0.05-0.01h-0.04l0.01-0.1l-0.87,0.37
			c0.11,0.16,0.19,0.35,0.24,0.54c0.061,0.2,0.11,0.42,0.15,0.62c0.09,0.42,0.189,0.71,0.409,0.86l-0.209,0.32
			c-0.19-0.13-0.311-0.31-0.4-0.5c-0.08-0.19-0.13-0.4-0.17-0.6c-0.05-0.21-0.09-0.41-0.141-0.59c-0.039-0.12-0.069-0.22-0.119-0.31
			l-0.011-0.01c-0.02,0.01-0.029,0.01-0.05,0.01c-0.03,0-0.06,0-0.08,0h-0.01l-0.06-0.01h-0.03l0.01-0.129l-0.89,0.37
			c0.12,0.17,0.2,0.37,0.26,0.57c0.06,0.2,0.1,0.42,0.14,0.61c0.09,0.42,0.19,0.72,0.42,0.87l-0.22,0.32
			c-0.189-0.13-0.31-0.31-0.39-0.5s-0.13-0.4-0.181-0.6c-0.05-0.21-0.079-0.41-0.14-0.59c-0.03-0.12-0.07-0.22-0.12-0.311V1.33
			h-0.01c-0.01,0-0.03,0-0.04,0.01c-0.03,0-0.06,0-0.09-0.01h-0.01h-0.051l-0.04-0.01l0.021-0.16l-0.91,0.39
			c0.13,0.18,0.21,0.38,0.27,0.58c0.061,0.21,0.101,0.43,0.15,0.621c0.09,0.42,0.19,0.72,0.41,0.87l-0.21,0.31
			c-0.19-0.12-0.311-0.3-0.39-0.49c-0.091-0.19-0.141-0.41-0.181-0.61c-0.05-0.21-0.09-0.4-0.14-0.59
			c-0.03-0.11-0.07-0.22-0.12-0.31V1.92l-0.01,0.01c-0.021,0-0.03,0-0.05,0c-0.03,0-0.061,0-0.08,0h-0.01l-0.061-0.01h-0.03
			l0.021-0.19l-0.44,0.19l-0.399-0.17l0.02,0.17h-0.01l-0.08,0.01c-0.04,0-0.07,0-0.09,0c-0.021,0-0.03,0-0.05,0l-0.011-0.01v0.01
			c-0.05,0.09-0.09,0.2-0.12,0.31c-0.05,0.19-0.09,0.38-0.14,0.59C554.35,3.22,554.229,3.68,553.859,3.93L553.859,3.93z
			 M555.31-1.31l9.45-3.81l-9.45-3.81l-9.439,3.81L555.31-1.31L555.31-1.31L555.31-1.31z M551.27-4.35L551.27-4.35l0.301-0.12
			l-1.511-0.61l-0.3,0.12L551.27-4.35L551.27-4.35z M552.04-4.66l-1.51-0.61l0.27-0.11l0.21,0.09c-0.03-0.12,0.08-0.229,0.33-0.33
			c0.109-0.05,0.22-0.08,0.35-0.1c0.12-0.03,0.23-0.04,0.33-0.04c0.101,0.01,0.19,0.02,0.28,0.04c0.06,0.02,0.15,0.05,0.27,0.1
			l0.931,0.37l-0.311,0.12l-0.92-0.37c-0.1-0.04-0.189-0.07-0.27-0.08c-0.07-0.01-0.15-0.01-0.25,0c-0.09,0.02-0.17,0.04-0.25,0.07
			c-0.13,0.05-0.21,0.11-0.24,0.18c-0.021,0.06,0.061,0.14,0.26,0.21l0.82,0.34L552.04-4.66L552.04-4.66L552.04-4.66z M549.479-5.07
			l-0.3-0.12l0.311-0.12l0.289,0.11L549.479-5.07L549.479-5.07L549.479-5.07z M554.159-5.54c-0.09,0.021-0.169,0.021-0.239,0.01
			c-0.08-0.01-0.19-0.05-0.34-0.11l-0.87-0.35l-0.23,0.09l-0.189-0.08l0.22-0.089l-0.37-0.15l0.15-0.18l0.52,0.21l0.311-0.12
			l0.199,0.08l-0.31,0.12l0.88,0.35c0.08,0.03,0.13,0.05,0.16,0.06c0.03,0,0.07,0,0.1-0.01c0.04,0,0.08-0.01,0.12-0.03
			c0.04-0.01,0.08-0.03,0.13-0.06l0.271,0.08c-0.07,0.04-0.141,0.07-0.21,0.1C554.35-5.58,554.25-5.55,554.159-5.54L554.159-5.54
			L554.159-5.54z M555.71-6.12c-0.261,0.11-0.54,0.17-0.83,0.17c-0.28,0.01-0.55-0.04-0.8-0.13c-0.25-0.11-0.37-0.22-0.36-0.34
			c0.021-0.12,0.149-0.23,0.4-0.33c0.239-0.09,0.5-0.14,0.79-0.15c0.289-0.01,0.56,0.04,0.81,0.14c0.02,0.01,0.04,0.02,0.07,0.03
			l-1.34,0.54c0.18,0.06,0.359,0.09,0.55,0.09c0.189-0.01,0.35-0.04,0.5-0.1c0.12-0.05,0.189-0.1,0.22-0.15
			c0.03-0.05,0.01-0.11-0.05-0.17l0.35-0.11c0.101,0.08,0.13,0.17,0.08,0.25C556.05-6.29,555.92-6.2,555.71-6.12L555.71-6.12
			L555.71-6.12z M554.1-6.47L554.1-6.47c0.01-0.07,0.09-0.14,0.23-0.19c0.16-0.07,0.33-0.1,0.529-0.1c0.12,0,0.261,0.03,0.4,0.07
			l-1,0.41C554.13-6.34,554.08-6.4,554.1-6.47L554.1-6.47z M556.84-6.6l-2.08-0.84l0.31-0.12l2.081,0.84L556.84-6.6L556.84-6.6z"/>
		<path style="fill-rule:evenodd;clip-rule:evenodd;fill:#FFFFFF;" d="M585.89,4.92l-0.25-0.36c0.25-0.17,0.37-0.51,0.48-1
			c0.04-0.23,0.09-0.48,0.159-0.71c0.07-0.23,0.16-0.459,0.311-0.66l-1.04-0.44l0.02,0.16h-0.02l-0.09,0.01
			c-0.04,0.01-0.08,0.01-0.11,0.01c-0.01-0.01-0.03-0.01-0.05-0.01h-0.01v0.01c-0.061,0.1-0.101,0.22-0.141,0.35
			c-0.06,0.22-0.1,0.44-0.159,0.68c-0.091,0.45-0.23,0.99-0.66,1.271l-0.24-0.36c0.25-0.17,0.37-0.51,0.47-1
			c0.05-0.229,0.101-0.479,0.17-0.71c0.061-0.22,0.15-0.44,0.29-0.63L584,1.101l0.02,0.12L584,1.23l-0.09,0.01
			c-0.04,0-0.08,0-0.11,0c-0.021,0-0.03-0.01-0.05-0.01h-0.011v0.01c-0.06,0.1-0.1,0.22-0.14,0.35c-0.06,0.22-0.11,0.44-0.16,0.69
			c-0.1,0.44-0.229,0.98-0.66,1.27l-0.239-0.37c0.25-0.17,0.359-0.511,0.47-1c0.05-0.22,0.1-0.48,0.17-0.71
			c0.06-0.21,0.14-0.42,0.27-0.61l-1-0.42l0.011,0.09l-0.011,0.01l-0.09,0.01c-0.04,0-0.079,0-0.109,0c-0.021,0-0.03,0-0.051-0.01
			h-0.01l-0.01,0.01c-0.05,0.1-0.09,0.22-0.13,0.36c-0.06,0.21-0.11,0.44-0.16,0.68c-0.1,0.44-0.229,0.98-0.66,1.271l-0.25-0.37
			c0.261-0.17,0.37-0.51,0.48-1c0.05-0.22,0.1-0.47,0.17-0.71c0.06-0.2,0.13-0.4,0.25-0.58l-0.97-0.41v0.06h-0.011l-0.09,0.01
			c-0.04,0-0.08,0-0.109,0c-0.021,0-0.04,0-0.051-0.01h-0.01l-0.01,0.01c-0.05,0.11-0.09,0.23-0.13,0.36
			c-0.07,0.21-0.11,0.44-0.16,0.68c-0.1,0.439-0.24,0.979-0.66,1.27l-0.25-0.37c0.26-0.17,0.37-0.51,0.48-1
			c0.05-0.22,0.1-0.47,0.17-0.71c0.05-0.19,0.12-0.38,0.229-0.55l-0.95-0.41v0.03h-0.02l-0.09,0.01c-0.04,0-0.07,0-0.1,0
			c-0.021,0-0.041,0-0.051,0l-0.01-0.01l-0.01,0.01c-0.051,0.11-0.101,0.23-0.131,0.36c-0.069,0.21-0.109,0.44-0.159,0.68
			c-0.101,0.44-0.24,0.98-0.66,1.271l-0.25-0.36c0.26-0.18,0.37-0.51,0.479-1c0.051-0.23,0.101-0.48,0.16-0.71
			c0.061-0.19,0.12-0.37,0.22-0.54l-0.949-0.4l-0.091,0.01c-0.039,0-0.069,0-0.1,0c-0.02,0-0.04,0-0.06,0l-0.01-0.01v0.01
			c-0.051,0.11-0.101,0.229-0.141,0.36c-0.06,0.21-0.1,0.44-0.149,0.68C577.14-0.03,577,0.5,576.58,0.79l-0.25-0.36
			c0.25-0.17,0.37-0.51,0.479-1c0.05-0.23,0.09-0.48,0.16-0.71c0.05-0.18,0.12-0.35,0.21-0.51l-0.52-0.22v-2.78h0.02l10.87,4.601
			l10.87-4.601h0.04v2.78l-0.49,0.2c0.1,0.17,0.16,0.35,0.22,0.53c0.061,0.23,0.11,0.48,0.16,0.71c0.11,0.48,0.22,0.82,0.48,1
			l-0.25,0.36c-0.21-0.14-0.351-0.35-0.45-0.57c-0.101-0.22-0.16-0.47-0.21-0.7c-0.05-0.24-0.09-0.47-0.16-0.68
			c-0.03-0.13-0.08-0.25-0.13-0.36l-0.01-0.01l-0.011,0.01c-0.01,0-0.029,0-0.05,0c-0.03,0-0.07,0-0.1,0h-0.01l-0.061-0.01h-0.04
			v-0.02l-0.95,0.41c0.11,0.17,0.181,0.36,0.23,0.55c0.069,0.23,0.12,0.48,0.17,0.71c0.11,0.48,0.22,0.82,0.479,1l-0.25,0.36
			c-0.22-0.15-0.35-0.35-0.449-0.57c-0.101-0.22-0.16-0.47-0.21-0.7c-0.05-0.24-0.101-0.47-0.16-0.68
			c-0.04-0.13-0.08-0.25-0.13-0.36l-0.01-0.01l-0.011,0.01c-0.02,0-0.029,0-0.05,0c-0.03,0-0.07,0-0.1,0h-0.011l-0.06-0.01h-0.04
			v-0.05l-0.97,0.41c0.12,0.18,0.189,0.379,0.25,0.57c0.069,0.24,0.119,0.49,0.17,0.71c0.109,0.49,0.22,0.83,0.479,1l-0.25,0.37
			c-0.22-0.15-0.359-0.35-0.45-0.58c-0.1-0.209-0.159-0.459-0.21-0.689c-0.05-0.24-0.1-0.47-0.159-0.68
			c-0.04-0.13-0.08-0.25-0.141-0.36v-0.01h-0.01c-0.02,0.01-0.03,0.01-0.05,0.01c-0.04,0-0.07,0-0.101,0h-0.01l-0.07-0.01h-0.029
			v-0.09l-0.98,0.42c0.12,0.19,0.2,0.39,0.26,0.6c0.07,0.24,0.12,0.49,0.171,0.71c0.1,0.49,0.21,0.83,0.47,1l-0.24,0.37
			c-0.22-0.15-0.36-0.36-0.45-0.58c-0.1-0.21-0.16-0.46-0.21-0.69c-0.05-0.239-0.1-0.47-0.16-0.68c-0.04-0.14-0.08-0.26-0.14-0.36
			V0.54h-0.01c-0.021,0.01-0.03,0.01-0.05,0.01c-0.04,0-0.07,0-0.101,0h-0.01l-0.07-0.01l-0.04-0.01l0.021-0.11l-1.011,0.419
			c0.131,0.19,0.221,0.411,0.28,0.63c0.07,0.23,0.12,0.49,0.17,0.71c0.101,0.49,0.21,0.83,0.471,1l-0.24,0.37
			c-0.22-0.15-0.36-0.36-0.46-0.58c-0.09-0.22-0.15-0.46-0.2-0.69c-0.06-0.25-0.1-0.47-0.16-0.69c-0.04-0.129-0.08-0.25-0.14-0.35
			V1.23h-0.01c-0.021,0-0.04,0.01-0.051,0.01c-0.04,0-0.069,0-0.109,0l-0.07-0.01l-0.04-0.01l0.021-0.15l-1.03,0.44
			c0.14,0.19,0.229,0.42,0.3,0.65c0.07,0.23,0.11,0.48,0.16,0.71c0.11,0.49,0.22,0.83,0.479,1l-0.25,0.36
			c-0.21-0.14-0.35-0.35-0.449-0.57c-0.091-0.22-0.15-0.46-0.21-0.7c-0.051-0.24-0.091-0.459-0.15-0.68
			c-0.04-0.13-0.09-0.25-0.141-0.35l-0.01-0.01c-0.02,0-0.04,0-0.06,0.01c-0.03,0-0.07,0-0.1-0.01h-0.011h-0.06l-0.04-0.01
			l0.02-0.18l-1.05,0.439c0.15,0.21,0.25,0.44,0.32,0.68c0.06,0.23,0.11,0.48,0.16,0.71c0.109,0.48,0.22,0.82,0.479,1l-0.25,0.36
			c-0.21-0.14-0.35-0.35-0.45-0.57c-0.1-0.22-0.159-0.46-0.21-0.7c-0.05-0.24-0.09-0.46-0.159-0.68c-0.03-0.13-0.08-0.25-0.131-0.36
			l-0.01-0.01l-0.01,0.01c-0.01,0-0.03,0-0.05,0c-0.03,0.01-0.07,0-0.1,0h-0.011h-0.06l-0.04-0.01l0.02-0.22l-0.51,0.22l-0.45-0.19
			l0.021,0.19H587.1l-0.09,0.01c-0.04,0-0.07,0.01-0.1,0c-0.021,0-0.04,0-0.061,0V2.6l-0.01,0.01c-0.05,0.11-0.101,0.23-0.141,0.36
			c-0.06,0.22-0.1,0.44-0.159,0.68C586.449,4.1,586.31,4.63,585.89,4.92L585.89,4.92z M587.56-1.13l10.9-4.39l-10.9-4.4l-10.899,4.4
			L587.56-1.13L587.56-1.13L587.56-1.13z M582.89-4.64L582.89-4.64l0.35-0.14l-1.739-0.7l-0.351,0.14L582.89-4.64L582.89-4.64z
			 M583.779-4.99L582.04-5.7l0.31-0.12l0.25,0.1c-0.04-0.14,0.09-0.27,0.37-0.39c0.13-0.05,0.26-0.08,0.4-0.11
			c0.149-0.03,0.28-0.04,0.39-0.04c0.11,0.01,0.22,0.02,0.33,0.05c0.061,0.01,0.17,0.05,0.3,0.11l1.07,0.43l-0.351,0.14l-1.06-0.43
			c-0.12-0.05-0.22-0.081-0.311-0.09c-0.089-0.01-0.18-0.01-0.29,0c-0.1,0.01-0.199,0.04-0.289,0.08c-0.15,0.06-0.24,0.13-0.271,0.2
			c-0.03,0.08,0.07,0.16,0.29,0.25l0.95,0.39L583.779-4.99L583.779-4.99L583.779-4.99z M580.83-5.47l-0.34-0.14l0.35-0.14l0.34,0.14
			L580.83-5.47L580.83-5.47L580.83-5.47z M586.229-6.01c-0.1,0.02-0.2,0.02-0.279,0.01c-0.091-0.01-0.221-0.05-0.391-0.12
			l-1.01-0.41l-0.25,0.11l-0.23-0.09l0.25-0.11l-0.43-0.17l0.18-0.21l0.601,0.24l0.359-0.14l0.23,0.09l-0.36,0.14l1.021,0.41
			c0.09,0.04,0.149,0.06,0.18,0.06c0.04,0.01,0.08,0.01,0.12,0c0.04,0,0.09-0.02,0.14-0.04c0.04-0.01,0.09-0.04,0.141-0.07
			l0.319,0.09c-0.09,0.05-0.17,0.09-0.239,0.12C586.449-6.05,586.33-6.02,586.229-6.01L586.229-6.01L586.229-6.01z M588.02-6.67
			c-0.3,0.12-0.62,0.18-0.949,0.19c-0.341,0.01-0.65-0.04-0.931-0.16c-0.29-0.11-0.43-0.24-0.41-0.38
			c0.011-0.14,0.17-0.26,0.45-0.38c0.28-0.11,0.59-0.17,0.92-0.18c0.33,0,0.64,0.05,0.93,0.169c0.021,0,0.04,0.011,0.08,0.03
			l-1.55,0.62c0.21,0.07,0.42,0.11,0.64,0.1c0.211,0,0.41-0.04,0.58-0.11c0.131-0.05,0.21-0.11,0.25-0.17
			c0.03-0.06,0.011-0.12-0.06-0.2l0.4-0.13c0.119,0.1,0.149,0.2,0.1,0.3C588.41-6.87,588.26-6.77,588.02-6.67L588.02-6.67
			L588.02-6.67z M586.16-7.08L586.16-7.08c0.02-0.08,0.109-0.16,0.27-0.22c0.18-0.08,0.38-0.11,0.601-0.11
			c0.149,0,0.3,0.03,0.47,0.081l-1.16,0.47C586.2-6.93,586.14-7,586.16-7.08L586.16-7.08z M589.33-7.23l-2.41-0.97l0.359-0.14
			l2.4,0.97L589.33-7.23L589.33-7.23z"/>
		<path style="fill-rule:evenodd;clip-rule:evenodd;fill:#FFFFFF;" d="M622.819,7.39l-0.329-0.48c0.34-0.23,0.489-0.68,0.64-1.33
			c0.06-0.3,0.13-0.64,0.22-0.95c0.09-0.31,0.21-0.61,0.41-0.88l-1.39-0.58l0.029,0.21l-0.029,0.01l-0.11,0.01
			c-0.061,0-0.11,0-0.15,0c-0.02,0-0.05,0-0.069-0.01h-0.011V3.4c-0.079,0.14-0.14,0.3-0.189,0.48c-0.08,0.28-0.14,0.58-0.21,0.9
			c-0.13,0.6-0.311,1.31-0.88,1.7l-0.33-0.49c0.34-0.23,0.5-0.68,0.64-1.33c0.06-0.3,0.13-0.64,0.22-0.95
			c0.09-0.29,0.2-0.59,0.381-0.84L620.31,2.3l0.021,0.16l-0.021,0.01l-0.12,0.01c-0.06,0-0.109,0.01-0.149,0
			c-0.021,0-0.04,0-0.07-0.01h-0.01v0.01c-0.08,0.14-0.141,0.3-0.19,0.479c-0.08,0.28-0.14,0.59-0.21,0.91
			c-0.13,0.59-0.31,1.31-0.88,1.69l-0.32-0.49c0.33-0.22,0.49-0.68,0.63-1.33c0.07-0.3,0.131-0.64,0.221-0.95
			c0.08-0.28,0.189-0.56,0.359-0.81l-1.319-0.56l0.01,0.13h-0.021l-0.119,0.01c-0.061,0.01-0.101,0.01-0.15,0
			c-0.021,0-0.04,0-0.06-0.01h-0.021v0.01c-0.07,0.14-0.13,0.3-0.19,0.48c-0.079,0.29-0.14,0.59-0.209,0.91
			c-0.131,0.59-0.311,1.31-0.881,1.69l-0.319-0.48c0.34-0.23,0.489-0.68,0.63-1.34c0.07-0.3,0.13-0.63,0.22-0.95
			c0.08-0.26,0.19-0.53,0.34-0.77l-1.3-0.55l0.01,0.08h-0.02l-0.12,0.01c-0.05,0.01-0.1,0.01-0.14,0.01
			c-0.03-0.01-0.051-0.01-0.07-0.01l-0.01-0.01l-0.011,0.02c-0.069,0.14-0.13,0.3-0.18,0.47c-0.09,0.29-0.15,0.59-0.22,0.91
			c-0.13,0.59-0.311,1.31-0.88,1.69l-0.32-0.48c0.34-0.23,0.49-0.68,0.63-1.33c0.07-0.3,0.13-0.64,0.22-0.95
			c0.081-0.26,0.181-0.51,0.32-0.74l-1.27-0.54v0.03H614.1l-0.12,0.01c-0.05,0.01-0.1,0.01-0.14,0.01c-0.03,0-0.05-0.01-0.07-0.01
			h-0.01l-0.01,0.01c-0.07,0.14-0.13,0.3-0.181,0.47c-0.09,0.29-0.14,0.59-0.21,0.91c-0.13,0.59-0.31,1.31-0.88,1.7l-0.33-0.49
			c0.341-0.23,0.49-0.68,0.63-1.33c0.07-0.3,0.13-0.64,0.23-0.95c0.07-0.24,0.16-0.49,0.29-0.709l-1.271-0.54l-0.119,0.02
			c-0.051,0-0.101,0-0.141,0c-0.029,0-0.05,0-0.069-0.01h-0.011l-0.01,0.01c-0.07,0.14-0.13,0.3-0.18,0.48
			c-0.08,0.28-0.141,0.581-0.21,0.9c-0.13,0.6-0.311,1.311-0.88,1.7l-0.33-0.49c0.34-0.23,0.489-0.68,0.64-1.33
			c0.06-0.3,0.12-0.64,0.22-0.95c0.061-0.23,0.15-0.46,0.271-0.67l-0.69-0.29v-3.72h0.03l14.49,6.13l14.489-6.13h0.051v3.71
			l-0.65,0.27c0.13,0.22,0.22,0.46,0.29,0.7c0.09,0.31,0.16,0.65,0.22,0.95c0.15,0.65,0.29,1.1,0.641,1.33l-0.33,0.49
			c-0.29-0.2-0.471-0.47-0.601-0.77c-0.13-0.29-0.21-0.61-0.279-0.93c-0.07-0.319-0.13-0.62-0.21-0.9
			c-0.051-0.18-0.11-0.34-0.181-0.48l-0.01-0.01h-0.01c-0.021,0.01-0.05,0.01-0.07,0.01c-0.05,0-0.09,0-0.13,0h-0.021L638.16-1.2
			l-0.051-0.01V-1.23l-1.27,0.54c0.14,0.22,0.24,0.48,0.31,0.73c0.09,0.311,0.16,0.65,0.221,0.95c0.149,0.64,0.29,1.1,0.64,1.33
			l-0.33,0.49c-0.29-0.2-0.47-0.48-0.6-0.77c-0.131-0.29-0.21-0.62-0.28-0.93c-0.07-0.32-0.13-0.62-0.21-0.91
			c-0.05-0.17-0.11-0.33-0.18-0.47l-0.011-0.01h-0.01c-0.02,0-0.05,0.01-0.07,0.01c-0.039,0-0.09,0-0.13,0h-0.02l-0.08-0.01
			l-0.05-0.01v-0.07l-1.29,0.55c0.149,0.24,0.26,0.5,0.33,0.771c0.1,0.31,0.16,0.65,0.229,0.95c0.141,0.64,0.28,1.1,0.63,1.33
			l-0.33,0.48c-0.29-0.19-0.47-0.47-0.6-0.76s-0.21-0.62-0.28-0.93c-0.069-0.32-0.12-0.62-0.21-0.91
			c-0.05-0.17-0.109-0.33-0.18-0.47l-0.01-0.02l-0.011,0.01c-0.02,0-0.04,0-0.069,0.01c-0.04,0-0.09,0-0.13-0.01H634.1l-0.08-0.01
			h-0.05l0.01-0.11l-1.319,0.55c0.17,0.25,0.27,0.53,0.359,0.8c0.09,0.32,0.15,0.65,0.22,0.95c0.141,0.65,0.29,1.1,0.631,1.34
			l-0.33,0.48c-0.29-0.19-0.471-0.47-0.601-0.76s-0.21-0.62-0.279-0.93c-0.07-0.32-0.12-0.62-0.211-0.91
			c-0.05-0.18-0.109-0.34-0.18-0.48l-0.01-0.01h-0.01c-0.021,0.01-0.04,0.01-0.07,0.01c-0.04,0.01-0.09,0.01-0.13,0h-0.01
			l-0.091-0.01h-0.05l0.021-0.16l-1.351,0.57c0.181,0.25,0.29,0.54,0.381,0.83c0.09,0.31,0.149,0.65,0.22,0.95
			c0.14,0.65,0.29,1.1,0.63,1.33l-0.32,0.49c-0.29-0.19-0.479-0.47-0.609-0.771c-0.13-0.29-0.21-0.61-0.271-0.92
			c-0.07-0.32-0.13-0.63-0.22-0.91c-0.05-0.18-0.11-0.34-0.18-0.479l-0.011-0.01h-0.01c-0.02,0.01-0.04,0.01-0.07,0.01
			c-0.04,0.01-0.09,0-0.13,0h-0.01l-0.09-0.01l-0.05-0.01l0.02-0.2l-1.37,0.58c0.19,0.26,0.311,0.57,0.4,0.87
			c0.09,0.311,0.149,0.65,0.22,0.95c0.14,0.65,0.29,1.1,0.63,1.33l-0.319,0.49c-0.29-0.2-0.48-0.47-0.61-0.77
			c-0.12-0.29-0.2-0.62-0.271-0.93c-0.069-0.32-0.13-0.62-0.21-0.9c-0.06-0.18-0.12-0.34-0.189-0.48V3.39h-0.021
			c-0.02,0.01-0.039,0.01-0.06,0.01c-0.05,0-0.101,0-0.14,0h-0.011l-0.09-0.01l-0.05-0.01l0.03-0.25l-1.41,0.6h0.01
			c0.2,0.27,0.33,0.59,0.42,0.9c0.09,0.31,0.15,0.65,0.221,0.95c0.14,0.64,0.289,1.1,0.64,1.33l-0.33,0.48
			c-0.29-0.19-0.48-0.47-0.61-0.76c-0.12-0.29-0.2-0.62-0.27-0.93c-0.07-0.32-0.13-0.62-0.21-0.91c-0.05-0.169-0.11-0.33-0.19-0.47
			v-0.01h-0.01c-0.03,0-0.05,0.01-0.07,0.01c-0.05,0-0.1,0-0.14,0h-0.01l-0.09-0.01l-0.051-0.01l0.03-0.29l-0.68,0.29l-0.601-0.26
			l0.03,0.26h-0.03l-0.12,0.02c-0.05,0-0.1,0-0.14,0c-0.02,0-0.05-0.01-0.07-0.01h-0.01l-0.01,0.01c-0.07,0.14-0.13,0.3-0.18,0.47
			c-0.08,0.29-0.141,0.59-0.211,0.91C623.57,6.291,623.39,7.01,622.819,7.39L622.819,7.39z M625.05-0.669l14.53-5.86l-14.53-5.86
			l-14.53,5.86L625.05-0.669L625.05-0.669L625.05-0.669z M618.83-5.35L618.83-5.35l0.47-0.19l-2.32-0.93l-0.47,0.19L618.83-5.35
			L618.83-5.35z M620.01-5.83l-2.32-0.93l0.42-0.17l0.33,0.13c-0.05-0.18,0.12-0.35,0.5-0.51c0.16-0.07,0.34-0.12,0.53-0.15
			c0.19-0.04,0.36-0.05,0.51-0.05c0.16,0.01,0.3,0.02,0.44,0.06c0.09,0.02,0.229,0.07,0.41,0.14l1.43,0.58l-0.47,0.19l-1.41-0.57
			c-0.16-0.07-0.3-0.11-0.42-0.12c-0.11-0.02-0.24-0.02-0.38,0c-0.141,0.01-0.271,0.05-0.4,0.1c-0.2,0.08-0.32,0.17-0.359,0.27
			c-0.03,0.1,0.09,0.21,0.39,0.33l1.27,0.52L620.01-5.83L620.01-5.83L620.01-5.83z M616.08-6.459l-0.45-0.18l0.46-0.19l0.46,0.18
			L616.08-6.459L616.08-6.459L616.08-6.459z M623.279-7.17c-0.14,0.01-0.27,0.021-0.38,0c-0.109-0.01-0.279-0.06-0.52-0.16
			l-1.33-0.54l-0.35,0.14l-0.301-0.12l0.341-0.14l-0.58-0.23l0.239-0.29l0.811,0.33l0.47-0.19l0.3,0.12l-0.47,0.19l1.36,0.55
			c0.109,0.05,0.189,0.07,0.239,0.08c0.051,0,0.101,0,0.16,0c0.051-0.01,0.12-0.03,0.19-0.06c0.05-0.02,0.11-0.05,0.189-0.09
			l0.41,0.12c-0.11,0.06-0.21,0.11-0.32,0.15C623.57-7.24,623.42-7.19,623.279-7.17L623.279-7.17L623.279-7.17z M625.67-8.07
			c-0.41,0.17-0.83,0.26-1.28,0.27c-0.44,0.01-0.85-0.06-1.229-0.22c-0.391-0.15-0.57-0.32-0.551-0.51
			c0.021-0.18,0.23-0.35,0.61-0.5c0.37-0.15,0.78-0.23,1.22-0.24c0.45-0.01,0.86,0.06,1.24,0.22c0.03,0.01,0.061,0.02,0.11,0.04
			l-2.07,0.83c0.28,0.1,0.56,0.14,0.85,0.13c0.29,0,0.551-0.05,0.78-0.15c0.17-0.07,0.28-0.14,0.32-0.22
			c0.05-0.08,0.03-0.17-0.07-0.26l0.54-0.18c0.16,0.13,0.2,0.26,0.12,0.4C626.189-8.33,625.99-8.2,625.67-8.07L625.67-8.07
			L625.67-8.07z M623.18-8.61L623.18-8.61c0.03-0.11,0.15-0.21,0.37-0.3c0.229-0.09,0.5-0.14,0.8-0.14c0.2,0,0.4,0.04,0.62,0.11
			l-1.54,0.62C623.239-8.41,623.16-8.5,623.18-8.61L623.18-8.61z M627.41-8.81l-3.2-1.29l0.46-0.19L627.88-9L627.41-8.81
			L627.41-8.81z"/>
		<path style="fill-rule:evenodd;clip-rule:evenodd;fill:#FFFFFF;" d="M666.62,9.37l-0.391-0.58c0.4-0.27,0.59-0.82,0.761-1.6
			c0.079-0.36,0.149-0.76,0.26-1.14c0.109-0.36,0.26-0.73,0.489-1.05l-1.659-0.7l0.029,0.26h-0.029l-0.141,0.02
			c-0.06,0-0.12,0-0.17,0c-0.029,0-0.06-0.01-0.08-0.01l-0.02-0.01v0.02c-0.09,0.17-0.16,0.36-0.22,0.57
			c-0.101,0.34-0.171,0.7-0.261,1.09c-0.149,0.71-0.37,1.57-1.05,2.03l-0.4-0.58c0.41-0.28,0.591-0.82,0.761-1.601
			c0.08-0.36,0.16-0.76,0.27-1.14c0.101-0.35,0.24-0.7,0.46-1.01l-1.62-0.69l0.021,0.21h-0.03l-0.14,0.021c-0.07,0-0.13,0-0.17,0
			c-0.03,0-0.061-0.01-0.091-0.01l-0.01-0.01l-0.01,0.021c-0.09,0.17-0.16,0.36-0.22,0.57c-0.101,0.34-0.17,0.7-0.25,1.09
			c-0.16,0.71-0.37,1.57-1.061,2.03l-0.39-0.58c0.41-0.28,0.59-0.82,0.76-1.6c0.08-0.36,0.16-0.77,0.271-1.14
			c0.1-0.34,0.229-0.669,0.43-0.97l-1.59-0.67l0.02,0.14l-0.029,0.01l-0.15,0.01c-0.06,0.01-0.12,0.01-0.17,0.01
			c-0.03-0.01-0.05-0.01-0.08-0.02h-0.01l-0.01,0.02c-0.091,0.16-0.16,0.36-0.221,0.57c-0.1,0.34-0.17,0.7-0.25,1.09
			c-0.16,0.71-0.38,1.57-1.06,2.03l-0.39-0.58c0.409-0.28,0.59-0.82,0.76-1.6c0.08-0.36,0.159-0.77,0.27-1.14
			c0.09-0.32,0.21-0.64,0.4-0.93l-1.561-0.66l0.011,0.09l-0.021,0.01l-0.149,0.01c-0.061,0.01-0.12,0.01-0.171,0
			c-0.029,0-0.06,0-0.079-0.01h-0.011l-0.01,0.01c-0.09,0.17-0.16,0.36-0.22,0.581c-0.101,0.34-0.17,0.7-0.26,1.08
			c-0.15,0.72-0.371,1.58-1.051,2.04l-0.399-0.59c0.41-0.27,0.6-0.81,0.77-1.59c0.08-0.36,0.15-0.771,0.26-1.14
			c0.091-0.311,0.21-0.62,0.381-0.89l-1.521-0.65v0.04h-0.029L656.01,0.17c-0.06,0-0.12,0.01-0.17,0c-0.03,0-0.061,0-0.08-0.01
			h-0.021l-0.01,0.01c-0.079,0.17-0.149,0.36-0.21,0.57c-0.109,0.35-0.18,0.71-0.26,1.09c-0.15,0.71-0.37,1.58-1.05,2.04l-0.4-0.59
			c0.41-0.27,0.59-0.81,0.761-1.6c0.079-0.36,0.159-0.76,0.27-1.13c0.09-0.3,0.189-0.59,0.35-0.85l-1.52-0.65l-0.141,0.02
			c-0.069,0-0.12,0-0.17,0c-0.029,0-0.06,0-0.09-0.01h-0.01l-0.01,0.01c-0.08,0.17-0.16,0.36-0.221,0.57
			c-0.1,0.34-0.17,0.71-0.25,1.09c-0.16,0.71-0.369,1.57-1.06,2.03l-0.39-0.58c0.409-0.27,0.59-0.82,0.76-1.6
			c0.08-0.36,0.16-0.76,0.27-1.14c0.08-0.27,0.181-0.55,0.33-0.8l-0.83-0.35v-4.46h0.04l17.38,7.36l17.391-7.36h0.06v4.45
			l-0.78,0.33c0.16,0.26,0.271,0.55,0.351,0.83c0.11,0.38,0.189,0.78,0.271,1.14c0.169,0.78,0.34,1.32,0.76,1.6l-0.391,0.58
			c-0.35-0.23-0.569-0.56-0.729-0.91c-0.15-0.35-0.25-0.74-0.33-1.121c-0.08-0.379-0.15-0.75-0.25-1.09
			c-0.07-0.21-0.14-0.4-0.22-0.57l-0.011-0.01h-0.02c-0.021,0.01-0.05,0.01-0.08,0.01c-0.05,0-0.11,0-0.16,0h-0.01l-0.11-0.01
			l-0.06-0.01v-0.02l-1.51,0.64c0.159,0.27,0.279,0.57,0.369,0.88c0.11,0.37,0.19,0.77,0.261,1.13c0.17,0.78,0.35,1.32,0.77,1.6
			l-0.399,0.59c-0.351-0.24-0.57-0.57-0.721-0.92c-0.149-0.35-0.25-0.74-0.33-1.12c-0.09-0.38-0.16-0.74-0.26-1.09
			c-0.06-0.21-0.13-0.4-0.22-0.57V0.16h-0.02c-0.03,0.01-0.051,0.01-0.081,0.01c-0.06,0.01-0.109,0-0.159,0h-0.021l-0.1-0.01
			l-0.061-0.01l0.01-0.08l-1.55,0.66c0.181,0.28,0.3,0.6,0.391,0.92c0.119,0.37,0.189,0.78,0.27,1.14c0.17,0.77,0.35,1.32,0.76,1.59
			l-0.39,0.59c-0.35-0.24-0.57-0.57-0.72-0.92c-0.16-0.35-0.25-0.74-0.34-1.12c-0.08-0.38-0.15-0.74-0.25-1.08
			c-0.061-0.221-0.131-0.41-0.221-0.581l-0.01-0.01h-0.01c-0.03,0.01-0.05,0.01-0.08,0.01c-0.061,0.01-0.11,0.01-0.16,0h-0.02
			l-0.101-0.01l-0.069-0.01l0.02-0.13l-1.58,0.67c0.19,0.29,0.33,0.629,0.42,0.96c0.11,0.37,0.19,0.78,0.271,1.14
			c0.17,0.77,0.35,1.32,0.76,1.6l-0.39,0.58c-0.351-0.23-0.57-0.57-0.73-0.92c-0.15-0.35-0.25-0.74-0.33-1.11
			c-0.08-0.39-0.15-0.75-0.25-1.09c-0.06-0.21-0.13-0.41-0.22-0.57l-0.011-0.02h-0.01c-0.029,0.01-0.06,0.01-0.09,0.02
			c-0.05,0-0.11,0-0.16-0.01h-0.01l-0.109-0.01l-0.061-0.01l0.02-0.18l-1.609,0.68c0.21,0.3,0.35,0.65,0.45,1
			c0.109,0.37,0.189,0.78,0.27,1.14c0.17,0.78,0.34,1.32,0.76,1.6L677,7.17c-0.34-0.229-0.561-0.569-0.721-0.919
			c-0.149-0.35-0.25-0.74-0.329-1.11c-0.091-0.39-0.15-0.75-0.25-1.09c-0.07-0.21-0.141-0.4-0.221-0.57l-0.01-0.021l-0.02,0.01
			c-0.021,0-0.051,0.01-0.081,0.01c-0.05,0-0.109,0-0.159,0h-0.01l-0.11-0.021h-0.061l0.03-0.25l-1.649,0.7
			c0.229,0.31,0.369,0.68,0.479,1.04c0.11,0.38,0.18,0.78,0.261,1.14c0.169,0.78,0.35,1.32,0.77,1.601l-0.4,0.58
			c-0.34-0.23-0.569-0.561-0.72-0.92c-0.16-0.35-0.25-0.74-0.33-1.11c-0.09-0.39-0.16-0.75-0.26-1.09
			c-0.061-0.21-0.13-0.4-0.221-0.57v-0.02l-0.02,0.01c-0.021,0-0.05,0.01-0.08,0.01c-0.06,0-0.11,0-0.16,0h-0.02l-0.101-0.02h-0.06
			l0.03-0.3l-1.69,0.72h0.01c0.24,0.32,0.391,0.7,0.5,1.07c0.11,0.38,0.19,0.78,0.271,1.14c0.17,0.78,0.35,1.32,0.76,1.6l-0.39,0.58
			c-0.351-0.23-0.57-0.56-0.721-0.91c-0.159-0.35-0.25-0.74-0.34-1.12c-0.08-0.38-0.149-0.75-0.25-1.09
			c-0.06-0.21-0.13-0.4-0.22-0.57l-0.01-0.01h-0.01c-0.03,0-0.051,0.01-0.08,0.01c-0.061,0-0.11,0-0.17,0h-0.011l-0.1-0.01
			l-0.061-0.01l0.03-0.35l-0.82,0.35l-0.72-0.31l0.03,0.31h-0.02l-0.15,0.02c-0.061,0-0.12,0-0.17,0c-0.03,0-0.051-0.01-0.08-0.01
			h-0.01l-0.011,0.01c-0.09,0.17-0.16,0.36-0.22,0.57c-0.1,0.34-0.17,0.71-0.26,1.09C667.52,8.05,667.3,8.91,666.62,9.37
			L666.62,9.37z M669.3-0.3l17.43-7.04l-17.43-7.03l-17.44,7.03L669.3-0.3L669.3-0.3L669.3-0.3z M661.83-5.92L661.83-5.92l0.56-0.23
			l-2.78-1.12l-0.569,0.23L661.83-5.92L661.83-5.92z M663.25-6.49l-2.79-1.13l0.51-0.2l0.39,0.16c-0.06-0.22,0.141-0.43,0.601-0.61
			c0.2-0.08,0.41-0.14,0.64-0.19c0.23-0.04,0.44-0.06,0.62-0.05c0.18,0,0.351,0.03,0.52,0.07c0.11,0.02,0.271,0.08,0.49,0.169
			l1.71,0.69l-0.56,0.23l-1.69-0.69c-0.2-0.07-0.359-0.121-0.5-0.14c-0.14-0.03-0.29-0.02-0.46,0c-0.17,0.02-0.33,0.06-0.479,0.12
			c-0.24,0.1-0.381,0.21-0.431,0.33c-0.04,0.12,0.11,0.25,0.471,0.4l1.52,0.61L663.25-6.49L663.25-6.49L663.25-6.49z M658.53-7.25
			l-0.551-0.22l0.57-0.23l0.54,0.22L658.53-7.25L658.53-7.25L658.53-7.25z M667.17-8.11c-0.17,0.02-0.32,0.03-0.45,0.01
			c-0.14-0.02-0.351-0.08-0.63-0.2l-1.601-0.64l-0.409,0.16l-0.37-0.15l0.41-0.16l-0.69-0.28l0.28-0.34l0.97,0.39l0.57-0.22
			l0.359,0.14l-0.56,0.23l1.63,0.66c0.13,0.05,0.229,0.08,0.29,0.09c0.06,0.01,0.12,0.01,0.19,0c0.06-0.01,0.14-0.03,0.22-0.07
			c0.06-0.02,0.14-0.06,0.229-0.1l0.5,0.13c-0.13,0.08-0.26,0.14-0.39,0.19C667.52-8.189,667.34-8.13,667.17-8.11L667.17-8.11
			L667.17-8.11z M670.04-9.18c-0.49,0.2-1,0.3-1.53,0.31c-0.54,0.02-1.03-0.07-1.48-0.25c-0.47-0.19-0.689-0.39-0.66-0.61
			c0.021-0.22,0.271-0.43,0.721-0.61c0.45-0.18,0.94-0.28,1.47-0.29c0.54-0.01,1.03,0.08,1.49,0.26c0.03,0.02,0.07,0.03,0.13,0.06
			l-2.48,1c0.331,0.11,0.671,0.16,1.021,0.15c0.34-0.01,0.66-0.07,0.931-0.18c0.209-0.08,0.34-0.17,0.39-0.27
			c0.06-0.09,0.029-0.2-0.08-0.31l0.64-0.21c0.19,0.15,0.24,0.31,0.15,0.47C670.66-9.49,670.42-9.34,670.04-9.18L670.04-9.18
			L670.04-9.18z M667.06-9.84L667.06-9.84c0.03-0.13,0.17-0.24,0.431-0.35c0.279-0.11,0.609-0.17,0.97-0.17
			c0.229,0,0.479,0.041,0.739,0.13l-1.85,0.74C667.12-9.59,667.029-9.71,667.06-9.84L667.06-9.84z M672.13-10.07l-3.851-1.55
			l0.561-0.229l3.85,1.55L672.13-10.07L672.13-10.07z"/>
		<path style="fill-rule:evenodd;clip-rule:evenodd;fill:#FFFFFF;" d="M717.689,12.34l-0.49-0.73c0.511-0.34,0.74-1.021,0.95-2
			c0.101-0.45,0.2-0.95,0.33-1.42c0.141-0.46,0.32-0.92,0.61-1.31L717.02,6l0.04,0.32l-0.04,0.01l-0.18,0.021c-0.08,0-0.15,0-0.21,0
			c-0.04,0-0.07-0.01-0.101-0.01l-0.02-0.01l-0.01,0.021c-0.11,0.209-0.2,0.45-0.271,0.709c-0.13,0.43-0.22,0.88-0.319,1.36
			c-0.2,0.89-0.471,1.97-1.32,2.55l-0.49-0.73c0.51-0.35,0.73-1.02,0.95-2c0.1-0.45,0.19-0.96,0.33-1.42
			c0.13-0.44,0.3-0.89,0.57-1.27l-2.03-0.86l0.029,0.26h-0.029l-0.181,0.02c-0.079,0-0.159,0.01-0.22,0c-0.03,0-0.06-0.01-0.1-0.01
			l-0.021-0.01l-0.01,0.02c-0.1,0.21-0.19,0.45-0.27,0.72c-0.12,0.42-0.21,0.88-0.32,1.36c-0.19,0.89-0.46,1.96-1.31,2.54l-0.5-0.73
			c0.51-0.34,0.739-1.02,0.96-2c0.09-0.45,0.189-0.95,0.329-1.42c0.12-0.42,0.29-0.84,0.54-1.21l-1.989-0.85l0.02,0.19h-0.03
			l-0.18,0.02c-0.08,0.01-0.16,0.01-0.22,0c-0.03,0-0.07,0-0.101-0.01l-0.02-0.01l-0.01,0.02c-0.11,0.21-0.19,0.45-0.271,0.72
			c-0.13,0.43-0.21,0.879-0.32,1.36c-0.189,0.89-0.47,1.97-1.319,2.54l-0.49-0.729c0.51-0.34,0.74-1.02,0.95-2
			c0.1-0.45,0.2-0.95,0.33-1.419c0.12-0.4,0.279-0.8,0.51-1.16l-1.95-0.83l0.021,0.12l-0.04,0.01l-0.181,0.01
			c-0.079,0.01-0.149,0.01-0.21,0.01c-0.04-0.01-0.069-0.01-0.1-0.02h-0.02l-0.011,0.02c-0.109,0.21-0.199,0.45-0.279,0.71
			c-0.12,0.43-0.21,0.879-0.311,1.359c-0.2,0.89-0.47,1.97-1.32,2.54l-0.489-0.72c0.51-0.35,0.729-1.02,0.949-2
			c0.101-0.45,0.19-0.96,0.33-1.42c0.11-0.39,0.261-0.77,0.471-1.12l-1.9-0.81v0.05l-0.03,0.01l-0.18,0.02
			c-0.08,0-0.15,0.011-0.21,0c-0.04,0-0.07-0.01-0.11-0.01l-0.02-0.01v0.02c-0.11,0.21-0.2,0.45-0.28,0.72
			c-0.12,0.42-0.21,0.88-0.319,1.36c-0.19,0.88-0.461,1.96-1.311,2.54l-0.5-0.73c0.51-0.34,0.74-1.021,0.96-2
			c0.101-0.45,0.19-0.96,0.33-1.42c0.11-0.37,0.24-0.73,0.44-1.07l-1.9-0.8l-0.18,0.02c-0.08,0.01-0.16,0.01-0.221,0
			c-0.029,0-0.069,0-0.1-0.01l-0.021-0.01l-0.01,0.02c-0.1,0.21-0.189,0.45-0.27,0.72c-0.13,0.43-0.221,0.88-0.32,1.36
			c-0.19,0.89-0.47,1.959-1.32,2.54l-0.489-0.73c0.51-0.34,0.739-1.02,0.95-2c0.1-0.45,0.199-0.95,0.329-1.42
			c0.11-0.34,0.23-0.69,0.42-1.01l-1.04-0.44v-5.56h0.051l21.729,9.19l21.74-9.19h0.07v5.55l-0.971,0.41
			c0.19,0.33,0.33,0.69,0.431,1.05c0.14,0.47,0.239,0.97,0.34,1.42c0.21,0.97,0.43,1.65,0.95,2l-0.49,0.73
			c-0.44-0.29-0.72-0.71-0.91-1.149c-0.189-0.43-0.31-0.92-0.41-1.39c-0.109-0.48-0.189-0.93-0.319-1.36
			c-0.08-0.27-0.171-0.51-0.271-0.72l-0.01-0.02l-0.02,0.01c-0.03,0.01-0.07,0.01-0.101,0.01c-0.07,0.01-0.14,0.01-0.21,0h-0.01
			l-0.131-0.01l-0.079-0.01v-0.03l-1.9,0.8c0.21,0.34,0.36,0.72,0.47,1.101c0.141,0.459,0.23,0.97,0.33,1.42
			c0.21,0.97,0.44,1.65,0.95,2l-0.49,0.73c-0.43-0.29-0.71-0.71-0.899-1.15c-0.19-0.44-0.311-0.93-0.42-1.39
			c-0.101-0.48-0.19-0.94-0.32-1.36c-0.07-0.27-0.16-0.51-0.271-0.72l-0.01-0.02l-0.02,0.01c-0.03,0-0.061,0.01-0.101,0.01
			c-0.069,0.011-0.14,0-0.199,0h-0.021l-0.13-0.02l-0.07-0.01V0.72l-1.93,0.81c0.23,0.36,0.38,0.76,0.5,1.16
			c0.13,0.46,0.229,0.97,0.33,1.42c0.21,0.97,0.43,1.65,0.95,2l-0.49,0.72c-0.431-0.29-0.71-0.7-0.91-1.14
			c-0.19-0.44-0.31-0.93-0.41-1.4c-0.11-0.48-0.189-0.93-0.32-1.359c-0.079-0.261-0.159-0.5-0.27-0.71l-0.01-0.02h-0.021
			c-0.029,0.01-0.069,0.01-0.1,0.02c-0.07,0-0.141,0-0.2-0.01h-0.02l-0.13-0.01l-0.081-0.01l0.021-0.17l-1.979,0.84
			c0.25,0.37,0.409,0.79,0.529,1.2c0.141,0.47,0.24,0.97,0.34,1.419c0.21,0.97,0.431,1.65,0.95,2l-0.49,0.729
			c-0.439-0.29-0.72-0.7-0.909-1.14c-0.19-0.44-0.311-0.93-0.41-1.4c-0.11-0.48-0.19-0.93-0.32-1.36
			c-0.08-0.271-0.17-0.51-0.27-0.72l-0.011-0.02l-0.02,0.01c-0.03,0.01-0.07,0.01-0.101,0.01c-0.069,0.01-0.14,0.01-0.21,0h-0.01
			l-0.13-0.01l-0.08-0.01l0.03-0.24l-2.03,0.86c0.271,0.38,0.44,0.82,0.57,1.25c0.14,0.47,0.229,0.97,0.33,1.42
			c0.22,0.97,0.439,1.65,0.95,2l-0.49,0.73c-0.43-0.29-0.71-0.71-0.9-1.15c-0.189-0.44-0.31-0.92-0.42-1.39
			c-0.1-0.48-0.189-0.94-0.31-1.36c-0.08-0.27-0.17-0.51-0.28-0.72l-0.01-0.02l-0.021,0.01c-0.029,0-0.06,0.01-0.1,0.01
			c-0.07,0.01-0.14,0-0.2,0h-0.02l-0.131-0.02h-0.069l0.029-0.31l-2.06,0.87c0.28,0.4,0.46,0.85,0.6,1.31
			c0.131,0.46,0.23,0.97,0.33,1.42c0.21,0.97,0.431,1.65,0.95,2l-0.49,0.73c-0.43-0.3-0.71-0.71-0.899-1.15
			c-0.2-0.44-0.32-0.93-0.42-1.4c-0.101-0.48-0.19-0.93-0.32-1.36c-0.07-0.26-0.16-0.5-0.27-0.709l-0.011-0.021l-0.02,0.01
			c-0.03,0-0.07,0.01-0.101,0.01c-0.069,0-0.14,0-0.199,0h-0.021l-0.13-0.021l-0.08-0.01l0.04-0.37l-2.11,0.89h0.011
			c0.31,0.41,0.5,0.88,0.63,1.35c0.14,0.47,0.24,0.97,0.34,1.42c0.21,0.979,0.43,1.65,0.95,2l-0.49,0.73
			c-0.44-0.29-0.72-0.7-0.91-1.15c-0.189-0.43-0.31-0.92-0.409-1.39c-0.11-0.48-0.19-0.93-0.32-1.36c-0.08-0.27-0.17-0.5-0.271-0.71
			l-0.01-0.021h-0.021c-0.029,0.01-0.069,0.01-0.1,0.021c-0.07,0-0.14,0-0.21-0.01h-0.01l-0.13-0.01L722,7.7l0.05-0.44l-1.03,0.43
			l-0.9-0.38l0.041,0.39h-0.03l-0.18,0.02c-0.08,0.01-0.16,0.01-0.221,0.01c-0.04-0.01-0.069-0.01-0.1-0.021h-0.021L719.6,7.73
			c-0.109,0.21-0.2,0.44-0.27,0.71c-0.13,0.43-0.21,0.88-0.32,1.36C718.819,10.69,718.54,11.77,717.689,12.34L717.689,12.34z
			 M721.04,0.24l21.79-8.79l-21.79-8.79l-21.79,8.79L721.04,0.24L721.04,0.24L721.04,0.24z M711.7-6.78L711.7-6.78l0.71-0.28
			l-3.48-1.4l-0.71,0.28L711.7-6.78L711.7-6.78z M713.479-7.49L710-8.89l0.63-0.26l0.489,0.2c-0.079-0.28,0.171-0.53,0.751-0.76
			c0.25-0.1,0.51-0.18,0.8-0.24c0.29-0.05,0.54-0.07,0.77-0.06c0.221,0,0.44,0.03,0.65,0.08c0.14,0.03,0.34,0.11,0.62,0.22
			l2.14,0.86l-0.71,0.29l-2.11-0.86c-0.25-0.1-0.449-0.16-0.63-0.18c-0.17-0.03-0.359-0.03-0.569,0c-0.21,0.03-0.41,0.08-0.601,0.15
			c-0.3,0.12-0.479,0.26-0.529,0.41c-0.061,0.15,0.13,0.32,0.579,0.5l1.9,0.77L713.479-7.49L713.479-7.49L713.479-7.49z
			 M707.58-8.439l-0.681-0.271L707.6-9l0.681,0.28L707.58-8.439L707.58-8.439L707.58-8.439z M718.38-9.51
			c-0.21,0.03-0.4,0.03-0.57,0.01c-0.16-0.02-0.42-0.1-0.779-0.25l-2.001-0.8l-0.52,0.2l-0.45-0.18l0.51-0.21l-0.859-0.35l0.34-0.42
			l1.22,0.49l0.71-0.29l0.46,0.19l-0.71,0.28l2.03,0.83c0.17,0.06,0.29,0.1,0.37,0.11c0.069,0.01,0.149,0.01,0.229,0
			c0.09-0.01,0.181-0.04,0.28-0.08c0.08-0.03,0.18-0.08,0.29-0.14l0.62,0.17c-0.16,0.1-0.32,0.18-0.48,0.24
			C718.819-9.61,718.59-9.54,718.38-9.51L718.38-9.51L718.38-9.51z M721.97-10.85c-0.61,0.24-1.25,0.38-1.92,0.39
			c-0.67,0.02-1.28-0.09-1.851-0.31c-0.59-0.24-0.859-0.5-0.829-0.77c0.04-0.28,0.34-0.53,0.92-0.76c0.55-0.23,1.16-0.34,1.829-0.36
			c0.671-0.01,1.291,0.101,1.87,0.331c0.03,0.01,0.081,0.03,0.15,0.06l-3.09,1.25c0.41,0.14,0.83,0.21,1.26,0.2
			c0.44-0.01,0.83-0.09,1.17-0.23c0.26-0.1,0.431-0.21,0.49-0.33c0.07-0.12,0.04-0.25-0.11-0.4l0.801-0.26
			c0.239,0.19,0.31,0.39,0.199,0.59C722.739-11.24,722.449-11.04,721.97-10.85L721.97-10.85L721.97-10.85z M718.239-11.67
			L718.239-11.67c0.04-0.16,0.221-0.31,0.54-0.44c0.36-0.14,0.761-0.22,1.211-0.21c0.289,0,0.6,0.05,0.919,0.16l-2.31,0.93
			C718.319-11.36,718.199-11.51,718.239-11.67L718.239-11.67z M724.58-11.97l-4.811-1.93l0.7-0.29l4.81,1.94L724.58-11.97
			L724.58-11.97z"/>
	</g>
</g>
</svg>
