<?xml version="1.0" encoding="iso-8859-1"?>
<!-- Generator: Adobe Illustrator 15.0.0, SVG Export Plug-In . SVG Version: 6.00 Build 0)  -->
<!DOCTYPE svg PUBLIC "-//W3C//DTD SVG 1.1//EN" "http://www.w3.org/Graphics/SVG/1.1/DTD/svg11.dtd">
<svg version="1.1" id="Layer_1" xmlns="http://www.w3.org/2000/svg" xmlns:xlink="http://www.w3.org/1999/xlink" x="0px" y="0px"
	 width="612px" height="792px" viewBox="0 0 612 792" style="enable-background:new 0 0 612 792;" xml:space="preserve">
<path style="fill:#010101;" d="M297.667,357.987c-16.366,0-29.68,13.314-29.68,29.68c0,16.365,13.314,29.68,29.68,29.68
	c16.365,0,29.68-13.314,29.68-29.68C327.347,371.301,314.032,357.987,297.667,357.987z M297.667,406.312
	c-10.297,0-18.646-8.348-18.646-18.645c0-10.297,8.348-18.646,18.646-18.646c10.297,0,18.645,8.348,18.645,18.646
	C316.312,397.964,307.964,406.312,297.667,406.312z"/>
<path style="fill:#010101;" d="M381.333,419.667c38-53.333-24.828-53.495-24.828-53.495h-0.422h-0.361v76.354
	c-2.504-1.009-5.26-1.652-8.174-1.864c-0.109-0.008-0.222-0.008-0.333-0.016c-0.565-0.035-1.126-0.085-1.703-0.085
	c-0.061,0-0.12,0.007-0.181,0.007c-0.061,0-0.12-0.007-0.181-0.007c-12.757,0-23.1,8.413-23.1,18.792s10.342,18.793,23.1,18.793
	c0.061,0,0.12-0.007,0.181-0.007c0.061,0,0.12,0.007,0.181,0.007c0.496,0,0.975-0.049,1.463-0.075
	c0.204-0.013,0.411-0.015,0.612-0.032c3.202-0.233,6.226-0.966,8.918-2.154v-0.177c7.008-3.227,11.746-9.336,11.746-16.355
	c0-0.264-0.035-0.521-0.049-0.783h0.049V383.94C368.251,383.94,396.333,380.667,381.333,419.667z"/>
<path style="fill:#010101;" d="M345.151,435.56c0.061,0,0.12,0.001,0.181,0.003c0.06-0.002,0.121-0.003,0.181-0.003
	c0.614,0,1.166,0.038,1.652,0.071l0.381,0.024c0.127,0.004,0.255,0.01,0.365,0.019c0.948,0.069,1.886,0.177,2.812,0.323v-69.826v-5
	h5h0.361h0.422h9.898C355.762,333.582,329.009,314,297.667,314C256.981,314,224,346.981,224,387.667
	c0,40.685,32.981,73.667,73.667,73.667c6.718,0,13.219-0.917,19.403-2.601C317.461,445.899,329.903,435.56,345.151,435.56z
	 M264.182,387.667c0-18.463,15.021-33.485,33.485-33.485c18.463,0,33.484,15.021,33.484,33.485
	c0,18.463-15.021,33.484-33.484,33.484C279.204,421.151,264.182,406.13,264.182,387.667z"/>
</svg>
