<?xml version="1.0" encoding="iso-8859-1"?>
<!-- Generator: Adobe Illustrator 15.0.0, SVG Export Plug-In . SVG Version: 6.00 Build 0)  -->
<!DOCTYPE svg PUBLIC "-//W3C//DTD SVG 1.1//EN" "http://www.w3.org/Graphics/SVG/1.1/DTD/svg11.dtd">
<svg version="1.1" id="Layer_1" xmlns="http://www.w3.org/2000/svg" xmlns:xlink="http://www.w3.org/1999/xlink" x="0px" y="0px"
	 width="612px" height="792px" viewBox="0 0 612 792" style="enable-background:new 0 0 612 792;" xml:space="preserve">
<path d="M346.196,353.042v-62.111l0.03-0.207l-0.03,0.005v-0.005l-0.062,0.01l-60.43,8.093h-0.005v49.075
	c-2.393-0.767-5.084-1.073-7.888-0.799c-8.879,0.862-15.528,7.184-14.855,14.113c0.675,6.938,8.414,11.863,17.291,11.001
	c8.884-0.861,15.533-7.181,14.86-14.121c-0.015-0.12,0.018-0.344,0.018-0.344v-42.572l41.65-6.083v34.093
	c-2.391-0.765-5.08-1.076-7.889-0.804c-8.879,0.861-15.527,7.186-14.858,14.121c0.678,6.94,8.419,11.86,17.293,10.999
	c8.879-0.867,15.533-7.184,14.855-14.119C346.166,353.271,346.196,353.042,346.196,353.042z"/>
<g>
	<g>
		<path style="fill:#010101;" d="M233.292,305.384c10.721-29.585,39.098-50.782,72.338-50.782s61.619,21.197,72.34,50.782h13.431
			c-11.215-36.732-45.417-63.531-85.771-63.531c-40.354,0-74.554,26.799-85.771,63.531H233.292z"/>
		<path style="fill:#010101;" d="M377.97,357.654c-10.721,29.585-39.1,50.783-72.34,50.783s-61.618-21.198-72.338-50.783
			l-13.432,0.001c11.216,36.731,45.417,63.53,85.771,63.531c40.354-0.001,74.556-26.8,85.771-63.531L377.97,357.654z"/>
	</g>
	<polygon style="fill:#010101;" points="203.389,364.322 225.95,328.21 248.511,364.322 	"/>
	<polygon style="fill:#010101;" points="405.746,299.776 383.184,335.889 360.624,299.776 	"/>
</g>
</svg>
