<?xml version="1.0" encoding="utf-8"?>
<!-- Generator: Adobe Illustrator 15.0.0, SVG Export Plug-In . SVG Version: 6.00 Build 0)  -->
<!DOCTYPE svg PUBLIC "-//W3C//DTD SVG 1.1//EN" "http://www.w3.org/Graphics/SVG/1.1/DTD/svg11.dtd">
<svg version="1.1" id="Layer_1" xmlns="http://www.w3.org/2000/svg" xmlns:xlink="http://www.w3.org/1999/xlink" x="0px" y="0px"
	 width="283.464px" height="283.464px" viewBox="0 0 283.464 283.464" enable-background="new 0 0 283.464 283.464"
	 xml:space="preserve">
<g>
	<circle cx="114.83" cy="142.099" r="7.269"/>
	<circle cx="150.018" cy="142.099" r="7.269"/>
</g>
<path d="M132.423,80.199c-42.618,0-77.167,34.549-77.167,77.167c0,42.618,34.549,77.167,77.167,77.167
	c42.618,0,77.167-34.549,77.167-77.167C209.59,114.748,175.042,80.199,132.423,80.199z M158.732,109.721
	c12.562,0,22.744,11.396,22.744,25.456c0,14.059-10.183,25.455-22.744,25.455c-12.561,0-22.744-11.396-22.744-25.455
	C135.989,121.117,146.171,109.721,158.732,109.721z M106.115,109.721c12.561,0,22.744,11.396,22.744,25.456
	c0,14.059-10.183,25.455-22.744,25.455c-12.562,0-22.744-11.396-22.744-25.455C83.371,121.117,93.553,109.721,106.115,109.721z"/>
</svg>
