<?xml version="1.0" encoding="iso-8859-1"?>
<!-- Generator: Adobe Illustrator 15.0.0, SVG Export Plug-In . SVG Version: 6.00 Build 0)  -->
<!DOCTYPE svg PUBLIC "-//W3C//DTD SVG 1.1//EN" "http://www.w3.org/Graphics/SVG/1.1/DTD/svg11.dtd">
<svg version="1.1" id="Layer_1" xmlns="http://www.w3.org/2000/svg" xmlns:xlink="http://www.w3.org/1999/xlink" x="0px" y="0px"
	 width="612px" height="792px" viewBox="0 0 612 792" style="enable-background:new 0 0 612 792;" xml:space="preserve">
<path d="M268.28,360.053v9.983h-14.53v-9.983H268.28 M268.28,354.053h-14.53c-3.314,0-6,2.687-6,6v9.983c0,3.313,2.686,6,6,6h14.53
	c3.314,0,6-2.687,6-6v-9.983C274.28,356.74,271.594,354.053,268.28,354.053L268.28,354.053z"/>
<path d="M268.28,395.008v9.983h-14.53v-9.983H268.28 M268.28,389.008h-14.53c-3.314,0-6,2.686-6,6v9.983c0,3.314,2.686,6,6,6h14.53
	c3.314,0,6-2.686,6-6v-9.983C274.28,391.694,271.594,389.008,268.28,389.008L268.28,389.008z"/>
<path d="M268.28,429.963v9.983h-14.53v-9.983H268.28 M268.28,423.963h-14.53c-3.314,0-6,2.686-6,6v9.983c0,3.314,2.686,6,6,6h14.53
	c3.314,0,6-2.686,6-6v-9.983C274.28,426.649,271.594,423.963,268.28,423.963L268.28,423.963z"/>
<path d="M343.103,344h-78.331c-1.565,0-2.834,1.269-2.834,2.834v13.219h5.842v9.983h-5.842v24.972h5.842v9.983h-5.842v24.972h5.842
	v9.983h-5.842v15.219c0,1.565,1.269,2.834,2.834,2.834h78.331c1.565,0,2.834-1.269,2.834-2.834V346.834
	C345.938,345.269,344.668,344,343.103,344z M330.563,390h-43.25v-11.5h43.25V390z M330.563,370h-43.25v-11.5h43.25V370z"/>
</svg>
