<?xml version="1.0" encoding="iso-8859-1"?>
<!-- Generator: Adobe Illustrator 15.0.0, SVG Export Plug-In . SVG Version: 6.00 Build 0)  -->
<!DOCTYPE svg PUBLIC "-//W3C//DTD SVG 1.1//EN" "http://www.w3.org/Graphics/SVG/1.1/DTD/svg11.dtd">
<svg version="1.1" xmlns="http://www.w3.org/2000/svg" xmlns:xlink="http://www.w3.org/1999/xlink" x="0px" y="0px" width="300px"
	 height="300px" viewBox="0 0 300 300" style="enable-background:new 0 0 300 300;" xml:space="preserve">
<g id="Layer_1">
	<g>
		<rect x="1.31" y="0.44" style="fill-rule:evenodd;clip-rule:evenodd;fill:#666666;" width="300" height="300"/>
		<g>
			<g>
				<g>
					<g>
						<path style="fill-rule:evenodd;clip-rule:evenodd;fill:#FFFFFF;" d="M39.49,167.72c0-1.1,1.14-2,2.53-2H58v-6.83h-0.96
							c-1.4,0-2.53-0.899-2.53-2.01s1.13-2.01,2.53-2.01H58v-1.68c-0.34-0.181-0.67-0.381-0.97-0.601
							c-0.75,0.54-1.72,0.86-2.79,0.86c-0.08,0-0.17,0-0.26,0c0.26-0.37,0.57-0.7,0.93-0.97c-0.04-0.16-0.07-0.341-0.07-0.511
							c0-1.14,1.05-2.06,2.34-2.06c0.48,0,0.94,0.13,1.31,0.35c0.72-0.71,1.68-1.14,2.74-1.14h0.01c1.13,0,2.16,0.5,2.88,1.28
							c0.43-0.36,1.01-0.59,1.65-0.59c1.29,0,2.35,0.92,2.35,2.05c0,0.319-0.09,0.62-0.24,0.89c0.22,0.2,0.43,0.44,0.6,0.69
							c-1.01-0.091-1.91-0.48-2.59-1.051c-0.44,0.341-0.92,0.641-1.41,0.88v1.601h0.96c1.4,0,2.53,0.899,2.53,2.01
							s-1.13,2.01-2.53,2.01h-0.96v6.83h15.97c1.4,0,2.54,0.9,2.54,2c0,1.11-1.14,2-2.54,2H42.02
							C40.63,169.72,39.49,168.83,39.49,167.72z M62.43,165.92V160H60.1v5.92H62.43z M61.24,155.95c1.31,0,2.44,0.7,2.9,1.689
							c1.56-0.18,2.59-0.51,2.59-0.89c0-0.58-2.46-1.05-5.49-1.05c-3.04,0-5.5,0.47-5.5,1.05c0,0.38,1.03,0.71,2.59,0.89
							C58.79,156.65,59.92,155.95,61.24,155.95z M68.85,152.14c0.16-0.29,0.26-0.62,0.26-0.96c0-1.229-1.19-2.229-2.66-2.229
							c-0.73,0-1.4,0.25-1.87,0.65c-0.84-0.86-2-1.4-3.29-1.4c-1.21,0-2.3,0.48-3.12,1.24c-0.42-0.24-0.94-0.38-1.49-0.38
							c-1.47,0-2.66,1-2.66,2.23c0,0.19,0.03,0.38,0.08,0.56c-0.52,0.37-0.96,0.851-1.29,1.4c-0.42-0.12-0.81-0.31-1.16-0.53
							c-0.08-0.029-0.15-0.08-0.21-0.14l0,0c-0.91-0.66-1.48-1.63-1.48-2.71c0-0.5,0.12-0.98,0.35-1.42c-1.31-0.75-2.36-1.9-3-3.27
							c-1.62-0.51-2.77-1.82-2.77-3.36c0-1.63,1.31-3.02,3.11-3.44c0.53-0.91,1.25-1.68,2.1-2.28c-0.09-0.3-0.14-0.6-0.14-0.92
							c0-1.98,1.92-3.59,4.28-3.59c0.89,0,1.72,0.23,2.4,0.62c1.32-1.24,3.09-1.99,5.04-1.99c2.07,0,3.94,0.86,5.28,2.24
							c0.78-0.64,1.84-1.04,3.02-1.04c2.37,0,4.29,1.61,4.29,3.59c0,0.55-0.15,1.08-0.43,1.55c0.67,0.58,1.24,1.29,1.66,2.08
							c1.63,0.51,2.79,1.82,2.79,3.36c0,1.5-1.11,2.78-2.67,3.32c-0.58,1.18-1.45,2.17-2.54,2.89c0.31,0.5,0.49,1.06,0.49,1.66
							c0,1.08-0.58,2.06-1.49,2.71c-0.06,0.06-0.12,0.1-0.2,0.14c-0.49,0.311-1.07,0.54-1.69,0.65
							C69.58,152.91,69.24,152.49,68.85,152.14z M74.57,142.02c0-1.05-0.92-1.93-2.22-2.27c-0.35-0.54-0.79-1.02-1.33-1.41
							c0.22-0.32,0.34-0.67,0.34-1.05c0-1.33-1.53-2.42-3.42-2.42c-0.94,0-1.8,0.27-2.41,0.7c-1.07-0.94-2.57-1.52-4.22-1.52
							c-1.56,0-2.97,0.52-4.02,1.35c-0.54-0.26-1.2-0.42-1.92-0.42c-1.88,0-3.42,1.09-3.42,2.43c0,0.21,0.04,0.42,0.12,0.62
							c-0.69,0.4-1.26,0.93-1.68,1.54c-1.44,0.29-2.49,1.22-2.49,2.33c0,0.48,0.2,0.94,0.55,1.31c0.26-0.08,0.55-0.14,0.85-0.18
							c0.46-0.47,1.09-0.87,1.83-1.19c-0.08-0.14-0.13-0.31-0.13-0.47c0-1.03,1.67-1.87,3.73-1.87c0.77,0,1.49,0.12,2.09,0.33
							c1.14-0.65,2.68-1.04,4.37-1.04c1.81,0,3.44,0.44,4.6,1.17c0.67-0.34,1.6-0.54,2.62-0.54c2.07,0,3.73,0.83,3.73,1.86
							c0,0.29-0.13,0.56-0.37,0.81c0.59,0.3,1.08,0.67,1.45,1.08c0.27,0.05,0.53,0.12,0.77,0.2
							C74.36,142.98,74.57,142.51,74.57,142.02z"/>
						<g>
							<defs>
								<path id="SVGID_1_" d="M73.27,143.17c-0.37-0.41-0.86-0.78-1.44-1.08c0.23-0.25,0.37-0.52,0.37-0.81
									c0-1.03-1.68-1.86-3.73-1.86c-1.03,0-1.95,0.2-2.63,0.54c-1.16-0.73-2.79-1.17-4.59-1.17c-1.7,0-3.24,0.39-4.38,1.04
									c-0.6-0.21-1.31-0.33-2.09-0.33c-2.05,0-3.73,0.84-3.73,1.87c0,0.16,0.05,0.33,0.13,0.47c-0.74,0.32-1.37,0.72-1.83,1.19
									c-0.3,0.04-0.58,0.1-0.84,0.18c-0.35-0.37-0.55-0.83-0.55-1.31c0-1.11,1.05-2.04,2.48-2.33c0.43-0.61,1-1.14,1.68-1.54
									c-0.07-0.2-0.11-0.41-0.11-0.62c0-1.34,1.53-2.43,3.42-2.43c0.71,0,1.36,0.16,1.92,0.42c1.05-0.83,2.46-1.35,4.01-1.35
									c1.66,0,3.16,0.58,4.22,1.52c0.62-0.43,1.47-0.7,2.42-0.7c1.88,0,3.41,1.09,3.41,2.42c0,0.38-0.12,0.73-0.33,1.05
									c0.53,0.39,0.98,0.87,1.32,1.41c1.3,0.34,2.23,1.22,2.23,2.27c0,0.49-0.22,0.96-0.59,1.35
									C73.8,143.29,73.54,143.22,73.27,143.17z"/>
							</defs>
							<clipPath id="SVGID_2_">
								<use xlink:href="#SVGID_1_"  style="overflow:visible;"/>
							</clipPath>
							<g transform="matrix(1 0 0 1 -9.536743e-007 -3.814697e-006)" style="clip-path:url(#SVGID_2_);">
								
									<image style="overflow:visible;" width="36" height="13" xlink:href="83284279.jpg"  transform="matrix(0.75 0 0 0.75 47.8101 133.9399)">
								</image>
							</g>
						</g>
						<path style="fill-rule:evenodd;clip-rule:evenodd;fill:none;" d="M73.27,143.17c-0.37-0.41-0.86-0.78-1.44-1.08
							c0.23-0.25,0.37-0.52,0.37-0.81c0-1.03-1.68-1.86-3.73-1.86c-1.03,0-1.95,0.2-2.63,0.54c-1.16-0.73-2.79-1.17-4.59-1.17
							c-1.7,0-3.24,0.39-4.38,1.04c-0.6-0.21-1.31-0.33-2.09-0.33c-2.05,0-3.73,0.84-3.73,1.87c0,0.16,0.05,0.33,0.13,0.47
							c-0.74,0.32-1.37,0.72-1.83,1.19c-0.3,0.04-0.58,0.1-0.84,0.18c-0.35-0.37-0.55-0.83-0.55-1.31c0-1.11,1.05-2.04,2.48-2.33
							c0.43-0.61,1-1.14,1.68-1.54c-0.07-0.2-0.11-0.41-0.11-0.62c0-1.34,1.53-2.43,3.42-2.43c0.71,0,1.36,0.16,1.92,0.42
							c1.05-0.83,2.46-1.35,4.01-1.35c1.66,0,3.16,0.58,4.22,1.52c0.62-0.43,1.47-0.7,2.42-0.7c1.88,0,3.41,1.09,3.41,2.42
							c0,0.38-0.12,0.73-0.33,1.05c0.53,0.39,0.98,0.87,1.32,1.41c1.3,0.34,2.23,1.22,2.23,2.27c0,0.49-0.22,0.96-0.59,1.35
							C73.8,143.29,73.54,143.22,73.27,143.17z"/>
					</g>
					<rect x="61.03" y="158.6" style="fill-rule:evenodd;clip-rule:evenodd;fill:#FFFFFF;" width="0.31" height="10.12"/>
				</g>
				<rect x="38.74" y="127.47" style="fill-rule:evenodd;clip-rule:evenodd;fill:none;" width="45" height="45"/>
			</g>
			<g>
				<g>
					<g>
						<path style="fill-rule:evenodd;clip-rule:evenodd;fill:#FFFFFF;" d="M87.45,164.17c0-0.88,0.91-1.6,2.02-1.6h12.79V157.1
							h-0.77c-1.12,0-2.03-0.72-2.03-1.6c0-0.89,0.91-1.61,2.03-1.61h0.77v-1.35c-0.28-0.14-0.54-0.29-0.78-0.47
							c-0.6,0.43-1.38,0.689-2.23,0.689c-0.07,0-0.14,0-0.21-0.01c0.21-0.29,0.46-0.56,0.75-0.77c-0.04-0.131-0.07-0.271-0.07-0.41
							c0-0.91,0.84-1.65,1.88-1.65c0.38,0,0.75,0.11,1.05,0.29c0.57-0.57,1.34-0.92,2.19-0.92h0.01c0.9,0,1.72,0.4,2.3,1.03
							c0.34-0.29,0.81-0.48,1.32-0.48c1.03,0,1.88,0.74,1.88,1.641c0,0.26-0.07,0.5-0.19,0.71c0.18,0.17,0.34,0.35,0.48,0.55
							c-0.81-0.07-1.53-0.38-2.07-0.83c-0.35,0.27-0.74,0.51-1.13,0.7v1.279h0.76c1.12,0,2.03,0.721,2.03,1.61
							c0,0.88-0.91,1.6-2.03,1.6h-0.76v5.471h12.78c1.12,0,2.03,0.72,2.03,1.6c0,0.89-0.91,1.6-2.03,1.6H89.47
							C88.36,165.77,87.45,165.06,87.45,164.17z M105.8,162.73v-4.74h-1.87v4.74H105.8z M104.85,154.76c1.05,0,1.95,0.55,2.32,1.34
							c1.25-0.14,2.07-0.399,2.07-0.71c0-0.46-1.97-0.84-4.39-0.84c-2.43,0-4.4,0.38-4.4,0.84c0,0.311,0.82,0.57,2.07,0.71
							C102.89,155.31,103.79,154.76,104.85,154.76z M110.93,151.71c0.13-0.229,0.21-0.5,0.21-0.77c0-0.99-0.95-1.78-2.13-1.78
							c-0.58,0-1.11,0.19-1.49,0.51c-0.67-0.68-1.6-1.11-2.63-1.11c-0.97,0-1.85,0.38-2.5,0.99c-0.34-0.19-0.75-0.31-1.19-0.31
							c-1.18,0-2.13,0.8-2.13,1.779c0,0.16,0.02,0.311,0.07,0.461c-0.42,0.289-0.77,0.68-1.04,1.119c-0.33-0.1-0.65-0.25-0.93-0.43
							c-0.06-0.02-0.11-0.06-0.16-0.11l0,0c-0.73-0.529-1.19-1.3-1.19-2.169c0-0.4,0.1-0.78,0.28-1.13
							c-1.04-0.61-1.88-1.52-2.39-2.62c-1.3-0.41-2.23-1.45-2.23-2.69c0-1.3,1.06-2.41,2.49-2.75c0.43-0.73,1.01-1.35,1.68-1.83
							c-0.07-0.23-0.11-0.48-0.11-0.73c0-1.58,1.54-2.87,3.43-2.87c0.71,0,1.37,0.18,1.92,0.5c1.05-1,2.47-1.6,4.03-1.6
							c1.66,0,3.15,0.69,4.22,1.8c0.62-0.52,1.48-0.84,2.42-0.84c1.89,0,3.43,1.29,3.43,2.87c0,0.44-0.12,0.87-0.34,1.25
							c0.54,0.46,0.99,1.03,1.32,1.66c1.31,0.4,2.23,1.46,2.23,2.68c0,1.21-0.88,2.23-2.13,2.66c-0.46,0.94-1.16,1.74-2.03,2.32
							c0.25,0.39,0.39,0.84,0.39,1.32c0,0.87-0.46,1.65-1.19,2.169c-0.05,0.051-0.1,0.08-0.16,0.11c-0.39,0.25-0.85,0.43-1.35,0.521
							C111.52,152.32,111.25,151.99,110.93,151.71z M115.51,143.61c0-0.84-0.74-1.54-1.78-1.82c-0.27-0.43-0.63-0.81-1.06-1.12
							c0.18-0.26,0.27-0.54,0.27-0.84c0-1.07-1.22-1.94-2.73-1.94c-0.76,0-1.44,0.21-1.93,0.56c-0.86-0.75-2.06-1.21-3.38-1.21
							c-1.24,0-2.37,0.41-3.21,1.08c-0.44-0.21-0.97-0.34-1.54-0.34c-1.51,0-2.73,0.87-2.73,1.94c0,0.17,0.03,0.34,0.09,0.5
							c-0.55,0.32-1.01,0.74-1.34,1.23c-1.15,0.23-1.99,0.98-1.99,1.86c0,0.39,0.16,0.76,0.43,1.05c0.21-0.06,0.44-0.11,0.68-0.14
							c0.37-0.38,0.87-0.7,1.47-0.95c-0.07-0.12-0.1-0.25-0.1-0.38c0-0.82,1.33-1.49,2.98-1.49c0.62,0,1.19,0.09,1.67,0.26
							c0.92-0.52,2.14-0.83,3.5-0.83c1.44,0,2.75,0.35,3.68,0.93c0.53-0.27,1.28-0.43,2.1-0.43c1.65,0,2.98,0.66,2.98,1.49
							c0,0.23-0.11,0.45-0.3,0.65c0.47,0.23,0.87,0.53,1.16,0.86c0.22,0.04,0.42,0.1,0.62,0.16
							C115.34,144.38,115.51,144.01,115.51,143.61z"/>
						<g>
							<defs>
								<path id="SVGID_3_" d="M114.47,144.53c-0.29-0.33-0.69-0.63-1.15-0.86c0.18-0.2,0.29-0.42,0.29-0.65
									c0-0.83-1.34-1.49-2.98-1.49c-0.82,0-1.56,0.16-2.1,0.43c-0.93-0.58-2.23-0.93-3.68-0.93c-1.35,0-2.58,0.31-3.5,0.83
									c-0.48-0.17-1.05-0.26-1.67-0.26c-1.64,0-2.98,0.67-2.98,1.49c0,0.13,0.04,0.26,0.1,0.38c-0.6,0.25-1.09,0.57-1.46,0.95
									c-0.24,0.03-0.47,0.08-0.68,0.14c-0.28-0.29-0.44-0.66-0.44-1.05c0-0.88,0.84-1.63,1.99-1.86c0.34-0.49,0.8-0.91,1.34-1.23
									c-0.06-0.16-0.09-0.33-0.09-0.5c0-1.07,1.23-1.94,2.74-1.94c0.56,0,1.09,0.13,1.53,0.34c0.84-0.67,1.97-1.08,3.21-1.08
									c1.33,0,2.53,0.46,3.38,1.21c0.5-0.35,1.18-0.56,1.93-0.56c1.51,0,2.73,0.87,2.73,1.94c0,0.3-0.09,0.58-0.26,0.84
									c0.42,0.31,0.78,0.69,1.05,1.12c1.05,0.28,1.79,0.98,1.79,1.82c0,0.4-0.18,0.77-0.47,1.08
									C114.9,144.63,114.69,144.57,114.47,144.53z"/>
							</defs>
							<clipPath id="SVGID_4_">
								<use xlink:href="#SVGID_3_"  style="overflow:visible;"/>
							</clipPath>
							<g transform="matrix(1 0 0 1 -3.814697e-006 -3.814697e-006)" style="clip-path:url(#SVGID_4_);">
								
									<image style="overflow:visible;" width="30" height="11" xlink:href="8328427B.jpg"  transform="matrix(0.75 0 0 0.75 93.5601 136.9399)">
								</image>
							</g>
						</g>
						<path style="fill-rule:evenodd;clip-rule:evenodd;fill:none;" d="M114.47,144.53c-0.29-0.33-0.69-0.63-1.15-0.86
							c0.18-0.2,0.29-0.42,0.29-0.65c0-0.83-1.34-1.49-2.98-1.49c-0.82,0-1.56,0.16-2.1,0.43c-0.93-0.58-2.23-0.93-3.68-0.93
							c-1.35,0-2.58,0.31-3.5,0.83c-0.48-0.17-1.05-0.26-1.67-0.26c-1.64,0-2.98,0.67-2.98,1.49c0,0.13,0.04,0.26,0.1,0.38
							c-0.6,0.25-1.09,0.57-1.46,0.95c-0.24,0.03-0.47,0.08-0.68,0.14c-0.28-0.29-0.44-0.66-0.44-1.05c0-0.88,0.84-1.63,1.99-1.86
							c0.34-0.49,0.8-0.91,1.34-1.23c-0.06-0.16-0.09-0.33-0.09-0.5c0-1.07,1.23-1.94,2.74-1.94c0.56,0,1.09,0.13,1.53,0.34
							c0.84-0.67,1.97-1.08,3.21-1.08c1.33,0,2.53,0.46,3.38,1.21c0.5-0.35,1.18-0.56,1.93-0.56c1.51,0,2.73,0.87,2.73,1.94
							c0,0.3-0.09,0.58-0.26,0.84c0.42,0.31,0.78,0.69,1.05,1.12c1.05,0.28,1.79,0.98,1.79,1.82c0,0.4-0.18,0.77-0.47,1.08
							C114.9,144.63,114.69,144.57,114.47,144.53z"/>
					</g>
					<rect x="104.68" y="156.87" style="fill-rule:evenodd;clip-rule:evenodd;fill:#FFFFFF;" width="0.25" height="8.1"/>
				</g>
				<rect x="86.85" y="131.97" style="fill-rule:evenodd;clip-rule:evenodd;fill:none;" width="36" height="36"/>
			</g>
			<g>
				<g>
					<g>
						<path style="fill-rule:evenodd;clip-rule:evenodd;fill:#FFFFFF;" d="M126.45,161.81c0-0.739,0.76-1.34,1.69-1.34h10.65v-4.55
							h-0.64c-0.93,0-1.69-0.61-1.69-1.34c0-0.74,0.76-1.34,1.69-1.34h0.64v-1.13c-0.22-0.11-0.44-0.24-0.64-0.391
							c-0.5,0.36-1.15,0.57-1.86,0.57c-0.06,0-0.12,0-0.17,0c0.17-0.25,0.38-0.47,0.62-0.64c-0.03-0.11-0.06-0.23-0.06-0.351
							c0-0.76,0.7-1.37,1.57-1.37c0.32,0,0.62,0.09,0.87,0.24c0.48-0.48,1.12-0.76,1.83-0.76l0,0c0.76,0,1.44,0.33,1.92,0.85
							c0.29-0.24,0.67-0.4,1.11-0.4c0.85,0,1.56,0.62,1.56,1.371c0,0.21-0.06,0.42-0.16,0.59c0.15,0.14,0.29,0.29,0.4,0.46
							c-0.67-0.061-1.28-0.32-1.73-0.7c-0.29,0.229-0.61,0.43-0.94,0.59v1.07h0.64c0.93,0,1.69,0.6,1.69,1.34
							c0,0.729-0.76,1.34-1.69,1.34h-0.64v4.55h10.65c0.931,0,1.69,0.601,1.69,1.34c0,0.73-0.76,1.33-1.69,1.33h-25.62
							C127.21,163.14,126.45,162.54,126.45,161.81z M141.75,160.6v-3.939h-1.56v3.939H141.75z M140.95,153.96
							c0.88,0,1.63,0.46,1.94,1.12c1.04-0.12,1.72-0.34,1.72-0.59c0-0.391-1.63-0.7-3.66-0.7c-2.02,0-3.66,0.31-3.66,0.7
							c0,0.25,0.68,0.47,1.72,0.59C139.32,154.42,140.08,153.96,140.95,153.96z M146.03,151.42c0.1-0.189,0.17-0.41,0.17-0.64
							c0-0.82-0.79-1.49-1.77-1.49c-0.49,0-0.94,0.17-1.25,0.43c-0.56-0.57-1.33-0.93-2.19-0.93c-0.81,0-1.54,0.32-2.08,0.83
							c-0.28-0.16-0.63-0.26-1-0.26c-0.98,0-1.77,0.67-1.77,1.49c0,0.13,0.02,0.26,0.06,0.38c-0.35,0.239-0.65,0.56-0.87,0.93
							c-0.27-0.08-0.54-0.21-0.77-0.351c-0.05-0.029-0.1-0.06-0.14-0.1l0,0c-0.61-0.44-0.99-1.08-0.99-1.81
							c0-0.33,0.09-0.65,0.23-0.94c-0.87-0.5-1.57-1.27-1.99-2.18c-1.08-0.34-1.85-1.21-1.85-2.24c0-1.09,0.88-2.01,2.07-2.3
							c0.36-0.6,0.84-1.12,1.4-1.52c-0.06-0.19-0.09-0.4-0.09-0.61c0-1.32,1.28-2.39,2.85-2.39c0.6,0,1.15,0.15,1.6,0.41
							c0.88-0.82,2.06-1.33,3.36-1.33c1.38,0,2.63,0.57,3.52,1.5c0.52-0.43,1.23-0.7,2.02-0.7c1.57,0,2.85,1.07,2.85,2.4
							c0,0.36-0.1,0.72-0.28,1.03c0.45,0.39,0.82,0.86,1.11,1.39c1.08,0.34,1.85,1.21,1.85,2.24c0,1-0.73,1.85-1.77,2.21
							c-0.39,0.79-0.97,1.45-1.69,1.93c0.2,0.33,0.32,0.71,0.32,1.1c0,0.73-0.39,1.37-0.99,1.81c-0.04,0.04-0.09,0.07-0.14,0.09
							c-0.32,0.21-0.71,0.37-1.12,0.44C146.51,151.93,146.29,151.65,146.03,151.42z M149.84,144.67c0-0.7-0.62-1.28-1.48-1.52
							c-0.23-0.35-0.53-0.67-0.89-0.93c0.15-0.22,0.23-0.45,0.23-0.7c0-0.89-1.02-1.62-2.28-1.62c-0.63,0-1.2,0.18-1.61,0.47
							c-0.71-0.62-1.71-1.01-2.81-1.01c-1.04,0-1.98,0.34-2.68,0.9c-0.36-0.17-0.8-0.28-1.28-0.28c-1.26,0-2.28,0.73-2.28,1.62
							c0,0.14,0.03,0.28,0.08,0.41c-0.46,0.27-0.84,0.62-1.12,1.02c-0.96,0.2-1.66,0.82-1.66,1.56c0,0.32,0.14,0.63,0.37,0.87
							c0.17-0.05,0.36-0.09,0.56-0.11c0.31-0.32,0.73-0.59,1.22-0.8c-0.05-0.1-0.08-0.2-0.08-0.31c0-0.69,1.11-1.25,2.48-1.25
							c0.52,0,1,0.08,1.39,0.22c0.77-0.43,1.79-0.69,2.92-0.69c1.2,0,2.29,0.29,3.07,0.78c0.44-0.23,1.06-0.37,1.75-0.37
							c1.37,0,2.48,0.56,2.48,1.25c0,0.19-0.09,0.37-0.25,0.54c0.39,0.19,0.72,0.44,0.97,0.72c0.18,0.03,0.35,0.08,0.51,0.13
							C149.7,145.31,149.84,145,149.84,144.67z"/>
						<g>
							<defs>
								<path id="SVGID_5_" d="M148.97,145.44c-0.24-0.28-0.57-0.53-0.96-0.72c0.16-0.17,0.25-0.35,0.25-0.54
									c0-0.69-1.12-1.25-2.49-1.25c-0.68,0-1.3,0.14-1.75,0.37c-0.77-0.49-1.86-0.78-3.06-0.78c-1.13,0-2.16,0.26-2.92,0.69
									c-0.4-0.14-0.88-0.22-1.39-0.22c-1.37,0-2.49,0.56-2.49,1.25c0,0.11,0.03,0.21,0.09,0.31c-0.5,0.21-0.91,0.48-1.22,0.8
									c-0.2,0.02-0.39,0.06-0.57,0.11c-0.23-0.24-0.36-0.55-0.36-0.87c0-0.74,0.7-1.36,1.66-1.56c0.28-0.4,0.66-0.75,1.11-1.02
									c-0.04-0.13-0.07-0.27-0.07-0.41c0-0.89,1.02-1.62,2.28-1.62c0.47,0,0.91,0.11,1.28,0.28c0.7-0.56,1.64-0.9,2.67-0.9
									c1.11,0,2.11,0.39,2.82,1.01c0.41-0.29,0.98-0.47,1.61-0.47c1.25,0,2.27,0.73,2.27,1.62c0,0.25-0.08,0.48-0.22,0.7
									c0.36,0.26,0.66,0.58,0.88,0.93c0.87,0.24,1.49,0.82,1.49,1.52c0,0.33-0.15,0.64-0.39,0.9
									C149.33,145.52,149.16,145.47,148.97,145.44z"/>
							</defs>
							<clipPath id="SVGID_6_">
								<use xlink:href="#SVGID_5_"  style="overflow:visible;"/>
							</clipPath>
							<g transform="matrix(1 0 0 1 -3.814697e-006 -3.814697e-006)" style="clip-path:url(#SVGID_6_);">
								
									<image style="overflow:visible;" width="25" height="9" xlink:href="8328427E.jpg"  transform="matrix(0.75 0 0 0.75 131.8101 139.1899)">
								</image>
							</g>
						</g>
						<path style="fill-rule:evenodd;clip-rule:evenodd;fill:none;" d="M148.97,145.44c-0.24-0.28-0.57-0.53-0.96-0.72
							c0.16-0.17,0.25-0.35,0.25-0.54c0-0.69-1.12-1.25-2.49-1.25c-0.68,0-1.3,0.14-1.75,0.37c-0.77-0.49-1.86-0.78-3.06-0.78
							c-1.13,0-2.16,0.26-2.92,0.69c-0.4-0.14-0.88-0.22-1.39-0.22c-1.37,0-2.49,0.56-2.49,1.25c0,0.11,0.03,0.21,0.09,0.31
							c-0.5,0.21-0.91,0.48-1.22,0.8c-0.2,0.02-0.39,0.06-0.57,0.11c-0.23-0.24-0.36-0.55-0.36-0.87c0-0.74,0.7-1.36,1.66-1.56
							c0.28-0.4,0.66-0.75,1.11-1.02c-0.04-0.13-0.07-0.27-0.07-0.41c0-0.89,1.02-1.62,2.28-1.62c0.47,0,0.91,0.11,1.28,0.28
							c0.7-0.56,1.64-0.9,2.67-0.9c1.11,0,2.11,0.39,2.82,1.01c0.41-0.29,0.98-0.47,1.61-0.47c1.25,0,2.27,0.73,2.27,1.62
							c0,0.25-0.08,0.48-0.22,0.7c0.36,0.26,0.66,0.58,0.88,0.93c0.87,0.24,1.49,0.82,1.49,1.52c0,0.33-0.15,0.64-0.39,0.9
							C149.33,145.52,149.16,145.47,148.97,145.44z"/>
					</g>
					<rect x="140.81" y="155.72" style="fill-rule:evenodd;clip-rule:evenodd;fill:#FFFFFF;" width="0.21" height="6.75"/>
				</g>
				<rect x="125.95" y="134.97" style="fill-rule:evenodd;clip-rule:evenodd;fill:none;" width="30" height="30"/>
			</g>
			<g>
				<g>
					<g>
						<path style="fill-rule:evenodd;clip-rule:evenodd;fill:#FFFFFF;" d="M159.43,158.85c0-0.56,0.57-1.01,1.271-1.01h7.99v-3.41
							h-0.48c-0.7,0-1.27-0.449-1.27-1c0-0.56,0.569-1.01,1.27-1.01h0.48v-0.84c-0.171-0.09-0.33-0.19-0.48-0.3
							c-0.38,0.27-0.87,0.43-1.4,0.43c-0.04,0-0.09,0-0.13,0c0.13-0.19,0.29-0.35,0.471-0.479c-0.03-0.091-0.04-0.171-0.04-0.26
							c0-0.57,0.52-1.03,1.17-1.03c0.239,0,0.47,0.07,0.649,0.18c0.36-0.36,0.851-0.57,1.38-0.57l0,0c0.57,0,1.08,0.24,1.44,0.64
							c0.21-0.19,0.5-0.3,0.83-0.3c0.64,0,1.17,0.46,1.17,1.03c0,0.16-0.05,0.311-0.12,0.44c0.11,0.1,0.21,0.22,0.3,0.34
							c-0.5-0.04-0.96-0.23-1.3-0.521c-0.21,0.17-0.45,0.32-0.7,0.44v0.8h0.48c0.7,0,1.26,0.45,1.26,1.01c0,0.551-0.56,1-1.26,1
							h-0.48v3.41h7.99c0.7,0,1.26,0.45,1.26,1.01c0,0.551-0.56,1-1.26,1H160.7C160,159.85,159.43,159.4,159.43,158.85z
							 M170.91,157.94v-2.96h-1.17v2.96H170.91z M170.31,152.96c0.66,0,1.221,0.35,1.45,0.84c0.78-0.09,1.3-0.25,1.3-0.439
							c0-0.29-1.229-0.53-2.75-0.53c-1.52,0-2.75,0.24-2.75,0.53c0,0.189,0.521,0.35,1.29,0.439
							C169.09,153.31,169.65,152.96,170.31,152.96z M174.11,151.06c0.09-0.149,0.13-0.31,0.13-0.49c0-0.61-0.59-1.11-1.33-1.11
							c-0.36,0-0.69,0.13-0.93,0.32c-0.421-0.42-1-0.69-1.641-0.69c-0.609,0-1.16,0.23-1.56,0.62c-0.221-0.12-0.471-0.2-0.75-0.2
							c-0.73,0-1.33,0.5-1.33,1.12c0,0.1,0.01,0.19,0.04,0.28c-0.26,0.189-0.48,0.43-0.641,0.7c-0.21-0.061-0.409-0.15-0.59-0.261
							c-0.04-0.02-0.069-0.04-0.1-0.069c0,0,0,0,0-0.011c-0.45-0.319-0.74-0.81-0.74-1.35c0-0.25,0.061-0.49,0.17-0.71
							c-0.649-0.37-1.17-0.95-1.49-1.63c-0.81-0.26-1.39-0.91-1.39-1.68c0-0.82,0.66-1.51,1.55-1.73c0.271-0.45,0.63-0.84,1.05-1.14
							c-0.04-0.14-0.06-0.29-0.06-0.45c0-0.99,0.95-1.8,2.14-1.8c0.44,0,0.86,0.12,1.2,0.31c0.65-0.62,1.54-0.99,2.51-0.99
							c1.04,0,1.98,0.42,2.641,1.12c0.39-0.32,0.93-0.52,1.51-0.52c1.19,0,2.15,0.8,2.15,1.79c0,0.28-0.08,0.54-0.21,0.78
							c0.329,0.29,0.609,0.64,0.819,1.04c0.82,0.25,1.4,0.91,1.4,1.68c0,0.75-0.55,1.39-1.34,1.66c-0.28,0.58-0.721,1.08-1.261,1.44
							c0.15,0.25,0.24,0.53,0.24,0.83c0,0.54-0.29,1.03-0.74,1.36c-0.029,0.029-0.069,0.05-0.109,0.069
							c-0.24,0.15-0.53,0.271-0.84,0.32C174.48,151.44,174.31,151.23,174.11,151.06z M176.98,145.99c0-0.52-0.471-0.96-1.12-1.13
							c-0.17-0.27-0.391-0.51-0.66-0.7c0.109-0.16,0.17-0.34,0.17-0.53c0-0.67-0.771-1.21-1.71-1.21c-0.47,0-0.9,0.13-1.21,0.35
							c-0.53-0.47-1.28-0.76-2.11-0.76c-0.77,0-1.479,0.26-2,0.68c-0.28-0.13-0.609-0.21-0.96-0.21c-0.95,0-1.71,0.54-1.71,1.21
							c0,0.11,0.021,0.21,0.05,0.31c-0.34,0.2-0.63,0.47-0.84,0.77c-0.71,0.15-1.24,0.61-1.24,1.16c0,0.25,0.101,0.47,0.271,0.66
							c0.14-0.04,0.28-0.07,0.43-0.09c0.23-0.23,0.54-0.43,0.91-0.59c-0.04-0.08-0.06-0.16-0.06-0.24c0-0.51,0.84-0.93,1.859-0.93
							c0.391,0,0.75,0.06,1.05,0.16c0.57-0.32,1.341-0.52,2.19-0.52c0.9,0,1.71,0.22,2.3,0.58c0.33-0.16,0.79-0.27,1.311-0.27
							c1.029,0,1.859,0.42,1.859,0.94c0,0.14-0.069,0.28-0.18,0.4c0.29,0.15,0.54,0.34,0.72,0.54c0.141,0.03,0.26,0.06,0.391,0.1
							C176.87,146.48,176.98,146.24,176.98,145.99z"/>
						<g>
							<defs>
								<path id="SVGID_7_" d="M176.32,146.57c-0.181-0.2-0.42-0.39-0.721-0.54c0.12-0.12,0.19-0.26,0.19-0.4
									c0-0.52-0.84-0.94-1.86-0.94c-0.52,0-0.979,0.11-1.319,0.27c-0.58-0.36-1.391-0.58-2.301-0.58c-0.84,0-1.609,0.2-2.18,0.52
									c-0.3-0.1-0.66-0.16-1.05-0.16c-1.03,0-1.86,0.42-1.86,0.93c0,0.08,0.021,0.16,0.061,0.24c-0.37,0.16-0.681,0.36-0.91,0.59
									c-0.15,0.02-0.3,0.05-0.43,0.09c-0.171-0.19-0.271-0.41-0.271-0.66c0-0.55,0.521-1.01,1.24-1.16
									c0.21-0.3,0.5-0.57,0.84-0.77c-0.04-0.1-0.06-0.2-0.06-0.31c0-0.67,0.77-1.21,1.71-1.21c0.359,0,0.689,0.08,0.96,0.21
									c0.529-0.42,1.229-0.68,2.01-0.68c0.83,0,1.58,0.29,2.11,0.76c0.31-0.22,0.739-0.35,1.21-0.35c0.939,0,1.71,0.54,1.71,1.21
									c0,0.19-0.061,0.37-0.17,0.53c0.27,0.19,0.489,0.43,0.659,0.7c0.65,0.17,1.11,0.61,1.11,1.13c0,0.25-0.11,0.49-0.29,0.68
									C176.59,146.63,176.46,146.6,176.32,146.57z"/>
							</defs>
							<clipPath id="SVGID_8_">
								<use xlink:href="#SVGID_7_"  style="overflow:visible;"/>
							</clipPath>
							<g transform="matrix(1 0 0 1 0 -3.814697e-006)" style="clip-path:url(#SVGID_8_);">
								
									<image style="overflow:visible;" width="19" height="7" xlink:href="8328427F.jpg"  transform="matrix(0.75 0 0 0.75 163.3096 141.4399)">
								</image>
							</g>
						</g>
						<path style="fill-rule:evenodd;clip-rule:evenodd;fill:none;" d="M176.32,146.57c-0.181-0.2-0.42-0.39-0.721-0.54
							c0.12-0.12,0.19-0.26,0.19-0.4c0-0.52-0.84-0.94-1.86-0.94c-0.52,0-0.979,0.11-1.319,0.27c-0.58-0.36-1.391-0.58-2.301-0.58
							c-0.84,0-1.609,0.2-2.18,0.52c-0.3-0.1-0.66-0.16-1.05-0.16c-1.03,0-1.86,0.42-1.86,0.93c0,0.08,0.021,0.16,0.061,0.24
							c-0.37,0.16-0.681,0.36-0.91,0.59c-0.15,0.02-0.3,0.05-0.43,0.09c-0.171-0.19-0.271-0.41-0.271-0.66
							c0-0.55,0.521-1.01,1.24-1.16c0.21-0.3,0.5-0.57,0.84-0.77c-0.04-0.1-0.06-0.2-0.06-0.31c0-0.67,0.77-1.21,1.71-1.21
							c0.359,0,0.689,0.08,0.96,0.21c0.529-0.42,1.229-0.68,2.01-0.68c0.83,0,1.58,0.29,2.11,0.76c0.31-0.22,0.739-0.35,1.21-0.35
							c0.939,0,1.71,0.54,1.71,1.21c0,0.19-0.061,0.37-0.17,0.53c0.27,0.19,0.489,0.43,0.659,0.7c0.65,0.17,1.11,0.61,1.11,1.13
							c0,0.25-0.11,0.49-0.29,0.68C176.59,146.63,176.46,146.6,176.32,146.57z"/>
					</g>
					<rect x="170.21" y="154.28" style="fill-rule:evenodd;clip-rule:evenodd;fill:#FFFFFF;" width="0.15" height="5.069"/>
				</g>
				<rect x="159.06" y="138.72" style="fill-rule:evenodd;clip-rule:evenodd;fill:none;" width="22.5" height="22.5"/>
			</g>
			<g>
				<g>
					<g>
						<path style="fill-rule:evenodd;clip-rule:evenodd;fill:#FFFFFF;" d="M184.99,157.67c0-0.49,0.49-0.88,1.1-0.88h6.92v-2.95
							h-0.41c-0.609,0-1.1-0.399-1.1-0.87c0-0.479,0.49-0.87,1.1-0.87h0.41v-0.739c-0.14-0.07-0.29-0.16-0.42-0.25
							c-0.32,0.229-0.74,0.37-1.21,0.37c-0.03,0-0.07,0-0.11,0c0.11-0.16,0.25-0.301,0.41-0.421c-0.02-0.069-0.04-0.149-0.04-0.22
							c0-0.5,0.46-0.9,1.021-0.9c0.21,0,0.41,0.06,0.57,0.16c0.31-0.31,0.729-0.5,1.18-0.5h0.01c0.49,0,0.93,0.22,1.25,0.56
							c0.18-0.16,0.43-0.26,0.71-0.26c0.561,0,1.021,0.4,1.021,0.89c0,0.14-0.04,0.27-0.101,0.39c0.09,0.08,0.181,0.181,0.26,0.29
							c-0.439-0.04-0.829-0.2-1.13-0.45c-0.189,0.15-0.39,0.28-0.609,0.381v0.699h0.42c0.6,0,1.09,0.391,1.09,0.87
							c0,0.471-0.49,0.87-1.09,0.87h-0.42v2.95h6.92c0.609,0,1.1,0.39,1.1,0.88c0,0.47-0.49,0.86-1.1,0.86h-16.65
							C185.48,158.53,184.99,158.14,184.99,157.67z M194.93,156.88v-2.56h-1.01v2.56H194.93z M194.42,152.56
							c0.57,0,1.05,0.311,1.26,0.73c0.67-0.07,1.12-0.22,1.12-0.38c0-0.25-1.069-0.46-2.38-0.46c-1.32,0-2.39,0.21-2.39,0.46
							c0,0.16,0.45,0.31,1.13,0.38C193.36,152.87,193.85,152.56,194.42,152.56z M197.71,150.91c0.08-0.12,0.12-0.27,0.12-0.42
							c0-0.53-0.521-0.96-1.16-0.96c-0.31,0-0.6,0.11-0.81,0.28c-0.36-0.37-0.86-0.6-1.42-0.6c-0.521,0-1,0.2-1.351,0.53
							c-0.189-0.1-0.41-0.16-0.649-0.16c-0.641,0-1.15,0.43-1.15,0.96c0,0.09,0.01,0.17,0.03,0.25c-0.221,0.16-0.41,0.37-0.561,0.6
							c-0.18-0.05-0.35-0.13-0.5-0.22c-0.029-0.02-0.06-0.04-0.09-0.07l0,0c-0.39-0.28-0.64-0.7-0.64-1.169
							c0-0.22,0.05-0.43,0.149-0.62c-0.569-0.32-1.02-0.82-1.3-1.41c-0.7-0.23-1.2-0.79-1.2-1.46c0-0.71,0.57-1.31,1.351-1.49
							c0.229-0.39,0.54-0.73,0.91-0.99c-0.04-0.13-0.061-0.26-0.061-0.4c0-0.86,0.83-1.55,1.851-1.55c0.39,0,0.75,0.1,1.039,0.27
							c0.57-0.54,1.341-0.87,2.181-0.87c0.899,0,1.71,0.37,2.29,0.97c0.34-0.27,0.8-0.45,1.31-0.45c1.03,0,1.86,0.7,1.86,1.56
							c0,0.24-0.061,0.47-0.18,0.67c0.289,0.25,0.529,0.56,0.71,0.9c0.71,0.22,1.21,0.79,1.21,1.46c0,0.65-0.48,1.2-1.15,1.44
							c-0.25,0.51-0.63,0.94-1.1,1.25c0.13,0.21,0.21,0.46,0.21,0.72c0,0.47-0.25,0.89-0.65,1.169c-0.02,0.03-0.05,0.051-0.09,0.061
							c-0.21,0.14-0.46,0.24-0.73,0.29C198.03,151.25,197.88,151.06,197.71,150.91z M200.19,146.52c0-0.45-0.4-0.83-0.96-0.98
							c-0.15-0.23-0.341-0.44-0.57-0.61c0.09-0.14,0.14-0.29,0.14-0.45c0-0.58-0.66-1.05-1.479-1.05c-0.41,0-0.78,0.11-1.051,0.3
							c-0.46-0.4-1.109-0.66-1.819-0.66c-0.681,0-1.29,0.23-1.74,0.59c-0.24-0.11-0.53-0.18-0.83-0.18c-0.82,0-1.49,0.47-1.49,1.05
							c0,0.09,0.021,0.18,0.051,0.27c-0.29,0.17-0.54,0.4-0.73,0.66c-0.62,0.13-1.07,0.53-1.07,1.01c0,0.21,0.091,0.41,0.23,0.57
							c0.12-0.03,0.24-0.06,0.37-0.07c0.2-0.21,0.47-0.38,0.79-0.52c-0.03-0.06-0.05-0.13-0.05-0.21c0-0.44,0.72-0.8,1.619-0.8
							c0.33,0,0.641,0.05,0.9,0.14c0.5-0.28,1.16-0.45,1.9-0.45c0.779,0,1.479,0.19,1.989,0.5c0.29-0.14,0.69-0.23,1.141-0.23
							c0.89,0,1.609,0.36,1.609,0.81c0,0.12-0.06,0.24-0.159,0.35c0.25,0.13,0.47,0.29,0.63,0.46c0.12,0.03,0.229,0.06,0.33,0.09
							C200.1,146.94,200.19,146.74,200.19,146.52z"/>
						<g>
							<defs>
								<path id="SVGID_9_" d="M199.63,147.02c-0.16-0.17-0.37-0.33-0.62-0.46c0.101-0.11,0.16-0.23,0.16-0.35
									c0-0.45-0.729-0.81-1.62-0.81c-0.439,0-0.85,0.09-1.14,0.23c-0.5-0.31-1.21-0.5-1.99-0.5c-0.729,0-1.4,0.17-1.9,0.45
									c-0.25-0.09-0.569-0.14-0.899-0.14c-0.89,0-1.62,0.36-1.62,0.8c0,0.08,0.02,0.15,0.06,0.21c-0.319,0.14-0.59,0.31-0.79,0.52
									c-0.13,0.01-0.26,0.04-0.369,0.07c-0.15-0.16-0.24-0.36-0.24-0.57c0-0.48,0.46-0.88,1.08-1.01
									c0.18-0.26,0.43-0.49,0.72-0.66c-0.03-0.09-0.04-0.18-0.04-0.27c0-0.58,0.66-1.05,1.48-1.05c0.31,0,0.59,0.07,0.83,0.18
									c0.449-0.36,1.069-0.59,1.739-0.59c0.721,0,1.37,0.26,1.83,0.66c0.271-0.19,0.641-0.3,1.04-0.3c0.82,0,1.49,0.47,1.49,1.05
									c0,0.16-0.061,0.31-0.15,0.45c0.23,0.17,0.431,0.38,0.57,0.61c0.57,0.15,0.97,0.53,0.97,0.98c0,0.22-0.1,0.42-0.26,0.59
									C199.86,147.08,199.75,147.05,199.63,147.02z"/>
							</defs>
							<clipPath id="SVGID_10_">
								<use xlink:href="#SVGID_9_"  style="overflow:visible;"/>
							</clipPath>
							<g transform="matrix(1 0 0 1 0 -3.814697e-006)" style="clip-path:url(#SVGID_10_);">
								
									<image style="overflow:visible;" width="17" height="6" xlink:href="8328427A.jpg"  transform="matrix(0.75 0 0 0.75 188.0596 142.9399)">
								</image>
							</g>
						</g>
						<path style="fill-rule:evenodd;clip-rule:evenodd;fill:none;" d="M199.63,147.02c-0.16-0.17-0.37-0.33-0.62-0.46
							c0.101-0.11,0.16-0.23,0.16-0.35c0-0.45-0.729-0.81-1.62-0.81c-0.439,0-0.85,0.09-1.14,0.23c-0.5-0.31-1.21-0.5-1.99-0.5
							c-0.729,0-1.4,0.17-1.9,0.45c-0.25-0.09-0.569-0.14-0.899-0.14c-0.89,0-1.62,0.36-1.62,0.8c0,0.08,0.02,0.15,0.06,0.21
							c-0.319,0.14-0.59,0.31-0.79,0.52c-0.13,0.01-0.26,0.04-0.369,0.07c-0.15-0.16-0.24-0.36-0.24-0.57
							c0-0.48,0.46-0.88,1.08-1.01c0.18-0.26,0.43-0.49,0.72-0.66c-0.03-0.09-0.04-0.18-0.04-0.27c0-0.58,0.66-1.05,1.48-1.05
							c0.31,0,0.59,0.07,0.83,0.18c0.449-0.36,1.069-0.59,1.739-0.59c0.721,0,1.37,0.26,1.83,0.66c0.271-0.19,0.641-0.3,1.04-0.3
							c0.82,0,1.49,0.47,1.49,1.05c0,0.16-0.061,0.31-0.15,0.45c0.23,0.17,0.431,0.38,0.57,0.61c0.57,0.15,0.97,0.53,0.97,0.98
							c0,0.22-0.1,0.42-0.26,0.59C199.86,147.08,199.75,147.05,199.63,147.02z"/>
					</g>
					<rect x="194.33" y="153.71" style="fill-rule:evenodd;clip-rule:evenodd;fill:#FFFFFF;" width="0.13" height="4.39"/>
				</g>
				<rect x="184.67" y="140.22" style="fill-rule:evenodd;clip-rule:evenodd;fill:none;" width="19.5" height="19.5"/>
			</g>
			<g>
				<g>
					<g>
						<path style="fill-rule:evenodd;clip-rule:evenodd;fill:#FFFFFF;" d="M207.57,157.07c0-0.44,0.46-0.801,1.02-0.801h6.391
							v-2.729h-0.391c-0.55,0-1.01-0.36-1.01-0.8c0-0.45,0.46-0.811,1.01-0.811h0.391v-0.67c-0.141-0.069-0.271-0.149-0.391-0.24
							c-0.3,0.221-0.689,0.341-1.109,0.341c-0.04,0-0.07,0-0.11,0c0.11-0.15,0.229-0.28,0.37-0.38c-0.01-0.07-0.03-0.14-0.03-0.21
							c0-0.46,0.42-0.82,0.94-0.82c0.189,0,0.38,0.05,0.52,0.14c0.29-0.28,0.68-0.46,1.1-0.46l0,0c0.461,0,0.87,0.2,1.16,0.52
							c0.17-0.15,0.4-0.24,0.66-0.24c0.51,0,0.93,0.36,0.93,0.82c0,0.13-0.029,0.25-0.09,0.35c0.09,0.08,0.17,0.18,0.24,0.28
							c-0.4-0.04-0.77-0.19-1.04-0.42c-0.17,0.14-0.36,0.26-0.56,0.35v0.64h0.38c0.56,0,1.02,0.36,1.02,0.811
							c0,0.439-0.46,0.8-1.02,0.8h-0.38v2.729h6.39c0.56,0,1.01,0.36,1.01,0.801c0,0.439-0.45,0.8-1.01,0.8h-15.37
							C208.03,157.87,207.57,157.51,207.57,157.07z M216.75,156.35v-2.369h-0.93v2.369H216.75z M216.27,152.36
							c0.53,0,0.98,0.279,1.171,0.68c0.619-0.07,1.029-0.21,1.029-0.36c0-0.229-0.979-0.42-2.2-0.42c-1.21,0-2.199,0.19-2.199,0.42
							c0,0.15,0.42,0.29,1.04,0.36C215.3,152.64,215.75,152.36,216.27,152.36z M219.32,150.84c0.06-0.12,0.1-0.25,0.1-0.39
							c0-0.49-0.47-0.89-1.06-0.89c-0.29,0-0.561,0.1-0.75,0.26c-0.33-0.34-0.801-0.56-1.311-0.56c-0.49,0-0.93,0.19-1.25,0.5
							c-0.17-0.1-0.38-0.15-0.6-0.15c-0.59,0-1.061,0.4-1.061,0.89c0,0.08,0.011,0.15,0.03,0.22c-0.21,0.15-0.38,0.339-0.52,0.56
							c-0.16-0.05-0.32-0.12-0.46-0.21c-0.03-0.011-0.061-0.03-0.08-0.051c0,0-0.011,0-0.011-0.01c-0.359-0.26-0.59-0.65-0.59-1.08
							c0-0.2,0.05-0.39,0.141-0.56c-0.521-0.31-0.94-0.76-1.2-1.31c-0.65-0.21-1.11-0.73-1.11-1.35c0-0.65,0.53-1.21,1.25-1.38
							c0.21-0.36,0.5-0.67,0.84-0.91c-0.04-0.11-0.06-0.24-0.06-0.36c0-0.8,0.77-1.44,1.72-1.44c0.351,0,0.68,0.09,0.96,0.25
							c0.521-0.5,1.23-0.8,2.01-0.8c0.83,0,1.58,0.34,2.11,0.9c0.311-0.26,0.74-0.42,1.21-0.42c0.95,0,1.72,0.64,1.72,1.44
							c0,0.22-0.069,0.43-0.17,0.62c0.261,0.23,0.49,0.51,0.66,0.83c0.65,0.2,1.11,0.73,1.11,1.34c0,0.6-0.44,1.12-1.061,1.33
							c-0.229,0.47-0.58,0.87-1.02,1.16c0.13,0.2,0.2,0.42,0.2,0.66c0,0.43-0.24,0.82-0.601,1.089c-0.02,0.021-0.05,0.04-0.08,0.051
							c-0.199,0.13-0.43,0.22-0.68,0.26C219.61,151.15,219.48,150.98,219.32,150.84z M221.61,146.79c0-0.42-0.37-0.77-0.891-0.91
							c-0.14-0.21-0.319-0.4-0.529-0.56c0.079-0.13,0.13-0.27,0.13-0.42c0-0.53-0.61-0.97-1.36-0.97c-0.38,0-0.72,0.11-0.97,0.28
							c-0.431-0.37-1.03-0.6-1.69-0.6c-0.62,0-1.189,0.2-1.6,0.53c-0.22-0.1-0.49-0.16-0.771-0.16c-0.76,0-1.37,0.43-1.37,0.97
							c0,0.08,0.021,0.17,0.051,0.24c-0.28,0.17-0.511,0.38-0.681,0.62c-0.569,0.12-0.989,0.49-0.989,0.93
							c0,0.2,0.079,0.38,0.22,0.53c0.1-0.03,0.22-0.06,0.34-0.07c0.18-0.19,0.43-0.35,0.73-0.48c-0.03-0.06-0.051-0.12-0.051-0.19
							c0-0.41,0.67-0.74,1.49-0.74c0.311,0,0.6,0.04,0.83,0.12c0.46-0.25,1.08-0.41,1.76-0.41c0.721,0,1.37,0.18,1.84,0.47
							c0.261-0.14,0.631-0.22,1.04-0.22c0.83,0,1.5,0.33,1.5,0.75c0,0.11-0.06,0.22-0.149,0.32c0.229,0.12,0.43,0.27,0.58,0.43
							c0.109,0.02,0.21,0.05,0.3,0.08C221.52,147.18,221.61,146.99,221.61,146.79z"/>
						<g>
							<defs>
								<path id="SVGID_11_" d="M221.09,147.25c-0.149-0.16-0.35-0.31-0.58-0.43c0.09-0.1,0.15-0.21,0.15-0.32
									c0-0.42-0.67-0.75-1.49-0.75c-0.41,0-0.78,0.08-1.05,0.22c-0.47-0.29-1.12-0.47-1.84-0.47c-0.681,0-1.3,0.16-1.75,0.41
									c-0.24-0.08-0.53-0.12-0.84-0.12c-0.82,0-1.49,0.33-1.49,0.74c0,0.07,0.02,0.13,0.05,0.19c-0.3,0.13-0.55,0.29-0.73,0.48
									c-0.119,0.01-0.229,0.04-0.34,0.07c-0.14-0.15-0.22-0.33-0.22-0.53c0-0.44,0.42-0.81,1-0.93c0.17-0.24,0.39-0.45,0.67-0.62
									c-0.03-0.07-0.05-0.16-0.05-0.24c0-0.54,0.61-0.97,1.37-0.97c0.28,0,0.55,0.06,0.77,0.16c0.42-0.33,0.98-0.53,1.601-0.53
									c0.67,0,1.27,0.23,1.689,0.6c0.25-0.17,0.59-0.28,0.971-0.28c0.75,0,1.359,0.44,1.359,0.97c0,0.15-0.04,0.29-0.13,0.42
									c0.21,0.16,0.39,0.35,0.53,0.56c0.52,0.14,0.89,0.49,0.89,0.91c0,0.2-0.09,0.39-0.229,0.54
									C221.3,147.3,221.2,147.27,221.09,147.25z"/>
							</defs>
							<clipPath id="SVGID_12_">
								<use xlink:href="#SVGID_11_"  style="overflow:visible;"/>
							</clipPath>
							<g transform="matrix(1 0 0 1 0 -3.814697e-006)" style="clip-path:url(#SVGID_12_);">
								
									<image style="overflow:visible;" width="15" height="6" xlink:href="83284275.jpg"  transform="matrix(0.75 0 0 0.75 210.5596 142.9399)">
								</image>
							</g>
						</g>
						<path style="fill-rule:evenodd;clip-rule:evenodd;fill:none;" d="M221.09,147.25c-0.149-0.16-0.35-0.31-0.58-0.43
							c0.09-0.1,0.15-0.21,0.15-0.32c0-0.42-0.67-0.75-1.49-0.75c-0.41,0-0.78,0.08-1.05,0.22c-0.47-0.29-1.12-0.47-1.84-0.47
							c-0.681,0-1.3,0.16-1.75,0.41c-0.24-0.08-0.53-0.12-0.84-0.12c-0.82,0-1.49,0.33-1.49,0.74c0,0.07,0.02,0.13,0.05,0.19
							c-0.3,0.13-0.55,0.29-0.73,0.48c-0.119,0.01-0.229,0.04-0.34,0.07c-0.14-0.15-0.22-0.33-0.22-0.53c0-0.44,0.42-0.81,1-0.93
							c0.17-0.24,0.39-0.45,0.67-0.62c-0.03-0.07-0.05-0.16-0.05-0.24c0-0.54,0.61-0.97,1.37-0.97c0.28,0,0.55,0.06,0.77,0.16
							c0.42-0.33,0.98-0.53,1.601-0.53c0.67,0,1.27,0.23,1.689,0.6c0.25-0.17,0.59-0.28,0.971-0.28c0.75,0,1.359,0.44,1.359,0.97
							c0,0.15-0.04,0.29-0.13,0.42c0.21,0.16,0.39,0.35,0.53,0.56c0.52,0.14,0.89,0.49,0.89,0.91c0,0.2-0.09,0.39-0.229,0.54
							C221.3,147.3,221.2,147.27,221.09,147.25z"/>
					</g>
					<rect x="216.19" y="153.42" style="fill-rule:evenodd;clip-rule:evenodd;fill:#FFFFFF;" width="0.13" height="4.05"/>
				</g>
				<rect x="207.27" y="140.97" style="fill-rule:evenodd;clip-rule:evenodd;fill:none;" width="18" height="18"/>
			</g>
			<g>
				<g>
					<g>
						<path style="fill-rule:evenodd;clip-rule:evenodd;fill:#FFFFFF;" d="M228.63,155.89c0-0.37,0.38-0.67,0.851-0.67h5.319v-2.279
							h-0.319c-0.461,0-0.841-0.301-0.841-0.66c0-0.37,0.38-0.67,0.841-0.67h0.319v-0.57c-0.109-0.05-0.22-0.12-0.319-0.19
							c-0.25,0.18-0.58,0.28-0.931,0.28c-0.03,0-0.06,0-0.09,0c0.09-0.12,0.19-0.23,0.31-0.32c-0.01-0.06-0.02-0.11-0.02-0.17
							c0-0.38,0.35-0.69,0.78-0.69c0.16,0,0.31,0.05,0.43,0.12c0.24-0.24,0.57-0.38,0.92-0.38l0,0c0.38,0,0.72,0.16,0.96,0.43
							c0.141-0.13,0.34-0.2,0.55-0.2c0.431,0,0.78,0.3,0.78,0.68c0,0.11-0.03,0.21-0.07,0.3c0.07,0.07,0.141,0.14,0.2,0.23
							c-0.34-0.03-0.64-0.16-0.87-0.35c-0.149,0.11-0.3,0.21-0.47,0.291v0.54h0.32c0.47,0,0.84,0.3,0.84,0.67
							c0,0.359-0.37,0.66-0.84,0.66h-0.32v2.279h5.33c0.46,0,0.84,0.3,0.84,0.67s-0.38,0.67-0.84,0.67h-12.81
							C229.01,156.56,228.63,156.26,228.63,155.89z M236.28,155.29v-1.98h-0.78v1.98H236.28z M235.88,151.97
							c0.44,0,0.811,0.23,0.97,0.561c0.521-0.061,0.86-0.17,0.86-0.3c0-0.19-0.82-0.351-1.83-0.351s-1.83,0.16-1.83,0.351
							c0,0.13,0.34,0.239,0.86,0.3C235.07,152.2,235.44,151.97,235.88,151.97z M238.42,150.7c0.05-0.1,0.08-0.21,0.08-0.33
							c0-0.41-0.39-0.74-0.88-0.74c-0.25,0-0.47,0.08-0.63,0.22c-0.271-0.29-0.66-0.47-1.09-0.47c-0.4,0-0.771,0.16-1.04,0.42
							c-0.141-0.08-0.311-0.13-0.5-0.13c-0.49,0-0.891,0.33-0.891,0.74c0,0.07,0.011,0.13,0.03,0.19c-0.17,0.12-0.32,0.28-0.43,0.47
							c-0.141-0.051-0.271-0.11-0.391-0.18c-0.02-0.01-0.04-0.03-0.069-0.05l0,0c-0.301-0.22-0.49-0.54-0.49-0.9
							c0-0.17,0.04-0.33,0.12-0.47c-0.44-0.26-0.79-0.64-1-1.09c-0.54-0.18-0.931-0.61-0.931-1.12c0-0.55,0.44-1.01,1.04-1.15
							c0.181-0.3,0.42-0.56,0.7-0.76c-0.03-0.1-0.05-0.2-0.05-0.31c0-0.66,0.64-1.19,1.43-1.19c0.301,0,0.57,0.07,0.801,0.2
							c0.439-0.41,1.029-0.66,1.68-0.66c0.689,0,1.32,0.28,1.76,0.75c0.26-0.22,0.62-0.35,1.01-0.35c0.79,0,1.431,0.53,1.431,1.19
							c0,0.19-0.051,0.37-0.141,0.52c0.221,0.2,0.41,0.43,0.55,0.7c0.54,0.16,0.931,0.6,0.931,1.11c0,0.51-0.37,0.93-0.891,1.11
							c-0.189,0.39-0.489,0.73-0.85,0.97c0.11,0.16,0.16,0.35,0.16,0.55c0,0.36-0.19,0.68-0.49,0.9c-0.02,0.02-0.04,0.04-0.07,0.05
							c-0.159,0.1-0.35,0.18-0.56,0.22C238.66,150.95,238.55,150.81,238.42,150.7z M240.32,147.32c0-0.35-0.301-0.64-0.74-0.76
							c-0.11-0.17-0.26-0.33-0.44-0.47c0.07-0.1,0.11-0.22,0.11-0.35c0-0.44-0.51-0.8-1.14-0.8c-0.311,0-0.591,0.09-0.801,0.23
							c-0.359-0.31-0.85-0.5-1.409-0.5c-0.511,0-0.99,0.17-1.341,0.45c-0.18-0.09-0.399-0.14-0.63-0.14c-0.63,0-1.14,0.36-1.14,0.8
							c0,0.08,0.01,0.15,0.03,0.21c-0.221,0.14-0.42,0.31-0.561,0.51c-0.47,0.1-0.83,0.41-0.83,0.78c0,0.16,0.07,0.31,0.19,0.44
							c0.08-0.03,0.18-0.05,0.28-0.06c0.149-0.16,0.359-0.29,0.609-0.4c-0.029-0.05-0.04-0.1-0.04-0.15c0-0.35,0.561-0.63,1.24-0.63
							c0.26,0,0.5,0.04,0.7,0.11c0.38-0.21,0.89-0.35,1.46-0.35c0.6,0,1.14,0.15,1.53,0.39c0.22-0.11,0.529-0.18,0.869-0.18
							c0.69,0,1.25,0.28,1.25,0.63c0,0.09-0.05,0.18-0.13,0.26c0.2,0.1,0.36,0.23,0.48,0.36c0.1,0.02,0.18,0.04,0.26,0.07
							C240.25,147.64,240.32,147.49,240.32,147.32z"/>
						<g>
							<defs>
								<path id="SVGID_13_" d="M239.89,147.7c-0.12-0.13-0.29-0.26-0.479-0.36c0.08-0.08,0.12-0.17,0.12-0.26
									c0-0.35-0.55-0.63-1.24-0.63c-0.34,0-0.65,0.07-0.87,0.18c-0.39-0.24-0.939-0.39-1.54-0.39c-0.56,0-1.07,0.14-1.46,0.35
									c-0.189-0.07-0.43-0.11-0.689-0.11c-0.69,0-1.24,0.28-1.24,0.63c0,0.05,0.01,0.1,0.04,0.15c-0.25,0.11-0.46,0.24-0.61,0.4
									c-0.1,0.01-0.2,0.03-0.28,0.06c-0.12-0.13-0.189-0.28-0.189-0.44c0-0.37,0.35-0.68,0.83-0.78c0.14-0.2,0.33-0.37,0.56-0.51
									c-0.02-0.06-0.04-0.13-0.04-0.21c0-0.44,0.51-0.8,1.141-0.8c0.239,0,0.46,0.05,0.64,0.14c0.35-0.28,0.82-0.45,1.34-0.45
									c0.55,0,1.05,0.19,1.41,0.5c0.21-0.14,0.49-0.23,0.8-0.23c0.63,0,1.14,0.36,1.14,0.8c0,0.13-0.039,0.25-0.109,0.35
									c0.18,0.14,0.33,0.3,0.439,0.47c0.431,0.12,0.74,0.41,0.74,0.76c0,0.17-0.07,0.32-0.189,0.45
									C240.07,147.74,239.98,147.72,239.89,147.7z"/>
							</defs>
							<clipPath id="SVGID_14_">
								<use xlink:href="#SVGID_13_"  style="overflow:visible;"/>
							</clipPath>
							<g transform="matrix(1 0 0 1 0 -3.814697e-006)" style="clip-path:url(#SVGID_14_);">
								
									<image style="overflow:visible;" width="13" height="5" xlink:href="83284276.jpg"  transform="matrix(0.75 0 0 0.75 230.8096 144.4399)">
								</image>
							</g>
						</g>
						<path style="fill-rule:evenodd;clip-rule:evenodd;fill:none;" d="M239.89,147.7c-0.12-0.13-0.29-0.26-0.479-0.36
							c0.08-0.08,0.12-0.17,0.12-0.26c0-0.35-0.55-0.63-1.24-0.63c-0.34,0-0.65,0.07-0.87,0.18c-0.39-0.24-0.939-0.39-1.54-0.39
							c-0.56,0-1.07,0.14-1.46,0.35c-0.189-0.07-0.43-0.11-0.689-0.11c-0.69,0-1.24,0.28-1.24,0.63c0,0.05,0.01,0.1,0.04,0.15
							c-0.25,0.11-0.46,0.24-0.61,0.4c-0.1,0.01-0.2,0.03-0.28,0.06c-0.12-0.13-0.189-0.28-0.189-0.44c0-0.37,0.35-0.68,0.83-0.78
							c0.14-0.2,0.33-0.37,0.56-0.51c-0.02-0.06-0.04-0.13-0.04-0.21c0-0.44,0.51-0.8,1.141-0.8c0.239,0,0.46,0.05,0.64,0.14
							c0.35-0.28,0.82-0.45,1.34-0.45c0.55,0,1.05,0.19,1.41,0.5c0.21-0.14,0.49-0.23,0.8-0.23c0.63,0,1.14,0.36,1.14,0.8
							c0,0.13-0.039,0.25-0.109,0.35c0.18,0.14,0.33,0.3,0.439,0.47c0.431,0.12,0.74,0.41,0.74,0.76c0,0.17-0.07,0.32-0.189,0.45
							C240.07,147.74,239.98,147.72,239.89,147.7z"/>
					</g>
					<rect x="235.81" y="152.85" style="fill-rule:evenodd;clip-rule:evenodd;fill:#FFFFFF;" width="0.101" height="3.37"/>
				</g>
				<rect x="228.38" y="142.47" style="fill-rule:evenodd;clip-rule:evenodd;fill:none;" width="15" height="15"/>
			</g>
			<g>
				<g>
					<g>
						<path style="fill-rule:evenodd;clip-rule:evenodd;fill:#FFFFFF;" d="M246.69,154.71c0-0.3,0.3-0.54,0.67-0.54h4.27v-1.82
							h-0.26c-0.37,0-0.68-0.239-0.68-0.529c0-0.301,0.31-0.54,0.68-0.54h0.26v-0.45c-0.1-0.05-0.18-0.1-0.26-0.16
							c-0.2,0.15-0.46,0.23-0.75,0.23c-0.021,0-0.04,0-0.07,0c0.07-0.1,0.16-0.19,0.25-0.26c-0.01-0.04-0.02-0.09-0.02-0.14
							c0-0.3,0.279-0.54,0.63-0.54c0.12,0,0.25,0.03,0.35,0.09c0.19-0.19,0.44-0.3,0.73-0.3l0,0c0.3,0,0.569,0.13,0.77,0.34
							c0.11-0.1,0.271-0.16,0.44-0.16c0.34,0,0.62,0.24,0.62,0.55c0,0.08-0.021,0.16-0.061,0.23c0.061,0.06,0.11,0.12,0.16,0.19
							c-0.27-0.03-0.51-0.13-0.689-0.28c-0.12,0.09-0.25,0.17-0.381,0.23v0.43h0.261c0.37,0,0.67,0.239,0.67,0.54
							c0,0.29-0.3,0.529-0.67,0.529h-0.261v1.82h4.261c0.37,0,0.68,0.24,0.68,0.54c0,0.29-0.31,0.53-0.68,0.53h-10.25
							C246.99,155.24,246.69,155,246.69,154.71z M252.81,154.22v-1.569h-0.63v1.569H252.81z M252.49,151.57
							c0.35,0,0.649,0.18,0.77,0.449c0.42-0.05,0.69-0.14,0.69-0.239c0-0.15-0.65-0.28-1.46-0.28c-0.811,0-1.471,0.13-1.471,0.28
							c0,0.1,0.28,0.189,0.69,0.239C251.84,151.75,252.14,151.57,252.49,151.57z M254.52,150.55c0.04-0.08,0.07-0.16,0.07-0.26
							c0-0.32-0.32-0.59-0.71-0.59c-0.2,0-0.38,0.07-0.5,0.17c-0.22-0.23-0.53-0.37-0.88-0.37c-0.32,0-0.61,0.13-0.83,0.33
							c-0.11-0.06-0.25-0.1-0.4-0.1c-0.39,0-0.71,0.26-0.71,0.59c0,0.06,0.011,0.11,0.03,0.15c-0.14,0.1-0.26,0.23-0.35,0.38
							c-0.11-0.04-0.221-0.09-0.311-0.14c-0.02-0.01-0.04-0.02-0.05-0.04h-0.01c-0.24-0.18-0.39-0.44-0.39-0.73
							c0-0.13,0.029-0.26,0.09-0.37c-0.351-0.2-0.62-0.51-0.801-0.87c-0.43-0.14-0.739-0.49-0.739-0.9c0-0.44,0.359-0.81,0.83-0.92
							c0.149-0.24,0.34-0.45,0.56-0.61c-0.02-0.08-0.03-0.16-0.03-0.24c0-0.53,0.511-0.96,1.141-0.96c0.239,0,0.46,0.06,0.64,0.17
							c0.35-0.33,0.82-0.53,1.34-0.53c0.561,0,1.05,0.22,1.41,0.59c0.21-0.17,0.49-0.27,0.811-0.27c0.63,0,1.14,0.42,1.14,0.95
							c0,0.15-0.04,0.29-0.11,0.42c0.17,0.15,0.33,0.34,0.44,0.55c0.43,0.14,0.74,0.49,0.74,0.9c0,0.4-0.29,0.74-0.71,0.88
							c-0.15,0.32-0.391,0.58-0.681,0.77c0.09,0.14,0.13,0.29,0.13,0.44c0,0.29-0.149,0.55-0.39,0.73
							c-0.021,0.01-0.04,0.03-0.06,0.04c-0.131,0.08-0.28,0.14-0.45,0.17C254.71,150.76,254.62,150.64,254.52,150.55z
							 M256.04,147.85c0-0.28-0.24-0.51-0.59-0.6c-0.09-0.15-0.21-0.27-0.351-0.38c0.051-0.08,0.091-0.18,0.091-0.28
							c0-0.35-0.41-0.65-0.91-0.65c-0.261,0-0.48,0.08-0.65,0.19c-0.28-0.25-0.68-0.4-1.12-0.4c-0.42,0-0.79,0.13-1.069,0.36
							c-0.15-0.07-0.33-0.11-0.521-0.11c-0.5,0-0.91,0.29-0.91,0.64c0,0.06,0.01,0.11,0.03,0.17c-0.18,0.11-0.33,0.25-0.45,0.41
							c-0.38,0.08-0.66,0.32-0.66,0.62c0,0.13,0.061,0.25,0.15,0.35c0.07-0.02,0.14-0.04,0.22-0.05c0.13-0.12,0.29-0.23,0.49-0.32
							c-0.021-0.03-0.03-0.08-0.03-0.12c0-0.28,0.44-0.5,0.99-0.5c0.21,0,0.4,0.03,0.56,0.09c0.301-0.17,0.71-0.28,1.171-0.28
							c0.479,0,0.909,0.12,1.22,0.31c0.18-0.09,0.43-0.14,0.7-0.14c0.55,0,1,0.22,1,0.49c0,0.08-0.04,0.15-0.101,0.22
							c0.15,0.08,0.28,0.18,0.38,0.29c0.08,0.01,0.141,0.03,0.21,0.05C255.99,148.11,256.04,147.98,256.04,147.85z"/>
						<g>
							<defs>
								<path id="SVGID_15_" d="M255.7,148.16c-0.101-0.11-0.23-0.21-0.391-0.29c0.061-0.07,0.101-0.14,0.101-0.22
									c0-0.27-0.45-0.49-0.99-0.49c-0.28,0-0.52,0.05-0.7,0.14c-0.31-0.19-0.75-0.31-1.229-0.31c-0.45,0-0.86,0.11-1.17,0.28
									c-0.16-0.06-0.351-0.09-0.551-0.09c-0.55,0-1,0.22-1,0.5c0,0.04,0.011,0.09,0.04,0.12c-0.199,0.09-0.369,0.2-0.489,0.32
									c-0.08,0.01-0.16,0.03-0.23,0.05c-0.09-0.1-0.14-0.22-0.14-0.35c0-0.3,0.28-0.54,0.66-0.62c0.109-0.16,0.26-0.3,0.449-0.41
									c-0.02-0.06-0.029-0.11-0.029-0.17c0-0.35,0.41-0.64,0.91-0.64c0.189,0,0.359,0.04,0.51,0.11
									c0.28-0.23,0.66-0.36,1.069-0.36c0.44,0,0.841,0.15,1.131,0.4c0.159-0.11,0.39-0.19,0.64-0.19c0.5,0,0.91,0.3,0.91,0.65
									c0,0.1-0.03,0.2-0.09,0.28c0.14,0.11,0.26,0.23,0.35,0.38c0.35,0.09,0.6,0.32,0.6,0.6c0,0.13-0.06,0.26-0.159,0.36
									C255.84,148.19,255.77,148.17,255.7,148.16z"/>
							</defs>
							<clipPath id="SVGID_16_">
								<use xlink:href="#SVGID_15_"  style="overflow:visible;"/>
							</clipPath>
							<g transform="matrix(1 0 0 1 0 -3.814697e-006)" style="clip-path:url(#SVGID_16_);">
								
									<image style="overflow:visible;" width="10" height="4" xlink:href="83284277.jpg"  transform="matrix(0.75 0 0 0.75 248.8096 145.1899)">
								</image>
							</g>
						</g>
						<path style="fill-rule:evenodd;clip-rule:evenodd;fill:none;" d="M255.7,148.16c-0.101-0.11-0.23-0.21-0.391-0.29
							c0.061-0.07,0.101-0.14,0.101-0.22c0-0.27-0.45-0.49-0.99-0.49c-0.28,0-0.52,0.05-0.7,0.14c-0.31-0.19-0.75-0.31-1.229-0.31
							c-0.45,0-0.86,0.11-1.17,0.28c-0.16-0.06-0.351-0.09-0.551-0.09c-0.55,0-1,0.22-1,0.5c0,0.04,0.011,0.09,0.04,0.12
							c-0.199,0.09-0.369,0.2-0.489,0.32c-0.08,0.01-0.16,0.03-0.23,0.05c-0.09-0.1-0.14-0.22-0.14-0.35c0-0.3,0.28-0.54,0.66-0.62
							c0.109-0.16,0.26-0.3,0.449-0.41c-0.02-0.06-0.029-0.11-0.029-0.17c0-0.35,0.41-0.64,0.91-0.64c0.189,0,0.359,0.04,0.51,0.11
							c0.28-0.23,0.66-0.36,1.069-0.36c0.44,0,0.841,0.15,1.131,0.4c0.159-0.11,0.39-0.19,0.64-0.19c0.5,0,0.91,0.3,0.91,0.65
							c0,0.1-0.03,0.2-0.09,0.28c0.14,0.11,0.26,0.23,0.35,0.38c0.35,0.09,0.6,0.32,0.6,0.6c0,0.13-0.06,0.26-0.159,0.36
							C255.84,148.19,255.77,148.17,255.7,148.16z"/>
					</g>
					<rect x="252.43" y="152.27" style="fill-rule:evenodd;clip-rule:evenodd;fill:#FFFFFF;" width="0.09" height="2.7"/>
				</g>
				<rect x="246.49" y="143.97" style="fill-rule:evenodd;clip-rule:evenodd;fill:none;" width="12" height="12"/>
			</g>
		</g>
	</g>
</g>
<g id="Guides">
</g>
</svg>
