<?xml version="1.0" encoding="utf-8"?>
<!-- Generator: Adobe Illustrator 15.0.0, SVG Export Plug-In . SVG Version: 6.00 Build 0)  -->
<!DOCTYPE svg PUBLIC "-//W3C//DTD SVG 1.1//EN" "http://www.w3.org/Graphics/SVG/1.1/DTD/svg11.dtd">
<svg version="1.1" id="Layer_1" xmlns="http://www.w3.org/2000/svg" xmlns:xlink="http://www.w3.org/1999/xlink" x="0px" y="0px"
	 width="283.464px" height="283.464px" viewBox="0 0 283.464 283.464" enable-background="new 0 0 283.464 283.464"
	 xml:space="preserve">
<g>
	<circle cx="114.83" cy="142.099" r="7.269"/>
	<circle cx="150.018" cy="142.099" r="7.269"/>
</g>
<path d="M131.548,80.199c-42.618,0-77.167,34.549-77.167,77.167c0,42.618,34.549,77.167,77.167,77.167
	c42.618,0,77.167-34.549,77.167-77.167C208.715,114.748,174.167,80.199,131.548,80.199z M157.857,109.721
	c12.562,0,22.744,11.396,22.744,25.456c0,14.059-10.183,25.455-22.744,25.455c-12.561,0-22.744-11.396-22.744-25.455
	C135.114,121.117,145.296,109.721,157.857,109.721z M105.24,109.721c12.561,0,22.744,11.396,22.744,25.456
	c0,14.059-10.183,25.455-22.744,25.455c-12.562,0-22.744-11.396-22.744-25.455C82.496,121.117,92.678,109.721,105.24,109.721z
	 M131.549,219.588c-26.444,0-49.032-16.442-58.143-39.654h10.588c8.521,17.698,26.634,29.942,47.555,29.942
	s39.035-12.244,47.555-29.942h10.588C180.581,203.146,157.993,219.588,131.549,219.588z"/>
</svg>
