<?xml version="1.0" encoding="iso-8859-1"?>
<!-- Generator: Adobe Illustrator 15.0.0, SVG Export Plug-In . SVG Version: 6.00 Build 0)  -->
<!DOCTYPE svg PUBLIC "-//W3C//DTD SVG 1.1//EN" "http://www.w3.org/Graphics/SVG/1.1/DTD/svg11.dtd">
<svg version="1.1" xmlns="http://www.w3.org/2000/svg" xmlns:xlink="http://www.w3.org/1999/xlink" x="0px" y="0px" width="300px"
	 height="300px" viewBox="0 0 300 300" style="enable-background:new 0 0 300 300;" xml:space="preserve">
<g id="Layer_1">
	<g>
		<rect x="0.56" y="-0.31" style="fill-rule:evenodd;clip-rule:evenodd;fill:#666666;" width="300" height="300"/>
		<g>
			<g>
				<path style="fill-rule:evenodd;clip-rule:evenodd;fill:#FFFFFF;" d="M49.16,170.14v-9.85h4.6l-0.13-0.271l-16.09-16.16h-0.16
					c0-0.17-0.01-0.34-0.01-0.51c0-9.22,7.49-16.71,16.72-16.71c9.22,0,16.71,7.49,16.71,16.71c0,0.08,0,0.17,0,0.25l0.06,0.06
					l-0.06,0.06c0,0.05,0,0.09,0,0.14h-0.13l-16.29,16.43h4.63v9.85H49.16z M57.89,167.55c0.36-0.859,0.39-1.95,0.15-3.069
					c-0.02,0.539-0.12,1.05-0.31,1.489c-0.84,2.03-3.21,2.011-5.29-0.05c-1.19-1.18-2.03-2.79-2.36-4.32
					c-0.06,1.931,0.9,4.301,2.52,5.9C54.68,169.55,57.05,169.58,57.89,167.55z M53.92,159.58v-16.64c-0.74-1.3-2.14-2.17-3.74-2.17
					c-1.75,0-3.26,1.05-3.93,2.56L53.92,159.58z M54.37,159.2l7.75-15.94c-0.68-1.47-2.17-2.49-3.9-2.49
					c-1.68,0-3.14,0.97-3.85,2.38V159.2z M54.91,159.11l15.57-15.71c-0.65-1.55-2.18-2.63-3.96-2.63c-1.96,0-3.64,1.26-4.16,3.04
					l-0.02,0.05c0-0.01,0-0.01,0-0.01L54.91,159.11z M53.05,158.78l-7.06-15.05v0.05c-0.55-1.74-2.18-3.01-4.1-3.01
					c-1.84,0-3.4,1.15-4.02,2.77L53.05,158.78z M46.25,143.33l-0.1-0.2l0.17-0.45C46.37,142.55,46.19,143.46,46.25,143.33z
					 M61.8,141.84l0.56,0.94l-0.24,0.48C62.18,143.38,61.75,141.72,61.8,141.84z M61.82,131.37c-5.48-2.94-11.76-2.97-13.99-0.07
					c-0.95,1.23-1.03,2.79-0.38,4.4c0.04-0.78,0.3-1.51,0.79-2.15c2.24-2.9,8.51-2.86,14,0.08c3.16,1.69,5.38,3.99,6.26,6.19
					C68.65,137.06,66.1,133.67,61.82,131.37z"/>
				<rect x="31.62" y="125.89" style="fill-rule:evenodd;clip-rule:evenodd;fill:none;" width="45" height="45"/>
			</g>
			<g>
				<path style="fill-rule:evenodd;clip-rule:evenodd;fill:#FFFFFF;" d="M96.76,165.79v-7.88h3.68l-0.1-0.22L87.46,144.76h-0.13
					c0-0.13,0-0.27,0-0.4c0-7.38,5.99-13.37,13.37-13.37c7.38,0,13.37,5.99,13.37,13.37c0,0.06,0,0.13,0,0.2l0.05,0.05l-0.05,0.05
					c0,0.03,0,0.07,0,0.1h-0.11l-13.02,13.15h3.7v7.88H96.76z M103.74,163.72c0.29-0.689,0.31-1.56,0.12-2.46
					c-0.01,0.44-0.09,0.84-0.24,1.2c-0.68,1.62-2.58,1.6-4.24-0.04c-0.95-0.95-1.62-2.24-1.89-3.46c-0.05,1.54,0.73,3.43,2.02,4.72
					C101.17,165.32,103.07,165.34,103.74,163.72z M100.56,157.34v-13.31c-0.59-1.04-1.7-1.74-2.98-1.74c-1.41,0-2.62,0.85-3.15,2.05
					L100.56,157.34z M100.93,157.04l6.2-12.75c-0.55-1.18-1.74-2-3.12-2c-1.35,0-2.52,0.78-3.08,1.91V157.04z M101.36,156.96
					l12.45-12.56c-0.52-1.24-1.74-2.11-3.16-2.11c-1.57,0-2.92,1.01-3.34,2.44v0.03c0,0,0,0-0.01,0L101.36,156.96z M99.87,156.7
					l-5.65-12.04v0.04c-0.44-1.39-1.74-2.41-3.28-2.41c-1.47,0-2.72,0.92-3.22,2.22L99.87,156.7z M94.43,144.34l-0.08-0.16
					l0.14-0.36C94.52,143.71,94.38,144.45,94.43,144.34z M106.87,143.15l0.44,0.75l-0.18,0.39
					C107.17,144.38,106.83,143.05,106.87,143.15z M106.89,134.78c-4.39-2.36-9.41-2.38-11.2-0.06c-0.76,0.98-0.82,2.23-0.3,3.52
					c0.03-0.63,0.24-1.21,0.63-1.72c1.8-2.32,6.81-2.29,11.2,0.06c2.53,1.36,4.31,3.19,5.01,4.95
					C112.35,139.33,110.31,136.61,106.89,134.78z"/>
				<rect x="82.72" y="130.39" style="fill-rule:evenodd;clip-rule:evenodd;fill:none;" width="36" height="36"/>
			</g>
			<g>
				<path style="fill-rule:evenodd;clip-rule:evenodd;fill:#FFFFFF;" d="M136.53,162.89v-6.569h3.06l-0.08-0.181l-10.73-10.77h-0.11
					c0-0.12,0-0.23,0-0.34c0-6.15,4.99-11.14,11.14-11.14s11.14,4.99,11.14,11.14c0,0.05,0,0.11,0,0.17l0.04,0.04l-0.04,0.04
					c0,0.03,0,0.06,0,0.09h-0.09l-10.85,10.95h3.08v6.569H136.53z M142.35,161.16c0.24-0.57,0.26-1.3,0.09-2.05
					c-0.01,0.37-0.07,0.699-0.2,1c-0.56,1.35-2.14,1.34-3.53-0.03c-0.79-0.79-1.35-1.86-1.57-2.89c-0.04,1.29,0.6,2.869,1.68,3.939
					C140.2,162.5,141.78,162.51,142.35,161.16z M139.7,155.85v-11.09c-0.5-0.87-1.43-1.45-2.49-1.45c-1.17,0-2.18,0.7-2.62,1.71
					L139.7,155.85z M140,155.6l5.17-10.629c-0.46-0.98-1.45-1.66-2.6-1.66c-1.13,0-2.1,0.64-2.57,1.59V155.6z M140.36,155.53
					l10.38-10.47c-0.44-1.03-1.46-1.75-2.64-1.75c-1.3,0-2.43,0.84-2.78,2.03v0.03c0-0.01,0-0.01-0.01-0.01L140.36,155.53z
					 M139.12,155.32l-4.71-10.041v0.03c-0.37-1.16-1.45-2-2.73-2c-1.23,0-2.27,0.76-2.68,1.84L139.12,155.32z M134.59,145.02
					l-0.07-0.14l0.11-0.3C134.66,144.49,134.55,145.1,134.59,145.02z M144.95,144.02l0.37,0.63l-0.15,0.32
					C145.2,145.05,144.92,143.94,144.95,144.02z M144.97,137.04c-3.66-1.96-7.84-1.98-9.33-0.05c-0.64,0.82-0.68,1.86-0.26,2.94
					c0.03-0.52,0.2-1.01,0.53-1.43c1.5-1.94,5.68-1.91,9.34,0.05c2.11,1.13,3.58,2.66,4.17,4.12
					C149.52,140.84,147.82,138.58,144.97,137.04z"/>
				<rect x="124.83" y="133.39" style="fill-rule:evenodd;clip-rule:evenodd;fill:none;" width="30" height="30"/>
			</g>
			<g>
				<path style="fill-rule:evenodd;clip-rule:evenodd;fill:#FFFFFF;" d="M169.71,159.26v-4.92h2.3l-0.06-0.14l-8.05-8.08h-0.08
					c0-0.08,0-0.17,0-0.25c0-4.61,3.739-8.36,8.35-8.36c4.62,0,8.36,3.75,8.36,8.36c0,0.04,0,0.08,0,0.12l0.029,0.04l-0.029,0.02
					c0,0.03,0,0.05,0,0.07h-0.07l-8.14,8.22h2.31v4.92H169.71z M174.08,157.97c0.17-0.43,0.189-0.97,0.07-1.54
					c-0.011,0.28-0.061,0.53-0.15,0.75c-0.43,1.021-1.61,1-2.65-0.029c-0.6-0.591-1.02-1.391-1.18-2.16
					c-0.03,0.97,0.45,2.149,1.26,2.95C172.47,158.97,173.65,158.98,174.08,157.97z M172.09,153.98v-8.32
					c-0.37-0.64-1.07-1.08-1.87-1.08c-0.88,0-1.63,0.53-1.96,1.28L172.09,153.98z M172.32,153.79l3.87-7.97
					c-0.341-0.73-1.091-1.24-1.95-1.24c-0.84,0-1.57,0.48-1.92,1.19V153.79z M172.58,153.75l7.79-7.86
					c-0.33-0.77-1.09-1.31-1.98-1.31c-0.979,0-1.819,0.63-2.08,1.52l-0.01,0.02l0,0L172.58,153.75z M171.65,153.58l-3.53-7.52v0.02
					c-0.271-0.87-1.09-1.5-2.05-1.5c-0.91,0-1.7,0.57-2.011,1.38L171.65,153.58z M168.26,145.86l-0.05-0.1l0.08-0.23
					C168.31,145.47,168.22,145.92,168.26,145.86z M176.03,145.11l0.279,0.47l-0.119,0.24C176.22,145.88,176.01,145.05,176.03,145.11
					z M176.04,139.88c-2.74-1.47-5.88-1.49-7-0.04c-0.47,0.62-0.51,1.4-0.19,2.2c0.021-0.39,0.15-0.75,0.4-1.07
					c1.12-1.45,4.25-1.43,7,0.04c1.58,0.84,2.69,1.99,3.13,3.09C179.45,142.72,178.18,141.03,176.04,139.88z"/>
				<rect x="160.94" y="137.14" style="fill-rule:evenodd;clip-rule:evenodd;fill:none;" width="22.5" height="22.5"/>
			</g>
			<g>
				<path style="fill-rule:evenodd;clip-rule:evenodd;fill:#FFFFFF;" d="M197.15,157.81v-4.26h1.989l-0.05-0.12l-6.979-7.01h-0.07
					c0-0.07,0-0.14,0-0.22c0-3.99,3.25-7.24,7.24-7.24c4,0,7.25,3.25,7.25,7.24c0,0.04,0,0.08,0,0.11l0.02,0.03l-0.03,0.03
					c0,0.02,0,0.03,0,0.05h-0.05l-7.06,7.13h2v4.26H197.15z M200.93,156.69c0.16-0.37,0.17-0.841,0.061-1.33
					c0,0.239-0.05,0.449-0.13,0.649c-0.36,0.88-1.391,0.87-2.29-0.02c-0.521-0.521-0.88-1.21-1.03-1.88
					c-0.021,0.84,0.4,1.859,1.1,2.56C199.54,157.56,200.56,157.57,200.93,156.69z M199.21,153.24v-7.21
					c-0.32-0.57-0.93-0.94-1.62-0.94c-0.76,0-1.42,0.45-1.7,1.11L199.21,153.24z M199.41,153.07l3.35-6.9
					c-0.29-0.64-0.939-1.08-1.689-1.08c-0.73,0-1.36,0.42-1.66,1.03V153.07z M199.64,153.03l6.74-6.8
					c-0.28-0.68-0.939-1.14-1.71-1.14c-0.85,0-1.58,0.54-1.81,1.31v0.02l0,0L199.64,153.03z M198.83,152.89l-3.061-6.52v0.02
					c-0.239-0.76-0.939-1.3-1.779-1.3c-0.79,0-1.471,0.49-1.74,1.19L198.83,152.89z M195.89,146.2l-0.05-0.09l0.08-0.2
					C195.94,145.86,195.86,146.25,195.89,146.2z M202.62,145.55l0.24,0.41l-0.101,0.21C202.79,146.22,202.6,145.5,202.62,145.55z
					 M202.63,141.01c-2.37-1.27-5.09-1.28-6.06-0.03c-0.41,0.53-0.44,1.21-0.17,1.91c0.02-0.34,0.13-0.66,0.35-0.93
					c0.97-1.26,3.69-1.24,6.06,0.03c1.381,0.74,2.341,1.73,2.721,2.68C205.59,143.48,204.49,142.01,202.63,141.01z"/>
				<rect x="189.54" y="138.64" style="fill-rule:evenodd;clip-rule:evenodd;fill:none;" width="19.5" height="19.5"/>
			</g>
			<g>
				<path style="fill-rule:evenodd;clip-rule:evenodd;fill:#FFFFFF;" d="M222.17,157.09v-3.939h1.84l-0.05-0.11l-6.44-6.47h-0.06
					c0-0.06-0.01-0.13-0.01-0.2c0-3.69,3-6.68,6.689-6.68c3.69,0,6.69,2.99,6.69,6.68c0,0.04,0,0.07,0,0.1l0.02,0.03l-0.029,0.02
					c0,0.02,0,0.04,0,0.05h-0.051l-6.51,6.581h1.851v3.939H222.17z M225.66,156.05c0.149-0.34,0.16-0.78,0.06-1.229
					c-0.01,0.22-0.05,0.42-0.12,0.6c-0.34,0.811-1.29,0.8-2.119-0.02c-0.48-0.471-0.811-1.12-0.95-1.73
					c-0.021,0.771,0.37,1.72,1.01,2.36C224.37,156.85,225.32,156.86,225.66,156.05z M224.07,152.86v-6.65
					c-0.29-0.52-0.851-0.87-1.49-0.87c-0.7,0-1.311,0.42-1.57,1.02L224.07,152.86z M224.25,152.71l3.1-6.37
					c-0.27-0.59-0.869-1-1.56-1c-0.67,0-1.25,0.39-1.54,0.95V152.71z M224.47,152.67l6.221-6.28c-0.25-0.62-0.87-1.05-1.58-1.05
					c-0.78,0-1.45,0.5-1.66,1.22l-0.01,0.01l0,0L224.47,152.67z M223.72,152.54l-2.819-6.01v0.01c-0.221-0.69-0.87-1.2-1.641-1.2
					c-0.729,0-1.359,0.46-1.609,1.11L223.72,152.54z M221.01,146.36l-0.04-0.08l0.061-0.18
					C221.05,146.05,220.98,146.42,221.01,146.36z M227.22,145.77l0.23,0.37l-0.101,0.2C227.37,146.38,227.21,145.72,227.22,145.77z
					 M227.23,141.58c-2.19-1.18-4.7-1.19-5.591-0.03c-0.39,0.49-0.409,1.12-0.159,1.76c0.02-0.31,0.119-0.6,0.319-0.86
					c0.9-1.16,3.41-1.14,5.601,0.03c1.27,0.68,2.149,1.6,2.5,2.48C229.96,143.86,228.95,142.5,227.23,141.58z"/>
				<rect x="215.15" y="139.39" style="fill-rule:evenodd;clip-rule:evenodd;fill:none;" width="18" height="18"/>
			</g>
			<g>
				<path style="fill-rule:evenodd;clip-rule:evenodd;fill:#FFFFFF;" d="M245.11,155.64v-3.29h1.529l-0.04-0.09l-5.369-5.38h-0.051
					c0-0.06,0-0.12,0-0.17c0-3.08,2.49-5.57,5.57-5.57c3.07,0,5.57,2.49,5.57,5.57c0,0.03,0,0.05,0,0.08l0.02,0.02l-0.02,0.02
					c0,0.02,0,0.03,0,0.05h-0.051l-5.42,5.47h1.54v3.29H245.11z M248.02,154.77c0.12-0.279,0.131-0.64,0.04-1.02
					c0,0.18-0.029,0.35-0.1,0.5c-0.28,0.68-1.07,0.67-1.76-0.02c-0.4-0.391-0.681-0.931-0.79-1.44c-0.021,0.64,0.3,1.43,0.84,1.97
					C246.94,155.44,247.73,155.45,248.02,154.77z M246.69,152.12v-5.55c-0.24-0.43-0.71-0.72-1.24-0.72
					c-0.59,0-1.09,0.35-1.311,0.85L246.69,152.12z M246.84,151.99l2.59-5.31c-0.229-0.49-0.729-0.83-1.3-0.83
					c-0.56,0-1.05,0.32-1.29,0.79V151.99z M247.02,151.96l5.19-5.24c-0.21-0.51-0.72-0.87-1.32-0.87c-0.649,0-1.21,0.42-1.39,1.01
					v0.02c0-0.01,0-0.01,0-0.01L247.02,151.96z M246.4,151.85l-2.351-5.01v0.01c-0.18-0.58-0.729-1-1.37-1
					c-0.609,0-1.13,0.38-1.34,0.92L246.4,151.85z M244.14,146.7l-0.04-0.07l0.061-0.15C244.18,146.44,244.12,146.74,244.14,146.7z
					 M249.32,146.2l0.18,0.32l-0.07,0.16C249.44,146.72,249.3,146.16,249.32,146.2z M249.33,142.72c-1.83-0.99-3.92-1-4.67-0.03
					c-0.32,0.41-0.34,0.93-0.12,1.47c0.01-0.26,0.1-0.51,0.26-0.72c0.75-0.96,2.84-0.95,4.67,0.03c1.05,0.56,1.79,1.33,2.08,2.06
					C251.6,144.61,250.75,143.48,249.33,142.72z"/>
				<rect x="239.26" y="140.89" style="fill-rule:evenodd;clip-rule:evenodd;fill:none;" width="15" height="15"/>
			</g>
			<g>
				<path style="fill-rule:evenodd;clip-rule:evenodd;fill:#FFFFFF;" d="M265.04,154.19v-2.631h1.229l-0.029-0.069l-4.29-4.31h-0.05
					c0-0.05,0-0.09,0-0.14c0-2.46,2-4.45,4.46-4.45s4.449,1.99,4.449,4.45c0,0.03,0,0.05,0,0.07l0.021,0.02l-0.021,0.01
					c0,0.01,0,0.03,0,0.04h-0.029l-4.34,4.379h1.229v2.631H265.04z M267.37,153.5c0.1-0.23,0.11-0.52,0.04-0.82
					c0,0.141-0.03,0.28-0.08,0.4c-0.23,0.54-0.86,0.53-1.41-0.021c-0.32-0.31-0.54-0.739-0.63-1.149
					c-0.021,0.51,0.24,1.14,0.67,1.57C266.51,154.03,267.15,154.04,267.37,153.5z M266.31,151.37v-4.44
					c-0.199-0.34-0.569-0.58-0.989-0.58c-0.471,0-0.88,0.29-1.051,0.69L266.31,151.37z M266.43,151.27l2.07-4.25
					c-0.18-0.39-0.58-0.67-1.04-0.67c-0.45,0-0.84,0.26-1.03,0.64V151.27z M266.58,151.24l4.15-4.18
					c-0.181-0.42-0.58-0.71-1.061-0.71c-0.52,0-0.97,0.34-1.11,0.82v0.01l0,0L266.58,151.24z M266.08,151.16l-1.88-4.01v0.01
					c-0.15-0.47-0.58-0.81-1.101-0.81c-0.489,0-0.899,0.31-1.069,0.74L266.08,151.16z M264.27,147.04l-0.029-0.06l0.05-0.12
					C264.3,146.83,264.25,147.07,264.27,147.04z M268.41,146.64l0.149,0.25l-0.06,0.13C268.51,147.05,268.4,146.61,268.41,146.64z
					 M268.42,143.85c-1.46-0.79-3.14-0.79-3.729-0.02c-0.261,0.33-0.28,0.74-0.101,1.17c0.01-0.21,0.08-0.4,0.21-0.57
					c0.601-0.77,2.271-0.76,3.73,0.02c0.84,0.45,1.439,1.06,1.67,1.65C270.24,145.37,269.56,144.46,268.42,143.85z"/>
				<rect x="260.36" y="142.39" style="fill-rule:evenodd;clip-rule:evenodd;fill:none;" width="12" height="12"/>
			</g>
		</g>
	</g>
</g>
<g id="Guides">
</g>
</svg>
