<?xml version="1.0" encoding="iso-8859-1"?>
<!-- Generator: Adobe Illustrator 15.0.0, SVG Export Plug-In . SVG Version: 6.00 Build 0)  -->
<!DOCTYPE svg PUBLIC "-//W3C//DTD SVG 1.1//EN" "http://www.w3.org/Graphics/SVG/1.1/DTD/svg11.dtd">
<svg version="1.1" id="&#x421;&#x43B;&#x43E;&#x439;_1"
	 xmlns="http://www.w3.org/2000/svg" xmlns:xlink="http://www.w3.org/1999/xlink" x="0px" y="0px" width="600px" height="600px"
	 viewBox="0 0 600 600" style="enable-background:new 0 0 600 600;" xml:space="preserve">
<g>
	<rect x="457.199" y="-155.39" style="fill-rule:evenodd;clip-rule:evenodd;fill:#000003;" width="300" height="300"/>
	<g>
		<g>
			<g>
				<path style="fill-rule:evenodd;clip-rule:evenodd;fill:#FFFFFF;" d="M499.04,1.74l-0.16-0.32c-0.08,0.01-0.17,0.02-0.25,0.02
					c-0.09,0-0.17-0.01-0.25-0.02l-0.16,0.32l-0.57-0.28l0.15-0.32c-0.12-0.11-0.229-0.24-0.311-0.39l-0.35,0.08L497,0.21l0.35-0.08
					c0-0.17,0.04-0.34,0.11-0.49l-0.28-0.22l0.4-0.5l0.28,0.23c0.129-0.1,0.279-0.18,0.449-0.22v-0.04l-0.01-0.32h0.01h0.32h0.31
					h0.011l-0.011,0.32l0.011,0.04c0.159,0.04,0.31,0.12,0.449,0.22l0.271-0.23l0.399,0.5l-0.279,0.22
					c0.069,0.15,0.109,0.32,0.109,0.49l0.351,0.08l-0.141,0.62l-0.35-0.08c-0.08,0.15-0.18,0.28-0.31,0.39l0.159,0.32L499.04,1.74
					L499.04,1.74z M499.33,0.15L499.33,0.15c0-0.379-0.32-0.7-0.7-0.7c-0.391,0-0.71,0.32-0.71,0.7c0,0.39,0.319,0.71,0.71,0.71
					C499.01,0.86,499.33,0.54,499.33,0.15z"/>
			</g>
			<g>
				<g>
					<path style="fill-rule:evenodd;clip-rule:evenodd;fill:#FFFFFF;" d="M500.91,4.35V-6.4c0-0.35,0.279-0.62,0.62-0.62h5.999
						c0.341,0,0.62,0.27,0.62,0.62V4.35c0,0.35-0.279,0.63-0.62,0.63h-5.999C501.189,4.98,500.91,4.7,500.91,4.35L500.91,4.35z
						 M505.24,3.93L505.24,3.93c0-0.39-0.32-0.71-0.711-0.71c-0.39,0-0.71,0.32-0.71,0.71c0,0.4,0.32,0.71,0.71,0.71
						C504.92,4.64,505.24,4.33,505.24,3.93L505.24,3.93z M507.26,2.78L507.26,2.78v-8.91h-5.46v8.91H507.26z"/>
					<g>
						<defs>
							<rect id="SVGID_1_" x="501.88" y="-6.05" width="5.29" height="5.43"/>
						</defs>
						<clipPath id="SVGID_2_">
							<use xlink:href="#SVGID_1_"  style="overflow:visible;"/>
						</clipPath>
						<g transform="matrix(1 0 0 1 -3.051758e-005 0)" style="clip-path:url(#SVGID_2_);">
							
								<image style="overflow:visible;" width="8" height="8" xlink:href="1261EF1.jpg"  transform="matrix(0.75 0 0 0.75 501.8096 -6.0601)">
							</image>
						</g>
					</g>
				</g>
				<path style="fill-rule:evenodd;clip-rule:evenodd;fill:#FFFFFF;" d="M504.01,3.92c0-0.27,0.22-0.49,0.49-0.49
					c0.18,0,0.34,0.1,0.42,0.24c-0.2-0.09-0.43-0.07-0.57,0.07c-0.16,0.15-0.16,0.42-0.03,0.64
					C504.14,4.311,504.01,4.13,504.01,3.92z"/>
			</g>
			<g>
				<path style="fill-rule:evenodd;clip-rule:evenodd;fill:#FFFFFF;" d="M499.479,4.28l-0.1-0.21c-0.05,0.01-0.101,0.02-0.16,0.02
					c-0.05,0-0.1-0.01-0.15-0.02l-0.109,0.21L498.6,4.1l0.101-0.2c-0.08-0.07-0.141-0.15-0.19-0.25l-0.23,0.05l-0.08-0.4l0.221-0.04
					c0-0.11,0.02-0.22,0.069-0.31l-0.18-0.14l0.25-0.32l0.18,0.14c0.08-0.06,0.181-0.11,0.28-0.13V2.47v-0.2h0.01h0.2h0.19h0.01v0.2
					V2.5c0.1,0.02,0.2,0.07,0.28,0.13l0.18-0.14l0.25,0.32l-0.18,0.14c0.04,0.09,0.069,0.2,0.069,0.31l0.221,0.05l-0.08,0.39
					l-0.23-0.05c-0.05,0.1-0.12,0.18-0.199,0.25l0.1,0.2L499.479,4.28L499.479,4.28z M499.67,3.27L499.67,3.27
					c0-0.24-0.2-0.44-0.45-0.44c-0.24,0-0.44,0.2-0.44,0.44c0,0.25,0.2,0.45,0.44,0.45C499.47,3.72,499.67,3.521,499.67,3.27z"/>
			</g>
		</g>
		<g>
			<g>
				<path style="fill-rule:evenodd;clip-rule:evenodd;fill:#FFFFFF;" d="M514.979,2.44l-0.199-0.41c-0.101,0.02-0.2,0.03-0.311,0.03
					s-0.21-0.01-0.31-0.03l-0.2,0.41l-0.72-0.36l0.199-0.39c-0.16-0.14-0.29-0.3-0.39-0.49l-0.44,0.09l-0.17-0.77l0.431-0.1
					c0.01-0.22,0.06-0.42,0.14-0.61l-0.35-0.28l0.5-0.62l0.35,0.28c0.16-0.13,0.35-0.22,0.56-0.27v-0.05v-0.39h0.011V-1.54
					l0.39,0.01l0.39-0.01v0.021h0.011v0.39v0.05c0.2,0.05,0.39,0.14,0.56,0.27l0.35-0.28l0.5,0.62l-0.35,0.28
					c0.08,0.189,0.13,0.39,0.14,0.61l0.431,0.1l-0.17,0.77l-0.44-0.09c-0.1,0.19-0.229,0.35-0.39,0.49l0.199,0.39L514.979,2.44
					L514.979,2.44z M515.35,0.45L515.35,0.45c0-0.48-0.4-0.88-0.88-0.88c-0.49,0-0.88,0.4-0.88,0.88c0,0.49,0.39,0.88,0.88,0.88
					C514.949,1.33,515.35,0.94,515.35,0.45z"/>
			</g>
			<g>
				<g>
					<path style="fill-rule:evenodd;clip-rule:evenodd;fill:#FFFFFF;" d="M517.319,5.7V-7.75c0-0.43,0.351-0.77,0.78-0.77h7.5
						c0.43,0,0.78,0.34,0.78,0.77V5.7c0,0.43-0.351,0.78-0.78,0.78h-7.5C517.67,6.48,517.319,6.13,517.319,5.7L517.319,5.7z
						 M522.74,5.17L522.74,5.17c0-0.49-0.4-0.88-0.891-0.88s-0.89,0.39-0.89,0.88c0,0.49,0.399,0.89,0.89,0.89
						S522.74,5.66,522.74,5.17L522.74,5.17z M525.26,3.74L525.26,3.74v-11.14h-6.82V3.74H525.26z"/>
					<g>
						<defs>
							<rect id="SVGID_3_" x="518.54" y="-7.31" width="6.61" height="6.79"/>
						</defs>
						<clipPath id="SVGID_4_">
							<use xlink:href="#SVGID_3_"  style="overflow:visible;"/>
						</clipPath>
						<g transform="matrix(1 0 0 1 -3.051758e-005 0)" style="clip-path:url(#SVGID_4_);">
							
								<image style="overflow:visible;" width="10" height="10" xlink:href="1261EF3.jpg"  transform="matrix(0.75 0 0 0.75 518.3096 -7.5601)">
							</image>
						</g>
					</g>
				</g>
				<path style="fill-rule:evenodd;clip-rule:evenodd;fill:#FFFFFF;" d="M521.189,5.16c0-0.34,0.28-0.62,0.62-0.62
					c0.23,0,0.42,0.12,0.53,0.3c-0.26-0.11-0.54-0.09-0.72,0.09c-0.19,0.19-0.2,0.52-0.03,0.81
					C521.359,5.65,521.189,5.42,521.189,5.16z"/>
			</g>
			<g>
				<path style="fill-rule:evenodd;clip-rule:evenodd;fill:#FFFFFF;" d="M515.54,5.601l-0.13-0.25c-0.061,0.01-0.131,0.02-0.19,0.02
					c-0.07,0-0.14-0.01-0.2-0.02l-0.13,0.25l-0.45-0.22l0.13-0.25c-0.109-0.09-0.189-0.19-0.25-0.31l-0.279,0.06l-0.11-0.49
					l0.28-0.06c0-0.14,0.03-0.27,0.08-0.39l-0.221-0.18l0.32-0.39l0.22,0.18c0.101-0.08,0.221-0.14,0.351-0.17V3.35V3.1h0.01V3.09
					h0.25h0.24V3.1h0.01v0.25v0.03c0.13,0.03,0.25,0.09,0.35,0.17l0.221-0.18l0.319,0.4l-0.22,0.17c0.05,0.12,0.08,0.25,0.09,0.39
					l0.271,0.06l-0.11,0.49l-0.28-0.06c-0.06,0.12-0.14,0.22-0.239,0.31l0.119,0.25L515.54,5.601L515.54,5.601z M515.77,4.35
					L515.77,4.35c0-0.31-0.25-0.56-0.55-0.56c-0.31,0-0.56,0.25-0.56,0.56c0,0.3,0.25,0.55,0.56,0.55
					C515.52,4.9,515.77,4.65,515.77,4.35z"/>
			</g>
		</g>
		<g>
			<g>
				<path style="fill-rule:evenodd;clip-rule:evenodd;fill:#FFFFFF;" d="M533.71,3.13l-0.24-0.49c-0.12,0.029-0.24,0.04-0.37,0.04
					s-0.25-0.01-0.37-0.04l-0.25,0.49l-0.85-0.43l0.229-0.47c-0.189-0.16-0.35-0.36-0.46-0.59l-0.54,0.12l-0.199-0.94l0.52-0.11
					c0.01-0.26,0.07-0.51,0.17-0.73l-0.42-0.34l0.6-0.74l0.421,0.33c0.189-0.15,0.42-0.26,0.67-0.32v-0.06l-0.011-0.47h0.021v-0.02
					l0.47,0.01l0.471-0.01v0.02h0.01v0.47v0.06c0.25,0.06,0.47,0.17,0.67,0.32l0.42-0.33l0.6,0.74l-0.42,0.34
					c0.101,0.22,0.16,0.47,0.16,0.73l0.53,0.11l-0.21,0.94l-0.53-0.12c-0.12,0.23-0.271,0.43-0.47,0.59l0.239,0.47L533.71,3.13
					L533.71,3.13z M534.15,0.75L534.15,0.75c0-0.59-0.471-1.06-1.051-1.06s-1.05,0.47-1.05,1.06c0,0.58,0.47,1.05,1.05,1.05
					S534.15,1.33,534.15,0.75z"/>
			</g>
			<g>
				<g>
					<path style="fill-rule:evenodd;clip-rule:evenodd;fill:#FFFFFF;" d="M536.52,7.041V-9.09c0-0.51,0.42-0.93,0.93-0.93h9
						c0.521,0,0.94,0.42,0.94,0.93v16.13c0,0.52-0.42,0.94-0.94,0.94h-9C536.939,7.98,536.52,7.56,536.52,7.041L536.52,7.041z
						 M543.02,6.41L543.02,6.41c0-0.58-0.479-1.06-1.07-1.06c-0.579,0-1.06,0.479-1.06,1.06c0,0.59,0.48,1.07,1.06,1.07
						C542.54,7.48,543.02,7,543.02,6.41L543.02,6.41z M546.04,4.69L546.04,4.69V-8.68h-8.181V4.69H546.04z"/>
					<g>
						<defs>
							<rect id="SVGID_5_" x="537.989" y="-8.57" width="7.931" height="8.16"/>
						</defs>
						<clipPath id="SVGID_6_">
							<use xlink:href="#SVGID_5_"  style="overflow:visible;"/>
						</clipPath>
						<g transform="matrix(1 0 0 1 -3.051758e-005 0)" style="clip-path:url(#SVGID_6_);">
							
								<image style="overflow:visible;" width="11" height="12" xlink:href="1261EF6.jpg"  transform="matrix(0.75 0 0 0.75 537.8096 -9.0601)">
							</image>
						</g>
					</g>
				</g>
				<path style="fill-rule:evenodd;clip-rule:evenodd;fill:#FFFFFF;" d="M541.17,6.4c0-0.41,0.33-0.74,0.74-0.74
					c0.27,0,0.51,0.14,0.64,0.36c-0.32-0.14-0.66-0.11-0.87,0.1c-0.23,0.23-0.24,0.63-0.04,0.97
					C541.359,6.98,541.17,6.71,541.17,6.4z"/>
			</g>
			<g>
				<path style="fill-rule:evenodd;clip-rule:evenodd;fill:#FFFFFF;" d="M534.39,6.93l-0.16-0.31c-0.069,0.02-0.149,0.02-0.24,0.02
					c-0.079,0-0.149,0-0.229-0.02l-0.15,0.31l-0.539-0.27l0.14-0.3c-0.12-0.1-0.221-0.23-0.29-0.37l-0.34,0.07l-0.131-0.59
					l0.331-0.07c0.01-0.17,0.05-0.32,0.109-0.46l-0.27-0.22L533,4.25l0.27,0.21c0.12-0.089,0.271-0.16,0.42-0.2V4.22v-0.3h0.01V3.91
					L534,3.92l0.29-0.01v0.01h0.01v0.3v0.04c0.15,0.04,0.3,0.11,0.42,0.2l0.271-0.21l0.38,0.47L535.1,4.94
					c0.061,0.14,0.101,0.29,0.11,0.46l0.33,0.07l-0.13,0.59l-0.341-0.07c-0.069,0.14-0.17,0.27-0.29,0.37l0.15,0.3L534.39,6.93
					L534.39,6.93z M534.66,5.42L534.66,5.42c0-0.37-0.301-0.67-0.66-0.67c-0.37,0-0.67,0.3-0.67,0.67c0,0.37,0.3,0.669,0.67,0.669
					C534.359,6.09,534.66,5.79,534.66,5.42z"/>
			</g>
		</g>
		<g>
			<g>
				<path style="fill-rule:evenodd;clip-rule:evenodd;fill:#FFFFFF;" d="M554.979,3.48l-0.26-0.53c-0.13,0.02-0.27,0.04-0.41,0.04
					c-0.14,0-0.27-0.02-0.399-0.04l-0.261,0.53l-0.93-0.46l0.26-0.52c-0.21-0.18-0.39-0.39-0.51-0.64l-0.58,0.13l-0.22-1.01
					l0.569-0.129c0.011-0.28,0.07-0.54,0.181-0.79l-0.46-0.37l0.649-0.8l0.45,0.36c0.22-0.16,0.47-0.28,0.73-0.35l0.01-0.06
					l-0.01-0.51h0.01v-0.02l0.52,0.01l0.5-0.01v0.02h0.021l-0.01,0.51v0.06c0.27,0.07,0.52,0.19,0.729,0.35l0.45-0.36l0.65,0.81
					l-0.45,0.36c0.109,0.25,0.17,0.51,0.18,0.79l0.561,0.129l-0.221,1.01l-0.569-0.13c-0.131,0.25-0.301,0.46-0.511,0.64l0.261,0.52
					L554.979,3.48L554.979,3.48z M555.46,0.89L555.46,0.89c0-0.63-0.521-1.14-1.15-1.14s-1.14,0.51-1.14,1.14s0.51,1.15,1.14,1.15
					S555.46,1.52,555.46,0.89z"/>
			</g>
			<g>
				<g>
					<path style="fill-rule:evenodd;clip-rule:evenodd;fill:#FFFFFF;" d="M558.02,7.71V-9.76c0-0.56,0.45-1.01,1.01-1.01h9.751
						c0.56,0,1.01,0.45,1.01,1.01V7.71c0,0.561-0.45,1.021-1.01,1.021h-9.751C558.47,8.73,558.02,8.271,558.02,7.71L558.02,7.71z
						 M565.06,7.03L565.06,7.03c0-0.63-0.52-1.15-1.149-1.15c-0.641,0-1.16,0.52-1.16,1.15c0,0.64,0.52,1.16,1.16,1.16
						C564.54,8.19,565.06,7.67,565.06,7.03L565.06,7.03z M568.34,5.17L568.34,5.17V-9.32h-8.87V5.17H568.34z"/>
					<g>
						<defs>
							<rect id="SVGID_7_" x="559.609" y="-9.2" width="8.591" height="8.84"/>
						</defs>
						<clipPath id="SVGID_8_">
							<use xlink:href="#SVGID_7_"  style="overflow:visible;"/>
						</clipPath>
						<g transform="matrix(1 0 0 1 -3.051758e-005 0)" style="clip-path:url(#SVGID_8_);">
							
								<image style="overflow:visible;" width="12" height="13" xlink:href="1261EF7.jpg"  transform="matrix(0.75 0 0 0.75 559.5596 -9.8101)">
							</image>
						</g>
					</g>
				</g>
				<path style="fill-rule:evenodd;clip-rule:evenodd;fill:#FFFFFF;" d="M563.06,7.02c0-0.45,0.36-0.81,0.8-0.81
					c0.29,0,0.551,0.16,0.69,0.39c-0.34-0.14-0.71-0.11-0.94,0.11c-0.25,0.26-0.26,0.68-0.04,1.06
					C563.27,7.65,563.06,7.36,563.06,7.02z"/>
			</g>
			<g>
				<path style="fill-rule:evenodd;clip-rule:evenodd;fill:#FFFFFF;" d="M555.71,7.59l-0.17-0.33c-0.08,0.01-0.17,0.02-0.26,0.02
					c-0.081,0-0.171-0.01-0.25-0.02l-0.171,0.33l-0.58-0.29l0.16-0.33c-0.13-0.11-0.239-0.24-0.319-0.4l-0.37,0.08l-0.141-0.64
					l0.36-0.07c0.01-0.18,0.05-0.351,0.12-0.51L553.8,5.2l0.41-0.51l0.28,0.23c0.14-0.1,0.3-0.18,0.47-0.22V4.66l-0.011-0.33h0.011
					h0.33h0.319h0.011l-0.011,0.33V4.7c0.17,0.04,0.33,0.12,0.461,0.22l0.289-0.23l0.41,0.51l-0.29,0.23
					c0.07,0.16,0.11,0.33,0.12,0.51l0.351,0.07l-0.141,0.64l-0.36-0.08c-0.079,0.16-0.189,0.29-0.319,0.4l0.16,0.33L555.71,7.59
					L555.71,7.59z M556.01,5.96L556.01,5.96c0-0.4-0.33-0.72-0.72-0.72c-0.4,0-0.73,0.32-0.73,0.72s0.33,0.72,0.73,0.72
					C555.68,6.68,556.01,6.36,556.01,5.96z"/>
			</g>
		</g>
		<g>
			<g>
				<path style="fill-rule:evenodd;clip-rule:evenodd;fill:#FFFFFF;" d="M577.89,4.17l-0.3-0.61c-0.15,0.03-0.311,0.04-0.47,0.04
					c-0.16,0-0.311-0.01-0.46-0.04l-0.301,0.61l-1.08-0.53l0.301-0.6c-0.24-0.2-0.44-0.45-0.58-0.73l-0.67,0.14l-0.25-1.17
					l0.649-0.14c0.01-0.32,0.08-0.63,0.21-0.91L574.41-0.2l0.75-0.93l0.52,0.42c0.25-0.18,0.54-0.32,0.85-0.4v-0.08l-0.01-0.59
					h0.021v-0.01l0.59,0.01l0.58-0.01v0.01h0.02l-0.01,0.6v0.07c0.311,0.08,0.601,0.22,0.851,0.4l0.52-0.41l0.75,0.93l-0.53,0.42
					c0.13,0.28,0.2,0.59,0.21,0.91l0.65,0.15l-0.26,1.16l-0.66-0.14c-0.141,0.28-0.34,0.53-0.58,0.73l0.29,0.6L577.89,4.17
					L577.89,4.17z M578.439,1.19L578.439,1.19c0-0.73-0.59-1.32-1.319-1.32c-0.721,0-1.311,0.59-1.311,1.32
					c0,0.72,0.59,1.32,1.311,1.32C577.85,2.51,578.439,1.91,578.439,1.19z"/>
			</g>
			<g>
				<g>
					<path style="fill-rule:evenodd;clip-rule:evenodd;fill:#FFFFFF;" d="M581.399,9.061v-20.17c0-0.64,0.521-1.161,1.171-1.161
						h11.249c0.641,0,1.171,0.521,1.171,1.161v20.17c0,0.64-0.53,1.169-1.171,1.169H582.57C581.92,10.23,581.399,9.7,581.399,9.061
						L581.399,9.061z M589.52,8.271L589.52,8.271c0-0.73-0.59-1.33-1.33-1.33c-0.729,0-1.33,0.6-1.33,1.33
						c0,0.74,0.601,1.34,1.33,1.34C588.93,9.61,589.52,9.01,589.52,8.271L589.52,8.271z M593.31,6.12L593.31,6.12v-16.71H583.08
						V6.12H593.31z"/>
					<g>
						<defs>
							<rect id="SVGID_9_" x="583.229" y="-10.45" width="9.921" height="10.19"/>
						</defs>
						<clipPath id="SVGID_10_">
							<use xlink:href="#SVGID_9_"  style="overflow:visible;"/>
						</clipPath>
						<g transform="matrix(1 0 0 1 -3.051758e-005 0)" style="clip-path:url(#SVGID_10_);">
							
								<image style="overflow:visible;" width="14" height="14" xlink:href="1261EF2.jpg"  transform="matrix(0.75 0 0 0.75 582.8096 -10.5601)">
							</image>
						</g>
					</g>
				</g>
				<path style="fill-rule:evenodd;clip-rule:evenodd;fill:#FFFFFF;" d="M587.21,8.25c0-0.51,0.42-0.92,0.93-0.92
					c0.34,0,0.63,0.18,0.79,0.45c-0.39-0.17-0.81-0.14-1.07,0.12c-0.3,0.3-0.3,0.79-0.06,1.22C587.46,8.98,587.21,8.65,587.21,8.25z
					"/>
			</g>
			<g>
				<path style="fill-rule:evenodd;clip-rule:evenodd;fill:#FFFFFF;" d="M578.729,8.92l-0.189-0.39c-0.101,0.02-0.2,0.03-0.301,0.03
					c-0.1,0-0.199-0.01-0.29-0.03l-0.189,0.39l-0.68-0.34l0.189-0.38c-0.149-0.12-0.279-0.28-0.37-0.46l-0.42,0.09l-0.16-0.74
					l0.41-0.08c0.011-0.21,0.05-0.41,0.13-0.58l-0.33-0.27L577,5.57l0.33,0.27c0.16-0.12,0.34-0.209,0.54-0.26V5.53l-0.011-0.37
					h0.011V5.15h0.38h0.37v0.01h0.01l-0.01,0.37v0.05c0.199,0.05,0.38,0.14,0.53,0.26l0.339-0.27l0.471,0.59l-0.33,0.27
					c0.08,0.17,0.12,0.37,0.13,0.58l0.41,0.09l-0.16,0.73l-0.42-0.09c-0.09,0.18-0.22,0.34-0.37,0.46l0.19,0.38L578.729,8.92
					L578.729,8.92z M579.08,7.03L579.08,7.03c0-0.46-0.381-0.83-0.83-0.83c-0.47,0-0.84,0.37-0.84,0.83s0.37,0.84,0.84,0.84
					C578.699,7.87,579.08,7.49,579.08,7.03z"/>
			</g>
		</g>
		<g>
			<g>
				<path style="fill-rule:evenodd;clip-rule:evenodd;fill:#FFFFFF;" d="M604.359,5.9l-0.399-0.81c-0.2,0.03-0.41,0.05-0.63,0.05
					c-0.211,0-0.42-0.02-0.62-0.06l-0.4,0.82l-1.43-0.71l0.399-0.8c-0.319-0.27-0.59-0.6-0.79-0.97l-0.88,0.19l-0.34-1.56l0.87-0.19
					c0.01-0.43,0.11-0.84,0.28-1.21l-0.7-0.57l1-1.24l0.69,0.56c0.329-0.25,0.71-0.43,1.13-0.54v-0.1l-0.011-0.79h0.021v-0.02
					l0.79,0.01l0.78-0.01v0.02h0.02l-0.01,0.79v0.1c0.41,0.11,0.79,0.29,1.13,0.54l0.689-0.56l1.001,1.24l-0.7,0.57
					c0.17,0.37,0.27,0.78,0.279,1.21l0.87,0.2l-0.35,1.55l-0.88-0.19c-0.19,0.37-0.46,0.7-0.78,0.97l0.4,0.8L604.359,5.9
					L604.359,5.9z M605.09,1.92L605.09,1.92c0-0.96-0.79-1.75-1.76-1.75c-0.971,0-1.75,0.79-1.75,1.75c0,0.97,0.779,1.76,1.75,1.76
					C604.3,3.68,605.09,2.89,605.09,1.92z"/>
			</g>
			<g>
				<g>
					<path style="fill-rule:evenodd;clip-rule:evenodd;fill:#FFFFFF;" d="M609.03,12.42v-26.89c0-0.86,0.699-1.55,1.56-1.55h15
						c0.86,0,1.56,0.689,1.56,1.55v26.89c0,0.86-0.699,1.56-1.56,1.56h-15C609.729,13.98,609.03,13.28,609.03,12.42L609.03,12.42z
						 M619.87,11.37L619.87,11.37c0-0.98-0.8-1.77-1.78-1.77s-1.771,0.79-1.771,1.77s0.79,1.78,1.771,1.78
						S619.87,12.35,619.87,11.37L619.87,11.37z M624.91,8.5L624.91,8.5v-22.28H611.27V8.5H624.91z"/>
					<g>
						<defs>
							<rect id="SVGID_11_" x="611.479" y="-13.6" width="13.221" height="13.59"/>
						</defs>
						<clipPath id="SVGID_12_">
							<use xlink:href="#SVGID_11_"  style="overflow:visible;"/>
						</clipPath>
						<g transform="matrix(1 0 0 1 -3.051758e-005 0)" style="clip-path:url(#SVGID_12_);">
							
								<image style="overflow:visible;" width="18" height="19" xlink:href="1261EFD.jpg"  transform="matrix(0.75 0 0 0.75 611.3096 -13.5601)">
							</image>
						</g>
					</g>
				</g>
				<path style="fill-rule:evenodd;clip-rule:evenodd;fill:#FFFFFF;" d="M616.779,11.35c0-0.68,0.561-1.24,1.24-1.24
					c0.45,0,0.84,0.24,1.061,0.6c-0.521-0.23-1.09-0.18-1.44,0.169c-0.39,0.39-0.399,1.051-0.07,1.62
					C617.109,12.32,616.779,11.87,616.779,11.35z"/>
			</g>
			<g>
				<path style="fill-rule:evenodd;clip-rule:evenodd;fill:#FFFFFF;" d="M605.479,12.23l-0.26-0.51c-0.13,0.02-0.26,0.04-0.39,0.04
					c-0.141,0-0.271-0.02-0.4-0.04l-0.25,0.51l-0.9-0.45l0.25-0.5c-0.21-0.17-0.369-0.38-0.5-0.62l-0.56,0.13l-0.21-0.99l0.55-0.12
					c0.01-0.27,0.07-0.53,0.17-0.77l-0.439-0.36l0.63-0.78l0.439,0.35c0.21-0.15,0.45-0.27,0.71-0.34V7.72v-0.5h0.011V7.21h0.5h0.49
					v0.01h0.02l-0.01,0.5v0.06c0.26,0.07,0.5,0.19,0.71,0.34l0.439-0.35l0.63,0.791l-0.439,0.35c0.109,0.24,0.17,0.5,0.18,0.77
					l0.55,0.12l-0.22,0.99l-0.56-0.13c-0.12,0.24-0.29,0.45-0.49,0.62l0.25,0.5L605.479,12.23L605.479,12.23z M605.939,9.72
					L605.939,9.72c0-0.61-0.5-1.11-1.109-1.11c-0.62,0-1.11,0.5-1.11,1.11s0.49,1.11,1.11,1.11
					C605.439,10.83,605.939,10.33,605.939,9.72z"/>
			</g>
		</g>
		<g>
			<g>
				<path style="fill-rule:evenodd;clip-rule:evenodd;fill:#FFFFFF;" d="M637.54,7.28l-0.48-0.97c-0.25,0.041-0.5,0.07-0.75,0.07
					c-0.26,0-0.51-0.029-0.75-0.07l-0.479,0.97l-1.721-0.85l0.48-0.95c-0.38-0.33-0.71-0.72-0.94-1.169l-1.06,0.229l-0.41-1.87
					l1.05-0.229c0.01-0.52,0.13-1.01,0.33-1.46l-0.84-0.68l1.2-1.49L634-0.51c0.399-0.3,0.85-0.53,1.35-0.65v-0.12l-0.01-0.95h0.03
					v-0.02l0.939,0.01l0.94-0.01v0.02h0.029l-0.02,0.95l0.01,0.12c0.49,0.12,0.94,0.35,1.34,0.65l0.841-0.67l1.199,1.48l-0.85,0.68
					c0.21,0.45,0.33,0.94,0.34,1.46l1.04,0.229l-0.41,1.87l-1.06-0.229c-0.23,0.45-0.55,0.84-0.931,1.169l0.471,0.95L637.54,7.28
					L637.54,7.28z M638.42,2.51L638.42,2.51c0-1.16-0.95-2.1-2.11-2.1c-1.17,0-2.109,0.94-2.109,2.1c0,1.17,0.939,2.11,2.109,2.11
					C637.47,4.621,638.42,3.68,638.42,2.51z"/>
			</g>
			<g>
				<g>
					<path style="fill-rule:evenodd;clip-rule:evenodd;fill:#FFFFFF;" d="M643.14,15.11v-32.26c0-1.04,0.84-1.87,1.88-1.87h17.99
						c1.04,0,1.87,0.83,1.87,1.87v32.26c0,1.03-0.83,1.87-1.87,1.87h-17.99C643.979,16.98,643.14,16.14,643.14,15.11L643.14,15.11z
						 M656.15,13.851L656.15,13.851c0-1.18-0.961-2.13-2.131-2.13c-1.18,0-2.13,0.95-2.13,2.13c0,1.18,0.95,2.13,2.13,2.13
						C655.189,15.98,656.15,15.03,656.15,13.851L656.15,13.851z M662.2,10.4L662.2,10.4v-26.74h-16.37V10.4H662.2z"/>
					<g>
						<defs>
							<rect id="SVGID_13_" x="646.08" y="-16.11" width="15.87" height="16.31"/>
						</defs>
						<clipPath id="SVGID_14_">
							<use xlink:href="#SVGID_13_"  style="overflow:visible;"/>
						</clipPath>
						<g transform="matrix(1 0 0 1 -3.051758e-005 0)" style="clip-path:url(#SVGID_14_);">
							
								<image style="overflow:visible;" width="22" height="23" xlink:href="1261EFE.jpg"  transform="matrix(0.75 0 0 0.75 645.8096 -16.5601)">
							</image>
						</g>
					</g>
				</g>
				<path style="fill-rule:evenodd;clip-rule:evenodd;fill:#FFFFFF;" d="M652.45,13.82c0-0.82,0.659-1.48,1.479-1.48
					c0.54,0,1.01,0.29,1.27,0.72c-0.629-0.28-1.3-0.22-1.72,0.2c-0.47,0.47-0.479,1.26-0.09,1.94
					C652.84,14.99,652.45,14.45,652.45,13.82z"/>
			</g>
			<g>
				<path style="fill-rule:evenodd;clip-rule:evenodd;fill:#FFFFFF;" d="M638.88,14.88l-0.311-0.61c-0.149,0.03-0.31,0.04-0.47,0.04
					s-0.32-0.01-0.47-0.04l-0.311,0.61l-1.08-0.541l0.301-0.6c-0.25-0.2-0.44-0.45-0.591-0.74l-0.68,0.15l-0.25-1.19l0.66-0.14
					c0.01-0.33,0.08-0.64,0.21-0.92l-0.53-0.43l0.75-0.94l0.53,0.42c0.25-0.19,0.54-0.33,0.85-0.41V9.46v-0.59h0.011l0.01-0.021
					l0.59,0.01l0.59-0.01v0.021h0.021v0.6v0.07c0.31,0.08,0.6,0.22,0.85,0.41l0.53-0.42l0.75,0.94l-0.53,0.43
					c0.13,0.28,0.2,0.59,0.21,0.92l0.66,0.15l-0.26,1.18L640.25,13c-0.141,0.29-0.351,0.54-0.59,0.74l0.3,0.6L638.88,14.88
					L638.88,14.88z M639.43,11.87L639.43,11.87c0-0.74-0.59-1.34-1.33-1.34s-1.33,0.6-1.33,1.34c0,0.73,0.59,1.33,1.33,1.33
					S639.43,12.6,639.43,11.87z"/>
			</g>
		</g>
		<g>
			<g>
				<path style="fill-rule:evenodd;clip-rule:evenodd;fill:#FFFFFF;" d="M676.8,9.36l-0.601-1.22c-0.3,0.06-0.619,0.09-0.939,0.09
					s-0.63-0.03-0.93-0.09l-0.601,1.22L671.58,8.3l0.6-1.2c-0.48-0.4-0.88-0.9-1.17-1.46l-1.33,0.29l-0.51-2.34l1.31-0.28
					c0.011-0.65,0.16-1.27,0.41-1.83l-1.05-0.85l1.5-1.86l1.04,0.84c0.5-0.37,1.069-0.65,1.689-0.81v-0.15l-0.02-1.18h0.04v-0.03
					l1.18,0.02l1.17-0.02v0.03h0.03l-0.01,1.19v0.14c0.62,0.16,1.189,0.44,1.69,0.81l1.039-0.83l1.5,1.86l-1.06,0.84
					c0.26,0.56,0.41,1.18,0.42,1.83l1.31,0.29l-0.52,2.33l-1.32-0.29c-0.29,0.56-0.689,1.06-1.17,1.46l0.59,1.2L676.8,9.36
					L676.8,9.36z M677.899,3.4L677.899,3.4c0-1.45-1.18-2.64-2.64-2.64c-1.45,0-2.63,1.19-2.63,2.64s1.18,2.64,2.63,2.64
					C676.72,6.041,677.899,4.851,677.899,3.4z"/>
			</g>
			<g>
				<g>
					<path style="fill-rule:evenodd;clip-rule:evenodd;fill:#FFFFFF;" d="M683.81,19.14v-40.33c0-1.29,1.05-2.33,2.34-2.33h22.5
						c1.29,0,2.33,1.04,2.33,2.33v40.33c0,1.29-1.04,2.34-2.33,2.34h-22.5C684.859,21.48,683.81,20.43,683.81,19.14L683.81,19.14z
						 M700.06,17.57L700.06,17.57c0-1.47-1.189-2.66-2.66-2.66c-1.47,0-2.66,1.19-2.66,2.66c0,1.47,1.19,2.66,2.66,2.66
						C698.87,20.23,700.06,19.04,700.06,17.57L700.06,17.57z M707.62,13.26L707.62,13.26v-33.42h-20.45v33.42H707.62z"/>
					<g>
						<defs>
							<rect id="SVGID_15_" x="687.479" y="-19.88" width="19.83" height="20.38"/>
						</defs>
						<clipPath id="SVGID_16_">
							<use xlink:href="#SVGID_15_"  style="overflow:visible;"/>
						</clipPath>
						<g transform="matrix(1 0 0 1 -3.051758e-005 0)" style="clip-path:url(#SVGID_16_);">
							
								<image style="overflow:visible;" width="27" height="28" xlink:href="1261EFF.jpg"  transform="matrix(0.75 0 0 0.75 687.0596 -20.3101)">
							</image>
						</g>
					</g>
				</g>
				<path style="fill-rule:evenodd;clip-rule:evenodd;fill:#FFFFFF;" d="M695.439,17.53c0-1.02,0.83-1.85,1.851-1.85
					c0.67,0,1.27,0.36,1.59,0.9c-0.78-0.34-1.63-0.28-2.15,0.25c-0.59,0.59-0.609,1.57-0.109,2.43
					C695.93,18.99,695.439,18.32,695.439,17.53z"/>
			</g>
			<g>
				<path style="fill-rule:evenodd;clip-rule:evenodd;fill:#FFFFFF;" d="M678.479,18.86l-0.39-0.77c-0.19,0.03-0.391,0.05-0.59,0.05
					c-0.2,0-0.4-0.02-0.59-0.05l-0.38,0.77l-1.351-0.68l0.37-0.75c-0.3-0.26-0.55-0.57-0.74-0.93l-0.84,0.19l-0.319-1.48l0.829-0.18
					c0.011-0.41,0.101-0.8,0.261-1.15l-0.66-0.54l0.939-1.18l0.66,0.54c0.32-0.24,0.68-0.42,1.07-0.52v-0.09l-0.011-0.75h0.021
					v-0.02l0.75,0.01l0.74-0.01v0.02h0.02l-0.01,0.75v0.09c0.391,0.1,0.75,0.279,1.06,0.52l0.671-0.54l0.939,1.18l-0.66,0.54
					c0.16,0.35,0.25,0.74,0.26,1.15l0.83,0.18l-0.329,1.48l-0.83-0.19c-0.19,0.36-0.44,0.67-0.75,0.93l0.38,0.75L678.479,18.86
					L678.479,18.86z M679.17,15.09L679.17,15.09c0-0.919-0.75-1.669-1.66-1.669c-0.93,0-1.67,0.75-1.67,1.669
					c0,0.92,0.74,1.66,1.67,1.66C678.42,16.75,679.17,16.01,679.17,15.09z"/>
			</g>
		</g>
	</g>
</g>
</svg>
