<?xml version="1.0" encoding="iso-8859-1"?>
<!-- Generator: Adobe Illustrator 15.0.0, SVG Export Plug-In . SVG Version: 6.00 Build 0)  -->
<!DOCTYPE svg PUBLIC "-//W3C//DTD SVG 1.1//EN" "http://www.w3.org/Graphics/SVG/1.1/DTD/svg11.dtd">
<svg version="1.1" xmlns="http://www.w3.org/2000/svg" xmlns:xlink="http://www.w3.org/1999/xlink" x="0px" y="0px" width="300px"
	 height="300px" viewBox="0 0 300 300" style="enable-background:new 0 0 300 300;" xml:space="preserve">
<g id="Layer_1">
	<g>
		<rect x="1.31" y="-0.31" style="fill-rule:evenodd;clip-rule:evenodd;fill:#666666;" width="300" height="300"/>
		<g>
			<g>
				<path style="fill-rule:evenodd;clip-rule:evenodd;fill:#FFFFFF;" d="M14.84,174.58L14.84,174.58
					c-3.06-3.061-3.05-8.021,0.01-11.08l8.35-8.35l11.06,11.06l-8.35,8.36C22.85,177.62,17.89,177.63,14.84,174.58z M42.69,174.57
					l-8.35-8.36l11.06-11.06l8.35,8.35c3.06,3.06,3.07,8.02,0.01,11.08l0,0C50.71,177.63,45.75,177.62,42.69,174.57z M34.3,163.48
					l-8.37-8.37l8.37-8.37l8.37,8.37L34.3,163.48z M35.25,161.46c0.52-0.52,0.52-1.36,0-1.89c-0.53-0.521-1.37-0.521-1.89,0
					c-0.52,0.529-0.52,1.37,0,1.89C33.88,161.98,34.72,161.98,35.25,161.46z M32.55,158.76c0.52-0.52,0.52-1.37,0-1.89
					c-0.53-0.521-1.37-0.521-1.9,0c-0.52,0.52-0.52,1.37,0,1.89C31.18,159.28,32.02,159.28,32.55,158.76z M37.95,158.76
					c0.52-0.52,0.52-1.37,0-1.89c-0.52-0.521-1.37-0.521-1.89,0c-0.52,0.52-0.52,1.37,0,1.89
					C36.58,159.28,37.43,159.28,37.95,158.76z M29.84,156.06c0.52-0.52,0.52-1.369,0-1.89c-0.52-0.52-1.37-0.52-1.89,0
					c-0.52,0.521-0.52,1.37,0,1.89C28.47,156.58,29.32,156.58,29.84,156.06z M35.25,156.06c0.52-0.52,0.52-1.369,0-1.89
					c-0.53-0.52-1.37-0.52-1.89,0c-0.52,0.521-0.52,1.37,0,1.89C33.88,156.58,34.72,156.58,35.25,156.06z M40.65,156.06
					c0.52-0.52,0.52-1.369,0-1.89c-0.52-0.52-1.37-0.52-1.89,0c-0.52,0.521-0.52,1.37,0,1.89
					C39.28,156.58,40.13,156.58,40.65,156.06z M23.2,155.08l-8.35-8.35c-3.06-3.07-3.07-8.03-0.01-11.08l0,0
					c3.05-3.05,8.01-3.05,11.07,0.01l8.35,8.36L23.2,155.08z M45.4,155.08l-11.06-11.07l8.35-8.35c3.06-3.06,8.02-3.06,11.07-0.01
					l0,0c3.06,3.05,3.05,8.01-0.01,11.08L45.4,155.08z M32.55,153.36c0.52-0.53,0.52-1.37,0-1.891c-0.53-0.53-1.37-0.53-1.9,0
					c-0.52,0.521-0.52,1.36,0,1.891C31.18,153.88,32.02,153.88,32.55,153.36z M37.95,153.36c0.52-0.53,0.52-1.37,0-1.891
					c-0.52-0.53-1.37-0.53-1.89,0c-0.52,0.521-0.52,1.36,0,1.891C36.58,153.88,37.43,153.88,37.95,153.36z M35.25,150.65
					c0.52-0.52,0.52-1.36,0-1.89c-0.53-0.52-1.37-0.52-1.89,0c-0.52,0.53-0.52,1.37,0,1.89S34.72,151.17,35.25,150.65z"/>
				<rect x="11.8" y="132.61" style="fill-rule:evenodd;clip-rule:evenodd;fill:none;" width="45" height="45"/>
			</g>
			<g>
				<path style="fill-rule:evenodd;clip-rule:evenodd;fill:#FFFFFF;" d="M70.37,170.68L70.37,170.68
					c-2.44-2.439-2.44-6.41,0.01-8.85l6.68-6.69l8.85,8.851l-6.68,6.689C76.78,173.12,72.81,173.13,70.37,170.68z M92.65,170.68
					l-6.68-6.689l8.85-8.851l6.68,6.69c2.45,2.439,2.46,6.41,0.01,8.85l0,0C99.07,173.13,95.1,173.12,92.65,170.68z M85.94,161.81
					l-6.69-6.699l6.69-6.69l6.7,6.69L85.94,161.81z M86.7,160.19c0.42-0.41,0.42-1.091,0-1.511c-0.42-0.41-1.09-0.41-1.51,0
					c-0.42,0.42-0.42,1.101,0,1.511C85.61,160.61,86.28,160.61,86.7,160.19z M84.54,158.03c0.42-0.42,0.42-1.09,0-1.511
					c-0.42-0.42-1.1-0.42-1.52,0c-0.41,0.421-0.41,1.091,0,1.511C83.44,158.45,84.12,158.45,84.54,158.03z M88.86,158.03
					c0.42-0.42,0.42-1.09,0-1.511c-0.42-0.42-1.09-0.42-1.51,0c-0.42,0.421-0.42,1.091,0,1.511S88.44,158.45,88.86,158.03z
					 M82.38,155.87c0.41-0.42,0.41-1.101,0-1.51c-0.42-0.42-1.1-0.42-1.52,0c-0.41,0.409-0.41,1.09,0,1.51
					C81.28,156.29,81.96,156.29,82.38,155.87z M86.7,155.87c0.42-0.42,0.42-1.101,0-1.51c-0.42-0.42-1.09-0.42-1.51,0
					c-0.42,0.409-0.42,1.09,0,1.51S86.28,156.29,86.7,155.87z M91.02,155.87c0.42-0.42,0.42-1.101,0-1.51
					c-0.41-0.42-1.09-0.42-1.51,0c-0.42,0.409-0.42,1.09,0,1.51C89.93,156.29,90.61,156.29,91.02,155.87z M77.06,155.09l-6.68-6.69
					c-2.45-2.45-2.45-6.41-0.01-8.86l0,0c2.44-2.44,6.41-2.44,8.86,0.01l6.68,6.69L77.06,155.09z M94.82,155.08l-8.85-8.85
					l6.69-6.68c2.44-2.45,6.41-2.45,8.85-0.01l0,0c2.45,2.45,2.44,6.41-0.01,8.86L94.82,155.08z M84.54,153.71
					c0.42-0.42,0.42-1.1,0-1.51c-0.42-0.42-1.1-0.42-1.52,0c-0.41,0.41-0.41,1.09,0,1.51C83.44,154.13,84.12,154.13,84.54,153.71z
					 M88.86,153.71c0.42-0.42,0.42-1.1,0-1.51c-0.42-0.42-1.09-0.42-1.51,0c-0.42,0.41-0.42,1.09,0,1.51S88.44,154.13,88.86,153.71z
					 M86.7,151.55c0.42-0.42,0.42-1.1,0-1.52c-0.42-0.41-1.09-0.41-1.51,0c-0.42,0.42-0.42,1.1,0,1.52
					C85.61,151.96,86.28,151.96,86.7,151.55z"/>
				<rect x="67.94" y="137.11" style="fill-rule:evenodd;clip-rule:evenodd;fill:none;" width="36" height="36"/>
			</g>
			<g>
				<path style="fill-rule:evenodd;clip-rule:evenodd;fill:#FFFFFF;" d="M117.11,168.09L117.11,168.09
					c-2.04-2.04-2.03-5.34,0.01-7.38l5.56-5.57l7.38,7.37l-5.57,5.57C122.45,170.12,119.14,170.12,117.11,168.09z M135.68,168.08
					l-5.57-5.57l7.37-7.37l5.57,5.57c2.04,2.04,2.05,5.34,0.01,7.38l0,0C141.02,170.12,137.72,170.12,135.68,168.08z M130.08,160.69
					l-5.58-5.58l5.58-5.581l5.58,5.581L130.08,160.69z M130.72,159.35c0.34-0.35,0.34-0.909,0-1.26c-0.35-0.35-0.92-0.35-1.26,0
					c-0.35,0.351-0.35,0.91,0,1.26C129.8,159.69,130.37,159.69,130.72,159.35z M128.91,157.55c0.35-0.35,0.35-0.92,0-1.26
					c-0.34-0.35-0.91-0.35-1.26,0c-0.34,0.34-0.34,0.91,0,1.26C128,157.89,128.57,157.89,128.91,157.55z M132.52,157.55
					c0.35-0.35,0.35-0.92,0-1.26c-0.35-0.35-0.92-0.35-1.26,0c-0.35,0.34-0.35,0.91,0,1.26
					C131.6,157.89,132.17,157.89,132.52,157.55z M127.11,155.74c0.35-0.34,0.35-0.91,0-1.26c-0.35-0.341-0.91-0.341-1.26,0
					c-0.35,0.35-0.35,0.92,0,1.26C126.2,156.09,126.76,156.09,127.11,155.74z M130.72,155.74c0.34-0.34,0.34-0.91,0-1.26
					c-0.35-0.341-0.92-0.341-1.26,0c-0.35,0.35-0.35,0.92,0,1.26C129.8,156.09,130.37,156.09,130.72,155.74z M134.32,155.74
					c0.35-0.34,0.35-0.91,0-1.26c-0.35-0.341-0.91-0.341-1.26,0c-0.35,0.35-0.35,0.92,0,1.26
					C133.41,156.09,133.97,156.09,134.32,155.74z M122.68,155.09l-5.56-5.57c-2.04-2.04-2.05-5.35-0.01-7.38l0,0
					c2.03-2.04,5.34-2.03,7.38,0.01l5.57,5.57L122.68,155.09z M137.49,155.09l-7.38-7.38l5.57-5.56c2.04-2.04,5.34-2.05,7.38-0.01
					l0,0c2.04,2.03,2.03,5.34-0.01,7.38L137.49,155.09z M128.91,153.94c0.35-0.351,0.35-0.91,0-1.261c-0.34-0.35-0.91-0.35-1.26,0
					c-0.34,0.351-0.34,0.91,0,1.261C128,154.29,128.57,154.29,128.91,153.94z M132.52,153.94c0.35-0.351,0.35-0.91,0-1.261
					c-0.35-0.35-0.92-0.35-1.26,0c-0.35,0.351-0.35,0.91,0,1.261C131.6,154.29,132.17,154.29,132.52,153.94z M130.72,152.14
					c0.34-0.35,0.34-0.909,0-1.26c-0.35-0.35-0.92-0.35-1.26,0c-0.35,0.351-0.35,0.91,0,1.26
					C129.8,152.49,130.37,152.49,130.72,152.14z"/>
				<rect x="115.09" y="140.11" style="fill-rule:evenodd;clip-rule:evenodd;fill:none;" width="30" height="30"/>
			</g>
			<g>
				<path style="fill-rule:evenodd;clip-rule:evenodd;fill:#FFFFFF;" d="M157.75,164.84L157.75,164.84c-1.53-1.52-1.53-4,0-5.53
					l4.18-4.18l5.53,5.53l-4.18,4.18C161.75,166.37,159.27,166.37,157.75,164.84z M171.67,164.84l-4.17-4.18l5.53-5.53l4.17,4.18
					c1.53,1.53,1.54,4.011,0.01,5.53l0,0C175.68,166.37,173.2,166.37,171.67,164.84z M167.48,159.3l-4.19-4.189l4.19-4.18l4.18,4.18
					L167.48,159.3z M167.95,158.29c0.26-0.26,0.26-0.68,0-0.95c-0.26-0.26-0.681-0.26-0.94,0c-0.27,0.271-0.27,0.69,0,0.95
					C167.27,158.55,167.69,158.55,167.95,158.29z M166.6,156.94c0.261-0.261,0.261-0.69,0-0.95c-0.26-0.26-0.68-0.26-0.949,0
					c-0.261,0.26-0.261,0.689,0,0.95C165.92,157.2,166.34,157.2,166.6,156.94z M169.3,156.94c0.26-0.261,0.26-0.69,0-0.95
					s-0.68-0.26-0.939,0c-0.261,0.26-0.261,0.689,0,0.95C168.62,157.2,169.04,157.2,169.3,156.94z M165.25,155.59
					c0.26-0.26,0.26-0.689,0-0.95c-0.26-0.26-0.69-0.26-0.95,0c-0.26,0.261-0.26,0.69,0,0.95S164.99,155.85,165.25,155.59z
					 M167.95,155.59c0.26-0.26,0.26-0.689,0-0.95c-0.26-0.26-0.681-0.26-0.94,0c-0.27,0.261-0.27,0.69,0,0.95
					C167.27,155.85,167.69,155.85,167.95,155.59z M170.65,155.59c0.26-0.26,0.26-0.689,0-0.95c-0.261-0.26-0.681-0.26-0.94,0
					c-0.26,0.261-0.26,0.69,0,0.95S170.39,155.85,170.65,155.59z M161.93,155.1l-4.18-4.18c-1.53-1.53-1.53-4.01,0-5.54l0,0
					c1.52-1.52,4-1.52,5.53,0.01l4.18,4.18L161.93,155.1z M173.03,155.1l-5.53-5.54l4.17-4.17c1.53-1.53,4.01-1.53,5.54-0.01l0,0
					c1.53,1.53,1.521,4.01-0.01,5.54L173.03,155.1z M166.6,154.23c0.261-0.261,0.261-0.681,0-0.94c-0.26-0.26-0.68-0.26-0.949,0
					c-0.261,0.26-0.261,0.68,0,0.94C165.92,154.5,166.34,154.5,166.6,154.23z M169.3,154.23c0.26-0.261,0.26-0.681,0-0.94
					s-0.68-0.26-0.939,0c-0.261,0.26-0.261,0.68,0,0.94C168.62,154.5,169.04,154.5,169.3,154.23z M167.95,152.88
					c0.26-0.26,0.26-0.68,0-0.939c-0.26-0.261-0.681-0.261-0.94,0c-0.27,0.26-0.27,0.68,0,0.939
					C167.27,153.14,167.69,153.14,167.95,152.88z"/>
				<rect x="156.23" y="143.86" style="fill-rule:evenodd;clip-rule:evenodd;fill:none;" width="22.5" height="22.5"/>
			</g>
			<g>
				<path style="fill-rule:evenodd;clip-rule:evenodd;fill:#FFFFFF;" d="M191.19,163.55L191.19,163.55c-1.33-1.33-1.33-3.479,0-4.8
					l3.619-3.62l4.79,4.79l-3.619,3.62C194.66,164.87,192.51,164.87,191.19,163.55z M203.25,163.54l-3.61-3.62l4.79-4.79l3.62,3.62
					c1.32,1.32,1.33,3.47,0,4.8l0,0C206.73,164.87,204.58,164.87,203.25,163.54z M199.62,158.74l-3.63-3.63l3.63-3.62l3.63,3.62
					L199.62,158.74z M200.03,157.87c0.229-0.23,0.229-0.601,0-0.82c-0.23-0.229-0.59-0.229-0.82,0c-0.229,0.22-0.229,0.59,0,0.82
					C199.44,158.09,199.8,158.09,200.03,157.87z M198.86,156.69c0.22-0.221,0.22-0.591,0-0.82c-0.23-0.22-0.591-0.22-0.82,0
					c-0.23,0.229-0.23,0.6,0,0.82C198.27,156.92,198.63,156.92,198.86,156.69z M201.2,156.69c0.229-0.221,0.229-0.591,0-0.82
					c-0.23-0.22-0.59-0.22-0.82,0c-0.22,0.229-0.22,0.6,0,0.82C200.61,156.92,200.97,156.92,201.2,156.69z M197.69,155.52
					c0.22-0.22,0.22-0.59,0-0.819c-0.23-0.22-0.601-0.22-0.82,0c-0.23,0.229-0.23,0.6,0,0.819
					C197.09,155.75,197.46,155.75,197.69,155.52z M200.03,155.52c0.229-0.22,0.229-0.59,0-0.819c-0.23-0.22-0.59-0.22-0.82,0
					c-0.229,0.229-0.229,0.6,0,0.819C199.44,155.75,199.8,155.75,200.03,155.52z M202.37,155.52c0.229-0.22,0.229-0.59,0-0.819
					c-0.22-0.22-0.59-0.22-0.82,0c-0.22,0.229-0.22,0.6,0,0.819C201.78,155.75,202.15,155.75,202.37,155.52z M194.81,155.1
					l-3.619-3.619c-1.33-1.331-1.33-3.48,0-4.8l0,0c1.319-1.32,3.47-1.32,4.79,0l3.619,3.63L194.81,155.1z M204.43,155.1l-4.79-4.8
					l3.62-3.62c1.32-1.32,3.471-1.32,4.79,0l0,0c1.33,1.32,1.32,3.47,0,4.8L204.43,155.1z M198.86,154.35
					c0.22-0.22,0.22-0.59,0-0.819c-0.23-0.221-0.591-0.221-0.82,0c-0.23,0.229-0.23,0.6,0,0.819
					C198.27,154.58,198.63,154.58,198.86,154.35z M201.2,154.35c0.229-0.22,0.229-0.59,0-0.819c-0.23-0.221-0.59-0.221-0.82,0
					c-0.22,0.229-0.22,0.6,0,0.819C200.61,154.58,200.97,154.58,201.2,154.35z M200.03,153.18c0.229-0.229,0.229-0.59,0-0.819
					c-0.23-0.221-0.59-0.221-0.82,0c-0.229,0.229-0.229,0.59,0,0.819C199.44,153.41,199.8,153.41,200.03,153.18z"/>
				<rect x="189.87" y="145.36" style="fill-rule:evenodd;clip-rule:evenodd;fill:none;" width="19.5" height="19.5"/>
			</g>
			<g>
				<path style="fill-rule:evenodd;clip-rule:evenodd;fill:#FFFFFF;" d="M221.73,162.9L221.73,162.9c-1.23-1.221-1.221-3.21,0-4.431
					l3.34-3.34l4.43,4.42l-3.34,3.34C224.93,164.12,222.95,164.12,221.73,162.9z M232.87,162.89l-3.34-3.34l4.42-4.42l3.34,3.34
					c1.229,1.221,1.229,3.21,0.01,4.431l0,0C236.08,164.12,234.09,164.12,232.87,162.89z M229.51,158.46l-3.35-3.35l3.35-3.351
					l3.351,3.351L229.51,158.46z M229.89,157.65c0.21-0.21,0.21-0.54,0-0.75s-0.55-0.21-0.76,0c-0.2,0.21-0.2,0.54,0,0.75
					C229.34,157.86,229.68,157.86,229.89,157.65z M228.81,156.57c0.21-0.21,0.21-0.551,0-0.75c-0.21-0.21-0.55-0.21-0.76,0
					c-0.21,0.199-0.21,0.54,0,0.75S228.6,156.78,228.81,156.57z M230.97,156.57c0.21-0.21,0.21-0.551,0-0.75
					c-0.21-0.21-0.55-0.21-0.76,0c-0.2,0.199-0.2,0.54,0,0.75C230.42,156.78,230.76,156.78,230.97,156.57z M227.73,155.49
					c0.21-0.21,0.21-0.55,0-0.76c-0.211-0.2-0.551-0.2-0.761,0c-0.21,0.21-0.21,0.55,0,0.76S227.52,155.7,227.73,155.49z
					 M229.89,155.49c0.21-0.21,0.21-0.55,0-0.76c-0.21-0.2-0.55-0.2-0.76,0c-0.2,0.21-0.2,0.55,0,0.76
					C229.34,155.7,229.68,155.7,229.89,155.49z M232.05,155.49c0.21-0.21,0.21-0.55,0-0.76c-0.21-0.2-0.55-0.2-0.75,0
					c-0.21,0.21-0.21,0.55,0,0.76C231.5,155.7,231.84,155.7,232.05,155.49z M225.07,155.1l-3.34-3.34c-1.221-1.23-1.23-3.21,0-4.43
					l0,0c1.22-1.22,3.199-1.22,4.43,0l3.34,3.34L225.07,155.1z M233.95,155.1l-4.42-4.43l3.34-3.34c1.22-1.22,3.21-1.22,4.43,0l0,0
					c1.22,1.22,1.22,3.2-0.01,4.43L233.95,155.1z M228.81,154.41c0.21-0.21,0.21-0.55,0-0.76c-0.21-0.2-0.55-0.2-0.76,0
					c-0.21,0.21-0.21,0.55,0,0.76S228.6,154.62,228.81,154.41z M230.97,154.41c0.21-0.21,0.21-0.55,0-0.76
					c-0.21-0.2-0.55-0.2-0.76,0c-0.2,0.21-0.2,0.55,0,0.76C230.42,154.62,230.76,154.62,230.97,154.41z M229.89,153.33
					c0.21-0.21,0.21-0.55,0-0.76s-0.55-0.21-0.76,0c-0.2,0.21-0.2,0.55,0,0.76C229.34,153.54,229.68,153.54,229.89,153.33z"/>
				<rect x="220.51" y="146.11" style="fill-rule:evenodd;clip-rule:evenodd;fill:none;" width="18" height="18"/>
			</g>
			<g>
				<path style="fill-rule:evenodd;clip-rule:evenodd;fill:#FFFFFF;" d="M250.67,161.6L250.67,161.6c-1.02-1.02-1.02-2.67,0-3.689
					l2.78-2.78l3.689,3.68l-2.779,2.79C253.34,162.62,251.68,162.62,250.67,161.6z M259.95,161.6l-2.79-2.79l3.689-3.68l2.79,2.78
					c1.021,1.02,1.021,2.67,0,3.689l0,0C262.62,162.62,260.97,162.62,259.95,161.6z M257.15,157.9l-2.79-2.79l2.79-2.79l2.79,2.79
					L257.15,157.9z M257.47,157.23c0.17-0.171,0.17-0.461,0-0.631c-0.18-0.17-0.46-0.17-0.63,0c-0.18,0.17-0.18,0.46,0,0.631
					C257.01,157.4,257.29,157.4,257.47,157.23z M256.57,156.33c0.17-0.17,0.17-0.46,0-0.63c-0.181-0.17-0.46-0.17-0.63,0
					c-0.181,0.17-0.181,0.46,0,0.63C256.11,156.5,256.39,156.5,256.57,156.33z M258.37,156.33c0.17-0.17,0.17-0.46,0-0.63
					s-0.46-0.17-0.63,0s-0.17,0.46,0,0.63S258.2,156.5,258.37,156.33z M255.67,155.43c0.17-0.18,0.17-0.46,0-0.63
					c-0.18-0.18-0.46-0.18-0.63,0c-0.18,0.17-0.18,0.45,0,0.63C255.21,155.6,255.49,155.6,255.67,155.43z M257.47,155.43
					c0.17-0.18,0.17-0.46,0-0.63c-0.18-0.18-0.46-0.18-0.63,0c-0.18,0.17-0.18,0.45,0,0.63C257.01,155.6,257.29,155.6,257.47,155.43
					z M259.27,155.43c0.171-0.18,0.171-0.46,0-0.63c-0.17-0.18-0.46-0.18-0.63,0c-0.17,0.17-0.17,0.45,0,0.63
					C258.81,155.6,259.1,155.6,259.27,155.43z M253.45,155.1l-2.78-2.779c-1.02-1.021-1.02-2.68,0-3.69l0,0
					c1.01-1.02,2.67-1.02,3.69,0l2.779,2.78L253.45,155.1z M260.85,155.1l-3.689-3.689l2.79-2.78c1.02-1.02,2.67-1.02,3.689,0l0,0
					c1.021,1.01,1.021,2.67,0,3.69L260.85,155.1z M256.57,154.53c0.17-0.181,0.17-0.46,0-0.63c-0.181-0.181-0.46-0.181-0.63,0
					c-0.181,0.17-0.181,0.449,0,0.63C256.11,154.7,256.39,154.7,256.57,154.53z M258.37,154.53c0.17-0.181,0.17-0.46,0-0.63
					c-0.17-0.181-0.46-0.181-0.63,0c-0.17,0.17-0.17,0.449,0,0.63C257.91,154.7,258.2,154.7,258.37,154.53z M257.47,153.63
					c0.17-0.18,0.17-0.46,0-0.63c-0.18-0.18-0.46-0.18-0.63,0c-0.18,0.17-0.18,0.45,0,0.63C257.01,153.8,257.29,153.8,257.47,153.63
					z"/>
				<rect x="249.65" y="147.61" style="fill-rule:evenodd;clip-rule:evenodd;fill:none;" width="15" height="15"/>
			</g>
			<g>
				<path style="fill-rule:evenodd;clip-rule:evenodd;fill:#FFFFFF;" d="M276.61,160.3L276.61,160.3c-0.82-0.81-0.82-2.13,0-2.95
					l2.229-2.229l2.95,2.95l-2.23,2.229C278.74,161.12,277.42,161.12,276.61,160.3z M284.03,160.3l-2.221-2.229l2.95-2.95
					l2.221,2.229c0.819,0.82,0.819,2.141,0.01,2.95l0,0C286.17,161.12,284.85,161.12,284.03,160.3z M281.8,157.35l-2.24-2.239
					l2.24-2.23l2.23,2.23L281.8,157.35z M282.05,156.81c0.141-0.14,0.141-0.369,0-0.51c-0.14-0.14-0.37-0.14-0.51,0
					c-0.14,0.141-0.14,0.37,0,0.51C281.68,156.95,281.91,156.95,282.05,156.81z M281.33,156.09c0.14-0.14,0.14-0.37,0-0.51
					s-0.37-0.14-0.51,0c-0.141,0.14-0.141,0.37,0,0.51C280.96,156.23,281.19,156.23,281.33,156.09z M282.77,156.09
					c0.141-0.14,0.141-0.37,0-0.51c-0.14-0.14-0.369-0.14-0.51,0c-0.13,0.14-0.13,0.37,0,0.51
					C282.4,156.23,282.63,156.23,282.77,156.09z M280.61,155.37c0.14-0.14,0.14-0.37,0-0.51c-0.141-0.141-0.37-0.141-0.511,0
					c-0.14,0.14-0.14,0.37,0,0.51C280.24,155.5,280.47,155.5,280.61,155.37z M282.05,155.37c0.141-0.14,0.141-0.37,0-0.51
					c-0.14-0.141-0.37-0.141-0.51,0c-0.14,0.14-0.14,0.37,0,0.51C281.68,155.5,281.91,155.5,282.05,155.37z M283.49,155.37
					c0.14-0.14,0.14-0.37,0-0.51c-0.141-0.141-0.37-0.141-0.5,0c-0.141,0.14-0.141,0.37,0,0.51
					C283.12,155.5,283.35,155.5,283.49,155.37z M278.84,155.1l-2.229-2.22c-0.82-0.82-0.82-2.14,0-2.96l0,0
					c0.81-0.81,2.13-0.81,2.949,0.01l2.23,2.22L278.84,155.1z M284.76,155.1l-2.95-2.949l2.221-2.22c0.819-0.82,2.14-0.82,2.96-0.01
					l0,0c0.81,0.82,0.81,2.14-0.01,2.96L284.76,155.1z M281.33,154.64c0.14-0.13,0.14-0.359,0-0.5c-0.14-0.14-0.37-0.14-0.51,0
					c-0.141,0.141-0.141,0.37,0,0.5C280.96,154.78,281.19,154.78,281.33,154.64z M282.77,154.64c0.141-0.13,0.141-0.359,0-0.5
					c-0.14-0.14-0.369-0.14-0.51,0c-0.13,0.141-0.13,0.37,0,0.5C282.4,154.78,282.63,154.78,282.77,154.64z M282.05,153.92
					c0.141-0.13,0.141-0.36,0-0.5c-0.14-0.14-0.37-0.14-0.51,0s-0.14,0.37,0,0.5C281.68,154.06,281.91,154.06,282.05,153.92z"/>
				<rect x="275.8" y="149.11" style="fill-rule:evenodd;clip-rule:evenodd;fill:none;" width="12" height="12"/>
			</g>
		</g>
	</g>
</g>
<g id="Guides">
</g>
</svg>
