<?xml version="1.0" encoding="iso-8859-1"?>
<!-- Generator: Adobe Illustrator 15.0.0, SVG Export Plug-In . SVG Version: 6.00 Build 0)  -->
<!DOCTYPE svg PUBLIC "-//W3C//DTD SVG 1.1//EN" "http://www.w3.org/Graphics/SVG/1.1/DTD/svg11.dtd">
<svg version="1.1" id="Layer_1" xmlns="http://www.w3.org/2000/svg" xmlns:xlink="http://www.w3.org/1999/xlink" x="0px" y="0px"
	 width="612px" height="792px" viewBox="0 0 612 792" style="enable-background:new 0 0 612 792;" xml:space="preserve">
<g>
	<g>
		<ellipse style="fill:#010101;" cx="158.333" cy="167.667" rx="19.667" ry="16"/>
		<rect x="167.333" y="88.333" style="fill:#010101;" width="10.667" height="78.667"/>
		
			<rect x="178.166" y="88.247" transform="matrix(-0.7071 0.7071 -0.7071 -0.7071 384.9673 43.3768)" style="fill:#010101;" width="10.667" height="26.341"/>
	</g>
	<path style="fill:#010101;" d="M167.641,153.451c-2.699-1.133-5.753-1.784-9-1.784c-10.862,0-19.667,7.163-19.667,16
		c0,8.837,8.805,16,19.667,16c3.388,0,6.576-0.697,9.359-1.925V88.333h-0.359V153.451z"/>
	<path style="fill:#010101;" d="M18-5.333v198h124.031c-1.956-1.021-3.803-2.221-5.5-3.602
		c-6.708-5.458-10.556-13.257-10.556-21.398c0-8.141,3.848-15.94,10.556-21.398c5.041-4.101,11.36-6.661,18.111-7.388V88.333v-13h13
		H168V-5.333H18z M49.369,119.666H31.333v-18.035h18.035V119.666z M49.369,89.666H31.333V71.631h18.035V89.666z M49.369,59.666
		H31.333V41.631h18.035V59.666z M49.369,29.666H31.333V11.631h18.035V29.666z M138.597,119.666H59.811v-18.035h78.787V119.666z
		 M138.597,89.666H59.811V71.631h78.787V89.666z M138.597,59.666H59.811V41.631h78.787V59.666z M138.597,29.666H59.811V11.631
		h78.787V29.666z"/>
</g>
</svg>
