<?xml version="1.0" encoding="utf-8"?>
<!-- Generator: Adobe Illustrator 15.0.0, SVG Export Plug-In . SVG Version: 6.00 Build 0)  -->
<!DOCTYPE svg PUBLIC "-//W3C//DTD SVG 1.1//EN" "http://www.w3.org/Graphics/SVG/1.1/DTD/svg11.dtd">
<svg version="1.1" id="Layer_1" xmlns="http://www.w3.org/2000/svg" xmlns:xlink="http://www.w3.org/1999/xlink" x="0px" y="0px"
	 width="162px" height="148px" viewBox="0 0 162 148" enable-background="new 0 0 162 148" xml:space="preserve">
<g>
	<path d="M122,60.745c0,3.176-2.574,5.75-5.75,5.75h-20.5c-3.176,0-5.75-2.574-5.75-5.75l0,0c0-3.176,2.574-5.75,5.75-5.75h20.5
		C119.426,54.995,122,57.569,122,60.745L122,60.745z"/>
	<path d="M122,86.745c0,3.176-2.574,5.75-5.75,5.75h-20.5c-3.176,0-5.75-2.574-5.75-5.75l0,0c0-3.176,2.574-5.75,5.75-5.75h20.5
		C119.426,80.995,122,83.569,122,86.745L122,86.745z"/>
</g>
<path d="M73,73.745c0,3.176-2.574,5.75-5.75,5.75h-30.5c-3.176,0-5.75-2.574-5.75-5.75l0,0c0-3.176,2.574-5.75,5.75-5.75h30.5
	C70.426,67.995,73,70.569,73,73.745L73,73.745z"/>
<path d="M86.75,100.495c-19.192,0-34.75-11.977-34.75-26.75s15.558-26.75,34.75-26.75C86.75,63.995,86.75,83.995,86.75,100.495z"/>
<path d="M93.5,104.267c-2.348,0-4.25-1.903-4.25-4.25V47.473c0-2.347,1.902-4.25,4.25-4.25l0,0c2.347,0,4.25,1.903,4.25,4.25v52.543
	C97.75,102.363,95.847,104.267,93.5,104.267L93.5,104.267z"/>
</svg>
