<?xml version="1.0" encoding="utf-8"?>
<!-- Generator: Adobe Illustrator 15.0.0, SVG Export Plug-In . SVG Version: 6.00 Build 0)  -->
<!DOCTYPE svg PUBLIC "-//W3C//DTD SVG 1.1//EN" "http://www.w3.org/Graphics/SVG/1.1/DTD/svg11.dtd">
<svg version="1.1" id="Layer_1" xmlns="http://www.w3.org/2000/svg" xmlns:xlink="http://www.w3.org/1999/xlink" x="0px" y="0px"
	 width="283.464px" height="283.464px" viewBox="0 0 283.464 283.464" enable-background="new 0 0 283.464 283.464"
	 xml:space="preserve">
<rect x="79.542" y="96.806" fill-rule="evenodd" clip-rule="evenodd" width="21.458" height="98.708"/>
<polygon fill-rule="evenodd" clip-rule="evenodd" points="102.343,41.49 102.343,75.934 89.114,83.572 75.885,75.934 75.885,41.49 
	56.819,53.742 56.819,91.034 89.114,109.68 121.41,91.034 121.41,53.742 "/>
<path fill-rule="evenodd" clip-rule="evenodd" d="M135.663,158.237L135.663,158.237c1.281,0,2.33,1.049,2.33,2.328v6.042h26.01
	v-12.203l6.612-3.933h4.035v-5.379h-27.274v-12.552h61.289v12.552h-27.74v5.379h4.036l7.06,3.933v12.329
	c41.669,0,41.85,9.451,41.85,34.392c-4.43,0-9.43-0.388-18.155-0.388c0-9.803,0.225-11.852-23.694-11.852v0.885
	c0.148,0.143,0.223,0.29,0.223,0.44c0,1.362-6.322,2.466-14.116,2.466c-7.802,0-14.123-1.104-14.123-2.466
	c0-0.056,0.01-0.113,0.034-0.167h-0.034v-0.961h-26.01v6.242c0,1.28-1.052,2.33-2.33,2.33l0,0c-1.277,0-2.326-1.049-2.326-2.33
	v-34.759C133.336,159.286,134.381,158.237,135.663,158.237z"/>
</svg>
