<?xml version="1.0" encoding="utf-8"?>
<!-- Generator: Adobe Illustrator 15.0.0, SVG Export Plug-In . SVG Version: 6.00 Build 0)  -->
<!DOCTYPE svg PUBLIC "-//W3C//DTD SVG 1.1//EN" "http://www.w3.org/Graphics/SVG/1.1/DTD/svg11.dtd">
<svg version="1.1" id="Layer_1" xmlns="http://www.w3.org/2000/svg" xmlns:xlink="http://www.w3.org/1999/xlink" x="0px" y="0px"
	 width="393.324px" height="359.333px" viewBox="0 0 393.324 359.333" enable-background="new 0 0 393.324 359.333"
	 xml:space="preserve">
<path fill="none" stroke="#000000" stroke-width="16" stroke-linecap="round" stroke-miterlimit="10" d="M94.131,137.001
	c-12.806-8.315-21.284-22.733-21.284-39.14c0-25.76,20.883-46.644,46.644-46.644c25.76,0,46.643,20.883,46.643,46.644
	c0,16.406-8.478,30.824-21.284,39.14"/>
<path fill="none" stroke="#000000" stroke-width="16" stroke-linecap="round" stroke-miterlimit="10" d="M164.741,149.72
	c14.449-12.617,23.583-31.169,23.583-51.858c0-38.015-30.817-68.833-68.833-68.833S50.657,59.846,50.657,97.861
	c0,20.689,9.134,39.241,23.583,51.859"/>
<path fill="#010101" d="M164.294,204.144h-36.357v-82.676c9.895-3.683,16.99-13.138,16.99-24.321
	c0-14.37-11.67-26.027-26.027-26.027c-14.381,0-26.027,11.658-26.027,26.027c0,11.183,7.083,20.638,16.979,24.321v82.676H74.51
	v20.246h89.784V204.144z"/>
</svg>
