<?xml version="1.0" encoding="utf-8"?>
<!-- Generator: Adobe Illustrator 15.0.0, SVG Export Plug-In . SVG Version: 6.00 Build 0)  -->
<!DOCTYPE svg PUBLIC "-//W3C//DTD SVG 1.1//EN" "http://www.w3.org/Graphics/SVG/1.1/DTD/svg11.dtd">
<svg version="1.1" id="Layer_1" xmlns="http://www.w3.org/2000/svg" xmlns:xlink="http://www.w3.org/1999/xlink" x="0px" y="0px"
	 width="162px" height="148px" viewBox="0 0 162 148" enable-background="new 0 0 162 148" xml:space="preserve">
<g>
	<path d="M126.006,85.059c-2.458-2.438-6.424-2.438-8.877,0l-7.658,7.662c-0.354,0.347-0.824,0.557-1.348,0.557
		c-1.076,0-1.934-0.858-1.934-1.912V24.277c0-3.462-2.808-6.277-6.273-6.277c-3.47,0-6.281,2.815-6.281,6.277v35.296v7
		c0,1.069-0.854,1.912-1.912,1.912s-1.912-0.843-1.912-1.912v-4.128v-9.132c0-3.478-2.815-6.277-6.277-6.277
		c-3.47,0-6.281,2.8-6.281,6.277v8.771v4.385c0,1.054-0.858,1.896-1.908,1.896c-1.061,0-1.919-0.843-1.919-1.896v-3.385v-3.477
		c0-3.462-2.807-6.277-6.281-6.277c-3.462,0-6.273,2.815-6.273,6.277v3.838v10.159c0,1.054-0.862,1.912-1.912,1.912
		c-1.058,0-1.919-0.858-1.919-1.912v-3.03v-3.658c0-3.462-2.811-6.277-6.27-6.277c-3.474,0-6.285,2.815-6.285,6.277v38.254
		c0,11.123,9.021,20.156,20.16,20.156H86.04c5.156,0,9.845-1.957,13.417-5.148c0.455-0.271,0.888-0.572,1.275-0.949l25.274-25.288
		C128.453,91.486,128.453,87.527,126.006,85.059z"/>
</g>
</svg>
