<?xml version="1.0" encoding="iso-8859-1"?>
<!-- Generator: Adobe Illustrator 15.0.0, SVG Export Plug-In . SVG Version: 6.00 Build 0)  -->
<!DOCTYPE svg PUBLIC "-//W3C//DTD SVG 1.1//EN" "http://www.w3.org/Graphics/SVG/1.1/DTD/svg11.dtd">
<svg version="1.1" id="&#x421;&#x43B;&#x43E;&#x439;_1"
	 xmlns="http://www.w3.org/2000/svg" xmlns:xlink="http://www.w3.org/1999/xlink" x="0px" y="0px" width="600px" height="600px"
	 viewBox="0 0 600 600" style="enable-background:new 0 0 600 600;" xml:space="preserve">
<g>
	<rect x="447.18" y="-150.65" style="fill-rule:evenodd;clip-rule:evenodd;fill:#000003;" width="300" height="300"/>
	<g>
		<path style="fill-rule:evenodd;clip-rule:evenodd;fill:#FFFFFF;" d="M463.34,7.31V6.18c0.04,0,0.08,0.01,0.12,0.01
			c0.399,0,0.72-0.32,0.72-0.72c0-0.39-0.32-0.71-0.72-0.71c-0.04,0-0.08,0-0.12,0.01V4.1c0.04,0.01,0.08,0.01,0.12,0.01
			c0.399,0,0.72-0.32,0.72-0.71c0-0.4-0.32-0.72-0.72-0.72c-0.04,0-0.08,0-0.12,0.01V2.03c0.04,0,0.08,0.01,0.12,0.01
			c0.399,0,0.72-0.32,0.72-0.72c0-0.39-0.32-0.71-0.72-0.71c-0.04,0-0.08,0-0.12,0.01v-0.67c0.04,0.01,0.08,0.01,0.12,0.01
			c0.399,0,0.72-0.32,0.72-0.71c0-0.4-0.32-0.72-0.72-0.72c-0.04,0-0.08,0-0.12,0.01v-0.66c0.04,0,0.08,0.01,0.12,0.01
			c0.399,0,0.72-0.32,0.72-0.72c0-0.39-0.32-0.72-0.72-0.72c-0.04,0-0.08,0.01-0.12,0.02v-1.16h1.09c0.01,0.399,0.33,0.71,0.72,0.71
			c0.391,0,0.71-0.311,0.71-0.71h0.65c0,0.399,0.32,0.71,0.71,0.71c0.4,0,0.71-0.311,0.72-0.71h0.641
			c0.01,0.399,0.329,0.71,0.72,0.71c0.39,0,0.71-0.311,0.71-0.71h0.65c0,0.399,0.319,0.71,0.71,0.71c0.399,0,0.71-0.311,0.72-0.71
			h0.64c0.011,0.399,0.33,0.71,0.721,0.71c0.39,0,0.71-0.311,0.71-0.71h1.18v1.15c-0.021,0-0.05-0.01-0.07-0.01
			c-0.399,0-0.72,0.33-0.72,0.72c0,0.4,0.32,0.72,0.72,0.72c0.021,0,0.05,0,0.07-0.01v0.65c-0.021,0-0.05,0-0.07,0
			c-0.399,0-0.72,0.32-0.72,0.72c0,0.39,0.32,0.71,0.72,0.71c0.021,0,0.05,0,0.07,0v0.65c-0.021,0-0.05,0-0.07,0
			c-0.399,0-0.72,0.32-0.72,0.71c0,0.4,0.32,0.72,0.72,0.72c0.021,0,0.05,0,0.07-0.01v0.65c-0.021,0-0.05,0-0.07,0
			c-0.399,0-0.72,0.32-0.72,0.72c0,0.39,0.32,0.71,0.72,0.71c0.021,0,0.05,0,0.07,0v0.65c-0.021,0-0.05,0-0.07,0
			c-0.399,0-0.72,0.32-0.72,0.71c0,0.4,0.32,0.72,0.72,0.72c0.021,0,0.05,0,0.07-0.01v1.13h-1.21c0.02-0.06,0.04-0.13,0.04-0.2
			c0-0.4-0.33-0.72-0.72-0.72c-0.4,0-0.721,0.32-0.721,0.72c0,0.07,0.011,0.14,0.03,0.2h-0.7c0.021-0.06,0.03-0.13,0.03-0.2
			c0-0.4-0.32-0.72-0.72-0.72c-0.391,0-0.71,0.32-0.71,0.72c0,0.07,0.01,0.14,0.029,0.2h-0.71c0.021-0.06,0.03-0.13,0.03-0.2
			c0-0.4-0.32-0.72-0.71-0.72c-0.4,0-0.72,0.32-0.72,0.72c0,0.07,0.01,0.14,0.029,0.2h-0.699c0.02-0.06,0.029-0.13,0.029-0.2
			c0-0.4-0.319-0.72-0.72-0.72c-0.39,0-0.71,0.32-0.71,0.72c0,0.07,0.01,0.14,0.03,0.2h-0.71c0.02-0.06,0.029-0.13,0.029-0.2
			c0-0.4-0.319-0.72-0.71-0.72c-0.399,0-0.72,0.32-0.72,0.72c0,0.07,0.01,0.14,0.03,0.2H463.34L463.34,7.31z M473.159,5.13
			L473.159,5.13V-2.5h-7.64v7.63H473.159z"/>
		<path style="fill-rule:evenodd;clip-rule:evenodd;fill:#FFFFFF;" d="M484.779,8.811V7.39c0.051,0.01,0.101,0.02,0.15,0.02
			c0.5,0,0.9-0.41,0.9-0.9s-0.4-0.89-0.9-0.89c-0.05,0-0.1,0-0.15,0.01V4.8c0.051,0.01,0.101,0.01,0.15,0.01c0.5,0,0.9-0.4,0.9-0.89
			c0-0.5-0.4-0.9-0.9-0.9c-0.05,0-0.1,0.01-0.15,0.021V2.2c0.051,0.01,0.101,0.02,0.15,0.02c0.5,0,0.9-0.4,0.9-0.9
			c0-0.49-0.4-0.89-0.9-0.89c-0.05,0-0.1,0-0.15,0.01v-0.83c0.051,0.01,0.101,0.01,0.15,0.01c0.5,0,0.9-0.4,0.9-0.89
			c0-0.49-0.4-0.9-0.9-0.9c-0.05,0-0.1,0.01-0.15,0.02v-0.83c0.051,0,0.101,0.01,0.15,0.01c0.5,0,0.9-0.4,0.9-0.9
			c0-0.49-0.4-0.89-0.9-0.89c-0.05,0-0.1,0.01-0.15,0.01v-1.44h1.37c0,0.49,0.4,0.89,0.891,0.89s0.89-0.4,0.899-0.89h0.8
			c0.011,0.49,0.411,0.89,0.9,0.89c0.49,0,0.88-0.4,0.89-0.89h0.811c0,0.49,0.4,0.89,0.89,0.89c0.49,0,0.891-0.4,0.891-0.89h0.81
			c0,0.49,0.4,0.89,0.89,0.89c0.49,0,0.891-0.4,0.9-0.89h0.8c0.011,0.49,0.41,0.89,0.9,0.89s0.89-0.4,0.89-0.89h1.47v1.44
			c-0.029-0.01-0.06-0.01-0.09-0.01c-0.5,0-0.899,0.4-0.899,0.89c0,0.5,0.399,0.9,0.899,0.9c0.03,0,0.061,0,0.09-0.01v0.82
			c-0.029,0-0.06-0.01-0.09-0.01c-0.5,0-0.899,0.41-0.899,0.9c0,0.49,0.399,0.89,0.899,0.89c0.03,0,0.061,0,0.09,0v0.81
			c-0.029,0-0.06,0-0.09,0c-0.5,0-0.899,0.4-0.899,0.89c0,0.5,0.399,0.9,0.899,0.9c0.03,0,0.061,0,0.09-0.01v0.82
			c-0.029-0.01-0.06-0.01-0.09-0.01c-0.5,0-0.899,0.4-0.899,0.9c0,0.49,0.399,0.89,0.899,0.89c0.03,0,0.061,0,0.09,0v0.81
			c-0.029,0-0.06,0-0.09,0c-0.5,0-0.899,0.4-0.899,0.89s0.399,0.9,0.899,0.9c0.03,0,0.061-0.01,0.09-0.01v1.41h-1.51
			c0.03-0.08,0.04-0.161,0.04-0.25c0-0.5-0.399-0.9-0.89-0.9c-0.5,0-0.9,0.4-0.9,0.9c0,0.089,0.021,0.17,0.04,0.25h-0.88
			c0.021-0.08,0.04-0.161,0.04-0.25c0-0.5-0.4-0.9-0.9-0.9c-0.489,0-0.89,0.4-0.89,0.9c0,0.089,0.01,0.17,0.04,0.25h-0.88
			c0.021-0.08,0.03-0.161,0.03-0.25c0-0.5-0.4-0.9-0.891-0.9c-0.489,0-0.89,0.4-0.89,0.9c0,0.089,0.01,0.17,0.03,0.25h-0.88
			c0.029-0.08,0.039-0.161,0.039-0.25c0-0.5-0.399-0.9-0.89-0.9c-0.5,0-0.9,0.4-0.9,0.9c0,0.089,0.011,0.17,0.04,0.25h-0.88
			c0.021-0.08,0.04-0.161,0.04-0.25c0-0.5-0.399-0.9-0.899-0.9c-0.49,0-0.891,0.4-0.891,0.9c0,0.089,0.011,0.17,0.03,0.25H484.779
			L484.779,8.811z M497.05,6.09L497.05,6.09v-9.55h-9.54v9.55H497.05z"/>
		<path style="fill-rule:evenodd;clip-rule:evenodd;fill:#FFFFFF;" d="M509.22,10.311v-1.7c0.06,0.01,0.12,0.01,0.189,0.01
			c0.591,0,1.07-0.48,1.07-1.07s-0.479-1.07-1.07-1.07c-0.069,0-0.13,0-0.189,0.01V5.5c0.06,0.01,0.12,0.01,0.189,0.01
			c0.591,0,1.07-0.48,1.07-1.07c0-0.6-0.479-1.08-1.07-1.08c-0.069,0-0.13,0.01-0.189,0.02v-1c0.06,0.01,0.12,0.02,0.189,0.02
			c0.591,0,1.07-0.48,1.07-1.08c0-0.59-0.479-1.07-1.07-1.07c-0.069,0-0.13,0.01-0.189,0.021v-1c0.06,0.01,0.12,0.02,0.189,0.02
			c0.591,0,1.07-0.49,1.07-1.08c0-0.59-0.479-1.07-1.07-1.07c-0.069,0-0.13,0-0.189,0.01v-0.99c0.06,0.01,0.12,0.01,0.189,0.01
			c0.591,0,1.07-0.48,1.07-1.07s-0.479-1.07-1.07-1.07c-0.069,0-0.13,0-0.189,0.01v-1.72h1.64c0.011,0.58,0.49,1.06,1.08,1.06
			c0.58,0,1.061-0.48,1.07-1.06h0.96c0.01,0.58,0.49,1.06,1.08,1.06s1.06-0.48,1.07-1.06h0.97c0,0.58,0.479,1.06,1.069,1.06
			c0.591,0,1.07-0.48,1.07-1.06h0.97c0.011,0.58,0.49,1.06,1.07,1.06c0.59,0,1.07-0.48,1.08-1.06h0.96
			c0.01,0.58,0.49,1.06,1.08,1.06c0.58,0,1.061-0.48,1.07-1.06h1.76v1.71c-0.03,0-0.07,0-0.11,0c-0.59,0-1.069,0.48-1.069,1.07
			s0.479,1.07,1.069,1.07c0.04,0,0.08,0,0.11,0v0.97c-0.03,0-0.07,0-0.11,0c-0.59,0-1.069,0.48-1.069,1.07
			c0,0.59,0.479,1.08,1.069,1.08c0.04,0,0.08-0.01,0.11-0.01v0.98c-0.03-0.01-0.07-0.01-0.11-0.01c-0.59,0-1.069,0.48-1.069,1.07
			c0,0.6,0.479,1.08,1.069,1.08c0.04,0,0.08,0,0.11-0.01V3.37c-0.03,0-0.07-0.01-0.11-0.01c-0.59,0-1.069,0.48-1.069,1.08
			c0,0.59,0.479,1.07,1.069,1.07c0.04,0,0.08,0,0.11,0v0.97c-0.03,0-0.07,0-0.11,0c-0.59,0-1.069,0.48-1.069,1.07
			s0.479,1.07,1.069,1.07c0.04,0,0.08,0,0.11,0v1.69h-1.8c0.02-0.09,0.04-0.2,0.04-0.31c0-0.59-0.48-1.07-1.07-1.07
			c-0.6,0-1.08,0.48-1.08,1.07c0,0.11,0.021,0.22,0.05,0.31h-1.06c0.03-0.09,0.05-0.2,0.05-0.31c0-0.59-0.479-1.07-1.08-1.07
			c-0.59,0-1.07,0.48-1.07,1.07c0,0.11,0.021,0.22,0.04,0.31h-1.05c0.03-0.09,0.051-0.2,0.051-0.31c0-0.59-0.49-1.07-1.081-1.07
			c-0.59,0-1.069,0.48-1.069,1.07c0,0.11,0.01,0.22,0.04,0.31h-1.05c0.029-0.09,0.04-0.2,0.04-0.31c0-0.59-0.48-1.07-1.07-1.07
			s-1.08,0.48-1.08,1.07c0,0.11,0.021,0.22,0.05,0.31h-1.06c0.03-0.09,0.05-0.2,0.05-0.31c0-0.59-0.48-1.07-1.07-1.07
			c-0.6,0-1.08,0.48-1.08,1.07c0,0.11,0.021,0.22,0.051,0.31H509.22L509.22,10.311z M523.949,7.041L523.949,7.041V-4.41H512.5v11.45
			H523.949z"/>
		<path style="fill-rule:evenodd;clip-rule:evenodd;fill:#FFFFFF;" d="M536.66,11.06V9.22c0.069,0.01,0.14,0.01,0.199,0.01
			c0.65,0,1.17-0.521,1.17-1.16s-0.52-1.16-1.17-1.16c-0.06,0-0.13,0-0.199,0.01V5.84c0.069,0.011,0.14,0.021,0.199,0.021
			c0.65,0,1.17-0.521,1.17-1.16s-0.52-1.17-1.17-1.17c-0.06,0-0.13,0.01-0.199,0.02V2.47c0.069,0.01,0.14,0.02,0.199,0.02
			c0.65,0,1.17-0.52,1.17-1.16c0-0.65-0.52-1.17-1.17-1.17c-0.06,0-0.13,0.01-0.199,0.02V-0.9c0.069,0.01,0.14,0.02,0.199,0.02
			c0.65,0,1.17-0.52,1.17-1.17c0-0.64-0.52-1.16-1.17-1.16c-0.06,0-0.13,0.01-0.199,0.021v-1.08c0.069,0.01,0.14,0.01,0.199,0.01
			c0.65,0,1.17-0.52,1.17-1.16c0-0.64-0.52-1.16-1.17-1.16c-0.06,0-0.13,0.01-0.199,0.021v-1.87h1.779
			c0.01,0.63,0.53,1.14,1.16,1.14c0.641,0,1.16-0.51,1.17-1.14h1.04c0.01,0.63,0.53,1.14,1.17,1.14c0.63,0,1.15-0.51,1.16-1.14h1.04
			c0.01,0.63,0.53,1.14,1.17,1.14c0.63,0,1.15-0.51,1.16-1.14h1.05c0,0.63,0.521,1.14,1.16,1.14s1.15-0.51,1.16-1.14h1.05
			c0.01,0.63,0.53,1.14,1.16,1.14c0.64,0,1.16-0.51,1.16-1.14h1.91v1.86c-0.04-0.01-0.08-0.01-0.12-0.01
			c-0.641,0-1.16,0.521-1.16,1.16c0,0.64,0.52,1.16,1.16,1.16c0.04,0,0.08,0,0.12,0v1.06c-0.04-0.01-0.08-0.01-0.12-0.01
			c-0.641,0-1.16,0.52-1.16,1.16c0,0.65,0.52,1.17,1.16,1.17c0.04,0,0.08-0.01,0.12-0.01v1.06c-0.04,0-0.08-0.01-0.12-0.01
			c-0.641,0-1.16,0.52-1.16,1.17c0,0.64,0.52,1.16,1.16,1.16c0.04,0,0.08,0,0.12-0.01v1.06c-0.04,0-0.08-0.01-0.12-0.01
			c-0.641,0-1.16,0.53-1.16,1.17s0.52,1.16,1.16,1.16c0.04,0,0.08,0,0.12-0.01v1.06c-0.04,0-0.08,0-0.12,0
			c-0.641,0-1.16,0.521-1.16,1.16s0.52,1.16,1.16,1.16c0.04,0,0.08,0,0.12,0v1.83h-1.95c0.03-0.1,0.05-0.209,0.05-0.33
			c0-0.641-0.53-1.16-1.17-1.16s-1.16,0.52-1.16,1.16c0,0.12,0.02,0.23,0.05,0.33h-1.149c0.029-0.1,0.05-0.209,0.05-0.33
			c0-0.641-0.521-1.16-1.16-1.16s-1.16,0.52-1.16,1.16c0,0.12,0.01,0.23,0.04,0.33h-1.14c0.029-0.1,0.05-0.209,0.05-0.33
			c0-0.641-0.521-1.16-1.16-1.16s-1.17,0.52-1.17,1.16c0,0.12,0.021,0.23,0.05,0.33h-1.14c0.03-0.1,0.05-0.209,0.05-0.33
			c0-0.641-0.52-1.16-1.16-1.16c-0.649,0-1.17,0.52-1.17,1.16c0,0.12,0.021,0.23,0.05,0.33h-1.14c0.03-0.1,0.05-0.209,0.05-0.33
			c0-0.641-0.529-1.16-1.17-1.16c-0.64,0-1.16,0.52-1.16,1.16c0,0.12,0.021,0.23,0.05,0.33H536.66L536.66,11.06z M552.62,7.52
			L552.62,7.52V-4.89h-12.41V7.52H552.62z"/>
		<path style="fill-rule:evenodd;clip-rule:evenodd;fill:#FFFFFF;" d="M565.609,12.56v-2.13c0.07,0.01,0.15,0.02,0.23,0.02
			c0.74,0,1.34-0.6,1.34-1.34s-0.6-1.34-1.34-1.34c-0.08,0-0.16,0-0.23,0.021v-1.25c0.07,0.01,0.15,0.02,0.23,0.02
			c0.74,0,1.34-0.6,1.34-1.34c0-0.74-0.6-1.34-1.34-1.34c-0.08,0-0.16,0-0.23,0.02V2.65c0.07,0.01,0.15,0.02,0.23,0.02
			c0.74,0,1.34-0.6,1.34-1.34c0-0.74-0.6-1.35-1.34-1.35c-0.08,0-0.16,0.01-0.23,0.03v-1.25c0.07,0.01,0.15,0.02,0.23,0.02
			c0.74,0,1.34-0.6,1.34-1.34c0-0.74-0.6-1.35-1.34-1.35c-0.08,0-0.16,0.01-0.23,0.02v-1.24c0.07,0.01,0.15,0.02,0.23,0.02
			c0.74,0,1.34-0.6,1.34-1.34c0-0.75-0.6-1.35-1.34-1.35c-0.08,0-0.16,0.01-0.23,0.02v-2.15h2.051c0,0.73,0.6,1.32,1.34,1.32
			c0.729,0,1.33-0.59,1.34-1.32h1.21c0,0.73,0.6,1.32,1.34,1.32c0.73,0,1.33-0.59,1.34-1.32h1.21c0.011,0.73,0.601,1.32,1.34,1.32
			c0.73,0,1.33-0.59,1.341-1.32h1.21c0.01,0.73,0.6,1.32,1.34,1.32c0.729,0,1.33-0.59,1.34-1.32h1.21c0.01,0.73,0.61,1.32,1.34,1.32
			c0.74,0,1.33-0.59,1.34-1.32h2.21v2.14c-0.05,0-0.1-0.01-0.14-0.01c-0.74,0-1.35,0.6-1.35,1.35c0,0.74,0.609,1.34,1.35,1.34
			c0.04,0,0.09-0.01,0.14-0.01v1.22c-0.05,0-0.1-0.01-0.14-0.01c-0.74,0-1.35,0.61-1.35,1.35c0,0.74,0.609,1.34,1.35,1.34
			c0.04,0,0.09,0,0.14-0.01v1.22c-0.05,0-0.1-0.01-0.14-0.01c-0.74,0-1.35,0.61-1.35,1.35c0,0.74,0.609,1.34,1.35,1.34
			c0.04,0,0.09,0,0.14-0.01v1.22c-0.05,0-0.1,0-0.14,0c-0.74,0-1.35,0.6-1.35,1.34c0,0.74,0.609,1.34,1.35,1.34
			c0.04,0,0.09,0,0.14-0.01v1.22c-0.05,0-0.1,0-0.14,0c-0.74,0-1.35,0.6-1.35,1.34s0.609,1.34,1.35,1.34c0.04,0,0.09,0,0.14-0.01
			v2.12h-2.26c0.03-0.12,0.05-0.25,0.05-0.379c0-0.74-0.6-1.34-1.34-1.34s-1.34,0.6-1.34,1.34c0,0.129,0.02,0.26,0.05,0.379h-1.32
			c0.041-0.12,0.061-0.25,0.061-0.379c0-0.74-0.601-1.34-1.34-1.34c-0.74,0-1.34,0.6-1.34,1.34c0,0.129,0.02,0.26,0.05,0.379h-1.32
			c0.04-0.12,0.061-0.25,0.061-0.379c0-0.74-0.601-1.34-1.341-1.34c-0.739,0-1.34,0.6-1.34,1.34c0,0.129,0.021,0.26,0.051,0.379
			h-1.32c0.04-0.12,0.06-0.25,0.06-0.379c0-0.74-0.6-1.34-1.34-1.34s-1.34,0.6-1.34,1.34c0,0.129,0.01,0.26,0.05,0.379h-1.32
			c0.04-0.12,0.061-0.25,0.061-0.379c0-0.74-0.601-1.34-1.34-1.34c-0.74,0-1.34,0.6-1.34,1.34c0,0.129,0.01,0.26,0.05,0.379H565.609
			L565.609,12.56z M584.01,8.47L584.01,8.47V-5.84h-14.311V8.47H584.01z"/>
		<path style="fill-rule:evenodd;clip-rule:evenodd;fill:#FFFFFF;" d="M597.55,16.31v-2.84c0.101,0.02,0.2,0.03,0.3,0.03
			c0.99,0,1.79-0.81,1.79-1.79c0-0.99-0.8-1.79-1.79-1.79c-0.1,0-0.199,0.01-0.3,0.02V8.28c0.101,0.02,0.2,0.03,0.3,0.03
			c0.99,0,1.79-0.8,1.79-1.79c0-0.99-0.8-1.79-1.79-1.79c-0.1,0-0.199,0.01-0.3,0.03V3.1c0.101,0.01,0.2,0.02,0.3,0.02
			c0.99,0,1.79-0.8,1.79-1.79c0-0.99-0.8-1.79-1.79-1.79c-0.1,0-0.199,0.01-0.3,0.03v-1.66c0.101,0.01,0.2,0.02,0.3,0.02
			c0.99,0,1.79-0.8,1.79-1.79c0-0.98-0.8-1.78-1.79-1.78c-0.1,0-0.199,0-0.3,0.02v-1.66c0.101,0.02,0.2,0.03,0.3,0.03
			c0.99,0,1.79-0.81,1.79-1.791c0-0.99-0.8-1.79-1.79-1.79c-0.1,0-0.199,0.01-0.3,0.021v-2.87h2.73c0.01,0.97,0.81,1.76,1.789,1.76
			c0.98,0,1.771-0.79,1.79-1.76h1.61c0.01,0.97,0.81,1.76,1.79,1.76s1.771-0.79,1.78-1.76h1.62c0.01,0.97,0.8,1.76,1.779,1.76
			c0.98,0,1.78-0.79,1.79-1.76h1.61c0.01,0.97,0.81,1.76,1.79,1.76c0.979,0,1.78-0.79,1.79-1.76h1.609
			c0.011,0.97,0.811,1.76,1.79,1.76c0.98,0,1.78-0.79,1.79-1.76h2.94v2.86c-0.061-0.01-0.13-0.01-0.19-0.01
			c-0.989,0-1.79,0.8-1.79,1.79c0,0.98,0.801,1.791,1.79,1.791c0.061,0,0.13-0.01,0.19-0.01v1.62c-0.061,0-0.13,0-0.19,0
			c-0.989,0-1.79,0.8-1.79,1.78c0,0.99,0.801,1.79,1.79,1.79c0.061,0,0.13,0,0.19-0.01v1.63c-0.061,0-0.13-0.01-0.19-0.01
			c-0.989,0-1.79,0.8-1.79,1.79c0,0.99,0.801,1.79,1.79,1.79c0.061,0,0.13,0,0.19-0.01v1.63c-0.061,0-0.13-0.01-0.19-0.01
			c-0.989,0-1.79,0.8-1.79,1.79c0,0.99,0.801,1.79,1.79,1.79c0.061,0,0.13,0,0.19-0.01v1.63c-0.061-0.01-0.13-0.01-0.19-0.01
			c-0.989,0-1.79,0.8-1.79,1.79c0,0.98,0.801,1.79,1.79,1.79c0.061,0,0.13-0.01,0.19-0.01v2.82h-3.021
			c0.051-0.16,0.08-0.33,0.08-0.51c0-0.99-0.8-1.79-1.79-1.79c-0.989,0-1.79,0.8-1.79,1.79c0,0.18,0.03,0.35,0.08,0.51h-1.76
			c0.04-0.16,0.07-0.33,0.07-0.51c0-0.99-0.8-1.79-1.79-1.79s-1.79,0.8-1.79,1.79c0,0.18,0.03,0.35,0.08,0.51h-1.76
			c0.05-0.16,0.069-0.33,0.069-0.51c0-0.99-0.8-1.79-1.79-1.79c-0.979,0-1.779,0.8-1.779,1.79c0,0.18,0.02,0.35,0.069,0.51h-1.76
			c0.05-0.16,0.08-0.33,0.08-0.51c0-0.99-0.81-1.79-1.79-1.79c-0.99,0-1.79,0.8-1.79,1.79c0,0.18,0.02,0.35,0.07,0.51h-1.761
			c0.051-0.16,0.08-0.33,0.08-0.51c0-0.99-0.8-1.79-1.79-1.79c-0.989,0-1.789,0.8-1.789,1.79c0,0.18,0.02,0.35,0.069,0.51H597.55
			L597.55,16.31z M622.09,10.86L622.09,10.86v-19.09H603v19.09H622.09z"/>
		<path style="fill-rule:evenodd;clip-rule:evenodd;fill:#FFFFFF;" d="M636.989,19.311V15.9c0.12,0.02,0.24,0.03,0.37,0.03
			c1.181,0,2.141-0.96,2.141-2.14c0-1.19-0.96-2.15-2.141-2.15c-0.13,0-0.25,0.01-0.37,0.03V9.68c0.12,0.02,0.24,0.03,0.37,0.03
			c1.181,0,2.141-0.96,2.141-2.15c0-1.18-0.96-2.15-2.141-2.15c-0.13,0-0.25,0.02-0.37,0.04v-2c0.12,0.02,0.24,0.03,0.37,0.03
			c1.181,0,2.141-0.96,2.141-2.141c0-1.19-0.96-2.149-2.141-2.149c-0.13,0-0.25,0.01-0.37,0.03v-1.99c0.12,0.02,0.24,0.03,0.37,0.03
			c1.181,0,2.141-0.97,2.141-2.15s-0.96-2.15-2.141-2.15c-0.13,0-0.25,0.01-0.37,0.04v-2c0.12,0.021,0.24,0.03,0.37,0.03
			c1.181,0,2.141-0.96,2.141-2.15c0-1.18-0.96-2.14-2.141-2.14c-0.13,0-0.25,0.01-0.37,0.03v-3.45h3.28
			c0.01,1.17,0.97,2.12,2.141,2.12c1.18,0,2.13-0.95,2.149-2.12h1.93c0.021,1.17,0.971,2.12,2.15,2.12c1.17,0,2.13-0.95,2.14-2.12
			h1.94c0.01,1.17,0.97,2.12,2.14,2.12c1.181,0,2.141-0.95,2.15-2.12h1.93c0.021,1.17,0.971,2.12,2.15,2.12
			c1.17,0,2.13-0.95,2.149-2.12h1.931c0.01,1.17,0.97,2.12,2.149,2.12c1.17,0,2.131-0.95,2.141-2.12h3.529v3.43
			c-0.079-0.01-0.149-0.01-0.229-0.01c-1.18,0-2.141,0.96-2.141,2.14c0,1.19,0.961,2.15,2.141,2.15c0.08,0,0.15,0,0.229-0.01v1.95
			c-0.079,0-0.149-0.01-0.229-0.01c-1.18,0-2.141,0.97-2.141,2.15s0.961,2.15,2.141,2.15c0.08,0,0.15-0.01,0.229-0.01v1.95
			c-0.079-0.01-0.149-0.01-0.229-0.01c-1.18,0-2.141,0.959-2.141,2.149c0,1.18,0.961,2.141,2.141,2.141c0.08,0,0.15,0,0.229-0.01
			v1.96c-0.079-0.01-0.149-0.02-0.229-0.02c-1.18,0-2.141,0.97-2.141,2.15c0,1.19,0.961,2.15,2.141,2.15
			c0.08,0,0.15-0.01,0.229-0.01v1.95c-0.079-0.01-0.149-0.01-0.229-0.01c-1.18,0-2.141,0.96-2.141,2.15
			c0,1.18,0.961,2.14,2.141,2.14c0.08,0,0.15,0,0.229-0.01v3.391h-3.619c0.06-0.19,0.09-0.4,0.09-0.61c0-1.19-0.96-2.15-2.141-2.15
			c-1.189,0-2.149,0.96-2.149,2.15c0,0.21,0.03,0.42,0.09,0.61h-2.11c0.05-0.19,0.09-0.4,0.09-0.61c0-1.19-0.97-2.15-2.149-2.15
			s-2.15,0.96-2.15,2.15c0,0.21,0.03,0.42,0.091,0.61h-2.11c0.06-0.19,0.09-0.4,0.09-0.61c0-1.19-0.96-2.15-2.15-2.15
			c-1.18,0-2.14,0.96-2.14,2.15c0,0.21,0.03,0.42,0.09,0.61h-2.11c0.051-0.19,0.091-0.4,0.091-0.61c0-1.19-0.971-2.15-2.15-2.15
			c-1.189,0-2.15,0.96-2.15,2.15c0,0.21,0.03,0.42,0.091,0.61h-2.11c0.06-0.19,0.09-0.4,0.09-0.61c0-1.19-0.96-2.15-2.149-2.15
			c-1.181,0-2.141,0.96-2.141,2.15c0,0.21,0.03,0.42,0.09,0.61H636.989L636.989,19.311z M666.439,12.771L666.439,12.771v-22.91
			h-22.91v22.91H666.439z"/>
		<path style="fill-rule:evenodd;clip-rule:evenodd;fill:#FFFFFF;" d="M682.43,23.811v-4.26c0.15,0.02,0.3,0.04,0.46,0.04
			c1.479,0,2.68-1.209,2.68-2.689s-1.2-2.68-2.68-2.68c-0.16,0-0.31,0.01-0.46,0.04v-2.49c0.15,0.021,0.3,0.04,0.46,0.04
			c1.479,0,2.68-1.209,2.68-2.689c0-1.48-1.2-2.68-2.68-2.68c-0.16,0-0.31,0.01-0.46,0.04V3.99c0.15,0.02,0.3,0.03,0.46,0.03
			c1.479,0,2.68-1.2,2.68-2.681c0-1.479-1.2-2.68-2.68-2.68c-0.16,0-0.31,0.01-0.46,0.04v-2.5c0.15,0.03,0.3,0.04,0.46,0.04
			c1.479,0,2.68-1.2,2.68-2.68s-1.2-2.689-2.68-2.689c-0.16,0-0.31,0.02-0.46,0.05v-2.5c0.15,0.03,0.3,0.04,0.46,0.04
			c1.479,0,2.68-1.2,2.68-2.68s-1.2-2.69-2.68-2.69c-0.16,0-0.31,0.021-0.46,0.041v-4.31h4.1c0.021,1.46,1.21,2.65,2.681,2.65
			c1.47,0,2.66-1.19,2.68-2.65h2.42c0.021,1.46,1.21,2.65,2.681,2.65c1.47,0,2.67-1.19,2.68-2.65h2.42
			c0.02,1.46,1.21,2.65,2.68,2.65c1.471,0,2.67-1.19,2.69-2.65h2.41c0.02,1.46,1.22,2.65,2.689,2.65c1.46,0,2.66-1.19,2.681-2.65
			h2.409c0.021,1.46,1.221,2.65,2.69,2.65s2.66-1.19,2.68-2.65h4.41v4.29c-0.09-0.01-0.19-0.021-0.28-0.021
			c-1.479,0-2.68,1.21-2.68,2.69s1.2,2.68,2.68,2.68c0.09,0,0.19,0,0.28-0.01v2.44c-0.09-0.01-0.19-0.02-0.28-0.02
			c-1.479,0-2.68,1.209-2.68,2.689s1.2,2.68,2.68,2.68c0.09,0,0.19,0,0.28-0.01v2.44c-0.09-0.01-0.19-0.01-0.28-0.01
			c-1.479,0-2.68,1.2-2.68,2.68c0,1.48,1.2,2.681,2.68,2.681c0.09,0,0.19,0,0.28-0.01v2.44c-0.09,0-0.19-0.01-0.28-0.01
			c-1.479,0-2.68,1.2-2.68,2.68c0,1.48,1.2,2.689,2.68,2.689c0.09,0,0.19-0.01,0.28-0.02v2.439c-0.09-0.01-0.19-0.01-0.28-0.01
			c-1.479,0-2.68,1.2-2.68,2.68s1.2,2.689,2.68,2.689c0.09,0,0.19-0.01,0.28-0.02v4.24h-4.52c0.069-0.24,0.109-0.5,0.109-0.771
			c0-1.48-1.2-2.68-2.68-2.68c-1.48,0-2.69,1.2-2.69,2.68c0,0.271,0.04,0.53,0.12,0.771h-2.64c0.07-0.24,0.11-0.5,0.11-0.771
			c0-1.48-1.2-2.68-2.681-2.68c-1.479,0-2.689,1.2-2.689,2.68c0,0.271,0.04,0.53,0.109,0.771h-2.64c0.08-0.24,0.12-0.5,0.12-0.771
			c0-1.48-1.2-2.68-2.69-2.68c-1.479,0-2.68,1.2-2.68,2.68c0,0.271,0.04,0.53,0.11,0.771h-2.641c0.08-0.24,0.12-0.5,0.12-0.771
			c0-1.48-1.21-2.68-2.689-2.68c-1.48,0-2.681,1.2-2.681,2.68c0,0.271,0.04,0.53,0.11,0.771h-2.641c0.07-0.24,0.11-0.5,0.11-0.771
			c0-1.48-1.2-2.68-2.68-2.68c-1.48,0-2.681,1.2-2.681,2.68c0,0.271,0.041,0.53,0.11,0.771H682.43L682.43,23.811z M719.239,15.63
			L719.239,15.63V-13h-28.63v28.63H719.239z"/>
	</g>
</g>
</svg>
