<?xml version="1.0" encoding="iso-8859-1"?>
<!-- Generator: Adobe Illustrator 15.0.0, SVG Export Plug-In . SVG Version: 6.00 Build 0)  -->
<!DOCTYPE svg PUBLIC "-//W3C//DTD SVG 1.1//EN" "http://www.w3.org/Graphics/SVG/1.1/DTD/svg11.dtd">
<svg version="1.1" id="Layer_1" xmlns="http://www.w3.org/2000/svg" xmlns:xlink="http://www.w3.org/1999/xlink" x="0px" y="0px"
	 width="612px" height="792px" viewBox="0 0 612 792" style="enable-background:new 0 0 612 792;" xml:space="preserve">
<g>
	<defs>
		<path id="SVGID_1_" d="M367.167,377.584h-0.019c-57.201,0.005-57.382,64.723-57.382,64.852l0,0l3.92,0.78
			c3.061,0.285,5.953,0.424,8.679,0.431h0.381c54.194-0.117,44.179-53.209,60.385-64.56
			C377.371,378.06,372.059,377.585,367.167,377.584"/>
	</defs>
	<use xlink:href="#SVGID_1_"  style="overflow:visible;"/>
	<clipPath id="SVGID_2_">
		<use xlink:href="#SVGID_1_"  style="overflow:visible;"/>
	</clipPath>
	<g style="clip-path:url(#SVGID_2_);">
		<polyline points="309.766,443.057 310.508,443.647 309.766,443.647 309.766,443.057 		"/>
		<polyline points="309.766,440.555 313.653,443.647 310.487,443.647 309.766,443.074 309.766,440.555 		"/>
		<polyline points="309.766,438.037 316.819,443.647 313.653,443.647 309.766,440.555 309.766,438.037 		"/>
		<polyline points="309.766,435.519 319.985,443.647 316.819,443.647 309.766,438.037 309.766,435.519 		"/>
		<polyline points="309.766,433 323.151,443.647 319.985,443.647 309.766,435.519 309.766,433 		"/>
		<polyline points="309.766,430.482 326.318,443.647 323.151,443.647 309.766,433 309.766,430.482 		"/>
		<polyline points="309.766,427.963 329.484,443.647 326.318,443.647 309.766,430.482 309.766,427.963 		"/>
		<polyline points="309.766,425.445 332.65,443.647 329.484,443.647 309.766,427.963 309.766,425.445 		"/>
		<polyline points="309.766,422.927 335.817,443.647 332.65,443.647 309.766,425.445 309.766,422.927 		"/>
		<polyline points="309.766,420.408 338.983,443.647 335.817,443.647 309.766,422.927 309.766,420.408 		"/>
		<polyline points="309.766,417.89 342.149,443.647 338.983,443.647 309.766,420.408 309.766,417.89 		"/>
		<polyline points="309.766,415.372 345.315,443.647 342.149,443.647 309.766,417.89 309.766,415.372 		"/>
		<polyline points="309.766,412.853 348.481,443.647 345.315,443.647 309.766,415.372 309.766,412.853 		"/>
		<polyline points="309.766,410.334 351.648,443.647 348.481,443.647 309.766,412.853 309.766,410.334 		"/>
		<polyline points="309.766,407.816 354.814,443.647 351.648,443.647 309.766,410.334 309.766,407.816 		"/>
		<polyline points="309.766,405.298 357.98,443.647 354.814,443.647 309.766,407.816 309.766,405.298 		"/>
		<polyline points="309.766,402.78 361.146,443.647 357.98,443.647 309.766,405.298 309.766,402.78 		"/>
		<polyline points="309.766,400.261 364.313,443.647 361.146,443.647 309.766,402.78 309.766,400.261 		"/>
		<polyline points="309.766,397.743 367.479,443.647 364.313,443.647 309.766,400.261 309.766,397.743 		"/>
		<polyline points="309.766,395.225 370.645,443.647 367.479,443.647 309.766,397.743 309.766,395.225 		"/>
		<polyline points="309.766,392.706 373.812,443.647 370.645,443.647 309.766,395.225 309.766,392.706 		"/>
		<polyline points="309.766,390.188 376.978,443.647 373.812,443.647 309.766,392.706 309.766,390.188 		"/>
		<polyline points="309.766,387.669 380.144,443.647 376.978,443.647 309.766,390.188 309.766,387.669 		"/>
		<polyline points="309.766,385.151 383.131,443.505 383.131,443.647 380.144,443.647 309.766,387.669 309.766,385.151 		"/>
		<polyline points="309.766,382.633 383.131,440.986 383.131,443.505 309.766,385.151 309.766,382.633 		"/>
		<polyline points="309.766,380.114 383.131,438.468 383.131,440.986 309.766,382.633 309.766,380.114 		"/>
		<polyline points="309.766,377.596 383.131,435.95 383.131,438.468 309.766,380.114 309.766,377.596 		"/>
		<polyline points="312.918,377.584 383.131,433.431 383.131,435.95 309.766,377.596 309.766,377.584 312.918,377.584 		"/>
		<polyline points="316.084,377.584 383.131,430.913 383.131,433.431 312.918,377.584 316.084,377.584 		"/>
		<polyline points="319.25,377.584 383.131,428.395 383.131,430.913 316.084,377.584 319.25,377.584 		"/>
		<polyline points="322.417,377.584 383.131,425.876 383.131,428.395 319.25,377.584 322.417,377.584 		"/>
		<polyline points="325.583,377.584 383.131,423.358 383.131,425.876 322.417,377.584 325.583,377.584 		"/>
		<polyline points="328.749,377.584 383.131,420.84 383.131,423.358 325.583,377.584 328.749,377.584 		"/>
		<polyline points="331.916,377.584 383.131,418.321 383.131,420.84 328.749,377.584 331.916,377.584 		"/>
		<polyline points="335.082,377.584 383.131,415.803 383.131,418.321 331.916,377.584 335.082,377.584 		"/>
		<polyline points="338.248,377.584 383.131,413.284 383.131,415.803 335.082,377.584 338.248,377.584 		"/>
		<polyline points="341.414,377.584 383.131,410.766 383.131,413.284 338.248,377.584 341.414,377.584 		"/>
		<polyline points="344.58,377.584 383.131,408.248 383.131,410.766 341.414,377.584 344.58,377.584 		"/>
		<polyline points="347.747,377.584 383.131,405.729 383.131,408.248 344.58,377.584 347.747,377.584 		"/>
		<polyline points="350.913,377.584 383.131,403.21 383.131,405.729 347.747,377.584 350.913,377.584 		"/>
		<polyline points="354.079,377.584 383.131,400.692 383.131,403.21 350.913,377.584 354.079,377.584 		"/>
		<polyline points="357.246,377.584 383.131,398.174 383.131,400.692 354.079,377.584 357.246,377.584 		"/>
		<polyline points="360.412,377.584 383.131,395.656 383.131,398.174 357.246,377.584 360.412,377.584 		"/>
		<polyline points="363.578,377.584 383.131,393.137 383.131,395.656 360.412,377.584 363.578,377.584 		"/>
		<polyline points="366.744,377.584 383.131,390.619 383.131,393.137 363.578,377.584 366.744,377.584 		"/>
		<polyline points="369.91,377.584 383.131,388.101 383.131,390.619 366.744,377.584 369.91,377.584 		"/>
		<polyline points="373.076,377.584 383.131,385.582 383.131,388.101 369.91,377.584 373.076,377.584 		"/>
		<polyline points="376.243,377.584 383.131,383.063 383.131,385.582 373.076,377.584 376.243,377.584 		"/>
		<polyline points="379.409,377.584 383.131,380.545 383.131,383.063 376.243,377.584 379.409,377.584 		"/>
		<polyline points="381.274,377.584 383.131,379.062 383.131,380.545 379.409,377.584 381.274,377.584 		"/>
		<polyline points="383.131,379.062 381.273,377.584 383.131,377.584 383.131,379.062 		"/>
	</g>
</g>
<g>
	<defs>
		<path id="SVGID_3_" d="M232.623,401.13c-3.966,0-8.275,0.385-12.946,1.218c13.147,9.208,5.003,52.309,49.076,52.309
			c2.257,0,4.655-0.114,7.195-0.35l3.174-0.63C279.121,453.677,279.027,401.126,232.623,401.13"/>
	</defs>
	<use xlink:href="#SVGID_3_"  style="overflow:visible;"/>
	<clipPath id="SVGID_4_">
		<use xlink:href="#SVGID_3_"  style="overflow:visible;"/>
	</clipPath>
	<g style="clip-path:url(#SVGID_4_);">
		<polyline points="278.537,454.657 279.121,454.193 279.121,454.657 278.537,454.657 		"/>
		<polyline points="275.967,454.657 279.121,452.149 279.121,454.189 278.533,454.657 275.967,454.657 		"/>
		<polyline points="273.402,454.657 279.121,450.108 279.121,452.149 275.967,454.657 273.402,454.657 		"/>
		<polyline points="270.836,454.657 279.121,448.068 279.121,450.108 273.402,454.657 270.836,454.657 		"/>
		<polyline points="268.271,454.657 279.121,446.027 279.121,448.068 270.836,454.657 268.271,454.657 		"/>
		<polyline points="265.706,454.657 279.121,443.987 279.121,446.027 268.271,454.657 265.706,454.657 		"/>
		<polyline points="263.14,454.657 279.121,441.946 279.121,443.987 265.706,454.657 263.14,454.657 		"/>
		<polyline points="260.574,454.657 279.121,439.905 279.121,441.946 263.14,454.657 260.574,454.657 		"/>
		<polyline points="258.01,454.657 279.121,437.865 279.121,439.905 260.574,454.657 258.01,454.657 		"/>
		<polyline points="255.444,454.657 279.121,435.825 279.121,437.865 258.01,454.657 255.444,454.657 		"/>
		<polyline points="252.878,454.657 279.121,433.784 279.121,435.825 255.444,454.657 252.878,454.657 		"/>
		<polyline points="250.313,454.657 279.121,431.744 279.121,433.784 252.878,454.657 250.313,454.657 		"/>
		<polyline points="247.748,454.657 279.121,429.703 279.121,431.744 250.313,454.657 247.748,454.657 		"/>
		<polyline points="245.182,454.657 279.121,427.663 279.121,429.703 247.748,454.657 245.182,454.657 		"/>
		<polyline points="242.617,454.657 279.121,425.622 279.121,427.663 245.182,454.657 242.617,454.657 		"/>
		<polyline points="240.051,454.657 279.121,423.582 279.121,425.622 242.617,454.657 240.051,454.657 		"/>
		<polyline points="237.485,454.657 279.121,421.541 279.121,423.582 240.051,454.657 237.485,454.657 		"/>
		<polyline points="234.92,454.657 279.121,419.5 279.121,421.541 237.485,454.657 234.92,454.657 		"/>
		<polyline points="232.354,454.657 279.121,417.459 279.121,419.5 234.92,454.657 232.354,454.657 		"/>
		<polyline points="229.789,454.657 279.121,415.419 279.121,417.459 232.354,454.657 229.789,454.657 		"/>
		<polyline points="227.224,454.657 279.121,413.379 279.121,415.419 229.789,454.657 227.224,454.657 		"/>
		<polyline points="224.658,454.657 279.121,411.338 279.121,413.379 227.224,454.657 224.658,454.657 		"/>
		<polyline points="222.092,454.657 279.121,409.297 279.121,411.338 224.658,454.657 222.092,454.657 		"/>
		<polyline points="219.676,454.539 279.121,407.257 279.121,409.297 222.092,454.657 219.676,454.657 219.676,454.539 		"/>
		<polyline points="219.676,452.499 279.121,405.216 279.121,407.257 219.676,454.539 219.676,452.499 		"/>
		<polyline points="219.676,450.458 279.121,403.176 279.121,405.216 219.676,452.499 219.676,450.458 		"/>
		<polyline points="219.676,448.417 279.121,401.135 279.121,403.176 219.676,450.458 219.676,448.417 		"/>
		<polyline points="219.676,446.377 276.567,401.126 279.121,401.126 279.121,401.135 219.676,448.417 219.676,446.377 		"/>
		<polyline points="219.676,444.336 274.001,401.126 276.567,401.126 219.676,446.377 219.676,444.336 		"/>
		<polyline points="219.676,442.295 271.436,401.126 274.001,401.126 219.676,444.336 219.676,442.295 		"/>
		<polyline points="219.676,440.255 268.871,401.126 271.436,401.126 219.676,442.295 219.676,440.255 		"/>
		<polyline points="219.676,438.214 266.305,401.126 268.871,401.126 219.676,440.255 219.676,438.214 		"/>
		<polyline points="219.676,436.174 263.739,401.126 266.305,401.126 219.676,438.214 219.676,436.174 		"/>
		<polyline points="219.676,434.133 261.174,401.126 263.739,401.126 219.676,436.174 219.676,434.133 		"/>
		<polyline points="219.676,432.093 258.608,401.126 261.174,401.126 219.676,434.133 219.676,432.093 		"/>
		<polyline points="219.676,430.052 256.043,401.126 258.608,401.126 219.676,432.093 219.676,430.052 		"/>
		<polyline points="219.676,428.012 253.478,401.126 256.043,401.126 219.676,430.052 219.676,428.012 		"/>
		<polyline points="219.676,425.971 250.912,401.126 253.478,401.126 219.676,428.012 219.676,425.971 		"/>
		<polyline points="219.676,423.931 248.347,401.126 250.912,401.126 219.676,425.971 219.676,423.931 		"/>
		<polyline points="219.676,421.89 245.781,401.126 248.347,401.126 219.676,423.931 219.676,421.89 		"/>
		<polyline points="219.676,419.85 243.216,401.126 245.781,401.126 219.676,421.89 219.676,419.85 		"/>
		<polyline points="219.676,417.809 240.65,401.126 243.216,401.126 219.676,419.85 219.676,417.809 		"/>
		<polyline points="219.676,415.769 238.085,401.126 240.65,401.126 219.676,417.809 219.676,415.769 		"/>
		<polyline points="219.676,413.728 235.52,401.126 238.085,401.126 219.676,415.769 219.676,413.728 		"/>
		<polyline points="219.676,411.688 232.954,401.126 235.52,401.126 219.676,413.728 219.676,411.688 		"/>
		<polyline points="219.676,409.647 230.389,401.126 232.954,401.126 219.676,411.688 219.676,409.647 		"/>
		<polyline points="219.676,407.606 227.823,401.126 230.389,401.126 219.676,409.647 219.676,407.606 		"/>
		<polyline points="219.676,405.566 225.258,401.126 227.823,401.126 219.676,407.606 219.676,405.566 		"/>
		<polyline points="219.676,403.525 222.692,401.126 225.258,401.126 219.676,405.566 219.676,403.525 		"/>
		<polyline points="219.676,402.323 221.181,401.126 222.692,401.126 219.676,403.525 219.676,402.323 		"/>
		<polyline points="221.181,401.126 219.676,402.323 219.676,401.126 221.181,401.126 		"/>
	</g>
</g>
<path d="M372.479,330.905c0.981-8.969-1.742-16.775-7.849-23.313c8.539-2.668,14.763-8.112,18.339-16.395
	c4.446-10.224,4.755-24.873-0.92-38.91c-5.52-14.099-15.811-24.532-26.067-28.903c-8.289-3.562-16.549-3.239-24.588,0.689
	c-0.057-8.946-3.441-16.491-10.317-22.332c-8.477-7.24-22.397-11.82-37.479-10.494c-15.096,1.155-28.083,7.946-35.262,16.475
	c-5.83,6.887-7.936,14.882-6.53,23.718c-8.571-2.563-16.777-1.532-24.371,3.336c-9.405,5.989-17.854,17.965-20.996,32.774
	c-3.308,14.773-0.61,29.175,5.446,38.539c3.786,5.882,8.853,9.837,15.065,11.9c-3.095,5.768-4.06,12.125-2.766,19
	c2.029,10.96,9.966,23.281,22.522,31.739c12.458,8.603,26.824,11.498,37.771,9.389c8.862-1.684,15.531-6.571,19.999-14.322
	c5.051,7.385,12.075,11.747,21.042,12.744c11.075,1.266,25.178-2.725,36.94-12.257C364.327,354.883,371.296,341.99,372.479,330.905z
	 M283.898,320.488c-17.842-5.557-27.799-24.523-22.243-42.365s24.524-27.801,42.366-22.243c17.84,5.556,27.801,24.523,22.243,42.365
	C320.708,316.087,301.74,326.046,283.898,320.488z"/>
<rect x="290.304" y="381.616" width="6.808" height="95.312"/>
<path d="M208.667,506.883h173.141l1.395-13.781c-0.089,0-0.212,0-0.324,0l0.324-3.202H207.08l0.369,3.202c-0.12,0-0.257,0-0.369,0
	L208.667,506.883z"/>
<path d="M217.949,530.03l27.399,103.848c0,4.149,2.8,7.51,6.253,7.51h91.18c3.455,0,6.255-3.361,6.255-7.51l25.014-103.848H217.949z
	"/>
</svg>
