<?xml version="1.0" encoding="iso-8859-1"?>
<!-- Generator: Adobe Illustrator 15.0.0, SVG Export Plug-In . SVG Version: 6.00 Build 0)  -->
<!DOCTYPE svg PUBLIC "-//W3C//DTD SVG 1.1//EN" "http://www.w3.org/Graphics/SVG/1.1/DTD/svg11.dtd">
<svg version="1.1" id="Layer_1" xmlns="http://www.w3.org/2000/svg" xmlns:xlink="http://www.w3.org/1999/xlink" x="0px" y="0px"
	 width="612px" height="792px" viewBox="0 0 612 792" style="enable-background:new 0 0 612 792;" xml:space="preserve">
<path style="fill:#010101;" d="M185.236,298.418c-34.029,0-61.616,27.587-61.616,61.616s27.586,61.616,61.616,61.616
	c34.03,0,61.616-27.587,61.616-61.616S219.266,298.418,185.236,298.418z M208.579,401.411c-2.79,0.73-5.497,1.096-8.118,1.096
	c-3.371,0-7.865-0.796-13.483-2.388c-5.618-1.592-9.775-2.388-12.472-2.388c-4.57,0-9.233,1.629-13.989,4.888l-6.011-13.596
	c4.232-3.034,7.275-6.265,9.129-9.691s2.781-6.693,2.781-9.803c0-1.012-0.076-2.079-0.225-3.203h-11.686v-12.415h8.82
	c-1.537-4.419-2.303-8.896-2.303-13.428c0-4.081,1.114-7.978,3.342-11.685c2.228-3.708,5.384-6.526,9.467-8.455
	c4.082-1.93,8.539-2.894,13.371-2.894c7.378,0,13.258,1.863,17.641,5.59c4.382,3.728,7.059,9.073,8.034,16.039l-15.225,2.247
	c-0.712-4.007-2.004-6.891-3.876-8.651c-1.874-1.761-4.214-2.641-7.022-2.641c-2.997,0-5.487,1.003-7.472,3.006
	c-1.986,2.004-2.978,4.522-2.978,7.556c0,1.573,0.271,3.652,0.814,6.236c0.542,2.584,1.208,4.944,1.995,7.079h17.528v12.415h-14.944
	c0.113,0.824,0.169,1.649,0.169,2.473c0,2.959-0.562,5.693-1.686,8.202s-3.427,5.806-6.91,9.888
	c2.059-1.048,4.644-1.573,7.753-1.573c1.311,0,2.491,0.076,3.539,0.225c0.524,0.076,2.059,0.431,4.607,1.067
	c4.531,1.161,7.621,1.742,9.27,1.742c2.921,0,6.742-1.049,11.461-3.146l6.067,13.371
	C213.832,399.735,211.368,400.681,208.579,401.411z"/>
</svg>
