<?xml version="1.0" encoding="utf-8"?>
<!-- Generator: Adobe Illustrator 15.0.0, SVG Export Plug-In . SVG Version: 6.00 Build 0)  -->
<!DOCTYPE svg PUBLIC "-//W3C//DTD SVG 1.1//EN" "http://www.w3.org/Graphics/SVG/1.1/DTD/svg11.dtd">
<svg version="1.1" id="Layer_2" xmlns="http://www.w3.org/2000/svg" xmlns:xlink="http://www.w3.org/1999/xlink" x="0px" y="0px"
	 width="162px" height="148px" viewBox="0 0 162 148" enable-background="new 0 0 162 148" xml:space="preserve">
<g>
	<path d="M84.667,37.385l8.924,18.082c1.457,2.951,4.272,4.997,7.529,5.47l19.955,2.899l-14.439,14.075
		c-2.357,2.297-3.433,5.607-2.876,8.851l3.409,19.874L89.32,97.254c-1.457-0.766-3.055-1.149-4.653-1.149s-3.197,0.383-4.653,1.149
		l-17.848,9.383l3.409-19.874c0.557-3.244-0.519-6.554-2.876-8.851L48.259,63.837l19.955-2.899c3.257-0.473,6.073-2.519,7.529-5.47
		L84.667,37.385 M84.667,14.79L66.776,51.042L26.77,56.854l28.949,28.218l-6.834,39.844l35.783-18.812l35.783,18.812l-6.834-39.844
		l28.949-28.218l-40.006-5.813L84.667,14.79L84.667,14.79z"/>
</g>
</svg>
