<?xml version="1.0" encoding="iso-8859-1"?>
<!-- Generator: Adobe Illustrator 15.0.0, SVG Export Plug-In . SVG Version: 6.00 Build 0)  -->
<!DOCTYPE svg PUBLIC "-//W3C//DTD SVG 1.1//EN" "http://www.w3.org/Graphics/SVG/1.1/DTD/svg11.dtd">
<svg version="1.1" id="Layer_1" xmlns="http://www.w3.org/2000/svg" xmlns:xlink="http://www.w3.org/1999/xlink" x="0px" y="0px"
	 width="612px" height="792px" viewBox="0 0 612 792" style="enable-background:new 0 0 612 792;" xml:space="preserve">
<path d="M380.602,407.144h-21.935c-1.161-7.865-3.419-15.191-6.583-21.632c-8.248,10.304-19.023,17.2-30.981,18.943v74.583
	c12.974-2.378,24.167-12.377,31.081-26.582h28.418v-9.461H355.95c0.859-2.718,1.538-5.558,2.101-8.463h22.552v-9.461h-21.258
	c0.142-1.966,0.222-3.958,0.222-5.975c0-0.837-0.044-1.66-0.068-2.489h21.104V407.144z"/>
<g>
	<path d="M281.462,336.442c-28.004,0-50.787,22.782-50.787,50.787h11.95c0-21.416,17.421-38.837,38.837-38.837V336.442z"/>
	<circle cx="285.51" cy="388.473" r="19.917"/>
	<path d="M200.223,387.477h12.031c4.012-36.195,32.668-65.055,68.774-69.374V306.06
		C238.323,310.479,204.325,344.679,200.223,387.477z"/>
</g>
<g>
	<path d="M332.743,363.569v-17.17h-11.33v12.877c-2.058-0.399-4.146-0.678-6.286-0.678c-2.14,0-4.226,0.279-6.284,0.678v-12.877
		h-11.33v7.806c14.154,4.974,24.344,18.438,24.344,34.268c0,2.34-0.242,4.621-0.667,6.838c10.16-1.902,19.229-8.433,25.995-18.042
		C343.115,371.487,338.213,366.804,332.743,363.569z"/>
</g>
<g>
	<path d="M285.51,424.821c-5.243,0-10.218-1.139-14.724-3.146c0.037,1.134,0.045,2.277,0.125,3.395h-21.258v9.461h22.552
		c0.563,2.906,1.241,5.746,2.101,8.463h-24.652v9.461h28.418c6.915,14.205,18.107,24.204,31.081,26.582v-63.014
		C302.79,421.492,294.538,424.821,285.51,424.821z"/>
	<path d="M254.384,407.144h-4.73v9.461h12.877C259.294,413.957,256.551,410.744,254.384,407.144z"/>
</g>
</svg>
