<?xml version="1.0" encoding="iso-8859-1"?>
<!-- Generator: Adobe Illustrator 15.0.0, SVG Export Plug-In . SVG Version: 6.00 Build 0)  -->
<!DOCTYPE svg PUBLIC "-//W3C//DTD SVG 1.1//EN" "http://www.w3.org/Graphics/SVG/1.1/DTD/svg11.dtd">
<svg version="1.1" id="Layer_1" xmlns="http://www.w3.org/2000/svg" xmlns:xlink="http://www.w3.org/1999/xlink" x="0px" y="0px"
	 width="612px" height="792px" viewBox="0 0 612 792" style="enable-background:new 0 0 612 792;" xml:space="preserve">
<path d="M301.822,341.681c-14.134,3.626-24.589,16.405-24.589,31.671c0,13.545,8.229,25.165,19.954,30.135v82.454l8.878,9.978h4.438
	l12.202-14.416v-9.99h-5.544v-9.978h3.326c0,0,2.218-6.651,0-9.989c-2.226-3.319-9.984-9.984-9.984-9.984l13.315-15.522v-23.09
	c11.129-5.225,18.854-16.491,18.854-29.598c0-18.082-14.645-32.726-32.72-32.726c-1.428,0-2.829,0.118-4.204,0.294 M317.161,357.817
	c0,4.596-3.725,8.321-8.315,8.321c-4.602,0-8.32-3.725-8.32-8.321c0-4.589,3.718-8.314,8.32-8.314
	C313.436,349.503,317.161,353.229,317.161,357.817z"/>
<g>
	<path d="M337.552,324.997c10.281,3.1,19.072,9.273,25.459,17.627c0.849,1.104,1.653,2.233,2.395,3.38
		c0.307,0.473,0.582,0.964,0.868,1.446c0.558,0.937,1.105,1.867,1.594,2.818c0.301,0.583,0.563,1.176,0.841,1.772
		c0.44,0.949,0.885,1.909,1.265,2.879c0.185,0.469,0.343,0.948,0.511,1.424c0.411,1.143,0.807,2.292,1.13,3.46
		c0.076,0.264,0.134,0.53,0.197,0.798c0.36,1.381,0.684,2.778,0.924,4.177c0.009,0.06,0.021,0.124,0.031,0.187
		c0.794,4.763,0.908,9.6,0.341,14.361c-0.007,0.079-0.025,0.16-0.036,0.24c-0.179,1.483-0.427,2.963-0.742,4.424
		c-0.067,0.313-0.161,0.631-0.232,0.939c-2.521,10.781-8.547,20.818-17.903,28.18l-8.226-10.455l-11.93,36.467l38.251-3.012
		l-8.224-10.456c10.995-8.649,18.496-20.103,22.341-32.56c0.061-0.164,0.149-0.313,0.204-0.481c0.389-1.279,0.657-2.577,0.963-3.868
		c0.119-0.481,0.255-0.959,0.362-1.448c0.404-1.865,0.7-3.731,0.938-5.613c0.026-0.176,0.061-0.352,0.082-0.525
		c0.749-6.251,0.59-12.522-0.435-18.672c-0.025-0.167-0.046-0.335-0.077-0.502c-0.308-1.76-0.708-3.512-1.154-5.247
		c-0.117-0.434-0.212-0.865-0.329-1.301c-0.413-1.462-0.905-2.913-1.426-4.356c-0.238-0.683-0.465-1.365-0.732-2.041
		c-0.491-1.237-1.046-2.456-1.609-3.666c-0.38-0.813-0.741-1.626-1.153-2.425c-0.166-0.331-0.297-0.672-0.473-0.997
		c-0.591-1.102-1.259-2.148-1.908-3.212c-0.234-0.385-0.443-0.776-0.683-1.155c-1.2-1.877-2.462-3.71-3.824-5.442
		c-8.361-10.626-19.761-18.435-32.991-22.426c-4.226-1.277-8.674,1.112-9.949,5.328
		C330.942,319.275,333.335,323.729,337.552,324.997z"/>
	<path d="M255.685,321.112c-10.964,8.626-18.451,20.043-22.307,32.452c-0.08,0.194-0.174,0.375-0.239,0.574
		c-0.463,1.528-0.795,3.073-1.149,4.606c-0.038,0.186-0.096,0.367-0.133,0.554c-2.267,10.363-1.996,20.942,0.69,31.045
		c0.066,0.279,0.13,0.56,0.21,0.839c0.443,1.595,0.976,3.173,1.548,4.748c0.193,0.559,0.382,1.124,0.608,1.69
		c0.52,1.336,1.123,2.646,1.731,3.949c0.341,0.725,0.671,1.458,1.037,2.177c0.18,0.344,0.31,0.706,0.495,1.05
		c0.509,0.948,1.096,1.822,1.639,2.728c0.379,0.629,0.734,1.263,1.134,1.887c0.96,1.49,1.991,2.918,3.051,4.317
		c0.196,0.249,0.354,0.517,0.551,0.769c0.034,0.041,0.078,0.078,0.118,0.119c8.362,10.614,19.701,18.43,32.917,22.42
		c4.217,1.276,8.672-1.113,9.941-5.329c1.285-4.217-1.11-8.673-5.327-9.949c-10.204-3.081-18.939-9.165-25.319-17.434
		c-0.918-1.184-1.773-2.399-2.577-3.636c-0.237-0.379-0.461-0.775-0.694-1.16c-0.619-1.031-1.228-2.074-1.774-3.139
		c-0.239-0.472-0.451-0.952-0.671-1.427c-0.511-1.067-0.997-2.14-1.425-3.231c-0.143-0.353-0.249-0.702-0.38-1.061
		c-0.464-1.261-0.894-2.541-1.25-3.831c-0.042-0.138-0.07-0.276-0.104-0.41c-2.077-7.82-2.242-15.993-0.551-23.802
		c0.008-0.048,0.027-0.102,0.036-0.148c2.423-11.03,8.521-21.314,18.063-28.823l8.226,10.455l11.931-36.468l-38.251,3.014
		L255.685,321.112z"/>
</g>
</svg>
