<?xml version="1.0" encoding="iso-8859-1"?>
<!-- Generator: Adobe Illustrator 15.0.0, SVG Export Plug-In . SVG Version: 6.00 Build 0)  -->
<!DOCTYPE svg PUBLIC "-//W3C//DTD SVG 1.1//EN" "http://www.w3.org/Graphics/SVG/1.1/DTD/svg11.dtd">
<svg version="1.1" xmlns="http://www.w3.org/2000/svg" xmlns:xlink="http://www.w3.org/1999/xlink" x="0px" y="0px" width="300px"
	 height="300px" viewBox="0 0 300 300" style="enable-background:new 0 0 300 300;" xml:space="preserve">
<g id="Layer_1">
	<g>
		<rect x="0.56" y="-0.31" style="fill-rule:evenodd;clip-rule:evenodd;fill:#666666;" width="300" height="300"/>
		<g>
			<g>
				<path style="fill-rule:evenodd;clip-rule:evenodd;fill:#FFFFFF;" d="M13.74,174.76v-9.74h-3.72l4.24-14.64
					c-0.46-0.09-0.75,0.29-0.93,0.99l-0.92,3.26c-0.34,1.14-1.31,6.3-3.35,4.94c-1.33-0.88,0.3-4.431,0.64-5.57
					c0.45-1.5,1.12-4.28,1.75-5.64c0.92-1.98,3.7-2.79,6.3-2.75c2.59-0.04,5.37,0.77,6.29,2.75c0.63,1.36,1.31,4.14,1.75,5.64
					c0.34,1.14,1.97,4.69,0.64,5.57c-2.04,1.359-3-3.801-3.35-4.94l-0.92-3.26c-0.18-0.7-0.47-1.08-0.93-0.99l4.24,14.64h-3.72v9.74
					c0,1.49-0.82,2.71-1.83,2.71l0,0c-1.01,0-1.83-1.22-1.83-2.71v-9.729h-0.34H17.4v9.729c0,1.49-0.82,2.71-1.83,2.71l0,0
					C14.56,177.47,13.74,176.25,13.74,174.76z M40.65,174.76V161c0-0.18,0.01-0.35,0.03-0.51v-9.75h-0.63c0,1.95,0,3.89,0,5.84
					c0,1.479,0.58,4.43-1.34,4.51c-2,0.07-1.48-3.02-1.48-4.37c0-1.939,0.01-3.89,0-5.84c-0.03-4.93,2.34-5.21,6.48-5.21
					c3.93,0,8.02-0.82,8.34,4.86v8.77c-0.07,1.58-1.23,2.38-2.28,1.51c-0.75-0.609-0.5-2.09-0.5-3.029v-7.04h-0.56
					c0,3.22,0,6.439,0,9.649c0.03,0.2,0.05,0.4,0.05,0.61v13.76c0,1.49-0.83,2.71-1.85,2.71l0,0c-1.03,0-1.86-1.22-1.86-2.71V161
					c0-0.06,0.01-0.13,0.01-0.19h-0.71c0,0.061,0,0.131,0,0.19v13.76c0,1.49-0.83,2.71-1.85,2.71l0,0
					C41.48,177.47,40.65,176.25,40.65,174.76z M30.05,177.47v-40.38h3.73v40.38H30.05z M14.5,140.59c0-1.93,1.56-3.5,3.47-3.5
					c1.92,0,3.47,1.57,3.47,3.5c0,1.93-1.55,3.5-3.47,3.5C16.06,144.09,14.5,142.52,14.5,140.59z M41.26,140.59
					c0-1.93,1.55-3.5,3.47-3.5c1.91,0,3.47,1.57,3.47,3.5c0,1.93-1.56,3.5-3.47,3.5C42.81,144.09,41.26,142.52,41.26,140.59z"/>
				<rect x="7.8" y="134.78" style="fill-rule:evenodd;clip-rule:evenodd;fill:none;" width="45" height="45"/>
			</g>
			<g>
				<path style="fill-rule:evenodd;clip-rule:evenodd;fill:#FFFFFF;" d="M69.44,171.26v-7.779h-2.97l3.39-11.721
					c-0.37-0.069-0.6,0.23-0.74,0.79l-0.74,2.61c-0.28,0.91-1.05,5.04-2.68,3.96c-1.07-0.71,0.24-3.55,0.51-4.46
					c0.36-1.2,0.9-3.43,1.4-4.52c0.73-1.58,2.96-2.23,5.04-2.2c2.08-0.03,4.3,0.62,5.03,2.2c0.51,1.09,1.05,3.32,1.41,4.52
					c0.27,0.91,1.57,3.75,0.51,4.46c-1.63,1.08-2.41-3.05-2.68-3.96l-0.74-2.61c-0.14-0.56-0.38-0.859-0.75-0.79l3.4,11.721h-2.98
					v7.779c0,1.2-0.65,2.17-1.46,2.17l0,0c-0.81,0-1.46-0.97-1.46-2.17l-0.01-7.779h-0.27h-0.28v7.779c0,1.2-0.66,2.17-1.46,2.17
					l0,0C70.1,173.43,69.44,172.46,69.44,171.26z M90.97,171.26v-11c0-0.14,0.01-0.279,0.03-0.42v-7.79h-0.51c0,1.561,0,3.11,0,4.67
					c0,1.19,0.46,3.55-1.07,3.61c-1.6,0.06-1.18-2.41-1.18-3.5c0-1.55,0.01-3.11,0-4.67c-0.03-3.94,1.87-4.17,5.18-4.17
					c3.14,0,6.42-0.66,6.67,3.89v7.021c-0.05,1.26-0.98,1.899-1.83,1.199c-0.59-0.479-0.39-1.67-0.39-2.42v-5.63h-0.45
					c0,2.57,0,5.15,0,7.72c0.02,0.16,0.04,0.32,0.04,0.49v11c0,1.2-0.67,2.17-1.48,2.17l0,0c-0.82,0-1.49-0.97-1.49-2.17v-11
					c0-0.05,0.01-0.1,0.01-0.149h-0.57c0,0.05,0,0.1,0,0.149v11c0,1.2-0.66,2.17-1.48,2.17l0,0
					C91.63,173.43,90.97,172.46,90.97,171.26z M82.49,173.43v-32.3h2.98l0.01,32.3H82.49z M70.05,143.93c0-1.55,1.25-2.8,2.78-2.8
					c1.53,0,2.78,1.25,2.78,2.8c0,1.54-1.25,2.8-2.78,2.8C71.3,146.73,70.05,145.47,70.05,143.93z M91.46,143.93
					c0-1.55,1.24-2.8,2.77-2.8s2.78,1.25,2.78,2.8c0,1.54-1.25,2.8-2.78,2.8S91.46,145.47,91.46,143.93z"/>
				<rect x="64.69" y="139.28" style="fill-rule:evenodd;clip-rule:evenodd;fill:none;" width="36" height="36"/>
			</g>
			<g>
				<path style="fill-rule:evenodd;clip-rule:evenodd;fill:#FFFFFF;" d="M116.54,168.93v-6.489h-2.48l2.83-9.761
					c-0.31-0.06-0.5,0.19-0.62,0.66l-0.62,2.18c-0.22,0.75-0.87,4.19-2.23,3.29c-0.88-0.59,0.2-2.96,0.43-3.72
					c0.3-1,0.75-2.85,1.17-3.76c0.61-1.32,2.46-1.85,4.19-1.83c1.74-0.02,3.59,0.51,4.2,1.83c0.42,0.91,0.87,2.76,1.17,3.76
					c0.22,0.76,1.31,3.13,0.42,3.72c-1.36,0.9-2-2.54-2.23-3.29l-0.61-2.18c-0.12-0.47-0.32-0.72-0.63-0.66l2.84,9.761h-2.49v6.489
					c0,1-0.54,1.811-1.22,1.811l0,0c-0.67,0-1.22-0.811-1.22-1.811v-6.489h-0.23h-0.23v6.489c0,1-0.54,1.811-1.22,1.811l0,0
					C117.09,170.74,116.54,169.93,116.54,168.93z M134.48,168.93v-9.17c0-0.12,0.01-0.229,0.02-0.34v-6.5h-0.42c0,1.3,0,2.6,0,3.89
					c0,0.99,0.39,2.96-0.89,3.011c-1.34,0.05-0.99-2.011-0.99-2.91c0-1.3,0.01-2.601,0-3.9c-0.02-3.28,1.56-3.47,4.32-3.47
					c2.62,0,5.35-0.55,5.56,3.24v5.85c-0.04,1.05-0.82,1.58-1.52,1c-0.5-0.399-0.33-1.39-0.33-2.02v-4.69h-0.37
					c0,2.14,0,4.29,0,6.43c0.02,0.141,0.03,0.271,0.03,0.41v9.17c0,1-0.56,1.811-1.24,1.811l0,0c-0.68,0-1.23-0.811-1.23-1.811
					v-9.17c0-0.04,0-0.08,0-0.12h-0.47c0,0.04,0,0.08,0,0.12v9.17c0,1-0.55,1.811-1.23,1.811l0,0
					C135.03,170.74,134.48,169.93,134.48,168.93z M127.42,170.74v-26.92h2.48v26.92H127.42z M117.05,146.15
					c0-1.29,1.04-2.33,2.31-2.33c1.28,0,2.32,1.04,2.32,2.33s-1.04,2.34-2.32,2.34C118.09,148.49,117.05,147.44,117.05,146.15z
					 M134.89,146.15c0-1.29,1.03-2.33,2.31-2.33c1.28,0,2.31,1.04,2.31,2.33s-1.03,2.34-2.31,2.34
					C135.92,148.49,134.89,147.44,134.89,146.15z"/>
				<rect x="112.58" y="142.28" style="fill-rule:evenodd;clip-rule:evenodd;fill:none;" width="30" height="30"/>
			</g>
			<g>
				<path style="fill-rule:evenodd;clip-rule:evenodd;fill:#FFFFFF;" d="M157.44,166.02v-4.869h-1.86l2.13-7.32
					c-0.229-0.05-0.38,0.15-0.47,0.49l-0.46,1.64c-0.17,0.57-0.66,3.14-1.681,2.47c-0.659-0.449,0.15-2.22,0.32-2.79
					c0.23-0.75,0.561-2.14,0.88-2.819c0.46-0.99,1.851-1.391,3.15-1.38c1.3-0.011,2.689,0.39,3.14,1.38
					c0.32,0.68,0.66,2.069,0.88,2.819c0.17,0.57,0.99,2.341,0.32,2.79c-1.021,0.67-1.5-1.899-1.67-2.47l-0.47-1.64
					c-0.091-0.34-0.23-0.54-0.46-0.49l2.119,7.32h-1.859v4.869c0,0.75-0.41,1.351-0.91,1.351l0,0c-0.51,0-0.92-0.601-0.92-1.351
					v-4.869h-0.17h-0.181v4.869c0,0.75-0.409,1.351-0.909,1.351l0,0C157.85,167.37,157.44,166.77,157.44,166.02z M170.9,166.02
					v-6.88c0-0.09,0-0.17,0.02-0.26v-4.87h-0.32c0,0.971,0,1.95,0,2.92c0,0.74,0.29,2.221-0.67,2.25c-1,0.04-0.739-1.5-0.739-2.18
					c0-0.97,0.01-1.95,0-2.92c-0.021-2.46,1.17-2.61,3.239-2.61c1.96,0,4.011-0.41,4.17,2.431v4.39
					c-0.029,0.79-0.609,1.19-1.14,0.76c-0.37-0.31-0.25-1.05-0.25-1.52v-3.521h-0.28c0,1.61,0,3.221,0,4.83
					c0.011,0.09,0.021,0.2,0.021,0.3v6.88c0,0.75-0.41,1.351-0.92,1.351l0,0c-0.511,0-0.931-0.601-0.931-1.351v-6.88
					c0-0.029,0-0.06,0-0.09h-0.35c0,0.03,0,0.061,0,0.09v6.88c0,0.75-0.41,1.351-0.93,1.351l0,0
					C171.31,167.37,170.9,166.77,170.9,166.02z M165.6,167.37v-20.19h1.86v20.19H165.6z M157.83,148.93c0-0.96,0.77-1.75,1.729-1.75
					s1.74,0.79,1.74,1.75c0,0.97-0.78,1.76-1.74,1.76S157.83,149.9,157.83,148.93z M171.2,148.93c0-0.96,0.78-1.75,1.74-1.75
					s1.729,0.79,1.729,1.75c0,0.97-0.77,1.76-1.729,1.76S171.2,149.9,171.2,148.93z"/>
				<rect x="154.47" y="146.03" style="fill-rule:evenodd;clip-rule:evenodd;fill:none;" width="22.5" height="22.5"/>
			</g>
			<g>
				<path style="fill-rule:evenodd;clip-rule:evenodd;fill:#FFFFFF;" d="M191.44,164.85v-4.21h-1.61l1.84-6.35
					c-0.2-0.04-0.33,0.13-0.41,0.43l-0.399,1.41c-0.15,0.5-0.561,2.73-1.45,2.14c-0.57-0.38,0.13-1.92,0.28-2.409
					c0.189-0.65,0.479-1.86,0.76-2.45c0.399-0.851,1.6-1.2,2.729-1.19c1.12-0.01,2.33,0.34,2.721,1.19
					c0.279,0.59,0.569,1.8,0.76,2.45c0.149,0.489,0.859,2.029,0.28,2.409c-0.881,0.591-1.301-1.64-1.45-2.14l-0.4-1.41
					c-0.08-0.3-0.21-0.47-0.41-0.43l1.84,6.35h-1.609v4.21c0,0.65-0.351,1.181-0.79,1.181l0,0c-0.44,0-0.79-0.53-0.79-1.181v-4.21
					h-0.15h-0.149v4.21c0,0.65-0.36,1.181-0.8,1.181l0,0C191.8,166.03,191.44,165.5,191.44,164.85z M203.1,164.85v-5.96
					c0-0.069,0.011-0.149,0.021-0.22v-4.22h-0.28c0,0.84,0,1.68,0,2.53c0,0.64,0.25,1.92-0.58,1.949c-0.87,0.03-0.64-1.31-0.64-1.89
					c0-0.84,0-1.69,0-2.53c-0.01-2.14,1.01-2.26,2.81-2.26c1.7,0,3.471-0.36,3.61,2.1v3.801c-0.03,0.689-0.53,1.029-0.99,0.659
					c-0.319-0.26-0.21-0.909-0.21-1.31v-3.05h-0.25c0,1.39,0,2.78,0,4.18c0.021,0.08,0.021,0.17,0.021,0.26v5.96
					c0,0.65-0.36,1.181-0.801,1.181l0,0c-0.439,0-0.8-0.53-0.8-1.181v-5.96c0-0.02,0-0.05,0-0.08h-0.31c0,0.03,0.01,0.061,0.01,0.08
					v5.96c0,0.65-0.36,1.181-0.81,1.181l0,0C203.46,166.03,203.1,165.5,203.1,164.85z M198.51,166.03v-17.5h1.61v17.5H198.51z
					 M191.77,150.05c0-0.84,0.671-1.52,1.5-1.52c0.83,0,1.511,0.68,1.511,1.52c0,0.84-0.681,1.521-1.511,1.521
					C192.44,151.57,191.77,150.89,191.77,150.05z M203.36,150.05c0-0.84,0.68-1.52,1.51-1.52s1.5,0.68,1.5,1.52
					c0,0.84-0.67,1.521-1.5,1.521S203.36,150.89,203.36,150.05z"/>
				<rect x="188.86" y="147.53" style="fill-rule:evenodd;clip-rule:evenodd;fill:none;" width="19.5" height="19.5"/>
			</g>
			<g>
				<path style="fill-rule:evenodd;clip-rule:evenodd;fill:#FFFFFF;" d="M222.63,164.27v-3.89h-1.479l1.689-5.86
					c-0.18-0.039-0.3,0.12-0.37,0.391l-0.37,1.31c-0.13,0.46-0.52,2.521-1.34,1.98c-0.529-0.36,0.12-1.78,0.26-2.23
					c0.181-0.6,0.45-1.72,0.7-2.26c0.37-0.79,1.48-1.11,2.521-1.1c1.04-0.011,2.149,0.31,2.52,1.1c0.25,0.54,0.521,1.66,0.7,2.26
					c0.13,0.45,0.78,1.87,0.25,2.23c-0.81,0.54-1.2-1.521-1.34-1.98l-0.37-1.31c-0.07-0.271-0.19-0.43-0.37-0.391l1.7,5.86h-1.49
					v3.89c0,0.601-0.33,1.091-0.729,1.091l0,0c-0.41,0-0.73-0.49-0.73-1.091v-3.89h-0.14H224.1v3.89c0,0.601-0.33,1.091-0.729,1.091
					l0,0C222.96,165.36,222.63,164.87,222.63,164.27z M233.4,164.27v-5.5c0-0.069,0-0.14,0.01-0.21v-3.899h-0.25
					c0,0.78,0,1.56,0,2.34c0,0.59,0.229,1.77-0.54,1.8c-0.8,0.03-0.59-1.2-0.59-1.74c0-0.779,0.01-1.56,0-2.34
					c-0.011-1.97,0.939-2.09,2.59-2.08c1.57,0,3.21-0.33,3.34,1.94v3.51c-0.03,0.63-0.49,0.95-0.92,0.601
					c-0.29-0.24-0.19-0.841-0.19-1.21v-2.82h-0.229c0,1.29,0,2.58,0,3.859c0.01,0.08,0.02,0.16,0.02,0.25v5.5
					c0,0.601-0.33,1.091-0.739,1.091l0,0c-0.41,0-0.74-0.49-0.74-1.091v-5.5c0-0.029,0-0.05,0-0.079h-0.28c0,0.029,0,0.05,0,0.079
					v5.5c0,0.601-0.33,1.091-0.74,1.091l0,0C233.73,165.36,233.4,164.87,233.4,164.27z M229.16,165.36V149.2h1.49v16.16H229.16z
					 M222.94,150.6c0-0.77,0.619-1.4,1.39-1.4c0.76,0,1.39,0.63,1.39,1.4c0,0.78-0.63,1.4-1.39,1.4
					C223.56,152,222.94,151.38,222.94,150.6z M233.64,150.6c0-0.77,0.62-1.4,1.391-1.4c0.77,0,1.39,0.63,1.39,1.4
					c0,0.78-0.62,1.4-1.39,1.4C234.26,152,233.64,151.38,233.64,150.6z"/>
				<rect x="220.26" y="148.28" style="fill-rule:evenodd;clip-rule:evenodd;fill:none;" width="18" height="18"/>
			</g>
			<g>
				<path style="fill-rule:evenodd;clip-rule:evenodd;fill:#FFFFFF;" d="M252.13,163.1v-3.239h-1.24l1.41-4.88
					c-0.149-0.03-0.25,0.1-0.31,0.329l-0.3,1.091c-0.12,0.38-0.44,2.1-1.12,1.64c-0.44-0.29,0.1-1.47,0.21-1.85
					c0.149-0.5,0.38-1.431,0.59-1.881c0.3-0.659,1.229-0.93,2.1-0.92c0.86-0.01,1.79,0.261,2.09,0.92
					c0.21,0.45,0.44,1.381,0.591,1.881c0.109,0.38,0.649,1.56,0.21,1.85c-0.681,0.46-1-1.26-1.12-1.64l-0.3-1.091
					c-0.061-0.229-0.16-0.359-0.311-0.329l1.41,4.88h-1.24v3.239c0,0.5-0.27,0.91-0.609,0.91l0,0c-0.341,0-0.61-0.41-0.61-0.91
					v-3.239h-0.11h-0.12v3.239c0,0.5-0.27,0.91-0.609,0.91l0,0C252.4,164.01,252.13,163.6,252.13,163.1z M261.1,163.1v-4.58
					c0-0.06,0-0.119,0.011-0.17v-3.25h-0.21c0,0.65,0,1.301,0,1.95c0,0.49,0.189,1.47-0.45,1.5c-0.66,0.021-0.49-1.01-0.49-1.46
					c0-0.64,0-1.3,0-1.939c-0.01-1.65,0.78-1.74,2.16-1.74c1.31,0,2.67-0.271,2.78,1.62v2.92c-0.021,0.53-0.41,0.79-0.761,0.51
					c-0.25-0.21-0.17-0.7-0.17-1.01V155.1h-0.18c0,1.07,0,2.141,0,3.221c0.01,0.06,0.01,0.13,0.01,0.199v4.58
					c0,0.5-0.27,0.91-0.62,0.91l0,0c-0.34,0-0.609-0.41-0.609-0.91v-4.58c0-0.02,0-0.039,0-0.06h-0.24c0,0.021,0,0.04,0,0.06v4.58
					c0,0.5-0.271,0.91-0.61,0.91l0,0C261.38,164.01,261.1,163.6,261.1,163.1z M257.57,164.01v-13.46h1.239v13.46H257.57z
					 M252.38,151.72c0-0.649,0.521-1.17,1.16-1.17s1.16,0.521,1.16,1.17c0,0.641-0.521,1.16-1.16,1.16S252.38,152.36,252.38,151.72z
					 M261.3,151.72c0-0.649,0.521-1.17,1.16-1.17s1.16,0.521,1.16,1.17c0,0.641-0.521,1.16-1.16,1.16S261.3,152.36,261.3,151.72z"/>
				<rect x="250.15" y="149.78" style="fill-rule:evenodd;clip-rule:evenodd;fill:none;" width="15" height="15"/>
			</g>
			<g>
				<path style="fill-rule:evenodd;clip-rule:evenodd;fill:#FFFFFF;" d="M278.63,161.94v-2.601h-1l1.14-3.899
					c-0.13-0.021-0.199,0.079-0.25,0.26l-0.25,0.87c-0.09,0.31-0.35,1.68-0.89,1.319c-0.36-0.229,0.08-1.18,0.17-1.479
					c0.12-0.4,0.3-1.15,0.47-1.51c0.24-0.53,0.98-0.74,1.671-0.73c0.699-0.01,1.439,0.2,1.68,0.73c0.17,0.359,0.35,1.109,0.47,1.51
					c0.09,0.3,0.53,1.25,0.17,1.479c-0.54,0.36-0.8-1.01-0.89-1.319l-0.25-0.87c-0.05-0.181-0.12-0.28-0.25-0.26l1.13,3.899h-0.99
					v2.601c0,0.399-0.22,0.72-0.49,0.72l0,0c-0.26,0-0.479-0.32-0.479-0.72v-2.601h-0.1H279.6v2.601c0,0.399-0.22,0.72-0.489,0.72
					l0,0C278.84,162.66,278.63,162.34,278.63,161.94z M285.8,161.94v-3.671c0-0.05,0-0.09,0.01-0.14v-2.59h-0.17
					c0,0.51,0,1.03,0,1.55c0,0.4,0.16,1.18-0.359,1.2c-0.53,0.02-0.391-0.8-0.391-1.16c0-0.52,0-1.04,0-1.56
					c-0.01-1.311,0.62-1.391,1.73-1.391c1.05,0,2.14-0.22,2.22,1.301v2.34c-0.02,0.42-0.33,0.63-0.609,0.399
					c-0.2-0.16-0.131-0.56-0.131-0.81v-1.87h-0.149c0,0.85,0,1.71,0,2.57c0.01,0.05,0.01,0.109,0.01,0.159v3.671
					c0,0.399-0.22,0.72-0.49,0.72l0,0c-0.27,0-0.489-0.32-0.489-0.72v-3.671c0-0.02,0-0.029,0-0.05h-0.19c0,0.021,0,0.03,0,0.05
					v3.671c0,0.399-0.22,0.72-0.49,0.72l0,0C286.02,162.66,285.8,162.34,285.8,161.94z M282.97,162.66V151.9h1v10.76H282.97z
					 M278.83,152.83c0-0.521,0.41-0.93,0.92-0.93c0.52,0,0.93,0.409,0.93,0.93c0,0.51-0.41,0.93-0.93,0.93
					C279.24,153.76,278.83,153.34,278.83,152.83z M285.96,152.83c0-0.521,0.42-0.93,0.93-0.93c0.511,0,0.92,0.409,0.92,0.93
					c0,0.51-0.409,0.93-0.92,0.93C286.38,153.76,285.96,153.34,285.96,152.83z"/>
				<rect x="277.04" y="151.28" style="fill-rule:evenodd;clip-rule:evenodd;fill:none;" width="12" height="12"/>
			</g>
		</g>
	</g>
</g>
<g id="Guides">
</g>
</svg>
