<?xml version="1.0" encoding="iso-8859-1"?>
<!-- Generator: Adobe Illustrator 15.0.0, SVG Export Plug-In . SVG Version: 6.00 Build 0)  -->
<!DOCTYPE svg PUBLIC "-//W3C//DTD SVG 1.1//EN" "http://www.w3.org/Graphics/SVG/1.1/DTD/svg11.dtd">
<svg version="1.1" xmlns="http://www.w3.org/2000/svg" xmlns:xlink="http://www.w3.org/1999/xlink" x="0px" y="0px" width="300px"
	 height="300px" viewBox="0 0 300 300" style="enable-background:new 0 0 300 300;" xml:space="preserve">
<g id="Layer_1">
	<g>
		<rect x="0.56" y="0.44" style="fill-rule:evenodd;clip-rule:evenodd;fill:#666666;" width="300" height="300"/>
		<g>
			<g>
				<path style="fill-rule:evenodd;clip-rule:evenodd;fill:#FFFFFF;" d="M39.17,175.9l0.87-4.04l-0.35-1.04l-6.53-1.37
					c-1.87,0.3-3.73-0.16-5.59-1.21l1.12-1.03c0.81,0.04,1.97-0.4,2.8-0.43l-4.6-4.32c-0.36-0.01-0.54-0.02-0.53-0.04
					c2.14-1.59,10.93-15.33,10.41-19.34l5.67,1.91v-0.81c-0.53-2.06-2.11-3.61-5.07-3.99c1.98-1.99,3.85-4.45,6.11-7.71
					c0.01,0.01,0.02,0.11,0.03,0.31c0.39,0.55,3.61,5.04,4.62,6.51c3.83,3.43,6.99,7.38,9.28,12.69c-1.07-0.98-2.39-1.58-3.99-1.77
					c1.16,1.15,2.22,2.41,3.12,3.78c2.79,3.71,5.36,8.62,4.95,11.62c0,0.05,0,0.1,0,0.14l0.13-0.01l-0.13,0.02
					c-0.01,0.04-0.03,0.08-0.04,0.11c0-0.04,0.01-0.07,0.02-0.11l-5.7,1.36c-3.09,2.95-6.83,3.74-10.84,3.521l-3.52,5.33
					C40.69,175.98,39.26,175.98,39.17,175.9z M42.36,167.81V166l-3.53-0.06v1.85c0.53,0.04,1.09,0.07,1.63,0.08v-1.86h0.44v1.86
					C41.38,167.86,41.87,167.84,42.36,167.81z M45.71,167.38l-2.67-1.37L42.79,166v1.78C43.81,167.69,44.81,167.55,45.71,167.38z
					 M38.4,167.73v-1.801l-0.43-0.01l-1.03,1.55C37.41,167.59,37.89,167.67,38.4,167.73z M35.05,167.04l1.03-1.46
					c2.63-0.13,6-0.4,6.36-0.13v-2.88c-4.89-0.051-13.03-0.051-15.4-0.11l5.25,4.94C33.07,167.43,34.15,167.1,35.05,167.04z
					 M32.13,167.38l-0.29-0.26C31.91,167.25,31.98,167.36,32.13,167.38L32.13,167.38z M46.57,166.96l8.42-0.68
					c-2.44-1.41-5.13-2.17-8.42-1.391l-1.46,1.38L46.57,166.96z M55.43,166.26l6.04-0.5c0.01-0.04,0.02-0.09,0.02-0.14
					c-0.07-1.5-3.85-6.84-8.12-7.13l-0.53,0.5C54.74,162.5,55.83,165.47,55.43,166.26z M45,166.21l1.53-1.53
					c0.72-3.569,0.46-6.81-0.25-9.91c-1.06,1.141-2.06,2.181-2.8,2.91v7.9h0.17L45,166.21z M42.44,165.45v0.13
					C42.49,165.53,42.49,165.49,42.44,165.45z M52.79,158.9l0.54-0.511c-0.99-2.84-2.08-5.359-3.37-7.6
					c-0.42,0.46-0.87,0.95-1.33,1.45C50.18,154.43,51.63,156.77,52.79,158.9z M46.26,154.65c-0.68-2.92-1.75-5.71-2.78-8.521
					c0,0.07,0,0.15,0,0.24v11.18C44.21,156.81,45.2,155.78,46.26,154.65z M49.9,150.7c-1.71-2.94-3.78-5.36-6.4-7.28
					c-0.01,0.42-0.01,0.86-0.02,2.55v-0.01c0-0.48,0-0.39,0,0.03c0-0.01,0,0,0,0.03v0.03l0,0l0,0l0,0c0,0.01,0,0.01,0,0.02v-0.01
					v0.02v-0.02c0,0,0-0.01,0,0c0-0.01,0-0.01,0,0c0,0,0,0,0,0.01l0,0c0.01-0.93,0.01-0.9,0-0.01c0-0.12,0-0.03,0,0.07l0,0
					c1.68,1.57,3.45,3.71,5.09,6.021C49.03,151.65,49.47,151.16,49.9,150.7z M50.35,147.56l-2.48-8.45
					c-1.08-1.57-3.75-5.29-4.36-6.14c0.04,1.26,0.03,4.88-0.01,10.44C45.69,144.46,48.08,145.84,50.35,147.56z M43.48,146.13
					L43.48,146.13L43.48,146.13z M43.48,146.13L43.48,146.13L43.48,146.13L43.48,146.13z M43.48,146.12L43.48,146.12
					c0-0.01,0,0,0,0.01V146.12z M43.48,146.11v0.01v0.01c0,0,0,0,0-0.01l0,0c0,0.01,0,0.01,0,0.01S43.48,146.12,43.48,146.11z
					 M43.48,146.12C43.48,146.11,43.48,146.11,43.48,146.12L43.48,146.12z M43.48,146.12L43.48,146.12L43.48,146.12L43.48,146.12z
					 M43.48,146.12L43.48,146.12C43.48,146.11,43.48,146.1,43.48,146.12L43.48,146.12L43.48,146.12z M43.48,146.12L43.48,146.12
					L43.48,146.12z M43.48,146.11L43.48,146.11L43.48,146.11L43.48,146.11c0,0,0,0,0,0.01C43.48,146.11,43.48,146.11,43.48,146.11
					L43.48,146.11L43.48,146.11c0,0,0,0,0,0.01l0,0l0,0l0,0C43.48,146.11,43.48,146.11,43.48,146.11z M43.48,146.1
					c0,0.01,0,0.01,0,0.02C43.48,146.11,43.48,146.1,43.48,146.1z M43.48,146.11L43.48,146.11c0,0,0,0,0,0.01l0,0
					C43.48,146.11,43.48,146.11,43.48,146.11z M43.48,146.12v-0.01l0,0l0,0l0,0l0,0l0,0l0,0l0,0l0,0l0,0l0,0l0,0l0,0l0,0l0,0l0,0
					l0,0l0,0l0,0l0,0l0,0l0,0V146.12z M43.48,146.11c0,0,0,0,0,0.01C43.48,146.11,43.48,146.11,43.48,146.11z M43.48,146.11
					c0,0,0,0,0,0.01C43.48,146.11,43.48,146.11,43.48,146.11z M43.48,146.11L43.48,146.11L43.48,146.11L43.48,146.11L43.48,146.11z
					 M43.48,146.11L43.48,146.11L43.48,146.11z M43.48,146.11L43.48,146.11L43.48,146.11L43.48,146.11z M43.48,146.11L43.48,146.11
					L43.48,146.11L43.48,146.11C43.48,146.1,43.48,146.1,43.48,146.11z M43.48,146.11L43.48,146.11L43.48,146.11L43.48,146.11
					L43.48,146.11z M43.48,146.11L43.48,146.11L43.48,146.11L43.48,146.11z M43.48,146.11L43.48,146.11L43.48,146.11L43.48,146.11
					L43.48,146.11z M43.48,146.11L43.48,146.11L43.48,146.11L43.48,146.11z M43.48,146.11C43.48,146.1,43.48,146.11,43.48,146.11
					L43.48,146.11L43.48,146.11z M43.48,146.11L43.48,146.11L43.48,146.11L43.48,146.11z M43.48,146.1L43.48,146.1v0.01l0,0l0,0
					V146.1z M43.48,146.11L43.48,146.11L43.48,146.11z M43.48,146.11L43.48,146.11L43.48,146.11L43.48,146.11L43.48,146.11z
					 M43.48,146.11L43.48,146.11L43.48,146.11L43.48,146.11z M43.48,146.11L43.48,146.11L43.48,146.11L43.48,146.11z M43.48,146.11
					L43.48,146.11L43.48,146.11L43.48,146.11L43.48,146.11L43.48,146.11z M43.48,146.11L43.48,146.11v-0.01
					C43.48,146.08,43.48,146.09,43.48,146.11z M43.48,146.11L43.48,146.11c0-0.01,0-0.01,0-0.01l0,0c0-0.01,0-0.01,0-0.01v0.01
					V146.11z M43.48,146.1L43.48,146.1L43.48,146.1v0.01V146.1z M43.48,146.1L43.48,146.1L43.48,146.1L43.48,146.1L43.48,146.1
					L43.48,146.1L43.48,146.1z M43.48,146.1L43.48,146.1L43.48,146.1L43.48,146.1z M43.48,146.1 M43.48,146.1L43.48,146.1
					L43.48,146.1L43.48,146.1z M43.48,146.1L43.48,146.1L43.48,146.1c0-0.01,0-0.02,0-0.02c0-0.01,0-0.02,0-0.01v0.01V146.1
					L43.48,146.1z M43.48,146.1v-0.01l0,0l0,0C43.48,146.08,43.48,146.08,43.48,146.1L43.48,146.1z M43.48,146.1v-0.02l0,0l0,0v0.01
					V146.1z M43.48,146.09v-0.01l0,0V146.09z M43.48,146.06c0,0,0,0.01,0,0.02c0,0,0,0,0,0.01
					C43.48,146.08,43.48,146.07,43.48,146.06z M43.48,146.07v0.01l0,0l0,0l0,0l0,0l0,0l0,0l0,0l0,0l0,0
					C43.48,146.08,43.48,146.08,43.48,146.07z M43.48,146.08L43.48,146.08L43.48,146.08L43.48,146.08z M43.48,146.08L43.48,146.08
					L43.48,146.08z M43.48,146.08L43.48,146.08L43.48,146.08z M43.48,146.08L43.48,146.08L43.48,146.08z M43.48,146.08L43.48,146.08
					L43.48,146.08z M43.48,146.08v-0.01C43.48,146.07,43.48,146.07,43.48,146.08L43.48,146.08z M43.48,146.07v0.01
					C43.48,146.07,43.48,146.07,43.48,146.07z M43.48,146.07v0.01l0,0V146.07z M43.48,146.07v0.01
					C43.48,146.07,43.48,146.07,43.48,146.07z M43.48,146.07v0.01V146.07L43.48,146.07L43.48,146.07v0.01V146.07L43.48,146.07z
					 M43.48,146.08v-0.01l0,0V146.08z M43.48,146.07L43.48,146.07L43.48,146.07z M43.48,146.07
					C43.48,146.06,43.48,146.06,43.48,146.07C43.48,146.07,43.48,146.06,43.48,146.07z M43.48,146.07L43.48,146.07L43.48,146.07z
					 M43.48,146.05L43.48,146.05L43.48,146.05z M43.48,146.05L43.48,146.05L43.48,146.05L43.48,146.05z M43.48,146.05L43.48,146.05
					C43.48,146.04,43.48,146.05,43.48,146.05L43.48,146.05L43.48,146.05C43.48,146.04,43.48,146.02,43.48,146.05z M43.48,146.05
					L43.48,146.05L43.48,146.05z M43.48,146.05L43.48,146.05L43.48,146.05z M43.48,146.05v-0.01
					C43.48,146.02,43.48,146.03,43.48,146.05C43.48,146.04,43.48,146.05,43.48,146.05S43.48,146.04,43.48,146.05z M43.48,146.04
					v0.01V146.04z M43.48,146.04v0.01C43.48,146.04,43.48,146.04,43.48,146.04z M43.48,146.04
					C43.48,146.01,43.48,146.03,43.48,146.04L43.48,146.04z M43.48,146.04L43.48,146.04L43.48,146.04z M43.48,146.03
					C43.48,146.02,43.48,146.01,43.48,146.03v0.01c0-0.03,0-0.01,0,0V146.03z M43.48,146.04v-0.01V146.04L43.48,146.04z M43.48,146
					L43.48,146c0-0.01,0-0.03,0-0.04c0-0.03,0-0.02,0,0.08C43.48,146.02,43.48,146,43.48,146z M43.48,146.01V146l0,0v0.03
					C43.48,146.01,43.48,146.01,43.48,146.01z M43.48,146.02v-0.01v0.02V146.02z M43.48,145.99c0,0.01,0,0.01,0,0.02l0,0
					C43.48,146,43.48,146,43.48,145.99z M43.48,145.98c0,0.01,0,0.01,0,0.02l0,0V145.98z M43.48,145.97v-0.01c0,0.01,0,0.02,0,0.02
					S43.48,145.98,43.48,145.97z"/>
				<rect x="21.49" y="131.73" style="fill-rule:evenodd;clip-rule:evenodd;fill:none;" width="45" height="45"/>
			</g>
			<g>
				<path style="fill-rule:evenodd;clip-rule:evenodd;fill:#FFFFFF;" d="M89.42,171.56l0.69-3.229l-0.27-0.83l-5.23-1.1
					c-1.49,0.25-2.98-0.12-4.47-0.96l0.89-0.82c0.66,0.02,1.58-0.32,2.25-0.351l-3.69-3.46c-0.28,0-0.43-0.01-0.42-0.02
					c1.71-1.28,8.74-12.27,8.33-15.48l4.54,1.53v-0.65c-0.43-1.65-1.69-2.88-4.06-3.19c1.59-1.59,3.08-3.56,4.88-6.17
					c0.01,0.01,0.02,0.09,0.03,0.25c0.31,0.44,2.89,4.03,3.69,5.21c3.07,2.74,5.6,5.9,7.43,10.15c-0.86-0.78-1.91-1.271-3.19-1.421
					c0.92,0.921,1.77,1.931,2.5,3.021c2.23,2.979,4.28,6.9,3.96,9.3c0,0.04,0,0.08-0.01,0.12l0.11-0.01l-0.11,0.01
					c-0.01,0.03-0.02,0.06-0.03,0.09c0-0.03,0.01-0.06,0.02-0.08l-4.56,1.08c-2.47,2.36-5.47,2.99-8.67,2.82l-2.82,4.26
					C90.64,171.63,89.49,171.63,89.42,171.56z M91.97,165.1v-1.449l-2.82-0.051v1.48c0.42,0.03,0.87,0.05,1.3,0.06v-1.479h0.35
					v1.479C91.19,165.14,91.58,165.12,91.97,165.1z M94.65,164.75l-2.13-1.09l-0.21-0.01v1.42C93.13,165,93.93,164.89,94.65,164.75z
					 M88.8,165.03v-1.44h-0.34l-0.83,1.23C88.01,164.92,88.4,164.98,88.8,165.03z M86.12,164.48l0.83-1.171
					c2.1-0.109,4.79-0.319,5.09-0.1v-2.3c-3.92-0.05-10.43-0.05-12.33-0.09l4.21,3.939C84.54,164.79,85.4,164.53,86.12,164.48z
					 M83.79,164.75l-0.23-0.21c0.05,0.1,0.11,0.2,0.22,0.21H83.79z M95.34,164.41l6.73-0.54c-1.95-1.12-4.1-1.74-6.73-1.11
					l-1.17,1.101L95.34,164.41z M102.42,163.86l4.84-0.4c0-0.04,0.01-0.08,0.02-0.12c-0.06-1.2-3.08-5.47-6.5-5.7l-0.43,0.4
					C101.88,160.85,102.74,163.22,102.42,163.86z M94.09,163.82l1.22-1.23c0.57-2.859,0.37-5.45-0.2-7.93
					c-0.85,0.91-1.65,1.75-2.25,2.33v6.319H93L94.09,163.82z M92.04,163.21v0.1C92.07,163.27,92.07,163.24,92.04,163.21z
					 M100.31,157.97l0.44-0.41c-0.79-2.27-1.67-4.29-2.7-6.079c-0.34,0.369-0.7,0.76-1.06,1.159
					C98.23,154.39,99.38,156.26,100.31,157.97z M95.09,154.56c-0.54-2.329-1.4-4.56-2.23-6.81c0,0.06,0,0.12,0,0.19v8.95
					C93.45,156.3,94.24,155.47,95.09,154.56z M98.01,151.41c-1.37-2.35-3.03-4.29-5.13-5.83c0,0.34,0,0.69-0.02,2.05v-0.01
					c0.01-0.39,0.01-0.31,0,0.02c0-0.01,0,0,0,0.03v0.02l0,0l0,0l0,0v0.01v-0.01v0.02v-0.02l0,0l0,0c0,0,0,0.01,0,0.02v-0.01
					c0.01-0.74,0.01-0.71,0-0.01c0-0.09,0-0.02,0,0.06l0,0c1.35,1.26,2.76,2.97,4.08,4.82C97.31,152.17,97.66,151.78,98.01,151.41z
					 M98.36,148.89l-1.98-6.76c-0.87-1.25-3-4.23-3.49-4.9c0.03,1,0.02,3.89-0.01,8.34C94.63,146.41,96.55,147.52,98.36,148.89z
					 M92.86,147.75L92.86,147.75L92.86,147.75z M92.86,147.75L92.86,147.75L92.86,147.75L92.86,147.75z M92.86,147.74L92.86,147.74
					c0-0.01,0,0,0,0.01V147.74z M92.86,147.74L92.86,147.74v0.01C92.86,147.75,92.86,147.75,92.86,147.74L92.86,147.74
					c0,0.01,0,0.01,0,0.01V147.74z M92.86,147.74L92.86,147.74L92.86,147.74z M92.86,147.74L92.86,147.74L92.86,147.74L92.86,147.74
					z M92.86,147.74L92.86,147.74C92.86,147.73,92.86,147.73,92.86,147.74L92.86,147.74L92.86,147.74z M92.86,147.74L92.86,147.74
					L92.86,147.74z M92.86,147.73L92.86,147.73v0.01l0,0l0,0l0,0l0,0l0,0l0,0l0,0l0,0l0,0C92.86,147.74,92.86,147.74,92.86,147.73z
					 M92.86,147.73v0.01C92.86,147.73,92.86,147.73,92.86,147.73z M92.86,147.74v-0.01V147.74L92.86,147.74L92.86,147.74z
					 M92.86,147.74L92.86,147.74L92.86,147.74L92.86,147.74v-0.01l0,0l0,0V147.74v-0.01C92.86,147.74,92.86,147.74,92.86,147.74
					L92.86,147.74C92.86,147.73,92.86,147.73,92.86,147.74L92.86,147.74C92.86,147.73,92.86,147.73,92.86,147.74L92.86,147.74
					L92.86,147.74L92.86,147.74L92.86,147.74L92.86,147.74L92.86,147.74L92.86,147.74c0-0.01,0-0.01,0-0.01
					S92.86,147.73,92.86,147.74L92.86,147.74z M92.86,147.74L92.86,147.74L92.86,147.74z M92.86,147.74L92.86,147.74L92.86,147.74z
					 M92.86,147.74L92.86,147.74L92.86,147.74L92.86,147.74L92.86,147.74z M92.86,147.74L92.86,147.74L92.86,147.74z M92.86,147.74
					L92.86,147.74L92.86,147.74L92.86,147.74z M92.86,147.74v-0.01V147.74L92.86,147.74C92.86,147.73,92.86,147.73,92.86,147.74z
					 M92.86,147.74v-0.01l0,0V147.74L92.86,147.74z M92.86,147.73L92.86,147.73L92.86,147.73L92.86,147.73z M92.86,147.73
					L92.86,147.73L92.86,147.73L92.86,147.73L92.86,147.73z M92.86,147.73L92.86,147.73L92.86,147.73L92.86,147.73z M92.86,147.73
					L92.86,147.73L92.86,147.73L92.86,147.73z M92.86,147.73L92.86,147.73L92.86,147.73L92.86,147.73z M92.86,147.73L92.86,147.73
					L92.86,147.73L92.86,147.73L92.86,147.73L92.86,147.73z M92.86,147.73L92.86,147.73L92.86,147.73z M92.86,147.73L92.86,147.73
					L92.86,147.73L92.86,147.73L92.86,147.73z M92.86,147.73L92.86,147.73L92.86,147.73L92.86,147.73z M92.86,147.73L92.86,147.73
					L92.86,147.73L92.86,147.73z M92.86,147.73L92.86,147.73L92.86,147.73L92.86,147.73L92.86,147.73L92.86,147.73z M92.86,147.73
					L92.86,147.73L92.86,147.73C92.86,147.71,92.86,147.72,92.86,147.73z M92.86,147.73L92.86,147.73L92.86,147.73L92.86,147.73
					c0-0.01,0-0.01,0-0.01V147.73L92.86,147.73z M92.86,147.73L92.86,147.73L92.86,147.73L92.86,147.73L92.86,147.73z M92.86,147.73
					L92.86,147.73L92.86,147.73L92.86,147.73L92.86,147.73L92.86,147.73L92.86,147.73z M92.86,147.73L92.86,147.73L92.86,147.73
					L92.86,147.73z M92.86,147.73 M92.86,147.73L92.86,147.73L92.86,147.73L92.86,147.73z M92.86,147.73L92.86,147.73L92.86,147.73
					c0-0.01,0-0.02,0-0.02c0-0.01,0-0.01,0-0.01c0,0.01,0,0.01,0,0.01V147.73L92.86,147.73z M92.86,147.73v-0.01l0,0l0,0
					C92.86,147.71,92.86,147.71,92.86,147.73L92.86,147.73z M92.86,147.73v-0.02l0,0l0,0v0.01V147.73z M92.86,147.72v-0.01l0,0
					V147.72z M92.86,147.69c0,0.01,0,0.02,0,0.02s0,0,0,0.01C92.86,147.71,92.86,147.7,92.86,147.69z M92.86,147.71L92.86,147.71
					L92.86,147.71L92.86,147.71L92.86,147.71L92.86,147.71L92.86,147.71L92.86,147.71L92.86,147.71L92.86,147.71L92.86,147.71
					L92.86,147.71z M92.86,147.71L92.86,147.71L92.86,147.71L92.86,147.71z M92.86,147.71L92.86,147.71L92.86,147.71z M92.86,147.71
					L92.86,147.71L92.86,147.71z M92.86,147.71L92.86,147.71L92.86,147.71z M92.86,147.71L92.86,147.71L92.86,147.71z M92.86,147.71
					L92.86,147.71L92.86,147.71L92.86,147.71z M92.86,147.71L92.86,147.71L92.86,147.71z M92.86,147.71L92.86,147.71L92.86,147.71
					L92.86,147.71z M92.86,147.71L92.86,147.71L92.86,147.71z M92.86,147.71L92.86,147.71L92.86,147.71L92.86,147.71L92.86,147.71
					L92.86,147.71L92.86,147.71L92.86,147.71z M92.86,147.71L92.86,147.71L92.86,147.71L92.86,147.71z M92.86,147.71L92.86,147.71
					L92.86,147.71z M92.86,147.7c0,0,0,0,0,0.01C92.86,147.7,92.86,147.7,92.86,147.7z M92.86,147.71v-0.01
					C92.86,147.71,92.86,147.71,92.86,147.71z M92.86,147.69L92.86,147.69L92.86,147.69z M92.86,147.69L92.86,147.69L92.86,147.69
					L92.86,147.69z M92.86,147.69L92.86,147.69C92.86,147.68,92.86,147.69,92.86,147.69L92.86,147.69L92.86,147.69
					C92.86,147.68,92.86,147.66,92.86,147.69z M92.86,147.69L92.86,147.69L92.86,147.69z M92.86,147.69L92.86,147.69L92.86,147.69z
					 M92.86,147.69v-0.01C92.86,147.67,92.86,147.67,92.86,147.69C92.86,147.68,92.86,147.69,92.86,147.69
					S92.86,147.68,92.86,147.69z M92.86,147.68v0.01V147.68z M92.86,147.68v0.01C92.86,147.68,92.86,147.68,92.86,147.68z
					 M92.86,147.68C92.86,147.66,92.86,147.67,92.86,147.68L92.86,147.68z M92.86,147.68L92.86,147.68L92.86,147.68z M92.86,147.67
					C92.86,147.66,92.86,147.66,92.86,147.67v0.01c0-0.02,0-0.01,0,0V147.67z M92.86,147.68v-0.01V147.68L92.86,147.68z
					 M92.86,147.65L92.86,147.65c0-0.01,0-0.02,0-0.03c0-0.03,0-0.02,0,0.06C92.86,147.66,92.86,147.65,92.86,147.65z M92.86,147.66
					c0-0.01,0-0.01,0-0.01l0,0v0.02C92.86,147.66,92.86,147.66,92.86,147.66z M92.86,147.67v-0.01V147.67L92.86,147.67z
					 M92.86,147.64c0,0.01,0,0.01,0,0.02l0,0C92.86,147.65,92.86,147.65,92.86,147.64z M92.86,147.63c0,0.01,0,0.01,0,0.02l0,0
					V147.63z M92.86,147.63v-0.01V147.63L92.86,147.63z"/>
				<rect x="75.28" y="136.23" style="fill-rule:evenodd;clip-rule:evenodd;fill:none;" width="36" height="36"/>
			</g>
			<g>
				<path style="fill-rule:evenodd;clip-rule:evenodd;fill:#FFFFFF;" d="M131.85,168.68l0.57-2.699l-0.22-0.69l-4.36-0.91
					c-1.25,0.2-2.49-0.11-3.73-0.81l0.75-0.681c0.54,0.021,1.31-0.27,1.87-0.29l-3.07-2.88c-0.24-0.01-0.36-0.02-0.35-0.029
					c1.42-1.061,7.28-10.22,6.94-12.891l3.78,1.27v-0.54c-0.36-1.37-1.41-2.4-3.38-2.66c1.32-1.32,2.56-2.97,4.07-5.14
					c0,0.01,0.01,0.08,0.02,0.21c0.26,0.36,2.41,3.36,3.08,4.34c2.55,2.29,4.66,4.92,6.18,8.46c-0.71-0.65-1.59-1.061-2.65-1.181
					c0.77,0.761,1.48,1.601,2.08,2.521c1.86,2.47,3.57,5.74,3.3,7.74c0,0.04,0,0.069-0.01,0.1l0.09-0.01l-0.09,0.01
					c0,0.03-0.01,0.061-0.02,0.08c0-0.03,0.01-0.05,0.01-0.07l-3.8,0.9c-2.06,1.97-4.55,2.49-7.22,2.35l-2.35,3.551
					C132.86,168.73,131.91,168.73,131.85,168.68z M133.97,163.29v-1.21l-2.35-0.04v1.229c0.35,0.03,0.72,0.051,1.09,0.051v-1.23H133
					v1.23C133.32,163.32,133.65,163.31,133.97,163.29z M136.21,163l-1.78-0.91l-0.17-0.01v1.18
					C134.94,163.21,135.6,163.11,136.21,163z M131.33,163.23v-1.2h-0.28l-0.69,1.029C130.67,163.14,131,163.19,131.33,163.23z
					 M129.1,162.77l0.69-0.97c1.75-0.09,3.99-0.27,4.24-0.09v-1.92c-3.27-0.03-8.69-0.03-10.27-0.07l3.5,3.29
					C127.78,163.03,128.5,162.81,129.1,162.77z M127.16,163l-0.2-0.18c0.05,0.09,0.1,0.17,0.19,0.18
					C127.15,163,127.15,163,127.16,163z M136.78,162.72l5.61-0.45c-1.62-0.939-3.41-1.449-5.61-0.93l-0.97,0.92L136.78,162.72z
					 M142.68,162.25l4.03-0.33c0.01-0.03,0.01-0.06,0.02-0.1c-0.05-1-2.57-4.561-5.42-4.75l-0.35,0.34
					C142.23,159.75,142.95,161.72,142.68,162.25z M135.74,162.22l1.02-1.02c0.47-2.38,0.3-4.54-0.17-6.61
					c-0.71,0.76-1.38,1.45-1.87,1.94v5.27h0.11L135.74,162.22z M134.03,161.71v0.09C134.06,161.77,134.06,161.74,134.03,161.71z
					 M140.93,157.35l0.36-0.35c-0.66-1.89-1.39-3.57-2.25-5.06c-0.28,0.31-0.58,0.63-0.89,0.96
					C139.19,154.36,140.15,155.92,140.93,157.35z M136.57,154.51c-0.45-1.95-1.16-3.81-1.85-5.68c0,0.05,0,0.1,0,0.16v7.46
					C135.21,155.95,135.87,155.26,136.57,154.51z M139,151.88c-1.14-1.96-2.52-3.58-4.27-4.86c0,0.28,0,0.58-0.01,1.71v-0.01
					c0-0.32,0-0.26,0,0.02c0-0.01,0,0,0,0.02v0.02l0,0l0,0l0,0v0.01v-0.01v0.02v-0.02l0,0l0,0v0.01l0,0c0-0.62,0-0.6,0-0.01
					c0-0.07,0-0.01,0,0.05l0,0c1.12,1.05,2.3,2.479,3.39,4.02C138.42,152.51,138.72,152.19,139,151.88z M139.3,149.78l-1.65-5.63
					c-0.73-1.04-2.5-3.52-2.91-4.09c0.02,0.84,0.02,3.25-0.01,6.96C136.19,147.72,137.79,148.64,139.3,149.78z M134.72,148.83
					L134.72,148.83L134.72,148.83z M134.72,148.83L134.72,148.83L134.72,148.83L134.72,148.83z M134.72,148.83v-0.01V148.83
					L134.72,148.83z M134.72,148.82L134.72,148.82c0,0.01,0,0.01,0,0.01l0,0l0,0l0,0C134.72,148.83,134.72,148.83,134.72,148.82z
					 M134.72,148.83C134.72,148.82,134.72,148.82,134.72,148.83L134.72,148.83z M134.72,148.83L134.72,148.83L134.72,148.83
					L134.72,148.83z M134.72,148.83v-0.01c0,0,0-0.01,0,0V148.83L134.72,148.83z M134.72,148.82c0,0,0,0,0,0.01
					C134.72,148.82,134.72,148.82,134.72,148.82z M134.72,148.82L134.72,148.82L134.72,148.82L134.72,148.82L134.72,148.82
					L134.72,148.82L134.72,148.82L134.72,148.82L134.72,148.82c0,0,0,0,0,0.01C134.72,148.82,134.72,148.82,134.72,148.82
					s0,0,0,0.01C134.72,148.82,134.72,148.82,134.72,148.82z M134.72,148.81c0,0.01,0,0.01,0,0.02
					C134.72,148.82,134.72,148.81,134.72,148.81z M134.72,148.82L134.72,148.82c0,0,0,0,0,0.01l0,0
					C134.72,148.82,134.72,148.82,134.72,148.82z M134.72,148.82L134.72,148.82L134.72,148.82L134.72,148.82L134.72,148.82
					L134.72,148.82L134.72,148.82L134.72,148.82L134.72,148.82L134.72,148.82L134.72,148.82L134.72,148.82L134.72,148.82
					L134.72,148.82L134.72,148.82L134.72,148.82L134.72,148.82L134.72,148.82L134.72,148.82L134.72,148.82L134.72,148.82
					L134.72,148.82L134.72,148.82L134.72,148.82z M134.72,148.82L134.72,148.82L134.72,148.82z M134.72,148.82L134.72,148.82
					L134.72,148.82z M134.72,148.82L134.72,148.82L134.72,148.82L134.72,148.82L134.72,148.82z M134.72,148.82L134.72,148.82
					L134.72,148.82z M134.72,148.82L134.72,148.82L134.72,148.82L134.72,148.82z M134.72,148.82L134.72,148.82L134.72,148.82
					L134.72,148.82C134.72,148.81,134.72,148.81,134.72,148.82z M134.72,148.82L134.72,148.82L134.72,148.82L134.72,148.82
					L134.72,148.82z M134.72,148.82L134.72,148.82L134.72,148.82L134.72,148.82z M134.72,148.82L134.72,148.82L134.72,148.82
					L134.72,148.82L134.72,148.82z M134.72,148.82L134.72,148.82L134.72,148.82L134.72,148.82z M134.72,148.82
					C134.72,148.81,134.72,148.82,134.72,148.82L134.72,148.82L134.72,148.82z M134.72,148.82L134.72,148.82L134.72,148.82
					L134.72,148.82z M134.72,148.81L134.72,148.81v0.01l0,0l0,0V148.81z M134.72,148.82L134.72,148.82L134.72,148.82z
					 M134.72,148.82L134.72,148.82L134.72,148.82L134.72,148.82L134.72,148.82z M134.72,148.82L134.72,148.82L134.72,148.82
					L134.72,148.82z M134.72,148.82L134.72,148.82L134.72,148.82L134.72,148.82z M134.72,148.82L134.72,148.82L134.72,148.82
					L134.72,148.82L134.72,148.82L134.72,148.82z M134.72,148.82L134.72,148.82v-0.01C134.72,148.8,134.72,148.81,134.72,148.82z
					 M134.72,148.82L134.72,148.82c0-0.01,0-0.01,0-0.01l0,0c0-0.01,0-0.01,0,0l0,0V148.82z M134.72,148.81L134.72,148.81
					L134.72,148.81v0.01V148.81z M134.72,148.81L134.72,148.81L134.72,148.81L134.72,148.81L134.72,148.81L134.72,148.81
					L134.72,148.81z M134.72,148.81L134.72,148.81L134.72,148.81L134.72,148.81z M134.72,148.81 M134.72,148.81L134.72,148.81
					L134.72,148.81L134.72,148.81z M134.72,148.81L134.72,148.81L134.72,148.81v-0.01c0-0.01,0-0.01,0-0.01v0.01V148.81
					L134.72,148.81z M134.72,148.81L134.72,148.81v-0.01l0,0C134.72,148.8,134.72,148.8,134.72,148.81L134.72,148.81z
					 M134.72,148.81v-0.01l0,0l0,0l0,0V148.81z M134.72,148.8L134.72,148.8L134.72,148.8L134.72,148.8z M134.72,148.78
					c0,0.01,0,0.01,0,0.02l0,0C134.72,148.8,134.72,148.79,134.72,148.78z M134.72,148.79v0.01l0,0l0,0l0,0l0,0l0,0l0,0l0,0l0,0l0,0
					C134.72,148.8,134.72,148.8,134.72,148.79z M134.72,148.8L134.72,148.8L134.72,148.8L134.72,148.8z M134.72,148.8L134.72,148.8
					L134.72,148.8z M134.72,148.8L134.72,148.8L134.72,148.8z M134.72,148.8L134.72,148.8L134.72,148.8z M134.72,148.8L134.72,148.8
					L134.72,148.8z M134.72,148.8v-0.01C134.72,148.79,134.72,148.79,134.72,148.8L134.72,148.8z M134.72,148.79v0.01
					C134.72,148.79,134.72,148.79,134.72,148.79z M134.72,148.79v0.01l0,0V148.79z M134.72,148.79v0.01
					C134.72,148.79,134.72,148.79,134.72,148.79z M134.72,148.79v0.01V148.79L134.72,148.79L134.72,148.79v0.01V148.79
					L134.72,148.79z M134.72,148.8v-0.01l0,0V148.8z M134.72,148.79L134.72,148.79L134.72,148.79z M134.72,148.79L134.72,148.79
					L134.72,148.79z M134.72,148.79L134.72,148.79L134.72,148.79z M134.72,148.78L134.72,148.78L134.72,148.78z M134.72,148.78
					L134.72,148.78L134.72,148.78L134.72,148.78z M134.72,148.78L134.72,148.78C134.72,148.77,134.72,148.78,134.72,148.78
					L134.72,148.78L134.72,148.78C134.72,148.77,134.72,148.76,134.72,148.78z M134.72,148.78L134.72,148.78L134.72,148.78z
					 M134.72,148.78L134.72,148.78L134.72,148.78z M134.72,148.78v-0.01C134.72,148.76,134.72,148.77,134.72,148.78
					C134.72,148.77,134.72,148.78,134.72,148.78S134.72,148.77,134.72,148.78z M134.72,148.77v0.01V148.77z M134.72,148.77v0.01
					C134.72,148.77,134.72,148.77,134.72,148.77z M134.72,148.77C134.72,148.75,134.72,148.76,134.72,148.77L134.72,148.77z
					 M134.72,148.77L134.72,148.77L134.72,148.77z M134.72,148.76C134.72,148.76,134.72,148.75,134.72,148.76v0.01
					c0-0.02,0-0.01,0,0C134.72,148.77,134.72,148.77,134.72,148.76z M134.72,148.77L134.72,148.77L134.72,148.77L134.72,148.77z
					 M134.72,148.75L134.72,148.75c0-0.01,0-0.02,0-0.03c0-0.02,0-0.01,0,0.05C134.72,148.76,134.72,148.75,134.72,148.75z
					 M134.72,148.75L134.72,148.75L134.72,148.75v0.02C134.72,148.75,134.72,148.75,134.72,148.75z M134.72,148.76v-0.01V148.76
					L134.72,148.76z M134.72,148.74v0.01l0,0V148.74z M134.72,148.73c0,0.01,0,0.01,0,0.02l0,0V148.73z M134.72,148.73v-0.01
					C134.72,148.73,134.72,148.73,134.72,148.73L134.72,148.73z"/>
				<rect x="120.06" y="139.23" style="fill-rule:evenodd;clip-rule:evenodd;fill:none;" width="30" height="30"/>
			</g>
			<g>
				<path style="fill-rule:evenodd;clip-rule:evenodd;fill:#FFFFFF;" d="M167.69,165.07l0.43-2.03l-0.17-0.51l-3.271-0.69
					c-0.93,0.15-1.859-0.08-2.79-0.6l0.551-0.521c0.409,0.021,0.989-0.2,1.409-0.21l-2.31-2.16c-0.17-0.01-0.271-0.01-0.26-0.02
					c1.069-0.8,5.46-7.67,5.21-9.67l2.83,0.95v-0.4c-0.271-1.03-1.051-1.81-2.53-2c0.99-0.99,1.92-2.22,3.05-3.85
					c0,0,0.01,0.05,0.01,0.15c0.2,0.28,1.811,2.52,2.311,3.26c1.92,1.71,3.5,3.69,4.64,6.34c-0.53-0.49-1.189-0.79-1.99-0.88
					c0.58,0.569,1.11,1.199,1.561,1.89c1.399,1.85,2.68,4.3,2.479,5.81c0,0.021,0,0.051-0.01,0.07l0.07-0.01l-0.07,0.01
					c0,0.02-0.01,0.04-0.02,0.05c0.01-0.01,0.01-0.03,0.02-0.05l-2.85,0.68c-1.55,1.48-3.42,1.87-5.42,1.761l-1.761,2.67
					C168.45,165.11,167.73,165.11,167.69,165.07z M169.28,161.02v-0.899l-1.761-0.03v0.92c0.261,0.021,0.54,0.04,0.811,0.04v-0.93
					h0.22v0.93C168.79,161.05,169.04,161.04,169.28,161.02z M170.96,160.81l-1.34-0.689h-0.13v0.89
					C170.01,160.96,170.5,160.89,170.96,160.81z M167.3,160.98v-0.9h-0.21l-0.52,0.77C166.8,160.91,167.05,160.95,167.3,160.98z
					 M165.62,160.64l0.52-0.729c1.32-0.07,3-0.2,3.181-0.07V158.4c-2.45-0.021-6.511-0.021-7.7-0.051l2.63,2.471
					C164.63,160.83,165.17,160.67,165.62,160.64z M164.17,160.81l-0.15-0.13c0.04,0.061,0.07,0.12,0.141,0.13H164.17z
					 M171.39,160.59l4.21-0.33c-1.22-0.71-2.569-1.09-4.21-0.7l-0.729,0.69L171.39,160.59z M175.81,160.25l3.03-0.25
					c0-0.03,0-0.05,0.01-0.07c-0.04-0.76-1.93-3.42-4.06-3.569l-0.271,0.25C175.47,158.37,176.01,159.85,175.81,160.25z
					 M170.6,160.22l0.771-0.76c0.36-1.79,0.229-3.41-0.13-4.96c-0.53,0.57-1.03,1.09-1.4,1.46v3.95h0.08L170.6,160.22z
					 M169.32,159.84v0.07C169.35,159.88,169.35,159.86,169.32,159.84z M174.5,156.57l0.27-0.261c-0.5-1.42-1.039-2.68-1.689-3.8
					c-0.21,0.23-0.44,0.48-0.66,0.73C173.19,154.33,173.91,155.5,174.5,156.57z M171.23,154.44c-0.341-1.46-0.87-2.86-1.391-4.26
					c0,0.04,0,0.08,0,0.12v5.59C170.21,155.52,170.7,155.01,171.23,154.44z M173.05,152.47c-0.85-1.47-1.89-2.68-3.2-3.64
					c0,0.21,0,0.43-0.01,1.27l0,0c0-0.24,0-0.2,0,0.01c0,0,0,0,0,0.02v0.01l0,0l0,0l0,0c0,0.01,0,0.01,0,0.01l0,0v0.01v-0.01
					c0,0,0-0.01,0,0c0-0.01,0-0.01,0,0l0,0l0,0c0-0.47,0-0.45,0,0c0-0.06,0-0.02,0,0.03l0,0c0.84,0.79,1.72,1.86,2.54,3.01
					C172.62,152.94,172.84,152.7,173.05,152.47z M173.27,150.9l-1.229-4.23c-0.55-0.78-1.88-2.64-2.18-3.07
					c0.01,0.63,0.01,2.44-0.011,5.22C170.94,149.35,172.14,150.03,173.27,150.9z M169.84,150.18L169.84,150.18L169.84,150.18z
					 M169.84,150.18L169.84,150.18L169.84,150.18L169.84,150.18z M169.84,150.18L169.84,150.18
					C169.84,150.17,169.84,150.18,169.84,150.18L169.84,150.18z M169.84,150.17v0.01l0,0l0,0l0,0l0,0
					C169.84,150.18,169.84,150.18,169.84,150.17z M169.84,150.18C169.84,150.17,169.84,150.17,169.84,150.18L169.84,150.18z
					 M169.84,150.18L169.84,150.18L169.84,150.18L169.84,150.18z M169.84,150.18L169.84,150.18
					C169.84,150.17,169.84,150.17,169.84,150.18L169.84,150.18L169.84,150.18z M169.84,150.18L169.84,150.18L169.84,150.18z
					 M169.84,150.17L169.84,150.17L169.84,150.17L169.84,150.17c0,0,0,0,0,0.01C169.84,150.17,169.84,150.17,169.84,150.17
					L169.84,150.17L169.84,150.17c0,0,0,0,0,0.01l0,0l0,0l0,0C169.84,150.17,169.84,150.17,169.84,150.17z M169.84,150.17
					c0,0,0,0,0,0.01C169.84,150.17,169.84,150.17,169.84,150.17z M169.84,150.17L169.84,150.17c0,0,0,0,0,0.01l0,0
					C169.84,150.17,169.84,150.17,169.84,150.17z M169.84,150.18v-0.01l0,0l0,0l0,0l0,0l0,0l0,0l0,0l0,0l0,0l0,0l0,0l0,0l0,0l0,0
					l0,0l0,0l0,0l0,0l0,0l0,0l0,0V150.18z M169.84,150.17c0,0,0,0,0,0.01C169.84,150.17,169.84,150.17,169.84,150.17z
					 M169.84,150.17c0,0,0,0,0,0.01C169.84,150.17,169.84,150.17,169.84,150.17z M169.84,150.17L169.84,150.17L169.84,150.17
					L169.84,150.17L169.84,150.17z M169.84,150.17L169.84,150.17L169.84,150.17z M169.84,150.17L169.84,150.17L169.84,150.17
					L169.84,150.17z M169.84,150.17L169.84,150.17L169.84,150.17L169.84,150.17L169.84,150.17z M169.84,150.17L169.84,150.17
					L169.84,150.17L169.84,150.17L169.84,150.17z M169.84,150.17L169.84,150.17L169.84,150.17L169.84,150.17z M169.84,150.17
					L169.84,150.17L169.84,150.17L169.84,150.17L169.84,150.17z M169.84,150.17L169.84,150.17L169.84,150.17L169.84,150.17z
					 M169.84,150.17L169.84,150.17L169.84,150.17L169.84,150.17z M169.84,150.17L169.84,150.17L169.84,150.17L169.84,150.17z
					 M169.84,150.17L169.84,150.17L169.84,150.17L169.84,150.17L169.84,150.17L169.84,150.17z M169.84,150.17L169.84,150.17
					L169.84,150.17z M169.84,150.17L169.84,150.17L169.84,150.17L169.84,150.17L169.84,150.17z M169.84,150.17L169.84,150.17
					L169.84,150.17L169.84,150.17z M169.84,150.17L169.84,150.17L169.84,150.17L169.84,150.17z M169.84,150.17L169.84,150.17
					L169.84,150.17L169.84,150.17L169.84,150.17L169.84,150.17z M169.84,150.17L169.84,150.17L169.84,150.17
					C169.84,150.16,169.84,150.16,169.84,150.17z M169.84,150.17L169.84,150.17L169.84,150.17L169.84,150.17c0-0.01,0-0.01,0-0.01
					V150.17L169.84,150.17z M169.84,150.17L169.84,150.17L169.84,150.17L169.84,150.17L169.84,150.17z M169.84,150.17L169.84,150.17
					L169.84,150.17L169.84,150.17L169.84,150.17L169.84,150.17L169.84,150.17z M169.84,150.17L169.84,150.17L169.84,150.17
					L169.84,150.17z M169.84,150.17 M169.84,150.17L169.84,150.17L169.84,150.17L169.84,150.17z M169.84,150.17L169.84,150.17
					L169.84,150.17c0-0.01,0-0.01,0-0.01c0-0.01,0-0.01,0-0.01v0.01V150.17L169.84,150.17z M169.84,150.17v-0.01l0,0l0,0
					C169.84,150.16,169.84,150.16,169.84,150.17L169.84,150.17z M169.84,150.17v-0.01l0,0l0,0l0,0V150.17z M169.84,150.16
					L169.84,150.16L169.84,150.16L169.84,150.16z M169.84,150.15c0,0,0,0,0,0.01l0,0V150.15z M169.84,150.15v0.01l0,0l0,0l0,0l0,0
					l0,0l0,0l0,0l0,0l0,0C169.84,150.16,169.84,150.16,169.84,150.15z M169.84,150.16L169.84,150.16L169.84,150.16L169.84,150.16z
					 M169.84,150.16L169.84,150.16L169.84,150.16z M169.84,150.16L169.84,150.16L169.84,150.16z M169.84,150.16L169.84,150.16
					L169.84,150.16z M169.84,150.16L169.84,150.16L169.84,150.16z M169.84,150.16v-0.01C169.84,150.15,169.84,150.15,169.84,150.16
					L169.84,150.16z M169.84,150.15v0.01C169.84,150.15,169.84,150.15,169.84,150.15z M169.84,150.15v0.01l0,0V150.15z
					 M169.84,150.15v0.01C169.84,150.15,169.84,150.15,169.84,150.15z M169.84,150.15v0.01V150.15L169.84,150.15L169.84,150.15v0.01
					V150.15L169.84,150.15z M169.84,150.16v-0.01l0,0V150.16z M169.84,150.15L169.84,150.15L169.84,150.15z M169.84,150.15
					L169.84,150.15L169.84,150.15z M169.84,150.15L169.84,150.15L169.84,150.15z M169.84,150.14L169.84,150.14L169.84,150.14z
					 M169.84,150.14L169.84,150.14L169.84,150.14L169.84,150.14z M169.84,150.14L169.84,150.14L169.84,150.14L169.84,150.14
					L169.84,150.14C169.84,150.13,169.84,150.13,169.84,150.14z M169.84,150.14L169.84,150.14L169.84,150.14z M169.84,150.14
					L169.84,150.14L169.84,150.14z M169.84,150.14L169.84,150.14C169.84,150.13,169.84,150.13,169.84,150.14L169.84,150.14
					L169.84,150.14z M169.84,150.14L169.84,150.14L169.84,150.14z M169.84,150.14L169.84,150.14L169.84,150.14z M169.84,150.14
					C169.84,150.12,169.84,150.13,169.84,150.14L169.84,150.14z M169.84,150.13v0.01V150.13z M169.84,150.13
					C169.84,150.13,169.84,150.12,169.84,150.13L169.84,150.13c0-0.01,0,0,0,0.01C169.84,150.13,169.84,150.13,169.84,150.13z
					 M169.84,150.13L169.84,150.13v0.01V150.13z M169.84,150.12L169.84,150.12c0-0.01,0-0.02,0-0.02c0-0.02,0-0.01,0,0.03V150.12z
					 M169.84,150.12L169.84,150.12L169.84,150.12v0.01C169.84,150.12,169.84,150.12,169.84,150.12z M169.84,150.13v-0.01V150.13
					L169.84,150.13z M169.84,150.11c0,0.01,0,0.01,0,0.01l0,0C169.84,150.12,169.84,150.12,169.84,150.11z M169.84,150.11
					c0,0,0,0,0,0.01l0,0V150.11z M169.84,150.1L169.84,150.1v0.01C169.84,150.11,169.84,150.11,169.84,150.1z"/>
				<rect x="158.85" y="142.98" style="fill-rule:evenodd;clip-rule:evenodd;fill:none;" width="22.5" height="22.5"/>
			</g>
			<g>
				<path style="fill-rule:evenodd;clip-rule:evenodd;fill:#FFFFFF;" d="M197.79,163.62l0.38-1.75l-0.15-0.45l-2.829-0.59
					c-0.811,0.13-1.62-0.07-2.421-0.53l0.48-0.439c0.35,0.01,0.86-0.181,1.22-0.19l-2-1.87c-0.149-0.01-0.229-0.01-0.229-0.02
					c0.93-0.69,4.74-6.641,4.51-8.38l2.46,0.83v-0.35c-0.229-0.9-0.92-1.57-2.2-1.73c0.86-0.86,1.67-1.93,2.65-3.34
					c0,0,0.01,0.05,0.01,0.13c0.17,0.24,1.57,2.18,2,2.82c1.66,1.49,3.04,3.2,4.03,5.5c-0.47-0.42-1.04-0.68-1.73-0.77
					c0.5,0.5,0.96,1.05,1.351,1.64c1.21,1.61,2.319,3.74,2.149,5.04c0,0.021,0,0.04-0.01,0.061l0.06-0.011l-0.06,0.011
					c0,0.02-0.01,0.039-0.01,0.05c0-0.021,0-0.03,0.01-0.05l-2.47,0.59c-1.34,1.279-2.96,1.62-4.7,1.529l-1.53,2.311
					C198.45,163.66,197.83,163.66,197.79,163.62z M199.17,160.12v-0.79l-1.52-0.03v0.811c0.229,0.02,0.47,0.029,0.699,0.029v-0.8
					h0.19v0.8C198.75,160.14,198.96,160.13,199.17,160.12z M200.63,159.93l-1.16-0.59l-0.109-0.01v0.77
					C199.8,160.06,200.24,160,200.63,159.93z M197.46,160.08v-0.78h-0.19l-0.439,0.67C197.03,160.02,197.24,160.06,197.46,160.08z
					 M196.01,159.78l0.44-0.63c1.14-0.061,2.6-0.17,2.76-0.051v-1.25c-2.12-0.029-5.64-0.029-6.67-0.05l2.27,2.141
					C195.15,159.95,195.62,159.81,196.01,159.78z M194.74,159.93l-0.12-0.109C194.65,159.87,194.68,159.92,194.74,159.93
					L194.74,159.93z M201,159.75l3.65-0.3c-1.061-0.61-2.221-0.94-3.65-0.601l-0.63,0.601L201,159.75z M204.84,159.45l2.62-0.22
					c0-0.021,0-0.04,0.01-0.061c-0.04-0.65-1.67-2.97-3.52-3.09l-0.23,0.22C204.54,157.82,205.01,159.1,204.84,159.45z
					 M200.32,159.42l0.66-0.66c0.31-1.55,0.199-2.95-0.101-4.3c-0.47,0.5-0.899,0.95-1.22,1.271v3.42h0.07L200.32,159.42z
					 M199.21,159.1v0.051C199.23,159.13,199.23,159.11,199.21,159.1z M203.69,156.26l0.239-0.229c-0.43-1.221-0.899-2.32-1.46-3.29
					c-0.189,0.2-0.38,0.41-0.58,0.63C202.56,154.32,203.19,155.33,203.69,156.26z M200.86,154.41c-0.29-1.26-0.75-2.47-1.2-3.69
					c0,0.03,0,0.07,0,0.1v4.85C199.98,155.35,200.41,154.9,200.86,154.41z M202.44,152.7c-0.74-1.271-1.631-2.32-2.771-3.15
					c0,0.18,0,0.37-0.01,1.1l0,0c0-0.21,0-0.17,0,0.01c0,0,0,0,0,0.02v0.01l0,0l0,0l0,0l0,0l0,0v0.01v-0.01l0,0l0,0c0,0,0,0,0,0.01
					v-0.01c0-0.4,0-0.38,0,0c0-0.05,0-0.01,0,0.03l0,0c0.729,0.68,1.49,1.61,2.2,2.61C202.07,153.11,202.26,152.9,202.44,152.7z
					 M202.64,151.34l-1.08-3.66c-0.47-0.68-1.619-2.29-1.89-2.66c0.021,0.54,0.021,2.11,0,4.52
					C200.62,150,201.66,150.59,202.64,151.34z M199.66,150.72L199.66,150.72L199.66,150.72z M199.66,150.72L199.66,150.72
					L199.66,150.72L199.66,150.72z M199.66,150.72L199.66,150.72C199.66,150.71,199.66,150.72,199.66,150.72L199.66,150.72z
					 M199.66,150.71v0.01l0,0l0,0l0,0l0,0C199.66,150.72,199.66,150.72,199.66,150.71z M199.66,150.72
					C199.66,150.71,199.66,150.71,199.66,150.72L199.66,150.72z M199.66,150.72L199.66,150.72L199.66,150.72L199.66,150.72z
					 M199.66,150.72L199.66,150.72C199.66,150.71,199.66,150.71,199.66,150.72L199.66,150.72L199.66,150.72z M199.66,150.72
					L199.66,150.72L199.66,150.72z M199.66,150.71L199.66,150.71L199.66,150.71L199.66,150.71c0,0,0,0,0,0.01
					C199.66,150.71,199.66,150.71,199.66,150.71L199.66,150.71L199.66,150.71c0,0,0,0,0,0.01l0,0l0,0l0,0
					C199.66,150.71,199.66,150.71,199.66,150.71z M199.66,150.71c0,0,0,0,0,0.01C199.66,150.71,199.66,150.71,199.66,150.71z
					 M199.66,150.71L199.66,150.71c0,0,0,0,0,0.01l0,0C199.66,150.71,199.66,150.71,199.66,150.71z M199.66,150.72v-0.01l0,0l0,0
					l0,0l0,0l0,0l0,0l0,0l0,0l0,0l0,0l0,0l0,0l0,0l0,0l0,0l0,0l0,0l0,0l0,0l0,0l0,0V150.72z M199.66,150.71c0,0,0,0,0,0.01
					C199.66,150.71,199.66,150.71,199.66,150.71z M199.66,150.71c0,0,0,0,0,0.01C199.66,150.71,199.66,150.71,199.66,150.71z
					 M199.66,150.71L199.66,150.71L199.66,150.71L199.66,150.71L199.66,150.71z M199.66,150.71L199.66,150.71L199.66,150.71z
					 M199.66,150.71L199.66,150.71L199.66,150.71L199.66,150.71z M199.66,150.71L199.66,150.71L199.66,150.71L199.66,150.71
					L199.66,150.71z M199.66,150.71L199.66,150.71L199.66,150.71L199.66,150.71L199.66,150.71z M199.66,150.71L199.66,150.71
					L199.66,150.71L199.66,150.71z M199.66,150.71L199.66,150.71L199.66,150.71L199.66,150.71L199.66,150.71z M199.66,150.71
					L199.66,150.71L199.66,150.71L199.66,150.71z M199.66,150.71L199.66,150.71L199.66,150.71L199.66,150.71z M199.66,150.71
					L199.66,150.71L199.66,150.71L199.66,150.71z M199.66,150.71L199.66,150.71L199.66,150.71L199.66,150.71L199.66,150.71
					L199.66,150.71z M199.66,150.71L199.66,150.71L199.66,150.71z M199.66,150.71L199.66,150.71L199.66,150.71L199.66,150.71
					L199.66,150.71z M199.66,150.71L199.66,150.71L199.66,150.71L199.66,150.71z M199.66,150.71L199.66,150.71L199.66,150.71
					L199.66,150.71z M199.66,150.71L199.66,150.71L199.66,150.71L199.66,150.71L199.66,150.71L199.66,150.71z M199.66,150.71
					L199.66,150.71L199.66,150.71C199.66,150.7,199.66,150.71,199.66,150.71z M199.66,150.71L199.66,150.71L199.66,150.71
					L199.66,150.71C199.66,150.7,199.66,150.7,199.66,150.71L199.66,150.71L199.66,150.71z M199.66,150.71L199.66,150.71
					L199.66,150.71L199.66,150.71L199.66,150.71z M199.66,150.71L199.66,150.71L199.66,150.71L199.66,150.71L199.66,150.71
					L199.66,150.71L199.66,150.71z M199.66,150.71L199.66,150.71L199.66,150.71L199.66,150.71z M199.66,150.71 M199.66,150.71
					L199.66,150.71L199.66,150.71L199.66,150.71z M199.66,150.71L199.66,150.71L199.66,150.71v-0.01c0-0.01,0-0.01,0-0.01
					c0,0.01,0,0.01,0,0.01V150.71L199.66,150.71z M199.66,150.71L199.66,150.71v-0.01l0,0C199.66,150.7,199.66,150.7,199.66,150.71
					L199.66,150.71z M199.66,150.71v-0.01l0,0l0,0l0,0V150.71z M199.66,150.7L199.66,150.7L199.66,150.7L199.66,150.7z
					 M199.66,150.69v0.01l0,0V150.69z M199.66,150.7L199.66,150.7L199.66,150.7L199.66,150.7L199.66,150.7L199.66,150.7
					L199.66,150.7L199.66,150.7L199.66,150.7L199.66,150.7L199.66,150.7L199.66,150.7z M199.66,150.7L199.66,150.7L199.66,150.7
					L199.66,150.7z M199.66,150.7L199.66,150.7L199.66,150.7z M199.66,150.7L199.66,150.7L199.66,150.7z M199.66,150.7L199.66,150.7
					L199.66,150.7z M199.66,150.7L199.66,150.7L199.66,150.7z M199.66,150.7L199.66,150.7L199.66,150.7L199.66,150.7z M199.66,150.7
					L199.66,150.7L199.66,150.7z M199.66,150.7L199.66,150.7L199.66,150.7L199.66,150.7z M199.66,150.7L199.66,150.7L199.66,150.7z
					 M199.66,150.7L199.66,150.7L199.66,150.7L199.66,150.7L199.66,150.7L199.66,150.7L199.66,150.7L199.66,150.7z M199.66,150.7
					L199.66,150.7L199.66,150.7L199.66,150.7z M199.66,150.7L199.66,150.7L199.66,150.7z M199.66,150.69c0,0,0,0,0,0.01
					C199.66,150.69,199.66,150.69,199.66,150.69z M199.66,150.7v-0.01C199.66,150.7,199.66,150.7,199.66,150.7z M199.66,150.69
					L199.66,150.69L199.66,150.69z M199.66,150.69L199.66,150.69L199.66,150.69L199.66,150.69z M199.66,150.69L199.66,150.69
					C199.66,150.68,199.66,150.69,199.66,150.69L199.66,150.69L199.66,150.69C199.66,150.68,199.66,150.67,199.66,150.69z
					 M199.66,150.69L199.66,150.69L199.66,150.69z M199.66,150.69L199.66,150.69L199.66,150.69z M199.66,150.69v-0.01
					C199.66,150.68,199.66,150.68,199.66,150.69C199.66,150.68,199.66,150.69,199.66,150.69S199.66,150.68,199.66,150.69z
					 M199.66,150.68v0.01V150.68z M199.66,150.68v0.01C199.66,150.68,199.66,150.68,199.66,150.68z M199.66,150.68
					C199.66,150.67,199.66,150.68,199.66,150.68L199.66,150.68z M199.66,150.68L199.66,150.68L199.66,150.68z M199.66,150.68
					C199.66,150.67,199.66,150.67,199.66,150.68L199.66,150.68C199.66,150.67,199.66,150.68,199.66,150.68L199.66,150.68z
					 M199.66,150.68L199.66,150.68L199.66,150.68L199.66,150.68z M199.66,150.67L199.66,150.67c0-0.01,0-0.02,0-0.02
					c0-0.01,0-0.01,0,0.03C199.66,150.67,199.66,150.67,199.66,150.67z M199.66,150.67L199.66,150.67L199.66,150.67v0.01
					C199.66,150.67,199.66,150.67,199.66,150.67z M199.66,150.68v-0.01V150.68L199.66,150.68z M199.66,150.66v0.01l0,0V150.66z
					 M199.66,150.66c0,0,0,0,0,0.01l0,0V150.66z M199.66,150.65L199.66,150.65v0.01C199.66,150.66,199.66,150.66,199.66,150.65z"/>
				<rect x="190.13" y="144.48" style="fill-rule:evenodd;clip-rule:evenodd;fill:none;" width="19.5" height="19.5"/>
			</g>
			<g>
				<path style="fill-rule:evenodd;clip-rule:evenodd;fill:#FFFFFF;" d="M225.49,162.9l0.35-1.62l-0.14-0.41l-2.62-0.55
					c-0.74,0.12-1.49-0.061-2.23-0.48l0.45-0.42c0.32,0.021,0.79-0.16,1.12-0.17l-1.84-1.73c-0.15,0-0.22-0.01-0.21-0.01
					c0.85-0.64,4.36-6.13,4.16-7.74l2.27,0.77v-0.33c-0.22-0.82-0.85-1.44-2.03-1.59c0.79-0.8,1.54-1.78,2.44-3.09
					c0.01,0,0.01,0.05,0.01,0.13c0.16,0.22,1.45,2.01,1.851,2.6c1.529,1.37,2.8,2.95,3.71,5.07c-0.42-0.38-0.95-0.63-1.59-0.7
					c0.46,0.46,0.89,0.96,1.25,1.51c1.109,1.49,2.14,3.45,1.979,4.65c0,0.02,0,0.04-0.01,0.05h0.06l-0.06,0.01
					c0,0.011,0,0.03-0.01,0.04c0-0.01,0-0.029,0.01-0.04l-2.28,0.54c-1.24,1.181-2.729,1.5-4.34,1.41l-1.4,2.13
					C226.1,162.93,225.52,162.93,225.49,162.9z M226.76,159.66v-0.72l-1.41-0.03v0.74c0.221,0.02,0.44,0.029,0.66,0.04v-0.75h0.17
					v0.75C226.37,159.68,226.57,159.68,226.76,159.66z M228.11,159.49l-1.07-0.55h-0.1v0.71
					C227.34,159.62,227.74,159.56,228.11,159.49z M225.18,159.63v-0.72h-0.17l-0.41,0.62C224.78,159.57,224.98,159.61,225.18,159.63
					z M223.84,159.36l0.41-0.591c1.06-0.05,2.4-0.159,2.55-0.05v-1.149c-1.96-0.021-5.21-0.021-6.16-0.051l2.101,1.98
					C223.05,159.51,223.48,159.38,223.84,159.36z M222.67,159.49l-0.11-0.101C222.58,159.44,222.61,159.48,222.67,159.49
					L222.67,159.49z M228.45,159.32l3.37-0.271c-0.98-0.56-2.051-0.87-3.37-0.55l-0.59,0.55L228.45,159.32z M231.99,159.04l2.42-0.2
					c0-0.01,0-0.03,0.01-0.05c-0.03-0.6-1.54-2.74-3.25-2.85l-0.21,0.199C231.72,157.54,232.15,158.73,231.99,159.04z
					 M227.82,159.03l0.609-0.62c0.29-1.43,0.19-2.72-0.1-3.96c-0.42,0.45-0.82,0.87-1.12,1.16v3.159h0.07L227.82,159.03z
					 M226.8,158.72v0.05C226.82,158.75,226.82,158.73,226.8,158.72z M230.94,156.1l0.21-0.199c-0.391-1.141-0.83-2.15-1.351-3.051
					c-0.17,0.19-0.35,0.381-0.53,0.58C229.89,154.31,230.47,155.25,230.94,156.1z M228.32,154.4c-0.271-1.17-0.7-2.29-1.11-3.41
					c0,0.029,0,0.06,0,0.1v4.47C227.5,155.27,227.9,154.85,228.32,154.4z M229.78,152.82c-0.681-1.181-1.511-2.15-2.561-2.91
					c0,0.17,0,0.34-0.01,1.02v-0.01c0-0.19,0-0.15,0,0.02c0-0.01,0-0.01,0,0.01v0.01l0,0l0,0l0,0v0.01v-0.01v0.01v-0.01l0,0l0,0
					v0.01l0,0c0.01-0.38,0.01-0.36,0-0.01c0-0.04,0-0.01,0,0.03l0,0c0.68,0.63,1.38,1.49,2.04,2.41
					C229.43,153.2,229.61,153,229.78,152.82z M229.96,151.56l-0.99-3.379c-0.43-0.62-1.5-2.11-1.75-2.45
					c0.021,0.5,0.021,1.95,0,4.17C228.1,150.32,229.05,150.87,229.96,151.56z M227.21,150.99L227.21,150.99L227.21,150.99z
					 M227.21,150.99L227.21,150.99L227.21,150.99L227.21,150.99z M227.21,150.99L227.21,150.99
					C227.21,150.98,227.21,150.99,227.21,150.99L227.21,150.99z M227.21,150.99L227.21,150.99L227.21,150.99L227.21,150.99
					L227.21,150.99L227.21,150.99L227.21,150.99z M227.21,150.99L227.21,150.99L227.21,150.99z M227.21,150.99L227.21,150.99
					L227.21,150.99L227.21,150.99z M227.21,150.99L227.21,150.99C227.21,150.98,227.21,150.98,227.21,150.99L227.21,150.99
					L227.21,150.99z M227.21,150.99L227.21,150.99L227.21,150.99z M227.21,150.98L227.21,150.98v0.01l0,0l0,0l0,0l0,0l0,0l0,0l0,0
					l0,0l0,0C227.21,150.99,227.21,150.99,227.21,150.98z M227.21,150.98v0.01C227.21,150.98,227.21,150.98,227.21,150.98z
					 M227.21,150.99v-0.01V150.99L227.21,150.99L227.21,150.99z M227.21,150.99L227.21,150.99L227.21,150.99L227.21,150.99v-0.01
					l0,0l0,0V150.99v-0.01C227.21,150.99,227.21,150.99,227.21,150.99L227.21,150.99C227.21,150.98,227.21,150.98,227.21,150.99
					L227.21,150.99C227.21,150.98,227.21,150.98,227.21,150.99L227.21,150.99L227.21,150.99L227.21,150.99L227.21,150.99
					L227.21,150.99L227.21,150.99L227.21,150.99c0-0.01,0-0.01,0-0.01S227.21,150.98,227.21,150.99L227.21,150.99z M227.21,150.99
					L227.21,150.99L227.21,150.99z M227.21,150.99L227.21,150.99L227.21,150.99z M227.21,150.99L227.21,150.99L227.21,150.99
					L227.21,150.99L227.21,150.99z M227.21,150.99L227.21,150.99L227.21,150.99z M227.21,150.99L227.21,150.99L227.21,150.99
					L227.21,150.99z M227.21,150.99v-0.01V150.99L227.21,150.99C227.21,150.98,227.21,150.98,227.21,150.99z M227.21,150.99v-0.01
					l0,0V150.99L227.21,150.99z M227.21,150.98L227.21,150.98L227.21,150.98L227.21,150.98z M227.21,150.98L227.21,150.98
					L227.21,150.98L227.21,150.98L227.21,150.98z M227.21,150.98L227.21,150.98L227.21,150.98L227.21,150.98z M227.21,150.98
					L227.21,150.98L227.21,150.98L227.21,150.98z M227.21,150.98L227.21,150.98L227.21,150.98L227.21,150.98z M227.21,150.98
					L227.21,150.98L227.21,150.98L227.21,150.98L227.21,150.98L227.21,150.98z M227.21,150.98L227.21,150.98L227.21,150.98z
					 M227.21,150.98L227.21,150.98L227.21,150.98L227.21,150.98L227.21,150.98z M227.21,150.98L227.21,150.98L227.21,150.98
					L227.21,150.98z M227.21,150.98L227.21,150.98L227.21,150.98L227.21,150.98z M227.21,150.98L227.21,150.98L227.21,150.98
					L227.21,150.98L227.21,150.98L227.21,150.98z M227.21,150.98L227.21,150.98L227.21,150.98
					C227.21,150.97,227.21,150.98,227.21,150.98z M227.21,150.98L227.21,150.98L227.21,150.98L227.21,150.98L227.21,150.98
					L227.21,150.98L227.21,150.98z M227.21,150.98L227.21,150.98L227.21,150.98L227.21,150.98L227.21,150.98z M227.21,150.98
					L227.21,150.98L227.21,150.98L227.21,150.98L227.21,150.98L227.21,150.98L227.21,150.98z M227.21,150.98L227.21,150.98
					L227.21,150.98L227.21,150.98z M227.21,150.98 M227.21,150.98L227.21,150.98L227.21,150.98L227.21,150.98z M227.21,150.98
					L227.21,150.98L227.21,150.98v-0.01l0,0l0,0V150.98L227.21,150.98z M227.21,150.98L227.21,150.98L227.21,150.98L227.21,150.98
					C227.21,150.97,227.21,150.97,227.21,150.98L227.21,150.98z M227.21,150.98v-0.01l0,0l0,0V150.98L227.21,150.98z M227.21,150.98
					v-0.01l0,0V150.98z M227.21,150.96c0,0.01,0,0.01,0,0.01s0,0,0,0.01C227.21,150.97,227.21,150.97,227.21,150.96z M227.21,150.97
					L227.21,150.97L227.21,150.97L227.21,150.97L227.21,150.97L227.21,150.97L227.21,150.97L227.21,150.97L227.21,150.97
					L227.21,150.97L227.21,150.97L227.21,150.97z M227.21,150.97L227.21,150.97L227.21,150.97L227.21,150.97z M227.21,150.97
					L227.21,150.97L227.21,150.97z M227.21,150.97L227.21,150.97L227.21,150.97z M227.21,150.97L227.21,150.97L227.21,150.97z
					 M227.21,150.97L227.21,150.97L227.21,150.97z M227.21,150.97L227.21,150.97L227.21,150.97L227.21,150.97z M227.21,150.97
					L227.21,150.97L227.21,150.97z M227.21,150.97L227.21,150.97L227.21,150.97L227.21,150.97z M227.21,150.97L227.21,150.97
					L227.21,150.97z M227.21,150.97L227.21,150.97L227.21,150.97L227.21,150.97L227.21,150.97L227.21,150.97L227.21,150.97
					L227.21,150.97z M227.21,150.97L227.21,150.97L227.21,150.97L227.21,150.97z M227.21,150.97L227.21,150.97L227.21,150.97z
					 M227.21,150.97L227.21,150.97L227.21,150.97z M227.21,150.97L227.21,150.97L227.21,150.97z M227.21,150.96L227.21,150.96
					L227.21,150.96z M227.21,150.96L227.21,150.96L227.21,150.96L227.21,150.96z M227.21,150.96L227.21,150.96L227.21,150.96
					L227.21,150.96L227.21,150.96C227.21,150.95,227.21,150.95,227.21,150.96z M227.21,150.96L227.21,150.96L227.21,150.96z
					 M227.21,150.96L227.21,150.96L227.21,150.96z M227.21,150.96L227.21,150.96C227.21,150.95,227.21,150.95,227.21,150.96
					L227.21,150.96L227.21,150.96z M227.21,150.96L227.21,150.96L227.21,150.96z M227.21,150.96L227.21,150.96L227.21,150.96z
					 M227.21,150.96C227.21,150.95,227.21,150.95,227.21,150.96L227.21,150.96z M227.21,150.95v0.01V150.95z M227.21,150.95
					L227.21,150.95L227.21,150.95c0-0.01,0,0,0,0.01C227.21,150.95,227.21,150.95,227.21,150.95z M227.21,150.95L227.21,150.95v0.01
					V150.95z M227.21,150.94L227.21,150.94c0-0.01,0-0.01,0-0.02c0-0.01,0,0,0,0.03V150.94z M227.21,150.94L227.21,150.94
					L227.21,150.94v0.01C227.21,150.94,227.21,150.94,227.21,150.94z M227.21,150.95v-0.01V150.95L227.21,150.95z M227.21,150.94
					L227.21,150.94L227.21,150.94L227.21,150.94z M227.21,150.93v0.01l0,0V150.93z M227.21,150.93v-0.01
					C227.21,150.93,227.21,150.93,227.21,150.93L227.21,150.93z"/>
				<rect x="218.42" y="145.23" style="fill-rule:evenodd;clip-rule:evenodd;fill:none;" width="18" height="18"/>
			</g>
			<g>
				<path style="fill-rule:evenodd;clip-rule:evenodd;fill:#FFFFFF;" d="M251.1,161.45l0.28-1.34l-0.11-0.351l-2.18-0.46
					c-0.62,0.11-1.24-0.05-1.859-0.399l0.369-0.341c0.271,0.011,0.66-0.13,0.94-0.14l-1.54-1.45c-0.12,0-0.18,0-0.17-0.01
					c0.71-0.53,3.64-5.11,3.46-6.45l1.9,0.641v-0.271c-0.181-0.68-0.71-1.2-1.7-1.33c0.67-0.66,1.29-1.48,2.04-2.57
					c0,0,0.01,0.04,0.01,0.11c0.13,0.18,1.2,1.68,1.54,2.17c1.28,1.14,2.33,2.45,3.09,4.221c-0.35-0.32-0.79-0.521-1.33-0.58
					c0.391,0.38,0.74,0.8,1.05,1.25c0.92,1.239,1.78,2.88,1.65,3.88c0,0.01,0,0.029-0.01,0.05l0.05-0.01l-0.05,0.01
					c0,0.01,0,0.02-0.011,0.03c0-0.011,0-0.021,0.011-0.03l-1.9,0.45c-1.03,0.979-2.28,1.25-3.61,1.18l-1.18,1.771
					C251.6,161.48,251.12,161.48,251.1,161.45z M252.16,158.76v-0.609l-1.18-0.021v0.62c0.18,0.02,0.359,0.02,0.55,0.03v-0.62h0.14
					v0.62C251.83,158.78,251.99,158.77,252.16,158.76z M253.27,158.62l-0.88-0.46h-0.09v0.59
					C252.64,158.72,252.97,158.67,253.27,158.62z M250.84,158.73v-0.601h-0.149l-0.341,0.521
					C250.51,158.68,250.67,158.71,250.84,158.73z M249.72,158.5l0.34-0.48c0.881-0.05,2-0.14,2.131-0.05v-0.96
					c-1.641-0.02-4.351-0.01-5.141-0.029l1.75,1.64C249.06,158.63,249.42,158.52,249.72,158.5z M248.75,158.62l-0.1-0.09
					C248.67,158.57,248.7,158.61,248.75,158.62L248.75,158.62z M253.56,158.47l2.811-0.22c-0.82-0.47-1.71-0.73-2.811-0.47
					l-0.489,0.46L253.56,158.47z M256.51,158.24l2.021-0.16c0-0.021,0-0.04,0.01-0.05c-0.03-0.5-1.29-2.28-2.71-2.38l-0.18,0.17
					C256.29,156.99,256.65,157.98,256.51,158.24z M253.04,158.23l0.51-0.511c0.24-1.2,0.15-2.279-0.08-3.31
					c-0.359,0.38-0.689,0.729-0.939,0.97v2.64h0.06L253.04,158.23z M252.19,157.97v0.05C252.2,158,252.2,157.98,252.19,157.97z
					 M255.63,155.79l0.18-0.17c-0.329-0.95-0.689-1.79-1.119-2.54c-0.141,0.16-0.29,0.32-0.44,0.49
					C254.76,154.3,255.25,155.08,255.63,155.79z M253.46,154.37c-0.229-0.97-0.59-1.9-0.93-2.84c0,0.029,0,0.05,0,0.08v3.729
					C252.77,155.09,253.1,154.75,253.46,154.37z M254.67,153.05c-0.57-0.97-1.26-1.78-2.13-2.42c0,0.14,0,0.28-0.01,0.851l0,0
					c0-0.16,0-0.131,0,0.01c0-0.01,0-0.01,0,0.01l0,0l0,0v0.01c0,0,0,0,0-0.01c0,0.01,0,0.01,0,0.01l0,0l0,0l0,0l0,0c0,0,0-0.01,0,0
					l0,0l0,0c0-0.31,0-0.3,0,0c0-0.04,0-0.01,0,0.021l0,0c0.56,0.529,1.149,1.239,1.7,2.01
					C254.38,153.37,254.53,153.21,254.67,153.05z M254.82,152.01l-0.83-2.82c-0.36-0.52-1.25-1.76-1.45-2.04
					c0.01,0.41,0.01,1.62,0,3.48C253.27,150.97,254.07,151.43,254.82,152.01z M252.53,151.53L252.53,151.53L252.53,151.53z
					 M252.53,151.53L252.53,151.53L252.53,151.53L252.53,151.53z M252.53,151.53L252.53,151.53L252.53,151.53L252.53,151.53z
					 M252.53,151.53L252.53,151.53L252.53,151.53L252.53,151.53L252.53,151.53L252.53,151.53L252.53,151.53z M252.53,151.53
					L252.53,151.53L252.53,151.53z M252.53,151.53L252.53,151.53L252.53,151.53L252.53,151.53z M252.53,151.53L252.53,151.53
					C252.53,151.52,252.53,151.52,252.53,151.53L252.53,151.53L252.53,151.53z M252.53,151.53L252.53,151.53L252.53,151.53z
					 M252.53,151.53L252.53,151.53L252.53,151.53L252.53,151.53L252.53,151.53L252.53,151.53L252.53,151.53L252.53,151.53
					L252.53,151.53L252.53,151.53L252.53,151.53L252.53,151.53L252.53,151.53z M252.53,151.52c0,0.011,0,0.011,0,0.011
					C252.53,151.52,252.53,151.52,252.53,151.52z M252.53,151.53L252.53,151.53L252.53,151.53L252.53,151.53L252.53,151.53z
					 M252.53,151.53L252.53,151.53L252.53,151.53L252.53,151.53L252.53,151.53L252.53,151.53L252.53,151.53L252.53,151.53
					L252.53,151.53L252.53,151.53L252.53,151.53C252.53,151.53,252.53,151.52,252.53,151.53L252.53,151.53
					C252.53,151.52,252.53,151.53,252.53,151.53L252.53,151.53L252.53,151.53L252.53,151.53L252.53,151.53L252.53,151.53
					L252.53,151.53L252.53,151.53C252.53,151.53,252.53,151.52,252.53,151.53L252.53,151.53L252.53,151.53z M252.53,151.53
					L252.53,151.53L252.53,151.53z M252.53,151.53L252.53,151.53L252.53,151.53z M252.53,151.53L252.53,151.53L252.53,151.53
					L252.53,151.53L252.53,151.53z M252.53,151.53L252.53,151.53L252.53,151.53z M252.53,151.53L252.53,151.53L252.53,151.53
					L252.53,151.53z M252.53,151.53L252.53,151.53L252.53,151.53L252.53,151.53C252.53,151.52,252.53,151.52,252.53,151.53z
					 M252.53,151.53v-0.011l0,0V151.53L252.53,151.53z M252.53,151.53L252.53,151.53L252.53,151.53L252.53,151.53z M252.53,151.53
					v-0.011l0,0V151.53L252.53,151.53z M252.53,151.53L252.53,151.53L252.53,151.53L252.53,151.53z M252.53,151.53
					C252.53,151.52,252.53,151.52,252.53,151.53L252.53,151.53L252.53,151.53z M252.53,151.53L252.53,151.53L252.53,151.53
					L252.53,151.53z M252.53,151.52L252.53,151.52L252.53,151.52L252.53,151.52v0.011V151.52z M252.53,151.52c0,0,0,0,0,0.011
					C252.53,151.52,252.53,151.52,252.53,151.52z M252.53,151.52L252.53,151.52L252.53,151.52v0.011V151.52z M252.53,151.52
					L252.53,151.52c0,0,0,0,0,0.011V151.52z M252.53,151.52L252.53,151.52L252.53,151.52L252.53,151.52z M252.53,151.52
					L252.53,151.52L252.53,151.52L252.53,151.52L252.53,151.52L252.53,151.52z M252.53,151.52L252.53,151.52L252.53,151.52
					L252.53,151.52z M252.53,151.52L252.53,151.52L252.53,151.52L252.53,151.52L252.53,151.52L252.53,151.52L252.53,151.52z
					 M252.53,151.52L252.53,151.52L252.53,151.52L252.53,151.52L252.53,151.52z M252.53,151.52L252.53,151.52L252.53,151.52
					L252.53,151.52L252.53,151.52L252.53,151.52L252.53,151.52z M252.53,151.52L252.53,151.52L252.53,151.52L252.53,151.52z
					 M252.53,151.52 M252.53,151.52L252.53,151.52L252.53,151.52L252.53,151.52z M252.53,151.52L252.53,151.52L252.53,151.52
					L252.53,151.52c0-0.01,0-0.01,0-0.01S252.53,151.51,252.53,151.52L252.53,151.52L252.53,151.52z M252.53,151.52L252.53,151.52
					L252.53,151.52L252.53,151.52L252.53,151.52L252.53,151.52z M252.53,151.52L252.53,151.52L252.53,151.52L252.53,151.52
					L252.53,151.52L252.53,151.52z M252.53,151.52L252.53,151.52L252.53,151.52L252.53,151.52z M252.53,151.51c0,0,0,0,0,0.01l0,0
					C252.53,151.51,252.53,151.51,252.53,151.51z M252.53,151.51L252.53,151.51v0.01V151.51L252.53,151.51v0.01V151.51
					L252.53,151.51L252.53,151.51L252.53,151.51c0,0.01,0,0.01,0,0.01V151.51z M252.53,151.52v-0.01l0,0
					C252.53,151.52,252.53,151.52,252.53,151.52z M252.53,151.52v-0.01C252.53,151.52,252.53,151.52,252.53,151.52z M252.53,151.51
					L252.53,151.51L252.53,151.51z M252.53,151.51L252.53,151.51L252.53,151.51z M252.53,151.51L252.53,151.51L252.53,151.51z
					 M252.53,151.51L252.53,151.51L252.53,151.51L252.53,151.51z M252.53,151.51L252.53,151.51L252.53,151.51z M252.53,151.51
					L252.53,151.51L252.53,151.51L252.53,151.51z M252.53,151.51L252.53,151.51L252.53,151.51z M252.53,151.51L252.53,151.51
					L252.53,151.51L252.53,151.51L252.53,151.51L252.53,151.51L252.53,151.51L252.53,151.51z M252.53,151.51L252.53,151.51
					L252.53,151.51L252.53,151.51z M252.53,151.51L252.53,151.51L252.53,151.51z M252.53,151.51L252.53,151.51L252.53,151.51z
					 M252.53,151.51L252.53,151.51L252.53,151.51z M252.53,151.5L252.53,151.5L252.53,151.5z M252.53,151.5L252.53,151.5
					L252.53,151.5L252.53,151.5z M252.53,151.5L252.53,151.5L252.53,151.5L252.53,151.5L252.53,151.5L252.53,151.5z M252.53,151.5
					L252.53,151.5L252.53,151.5z M252.53,151.5L252.53,151.5L252.53,151.5z M252.53,151.5L252.53,151.5L252.53,151.5L252.53,151.5
					L252.53,151.5z M252.53,151.5L252.53,151.5L252.53,151.5z M252.53,151.5L252.53,151.5L252.53,151.5z M252.53,151.5
					C252.53,151.49,252.53,151.5,252.53,151.5L252.53,151.5z M252.53,151.5L252.53,151.5L252.53,151.5z M252.53,151.5
					C252.53,151.5,252.53,151.49,252.53,151.5L252.53,151.5C252.53,151.49,252.53,151.5,252.53,151.5L252.53,151.5z M252.53,151.5
					L252.53,151.5L252.53,151.5L252.53,151.5z M252.53,151.49L252.53,151.49c0-0.01,0-0.01,0-0.01c0-0.011,0-0.011,0,0.02V151.49z
					 M252.53,151.49L252.53,151.49L252.53,151.49v0.01C252.53,151.49,252.53,151.49,252.53,151.49z M252.53,151.5v-0.01V151.5
					L252.53,151.5z M252.53,151.49L252.53,151.49L252.53,151.49L252.53,151.49z M252.53,151.48v0.01l0,0V151.48z M252.53,151.48
					L252.53,151.48L252.53,151.48L252.53,151.48z"/>
				<rect x="245.2" y="146.73" style="fill-rule:evenodd;clip-rule:evenodd;fill:none;" width="15" height="15"/>
			</g>
			<g>
				<path style="fill-rule:evenodd;clip-rule:evenodd;fill:#FFFFFF;" d="M273.7,160.01l0.229-1.08l-0.09-0.27l-1.74-0.37
					c-0.5,0.08-1-0.04-1.489-0.32l0.3-0.279c0.21,0.01,0.52-0.101,0.74-0.11l-1.221-1.15c-0.1-0.01-0.149-0.01-0.14-0.01
					c0.57-0.43,2.91-4.09,2.77-5.16l1.511,0.51v-0.22c-0.141-0.55-0.561-0.96-1.351-1.06c0.53-0.53,1.03-1.19,1.63-2.06
					c0,0,0.011,0.03,0.011,0.09c0.1,0.14,0.96,1.34,1.229,1.73c1.021,0.92,1.87,1.97,2.47,3.38c-0.279-0.26-0.63-0.42-1.06-0.47
					c0.31,0.31,0.59,0.64,0.83,1.01c0.75,0.99,1.43,2.3,1.32,3.1c0,0.011,0,0.03,0,0.04l0.04-0.01l-0.04,0.01
					c0,0.011,0,0.021-0.011,0.03c0-0.01,0.011-0.02,0.011-0.03l-1.521,0.36c-0.83,0.79-1.82,1-2.89,0.94l-0.94,1.42
					C274.11,160.03,273.73,160.03,273.7,160.01z M274.55,157.85v-0.479l-0.939-0.021v0.5c0.14,0.011,0.29,0.021,0.439,0.021v-0.5
					h0.11v0.5C274.29,157.87,274.42,157.86,274.55,157.85z M275.45,157.74l-0.72-0.37h-0.061v0.47
					C274.94,157.82,275.2,157.78,275.45,157.74z M273.5,157.83v-0.48h-0.12l-0.27,0.41C273.23,157.79,273.36,157.82,273.5,157.83z
					 M272.6,157.65l0.28-0.391c0.7-0.04,1.601-0.109,1.69-0.04v-0.76c-1.301-0.02-3.471-0.02-4.101-0.03l1.4,1.311
					C272.07,157.75,272.36,157.66,272.6,157.65z M271.82,157.74l-0.07-0.07C271.76,157.7,271.78,157.73,271.82,157.74L271.82,157.74
					z M275.67,157.63l2.25-0.18c-0.65-0.38-1.37-0.58-2.24-0.38l-0.39,0.37L275.67,157.63z M278.04,157.44l1.61-0.131
					c0-0.02,0-0.029,0-0.04c-0.021-0.399-1.021-1.829-2.16-1.899l-0.141,0.13C277.85,156.44,278.14,157.23,278.04,157.44z
					 M275.26,157.43l0.4-0.41c0.2-0.949,0.13-1.819-0.061-2.649c-0.29,0.31-0.55,0.59-0.75,0.78v2.109h0.04L275.26,157.43z
					 M274.57,157.22v0.04C274.59,157.25,274.59,157.23,274.57,157.22z M277.33,155.48l0.15-0.141c-0.271-0.75-0.561-1.43-0.9-2.03
					c-0.11,0.131-0.23,0.261-0.36,0.391C276.64,154.29,277.02,154.91,277.33,155.48z M275.59,154.34c-0.18-0.78-0.47-1.52-0.74-2.27
					c0,0.02,0,0.04,0,0.069v2.98C275.05,154.92,275.31,154.65,275.59,154.34z M276.56,153.29c-0.449-0.78-1-1.43-1.699-1.94
					c-0.011,0.11-0.011,0.23-0.011,0.681l0,0c0-0.13,0-0.11,0,0.01c0-0.01,0-0.01,0,0v0.01l0,0l0,0l0,0c0,0,0,0,0,0.01v-0.01v0.01
					v-0.01l0,0l0,0c0,0,0,0,0,0.01l0,0c0-0.25,0-0.239,0-0.01c0-0.03,0,0,0,0.021l0,0c0.45,0.42,0.92,0.989,1.36,1.609
					C276.33,153.54,276.45,153.41,276.56,153.29z M276.68,152.45l-0.66-2.25c-0.289-0.42-1-1.41-1.159-1.64
					c0.01,0.34,0.01,1.3,0,2.79C275.44,151.63,276.08,151.99,276.68,152.45z M274.85,152.07L274.85,152.07L274.85,152.07z
					 M274.85,152.07L274.85,152.07L274.85,152.07L274.85,152.07z M274.85,152.07L274.85,152.07L274.85,152.07L274.85,152.07z
					 M274.85,152.07L274.85,152.07L274.85,152.07L274.85,152.07L274.85,152.07L274.85,152.07L274.85,152.07z M274.85,152.07
					L274.85,152.07L274.85,152.07z M274.85,152.07L274.85,152.07L274.85,152.07L274.85,152.07z M274.85,152.07L274.85,152.07
					C274.85,152.07,274.85,152.06,274.85,152.07L274.85,152.07L274.85,152.07z M274.85,152.07L274.85,152.07L274.85,152.07z
					 M274.85,152.07L274.85,152.07L274.85,152.07L274.85,152.07L274.85,152.07L274.85,152.07L274.85,152.07L274.85,152.07
					L274.85,152.07L274.85,152.07L274.85,152.07L274.85,152.07L274.85,152.07z M274.85,152.06c0,0.011,0,0.011,0,0.011V152.06z
					 M274.85,152.07L274.85,152.07L274.85,152.07L274.85,152.07L274.85,152.07z M274.85,152.07L274.85,152.07L274.85,152.07
					L274.85,152.07L274.85,152.07L274.85,152.07L274.85,152.07L274.85,152.07L274.85,152.07L274.85,152.07L274.85,152.07
					L274.85,152.07L274.85,152.07L274.85,152.07L274.85,152.07L274.85,152.07L274.85,152.07L274.85,152.07L274.85,152.07
					L274.85,152.07L274.85,152.07L274.85,152.07L274.85,152.07L274.85,152.07z M274.85,152.07L274.85,152.07L274.85,152.07z
					 M274.85,152.07L274.85,152.07L274.85,152.07z M274.85,152.07L274.85,152.07L274.85,152.07L274.85,152.07L274.85,152.07z
					 M274.85,152.07L274.85,152.07L274.85,152.07z M274.85,152.07L274.85,152.07L274.85,152.07L274.85,152.07z M274.85,152.07
					L274.85,152.07L274.85,152.07L274.85,152.07C274.85,152.06,274.85,152.06,274.85,152.07z M274.85,152.07L274.85,152.07
					L274.85,152.07L274.85,152.07L274.85,152.07z M274.85,152.07L274.85,152.07L274.85,152.07L274.85,152.07z M274.85,152.07
					L274.85,152.07L274.85,152.07L274.85,152.07L274.85,152.07z M274.85,152.07L274.85,152.07L274.85,152.07L274.85,152.07z
					 M274.85,152.07C274.85,152.06,274.85,152.07,274.85,152.07L274.85,152.07L274.85,152.07z M274.85,152.07L274.85,152.07
					L274.85,152.07L274.85,152.07z M274.85,152.06L274.85,152.06v0.011l0,0l0,0V152.06z M274.85,152.07L274.85,152.07L274.85,152.07
					z M274.85,152.07L274.85,152.07L274.85,152.07L274.85,152.07L274.85,152.07z M274.85,152.07L274.85,152.07L274.85,152.07
					L274.85,152.07z M274.85,152.07L274.85,152.07L274.85,152.07L274.85,152.07z M274.85,152.07L274.85,152.07L274.85,152.07
					L274.85,152.07L274.85,152.07L274.85,152.07z M274.85,152.07L274.85,152.07v-0.011C274.85,152.06,274.85,152.06,274.85,152.07z
					 M274.85,152.07L274.85,152.07c0-0.011,0-0.011,0-0.011l0,0l0,0l0,0V152.07z M274.85,152.06L274.85,152.06L274.85,152.06v0.011
					V152.06z M274.85,152.06L274.85,152.06L274.85,152.06L274.85,152.06L274.85,152.06L274.85,152.06L274.85,152.06z M274.85,152.06
					L274.85,152.06L274.85,152.06L274.85,152.06z M274.85,152.06 M274.85,152.06L274.85,152.06L274.85,152.06L274.85,152.06z
					 M274.85,152.06L274.85,152.06L274.85,152.06L274.85,152.06C274.85,152.06,274.85,152.05,274.85,152.06L274.85,152.06
					L274.85,152.06L274.85,152.06z M274.85,152.06L274.85,152.06L274.85,152.06L274.85,152.06L274.85,152.06L274.85,152.06z
					 M274.85,152.06L274.85,152.06L274.85,152.06L274.85,152.06L274.85,152.06L274.85,152.06z M274.85,152.06L274.85,152.06
					L274.85,152.06L274.85,152.06z M274.85,152.05v0.01l0,0C274.85,152.06,274.85,152.06,274.85,152.05z M274.85,152.06
					L274.85,152.06L274.85,152.06L274.85,152.06L274.85,152.06L274.85,152.06L274.85,152.06L274.85,152.06L274.85,152.06
					L274.85,152.06L274.85,152.06L274.85,152.06z M274.85,152.06L274.85,152.06L274.85,152.06L274.85,152.06z M274.85,152.06
					L274.85,152.06L274.85,152.06z M274.85,152.06L274.85,152.06L274.85,152.06z M274.85,152.06L274.85,152.06L274.85,152.06z
					 M274.85,152.06L274.85,152.06L274.85,152.06z M274.85,152.06L274.85,152.06L274.85,152.06L274.85,152.06z M274.85,152.06
					L274.85,152.06L274.85,152.06z M274.85,152.06L274.85,152.06L274.85,152.06L274.85,152.06z M274.85,152.06L274.85,152.06
					L274.85,152.06z M274.85,152.06L274.85,152.06L274.85,152.06L274.85,152.06L274.85,152.06L274.85,152.06L274.85,152.06
					L274.85,152.06z M274.85,152.06L274.85,152.06L274.85,152.06L274.85,152.06z M274.85,152.06L274.85,152.06L274.85,152.06z
					 M274.85,152.06C274.85,152.05,274.85,152.05,274.85,152.06C274.85,152.06,274.85,152.05,274.85,152.06z M274.85,152.06
					L274.85,152.06L274.85,152.06z M274.85,152.05L274.85,152.05L274.85,152.05z M274.85,152.05L274.85,152.05L274.85,152.05
					L274.85,152.05z M274.85,152.05L274.85,152.05L274.85,152.05L274.85,152.05L274.85,152.05
					C274.85,152.05,274.85,152.04,274.85,152.05z M274.85,152.05L274.85,152.05L274.85,152.05z M274.85,152.05L274.85,152.05
					L274.85,152.05z M274.85,152.05L274.85,152.05C274.85,152.04,274.85,152.05,274.85,152.05L274.85,152.05L274.85,152.05z
					 M274.85,152.05L274.85,152.05L274.85,152.05z M274.85,152.05L274.85,152.05L274.85,152.05z M274.85,152.05
					C274.85,152.04,274.85,152.04,274.85,152.05L274.85,152.05z M274.85,152.05L274.85,152.05L274.85,152.05z M274.85,152.04
					L274.85,152.04v0.01c0-0.01,0-0.01,0,0C274.85,152.05,274.85,152.05,274.85,152.04z M274.85,152.05L274.85,152.05L274.85,152.05
					L274.85,152.05z M274.85,152.04L274.85,152.04c0-0.01,0-0.01,0-0.01c0-0.011,0-0.011,0,0.02
					C274.85,152.04,274.85,152.04,274.85,152.04z M274.85,152.04L274.85,152.04L274.85,152.04v0.01
					C274.85,152.04,274.85,152.04,274.85,152.04z M274.85,152.04L274.85,152.04L274.85,152.04L274.85,152.04z M274.85,152.04
					L274.85,152.04L274.85,152.04L274.85,152.04z M274.85,152.03v0.01l0,0V152.03z M274.85,152.03L274.85,152.03L274.85,152.03
					L274.85,152.03z"/>
				<rect x="268.99" y="148.23" style="fill-rule:evenodd;clip-rule:evenodd;fill:none;" width="12" height="12"/>
			</g>
		</g>
	</g>
</g>
<g id="Guides">
</g>
</svg>
