<?xml version="1.0" encoding="iso-8859-1"?>
<!-- Generator: Adobe Illustrator 15.0.0, SVG Export Plug-In . SVG Version: 6.00 Build 0)  -->
<!DOCTYPE svg PUBLIC "-//W3C//DTD SVG 1.1//EN" "http://www.w3.org/Graphics/SVG/1.1/DTD/svg11.dtd">
<svg version="1.1" id="&#x421;&#x43B;&#x43E;&#x439;_1"
	 xmlns="http://www.w3.org/2000/svg" xmlns:xlink="http://www.w3.org/1999/xlink" x="0px" y="0px" width="600px" height="600px"
	 viewBox="0 0 600 600" style="enable-background:new 0 0 600 600;" xml:space="preserve">
<g>
	<rect x="452.359" y="-158.13" style="fill-rule:evenodd;clip-rule:evenodd;fill:#000003;" width="300" height="300"/>
	<g>
		<path style="fill-rule:evenodd;clip-rule:evenodd;fill:#FFFFFF;" d="M512.87,1.601l-0.931-0.93c-0.49,0.72-1.43,1.06-2.3,0.76
			c-5.41-1.88-7.279-5.91-7.06-9.2c0.06-0.89,0.71-1.61,1.55-1.8l-0.84-0.83h2.18l-0.79,0.79h0.01c1.101,0.07,1.921,1.02,1.851,2.11
			c-0.101,1.45,0.63,3.87,4.409,5.18c0.98,0.34,1.53,1.39,1.261,2.39l0.66-0.66V1.601z"/>
		<path style="fill-rule:evenodd;clip-rule:evenodd;fill:#FFFFFF;" d="M530.77,3.1l-1.16-1.17C529,2.84,527.83,3.26,526.74,2.89
			c-6.761-2.35-9.11-7.39-8.83-11.5c0.08-1.12,0.89-2.02,1.939-2.25l-1.05-1.04h2.729l-0.989,0.99c0,0,0.01,0,0.02,0
			c1.36,0.09,2.4,1.28,2.3,2.64c-0.119,1.811,0.79,4.831,5.511,6.47c1.239,0.43,1.92,1.74,1.58,2.99l0.819-0.82V3.1z"/>
		<path style="fill-rule:evenodd;clip-rule:evenodd;fill:#FFFFFF;" d="M551.26,4.601l-1.39-1.4c-0.74,1.09-2.15,1.6-3.45,1.15
			c-8.12-2.82-10.93-8.87-10.59-13.8c0.09-1.34,1.06-2.42,2.319-2.7l-1.26-1.25h3.28l-1.19,1.189c0,0,0.01,0,0.021,0
			c1.64,0.11,2.88,1.53,2.77,3.17c-0.149,2.17,0.94,5.8,6.601,7.76c1.489,0.52,2.31,2.09,1.899,3.59l0.99-0.99V4.601z"/>
		<path style="fill-rule:evenodd;clip-rule:evenodd;fill:#FFFFFF;" d="M573.03,5.351l-1.511-1.51c-0.8,1.18-2.32,1.73-3.729,1.24
			c-8.8-3.06-11.841-9.61-11.48-14.95c0.101-1.45,1.16-2.62,2.51-2.92l-1.35-1.36h3.54l-1.29,1.29c0.01,0,0.02,0,0.03,0
			c1.77,0.12,3.119,1.66,3,3.43c-0.16,2.36,1.02,6.28,7.16,8.41c1.6,0.56,2.489,2.27,2.05,3.88l1.07-1.06V5.351z"/>
		<path style="fill-rule:evenodd;clip-rule:evenodd;fill:#FFFFFF;" d="M597.38,6.85l-1.74-1.75c-0.93,1.37-2.68,2-4.31,1.43
			c-10.15-3.52-13.66-11.08-13.24-17.24c0.109-1.68,1.33-3.03,2.9-3.38l-1.57-1.56h4.09l-1.49,1.48c0.011,0,0.021,0,0.03,0
			c2.05,0.14,3.6,1.92,3.46,3.97c-0.18,2.71,1.18,7.25,8.26,9.7c1.86,0.65,2.88,2.62,2.38,4.48l1.23-1.23V6.85z"/>
		<path style="fill-rule:evenodd;clip-rule:evenodd;fill:#FFFFFF;" d="M628.17,10.601l-2.32-2.33c-1.229,1.819-3.57,2.66-5.74,1.91
			c-13.54-4.7-18.22-14.78-17.659-22.99c0.149-2.24,1.77-4.04,3.859-4.5l-2.09-2.09h5.46l-1.979,1.98c0.01,0,0.02,0,0.029,0
			c2.74,0.19,4.8,2.55,4.62,5.29c-0.25,3.62,1.57,9.66,11.01,12.94c2.471,0.86,3.84,3.479,3.17,5.97l1.641-1.64V10.601z"/>
		<path style="fill-rule:evenodd;clip-rule:evenodd;fill:#FFFFFF;" d="M664.109,13.601l-2.79-2.791c-1.47,2.18-4.279,3.19-6.88,2.29
			C638.2,7.46,632.57-4.64,633.25-14.49c0.18-2.69,2.13-4.84,4.63-5.4l-2.5-2.51h6.55l-2.39,2.38c0.02,0,0.029,0,0.05,0
			c3.28,0.22,5.76,3.06,5.53,6.34c-0.29,4.35,1.899,11.6,13.22,15.53c2.97,1.03,4.609,4.18,3.8,7.16l1.97-1.97V13.601z"/>
		<path style="fill-rule:evenodd;clip-rule:evenodd;fill:#FFFFFF;" d="M707.79,18.101l-3.49-3.49c-1.84,2.73-5.351,3.99-8.601,2.86
			c-20.31-7.04-27.34-22.16-26.5-34.48c0.23-3.37,2.671-6.06,5.801-6.76l-3.13-3.13h8.18l-2.97,2.97c0.01,0,0.029,0,0.05,0
			c4.1,0.28,7.2,3.83,6.92,7.93c-0.37,5.43,2.37,14.5,16.52,19.41c3.71,1.29,5.761,5.23,4.75,8.96l2.471-2.46V18.101z"/>
	</g>
</g>
</svg>
