<?xml version="1.0" encoding="iso-8859-1"?>
<!-- Generator: Adobe Illustrator 15.0.0, SVG Export Plug-In . SVG Version: 6.00 Build 0)  -->
<!DOCTYPE svg PUBLIC "-//W3C//DTD SVG 1.1//EN" "http://www.w3.org/Graphics/SVG/1.1/DTD/svg11.dtd">
<svg version="1.1" xmlns="http://www.w3.org/2000/svg" xmlns:xlink="http://www.w3.org/1999/xlink" x="0px" y="0px" width="300px"
	 height="300px" viewBox="0 0 300 300" style="enable-background:new 0 0 300 300;" xml:space="preserve">
<g id="Layer_1">
	<g>
		<rect x="0.56" y="-0.31" style="fill-rule:evenodd;clip-rule:evenodd;fill:#666666;" width="300" height="300"/>
		<g>
			<g>
				<path style="fill-rule:evenodd;clip-rule:evenodd;fill:#FFFFFF;" d="M44.56,170.35c-1.74-2.949-2.64-4.09-4.24-12.1l-2.09-19.94
					c-0.33-2.31-1.19-3.13-2.8-1.85l-2.48,1.95c-0.1-1.38-1.23-2.48-2.64-2.51c1.33-1.42,2.8-2.64,4.27-3.74
					c2.62-2.34,4.94-1.78,6.06,0.7c1.1,2.81,2.01,5.62,2.81,8.43c0.23-0.07,0.47-0.11,0.73-0.1c1.23,0.05,2.19,1.09,2.14,2.33
					c-0.04,1.11-0.89,2.01-1.95,2.14c-0.34-1.52-0.66-2.97-0.95-4.26c-1.02,0.19-1.8,1.1-1.8,2.18c0,1.23,1,2.23,2.23,2.23
					c0.27,0,0.52-0.04,0.76-0.13c0.18,0.73,0.36,1.46,0.53,2.19c0.13-0.02,0.26-0.02,0.39-0.02c1.24,0.05,2.2,1.09,2.15,2.33
					c-0.04,1.07-0.82,1.94-1.83,2.12c-0.31-1.4-0.64-2.86-0.96-4.31c-0.96,0.25-1.67,1.12-1.67,2.16c0,1.23,1,2.23,2.24,2.23
					c0.24,0,0.48-0.04,0.7-0.12c0.17,0.721,0.33,1.44,0.5,2.16c-0.02,0-0.03,0-0.05,0c0.05,0,0.09,0,0.13,0
					c1.22,0.05,2.19,1.1,2.14,2.33c-0.04,0.97-0.68,1.77-1.54,2.05c-0.28-1.17-0.63-2.67-1-4.319c-0.91,0.18-1.67,1.079-1.67,2.159
					c0,1.23,1,2.23,2.23,2.23c0.27,0,0.53-0.05,0.77-0.14c0.11,0.449,0.22,0.909,0.33,1.359c0.49,1.95,2.63,1.62,2.66-0.33
					c-0.15-4.39,0.15-7.359,1.11-8.99c-1.14-0.92-1.72-1.81-1.47-2.45c0.5-1.32,4.31-1.11,8.51,0.49c4.2,1.58,7.19,3.95,6.69,5.28
					c-0.23,0.62-1.2,0.9-2.6,0.86c-0.96,1.66-2.74,3.069-2.63,4.979c0.31,6.25-0.7,13.271-7.14,14.181
					C49.88,174.43,46.97,173.41,44.56,170.35z M54.2,172.75c2.79-1.19,3.76-3.46,2.96-6.77c-1.81,5.21-5.4,6.229-10.51,3.609
					C47.84,171.14,50.93,173.8,54.2,172.75z M55.64,154.37l-1.95-0.97c-2.13,2.189-2.09,4.79-1.52,7.51
					C52.5,158.59,52.93,156.29,55.64,154.37z M63.06,152.95c0.03-0.08,0.05-0.15,0.05-0.24c-1.2,0.19-3.29-0.2-5.52-1.1
					c-2.15-0.87-3.87-2-4.65-2.96c-0.03,0.05-0.06,0.1-0.08,0.16c-0.41,1.01,1.54,2.75,4.36,3.9
					C60.03,153.85,62.65,153.96,63.06,152.95z M23.98,141.59c0-1.48,3.84-4.72,5.4-4.88c1.52-0.14,3,1.13,2.7,2.68
					c-0.29,1.37-2.18,3.02-3.42,2.15C25.66,139.44,24.22,142.59,23.98,141.59z M31.03,139.27c0-0.52-0.43-0.95-0.95-0.95
					c-0.53,0-0.96,0.43-0.96,0.95s0.43,0.94,0.96,0.94C30.6,140.21,31.03,139.79,31.03,139.27z"/>
				<rect x="22.27" y="129.92" style="fill-rule:evenodd;clip-rule:evenodd;fill:none;" width="45" height="45"/>
			</g>
			<g>
				<path style="fill-rule:evenodd;clip-rule:evenodd;fill:#FFFFFF;" d="M92.6,166.76c-1.39-2.359-2.11-3.26-3.39-9.68l-1.67-15.95
					c-0.27-1.84-0.96-2.5-2.24-1.47l-1.99,1.56c-0.07-1.11-0.98-1.99-2.11-2.01c1.07-1.14,2.24-2.12,3.41-3
					c2.1-1.87,3.96-1.43,4.85,0.56c0.89,2.25,1.61,4.5,2.25,6.74c0.18-0.05,0.38-0.08,0.58-0.07c0.99,0.03,1.76,0.87,1.72,1.86
					c-0.03,0.89-0.71,1.61-1.56,1.71c-0.27-1.22-0.53-2.38-0.76-3.41c-0.82,0.16-1.44,0.88-1.44,1.75c0,0.98,0.8,1.78,1.78,1.78
					c0.22,0,0.42-0.03,0.61-0.1c0.15,0.58,0.29,1.17,0.43,1.75c0.1-0.01,0.2-0.02,0.31-0.01c0.99,0.03,1.75,0.87,1.72,1.86
					c-0.03,0.851-0.66,1.55-1.47,1.7c-0.25-1.13-0.51-2.3-0.77-3.45c-0.76,0.2-1.33,0.89-1.33,1.73c0,0.98,0.8,1.78,1.79,1.78
					c0.19,0,0.39-0.029,0.56-0.09c0.14,0.57,0.27,1.141,0.4,1.72c-0.01,0-0.03,0-0.04,0c0.04,0,0.07,0,0.1,0
					c0.98,0.04,1.75,0.881,1.72,1.86c-0.03,0.78-0.55,1.42-1.24,1.65c-0.22-0.94-0.5-2.15-0.79-3.46
					c-0.73,0.14-1.34,0.859-1.34,1.72c0,0.99,0.8,1.79,1.78,1.79c0.22,0,0.42-0.04,0.62-0.11c0.09,0.36,0.18,0.73,0.27,1.09
					c0.39,1.561,2.1,1.29,2.12-0.27c-0.12-3.51,0.12-5.89,0.89-7.19c-0.91-0.74-1.38-1.439-1.18-1.959c0.4-1.06,3.45-0.89,6.81,0.39
					c3.36,1.27,5.75,3.17,5.35,4.22c-0.18,0.5-0.96,0.73-2.08,0.69c-0.76,1.329-2.19,2.46-2.1,3.989c0.25,5-0.56,10.61-5.71,11.34
					C96.86,170.03,94.53,169.21,92.6,166.76z M100.31,168.69c2.23-0.96,3.01-2.771,2.37-5.421c-1.45,4.171-4.32,4.98-8.41,2.891
					C95.23,167.39,97.7,169.52,100.31,168.69z M101.47,153.98l-1.56-0.771c-1.71,1.75-1.68,3.83-1.22,6
					C98.95,157.36,99.3,155.52,101.47,153.98z M107.4,152.85c0.03-0.069,0.04-0.13,0.04-0.199c-0.96,0.149-2.63-0.15-4.42-0.881
					c-1.71-0.689-3.09-1.6-3.71-2.359c-0.03,0.04-0.05,0.08-0.07,0.12c-0.33,0.81,1.23,2.201,3.49,3.121
					C104.98,153.56,107.07,153.65,107.4,152.85z M76.13,143.76c0-1.19,3.08-3.78,4.33-3.91c1.21-0.11,2.39,0.91,2.15,2.15
					c-0.22,1.09-1.74,2.41-2.73,1.72C77.48,142.04,76.33,144.56,76.13,143.76z M81.77,141.9c0-0.42-0.34-0.76-0.75-0.76
					c-0.42,0-0.77,0.34-0.77,0.76c0,0.41,0.35,0.75,0.77,0.75C81.43,142.65,81.77,142.31,81.77,141.9z"/>
				<rect x="74.77" y="134.42" style="fill-rule:evenodd;clip-rule:evenodd;fill:none;" width="36" height="36"/>
			</g>
			<g>
				<path style="fill-rule:evenodd;clip-rule:evenodd;fill:#FFFFFF;" d="M133.13,164.37c-1.16-1.97-1.76-2.72-2.83-8.061l-1.39-13.3
					c-0.22-1.53-0.8-2.09-1.87-1.23l-1.65,1.3c-0.07-0.92-0.82-1.65-1.76-1.67c0.89-0.95,1.87-1.76,2.84-2.49
					c1.75-1.57,3.3-1.2,4.04,0.46c0.74,1.87,1.35,3.74,1.88,5.62c0.15-0.05,0.31-0.07,0.48-0.06c0.82,0.02,1.46,0.72,1.43,1.54
					c-0.02,0.75-0.59,1.34-1.3,1.43c-0.22-1.01-0.44-1.98-0.63-2.84c-0.68,0.13-1.2,0.74-1.2,1.46c0,0.81,0.67,1.48,1.49,1.48
					c0.17,0,0.34-0.03,0.5-0.08c0.12,0.48,0.24,0.97,0.36,1.46c0.08-0.01,0.17-0.02,0.26-0.01c0.82,0.02,1.46,0.72,1.43,1.55
					c-0.03,0.709-0.55,1.29-1.22,1.41c-0.21-0.93-0.43-1.91-0.64-2.87c-0.64,0.16-1.11,0.74-1.11,1.44c0,0.82,0.66,1.479,1.49,1.479
					c0.16,0,0.32-0.02,0.47-0.069c0.11,0.47,0.22,0.949,0.33,1.43c-0.01,0-0.02,0.01-0.03,0.01c0.03,0,0.05,0,0.08,0
					c0.82,0.03,1.46,0.73,1.43,1.55c-0.03,0.641-0.45,1.181-1.03,1.36c-0.18-0.78-0.42-1.78-0.66-2.88
					c-0.61,0.12-1.12,0.72-1.12,1.44c0,0.819,0.67,1.489,1.49,1.489c0.18,0,0.35-0.029,0.51-0.09c0.08,0.3,0.15,0.601,0.23,0.91
					c0.32,1.29,1.75,1.07,1.77-0.23c-0.1-2.92,0.1-4.899,0.74-5.989c-0.76-0.61-1.15-1.2-0.99-1.64c0.34-0.87,2.88-0.73,5.68,0.33
					c2.8,1.061,4.79,2.641,4.46,3.521c-0.16,0.42-0.8,0.6-1.74,0.569c-0.63,1.11-1.82,2.051-1.75,3.33
					c0.21,4.16-0.46,8.84-4.75,9.45C136.68,167.1,134.74,166.41,133.13,164.37z M139.55,165.97c1.87-0.79,2.51-2.3,1.98-4.51
					c-1.21,3.48-3.6,4.15-7.01,2.41C135.32,164.9,137.38,166.67,139.55,165.97z M140.52,153.72l-1.3-0.64
					c-1.43,1.45-1.4,3.189-1.02,5C138.42,156.53,138.71,155,140.52,153.72z M145.46,152.78c0.02-0.061,0.04-0.11,0.04-0.17
					c-0.81,0.13-2.2-0.13-3.68-0.73c-1.44-0.58-2.58-1.34-3.1-1.97c-0.03,0.03-0.05,0.07-0.06,0.1c-0.27,0.67,1.03,1.84,2.91,2.601
					C143.44,153.37,145.19,153.44,145.46,152.78z M119.41,145.2c0-0.99,2.56-3.14,3.6-3.26c1.01-0.09,2,0.76,1.8,1.8
					c-0.19,0.9-1.45,2.01-2.28,1.43C120.53,143.77,119.57,145.87,119.41,145.2z M124.11,143.65c0-0.34-0.29-0.63-0.64-0.63
					c-0.35,0-0.63,0.29-0.63,0.63c0,0.35,0.28,0.63,0.63,0.63C123.82,144.28,124.11,144,124.11,143.65z"/>
				<rect x="118.27" y="137.42" style="fill-rule:evenodd;clip-rule:evenodd;fill:none;" width="30" height="30"/>
			</g>
			<g>
				<path style="fill-rule:evenodd;clip-rule:evenodd;fill:#FFFFFF;" d="M195.43,160.19c-0.76-1.28-1.149-1.771-1.84-5.24
					l-0.91-8.65c-0.14-0.99-0.51-1.35-1.21-0.79l-1.069,0.84c-0.051-0.6-0.54-1.08-1.15-1.09c0.58-0.61,1.22-1.14,1.85-1.62
					c1.141-1.02,2.141-0.77,2.631,0.3c0.479,1.22,0.869,2.44,1.21,3.66c0.1-0.04,0.21-0.05,0.319-0.05
					c0.53,0.02,0.95,0.48,0.931,1.01c-0.021,0.48-0.381,0.87-0.851,0.93c-0.14-0.66-0.28-1.29-0.399-1.85
					c-0.45,0.09-0.79,0.48-0.79,0.95c0,0.53,0.439,0.96,0.97,0.96c0.12,0,0.229-0.01,0.33-0.05c0.08,0.32,0.149,0.63,0.229,0.95
					c0.061-0.01,0.11-0.01,0.17-0.01c0.53,0.02,0.95,0.47,0.931,1.01c-0.021,0.46-0.36,0.84-0.79,0.92
					c-0.141-0.61-0.28-1.24-0.42-1.87c-0.42,0.11-0.721,0.49-0.721,0.94c0,0.529,0.431,0.96,0.971,0.96c0.1,0,0.21-0.011,0.3-0.051
					c0.07,0.311,0.14,0.62,0.22,0.94c-0.01,0-0.02,0-0.02,0c0.02,0,0.029,0,0.05,0c0.53,0.02,0.95,0.47,0.93,1.01
					c-0.02,0.42-0.29,0.76-0.67,0.88c-0.12-0.5-0.27-1.16-0.43-1.87c-0.391,0.08-0.73,0.471-0.73,0.94c0,0.53,0.44,0.96,0.971,0.96
					c0.119,0,0.229-0.02,0.329-0.06c0.051,0.199,0.101,0.399,0.15,0.59c0.21,0.85,1.14,0.71,1.15-0.141
					c-0.07-1.899,0.069-3.189,0.479-3.899c-0.49-0.391-0.74-0.78-0.64-1.06c0.22-0.57,1.87-0.48,3.689,0.21
					c1.82,0.69,3.12,1.72,2.9,2.29c-0.1,0.271-0.52,0.391-1.13,0.37c-0.41,0.73-1.18,1.33-1.14,2.17
					c0.14,2.7-0.301,5.74-3.091,6.141C197.73,161.96,196.47,161.51,195.43,160.19z M199.6,161.23c1.21-0.521,1.631-1.5,1.29-2.94
					c-0.79,2.26-2.34,2.7-4.56,1.57C196.85,160.53,198.19,161.68,199.6,161.23z M200.23,153.26l-0.851-0.41
					c-0.92,0.94-0.899,2.07-0.66,3.25C198.87,155.09,199.05,154.1,200.23,153.26z M203.44,152.65c0.02-0.04,0.029-0.07,0.029-0.11
					c-0.529,0.09-1.43-0.08-2.399-0.47c-0.931-0.38-1.67-0.87-2.011-1.28c-0.02,0.02-0.029,0.04-0.04,0.06
					c-0.17,0.44,0.671,1.2,1.891,1.69C202.13,153.04,203.27,153.09,203.44,152.65z M186.51,147.73c0-0.65,1.66-2.05,2.34-2.12
					c0.66-0.06,1.301,0.49,1.17,1.17c-0.13,0.58-0.949,1.3-1.479,0.93C187.24,146.8,186.61,148.16,186.51,147.73z M189.56,146.72
					c0-0.22-0.18-0.41-0.409-0.41c-0.23,0-0.41,0.19-0.41,0.41c0,0.23,0.18,0.41,0.41,0.41
					C189.38,147.13,189.56,146.95,189.56,146.72z"/>
				<rect x="185.77" y="142.67" style="fill-rule:evenodd;clip-rule:evenodd;fill:none;" width="19.5" height="19.5"/>
			</g>
			<g>
				<path style="fill-rule:evenodd;clip-rule:evenodd;fill:#FFFFFF;" d="M221.69,159.59c-0.7-1.18-1.061-1.63-1.7-4.84l-0.84-7.98
					c-0.131-0.92-0.48-1.25-1.12-0.73l-0.99,0.78c-0.04-0.56-0.49-1-1.05-1.01c0.529-0.57,1.12-1.06,1.7-1.49
					c1.05-0.94,1.979-0.72,2.42,0.27c0.449,1.13,0.81,2.25,1.13,3.38c0.09-0.03,0.189-0.05,0.29-0.04
					c0.489,0.02,0.88,0.43,0.859,0.93c-0.02,0.44-0.359,0.8-0.779,0.85c-0.141-0.6-0.271-1.18-0.38-1.7
					c-0.41,0.08-0.721,0.44-0.721,0.87c0,0.49,0.4,0.89,0.891,0.89c0.109,0,0.21-0.01,0.3-0.05c0.08,0.3,0.149,0.59,0.22,0.88
					c0.05-0.01,0.1-0.01,0.15-0.01c0.5,0.02,0.88,0.44,0.859,0.93c-0.01,0.431-0.33,0.78-0.729,0.851
					c-0.12-0.561-0.26-1.14-0.391-1.72c-0.38,0.1-0.659,0.45-0.659,0.86c0,0.49,0.399,0.891,0.89,0.891c0.1,0,0.2-0.011,0.28-0.04
					c0.069,0.279,0.14,0.569,0.199,0.859c0,0-0.01,0-0.02,0c0.02,0,0.04,0,0.05,0c0.49,0.021,0.88,0.44,0.86,0.931
					c-0.01,0.39-0.271,0.71-0.62,0.819c-0.11-0.47-0.25-1.069-0.39-1.729c-0.37,0.069-0.67,0.43-0.67,0.859
					c0,0.5,0.399,0.9,0.89,0.9c0.11,0,0.21-0.02,0.31-0.06c0.04,0.18,0.09,0.369,0.13,0.55c0.2,0.779,1.051,0.649,1.061-0.141
					c-0.061-1.75,0.06-2.939,0.45-3.59c-0.46-0.37-0.69-0.72-0.59-0.98c0.199-0.53,1.72-0.44,3.399,0.19
					c1.68,0.64,2.88,1.589,2.68,2.12c-0.09,0.24-0.479,0.36-1.04,0.34c-0.38,0.67-1.09,1.23-1.05,1.99
					c0.12,2.5-0.279,5.311-2.859,5.67C223.81,161.22,222.65,160.81,221.69,159.59z M225.54,160.55c1.12-0.479,1.5-1.38,1.19-2.71
					c-0.73,2.09-2.171,2.49-4.211,1.45C223,159.91,224.23,160.97,225.54,160.55z M226.12,153.2l-0.78-0.391
					c-0.859,0.881-0.84,1.921-0.609,3C224.86,154.89,225.03,153.97,226.12,153.2z M229.08,152.63c0.02-0.03,0.02-0.06,0.02-0.1
					c-0.479,0.08-1.31-0.07-2.199-0.44c-0.86-0.34-1.551-0.8-1.86-1.18c-0.021,0.02-0.03,0.04-0.04,0.06
					c-0.16,0.41,0.62,1.11,1.75,1.56C227.87,152.99,228.92,153.03,229.08,152.63z M213.45,148.09c0-0.6,1.54-1.89,2.16-1.96
					c0.609-0.05,1.199,0.46,1.08,1.08c-0.11,0.54-0.87,1.21-1.37,0.86C214.12,147.23,213.55,148.49,213.45,148.09z M216.27,147.16
					c0-0.21-0.17-0.38-0.38-0.38s-0.38,0.17-0.38,0.38s0.17,0.37,0.38,0.37S216.27,147.37,216.27,147.16z"/>
				<rect x="212.77" y="143.42" style="fill-rule:evenodd;clip-rule:evenodd;fill:none;" width="18" height="18"/>
			</g>
			<g>
				<path style="fill-rule:evenodd;clip-rule:evenodd;fill:#FFFFFF;" d="M166.91,161.38c-0.87-1.47-1.32-2.04-2.12-6.05l-1.04-9.97
					c-0.17-1.15-0.6-1.56-1.4-0.92l-1.239,0.98c-0.051-0.7-0.62-1.25-1.32-1.26c0.66-0.71,1.4-1.32,2.13-1.87
					c1.311-1.17,2.47-0.89,3.03,0.35c0.55,1.4,1.01,2.81,1.41,4.21c0.109-0.03,0.229-0.05,0.359-0.04
					c0.62,0.02,1.101,0.54,1.07,1.16c-0.021,0.55-0.44,1-0.97,1.07c-0.17-0.76-0.33-1.49-0.471-2.13
					c-0.52,0.09-0.909,0.55-0.909,1.09c0,0.61,0.5,1.11,1.119,1.11c0.131,0,0.261-0.02,0.381-0.06c0.09,0.36,0.18,0.73,0.26,1.1
					c0.069-0.01,0.13-0.02,0.2-0.01c0.619,0.02,1.1,0.54,1.069,1.16c-0.02,0.53-0.41,0.97-0.91,1.061
					c-0.159-0.7-0.319-1.43-0.479-2.15c-0.48,0.12-0.83,0.55-0.83,1.07c0,0.62,0.49,1.12,1.11,1.12c0.12,0,0.239-0.021,0.35-0.061
					c0.09,0.36,0.17,0.72,0.25,1.08c-0.01,0-0.01,0-0.02,0c0.02,0,0.04,0,0.06,0c0.61,0.03,1.1,0.55,1.07,1.16
					c-0.021,0.49-0.34,0.89-0.771,1.03c-0.14-0.591-0.31-1.341-0.49-2.16c-0.46,0.09-0.84,0.54-0.84,1.08
					c0,0.609,0.5,1.109,1.11,1.109c0.14,0,0.27-0.02,0.39-0.069c0.05,0.229,0.11,0.46,0.17,0.689c0.24,0.971,1.311,0.8,1.32-0.17
					c-0.07-2.189,0.08-3.68,0.56-4.5c-0.569-0.46-0.859-0.9-0.739-1.22c0.25-0.66,2.16-0.55,4.26,0.24c2.1,0.8,3.59,1.98,3.34,2.64
					c-0.11,0.31-0.6,0.45-1.3,0.43c-0.48,0.83-1.36,1.54-1.311,2.5c0.15,3.12-0.35,6.63-3.569,7.08
					C169.57,163.43,168.12,162.91,166.91,161.38z M171.73,162.58c1.399-0.59,1.88-1.73,1.489-3.38c-0.91,2.609-2.71,3.109-5.26,1.8
					C168.55,161.78,170.1,163.11,171.73,162.58z M172.45,153.39l-0.97-0.479c-1.07,1.09-1.051,2.399-0.761,3.75
					C170.88,155.5,171.1,154.35,172.45,153.39z M176.16,152.69c0.02-0.051,0.03-0.08,0.03-0.131c-0.601,0.101-1.65-0.09-2.761-0.55
					c-1.08-0.43-1.939-1-2.33-1.47c-0.01,0.02-0.029,0.05-0.04,0.07c-0.199,0.51,0.771,1.38,2.181,1.95
					C174.65,153.13,175.96,153.19,176.16,152.69z M156.62,147c0-0.74,1.92-2.35,2.71-2.44c0.75-0.06,1.49,0.57,1.34,1.35
					c-0.14,0.68-1.09,1.51-1.71,1.07C157.46,145.93,156.74,147.5,156.62,147z M160.15,145.84c0-0.26-0.221-0.47-0.48-0.47
					s-0.479,0.21-0.479,0.47c0,0.26,0.22,0.47,0.479,0.47S160.15,146.1,160.15,145.84z"/>
				<rect x="155.77" y="141.17" style="fill-rule:evenodd;clip-rule:evenodd;fill:none;" width="22.5" height="22.5"/>
			</g>
			<g>
				<path style="fill-rule:evenodd;clip-rule:evenodd;fill:#FFFFFF;" d="M245.7,158.39c-0.58-0.979-0.88-1.359-1.42-4.029
					l-0.69-6.65c-0.109-0.76-0.399-1.04-0.939-0.61l-0.82,0.65c-0.03-0.46-0.41-0.83-0.88-0.84c0.439-0.47,0.93-0.88,1.42-1.24
					c0.87-0.79,1.649-0.6,2.02,0.23c0.37,0.94,0.67,1.87,0.94,2.81c0.07-0.03,0.16-0.04,0.24-0.03c0.41,0.01,0.729,0.36,0.72,0.77
					c-0.021,0.37-0.3,0.67-0.66,0.72c-0.11-0.51-0.22-1-0.31-1.43c-0.34,0.07-0.601,0.37-0.601,0.73c0,0.41,0.33,0.74,0.74,0.74
					c0.09,0,0.18-0.01,0.25-0.04c0.07,0.25,0.12,0.49,0.18,0.73c0.051,0,0.091,0,0.13,0c0.41,0.01,0.73,0.36,0.721,0.77
					c-0.01,0.36-0.28,0.65-0.61,0.71c-0.11-0.47-0.22-0.96-0.32-1.44c-0.319,0.09-0.56,0.38-0.56,0.72c0,0.41,0.34,0.74,0.75,0.74
					c0.08,0,0.16-0.011,0.23-0.03c0.06,0.24,0.109,0.47,0.17,0.72c-0.011,0-0.011,0-0.021,0c0.021,0,0.03,0,0.04,0
					c0.41,0.01,0.73,0.36,0.72,0.771c-0.01,0.33-0.229,0.59-0.52,0.689c-0.09-0.399-0.2-0.899-0.33-1.45
					c-0.3,0.07-0.56,0.37-0.56,0.721c0,0.41,0.34,0.75,0.75,0.75c0.09,0,0.17-0.021,0.26-0.051c0.029,0.15,0.069,0.301,0.109,0.461
					c0.16,0.649,0.87,0.539,0.881-0.12c-0.051-1.46,0.05-2.45,0.369-2.99c-0.38-0.311-0.569-0.601-0.489-0.82
					c0.17-0.44,1.439-0.37,2.84,0.16c1.399,0.53,2.399,1.32,2.229,1.76c-0.08,0.21-0.399,0.3-0.87,0.29
					c-0.319,0.561-0.909,1.021-0.88,1.66c0.11,2.08-0.229,4.42-2.37,4.73C247.47,159.76,246.5,159.41,245.7,158.39z M248.91,159.2
					c0.93-0.4,1.25-1.16,0.99-2.26c-0.61,1.739-1.801,2.069-3.511,1.199C246.79,158.66,247.82,159.55,248.91,159.2z M249.39,153.07
					l-0.649-0.32c-0.71,0.72-0.7,1.59-0.51,2.5C248.34,154.48,248.49,153.71,249.39,153.07z M251.86,152.6
					c0.01-0.029,0.02-0.06,0.02-0.09c-0.399,0.07-1.1-0.06-1.84-0.359c-0.71-0.29-1.29-0.67-1.55-0.99
					c-0.01,0.02-0.021,0.04-0.03,0.05c-0.13,0.34,0.521,0.92,1.46,1.3C250.85,152.89,251.73,152.93,251.86,152.6z M238.84,148.81
					c0-0.5,1.28-1.57,1.8-1.63c0.5-0.04,1,0.38,0.9,0.9c-0.1,0.45-0.73,1-1.14,0.71C239.4,148.09,238.92,149.14,238.84,148.81z
					 M241.19,148.03c0-0.17-0.141-0.31-0.32-0.31c-0.17,0-0.32,0.14-0.32,0.31c0,0.18,0.15,0.32,0.32,0.32
					C241.05,148.35,241.19,148.21,241.19,148.03z"/>
				<rect x="238.27" y="144.92" style="fill-rule:evenodd;clip-rule:evenodd;fill:none;" width="15" height="15"/>
			</g>
			<g>
				<path style="fill-rule:evenodd;clip-rule:evenodd;fill:#FFFFFF;" d="M266.71,157.2c-0.46-0.79-0.7-1.09-1.13-3.23l-0.561-5.32
					c-0.09-0.61-0.31-0.83-0.739-0.49l-0.66,0.52c-0.03-0.37-0.33-0.66-0.71-0.67c0.359-0.37,0.75-0.7,1.14-0.99
					c0.7-0.63,1.32-0.48,1.62,0.18c0.29,0.75,0.53,1.5,0.74,2.25c0.07-0.02,0.13-0.03,0.2-0.03c0.33,0.02,0.58,0.29,0.569,0.62
					c-0.01,0.3-0.239,0.54-0.52,0.58c-0.09-0.41-0.18-0.8-0.25-1.14c-0.28,0.05-0.48,0.29-0.48,0.58c0,0.33,0.261,0.6,0.59,0.6
					c0.07,0,0.141-0.02,0.2-0.04c0.05,0.2,0.101,0.39,0.15,0.59c0.03-0.01,0.07-0.01,0.1-0.01c0.33,0.01,0.59,0.29,0.57,0.62
					c-0.01,0.29-0.22,0.52-0.48,0.569c-0.09-0.38-0.18-0.77-0.26-1.149c-0.26,0.06-0.439,0.3-0.439,0.569
					c0,0.33,0.26,0.601,0.59,0.601c0.069,0,0.13-0.01,0.189-0.03c0.04,0.19,0.091,0.38,0.13,0.57h-0.01c0.01,0,0.021,0,0.03,0
					c0.33,0.02,0.59,0.29,0.57,0.62c-0.011,0.26-0.181,0.479-0.41,0.55c-0.07-0.311-0.16-0.71-0.26-1.15
					c-0.25,0.05-0.45,0.29-0.45,0.57c0,0.33,0.27,0.6,0.59,0.6c0.08,0,0.15-0.01,0.21-0.04c0.03,0.12,0.06,0.24,0.09,0.36
					c0.13,0.521,0.7,0.44,0.71-0.08c-0.04-1.17,0.04-1.97,0.3-2.399c-0.31-0.25-0.46-0.48-0.399-0.66
					c0.14-0.35,1.149-0.29,2.27,0.13c1.12,0.43,1.92,1.06,1.79,1.41c-0.069,0.17-0.33,0.239-0.7,0.229
					c-0.25,0.45-0.729,0.82-0.699,1.33c0.08,1.67-0.181,3.54-1.9,3.78C268.13,158.29,267.35,158.02,266.71,157.2z M269.28,157.84
					c0.75-0.32,1-0.92,0.79-1.81c-0.48,1.39-1.44,1.66-2.801,0.97C267.59,157.41,268.41,158.12,269.28,157.84z M269.67,152.94
					l-0.52-0.261c-0.57,0.58-0.561,1.28-0.41,2C268.83,154.06,268.94,153.45,269.67,152.94z M271.64,152.56
					c0.011-0.02,0.021-0.04,0.021-0.06c-0.32,0.05-0.88-0.06-1.47-0.3c-0.58-0.23-1.04-0.53-1.24-0.79
					c-0.01,0.02-0.021,0.03-0.03,0.04c-0.1,0.27,0.42,0.74,1.17,1.04C270.84,152.8,271.54,152.83,271.64,152.56z M261.22,149.53
					c0-0.4,1.03-1.26,1.44-1.3s0.8,0.3,0.72,0.71c-0.07,0.37-0.58,0.81-0.91,0.58C261.67,148.96,261.29,149.8,261.22,149.53z
					 M263.1,148.91c0-0.14-0.109-0.25-0.25-0.25c-0.14,0-0.25,0.11-0.25,0.25c0,0.14,0.11,0.25,0.25,0.25
					C262.99,149.16,263.1,149.05,263.1,148.91z"/>
				<rect x="260.77" y="146.42" style="fill-rule:evenodd;clip-rule:evenodd;fill:none;" width="12" height="12"/>
			</g>
		</g>
	</g>
</g>
<g id="Guides">
</g>
</svg>
