<?xml version="1.0" encoding="iso-8859-1"?>
<!-- Generator: Adobe Illustrator 15.0.0, SVG Export Plug-In . SVG Version: 6.00 Build 0)  -->
<!DOCTYPE svg PUBLIC "-//W3C//DTD SVG 1.1//EN" "http://www.w3.org/Graphics/SVG/1.1/DTD/svg11.dtd">
<svg version="1.1" xmlns="http://www.w3.org/2000/svg" xmlns:xlink="http://www.w3.org/1999/xlink" x="0px" y="0px" width="300px"
	 height="300px" viewBox="0 0 300 300" style="enable-background:new 0 0 300 300;" xml:space="preserve">
<g id="Layer_1">
	<g>
		<rect x="-80.13" y="-56.69" style="fill-rule:evenodd;clip-rule:evenodd;fill:none;" width="45" height="45"/>
	</g>
	<g>
		<rect x="0.56" y="-0.31" style="fill-rule:evenodd;clip-rule:evenodd;fill:#666666;" width="300" height="300"/>
		<g>
			<g>
				<path style="fill-rule:evenodd;clip-rule:evenodd;fill:#FFFFFF;" d="M41.76,172.81l0.92-1.38c0.51-0.91,0.39-2.06-0.35-3.43
					l-3.89-7.67l-2.06,8.93c-0.27,0.76-0.74,1.221-1.37,1.49c-1.14,0.39-2.1,0.33-2.63-0.81c-0.91-1.681-1.61-3.49-2.18-5.381
					l-0.69-3.199l-1.14-7.33c-0.26-0.58-0.68-0.8-1.15-0.91L25.97,153l-4.35-1.83c-0.39-0.18-0.63-0.51-0.69-1.03v-1.49
					c0.08-0.4,0.03-0.8,0.11-1.09c0.28-1.03,0.8-1,0.58,1.32l0.22,0.92l0.69,0.57l0.92,0.34v-2.17c-0.03-1.13,2.94-0.28,2.99,0.64
					l-0.02,0.62l0.69,0.34l2.52,0.919c0.63,0.271,0.83,0.53,0.91,0.801l0.35,1.26l2.52,6.52c0.38,0.891,0.6,0.83,0.68,0l0.35-10.41
					v-0.17c-0.03,0.06-0.06,0.12-0.08,0.18c-0.41,1-0.77,2.029-1.04,3.09c0.19-0.76,0.4-1.52,0.62-2.27c0.15-0.51,0.31-1.01,0.5-1.5
					v-0.59l-0.34-0.51c-0.02,0.12-0.03,0.25-0.05,0.37c-0.02,0.11-0.04,0.21-0.05,0.32c-0.04,0.27-0.08,0.55-0.12,0.82
					c-0.09,0.59-0.2,1.18-0.4,1.71c-0.1,0.25-0.21,0.48-0.38,0.69c-0.09,0.12-0.21,0.229-0.34,0.3l-0.02,0.01
					c-0.01,0.011-0.05,0.03-0.09,0.051c0.01-0.011-0.03,0.01-0.06,0.02c-0.03,0.01-0.06,0.02-0.1,0.03l-0.04,0.01h-0.01l-0.04,0.01
					l-0.05,0.01h-0.02h-0.01c-0.04,0-0.09,0.011-0.13,0.011l0.14-0.011l0.07-0.01l0.05-0.01l0.11-0.03
					c0.03-0.01,0.06-0.02,0.09-0.029c-0.01,0-0.04,0.01-0.09,0.02l0.18-0.07c0.02-0.01-0.02,0-0.18,0.07l0.46-0.31
					c0.04-0.04,0.08-0.091,0.11-0.141c0.05-0.069,0.09-0.14,0.12-0.21c0.18-0.34,0.26-0.73,0.32-1.12c0.05-0.3,0.08-0.61,0.1-0.92
					c-0.15,0.27-0.33,0.53-0.48,0.8c-0.13,0.23-0.22,0.47-0.28,0.73c0.06-0.26,0.15-0.5,0.25-0.73c0.14-0.28,0.29-0.56,0.4-0.85
					c0.06-0.14,0.1-0.29,0.13-0.44c0.02-0.37,0.02-0.75,0.03-0.93l-0.01-0.05c-0.02-0.3-0.06-0.59-0.12-0.88l-0.34-0.5
					c-0.05,0.29-0.1,0.57-0.15,0.86c0.01,0.17,0,0.34-0.02,0.5c-0.03,0.15-0.07,0.29-0.12,0.43c-0.07,0.47-0.12,0.95-0.15,1.44
					c0.01-0.19,0.02-0.39,0.02-0.58c0.01-0.2,0-0.39,0-0.58c-0.16,0.33-0.35,0.64-0.49,0.97c-0.09,0.18-0.15,0.36-0.22,0.63
					c0-0.02-0.02,0.05-0.03,0.12c0.01-0.06,0.03-0.13,0.03-0.12c0.03-0.16,0.05-0.23,0.07-0.3c0.08-0.26,0.19-0.51,0.29-0.76
					c0.07-0.17,0.14-0.34,0.2-0.51c0.05-0.17,0.1-0.35,0.13-0.52c0-0.01,0-0.02,0-0.03c-0.01-0.2-0.02-0.4-0.04-0.6
					c-0.04-0.21-0.11-0.4-0.18-0.59c-0.27,0.62-0.56,1.22-0.88,1.81c-0.21,0.37-0.42,0.73-0.78,1.17c0.02-0.01,0,0.01-0.04,0.06
					c0.02-0.02,0.01-0.01-0.06,0.07l0,0l0,0l-0.01,0.01c0.01-0.01,0,0-0.01,0.01c-0.01,0.01-0.04,0.04-0.07,0.07
					c0.03-0.02,0.05-0.05,0.07-0.07l0.01-0.01l0.01-0.01l0,0l0,0l0.06-0.07l0.04-0.06c0.22-0.3,0.31-0.44,0.38-0.58
					c0.21-0.37,0.36-0.76,0.51-1.15c0.2-0.58,0.37-1.18,0.54-1.78c-0.15-0.33-0.3-0.65-0.42-0.99c0,0,0-0.01-0.01-0.01
					c-0.14,0.3-0.28,0.6-0.44,0.9l-0.24,0.36c-0.01,0.02-0.03,0.04-0.05,0.07l0,0c0.19-0.25,0.08-0.06-0.07,0.1
					c-0.03,0.04-0.07,0.08-0.12,0.11l-0.03,0.01l-0.01,0.01l-0.01,0.01h-0.02l-0.01,0.01h-0.02c-0.01,0.01-0.03,0.01-0.05,0.01
					l0.05-0.01c0.01,0,0.01,0,0.01,0h0.01l0.03-0.01l0.02-0.02l0.04-0.02c0.07-0.05,0.13-0.13,0.18-0.2l0,0l0,0l0.01-0.01l0.27-0.56
					c0.11-0.3,0.19-0.61,0.27-0.92c-0.18-0.17-0.34-0.36-0.46-0.58c-0.19,0.54-0.31,1.1-0.32,1.72c0-0.51,0.02-1.02,0.05-1.52
					c0.02-0.27,0.04-0.54,0.08-0.8c-0.02-0.14-0.03-0.29-0.02-0.46c-0.44,0.79-0.81,1.6-1.18,2.42c0.33-0.75,0.63-1.52,0.94-2.29
					c0.12-0.29,0.25-0.59,0.33-0.76c0.08-0.35,0.21-0.72,0.4-1.15c-0.35,0.21-0.69,0.45-0.98,0.77c-0.06,0.06-0.12,0.12-0.17,0.19
					c-0.18,0.23-0.33,0.48-0.43,0.75c-0.06,0.13-0.09,0.26-0.13,0.39c0.09-0.36,0.19-0.71,0.32-1.05l-0.15,0.2
					c0.27-0.38,0.37-0.56,0.21-0.34c0.43-0.89,0.66-1.23,0.94-1.55c0.36-0.62,0.72-1.24,0.89-1.42l0,0
					c-0.12,0.08-0.23,0.15-0.33,0.25c-0.09,0.08-0.16,0.16-0.23,0.25l-0.06,0.09l-0.07,0.12c0.02-0.04,0.04-0.08,0.06-0.11
					l0.01-0.01l0.06-0.11c0.04-0.07,0.09-0.14,0.14-0.21c0.2-0.26,0.45-0.5,0.7-0.74l0,0c-0.02-0.05-0.04-0.1-0.06-0.16
					c-0.01-0.04-0.01-0.08-0.02-0.12c-0.01-0.05-0.02-0.1-0.03-0.16c0-0.02,0-0.04,0-0.06c-0.1,0.05-0.2,0.11-0.3,0.17
					c-0.48,0.28-0.94,0.59-1.37,0.98c-0.31,0.28-0.59,0.59-0.82,0.92l-0.17,0.27l-0.17,0.3c0.05-0.1,0.11-0.19,0.16-0.29l0.01-0.01
					l0.05-0.1c0.08-0.14,0.17-0.26,0.26-0.39c0.14-0.2,0.29-0.39,0.45-0.57c0.44-0.5,0.95-0.93,1.46-1.32
					c0.15-0.11,0.29-0.21,0.44-0.32c0.03-0.08,0.05-0.15,0.08-0.23c-0.04,0.02-0.08,0.03-0.12,0.04c0.04-0.01,0.08-0.03,0.12-0.04
					c0.03-0.09,0.06-0.17,0.1-0.26c0.13-0.37,0.28-0.74,0.47-1.09c-0.04,0.02-0.08,0.05-0.12,0.07c-0.09,0.05-0.19,0.1-0.29,0.15
					c-0.07,0.03-0.14,0.07-0.21,0.1c-0.1,0.04-0.21,0.08-0.33,0.1c-0.07,0.01-0.15,0.01-0.21-0.01l-0.07-0.02l-0.01-0.01l0,0h-0.01
					c-0.03-0.02-0.06-0.04-0.08-0.06l0.09,0.06l0.01,0.01l0.07,0.02c0.04,0,0.09,0,0.13,0c0.1-0.01,0.19-0.05,0.27-0.09
					c0.02-0.02,0.04-0.03,0.07-0.05c0.02-0.01,0.04-0.03,0.06-0.04c0.04-0.03,0.08-0.06,0.11-0.09c0.05-0.04,0.1-0.09,0.15-0.14
					c0.06-0.06,0.12-0.12,0.17-0.18c0.19-0.22,0.34-0.46,0.49-0.7c0.13-0.24,0.26-0.48,0.38-0.72c0.17-0.35,0.34-0.69,0.52-1.04
					c0.81-3.72,4.89-6.37,9.28-2.82c0.06-0.76,0.43-1.37,1.49-1.6l1.37-0.11c-1.2,0.4-1.6,0.78-1.03,1.14
					c1.11,0.06,1.98-0.31,3.51,0.56l1.42,1.16c3.79,4.21,8.92,9.77,8.66,11.78c-0.32,0.79-0.54,0.96-1.68,1.5l-8.36,3.2
					c-0.68,0.3-0.58,0.73,0,1.26c2.31,2.43,5.27,3.29,8.24,4.92c-0.13,0.05-0.24,0.16-0.28,0.3c-0.05,0.23,0.1,0.45,0.33,0.51
					c0.16,0.03,0.31-0.02,0.41-0.109c0.6,4.05-1.1,5.229-3.09,6.06v0.01c-0.96,0.431-2.08,0.67-3.26,0.67
					c-3.22,0-5.9-1.789-6.55-4.189c0,0.02,0,0.05,0,0.07c0,2.93,2.5,5.31,5.59,5.31c1.69,0,3.2-0.71,4.22-1.83
					c0.13,4.99-0.28,7.84-0.57,11.18H41.76z M57.46,156.68c-0.24,0.09-0.5,0.12-0.77,0.08c-0.77-0.14-1.29-0.88-1.15-1.66
					c0.05-0.26,0.17-0.5,0.34-0.689c-0.45,0.17-0.8,0.57-0.89,1.08c-0.14,0.77,0.38,1.51,1.15,1.649
					C56.65,157.23,57.14,157.04,57.46,156.68z M57.21,155.53c-0.24-0.05-0.39-0.28-0.33-0.5c0.02-0.08,0.06-0.15,0.11-0.2
					c0.24-0.08,0.64-0.09,0.75,0.13c0.09,0.19-0.15,0.48-0.3,0.56l0,0C57.37,155.55,57.29,155.55,57.21,155.53z M32.55,151.76
					l0.04-0.01l-0.03,0.01H32.55z M30.83,149.67L30.83,149.67L30.83,149.67C30.84,149.66,30.85,149.65,30.83,149.67z M30.83,149.67
					L30.83,149.67L30.83,149.67L30.83,149.67z M30.83,149.67L30.83,149.67L30.83,149.67L30.83,149.67L30.83,149.67z M30.83,149.67
					C30.85,149.64,30.87,149.63,30.83,149.67L30.83,149.67z M33.72,147.75c0-0.28,0-0.27,0-0.12V147.75z M31.21,146.35l0.04-0.06
					C31.34,146.14,31.38,146.04,31.21,146.35z M47.26,144.07l5.83-1.83c-1.55-2.08-2.94-4.97-4.46-8.01
					c-0.77-0.18-1.49-0.07-2.06,0.21c0.2,0.09,0.4,0.19,0.61,0.26c0.27,0.09,0.56,0.16,0.88,0.15c0.05,0,0.1-0.01,0.14-0.01
					c0.04-0.01,0.07-0.01,0.1-0.01c-0.03,0-0.06,0.01-0.1,0.01c-0.05,0.01-0.1,0.01-0.16,0.01c-0.22,0.02-0.43,0-0.64-0.03
					c-0.25-0.04-0.49-0.1-0.73-0.18c-0.1-0.03-0.2-0.06-0.29-0.1c-0.07,0.04-0.13,0.08-0.2,0.12c0.04,0.03,0.08,0.05,0.12,0.08
					c0.15,0.1,0.29,0.22,0.43,0.32c0.1,0.08,0.19,0.15,0.3,0.21c0.12,0.08,0.24,0.14,0.37,0.18c0.11,0.03,0.23,0.04,0.34,0.02
					c0.03,0,0.06-0.01,0.08-0.02c0.05-0.01,0.1-0.03,0.04-0.01l0.04-0.01c-0.02,0-0.03,0.01-0.04,0.01l0.26-0.14l0.07-0.07
					c-0.02,0.02-0.04,0.04-0.07,0.07c-0.04,0.03-0.09,0.07-0.16,0.1l-0.06,0.03c0.13-0.05-0.01,0.04-0.17,0.08
					c-0.05,0.01-0.1,0.03-0.16,0.03c-0.14,0.01-0.28-0.01-0.41-0.04c-0.16-0.05-0.32-0.11-0.46-0.19c-0.13-0.07-0.26-0.15-0.38-0.25
					c-0.08-0.05-0.15-0.11-0.22-0.18c-0.03-0.03-0.06-0.06-0.09-0.08c-0.09,0.07-0.17,0.15-0.24,0.23l0.02,0.03
					c0.42,0.24,0.87,0.64,1.38,0.91c0.27,0.14,0.56,0.26,0.9,0.26h-0.04h-0.04h-0.05l-0.04-0.01h-0.04l-0.04-0.01h-0.05l-0.04-0.01
					l-0.04-0.01l-0.05-0.01l-0.04-0.01l-0.04-0.01l-0.05-0.01l-0.04-0.02l-0.09-0.02l-0.09-0.03l-0.09-0.03l-0.09-0.04l-0.09-0.03
					l-0.09-0.04l-0.09-0.04l-0.09-0.04l-0.09-0.05l-0.09-0.04l-0.08-0.05l-0.18-0.09l-0.17-0.09l-0.02-0.02
					c0.69,1.02,1.21,2.04,0.91,3.06C48.24,141.46,47.25,142.84,47.26,144.07z M29.9,142.87c0.07-0.09,0.15-0.19,0.13-0.17
					C30.09,142.62,29.99,142.75,29.9,142.87z M31.14,142.75c0.16-0.42,0.13-0.38,0.03-0.15C31.16,142.65,31.15,142.7,31.14,142.75z
					 M32.17,139.93c0.1-0.06,0.2-0.13,0.3-0.19c0.13-0.21,0.26-0.43,0.41-0.66c-0.04,0.03-0.08,0.05-0.12,0.06
					c-0.18,0.2-0.36,0.4-0.52,0.59c-0.11,0.13-0.22,0.26-0.32,0.39C32,140.06,32.09,139.99,32.17,139.93z M32.09,139.38
					c-0.01,0-0.01,0.01-0.02,0.01l0,0C32.08,139.39,32.08,139.39,32.09,139.38z M32.07,139.39l0.03-0.01c0-0.01,0-0.01,0-0.01
					c0,0.01,0,0.01-0.01,0.01C32.09,139.38,32.08,139.39,32.07,139.39z M32.09,139.38C32.12,139.37,32.11,139.37,32.09,139.38
					L32.09,139.38z M32.1,139.38c0.02-0.01,0.02-0.01,0-0.01C32.1,139.37,32.1,139.37,32.1,139.38z M32.11,139.37L32.11,139.37
					c0,0,0,0-0.01,0H32.11z M32.1,139.37L32.1,139.37L32.1,139.37L32.1,139.37L32.1,139.37z M32.1,139.37L32.1,139.37
					c0,0,0,0,0.01,0c0.13-0.07,0.11-0.06,0,0C32.11,139.37,32.11,139.37,32.1,139.37L32.1,139.37L32.1,139.37z M32.1,139.37
					c0.04-0.01,0.02-0.01,0.01,0C32.1,139.37,32.1,139.37,32.1,139.37z M32.11,139.37 M33.39,137.85c0,0,0.01-0.01,0.02-0.02
					c0.02-0.03,0.04-0.06,0.06-0.1c-0.27,0.15-0.54,0.3-0.81,0.45c-0.01,0-0.01,0-0.01,0.01l-0.01,0.02v0.2c0,0.06,0,0.12,0.01,0.18
					C32.87,138.33,33.12,138.07,33.39,137.85z M33.72,137.6c0.13-0.08,0.25-0.16,0.26-0.15l0.01-0.01c0.01-0.01,0.02-0.02,0.03-0.03
					c-0.08,0.05-0.18,0.11-0.29,0.17C33.73,137.59,33.73,137.59,33.72,137.6z M33.98,137.45l-0.03,0.03
					C33.97,137.46,33.98,137.45,33.98,137.45z M34.02,137.41c0.17-0.11,0.25-0.16,0.03-0.03c0.03-0.04,0.01-0.02,0,0
					C34.04,137.39,34.03,137.4,34.02,137.41z M33.9,136.09c0.04-0.08,0.09-0.15,0.13-0.23v-0.08c-0.02,0.02-0.05,0.03-0.07,0.05
					c-0.02,0.01-0.04,0.03-0.07,0.04c-0.23,0.31-0.44,0.64-0.62,0.98c-0.09,0.16-0.17,0.33-0.25,0.5
					C33.4,136.97,33.64,136.53,33.9,136.09z"/>
				<rect x="17.36" y="128.56" style="fill-rule:evenodd;clip-rule:evenodd;fill:none;" width="45" height="45"/>
			</g>
			<g>
				<path style="fill-rule:evenodd;clip-rule:evenodd;fill:#FFFFFF;" d="M91.2,168.46l0.73-1.1c0.41-0.73,0.32-1.65-0.27-2.75
					l-3.11-6.13l-1.65,7.14c-0.22,0.61-0.59,0.979-1.1,1.189c-0.91,0.32-1.68,0.261-2.11-0.64c-0.72-1.35-1.28-2.8-1.74-4.31
					L81.4,159.3l-0.91-5.859c-0.21-0.471-0.54-0.65-0.92-0.73l-1-0.1l-3.48-1.46c-0.32-0.15-0.51-0.41-0.55-0.82v-1.2
					c0.06-0.32,0.02-0.64,0.09-0.87c0.22-0.82,0.64-0.8,0.46,1.06l0.18,0.73l0.55,0.46l0.73,0.27v-1.74
					c-0.02-0.9,2.36-0.22,2.4,0.52l-0.02,0.49l0.55,0.28l2.02,0.729c0.5,0.21,0.66,0.431,0.73,0.641l0.27,1.01l2.02,5.22
					c0.3,0.71,0.48,0.66,0.55,0l0.27-8.34v-0.13c-0.02,0.05-0.04,0.1-0.06,0.15c-0.33,0.8-0.61,1.621-0.83,2.47
					c0.15-0.61,0.32-1.22,0.5-1.82c0.12-0.41,0.25-0.81,0.39-1.2v-0.47l-0.27-0.41c-0.01,0.1-0.02,0.2-0.04,0.29
					c-0.01,0.09-0.03,0.18-0.04,0.26c-0.03,0.22-0.06,0.44-0.09,0.66c-0.07,0.47-0.16,0.94-0.33,1.37c-0.07,0.2-0.16,0.38-0.29,0.55
					c-0.08,0.091-0.18,0.181-0.28,0.24l-0.01,0.01c-0.02,0-0.04,0.021-0.08,0.03c0.01,0-0.02,0.01-0.05,0.021
					c-0.02,0.01-0.05,0.02-0.07,0.029h-0.04l-0.01,0.011h-0.02l-0.05,0.01h-0.02l0,0c-0.04,0-0.07,0.01-0.1,0.01l0.1-0.01l0.07-0.01
					l0.03-0.011l0.09-0.02c0.03-0.01,0.05-0.021,0.07-0.03c-0.01,0-0.03,0.01-0.07,0.03l0.15-0.061c0.01-0.02-0.02-0.01-0.15,0.061
					l0.37-0.25c0.03-0.04,0.06-0.08,0.09-0.12c0.03-0.05,0.07-0.11,0.09-0.17c0.14-0.27,0.21-0.58,0.26-0.89
					c0.04-0.24,0.06-0.49,0.08-0.74c-0.12,0.22-0.26,0.42-0.38,0.64c-0.11,0.18-0.18,0.37-0.23,0.58c0.05-0.2,0.12-0.39,0.2-0.57
					c0.11-0.23,0.23-0.45,0.32-0.69c0.05-0.11,0.08-0.23,0.11-0.35c0.01-0.3,0.01-0.6,0.02-0.74l-0.01-0.04
					c-0.01-0.24-0.05-0.48-0.09-0.7l-0.27-0.41c-0.04,0.23-0.09,0.46-0.13,0.69c0.01,0.14,0,0.28-0.02,0.4
					c-0.02,0.12-0.05,0.23-0.09,0.34c-0.05,0.38-0.09,0.76-0.12,1.16c0.01-0.16,0.02-0.31,0.02-0.47s0-0.31,0-0.46
					c-0.13,0.26-0.28,0.51-0.4,0.77c-0.07,0.15-0.12,0.29-0.17,0.51c0-0.02-0.02,0.04-0.03,0.1c0.01-0.06,0.03-0.11,0.03-0.1
					c0.03-0.13,0.04-0.19,0.06-0.24c0.06-0.21,0.14-0.41,0.22-0.61c0.06-0.13,0.12-0.27,0.16-0.41c0.05-0.13,0.09-0.28,0.11-0.42
					v-0.01c-0.01-0.17-0.02-0.33-0.03-0.49c-0.03-0.16-0.09-0.32-0.15-0.47c-0.21,0.5-0.44,0.98-0.7,1.45
					c-0.16,0.29-0.33,0.58-0.62,0.94c0.01-0.02,0,0-0.04,0.04c0.02-0.01,0.02-0.01-0.04,0.06l0,0l0,0l-0.01,0.01
					c0.01-0.01,0-0.01-0.01,0.01c-0.01,0-0.03,0.03-0.05,0.05c0.02-0.02,0.04-0.04,0.05-0.05l0.01-0.01c0-0.01,0-0.01,0.01-0.01l0,0
					c0,0,0,0,0-0.01l0.04-0.05l0.04-0.04c0.17-0.24,0.24-0.35,0.3-0.47c0.17-0.29,0.29-0.6,0.41-0.92c0.16-0.46,0.3-0.94,0.43-1.42
					c-0.12-0.26-0.24-0.52-0.33-0.8c0,0-0.01,0-0.01-0.01c-0.11,0.25-0.23,0.49-0.36,0.72l-0.19,0.29
					c-0.01,0.02-0.02,0.04-0.03,0.06h-0.01c0.15-0.2,0.07-0.04-0.05,0.08c-0.03,0.04-0.06,0.07-0.1,0.09l-0.02,0.01l-0.01,0.01
					h-0.01l-0.01,0.01h-0.01h-0.02c-0.01,0.01-0.02,0.01-0.04,0.01l0.04-0.01c0.01,0,0.01,0,0.01,0h0.01l0.02-0.01l0.02-0.01
					l0.03-0.02c0.06-0.04,0.1-0.1,0.14-0.16h0.01l0,0v-0.01l0.21-0.45c0.09-0.23,0.16-0.48,0.22-0.73
					c-0.14-0.14-0.27-0.29-0.36-0.46c-0.15,0.42-0.25,0.87-0.26,1.37c0-0.41,0.02-0.82,0.04-1.22c0.02-0.21,0.03-0.43,0.06-0.64
					c-0.02-0.11-0.02-0.23-0.02-0.36c-0.34,0.63-0.64,1.28-0.94,1.94c0.27-0.61,0.51-1.23,0.76-1.84c0.09-0.23,0.19-0.47,0.26-0.61
					c0.06-0.27,0.16-0.58,0.32-0.92c-0.28,0.17-0.55,0.36-0.79,0.62c-0.05,0.04-0.09,0.1-0.13,0.15c-0.15,0.18-0.26,0.38-0.35,0.6
					c-0.04,0.1-0.07,0.21-0.1,0.31c0.07-0.29,0.15-0.57,0.26-0.84l-0.12,0.16c0.21-0.3,0.29-0.45,0.16-0.27
					c0.35-0.71,0.53-0.99,0.76-1.24c0.28-0.5,0.57-0.99,0.71-1.13l0,0c-0.1,0.05-0.19,0.12-0.27,0.19c-0.07,0.06-0.12,0.13-0.18,0.2
					l-0.05,0.08l-0.05,0.09c0.01-0.03,0.03-0.06,0.05-0.09l0,0l0.05-0.09c0.03-0.06,0.08-0.11,0.12-0.17
					c0.15-0.21,0.35-0.4,0.55-0.59l0,0c-0.02-0.04-0.03-0.09-0.04-0.13c-0.01-0.03-0.02-0.06-0.02-0.1
					c-0.01-0.04-0.02-0.08-0.02-0.12c0-0.02-0.01-0.04-0.01-0.06c-0.08,0.05-0.15,0.1-0.23,0.14c-0.39,0.23-0.76,0.48-1.1,0.79
					c-0.25,0.22-0.48,0.47-0.66,0.74l-0.13,0.21l-0.14,0.24c0.04-0.08,0.09-0.15,0.13-0.23l0.01-0.01l0.04-0.08
					c0.06-0.11,0.13-0.21,0.2-0.31c0.12-0.16,0.24-0.31,0.37-0.46c0.35-0.39,0.76-0.74,1.16-1.05c0.12-0.09,0.24-0.18,0.36-0.26
					c0.02-0.06,0.04-0.12,0.06-0.18c-0.03,0.01-0.06,0.02-0.1,0.03c0.04-0.01,0.07-0.02,0.1-0.04c0.02-0.07,0.05-0.13,0.08-0.2
					c0.1-0.3,0.22-0.59,0.37-0.87c-0.03,0.01-0.06,0.03-0.09,0.05c-0.08,0.04-0.15,0.08-0.23,0.12c-0.06,0.03-0.11,0.06-0.17,0.08
					c-0.08,0.04-0.17,0.07-0.27,0.08c-0.05,0.01-0.11,0.01-0.16,0l-0.06-0.02v-0.01l0,0H83.1c-0.02-0.02-0.04-0.03-0.06-0.05
					l0.08,0.05v0.01l0.06,0.01c0.03,0.01,0.07,0.01,0.1,0c0.08-0.01,0.15-0.03,0.21-0.07c0.02-0.01,0.04-0.02,0.06-0.04
					c0.02-0.01,0.03-0.02,0.05-0.03c0.03-0.02,0.06-0.05,0.09-0.07c0.04-0.04,0.08-0.07,0.12-0.11c0.05-0.05,0.09-0.1,0.13-0.15
					c0.15-0.18,0.28-0.37,0.39-0.56s0.21-0.38,0.31-0.57c0.14-0.28,0.27-0.56,0.42-0.83c0.65-2.98,3.91-5.1,7.42-2.26
					c0.05-0.61,0.35-1.1,1.19-1.28l1.1-0.09c-0.96,0.32-1.28,0.62-0.82,0.91c0.88,0.05,1.58-0.25,2.8,0.45l1.14,0.93
					c3.03,3.36,7.14,7.81,6.93,9.43c-0.26,0.63-0.44,0.76-1.35,1.19l-6.68,2.56c-0.55,0.24-0.47,0.59,0,1.01
					c1.84,1.94,4.21,2.629,6.59,3.94c-0.11,0.04-0.2,0.12-0.23,0.24c-0.04,0.18,0.08,0.359,0.27,0.399
					c0.12,0.03,0.25-0.01,0.33-0.08c0.48,3.24-0.89,4.181-2.47,4.841c0,0.01,0,0.01,0,0.01c-0.78,0.35-1.67,0.54-2.62,0.54
					c-2.57,0-4.72-1.44-5.24-3.351c0,0.021,0,0.03,0,0.051c0,2.35,2.01,4.25,4.48,4.25c1.35,0,2.56-0.57,3.38-1.461
					c0.1,3.99-0.23,6.271-0.46,8.94H91.2z M103.76,155.56c-0.19,0.07-0.4,0.101-0.61,0.061c-0.62-0.11-1.04-0.7-0.92-1.32
					c0.03-0.22,0.13-0.41,0.26-0.56c-0.35,0.14-0.63,0.46-0.71,0.859c-0.11,0.62,0.31,1.21,0.93,1.32
					C103.11,156,103.51,155.84,103.76,155.56z M103.56,154.64c-0.19-0.04-0.31-0.22-0.27-0.399c0.02-0.07,0.05-0.12,0.09-0.16
					c0.2-0.07,0.52-0.07,0.6,0.1c0.08,0.15-0.12,0.38-0.23,0.45l0,0C103.69,154.65,103.63,154.65,103.56,154.64z M83.83,151.62
					l0.03-0.01l-0.02,0.01H83.83z M82.46,149.95L82.46,149.95L82.46,149.95C82.46,149.94,82.47,149.93,82.46,149.95z M82.46,149.95
					L82.46,149.95L82.46,149.95L82.46,149.95z M82.46,149.95L82.46,149.95L82.46,149.95L82.46,149.95L82.46,149.95z M82.46,149.95
					c0.02-0.02,0.03-0.03,0-0.01V149.95z M84.77,148.41c0-0.22,0-0.22,0-0.09V148.41z M82.76,147.29l0.03-0.05
					C82.86,147.12,82.89,147.04,82.76,147.29z M95.6,145.47l4.67-1.46c-1.25-1.67-2.36-3.98-3.57-6.41
					c-0.62-0.15-1.19-0.06-1.65,0.16c0.16,0.08,0.32,0.15,0.48,0.21c0.22,0.08,0.46,0.13,0.71,0.12c0.04,0,0.08,0,0.11-0.01
					c0.04,0,0.06,0,0.09-0.01c-0.03,0.01-0.05,0.01-0.09,0.01c-0.03,0.01-0.08,0.01-0.12,0.02c-0.18,0-0.35-0.01-0.51-0.03
					c-0.21-0.04-0.4-0.09-0.59-0.14c-0.08-0.03-0.16-0.06-0.24-0.09c-0.05,0.04-0.1,0.07-0.15,0.1c0.03,0.02,0.06,0.04,0.1,0.06
					c0.11,0.08,0.22,0.18,0.34,0.26c0.07,0.06,0.15,0.12,0.23,0.17c0.1,0.06,0.2,0.11,0.31,0.14c0.08,0.02,0.17,0.03,0.26,0.02
					c0.03,0,0.05-0.01,0.07-0.02c0.04,0,0.08-0.02,0.03,0l0.03-0.02c-0.01,0.01-0.02,0.01-0.03,0.02l0.21-0.12l0.05-0.05
					c-0.01,0.01-0.02,0.03-0.05,0.05c-0.03,0.03-0.08,0.06-0.13,0.08l-0.05,0.02c0.11-0.03,0,0.04-0.13,0.07
					c-0.04,0.01-0.09,0.02-0.13,0.02c-0.12,0.01-0.23,0-0.33-0.03c-0.13-0.04-0.25-0.09-0.37-0.15c-0.1-0.06-0.2-0.12-0.3-0.2
					c-0.06-0.04-0.12-0.09-0.18-0.15c-0.02-0.02-0.05-0.04-0.07-0.06c-0.07,0.06-0.13,0.12-0.19,0.19l0.01,0.02
					c0.34,0.19,0.7,0.51,1.11,0.73c0.22,0.11,0.45,0.2,0.72,0.21h-0.03l-0.04-0.01h-0.03h-0.04h-0.03l-0.03-0.01h-0.04l-0.03-0.01
					l-0.04-0.01h-0.03l-0.04-0.01l-0.03-0.01l-0.04-0.01l-0.03-0.01l-0.08-0.02l-0.07-0.03l-0.07-0.02l-0.07-0.03l-0.07-0.03
					l-0.07-0.03l-0.08-0.03l-0.07-0.03l-0.07-0.04l-0.07-0.03l-0.07-0.04l-0.14-0.07l-0.13-0.08l-0.02-0.01
					c0.55,0.82,0.97,1.63,0.72,2.45C96.38,143.38,95.59,144.48,95.6,145.47z M81.71,144.51c0.06-0.08,0.12-0.16,0.11-0.14
					C81.86,144.31,81.79,144.41,81.71,144.51z M82.7,144.41c0.13-0.33,0.11-0.3,0.03-0.12C82.72,144.33,82.71,144.37,82.7,144.41z
					 M83.53,142.16c0.08-0.06,0.16-0.11,0.24-0.16c0.1-0.17,0.21-0.34,0.33-0.53c-0.03,0.03-0.07,0.05-0.1,0.06
					c-0.15,0.15-0.29,0.31-0.42,0.47c-0.08,0.1-0.17,0.2-0.25,0.31C83.39,142.26,83.46,142.21,83.53,142.16z M83.47,141.72
					c-0.01,0-0.01,0-0.02,0.01l0,0C83.45,141.72,83.46,141.72,83.47,141.72z M83.45,141.73l0.02-0.02l0,0c0,0,0,0,0,0.01
					C83.46,141.72,83.46,141.72,83.45,141.73z M83.47,141.72C83.49,141.7,83.48,141.71,83.47,141.72L83.47,141.72z M83.47,141.71
					c0.02,0,0.02,0,0.01,0C83.47,141.71,83.47,141.71,83.47,141.71z M83.48,141.71L83.48,141.71c0,0,0,0-0.01,0
					C83.48,141.71,83.48,141.71,83.48,141.71z M83.47,141.71L83.47,141.71C83.48,141.71,83.48,141.71,83.47,141.71h0.01H83.47z
					 M83.47,141.71h0.01l0,0c0.1-0.06,0.09-0.05,0,0l0,0C83.48,141.71,83.48,141.71,83.47,141.71
					C83.48,141.71,83.48,141.71,83.47,141.71z M83.48,141.71C83.5,141.7,83.49,141.7,83.48,141.71L83.48,141.71z M83.48,141.71
					 M84.5,140.49c0.01,0,0.01-0.01,0.02-0.01c0.01-0.03,0.03-0.06,0.05-0.09c-0.22,0.13-0.44,0.25-0.65,0.37l0,0l-0.01,0.02v0.16
					c0,0.05,0,0.1,0,0.15C84.09,140.87,84.29,140.67,84.5,140.49z M84.77,140.29c0.1-0.06,0.2-0.12,0.2-0.12h0.01
					c0.01-0.01,0.02-0.02,0.03-0.03c-0.06,0.04-0.15,0.09-0.23,0.13C84.78,140.28,84.77,140.29,84.77,140.29z M84.97,140.17
					l-0.02,0.02C84.97,140.18,84.98,140.18,84.97,140.17z M85.01,140.14c0.14-0.09,0.2-0.12,0.02-0.03c0.02-0.03,0.01-0.01,0,0.01
					C85.03,140.12,85.02,140.13,85.01,140.14z M84.91,139.08c0.04-0.06,0.07-0.12,0.11-0.18v-0.06c-0.02,0.01-0.04,0.02-0.06,0.03
					c-0.02,0.02-0.03,0.03-0.05,0.04c-0.19,0.25-0.35,0.51-0.5,0.78c-0.07,0.13-0.14,0.26-0.2,0.4
					C84.51,139.79,84.71,139.43,84.91,139.08z"/>
				<rect x="71.68" y="133.06" style="fill-rule:evenodd;clip-rule:evenodd;fill:none;" width="36" height="36"/>
			</g>
			<g>
				<path style="fill-rule:evenodd;clip-rule:evenodd;fill:#FFFFFF;" d="M133.27,165.56l0.61-0.92c0.34-0.609,0.26-1.37-0.23-2.29
					l-2.59-5.109l-1.38,5.95c-0.18,0.51-0.49,0.819-0.91,0.989c-0.76,0.271-1.4,0.221-1.76-0.529c-0.6-1.131-1.07-2.33-1.45-3.591
					l-0.46-2.13l-0.76-4.89c-0.17-0.39-0.45-0.54-0.76-0.61l-0.84-0.08l-2.9-1.22c-0.26-0.12-0.42-0.34-0.46-0.68v-1
					c0.06-0.27,0.02-0.53,0.08-0.72c0.18-0.69,0.53-0.67,0.38,0.88l0.15,0.61l0.46,0.38l0.61,0.23v-1.45
					c-0.02-0.75,1.96-0.19,2,0.43l-0.02,0.41l0.46,0.23l1.68,0.609c0.42,0.181,0.55,0.351,0.61,0.53l0.23,0.84l1.68,4.351
					c0.25,0.59,0.4,0.55,0.46,0l0.23-6.94v-0.11c-0.02,0.04-0.04,0.08-0.05,0.12c-0.28,0.66-0.52,1.35-0.7,2.06
					c0.13-0.51,0.27-1.02,0.42-1.52c0.1-0.34,0.2-0.67,0.33-1V149l-0.23-0.34c-0.01,0.08-0.02,0.16-0.03,0.24
					c-0.01,0.08-0.03,0.15-0.04,0.22c-0.02,0.18-0.05,0.36-0.08,0.55c-0.05,0.39-0.13,0.78-0.26,1.14
					c-0.07,0.16-0.14,0.32-0.25,0.459c-0.07,0.08-0.15,0.15-0.23,0.2h-0.01c-0.01,0.011-0.04,0.021-0.07,0.03
					c0.01,0-0.01,0.01-0.04,0.02c-0.02,0.011-0.04,0.011-0.06,0.021h-0.03l-0.01,0.01h-0.02l-0.04,0.01h-0.01h-0.01
					c-0.02,0-0.05,0-0.08,0.011l0.09-0.011l0.05-0.01l0.03-0.01l0.07-0.021c0.03,0,0.04-0.01,0.06-0.02c0,0-0.02,0.01-0.06,0.02
					l0.13-0.05c0.01-0.01-0.02,0-0.13,0.05l0.31-0.199c0.03-0.04,0.05-0.07,0.08-0.101c0.03-0.05,0.05-0.09,0.08-0.14
					c0.11-0.23,0.17-0.49,0.21-0.75c0.03-0.2,0.05-0.4,0.06-0.61c-0.1,0.18-0.21,0.35-0.31,0.53c-0.09,0.15-0.15,0.31-0.19,0.49
					c0.04-0.17,0.1-0.33,0.17-0.48c0.09-0.2,0.19-0.38,0.26-0.58c0.04-0.09,0.07-0.19,0.09-0.29c0.01-0.25,0.01-0.5,0.02-0.62
					l-0.01-0.03c-0.01-0.2-0.04-0.4-0.08-0.58l-0.22-0.34c-0.04,0.19-0.07,0.38-0.1,0.57c0,0.12-0.01,0.23-0.02,0.34
					c-0.02,0.1-0.05,0.19-0.08,0.28c-0.04,0.32-0.08,0.64-0.1,0.96c0.01-0.13,0.02-0.26,0.02-0.39s0-0.25,0-0.38
					c-0.11,0.22-0.24,0.43-0.33,0.64c-0.06,0.12-0.1,0.25-0.15,0.42c0-0.01-0.01,0.04-0.02,0.09c0.01-0.05,0.02-0.09,0.02-0.09
					c0.02-0.1,0.04-0.15,0.05-0.19c0.05-0.18,0.12-0.34,0.19-0.51c0.05-0.11,0.09-0.23,0.13-0.34c0.04-0.11,0.07-0.24,0.09-0.35
					v-0.01c0-0.14-0.01-0.27-0.02-0.41c-0.03-0.13-0.08-0.26-0.13-0.39c-0.17,0.41-0.37,0.82-0.58,1.2
					c-0.14,0.25-0.28,0.49-0.52,0.79c0.01-0.01,0,0-0.03,0.04c0.02-0.02,0.01-0.01-0.04,0.04l0,0l0,0l-0.01,0.01
					c0.01-0.01,0.01,0,0,0.01c-0.01,0-0.03,0.02-0.05,0.04c0.02-0.01,0.04-0.03,0.05-0.04v-0.01c0.01,0,0.01-0.01,0.01-0.01l0,0l0,0
					l0.04-0.04l0.03-0.04c0.15-0.2,0.2-0.29,0.25-0.39c0.14-0.24,0.24-0.5,0.34-0.77c0.14-0.38,0.25-0.78,0.36-1.18
					c-0.1-0.22-0.2-0.44-0.28-0.67c0,0,0,0-0.01,0c-0.09,0.2-0.18,0.4-0.29,0.6l-0.16,0.24c-0.01,0.01-0.02,0.03-0.03,0.04v0.01
					c0.12-0.17,0.05-0.04-0.05,0.06c-0.02,0.03-0.05,0.06-0.08,0.08l-0.02,0.01l0,0h-0.01l-0.01,0.01h-0.01h-0.01
					c-0.01,0.01-0.02,0.01-0.04,0.01l0.04-0.01l0,0h0.01l0.02-0.01h0.01l0.03-0.02c0.05-0.03,0.09-0.08,0.12-0.13v-0.01l0,0l0,0
					l0.18-0.37c0.08-0.2,0.13-0.41,0.18-0.62c-0.12-0.11-0.22-0.23-0.3-0.38c-0.13,0.35-0.21,0.73-0.21,1.14
					c0-0.34,0.01-0.68,0.03-1.01c0.01-0.18,0.03-0.36,0.05-0.53c-0.01-0.1-0.02-0.2-0.01-0.31c-0.29,0.53-0.54,1.07-0.79,1.62
					c0.22-0.51,0.42-1.02,0.63-1.53c0.08-0.2,0.16-0.39,0.22-0.51c0.05-0.23,0.14-0.48,0.26-0.77c-0.23,0.14-0.45,0.3-0.65,0.51
					c-0.04,0.04-0.08,0.09-0.11,0.13c-0.12,0.15-0.22,0.32-0.29,0.5c-0.04,0.09-0.06,0.18-0.08,0.26c0.06-0.24,0.12-0.47,0.21-0.7
					l-0.1,0.13c0.18-0.25,0.24-0.37,0.14-0.22c0.29-0.59,0.44-0.82,0.63-1.03c0.23-0.42,0.48-0.83,0.59-0.95l0,0
					c-0.08,0.05-0.16,0.1-0.22,0.16s-0.11,0.11-0.15,0.17l-0.04,0.06l-0.05,0.08c0.01-0.03,0.03-0.05,0.04-0.07l0.01-0.01l0.03-0.07
					c0.03-0.05,0.07-0.09,0.1-0.14c0.13-0.17,0.3-0.34,0.46-0.49l0,0c-0.01-0.04-0.02-0.07-0.03-0.11
					c-0.01-0.03-0.01-0.05-0.02-0.08c-0.01-0.04-0.01-0.07-0.02-0.11c0-0.01,0-0.03,0-0.04c-0.07,0.04-0.13,0.08-0.2,0.11
					c-0.32,0.19-0.63,0.4-0.91,0.66c-0.21,0.18-0.4,0.39-0.55,0.61l-0.11,0.18l-0.11,0.2c0.03-0.06,0.07-0.13,0.1-0.19l0.01-0.01
					l0.03-0.07c0.06-0.08,0.11-0.17,0.17-0.26c0.1-0.13,0.2-0.25,0.31-0.37c0.29-0.33,0.63-0.62,0.97-0.88
					c0.1-0.08,0.19-0.15,0.29-0.22c0.02-0.05,0.04-0.1,0.05-0.15c-0.02,0.01-0.05,0.02-0.07,0.03c0.02-0.01,0.05-0.02,0.08-0.03
					c0.02-0.06,0.04-0.12,0.06-0.17c0.09-0.25,0.19-0.5,0.31-0.73c-0.02,0.01-0.05,0.03-0.08,0.04c-0.06,0.04-0.12,0.07-0.19,0.11
					c-0.04,0.02-0.09,0.04-0.14,0.06c-0.07,0.03-0.14,0.06-0.22,0.07c-0.04,0-0.1,0-0.14-0.01l-0.04-0.01l-0.01-0.01l0,0h-0.01
					c-0.02-0.01-0.04-0.03-0.05-0.04l0.06,0.04l0.01,0.01l0.04,0.01c0.03,0.01,0.06,0.01,0.09,0c0.07-0.01,0.12-0.03,0.18-0.06
					c0.01-0.01,0.03-0.02,0.04-0.03c0.02-0.01,0.03-0.02,0.05-0.03c0.02-0.02,0.05-0.04,0.07-0.06c0.03-0.03,0.07-0.06,0.1-0.09
					c0.04-0.04,0.08-0.08,0.11-0.12c0.13-0.15,0.23-0.31,0.33-0.47c0.09-0.16,0.17-0.32,0.25-0.48c0.12-0.23,0.23-0.46,0.35-0.69
					c0.54-2.48,3.26-4.25,6.19-1.88c0.04-0.51,0.28-0.91,0.99-1.07l0.91-0.07c-0.8,0.26-1.07,0.52-0.68,0.76
					c0.73,0.04,1.31-0.21,2.34,0.37l0.94,0.78c2.53,2.8,5.95,6.51,5.77,7.85c-0.21,0.53-0.36,0.64-1.12,1l-5.57,2.13
					c-0.45,0.2-0.38,0.49,0,0.84c1.54,1.62,3.51,2.19,5.5,3.29c-0.09,0.03-0.17,0.1-0.19,0.2c-0.04,0.149,0.06,0.3,0.22,0.33
					c0.1,0.02,0.21-0.011,0.27-0.07c0.4,2.7-0.73,3.479-2.06,4.04c0,0,0,0,0,0.01c-0.64,0.28-1.38,0.45-2.17,0.45
					c-2.15,0-3.94-1.2-4.37-2.8c0,0.02,0,0.029,0,0.05c0,1.95,1.67,3.54,3.73,3.54c1.12,0,2.13-0.48,2.81-1.22
					c0.09,3.33-0.19,5.22-0.38,7.449H133.27z M143.74,154.81c-0.16,0.061-0.34,0.08-0.52,0.051c-0.51-0.091-0.86-0.591-0.76-1.101
					c0.03-0.18,0.11-0.34,0.22-0.47c-0.3,0.12-0.53,0.38-0.59,0.72c-0.09,0.521,0.25,1.01,0.77,1.101
					C143.2,155.17,143.52,155.05,143.74,154.81z M143.57,154.04c-0.16-0.03-0.26-0.18-0.22-0.33c0.01-0.06,0.04-0.1,0.07-0.13
					c0.16-0.061,0.43-0.061,0.5,0.08c0.06,0.12-0.1,0.32-0.2,0.37v0.01C143.68,154.05,143.62,154.05,143.57,154.04z M127.13,151.53
					l0.02-0.011h-0.02C127.13,151.53,127.13,151.53,127.13,151.53z M125.98,150.13L125.98,150.13L125.98,150.13
					C125.99,150.13,125.99,150.12,125.98,150.13z M125.98,150.13L125.98,150.13L125.98,150.13L125.98,150.13z M125.98,150.13
					L125.98,150.13L125.98,150.13L125.98,150.13L125.98,150.13z M125.98,150.13C126,150.11,126.01,150.11,125.98,150.13
					L125.98,150.13z M127.91,148.85c0-0.18,0-0.18,0-0.08V148.85z M126.23,147.92l0.03-0.04
					C126.32,147.78,126.35,147.71,126.23,147.92z M136.93,146.4l3.89-1.22c-1.03-1.39-1.96-3.32-2.97-5.34
					c-0.52-0.12-0.99-0.05-1.37,0.14c0.13,0.06,0.26,0.12,0.4,0.17c0.18,0.06,0.38,0.11,0.59,0.1c0.03,0,0.07,0,0.09,0
					c0.03-0.01,0.05-0.01,0.07-0.01c-0.02,0-0.04,0-0.07,0.01c-0.03,0-0.07,0-0.1,0.01c-0.15,0-0.29-0.01-0.43-0.03
					c-0.17-0.03-0.33-0.07-0.49-0.12c-0.06-0.02-0.13-0.04-0.19-0.06c-0.05,0.02-0.09,0.05-0.13,0.08c0.02,0.01,0.05,0.03,0.08,0.05
					c0.09,0.07,0.19,0.15,0.28,0.22c0.07,0.04,0.13,0.09,0.2,0.14c0.08,0.04,0.16,0.09,0.25,0.11c0.07,0.02,0.15,0.03,0.22,0.02
					c0.02-0.01,0.04-0.01,0.06-0.02c0.03,0,0.06-0.02,0.02,0l0.03-0.01c-0.01,0-0.02,0-0.03,0.01l0.18-0.1l0.04-0.04
					c-0.01,0.01-0.02,0.02-0.04,0.04c-0.03,0.02-0.06,0.05-0.11,0.07l-0.04,0.02c0.09-0.03,0,0.02-0.11,0.05
					c-0.03,0.01-0.07,0.02-0.11,0.02c-0.09,0.01-0.19,0-0.27-0.03c-0.11-0.03-0.21-0.07-0.31-0.12c-0.09-0.05-0.17-0.1-0.25-0.16
					c-0.05-0.04-0.1-0.08-0.15-0.13c-0.02-0.02-0.04-0.04-0.06-0.05c-0.06,0.05-0.11,0.1-0.16,0.15l0.01,0.02
					c0.29,0.16,0.58,0.43,0.93,0.61c0.18,0.09,0.37,0.17,0.6,0.17h-0.03h-0.03h-0.03h-0.03l-0.03-0.01h-0.02h-0.03l-0.03-0.01
					l-0.03-0.01h-0.03l-0.03-0.01h-0.03l-0.03-0.01l-0.03-0.01l-0.06-0.02l-0.06-0.02l-0.05-0.02l-0.07-0.02l-0.06-0.03l-0.05-0.02
					l-0.07-0.03l-0.05-0.03l-0.06-0.03l-0.06-0.03l-0.06-0.03l-0.12-0.06l-0.11-0.06l-0.02-0.01c0.47,0.68,0.81,1.36,0.61,2.04
					C137.59,144.66,136.93,145.58,136.93,146.4z M125.36,145.6c0.05-0.06,0.1-0.13,0.09-0.12
					C125.49,145.44,125.42,145.52,125.36,145.6z M126.19,145.52c0.1-0.28,0.09-0.26,0.02-0.1
					C126.2,145.45,126.19,145.49,126.19,145.52z M126.88,143.64c0.06-0.04,0.13-0.09,0.19-0.13c0.09-0.14,0.18-0.29,0.28-0.44
					c-0.03,0.02-0.05,0.04-0.08,0.05c-0.12,0.12-0.24,0.26-0.35,0.39c-0.07,0.08-0.14,0.17-0.21,0.25
					C126.76,143.72,126.82,143.68,126.88,143.64z M126.82,143.27c0,0.01-0.01,0.01-0.01,0.01l0,0
					C126.81,143.28,126.82,143.28,126.82,143.27z M126.81,143.28l0.02-0.01l0,0c0,0,0,0-0.01,0
					C126.82,143.27,126.82,143.28,126.81,143.28z M126.82,143.27C126.84,143.26,126.83,143.27,126.82,143.27L126.82,143.27z
					 M126.83,143.27C126.84,143.26,126.84,143.26,126.83,143.27L126.83,143.27z M126.83,143.27h0.01
					C126.83,143.27,126.83,143.27,126.83,143.27L126.83,143.27z M126.83,143.27L126.83,143.27L126.83,143.27L126.83,143.27
					L126.83,143.27z M126.83,143.27L126.83,143.27L126.83,143.27C126.92,143.22,126.91,143.22,126.83,143.27L126.83,143.27
					L126.83,143.27L126.83,143.27z M126.83,143.27C126.85,143.26,126.84,143.26,126.83,143.27L126.83,143.27z M126.84,143.27
					 M127.69,142.25c0,0,0,0,0.01-0.01c0.01-0.02,0.03-0.04,0.04-0.07c-0.18,0.1-0.36,0.2-0.54,0.3c0,0,0,0,0,0.01l-0.01,0.01v0.14
					c0,0.04,0,0.08,0.01,0.12C127.34,142.57,127.51,142.4,127.69,142.25z M127.91,142.09c0.08-0.06,0.17-0.11,0.17-0.1l0.01-0.01
					c0-0.01,0.01-0.02,0.02-0.02c-0.05,0.03-0.12,0.07-0.19,0.11C127.91,142.08,127.91,142.08,127.91,142.09z M128.08,141.99
					l-0.02,0.01C128.08,141.99,128.08,141.99,128.08,141.99z M128.11,141.96c0.11-0.07,0.16-0.1,0.02-0.02c0.02-0.03,0.01-0.01,0,0
					C128.12,141.94,128.12,141.95,128.11,141.96z M128.03,141.08c0.03-0.05,0.06-0.1,0.09-0.15l-0.01-0.06
					c-0.01,0.02-0.03,0.02-0.04,0.03c-0.02,0.01-0.03,0.02-0.05,0.03c-0.15,0.21-0.29,0.43-0.41,0.65
					c-0.06,0.11-0.11,0.22-0.17,0.34C127.69,141.67,127.86,141.37,128.03,141.08z"/>
				<rect x="117" y="136.06" style="fill-rule:evenodd;clip-rule:evenodd;fill:none;" width="30" height="30"/>
			</g>
			<g>
				<path style="fill-rule:evenodd;clip-rule:evenodd;fill:#FFFFFF;" d="M168.52,161.93l0.461-0.68c0.26-0.46,0.199-1.03-0.171-1.72
					l-1.949-3.84l-1.03,4.47c-0.13,0.38-0.37,0.609-0.68,0.74c-0.57,0.199-1.051,0.17-1.32-0.4c-0.45-0.84-0.8-1.75-1.09-2.69
					l-0.34-1.6l-0.57-3.66c-0.13-0.3-0.34-0.41-0.58-0.46l-0.62-0.06l-2.18-0.91c-0.19-0.101-0.311-0.26-0.34-0.52v-0.74
					c0.04-0.21,0.01-0.41,0.05-0.55c0.14-0.52,0.399-0.5,0.29,0.66l0.109,0.46l0.351,0.28l0.46,0.18v-1.09
					c-0.021-0.56,1.47-0.14,1.49,0.32l-0.011,0.31l0.351,0.17l1.26,0.459c0.31,0.131,0.41,0.271,0.45,0.4l0.18,0.63l1.26,3.26
					c0.19,0.44,0.301,0.41,0.341,0l0.17-5.209v-0.08c-0.011,0.03-0.021,0.06-0.04,0.09c-0.2,0.5-0.38,1.01-0.521,1.55
					c0.101-0.391,0.2-0.77,0.311-1.14c0.08-0.25,0.159-0.5,0.25-0.75v-0.3l-0.17-0.25c-0.011,0.06-0.011,0.12-0.021,0.18
					s-0.02,0.11-0.03,0.16c-0.02,0.14-0.04,0.28-0.06,0.41c-0.04,0.3-0.1,0.59-0.2,0.86c-0.05,0.12-0.1,0.24-0.18,0.34
					c-0.05,0.06-0.11,0.12-0.181,0.15l-0.01,0.01c0,0-0.02,0.01-0.04,0.02c0,0-0.01,0.011-0.029,0.011
					c-0.021,0.01-0.03,0.01-0.051,0.02h-0.02h-0.01l-0.011,0.01h-0.029h-0.011h-0.01c-0.02,0.011-0.04,0.011-0.06,0.011l0.069-0.011
					h0.04l0.021-0.01l0.05-0.01c0.021-0.01,0.03-0.01,0.05-0.021c-0.01,0-0.02,0.011-0.05,0.021l0.09-0.04
					c0.01-0.01-0.01,0-0.09,0.04l0.23-0.16c0.02-0.02,0.04-0.05,0.06-0.07c0.021-0.04,0.04-0.069,0.06-0.109
					c0.091-0.17,0.131-0.36,0.16-0.561c0.021-0.15,0.04-0.3,0.051-0.46c-0.08,0.14-0.171,0.27-0.24,0.4
					c-0.061,0.12-0.11,0.24-0.141,0.37c0.03-0.13,0.07-0.25,0.131-0.36c0.06-0.15,0.14-0.29,0.189-0.43
					c0.03-0.07,0.05-0.14,0.07-0.22c0.01-0.19,0.01-0.38,0.01-0.46v-0.03c-0.01-0.15-0.03-0.3-0.06-0.44l-0.171-0.25
					c-0.029,0.14-0.05,0.28-0.079,0.43c0.01,0.08,0,0.17-0.011,0.25c-0.01,0.08-0.029,0.15-0.06,0.21
					c-0.03,0.24-0.061,0.48-0.07,0.72c0-0.09,0.01-0.19,0.01-0.29c0-0.09,0-0.19,0-0.29c-0.079,0.17-0.18,0.32-0.25,0.49
					c-0.04,0.09-0.069,0.18-0.109,0.31c0-0.01-0.01,0.03-0.01,0.06c0-0.03,0.01-0.06,0.01-0.06c0.02-0.08,0.03-0.11,0.04-0.15
					c0.04-0.13,0.09-0.25,0.14-0.38c0.04-0.08,0.07-0.17,0.101-0.25c0.029-0.09,0.05-0.18,0.069-0.26c0-0.01,0-0.01,0-0.01
					c-0.01-0.11-0.01-0.21-0.02-0.31c-0.021-0.1-0.061-0.2-0.09-0.29c-0.131,0.31-0.28,0.61-0.44,0.9c-0.1,0.19-0.21,0.37-0.39,0.59
					c0.01-0.01,0,0.01-0.021,0.03c0.01-0.01,0.01-0.01-0.03,0.03l0,0l0,0l-0.01,0.01c0.01-0.01,0,0,0,0.01
					c-0.01,0-0.02,0.02-0.04,0.03c0.021-0.01,0.03-0.03,0.04-0.03v-0.01c0,0,0.01,0,0.01-0.01l0,0l0,0l0.03-0.03l0.021-0.03
					c0.109-0.15,0.149-0.22,0.189-0.29c0.101-0.18,0.181-0.38,0.25-0.58c0.101-0.29,0.19-0.59,0.271-0.88
					c-0.07-0.17-0.15-0.33-0.2-0.5c-0.01,0-0.01-0.01-0.01-0.01c-0.07,0.16-0.141,0.31-0.221,0.45l-0.12,0.18
					c-0.01,0.01-0.02,0.03-0.02,0.04h-0.01c0.1-0.12,0.04-0.03-0.03,0.05c-0.02,0.02-0.04,0.04-0.06,0.05l-0.021,0.01v0.01h-0.01
					h-0.01l0,0H163.1c-0.01,0.01-0.02,0.01-0.029,0.01l0.029-0.01l0,0h0.011h0.01l0.01-0.01l0.021-0.01
					c0.04-0.02,0.069-0.06,0.09-0.1l0,0c0,0,0,0,0.01,0v-0.01l0.13-0.28c0.061-0.14,0.101-0.3,0.14-0.46
					c-0.09-0.08-0.17-0.17-0.229-0.28c-0.1,0.26-0.16,0.54-0.16,0.85c0-0.25,0.01-0.51,0.03-0.76c0-0.13,0.02-0.27,0.03-0.4
					c-0.011-0.07-0.011-0.14-0.011-0.22c-0.21,0.39-0.399,0.8-0.59,1.21c0.17-0.38,0.32-0.77,0.47-1.15
					c0.07-0.15,0.131-0.29,0.171-0.38c0.039-0.17,0.1-0.36,0.199-0.58c-0.18,0.11-0.35,0.23-0.489,0.39
					c-0.03,0.03-0.061,0.06-0.091,0.09c-0.09,0.12-0.159,0.24-0.21,0.38c-0.029,0.06-0.05,0.13-0.069,0.19
					c0.05-0.18,0.1-0.35,0.16-0.52l-0.07,0.1c0.13-0.19,0.18-0.28,0.1-0.17c0.221-0.45,0.33-0.62,0.471-0.78
					c0.18-0.31,0.359-0.62,0.449-0.7l0,0c-0.06,0.03-0.12,0.07-0.17,0.12c-0.04,0.04-0.08,0.08-0.109,0.12l-0.03,0.05l-0.04,0.06
					c0.01-0.02,0.02-0.04,0.04-0.06l0,0l0.03-0.05c0.02-0.04,0.04-0.07,0.069-0.11c0.101-0.13,0.221-0.25,0.351-0.37l0,0
					c-0.011-0.03-0.021-0.05-0.03-0.08c0-0.02-0.01-0.04-0.01-0.06c-0.011-0.03-0.011-0.05-0.011-0.08
					c-0.01-0.01-0.01-0.02-0.01-0.03c-0.05,0.03-0.1,0.05-0.149,0.08c-0.23,0.15-0.471,0.3-0.681,0.49c-0.16,0.14-0.3,0.3-0.41,0.47
					l-0.09,0.13l-0.08,0.15c0.021-0.05,0.051-0.1,0.08-0.14v-0.01l0.03-0.05c0.04-0.07,0.08-0.13,0.13-0.2
					c0.07-0.09,0.141-0.19,0.22-0.28c0.221-0.25,0.48-0.47,0.73-0.66c0.08-0.05,0.15-0.11,0.22-0.16c0.021-0.04,0.03-0.08,0.04-0.12
					c-0.02,0.01-0.04,0.02-0.06,0.02c0.02,0,0.04-0.01,0.06-0.02c0.021-0.04,0.04-0.08,0.05-0.13c0.07-0.18,0.141-0.36,0.24-0.54
					c-0.02,0.01-0.04,0.02-0.06,0.03c-0.05,0.03-0.101,0.05-0.15,0.08c-0.03,0.02-0.07,0.03-0.1,0.05
					c-0.05,0.02-0.11,0.04-0.17,0.05c-0.03,0-0.07,0-0.101-0.01l-0.04-0.01l0,0l0,0h-0.01c-0.01-0.01-0.03-0.02-0.04-0.03l0.05,0.03
					l0,0l0.04,0.01c0.021,0.01,0.04,0.01,0.07,0c0.04,0,0.09-0.02,0.13-0.04c0.01-0.01,0.021-0.02,0.03-0.02
					c0.01-0.01,0.02-0.02,0.029-0.03c0.021-0.01,0.04-0.02,0.061-0.04c0.02-0.02,0.05-0.05,0.07-0.07
					c0.029-0.03,0.06-0.06,0.09-0.09c0.09-0.11,0.17-0.23,0.24-0.35c0.069-0.12,0.13-0.24,0.189-0.36c0.09-0.17,0.17-0.35,0.26-0.52
					c0.41-1.86,2.45-3.19,4.65-1.41c0.02-0.38,0.21-0.68,0.74-0.8l0.689-0.06c-0.609,0.2-0.81,0.39-0.52,0.57
					c0.55,0.03,0.99-0.15,1.75,0.28l0.71,0.58c1.899,2.11,4.46,4.89,4.33,5.9c-0.15,0.39-0.271,0.48-0.84,0.74l-4.171,1.61
					c-0.35,0.14-0.289,0.36,0,0.63c1.15,1.21,2.631,1.64,4.11,2.46c-0.06,0.02-0.12,0.069-0.14,0.149
					c-0.021,0.11,0.05,0.221,0.17,0.25c0.08,0.011,0.149-0.01,0.21-0.06c0.29,2.03-0.561,2.62-1.55,3.03c0,0.01,0,0.01,0,0.01
					c-0.48,0.21-1.04,0.34-1.63,0.34c-1.61,0-2.95-0.9-3.28-2.1c0,0.01,0,0.02,0,0.029c0,1.471,1.26,2.66,2.8,2.66
					c0.84,0,1.6-0.359,2.11-0.92c0.06,2.5-0.141,3.92-0.29,5.59H168.52z M176.37,153.87c-0.11,0.05-0.25,0.06-0.38,0.04
					c-0.391-0.07-0.65-0.44-0.58-0.83c0.03-0.13,0.09-0.25,0.17-0.35c-0.22,0.09-0.4,0.289-0.44,0.539
					c-0.069,0.391,0.19,0.761,0.57,0.83C175.97,154.14,176.21,154.05,176.37,153.87z M176.25,153.3c-0.12-0.03-0.2-0.14-0.17-0.26
					c0.01-0.04,0.03-0.07,0.06-0.09c0.12-0.05,0.32-0.05,0.37,0.06c0.05,0.09-0.069,0.24-0.149,0.28l0,0
					C176.33,153.3,176.29,153.3,176.25,153.3z M163.92,151.41l0.021-0.01L163.92,151.41L163.92,151.41z M163.06,150.36
					L163.06,150.36L163.06,150.36C163.06,150.36,163.07,150.35,163.06,150.36z M163.06,150.36L163.06,150.36L163.06,150.36
					L163.06,150.36z M163.06,150.36L163.06,150.36L163.06,150.36L163.06,150.36L163.06,150.36z M163.06,150.36
					C163.07,150.35,163.08,150.34,163.06,150.36L163.06,150.36z M164.5,149.4c0-0.13,0-0.13,0-0.05V149.4z M163.25,148.7l0.02-0.03
					C163.31,148.6,163.33,148.55,163.25,148.7z M171.27,147.57l2.921-0.92c-0.78-1.04-1.471-2.49-2.23-4.01
					c-0.39-0.09-0.75-0.03-1.03,0.11c0.101,0.05,0.2,0.09,0.301,0.13c0.14,0.05,0.279,0.08,0.439,0.07c0.03,0,0.05,0,0.07,0
					c0.02,0,0.04-0.01,0.06-0.01c-0.02,0-0.04,0.01-0.06,0.01c-0.021,0-0.05,0-0.08,0.01c-0.101,0-0.21-0.01-0.311-0.02
					c-0.13-0.02-0.25-0.05-0.369-0.09c-0.051-0.02-0.101-0.03-0.15-0.05c-0.03,0.02-0.061,0.04-0.09,0.06
					c0.02,0.01,0.029,0.03,0.05,0.04c0.08,0.05,0.15,0.11,0.22,0.16c0.05,0.04,0.101,0.08,0.15,0.11c0.06,0.03,0.12,0.06,0.189,0.08
					c0.051,0.02,0.11,0.02,0.16,0.02c0.021-0.01,0.03-0.01,0.05-0.01c0.021-0.01,0.04-0.02,0.011-0.01l0.02-0.01
					c0,0-0.01,0.01-0.02,0.01l0.13-0.07l0.04-0.03c-0.01,0.01-0.021,0.01-0.04,0.03c-0.021,0.01-0.04,0.03-0.08,0.05l-0.03,0.01
					c0.07-0.02,0,0.02-0.08,0.05c-0.029,0-0.05,0.01-0.08,0.01c-0.069,0-0.14-0.01-0.21-0.02c-0.08-0.02-0.16-0.06-0.229-0.1
					c-0.061-0.03-0.13-0.07-0.19-0.12c-0.04-0.03-0.069-0.06-0.109-0.09c-0.011-0.02-0.03-0.03-0.04-0.04
					c-0.051,0.03-0.091,0.07-0.12,0.11l0.01,0.02c0.21,0.12,0.43,0.32,0.69,0.45c0.13,0.07,0.279,0.13,0.449,0.13h-0.02h-0.021
					h-0.02h-0.03h-0.02l-0.021-0.01h-0.02h-0.021l-0.02-0.01h-0.03l-0.02-0.01h-0.021l-0.02-0.01h-0.021l-0.05-0.02l-0.04-0.01
					l-0.05-0.02l-0.04-0.01l-0.05-0.02l-0.04-0.02l-0.051-0.02l-0.04-0.02l-0.05-0.02l-0.04-0.03l-0.04-0.02l-0.09-0.04l-0.09-0.05
					l-0.01-0.01c0.35,0.51,0.609,1.02,0.46,1.53C171.76,146.26,171.27,146.95,171.27,147.57z M162.59,146.97
					c0.04-0.05,0.08-0.1,0.07-0.09C162.69,146.84,162.64,146.9,162.59,146.97z M163.21,146.9c0.08-0.2,0.07-0.19,0.021-0.07
					C163.22,146.85,163.22,146.88,163.21,146.9z M163.73,145.5c0.05-0.04,0.1-0.07,0.149-0.1c0.061-0.11,0.13-0.22,0.2-0.33
					c-0.021,0.01-0.04,0.02-0.061,0.03c-0.09,0.1-0.18,0.2-0.26,0.3c-0.05,0.06-0.109,0.12-0.16,0.19
					C163.64,145.56,163.69,145.53,163.73,145.5z M163.69,145.22h-0.011v0.01C163.68,145.22,163.69,145.22,163.69,145.22z
					 M163.68,145.23l0.011-0.01l0,0l0,0C163.69,145.22,163.68,145.22,163.68,145.23z M163.69,145.22
					C163.7,145.21,163.7,145.21,163.69,145.22L163.69,145.22z M163.69,145.22C163.7,145.21,163.7,145.21,163.69,145.22
					L163.69,145.22z M163.7,145.21L163.7,145.21c0,0,0,0.01-0.01,0.01C163.7,145.22,163.7,145.22,163.7,145.21z M163.69,145.22
					L163.69,145.22L163.69,145.22L163.69,145.22L163.69,145.22z M163.69,145.22L163.69,145.22h0.01c0.06-0.04,0.05-0.04,0-0.01
					C163.7,145.22,163.7,145.22,163.69,145.22L163.69,145.22L163.69,145.22z M163.69,145.22c0.02-0.01,0.01-0.01,0.01,0H163.69z
					 M163.7,145.21 M164.34,144.46c0-0.01,0-0.01,0.01-0.01c0.011-0.02,0.021-0.04,0.03-0.06c-0.14,0.08-0.27,0.15-0.41,0.23l0,0
					v0.01l-0.01,0.11c0,0.03,0.01,0.05,0.01,0.08C164.08,144.69,164.2,144.57,164.34,144.46z M164.5,144.33
					c0.07-0.04,0.13-0.08,0.13-0.08h0.01c0-0.01,0.011-0.01,0.011-0.02c-0.04,0.03-0.091,0.06-0.141,0.09
					C164.51,144.32,164.51,144.33,164.5,144.33z M164.63,144.25l-0.01,0.02C164.63,144.26,164.63,144.26,164.63,144.25z
					 M164.65,144.23c0.09-0.05,0.13-0.07,0.02-0.01c0.01-0.02,0-0.01,0,0C164.66,144.22,164.66,144.23,164.65,144.23z
					 M164.59,143.57c0.03-0.03,0.05-0.07,0.07-0.11v-0.04c-0.01,0.01-0.03,0.02-0.04,0.02c-0.01,0.01-0.021,0.02-0.03,0.02
					c-0.12,0.16-0.22,0.32-0.31,0.49c-0.04,0.08-0.09,0.17-0.13,0.25C164.34,144.02,164.46,143.79,164.59,143.57z"/>
				<rect x="156.32" y="139.81" style="fill-rule:evenodd;clip-rule:evenodd;fill:none;" width="22.5" height="22.5"/>
			</g>
			<g>
				<path style="fill-rule:evenodd;clip-rule:evenodd;fill:#FFFFFF;" d="M198.72,160.48l0.4-0.591c0.22-0.399,0.17-0.899-0.15-1.489
					l-1.689-3.32l-0.891,3.86c-0.12,0.329-0.319,0.54-0.6,0.649c-0.49,0.17-0.91,0.141-1.14-0.35c-0.391-0.73-0.69-1.51-0.94-2.33
					l-0.3-1.391l-0.5-3.17c-0.11-0.26-0.29-0.35-0.49-0.399l-0.55-0.05l-1.88-0.79c-0.17-0.08-0.271-0.23-0.3-0.45v-0.64
					c0.04-0.18,0.02-0.35,0.05-0.48c0.12-0.44,0.35-0.43,0.25,0.58l0.1,0.39l0.29,0.25l0.4,0.15v-0.94
					c-0.011-0.49,1.279-0.12,1.3,0.27l-0.01,0.27l0.3,0.15l1.09,0.399c0.28,0.11,0.36,0.23,0.4,0.351l0.149,0.54l1.09,2.83
					c0.16,0.38,0.261,0.359,0.29,0l0.15-4.521v-0.07c-0.01,0.03-0.021,0.05-0.03,0.08c-0.18,0.43-0.33,0.88-0.45,1.34
					c0.08-0.33,0.171-0.66,0.271-0.98c0.07-0.22,0.14-0.44,0.21-0.65v-0.26l-0.14-0.22c-0.011,0.05-0.011,0.11-0.021,0.16
					c-0.01,0.04-0.02,0.09-0.03,0.14c-0.01,0.12-0.029,0.24-0.05,0.35c-0.04,0.26-0.08,0.51-0.17,0.75
					c-0.04,0.1-0.09,0.2-0.16,0.291c-0.04,0.06-0.1,0.1-0.149,0.13l-0.011,0.01c-0.01,0-0.02,0.01-0.04,0.02
					c0.011,0-0.01,0-0.029,0.011c-0.01,0-0.021,0.01-0.04,0.01h-0.021v0.01h-0.02h-0.021h-0.01l0,0c-0.02,0.01-0.04,0.01-0.06,0.01
					l0.06-0.01h0.03l0.02-0.01l0.051-0.01c0.01,0,0.029-0.011,0.039-0.011c-0.01,0-0.02,0-0.039,0.011l0.079-0.03
					c0.011-0.01-0.01,0-0.079,0.03l0.199-0.13c0.021-0.03,0.03-0.051,0.051-0.07c0.02-0.03,0.039-0.061,0.05-0.09
					c0.08-0.15,0.109-0.311,0.14-0.49c0.021-0.12,0.03-0.26,0.04-0.39c-0.06,0.11-0.14,0.23-0.2,0.34c-0.06,0.1-0.1,0.21-0.13,0.32
					c0.03-0.11,0.07-0.21,0.11-0.31c0.06-0.13,0.13-0.25,0.18-0.38c0.021-0.06,0.04-0.12,0.05-0.18
					c0.011-0.17,0.011-0.33,0.011-0.41v-0.02c-0.011-0.13-0.03-0.26-0.051-0.38l-0.149-0.22c-0.021,0.13-0.04,0.25-0.061,0.37
					c0,0.08-0.01,0.15-0.01,0.22c-0.02,0.07-0.03,0.13-0.06,0.19c-0.03,0.2-0.051,0.41-0.061,0.62c0.01-0.08,0.01-0.17,0.01-0.25
					s0-0.17,0-0.25c-0.069,0.14-0.149,0.28-0.22,0.42c-0.03,0.08-0.06,0.16-0.09,0.27c0-0.01-0.01,0.02-0.01,0.06
					c0-0.03,0.01-0.06,0.01-0.06c0.02-0.07,0.02-0.1,0.03-0.13c0.04-0.11,0.08-0.22,0.13-0.33c0.03-0.07,0.06-0.14,0.08-0.22
					c0.029-0.07,0.05-0.15,0.06-0.22c0-0.01,0-0.01,0-0.01c0-0.09-0.01-0.18-0.02-0.27c-0.021-0.08-0.04-0.17-0.08-0.25
					c-0.11,0.27-0.24,0.53-0.38,0.78c-0.091,0.16-0.181,0.32-0.33,0.51c0-0.01,0,0.01-0.021,0.03c0.01-0.01,0-0.01-0.029,0.03l0,0
					l0,0l0,0c0,0,0,0-0.011,0.01c0,0-0.01,0.01-0.029,0.03c0.01-0.02,0.02-0.03,0.029-0.03l0.011-0.01l0,0l0,0v-0.01l0.029-0.02
					l0.021-0.03c0.09-0.13,0.13-0.19,0.16-0.25c0.09-0.16,0.159-0.33,0.22-0.5c0.09-0.25,0.16-0.51,0.229-0.77
					c-0.06-0.14-0.12-0.28-0.18-0.43c0,0,0,0,0-0.01c-0.06,0.14-0.12,0.27-0.19,0.39l-0.109,0.16c0,0.01-0.01,0.02-0.021,0.03l0,0
					c0.08-0.1,0.04-0.02-0.029,0.05c-0.011,0.01-0.03,0.03-0.051,0.04l-0.01,0.01h-0.01l0,0l-0.01,0.01l0,0h-0.011
					c-0.01,0-0.02,0-0.02,0.01l0.02-0.01l0,0h0.011l0.01-0.01h0.01l0.01-0.01c0.04-0.02,0.061-0.06,0.08-0.09l0,0l0,0l0,0l0.12-0.25
					c0.05-0.12,0.09-0.26,0.12-0.39c-0.08-0.08-0.149-0.16-0.2-0.25c-0.08,0.23-0.13,0.47-0.14,0.74c0-0.22,0.01-0.44,0.03-0.66
					c0-0.12,0.01-0.23,0.029-0.34c-0.01-0.06-0.02-0.13-0.01-0.2c-0.189,0.34-0.35,0.69-0.51,1.05c0.14-0.33,0.27-0.67,0.41-1
					c0.05-0.13,0.1-0.25,0.14-0.33c0.03-0.15,0.09-0.31,0.17-0.5c-0.149,0.1-0.3,0.2-0.42,0.34c-0.03,0.02-0.05,0.05-0.07,0.08
					c-0.079,0.1-0.149,0.21-0.189,0.33c-0.03,0.05-0.04,0.11-0.061,0.17c0.04-0.16,0.08-0.31,0.141-0.46l-0.07,0.08
					c0.12-0.16,0.17-0.24,0.09-0.14c0.19-0.39,0.29-0.54,0.41-0.67c0.16-0.27,0.32-0.54,0.39-0.62l0,0
					c-0.05,0.03-0.1,0.07-0.149,0.11c-0.03,0.03-0.061,0.07-0.09,0.11l-0.03,0.04l-0.03,0.05c0.011-0.02,0.021-0.03,0.03-0.05l0,0
					l0.03-0.05c0.01-0.03,0.04-0.06,0.06-0.09c0.08-0.11,0.19-0.22,0.3-0.32l0,0c-0.01-0.02-0.02-0.05-0.02-0.07
					c-0.01-0.02-0.01-0.04-0.021-0.05c0-0.03,0-0.05-0.01-0.07c0-0.01,0-0.02,0-0.03c-0.04,0.02-0.08,0.05-0.13,0.07
					c-0.2,0.13-0.4,0.26-0.59,0.43c-0.14,0.12-0.26,0.26-0.36,0.4l-0.069,0.12l-0.07,0.13c0.02-0.05,0.04-0.09,0.07-0.13l0,0
					l0.02-0.05c0.04-0.06,0.07-0.11,0.11-0.17c0.06-0.08,0.13-0.16,0.199-0.24c0.19-0.22,0.41-0.41,0.631-0.57
					c0.069-0.05,0.13-0.1,0.189-0.14c0.01-0.04,0.03-0.07,0.04-0.1c-0.02,0-0.04,0.01-0.05,0.01c0.01,0,0.03-0.01,0.05-0.02
					c0.01-0.03,0.03-0.07,0.04-0.11c0.061-0.16,0.12-0.32,0.2-0.47c-0.01,0.01-0.03,0.02-0.05,0.03c-0.04,0.02-0.08,0.05-0.12,0.07
					c-0.03,0.01-0.061,0.03-0.09,0.04c-0.051,0.02-0.101,0.03-0.15,0.04c-0.03,0.01-0.06,0.01-0.09,0l-0.03-0.01l0,0l0,0l-0.01-0.01
					c-0.01,0-0.021-0.01-0.03-0.02l0.04,0.03l0,0l0.03,0.01c0.02,0,0.04,0,0.06,0c0.04-0.01,0.08-0.02,0.11-0.04
					c0.01-0.01,0.02-0.01,0.03-0.02c0.01-0.01,0.02-0.01,0.029-0.02c0.021-0.01,0.03-0.02,0.051-0.04
					c0.02-0.02,0.04-0.04,0.069-0.06c0.021-0.02,0.04-0.05,0.07-0.08c0.08-0.09,0.15-0.2,0.21-0.3s0.11-0.21,0.16-0.31
					c0.08-0.15,0.149-0.3,0.229-0.45c0.351-1.61,2.12-2.77,4.021-1.22c0.03-0.34,0.189-0.6,0.649-0.7l0.591-0.05
					c-0.521,0.18-0.69,0.34-0.44,0.5c0.47,0.02,0.85-0.14,1.521,0.24l0.609,0.5c1.641,1.83,3.87,4.24,3.75,5.11
					c-0.13,0.34-0.229,0.41-0.72,0.65l-3.63,1.39c-0.29,0.12-0.25,0.31,0,0.54c1,1.05,2.29,1.43,3.569,2.13
					c-0.05,0.02-0.1,0.069-0.119,0.13c-0.021,0.1,0.04,0.199,0.149,0.22c0.061,0.02,0.13,0,0.17-0.04
					c0.26,1.75-0.479,2.26-1.33,2.62c0,0,0,0,0,0.01c-0.42,0.18-0.91,0.29-1.42,0.29c-1.39,0-2.56-0.78-2.84-1.82
					c0,0.011,0,0.021,0,0.03c0,1.271,1.09,2.3,2.43,2.3c0.73,0,1.381-0.3,1.83-0.79c0.051,2.16-0.13,3.4-0.25,4.841H198.72z
					 M205.52,153.49c-0.1,0.04-0.21,0.06-0.329,0.04c-0.341-0.061-0.561-0.38-0.5-0.721c0.02-0.109,0.069-0.22,0.14-0.3
					c-0.19,0.08-0.34,0.25-0.38,0.471c-0.061,0.329,0.17,0.649,0.5,0.71C205.17,153.73,205.38,153.65,205.52,153.49z M205.41,153
					c-0.101-0.03-0.16-0.12-0.141-0.22c0.011-0.03,0.021-0.061,0.051-0.09c0.1-0.03,0.279-0.03,0.319,0.06
					c0.04,0.08-0.06,0.21-0.13,0.24l0,0C205.48,153,205.45,153,205.41,153z M194.73,151.36h0.01H194.73L194.73,151.36z
					 M193.98,150.46L193.98,150.46L193.98,150.46C193.98,150.45,193.99,150.45,193.98,150.46z M193.98,150.46L193.98,150.46
					L193.98,150.46L193.98,150.46z M193.98,150.46v-0.01V150.46L193.98,150.46L193.98,150.46z M193.98,150.45
					C193.99,150.44,194,150.44,193.98,150.45L193.98,150.45z M195.23,149.62c0-0.12,0-0.11,0-0.05V149.62z M194.14,149.02
					l0.021-0.03C194.2,148.93,194.22,148.88,194.14,149.02z M201.1,148.03l2.53-0.79c-0.68-0.9-1.28-2.16-1.93-3.47
					c-0.34-0.08-0.65-0.03-0.9,0.09c0.09,0.04,0.17,0.08,0.271,0.11c0.109,0.04,0.239,0.07,0.38,0.06c0.02,0,0.04,0,0.06,0
					c0.021,0,0.03,0,0.04-0.01c-0.01,0.01-0.02,0.01-0.04,0.01c-0.02,0-0.05,0.01-0.069,0.01c-0.091,0-0.19-0.01-0.28-0.02
					c-0.11-0.02-0.21-0.04-0.311-0.08c-0.05-0.01-0.09-0.02-0.13-0.04c-0.029,0.02-0.06,0.03-0.08,0.05
					c0.011,0.01,0.03,0.03,0.051,0.04c0.06,0.04,0.119,0.09,0.18,0.14c0.04,0.03,0.09,0.06,0.13,0.09c0.05,0.03,0.11,0.06,0.16,0.07
					c0.05,0.02,0.1,0.02,0.149,0.01c0.011,0,0.021,0,0.04,0c0.021-0.01,0.04-0.02,0.011-0.01l0.02-0.01
					c-0.01,0.01-0.01,0.01-0.02,0.01l0.109-0.06l0.03-0.03c0,0.01-0.01,0.02-0.03,0.03c-0.01,0.01-0.04,0.03-0.06,0.04l-0.03,0.01
					c0.05-0.02,0,0.02-0.07,0.04c-0.029,0.01-0.05,0.01-0.069,0.01c-0.07,0.01-0.13,0-0.181-0.02c-0.069-0.01-0.14-0.04-0.199-0.08
					c-0.061-0.03-0.11-0.06-0.17-0.1c-0.03-0.03-0.061-0.05-0.091-0.08c-0.01-0.01-0.029-0.03-0.04-0.04
					c-0.04,0.03-0.069,0.07-0.109,0.1l0.01,0.02c0.19,0.1,0.38,0.27,0.6,0.39c0.12,0.06,0.25,0.11,0.391,0.11h-0.021h-0.01h-0.02
					h-0.021h-0.02l-0.021-0.01h-0.02H201.3l-0.01-0.01h-0.021h-0.02l-0.02-0.01h-0.021l-0.02-0.01l-0.04-0.01l-0.04-0.01l-0.03-0.02
					l-0.04-0.01l-0.04-0.02l-0.04-0.01l-0.04-0.02l-0.04-0.02l-0.04-0.02l-0.04-0.02l-0.03-0.02l-0.079-0.04l-0.07-0.04h-0.01
					c0.3,0.44,0.52,0.88,0.39,1.32C201.52,146.9,201.1,147.5,201.1,148.03z M193.58,147.51c0.03-0.04,0.06-0.08,0.05-0.08
					C193.66,147.4,193.62,147.46,193.58,147.51z M194.11,147.46c0.069-0.18,0.06-0.17,0.02-0.07
					C194.12,147.41,194.12,147.44,194.11,147.46z M194.56,146.24c0.04-0.03,0.091-0.06,0.131-0.09c0.06-0.09,0.119-0.18,0.18-0.28
					c-0.021,0.01-0.03,0.02-0.05,0.03c-0.08,0.08-0.16,0.17-0.23,0.25c-0.05,0.06-0.09,0.11-0.14,0.17
					C194.49,146.29,194.53,146.26,194.56,146.24z M194.53,146h-0.011l0,0H194.53z M194.52,146h0.011l0,0l0,0H194.52z M194.53,146
					C194.54,145.99,194.54,145.99,194.53,146L194.53,146z M194.53,146C194.54,145.99,194.54,145.99,194.53,146L194.53,146z
					 M194.54,145.99L194.54,145.99c0,0-0.01,0-0.01,0.01C194.53,145.99,194.53,145.99,194.54,145.99z M194.53,146L194.53,146
					L194.53,146L194.53,146L194.53,146z M194.53,146L194.53,146v-0.01c0.06-0.03,0.06-0.02,0.01,0
					C194.53,145.99,194.53,145.99,194.53,146L194.53,146L194.53,146z M194.53,146c0.02-0.01,0.01-0.01,0-0.01V146z M194.54,145.99
					 M195.09,145.34c0-0.01,0.01-0.01,0.01-0.01c0.011-0.02,0.021-0.03,0.021-0.05c-0.11,0.07-0.23,0.13-0.351,0.2l0,0v0.01v0.09
					c0,0.02,0,0.05,0,0.08C194.87,145.54,194.97,145.43,195.09,145.34z M195.24,145.23c0.05-0.04,0.1-0.07,0.109-0.07l0,0
					c0.011-0.01,0.011-0.01,0.021-0.02c-0.04,0.02-0.09,0.05-0.13,0.08C195.24,145.22,195.24,145.22,195.24,145.23z M195.35,145.16
					l-0.02,0.01C195.34,145.17,195.35,145.16,195.35,145.16z M195.37,145.14c0.07-0.04,0.1-0.06,0.01-0.01c0.01-0.02,0-0.01,0,0
					C195.37,145.13,195.37,145.14,195.37,145.14z M195.31,144.57c0.021-0.03,0.04-0.07,0.061-0.1v-0.03
					c-0.01,0.01-0.021,0.01-0.03,0.02c-0.01,0-0.02,0.01-0.03,0.02c-0.1,0.13-0.189,0.27-0.27,0.42c-0.04,0.07-0.07,0.14-0.11,0.22
					C195.1,144.96,195.2,144.76,195.31,144.57z"/>
				<rect x="188.14" y="141.31" style="fill-rule:evenodd;clip-rule:evenodd;fill:none;" width="19.5" height="19.5"/>
			</g>
			<g>
				<path style="fill-rule:evenodd;clip-rule:evenodd;fill:#FFFFFF;" d="M226.73,159.76l0.359-0.55c0.21-0.37,0.16-0.83-0.13-1.38
					l-1.56-3.061l-0.83,3.57c-0.101,0.3-0.29,0.49-0.551,0.59c-0.449,0.16-0.84,0.13-1.05-0.319c-0.359-0.67-0.64-1.391-0.87-2.15
					l-0.27-1.28l-0.46-2.93c-0.11-0.24-0.271-0.32-0.46-0.37l-0.5-0.04l-1.74-0.74c-0.16-0.069-0.25-0.2-0.28-0.41v-0.59
					c0.04-0.17,0.021-0.33,0.051-0.44c0.109-0.41,0.319-0.4,0.229,0.53l0.09,0.36l0.271,0.23l0.37,0.14v-0.87
					c-0.011-0.45,1.18-0.11,1.199,0.26l-0.01,0.24l0.28,0.14l1,0.37c0.26,0.101,0.33,0.21,0.37,0.32l0.14,0.5l1,2.61
					c0.16,0.359,0.24,0.33,0.28,0l0.14-4.17v-0.06c-0.01,0.02-0.02,0.05-0.03,0.07c-0.17,0.4-0.31,0.81-0.42,1.24
					c0.08-0.311,0.16-0.61,0.25-0.91c0.061-0.2,0.12-0.4,0.2-0.6v-0.24l-0.14-0.2c-0.01,0.05-0.01,0.1-0.021,0.15
					c-0.01,0.04-0.01,0.08-0.02,0.12c-0.021,0.11-0.03,0.22-0.05,0.33c-0.03,0.24-0.08,0.47-0.16,0.69
					c-0.04,0.1-0.08,0.189-0.15,0.27c-0.04,0.051-0.08,0.09-0.13,0.12l-0.01,0.01c-0.01,0-0.021,0.011-0.04,0.011
					c0.01,0-0.01,0.01-0.021,0.02c-0.02,0-0.029,0-0.04,0.01H223l0,0h-0.02l-0.021,0.011h-0.01l0,0c-0.021,0-0.04,0-0.05,0h0.05
					l0.03-0.011H223l0.05-0.01c0.01-0.01,0.021-0.01,0.03-0.02c0,0.01-0.01,0.01-0.04,0.02l0.08-0.03c0.01-0.01-0.01,0-0.08,0.03
					l0.19-0.13c0.02-0.02,0.029-0.04,0.039-0.06c0.021-0.021,0.04-0.051,0.051-0.08c0.069-0.14,0.109-0.291,0.13-0.45
					c0.02-0.12,0.03-0.24,0.04-0.37c-0.061,0.11-0.13,0.22-0.19,0.32c-0.05,0.1-0.09,0.19-0.12,0.3c0.03-0.11,0.061-0.2,0.11-0.29
					c0.05-0.12,0.11-0.23,0.16-0.35c0.02-0.05,0.04-0.11,0.05-0.17c0-0.15,0.01-0.3,0.01-0.37v-0.02
					c-0.01-0.12-0.029-0.24-0.05-0.35l-0.14-0.21c-0.021,0.12-0.04,0.23-0.061,0.35c0,0.07,0,0.14-0.01,0.2s-0.03,0.12-0.05,0.17
					c-0.021,0.19-0.04,0.38-0.05,0.58c0-0.08,0-0.16,0.01-0.24c0-0.07,0-0.15-0.01-0.23c-0.061,0.13-0.141,0.26-0.19,0.39
					c-0.04,0.07-0.06,0.15-0.09,0.25c0-0.01-0.01,0.02-0.01,0.05c0-0.03,0.01-0.05,0.01-0.05c0.01-0.06,0.02-0.09,0.03-0.12
					c0.029-0.1,0.069-0.2,0.109-0.3c0.03-0.07,0.061-0.14,0.08-0.21c0.021-0.06,0.04-0.14,0.061-0.21l0,0
					c-0.011-0.08-0.011-0.17-0.021-0.25c-0.02-0.08-0.04-0.15-0.07-0.23c-0.109,0.25-0.22,0.49-0.359,0.72
					c-0.08,0.15-0.16,0.29-0.311,0.47c0.011,0,0,0.01-0.01,0.02c0.01,0,0,0-0.03,0.03l0,0l0,0v0.01c0-0.01,0-0.01-0.01,0
					c0,0.01-0.01,0.02-0.02,0.03c0.01-0.01,0.02-0.02,0.02-0.03h0.01v-0.01l0,0l0,0l0.03-0.03l0.01-0.02
					c0.091-0.12,0.13-0.17,0.16-0.23c0.08-0.15,0.141-0.3,0.2-0.46c0.08-0.23,0.15-0.47,0.22-0.71c-0.06-0.13-0.12-0.26-0.17-0.4
					c0,0,0,0-0.01,0c-0.05,0.12-0.11,0.24-0.17,0.36l-0.101,0.14c0,0.01-0.01,0.02-0.02,0.03l0,0c0.08-0.1,0.03-0.02-0.03,0.04
					c-0.01,0.02-0.029,0.03-0.04,0.04l-0.02,0.01l0,0l0,0l-0.01,0.01h-0.011l0,0c-0.01,0-0.02,0-0.02,0h0.02l0,0l0,0l0.021-0.01l0,0
					l0.02-0.01c0.03-0.02,0.051-0.05,0.07-0.08l0,0l0,0l0,0l0.11-0.23c0.05-0.12,0.08-0.24,0.109-0.37
					c-0.069-0.07-0.13-0.14-0.18-0.23c-0.08,0.21-0.13,0.44-0.13,0.69c0-0.21,0.01-0.41,0.02-0.61c0.011-0.11,0.021-0.21,0.03-0.32
					c-0.01-0.05-0.01-0.12-0.01-0.18c-0.17,0.31-0.32,0.64-0.47,0.97c0.13-0.31,0.25-0.61,0.38-0.92c0.05-0.12,0.1-0.24,0.13-0.31
					c0.029-0.13,0.08-0.28,0.16-0.46c-0.141,0.09-0.28,0.18-0.391,0.31c-0.029,0.03-0.05,0.05-0.069,0.08
					c-0.07,0.09-0.131,0.19-0.171,0.3c-0.02,0.05-0.039,0.1-0.05,0.16c0.03-0.15,0.07-0.29,0.12-0.43l-0.06,0.08
					c0.109-0.15,0.149-0.22,0.09-0.13c0.17-0.36,0.26-0.5,0.37-0.62c0.149-0.25,0.29-0.5,0.359-0.57l0,0
					c-0.05,0.03-0.09,0.06-0.13,0.1c-0.04,0.03-0.069,0.06-0.09,0.1l-0.03,0.04l-0.029,0.04c0.01-0.01,0.02-0.03,0.029-0.04l0,0
					l0.03-0.05c0.01-0.02,0.03-0.05,0.05-0.08c0.08-0.11,0.181-0.2,0.28-0.3l0,0c-0.01-0.02-0.02-0.04-0.02-0.06
					s-0.011-0.03-0.011-0.05s-0.01-0.04-0.01-0.06c0-0.01,0-0.02,0-0.03c-0.04,0.02-0.08,0.05-0.12,0.07
					c-0.189,0.11-0.38,0.24-0.55,0.39c-0.13,0.11-0.24,0.24-0.33,0.37l-0.07,0.11l-0.06,0.12c0.02-0.04,0.04-0.08,0.06-0.12l0,0
					l0.03-0.04c0.03-0.06,0.061-0.11,0.101-0.16c0.05-0.08,0.109-0.15,0.18-0.23c0.17-0.19,0.38-0.37,0.58-0.52
					c0.06-0.05,0.12-0.09,0.18-0.13c0.01-0.03,0.021-0.06,0.03-0.09c-0.021,0-0.03,0.01-0.05,0.01c0.02,0,0.029-0.01,0.05-0.02
					c0.01-0.03,0.03-0.06,0.04-0.1c0.05-0.15,0.109-0.29,0.189-0.43c-0.02,0.01-0.029,0.02-0.05,0.02
					c-0.04,0.02-0.08,0.05-0.12,0.06c-0.02,0.02-0.05,0.03-0.08,0.04c-0.04,0.02-0.09,0.04-0.13,0.04c-0.03,0.01-0.06,0.01-0.09,0
					l-0.02-0.01h-0.011l0,0l0,0c-0.01-0.01-0.029-0.02-0.04-0.03l0.04,0.03h0.011l0.02,0.01c0.021,0,0.04,0,0.06,0
					c0.04-0.01,0.07-0.02,0.101-0.04c0.01,0,0.02-0.01,0.03-0.01c0.01-0.01,0.02-0.02,0.029-0.02c0.011-0.01,0.03-0.02,0.04-0.04
					c0.021-0.01,0.04-0.03,0.061-0.05c0.02-0.03,0.05-0.05,0.069-0.08c0.07-0.08,0.131-0.18,0.19-0.28
					c0.06-0.09,0.11-0.19,0.15-0.28c0.079-0.14,0.14-0.28,0.21-0.42c0.33-1.49,1.96-2.55,3.72-1.13c0.02-0.3,0.17-0.54,0.59-0.64
					l0.55-0.04c-0.479,0.16-0.64,0.31-0.41,0.46c0.44,0.02,0.79-0.13,1.4,0.22l0.57,0.46c1.52,1.68,3.569,3.91,3.46,4.72
					c-0.12,0.31-0.21,0.38-0.67,0.59l-3.341,1.29c-0.27,0.11-0.229,0.29,0,0.5c0.921,0.97,2.101,1.31,3.29,1.97
					c-0.05,0.02-0.09,0.06-0.109,0.12c-0.021,0.09,0.04,0.18,0.14,0.199c0.061,0.011,0.12-0.01,0.16-0.04
					c0.24,1.62-0.44,2.091-1.24,2.42c0,0,0,0,0,0.011c-0.38,0.17-0.83,0.26-1.3,0.26c-1.29,0-2.36-0.71-2.62-1.67
					c0,0.01,0,0.02,0,0.02c0,1.181,1,2.13,2.23,2.13c0.68,0,1.279-0.279,1.689-0.729c0.05,1.99-0.109,3.13-0.229,4.47H226.73z
					 M233.01,153.31c-0.1,0.03-0.2,0.051-0.31,0.03c-0.311-0.06-0.521-0.35-0.46-0.66c0.02-0.109,0.06-0.21,0.13-0.279
					c-0.18,0.069-0.32,0.229-0.351,0.43c-0.06,0.31,0.15,0.61,0.461,0.66C232.68,153.53,232.88,153.45,233.01,153.31z
					 M232.91,152.85c-0.101-0.02-0.16-0.109-0.141-0.199c0.011-0.03,0.03-0.061,0.051-0.08c0.09-0.04,0.25-0.04,0.3,0.05
					c0.03,0.07-0.061,0.189-0.12,0.22l0,0C232.97,152.85,232.94,152.85,232.91,152.85z M223.04,151.34h0.02h-0.01
					C223.04,151.34,223.04,151.34,223.04,151.34z M222.35,150.5L222.35,150.5L222.35,150.5C222.36,150.5,222.36,150.5,222.35,150.5z
					 M222.35,150.5L222.35,150.5L222.35,150.5L222.35,150.5z M222.35,150.5L222.35,150.5L222.35,150.5L222.35,150.5L222.35,150.5z
					 M222.35,150.5C222.36,150.49,222.37,150.49,222.35,150.5L222.35,150.5z M223.51,149.73c0-0.11,0-0.1,0-0.04V149.73z
					 M222.5,149.18l0.02-0.03C222.56,149.09,222.57,149.05,222.5,149.18z M228.92,148.26l2.34-0.73c-0.62-0.83-1.18-1.99-1.79-3.2
					c-0.31-0.08-0.59-0.03-0.819,0.08c0.08,0.04,0.159,0.07,0.239,0.1c0.11,0.04,0.23,0.07,0.36,0.06c0.02,0,0.04,0,0.05,0
					c0.021,0,0.03,0,0.04,0c-0.01,0-0.02,0-0.04,0c-0.02,0-0.04,0.01-0.06,0.01c-0.09,0-0.181-0.01-0.26-0.02
					c-0.101-0.01-0.2-0.04-0.29-0.07c-0.04-0.01-0.08-0.02-0.12-0.04c-0.021,0.02-0.051,0.03-0.07,0.05
					c0.01,0.01,0.03,0.02,0.04,0.03c0.06,0.04,0.12,0.09,0.17,0.13c0.04,0.03,0.08,0.06,0.12,0.08c0.05,0.03,0.1,0.06,0.15,0.07
					c0.039,0.02,0.09,0.02,0.14,0.01c0.01,0,0.02,0,0.03,0c0.02-0.01,0.04-0.02,0.01-0.01h0.02c0,0-0.01,0-0.02,0l0.109-0.06
					l0.03-0.02c-0.01,0.01-0.02,0.01-0.03,0.02c-0.02,0.02-0.039,0.03-0.06,0.05l-0.03,0.01c0.051-0.02,0,0.01-0.069,0.03
					c-0.021,0-0.04,0.01-0.061,0.01c-0.06,0-0.109,0-0.16-0.02c-0.069-0.01-0.13-0.04-0.189-0.07c-0.05-0.03-0.101-0.06-0.15-0.1
					c-0.03-0.02-0.06-0.05-0.09-0.07c-0.01-0.01-0.02-0.03-0.03-0.04c-0.04,0.03-0.069,0.06-0.1,0.1l0.01,0.01
					c0.17,0.1,0.34,0.25,0.55,0.36c0.11,0.06,0.221,0.11,0.36,0.11h-0.02h-0.011l-0.02-0.01h-0.021h-0.02h-0.01h-0.021l-0.02-0.01
					H229.1h-0.02l-0.021-0.01h-0.02l-0.01-0.01h-0.021l-0.04-0.01l-0.029-0.01l-0.04-0.02l-0.03-0.01l-0.04-0.02l-0.04-0.01
					l-0.03-0.02l-0.04-0.01l-0.029-0.02l-0.04-0.02l-0.03-0.02l-0.07-0.03l-0.069-0.04l-0.011-0.01c0.28,0.41,0.48,0.82,0.36,1.23
					C229.32,147.22,228.92,147.77,228.92,148.26z M221.98,147.78c0.029-0.04,0.06-0.07,0.05-0.07
					C222.06,147.68,222.02,147.73,221.98,147.78z M222.48,147.74c0.06-0.17,0.05-0.16,0.01-0.07
					C222.48,147.69,222.48,147.71,222.48,147.74z M222.89,146.61c0.04-0.03,0.08-0.06,0.12-0.08c0.05-0.08,0.101-0.17,0.16-0.26
					c-0.01,0.01-0.03,0.02-0.05,0.02c-0.07,0.08-0.14,0.16-0.2,0.24c-0.05,0.05-0.09,0.1-0.13,0.15
					C222.82,146.66,222.86,146.63,222.89,146.61z M222.86,146.39h-0.011l0,0H222.86z M222.85,146.39l0.011-0.01l0,0v0.01H222.85z
					 M222.86,146.39C222.87,146.38,222.86,146.38,222.86,146.39L222.86,146.39z M222.86,146.38
					C222.87,146.38,222.87,146.38,222.86,146.38L222.86,146.38z M222.86,146.38c0.01,0,0.01,0,0.01,0H222.86L222.86,146.38z
					 M222.86,146.38L222.86,146.38L222.86,146.38L222.86,146.38L222.86,146.38z M222.86,146.38L222.86,146.38L222.86,146.38
					C222.92,146.35,222.91,146.36,222.86,146.38L222.86,146.38L222.86,146.38L222.86,146.38z M222.86,146.38
					C222.88,146.38,222.87,146.38,222.86,146.38L222.86,146.38z M222.87,146.38 M223.38,145.78c0-0.01,0-0.01,0-0.01
					c0.01-0.02,0.021-0.03,0.03-0.04c-0.11,0.06-0.22,0.12-0.33,0.18l0,0v0.01V146c0,0.02,0,0.05,0,0.07
					C223.17,145.97,223.27,145.86,223.38,145.78z M223.51,145.67c0.05-0.03,0.101-0.06,0.101-0.05l0.01-0.01l0.01-0.01
					C223.6,145.62,223.56,145.64,223.51,145.67L223.51,145.67z M223.61,145.62l-0.011,0.01
					C223.61,145.62,223.61,145.62,223.61,145.62z M223.63,145.6c0.07-0.04,0.101-0.06,0.01-0.01c0.011-0.02,0.011-0.01,0,0
					C223.64,145.59,223.63,145.59,223.63,145.6z M223.58,145.07c0.02-0.03,0.04-0.06,0.05-0.09v-0.03c-0.01,0-0.02,0.01-0.02,0.02
					c-0.011,0-0.021,0.01-0.03,0.01c-0.09,0.13-0.18,0.26-0.25,0.39c-0.03,0.07-0.07,0.14-0.1,0.2
					C223.38,145.42,223.48,145.25,223.58,145.07z"/>
				<rect x="216.97" y="142.06" style="fill-rule:evenodd;clip-rule:evenodd;fill:none;" width="18" height="18"/>
			</g>
			<g>
				<path style="fill-rule:evenodd;clip-rule:evenodd;fill:#FFFFFF;" d="M252.42,158.31l0.311-0.46c0.17-0.31,0.13-0.689-0.12-1.149
					l-1.301-2.55l-0.68,2.97c-0.09,0.26-0.25,0.41-0.46,0.5c-0.38,0.13-0.7,0.11-0.88-0.271c-0.3-0.56-0.53-1.159-0.72-1.79
					l-0.23-1.069l-0.38-2.44c-0.09-0.2-0.229-0.27-0.39-0.31l-0.42-0.03l-1.44-0.61c-0.13-0.069-0.22-0.18-0.229-0.35v-0.49
					c0.02-0.14,0.01-0.27,0.029-0.37c0.101-0.34,0.271-0.33,0.2,0.44l0.07,0.31l0.229,0.19l0.311,0.11v-0.72
					c-0.011-0.38,0.979-0.09,0.989,0.21v0.21l0.23,0.11l0.84,0.31c0.21,0.091,0.271,0.181,0.3,0.261l0.11,0.42l0.84,2.18
					c0.13,0.29,0.21,0.271,0.23,0l0.12-3.47v-0.06c-0.011,0.02-0.021,0.04-0.03,0.06c-0.13,0.34-0.25,0.68-0.34,1.03
					c0.06-0.25,0.13-0.51,0.199-0.76c0.051-0.16,0.11-0.33,0.171-0.5v-0.19l-0.11-0.17c-0.01,0.04-0.01,0.08-0.021,0.12
					c-0.01,0.04-0.01,0.07-0.02,0.11c-0.01,0.09-0.021,0.18-0.04,0.27c-0.03,0.2-0.06,0.39-0.13,0.57
					c-0.03,0.08-0.07,0.16-0.13,0.23c-0.03,0.04-0.07,0.08-0.11,0.1h-0.01c0,0.01-0.01,0.01-0.03,0.021c0.01,0-0.01,0-0.02,0.01
					c-0.011,0-0.021,0.01-0.03,0.01h-0.01h-0.011h-0.01l-0.02,0.01l0,0h-0.011c-0.01,0-0.029,0-0.039,0h0.05l0.02-0.01h0.021
					l0.029-0.01c0.011,0,0.021-0.01,0.03-0.01c0,0-0.01,0-0.03,0.01l0.061-0.03c0.01,0,0,0-0.061,0.03l0.16-0.1
					c0.01-0.021,0.021-0.04,0.03-0.051c0.02-0.029,0.03-0.05,0.04-0.069c0.06-0.12,0.09-0.24,0.11-0.38
					c0.02-0.1,0.029-0.2,0.029-0.3c-0.05,0.09-0.109,0.17-0.16,0.26c-0.04,0.08-0.069,0.16-0.09,0.25
					c0.021-0.09,0.05-0.17,0.08-0.24c0.05-0.1,0.101-0.19,0.141-0.29c0.01-0.05,0.029-0.09,0.04-0.14c0-0.13,0.01-0.26,0.01-0.31
					v-0.02c-0.01-0.1-0.021-0.2-0.04-0.29l-0.12-0.17c-0.01,0.09-0.03,0.19-0.05,0.28c0.01,0.06,0,0.12,0,0.17
					c-0.011,0.05-0.03,0.1-0.04,0.14c-0.03,0.16-0.04,0.32-0.05,0.48c0-0.06,0-0.12,0-0.19c0.01-0.06,0-0.13,0-0.19
					c-0.051,0.11-0.11,0.21-0.16,0.32c-0.03,0.06-0.05,0.12-0.08,0.21c0.01-0.01,0,0.02-0.01,0.04c0.01-0.02,0.01-0.04,0.01-0.04
					c0.02-0.05,0.02-0.08,0.03-0.1c0.029-0.08,0.06-0.17,0.1-0.25c0.02-0.06,0.04-0.11,0.06-0.17c0.021-0.06,0.04-0.12,0.051-0.18
					l0,0c-0.011-0.07-0.011-0.14-0.021-0.21c-0.01-0.06-0.03-0.13-0.06-0.19c-0.091,0.2-0.181,0.41-0.29,0.6
					c-0.07,0.12-0.141,0.24-0.261,0.39c0.011,0,0,0.01-0.01,0.02c0-0.01,0,0-0.02,0.02l0,0l0,0l-0.011,0.01c0.011-0.01,0,0,0,0
					c0,0.01-0.01,0.02-0.02,0.03c0.01-0.01,0.01-0.02,0.02-0.03l0,0c0,0,0.011,0,0.011-0.01l0,0l0,0l0.02-0.02l0.01-0.02
					c0.07-0.1,0.101-0.14,0.131-0.19c0.06-0.12,0.119-0.25,0.17-0.39c0.06-0.19,0.12-0.39,0.18-0.59c-0.05-0.11-0.1-0.21-0.14-0.33
					h-0.011c-0.04,0.1-0.09,0.2-0.14,0.3l-0.08,0.12c-0.01,0-0.01,0.01-0.02,0.02l0,0c0.06-0.08,0.029-0.02-0.021,0.04
					c-0.02,0.01-0.03,0.02-0.04,0.03l-0.01,0.01h-0.01l0,0h-0.011l0,0h-0.01c0,0.01-0.01,0.01-0.01,0.01l0.01-0.01h0.01l0,0h0.011
					h0.01l0.01-0.01c0.021-0.02,0.04-0.04,0.061-0.07l0,0l0,0l0,0l0.09-0.19c0.04-0.1,0.069-0.2,0.09-0.31
					c-0.061-0.05-0.11-0.11-0.15-0.19c-0.06,0.18-0.1,0.37-0.109,0.57c0-0.17,0.01-0.34,0.02-0.5c0.01-0.09,0.01-0.18,0.021-0.27
					c0-0.04,0-0.1,0-0.15c-0.15,0.26-0.271,0.53-0.4,0.81c0.12-0.26,0.22-0.51,0.32-0.77c0.04-0.1,0.08-0.19,0.109-0.25
					c0.03-0.12,0.07-0.24,0.13-0.39c-0.109,0.08-0.229,0.15-0.319,0.26c-0.021,0.02-0.04,0.04-0.061,0.06
					c-0.06,0.08-0.109,0.17-0.14,0.25c-0.02,0.05-0.04,0.09-0.05,0.14c0.03-0.12,0.069-0.24,0.109-0.36l-0.05,0.07
					c0.09-0.12,0.12-0.19,0.07-0.11c0.14-0.3,0.22-0.41,0.31-0.52c0.12-0.21,0.24-0.41,0.301-0.47l0,0
					c-0.04,0.02-0.08,0.05-0.11,0.08s-0.05,0.05-0.08,0.08l-0.02,0.03l-0.021,0.04c0.01-0.01,0.01-0.02,0.021-0.03v-0.01l0.02-0.03
					c0.02-0.02,0.03-0.05,0.05-0.07c0.07-0.09,0.15-0.17,0.23-0.25l0,0c0-0.02-0.011-0.03-0.021-0.05c0-0.01,0-0.03,0-0.04
					c-0.01-0.02-0.01-0.04-0.01-0.05c0-0.01,0-0.02,0-0.03c-0.04,0.02-0.07,0.04-0.1,0.06c-0.16,0.1-0.32,0.2-0.46,0.33
					c-0.101,0.09-0.2,0.2-0.271,0.31l-0.06,0.08l-0.061,0.11c0.021-0.04,0.04-0.07,0.061-0.1v-0.01l0.02-0.03
					c0.021-0.04,0.05-0.09,0.08-0.13c0.05-0.06,0.1-0.13,0.15-0.19c0.149-0.16,0.319-0.31,0.489-0.44
					c0.051-0.03,0.101-0.07,0.15-0.1c0.01-0.03,0.01-0.06,0.02-0.08c-0.01,0-0.02,0.01-0.039,0.01c0.02,0,0.029-0.01,0.039-0.01
					c0.011-0.03,0.021-0.06,0.03-0.09c0.05-0.12,0.101-0.24,0.16-0.36c-0.01,0.01-0.02,0.01-0.04,0.02
					c-0.03,0.02-0.06,0.04-0.09,0.05c-0.03,0.01-0.05,0.02-0.07,0.03c-0.04,0.02-0.069,0.03-0.109,0.04c-0.03,0-0.051,0-0.07,0
					l-0.03-0.01l0,0l0,0v-0.01c-0.01,0-0.02-0.01-0.03-0.02l0.03,0.03l0,0h0.03c0.01,0.01,0.03,0.01,0.04,0
					c0.03,0,0.06-0.01,0.09-0.03c0.01,0,0.01-0.01,0.021-0.01c0.01-0.01,0.02-0.01,0.02-0.02c0.02,0,0.03-0.01,0.04-0.02
					c0.02-0.02,0.03-0.03,0.05-0.05c0.021-0.02,0.04-0.04,0.061-0.06c0.06-0.08,0.109-0.16,0.159-0.24
					c0.04-0.07,0.091-0.15,0.131-0.23c0.05-0.12,0.109-0.24,0.17-0.35c0.27-1.24,1.63-2.13,3.09-0.94c0.02-0.26,0.149-0.46,0.5-0.53
					l0.46-0.04c-0.4,0.13-0.54,0.26-0.351,0.38c0.37,0.02,0.66-0.11,1.171,0.18l0.479,0.39c1.26,1.4,2.97,3.26,2.88,3.93
					c-0.1,0.26-0.18,0.32-0.56,0.5l-2.78,1.07c-0.23,0.09-0.2,0.24,0,0.42c0.77,0.8,1.75,1.089,2.74,1.64
					c-0.04,0.01-0.08,0.05-0.09,0.1c-0.021,0.07,0.029,0.15,0.109,0.16c0.05,0.01,0.101,0,0.141-0.03
					c0.199,1.351-0.37,1.74-1.03,2.021l0,0c-0.32,0.14-0.7,0.229-1.09,0.229c-1.07,0-1.971-0.6-2.181-1.399c0,0.01,0,0.01,0,0.02
					c0,0.98,0.83,1.771,1.86,1.771c0.56,0,1.07-0.23,1.41-0.61c0.04,1.67-0.101,2.61-0.19,3.729H252.42z M257.65,152.93
					c-0.08,0.03-0.16,0.04-0.25,0.03c-0.261-0.05-0.431-0.3-0.391-0.55c0.021-0.09,0.061-0.17,0.11-0.24
					c-0.14,0.061-0.26,0.2-0.29,0.36c-0.05,0.26,0.13,0.51,0.38,0.55C257.38,153.12,257.55,153.05,257.65,152.93z M257.57,152.55
					c-0.08-0.02-0.13-0.09-0.11-0.17c0-0.02,0.021-0.05,0.04-0.06c0.08-0.03,0.21-0.03,0.25,0.04c0.03,0.06-0.06,0.159-0.1,0.189
					l0,0C257.62,152.55,257.6,152.55,257.57,152.55z M249.35,151.29h0.011H249.35L249.35,151.29z M248.78,150.59L248.78,150.59
					L248.78,150.59L248.78,150.59z M248.78,150.59L248.78,150.59L248.78,150.59L248.78,150.59z M248.78,150.59L248.78,150.59
					L248.78,150.59L248.78,150.59L248.78,150.59z M248.78,150.59C248.78,150.59,248.79,150.58,248.78,150.59L248.78,150.59z
					 M249.74,149.95c0-0.09,0-0.09,0-0.03V149.95z M248.9,149.49l0.02-0.02C248.95,149.42,248.96,149.38,248.9,149.49z
					 M254.25,148.73l1.95-0.61c-0.521-0.69-0.98-1.66-1.49-2.67c-0.26-0.06-0.5-0.02-0.69,0.07c0.07,0.03,0.141,0.06,0.211,0.08
					c0.09,0.04,0.18,0.06,0.289,0.05c0.021,0,0.03,0,0.051,0c0.01,0,0.02,0,0.029,0c-0.01,0-0.02,0-0.029,0
					c-0.021,0-0.04,0.01-0.061,0.01c-0.069,0-0.14-0.01-0.21-0.02c-0.08-0.01-0.16-0.03-0.24-0.05c-0.04-0.01-0.069-0.03-0.1-0.04
					c-0.02,0.01-0.05,0.03-0.07,0.04c0.021,0.01,0.03,0.02,0.04,0.03c0.051,0.03,0.101,0.07,0.15,0.11c0.03,0.02,0.06,0.05,0.1,0.07
					c0.03,0.02,0.08,0.04,0.12,0.05c0.03,0.01,0.07,0.02,0.11,0.01c0.01,0,0.02,0,0.03,0c0.02-0.01,0.029-0.01,0.01-0.01h0.01
					c0,0,0,0-0.01,0l0.09-0.05l0.02-0.02c0,0.01-0.01,0.01-0.02,0.02c-0.01,0.02-0.03,0.03-0.05,0.04l-0.03,0.01
					c0.05-0.02,0,0.01-0.05,0.03c-0.021,0-0.04,0-0.05,0c-0.051,0.01-0.101,0-0.141-0.01c-0.06-0.01-0.109-0.04-0.149-0.06
					c-0.051-0.03-0.09-0.05-0.13-0.08c-0.03-0.02-0.051-0.04-0.08-0.07c0,0-0.011-0.01-0.021-0.02c-0.03,0.02-0.06,0.05-0.08,0.08
					v0.01c0.141,0.08,0.29,0.21,0.46,0.3c0.09,0.05,0.19,0.08,0.3,0.09h-0.01l-0.02-0.01h-0.01h-0.011h-0.02h-0.01h-0.021
					l-0.01-0.01h-0.021h-0.01h-0.01l-0.021-0.01h-0.01l-0.02-0.01l-0.03-0.01l-0.03-0.01l-0.029-0.01l-0.03-0.01l-0.03-0.01
					l-0.03-0.01L254.11,146l-0.03-0.01l-0.03-0.01l-0.03-0.02l-0.029-0.01l-0.05-0.03l-0.061-0.04h-0.01
					c0.229,0.34,0.41,0.68,0.31,1.02C254.58,147.86,254.25,148.32,254.25,148.73z M248.46,148.33c0.03-0.03,0.05-0.07,0.05-0.06
					C248.53,148.25,248.5,148.29,248.46,148.33z M248.88,148.29c0.05-0.14,0.04-0.13,0.01-0.05
					C248.89,148.25,248.88,148.27,248.88,148.29z M249.22,147.35c0.04-0.02,0.07-0.05,0.101-0.07c0.05-0.07,0.09-0.14,0.14-0.22
					c-0.01,0.01-0.03,0.02-0.04,0.03c-0.06,0.06-0.12,0.13-0.17,0.19c-0.04,0.05-0.08,0.09-0.11,0.13
					C249.17,147.39,249.19,147.37,249.22,147.35z M249.2,147.17c-0.01,0-0.01,0-0.01,0l0,0
					C249.19,147.17,249.19,147.17,249.2,147.17z M249.19,147.17l0.01-0.01l0,0l0,0C249.2,147.17,249.19,147.17,249.19,147.17z
					 M249.2,147.16c0.01,0,0,0,0,0.01C249.2,147.17,249.2,147.17,249.2,147.16z M249.2,147.16
					C249.21,147.16,249.21,147.16,249.2,147.16L249.2,147.16z M249.2,147.16L249.2,147.16L249.2,147.16L249.2,147.16z M249.2,147.16
					L249.2,147.16L249.2,147.16L249.2,147.16L249.2,147.16z M249.2,147.16L249.2,147.16L249.2,147.16
					C249.25,147.14,249.24,147.14,249.2,147.16L249.2,147.16L249.2,147.16L249.2,147.16z M249.2,147.16
					C249.21,147.16,249.21,147.16,249.2,147.16L249.2,147.16z M249.2,147.16 M249.63,146.66c0-0.01,0-0.01,0.01-0.01
					c0-0.01,0.011-0.02,0.021-0.04c-0.09,0.06-0.19,0.1-0.271,0.16c-0.01,0-0.01,0-0.01,0l0,0v0.07c0,0.02,0,0.04,0,0.06
					C249.46,146.81,249.54,146.73,249.63,146.66z M249.74,146.57c0.04-0.03,0.08-0.05,0.09-0.05l0,0l0.01-0.01
					c-0.03,0.01-0.06,0.03-0.1,0.05C249.74,146.57,249.74,146.57,249.74,146.57z M249.83,146.52l-0.01,0.01L249.83,146.52z
					 M249.84,146.51c0.061-0.04,0.08-0.05,0.01-0.01c0.011-0.01,0-0.01,0,0C249.85,146.5,249.84,146.5,249.84,146.51z M249.8,146.07
					c0.01-0.03,0.03-0.05,0.04-0.08v-0.02c0,0-0.01,0.01-0.02,0.01c-0.011,0.01-0.021,0.01-0.021,0.02
					c-0.08,0.1-0.149,0.21-0.21,0.32c-0.03,0.06-0.06,0.11-0.08,0.17C249.63,146.36,249.71,146.21,249.8,146.07z"/>
				<rect x="244.29" y="143.56" style="fill-rule:evenodd;clip-rule:evenodd;fill:none;" width="15" height="15"/>
			</g>
			<g>
				<path style="fill-rule:evenodd;clip-rule:evenodd;fill:#FFFFFF;" d="M275.12,156.86l0.24-0.37c0.14-0.24,0.109-0.55-0.091-0.92
					l-1.039-2.04l-0.551,2.38c-0.069,0.2-0.199,0.33-0.37,0.399c-0.3,0.101-0.56,0.091-0.699-0.22c-0.24-0.45-0.431-0.93-0.58-1.43
					l-0.181-0.86l-0.31-1.95c-0.07-0.159-0.18-0.21-0.3-0.239l-0.34-0.03l-1.16-0.49c-0.101-0.05-0.17-0.14-0.181-0.28v-0.39
					c0.021-0.11,0.011-0.22,0.03-0.29c0.07-0.28,0.21-0.27,0.15,0.35l0.06,0.24l0.19,0.15l0.24,0.1v-0.58
					c-0.011-0.3,0.789-0.08,0.8,0.17l-0.011,0.16l0.19,0.09l0.67,0.25c0.17,0.07,0.22,0.141,0.24,0.21l0.09,0.341l0.68,1.739
					c0.101,0.23,0.16,0.221,0.181,0l0.09-2.78v-0.05c-0.01,0.02-0.01,0.04-0.021,0.05c-0.109,0.27-0.199,0.541-0.279,0.831
					c0.06-0.21,0.109-0.41,0.17-0.61c0.04-0.13,0.08-0.27,0.13-0.4v-0.16l-0.09-0.13c0,0.03-0.011,0.06-0.011,0.1
					c-0.01,0.02-0.01,0.05-0.02,0.08c-0.01,0.07-0.021,0.15-0.03,0.22c-0.02,0.16-0.05,0.31-0.1,0.46
					c-0.03,0.06-0.061,0.13-0.101,0.18c-0.029,0.03-0.06,0.061-0.09,0.08h-0.01c0,0.011-0.01,0.011-0.03,0.021
					c0.011-0.01,0,0-0.01,0c-0.01,0.01-0.02,0.01-0.03,0.01h-0.01l0,0h-0.01l-0.01,0.01H272.6l0,0c-0.01,0-0.029,0-0.04,0h0.04
					l0.021-0.01h0.01l0.03-0.01c0.01,0,0.02,0,0.02,0s-0.01,0-0.02,0l0.05-0.021c0.01,0-0.01,0-0.05,0.021l0.12-0.08
					c0.01-0.01,0.02-0.03,0.029-0.04c0.021-0.021,0.03-0.04,0.04-0.05c0.04-0.1,0.061-0.2,0.08-0.3c0.011-0.08,0.021-0.17,0.03-0.25
					c-0.04,0.07-0.09,0.14-0.13,0.21c-0.03,0.07-0.061,0.13-0.08,0.2c0.02-0.07,0.04-0.13,0.07-0.19c0.04-0.08,0.08-0.15,0.109-0.23
					c0.011-0.04,0.021-0.08,0.03-0.12c0.01-0.1,0.01-0.2,0.01-0.25v-0.01c-0.01-0.08-0.02-0.16-0.029-0.23l-0.091-0.14
					c-0.02,0.08-0.029,0.15-0.04,0.23c0,0.05-0.01,0.09-0.01,0.14c-0.01,0.04-0.02,0.07-0.03,0.11c-0.02,0.12-0.029,0.25-0.039,0.38
					c0-0.05,0-0.1,0-0.15c0.01-0.05,0-0.11,0-0.16c-0.04,0.09-0.091,0.17-0.131,0.26c-0.02,0.05-0.04,0.1-0.06,0.17
					c0-0.01,0,0.01-0.01,0.03c0.01-0.01,0.01-0.03,0.01-0.03c0.01-0.04,0.02-0.06,0.02-0.08c0.021-0.07,0.051-0.14,0.08-0.2
					c0.021-0.05,0.04-0.09,0.051-0.14c0.02-0.04,0.029-0.09,0.04-0.14l0,0c0-0.06-0.011-0.11-0.011-0.17
					c-0.01-0.05-0.029-0.1-0.05-0.15c-0.07,0.16-0.15,0.32-0.24,0.48c-0.05,0.1-0.109,0.19-0.199,0.31c0,0,0,0.01-0.011,0.02
					c0-0.01,0-0.01-0.02,0.02l0,0l0,0l0,0c0,0,0,0-0.01,0c0,0.01-0.011,0.01-0.011,0.02c0-0.01,0.011-0.01,0.011-0.02h0.01l0,0l0,0
					l0,0l0.02-0.02l0.011-0.02c0.06-0.08,0.079-0.11,0.1-0.15c0.05-0.1,0.1-0.2,0.13-0.31c0.06-0.15,0.1-0.31,0.15-0.47
					c-0.04-0.09-0.08-0.18-0.11-0.27h-0.01c-0.03,0.08-0.07,0.16-0.11,0.24l-0.07,0.09c0,0.01-0.01,0.02-0.01,0.02v0.01
					c0.05-0.07,0.021-0.02-0.02,0.02c-0.011,0.01-0.021,0.02-0.03,0.03h-0.01v0.01h-0.01l0,0l0,0h-0.011h-0.01h0.01l0,0h0.011l0,0
					l0.01-0.01h0.01c0.02-0.01,0.04-0.04,0.05-0.05v-0.01l0,0l0,0l0.07-0.15c0.03-0.08,0.05-0.16,0.07-0.24
					c-0.04-0.05-0.091-0.1-0.12-0.16c-0.051,0.15-0.08,0.29-0.08,0.46c0-0.14,0-0.27,0.01-0.4c0.01-0.08,0.01-0.15,0.02-0.22
					c0-0.03-0.01-0.08,0-0.12c-0.119,0.21-0.22,0.43-0.319,0.65c0.09-0.21,0.17-0.41,0.25-0.62c0.04-0.07,0.069-0.15,0.09-0.2
					c0.02-0.09,0.06-0.19,0.11-0.31c-0.101,0.06-0.19,0.12-0.261,0.21c-0.02,0.02-0.029,0.03-0.05,0.05
					c-0.05,0.06-0.09,0.13-0.109,0.2c-0.021,0.04-0.03,0.07-0.04,0.11c0.029-0.1,0.05-0.2,0.09-0.29l-0.04,0.06
					c0.069-0.1,0.1-0.15,0.05-0.09c0.12-0.24,0.18-0.33,0.25-0.42c0.1-0.16,0.2-0.33,0.24-0.37l0,0c-0.03,0.02-0.061,0.04-0.09,0.06
					c-0.021,0.02-0.04,0.04-0.061,0.07l-0.01,0.02l-0.021,0.03c0-0.01,0.011-0.02,0.011-0.02l0.01-0.01l0.01-0.03
					c0.01-0.01,0.03-0.03,0.04-0.05c0.05-0.07,0.12-0.14,0.18-0.2h0.011c-0.011-0.01-0.021-0.03-0.021-0.04c0-0.01,0-0.02-0.01-0.03
					c0-0.02,0-0.03,0-0.05v-0.01c-0.03,0.01-0.061,0.03-0.08,0.04c-0.13,0.08-0.25,0.16-0.37,0.26c-0.08,0.08-0.16,0.16-0.22,0.25
					l-0.04,0.07l-0.05,0.08c0.02-0.02,0.029-0.05,0.04-0.08h0.01l0.01-0.03c0.021-0.03,0.04-0.07,0.07-0.1
					c0.04-0.05,0.08-0.1,0.12-0.15c0.12-0.13,0.25-0.25,0.39-0.35c0.04-0.03,0.08-0.06,0.12-0.09c0-0.02,0.01-0.04,0.02-0.06
					c-0.01,0-0.02,0.01-0.029,0.01c0.01,0,0.02-0.01,0.029-0.01c0.011-0.02,0.011-0.05,0.021-0.07c0.04-0.1,0.08-0.2,0.13-0.29
					c-0.01,0.01-0.02,0.01-0.03,0.02c-0.029,0.01-0.05,0.03-0.08,0.04c-0.02,0.01-0.04,0.02-0.06,0.02
					c-0.021,0.02-0.05,0.03-0.08,0.03c-0.02,0-0.04,0-0.06,0l-0.021-0.01l0,0l0,0l0,0c-0.01,0-0.02-0.01-0.03-0.02l0.03,0.02l0,0
					l0.021,0.01c0.01,0,0.02,0,0.04,0c0.02,0,0.039-0.01,0.069-0.03c0,0,0.01,0,0.01-0.01c0.011,0,0.021-0.01,0.021-0.01
					c0.01-0.01,0.02-0.01,0.03-0.02c0.01-0.01,0.029-0.03,0.04-0.04c0.02-0.02,0.029-0.03,0.05-0.05c0.05-0.06,0.09-0.12,0.13-0.19
					c0.03-0.06,0.07-0.12,0.1-0.19c0.04-0.09,0.09-0.18,0.141-0.27c0.21-1,1.3-1.7,2.47-0.76c0.02-0.2,0.12-0.36,0.4-0.42
					l0.369-0.03c-0.329,0.1-0.43,0.21-0.279,0.3c0.29,0.02,0.529-0.08,0.939,0.15l0.37,0.31c1.021,1.12,2.38,2.6,2.311,3.14
					c-0.08,0.21-0.141,0.26-0.44,0.4l-2.229,0.86c-0.181,0.07-0.16,0.19,0,0.33c0.609,0.65,1.399,0.88,2.189,1.31
					c-0.03,0.021-0.06,0.051-0.07,0.08c-0.02,0.061,0.021,0.12,0.091,0.141c0.04,0.01,0.079-0.011,0.109-0.03
					c0.16,1.08-0.3,1.39-0.83,1.62l0,0c-0.25,0.11-0.55,0.18-0.87,0.18c-0.85,0-1.569-0.479-1.739-1.12c0,0.011,0,0.011,0,0.021
					c0,0.78,0.659,1.41,1.489,1.41c0.45,0,0.851-0.181,1.12-0.48c0.04,1.33-0.069,2.09-0.149,2.98H275.12z M279.3,152.56
					c-0.06,0.021-0.13,0.03-0.2,0.021c-0.21-0.04-0.35-0.24-0.31-0.44c0.01-0.08,0.04-0.14,0.09-0.189
					c-0.12,0.05-0.21,0.149-0.24,0.29c-0.029,0.21,0.101,0.399,0.311,0.439C279.09,152.7,279.22,152.65,279.3,152.56z
					 M279.23,152.25c-0.061-0.01-0.101-0.07-0.08-0.13c0-0.021,0.01-0.04,0.029-0.061c0.061-0.02,0.17-0.02,0.2,0.04
					c0.021,0.051-0.05,0.131-0.08,0.15l0,0C279.28,152.25,279.26,152.26,279.23,152.25z M272.66,151.25l0.01-0.01h-0.01
					C272.66,151.24,272.66,151.24,272.66,151.25z M272.2,150.69L272.2,150.69L272.2,150.69C272.2,150.68,272.2,150.68,272.2,150.69z
					 M272.2,150.69L272.2,150.69L272.2,150.69L272.2,150.69z M272.2,150.69L272.2,150.69L272.2,150.69L272.2,150.69L272.2,150.69z
					 M272.2,150.69C272.21,150.68,272.21,150.68,272.2,150.69L272.2,150.69z M272.97,150.17c0-0.07,0-0.07,0-0.03V150.17z
					 M272.3,149.8l0.01-0.02C272.34,149.75,272.35,149.72,272.3,149.8z M276.58,149.19l1.56-0.48c-0.42-0.56-0.79-1.33-1.189-2.14
					c-0.21-0.05-0.4-0.02-0.55,0.06c0.05,0.02,0.1,0.05,0.159,0.06c0.07,0.03,0.15,0.05,0.24,0.04c0.01,0,0.021,0,0.03,0
					s0.02,0,0.03,0c-0.011,0-0.021,0-0.03,0s-0.03,0.01-0.04,0.01c-0.06,0-0.12-0.01-0.17-0.01c-0.07-0.01-0.13-0.03-0.2-0.05
					c-0.02-0.01-0.05-0.02-0.07-0.03c-0.02,0.01-0.04,0.02-0.06,0.04c0.02,0,0.03,0.01,0.04,0.02c0.03,0.02,0.07,0.05,0.11,0.08
					c0.029,0.02,0.05,0.04,0.079,0.06c0.03,0.02,0.061,0.03,0.101,0.04c0.03,0.01,0.06,0.02,0.09,0.01c0.01,0,0.01,0,0.021,0
					c0.01-0.01,0.029-0.01,0.01-0.01h0.01h-0.01l0.069-0.04l0.021-0.01c-0.01,0-0.01,0.01-0.021,0.01
					c-0.01,0.01-0.02,0.02-0.04,0.03l-0.02,0.01c0.04-0.01,0,0.01-0.04,0.02c-0.02,0-0.03,0.01-0.05,0.01c-0.03,0-0.07,0-0.11-0.01
					c-0.04-0.01-0.08-0.03-0.12-0.05c-0.029-0.02-0.069-0.04-0.1-0.07c-0.021-0.01-0.04-0.03-0.061-0.05
					c-0.01,0-0.01-0.01-0.02-0.02c-0.03,0.02-0.05,0.04-0.07,0.06l0.011,0.01c0.109,0.07,0.229,0.17,0.369,0.24
					c0.07,0.04,0.15,0.07,0.24,0.07h-0.01h-0.01h-0.021h-0.01h-0.01h-0.01h-0.011l-0.01-0.01h-0.02h-0.011h-0.01l-0.01-0.01h-0.01
					h-0.011l-0.029-0.01l-0.021-0.01l-0.02-0.01h-0.03l-0.021-0.01l-0.029-0.01l-0.021-0.02l-0.02-0.01l-0.03-0.01l-0.02-0.01
					l-0.03-0.01l-0.04-0.03l-0.05-0.02v-0.01c0.18,0.28,0.319,0.55,0.239,0.82C276.84,148.5,276.58,148.87,276.58,149.19z
					 M271.95,148.87c0.02-0.02,0.04-0.05,0.04-0.04C272,148.81,271.98,148.84,271.95,148.87z M272.28,148.84
					c0.04-0.11,0.04-0.1,0.01-0.04C272.29,148.81,272.28,148.83,272.28,148.84z M272.56,148.09c0.021-0.02,0.051-0.04,0.08-0.05
					c0.03-0.06,0.07-0.12,0.11-0.18c-0.01,0.01-0.02,0.02-0.04,0.02c-0.04,0.05-0.09,0.1-0.13,0.16c-0.03,0.03-0.061,0.07-0.09,0.1
					C272.51,148.12,272.53,148.11,272.56,148.09z M272.54,147.94c-0.01,0-0.01,0.01-0.01,0.01l0,0
					C272.53,147.95,272.53,147.94,272.54,147.94z M272.53,147.95l0.01-0.01l0,0l0,0L272.53,147.95z M272.54,147.94L272.54,147.94
					L272.54,147.94z M272.54,147.94L272.54,147.94L272.54,147.94z M272.54,147.94L272.54,147.94L272.54,147.94L272.54,147.94z
					 M272.54,147.94L272.54,147.94L272.54,147.94L272.54,147.94L272.54,147.94z M272.54,147.94L272.54,147.94L272.54,147.94
					C272.58,147.92,272.57,147.92,272.54,147.94L272.54,147.94L272.54,147.94L272.54,147.94z M272.54,147.94
					C272.55,147.94,272.54,147.94,272.54,147.94L272.54,147.94z M272.54,147.94 M272.88,147.54c0-0.01,0.01-0.01,0.01-0.01
					c0-0.01,0.011-0.02,0.011-0.03c-0.07,0.04-0.141,0.08-0.21,0.12l0,0l-0.011,0.01v0.06c0,0.01,0,0.03,0.011,0.04
					C272.74,147.66,272.81,147.59,272.88,147.54z M272.97,147.47c0.03-0.02,0.07-0.04,0.07-0.04l0,0c0.01-0.01,0.01-0.01,0.01-0.01
					c-0.02,0.01-0.05,0.03-0.08,0.04C272.97,147.47,272.97,147.47,272.97,147.47z M273.04,147.43l-0.01,0.01
					C273.04,147.43,273.04,147.43,273.04,147.43z M273.05,147.42c0.05-0.03,0.07-0.04,0.01-0.01c0.011-0.01,0-0.01,0,0
					C273.06,147.41,273.05,147.41,273.05,147.42z M273.02,147.07c0.011-0.02,0.021-0.05,0.03-0.06v-0.03c0,0.01-0.01,0.01-0.01,0.02
					c-0.01,0-0.021,0-0.021,0.01c-0.069,0.08-0.119,0.17-0.17,0.26c-0.02,0.04-0.04,0.09-0.069,0.13
					C272.89,147.3,272.95,147.18,273.02,147.07z"/>
				<rect x="268.61" y="145.06" style="fill-rule:evenodd;clip-rule:evenodd;fill:none;" width="12" height="12"/>
			</g>
		</g>
	</g>
</g>
<g id="Guides">
</g>
</svg>
