<?xml version="1.0" encoding="iso-8859-1"?>
<!-- Generator: Adobe Illustrator 15.0.0, SVG Export Plug-In . SVG Version: 6.00 Build 0)  -->
<!DOCTYPE svg PUBLIC "-//W3C//DTD SVG 1.1//EN" "http://www.w3.org/Graphics/SVG/1.1/DTD/svg11.dtd">
<svg version="1.1" id="&#x421;&#x43B;&#x43E;&#x439;_1"
	 xmlns="http://www.w3.org/2000/svg" xmlns:xlink="http://www.w3.org/1999/xlink" x="0px" y="0px" width="600px" height="600px"
	 viewBox="0 0 600 600" style="enable-background:new 0 0 600 600;" xml:space="preserve">
<g>
	<rect x="461.02" y="-150.83" style="fill-rule:evenodd;clip-rule:evenodd;fill:#000003;" width="300" height="300"/>
	<g>
		<g>
			<path style="fill-rule:evenodd;clip-rule:evenodd;fill:#FFFFFF;" d="M582.93,9.78V-1.29c0-0.45,0.37-0.81,0.81-0.81h3.141
				l-1.17,1.85c-0.41,0.63-0.12,1.15,0.63,1.15h5.42c-0.061,0.37-0.09,0.75-0.09,1.15c0,2.77,1.609,5.18,3.96,6.31v1.42
				c0,0.45-0.37,0.81-0.82,0.81h-11.07C583.3,10.59,582.93,10.23,582.93,9.78L582.93,9.78z M592.68,1.88
				c0,3.521,2.86,6.37,6.38,6.37c3.51,0,6.37-2.85,6.37-6.37c0-3.52-2.86-6.38-6.37-6.38c-0.229,0-0.46,0.01-0.68,0.04l2.66,4.21
				c0.409,0.63,0.12,1.15-0.63,1.15h-7.66C592.71,1.22,592.68,1.541,592.68,1.88L592.68,1.88L592.68,1.88z M587.13-0.959
				C586.819-0.43,587.06,0,587.68,0h11.33c0.61,0,0.85-0.43,0.54-0.959l-5.64-9.42c-0.311-0.52-0.83-0.52-1.141,0L587.13-0.959
				L587.13-0.959z"/>
		</g>
		<g>
			<path style="fill-rule:evenodd;clip-rule:evenodd;fill:#FFFFFF;" d="M616.149,13.07V-1.69c0-0.6,0.48-1.09,1.08-1.09h4.181
				l-1.57,2.47c-0.53,0.85-0.15,1.54,0.85,1.54h7.221c-0.08,0.49-0.12,1.01-0.12,1.53c0,3.7,2.16,6.9,5.279,8.42v1.89
				c0,0.6-0.479,1.08-1.08,1.08h-14.76C616.63,14.15,616.149,13.67,616.149,13.07L616.149,13.07z M629.14,2.53
				c0,4.7,3.81,8.5,8.5,8.5c4.7,0,8.51-3.8,8.51-8.5c0-4.69-3.81-8.5-8.51-8.5c-0.3,0-0.6,0.02-0.9,0.05l3.561,5.61
				c0.53,0.85,0.149,1.54-0.85,1.54h-10.211C629.18,1.65,629.14,2.09,629.14,2.53L629.14,2.53L629.14,2.53z M621.75-1.25
				c-0.42,0.7-0.101,1.271,0.72,1.271h15.11c0.819,0,1.14-0.57,0.72-1.271l-7.51-12.56c-0.421-0.7-1.11-0.7-1.53,0L621.75-1.25
				L621.75-1.25z"/>
		</g>
		<g>
			<path style="fill-rule:evenodd;clip-rule:evenodd;fill:#FFFFFF;" d="M656.859,15.7V-2.01c0-0.72,0.58-1.3,1.301-1.3h5.01
				L661.3-0.35c-0.649,1.021-0.19,1.84,1.01,1.84h8.67c-0.1,0.6-0.149,1.21-0.149,1.84c0,4.44,2.59,8.29,6.34,10.1v2.27
				c0,0.72-0.58,1.3-1.3,1.3h-17.71C657.439,17,656.859,16.42,656.859,15.7L656.859,15.7z M672.46,3.06c0,5.63,4.57,10.2,10.2,10.2
				s10.199-4.57,10.199-10.2c0-5.63-4.569-10.2-10.199-10.2c-0.37,0-0.73,0.02-1.08,0.06l4.26,6.729c0.64,1.021,0.19,1.84-1.01,1.84
				h-12.25C672.5,2,672.46,2.53,672.46,3.06L672.46,3.06L672.46,3.06z M663.58-1.48c-0.5,0.84-0.11,1.53,0.869,1.53h18.131
				c0.979,0,1.37-0.69,0.87-1.53l-9.021-15.07c-0.51-0.84-1.33-0.84-1.83,0L663.58-1.48L663.58-1.48z"/>
		</g>
		<g>
			<path style="fill-rule:evenodd;clip-rule:evenodd;fill:#FFFFFF;" d="M703.569,19.65V-2.49c0-0.9,0.73-1.63,1.63-1.63h6.271
				l-2.35,3.71c-0.801,1.27-0.24,2.3,1.26,2.3h10.85c-0.12,0.74-0.189,1.51-0.189,2.29c0,5.56,3.229,10.36,7.92,12.63v2.84
				c0,0.89-0.721,1.62-1.62,1.62h-22.141C704.3,21.27,703.569,20.541,703.569,19.65L703.569,19.65z M723.069,3.85
				c0,7.04,5.71,12.75,12.751,12.75c7.039,0,12.749-5.71,12.749-12.75c0-7.04-5.71-12.75-12.749-12.75
				c-0.461,0-0.91,0.02-1.351,0.07l5.33,8.42c0.8,1.27,0.24,2.3-1.26,2.3h-15.32C723.12,2.53,723.069,3.181,723.069,3.85
				L723.069,3.85L723.069,3.85z M711.979-1.83c-0.63,1.061-0.14,1.91,1.08,1.91h22.66c1.23,0,1.72-0.85,1.09-1.91l-11.28-18.83
				c-0.619-1.06-1.649-1.06-2.279,0L711.979-1.83L711.979-1.83z"/>
		</g>
		<g>
			<path style="fill-rule:evenodd;clip-rule:evenodd;fill:#FFFFFF;" d="M475.58,5.17v-5.9c0-0.24,0.189-0.43,0.43-0.43h1.67
				l-0.63,0.98c-0.21,0.34-0.06,0.62,0.34,0.62h2.89c-0.029,0.2-0.05,0.4-0.05,0.61c0,1.48,0.87,2.76,2.12,3.37v0.75
				c0,0.24-0.2,0.44-0.439,0.44h-5.9C475.77,5.61,475.58,5.41,475.58,5.17L475.58,5.17z M480.77,0.96c0,1.88,1.53,3.4,3.41,3.4
				c1.87,0,3.4-1.52,3.4-3.4c0-1.88-1.53-3.4-3.4-3.4c-0.13,0-0.25,0.01-0.37,0.02l1.43,2.24c0.211,0.34,0.061,0.62-0.339,0.62
				h-4.091C480.79,0.61,480.77,0.78,480.77,0.96L480.77,0.96L480.77,0.96z M477.819-0.55c-0.17,0.28-0.04,0.51,0.29,0.51h6.04
				c0.33,0,0.461-0.229,0.29-0.51l-3.01-5.03c-0.17-0.28-0.439-0.28-0.61,0L477.819-0.55L477.819-0.55z"/>
		</g>
		<g>
			<path style="fill-rule:evenodd;clip-rule:evenodd;fill:#FFFFFF;" d="M498.29,6.49v-7.38c0-0.3,0.239-0.54,0.54-0.54h2.09
				l-0.78,1.23c-0.271,0.43-0.08,0.77,0.42,0.77h3.61c-0.04,0.25-0.061,0.5-0.061,0.76c0,1.86,1.08,3.46,2.641,4.21v0.95
				c0,0.3-0.24,0.54-0.54,0.54h-7.38C498.529,7.03,498.29,6.791,498.29,6.49L498.29,6.49z M504.79,1.22c0,2.35,1.899,4.25,4.25,4.25
				c2.35,0,4.25-1.9,4.25-4.25c0-2.34-1.9-4.25-4.25-4.25c-0.15,0-0.3,0.01-0.45,0.03l1.77,2.8c0.271,0.43,0.08,0.77-0.42,0.77h-5.1
				C504.81,0.78,504.79,1,504.79,1.22L504.79,1.22L504.79,1.22z M501.09-0.669c-0.21,0.35-0.05,0.64,0.359,0.64h7.561
				c0.41,0,0.57-0.29,0.36-0.64l-3.761-6.28c-0.21-0.35-0.55-0.35-0.76,0L501.09-0.669L501.09-0.669z"/>
		</g>
		<g>
			<path style="fill-rule:evenodd;clip-rule:evenodd;fill:#FFFFFF;" d="M524,7.8v-8.85c0-0.36,0.3-0.65,0.649-0.65h2.51l-0.939,1.48
				c-0.32,0.51-0.09,0.92,0.51,0.92h4.34c-0.05,0.3-0.079,0.61-0.079,0.92c0,2.22,1.289,4.14,3.17,5.05V7.8
				c0,0.36-0.29,0.65-0.65,0.65h-8.86C524.3,8.45,524,8.16,524,7.8L524,7.8z M531.8,1.48c0,2.82,2.29,5.11,5.1,5.11
				c2.82,0,5.101-2.29,5.101-5.11c0-2.81-2.28-5.1-5.101-5.1c-0.18,0-0.359,0.01-0.54,0.03l2.13,3.37c0.33,0.51,0.101,0.92-0.5,0.92
				h-6.13C531.819,0.96,531.8,1.22,531.8,1.48L531.8,1.48L531.8,1.48z M527.37-0.79c-0.261,0.43-0.061,0.771,0.43,0.771h9.06
				c0.49,0,0.69-0.34,0.44-0.771l-4.51-7.53c-0.25-0.42-0.66-0.42-0.92,0L527.37-0.79L527.37-0.79z"/>
		</g>
		<g>
			<path style="fill-rule:evenodd;clip-rule:evenodd;fill:#FFFFFF;" d="M552.72,8.46v-9.59c0-0.39,0.31-0.71,0.7-0.71h2.72
				l-1.02,1.61c-0.351,0.55-0.101,1,0.55,1h4.7c-0.061,0.319-0.08,0.65-0.08,0.99c0,2.41,1.399,4.49,3.43,5.47V8.46
				c0,0.39-0.32,0.71-0.7,0.71h-9.6C553.029,9.17,552.72,8.85,552.72,8.46L552.72,8.46z M561.17,1.62c0,3.05,2.47,5.52,5.52,5.52
				s5.53-2.47,5.53-5.52c0-3.05-2.48-5.53-5.53-5.53c-0.199,0-0.39,0.01-0.58,0.03l2.311,3.65c0.34,0.55,0.1,1-0.55,1h-6.641
				C561.189,1.04,561.17,1.33,561.17,1.62L561.17,1.62L561.17,1.62z M556.359-0.84c-0.27,0.45-0.06,0.82,0.471,0.82h9.819
				c0.53,0,0.74-0.37,0.47-0.82L562.229-9c-0.27-0.46-0.71-0.46-0.99,0L556.359-0.84L556.359-0.84z"/>
		</g>
	</g>
</g>
</svg>
