<?xml version="1.0" encoding="utf-8"?>
<!-- Generator: Adobe Illustrator 15.0.0, SVG Export Plug-In . SVG Version: 6.00 Build 0)  -->
<!DOCTYPE svg PUBLIC "-//W3C//DTD SVG 1.1//EN" "http://www.w3.org/Graphics/SVG/1.1/DTD/svg11.dtd">
<svg version="1.1" id="Layer_2" xmlns="http://www.w3.org/2000/svg" xmlns:xlink="http://www.w3.org/1999/xlink" x="0px" y="0px"
	 width="162px" height="148px" viewBox="0 0 162 148" enable-background="new 0 0 162 148" xml:space="preserve">
<g>
	<path fill-rule="evenodd" clip-rule="evenodd" d="M78.931,112.932c-2.345-1.072-5.14-5.339-7.646-14.63
		c-2.568-9.163-5.573-17.556-10.413-25.509c-0.835-0.846-1.604-1.444-2.439-1.25l-3.095,0.526c-1.213,0.287-1.915,0.864-1.912,1.846
		c-0.685,12.09-1.09,24.141-0.328,36.05l-0.461,0.594l-1.254,0.066c-2.484,0.019-2.334-0.296-2.834-0.527
		c0.357-6.895-0.241-13.945-0.989-21.025c-1.01-10.498-3.718-20.508-8.365-29.964c-0.213-0.657-0.039-0.951,0.143-1.199
		c-2.684-6.835,4.084-18.845,12.52-24.083c0.322-0.346,0.493-0.535,0.64-0.703c-0.157-1.412,27.336,37.75,25.316,36.307
		c2.492,4.79,4.165,9.578,5.734,14.369c2.443,4.692,6.999,6.898,14.302,5.867c4.414-0.266,8.83,3.295,13.114,5.14
		c7.877,3.285,15.292,6.475,17.73,8.635c1.318,1.712,1.119,3.494,0,4.745c-0.248,0.961-0.904,1.513-1.848,1.778
		c-8.516,2.586-17.647,3.743-26.757,4.945C89.124,115.742,82.586,114.885,78.931,112.932z"/>
</g>
</svg>
