<?xml version="1.0" encoding="iso-8859-1"?>
<!-- Generator: Adobe Illustrator 15.0.0, SVG Export Plug-In . SVG Version: 6.00 Build 0)  -->
<!DOCTYPE svg PUBLIC "-//W3C//DTD SVG 1.1//EN" "http://www.w3.org/Graphics/SVG/1.1/DTD/svg11.dtd">
<svg version="1.1" id="&#x421;&#x43B;&#x43E;&#x439;_1"
	 xmlns="http://www.w3.org/2000/svg" xmlns:xlink="http://www.w3.org/1999/xlink" x="0px" y="0px" width="600px" height="600px"
	 viewBox="0 0 600 600" style="enable-background:new 0 0 600 600;" xml:space="preserve">
<g>
	<rect x="450.16" y="-153.61" style="fill-rule:evenodd;clip-rule:evenodd;fill:#000003;" width="300" height="300"/>
	<g>
		<path style="fill-rule:evenodd;clip-rule:evenodd;fill:#FFFFFF;" d="M471.84,1.92v-3.28c0-0.32,0.26-0.57,0.58-0.57h4.33
			c0.319,0,0.58,0.25,0.58,0.57v3.28c0,0.32-0.261,0.57-0.58,0.57h-4.33C472.1,2.49,471.84,2.24,471.84,1.92L471.84,1.92z
			 M478.359,1.92L478.359,1.92v-3.28c0-0.32,0.261-0.57,0.58-0.57h4.33c0.32,0,0.58,0.25,0.58,0.57v3.28c0,0.32-0.26,0.57-0.58,0.57
			h-4.33C478.62,2.49,478.359,2.24,478.359,1.92L478.359,1.92z M476.71,1.9L476.71,1.9v-2.26h-4.25V1.9H476.71L476.71,1.9z
			 M483.229,1.9L483.229,1.9v-2.26h-4.25V1.9H483.229L483.229,1.9z M474.069-2.41L474.069-2.41v-0.9c0-0.28,0.23-0.51,0.521-0.51
			h2.729v-0.75h1.051v0.75h2.729c0.29,0,0.521,0.23,0.521,0.51v0.9h-0.94v-0.46h-5.67v0.46H474.069L474.069-2.41z M475.11-5.62
			L475.11-5.62v-3.28c0-0.32,0.25-0.57,0.569-0.57h4.33c0.32,0,0.58,0.25,0.58,0.57v3.28c0,0.32-0.26,0.57-0.58,0.57h-4.33
			C475.36-5.05,475.11-5.3,475.11-5.62L475.11-5.62z M479.97-5.64L479.97-5.64v-2.26h-4.25v2.26H479.97z"/>
		<path style="fill-rule:evenodd;clip-rule:evenodd;fill:#FFFFFF;" d="M492.63,3.27v-4.1c0-0.39,0.319-0.71,0.72-0.71h5.41
			c0.4,0,0.72,0.32,0.72,0.71v4.1c0,0.4-0.319,0.72-0.72,0.72h-5.41C492.949,3.99,492.63,3.67,492.63,3.27L492.63,3.27z
			 M500.779,3.27L500.779,3.27v-4.1c0-0.39,0.32-0.72,0.721-0.72h5.41c0.399,0,0.72,0.33,0.72,0.72v4.1c0,0.4-0.32,0.72-0.72,0.72
			h-5.41C501.1,3.99,500.779,3.67,500.779,3.27L500.779,3.27z M498.72,3.25L498.72,3.25V0.42h-5.33v2.83H498.72L498.72,3.25z
			 M506.87,3.24L506.87,3.24V0.42h-5.33v2.82H506.87L506.87,3.24z M495.42-2.14L495.42-2.14v-1.12c0-0.35,0.28-0.64,0.64-0.64h3.42
			v-0.94h1.3v0.94h3.421c0.359,0,0.64,0.29,0.64,0.64v1.12h-1.17v-0.57h-7.08v0.57H495.42L495.42-2.14z M496.71-6.15L496.71-6.15
			v-4.1c0-0.4,0.32-0.72,0.71-0.72h5.42c0.39,0,0.72,0.32,0.72,0.72v4.1c0,0.39-0.33,0.71-0.72,0.71h-5.42
			C497.03-5.44,496.71-5.76,496.71-6.15L496.71-6.15z M502.79-6.18L502.79-6.18v-2.83h-5.32v2.83H502.79z"/>
		<path style="fill-rule:evenodd;clip-rule:evenodd;fill:#FFFFFF;" d="M516.42,4.63V-0.3c0-0.47,0.38-0.86,0.859-0.86h6.501
			c0.47,0,0.859,0.39,0.859,0.86v4.93c0,0.47-0.39,0.86-0.859,0.86h-6.501C516.8,5.49,516.42,5.101,516.42,4.63L516.42,4.63z
			 M526.189,4.621L526.189,4.621V-0.3c0-0.47,0.391-0.86,0.87-0.86h6.49c0.479,0,0.87,0.39,0.87,0.86v4.92
			c0,0.48-0.391,0.87-0.87,0.87h-6.49C526.58,5.49,526.189,5.101,526.189,4.621L526.189,4.621z M523.72,4.59L523.72,4.59V1.2h-6.39
			v3.39H523.72L523.72,4.59z M533.5,4.59L533.5,4.59V1.2h-6.391v3.39H533.5L533.5,4.59z M519.76-1.87L519.76-1.87v-1.34
			c0-0.43,0.34-0.77,0.77-0.77h4.101v-1.13h1.57v1.13h4.1c0.43,0,0.77,0.34,0.77,0.77v1.34h-1.399v-0.69h-8.5v0.69H519.76
			L519.76-1.87z M521.31-6.69L521.31-6.69v-4.92c0-0.47,0.38-0.86,0.86-0.86h6.5c0.47,0,0.859,0.39,0.859,0.86v4.92
			c0,0.48-0.39,0.871-0.859,0.871h-6.5C521.689-5.819,521.31-6.209,521.31-6.69L521.31-6.69z M528.609-6.72L528.609-6.72v-3.39
			h-6.39v3.39H528.609z"/>
		<path style="fill-rule:evenodd;clip-rule:evenodd;fill:#FFFFFF;" d="M543.199,5.3v-5.33c0-0.51,0.421-0.93,0.931-0.93h7.04
			c0.52,0,0.939,0.419,0.939,0.93V5.3c0,0.52-0.42,0.93-0.939,0.93h-7.04C543.62,6.23,543.199,5.82,543.199,5.3L543.199,5.3z
			 M553.8,5.3L553.8,5.3v-5.33c0-0.51,0.41-0.93,0.93-0.93h7.04c0.51,0,0.931,0.419,0.931,0.93V5.3c0,0.52-0.421,0.93-0.931,0.93
			h-7.04C554.21,6.23,553.8,5.82,553.8,5.3L553.8,5.3z M551.109,5.271L551.109,5.271V1.59h-6.92v3.681H551.109L551.109,5.271z
			 M561.71,5.26L561.71,5.26V1.59h-6.92v3.67H561.71L561.71,5.26z M546.82-1.73L546.82-1.73v-1.459c0-0.46,0.379-0.83,0.84-0.83
			h4.439v-1.23h1.7v1.23h4.45c0.45,0,0.83,0.37,0.83,0.83v1.459h-1.53v-0.75h-9.2v0.75H546.82L546.82-1.73z M548.5-6.95L548.5-6.95
			v-5.33c0-0.52,0.42-0.94,0.93-0.94h7.04c0.52,0,0.93,0.42,0.93,0.94v5.33c0,0.51-0.41,0.93-0.93,0.93h-7.04
			C548.92-6.02,548.5-6.44,548.5-6.95L548.5-6.95z M556.41-6.99L556.41-6.99v-3.67h-6.92v3.67H556.41z"/>
		<path style="fill-rule:evenodd;clip-rule:evenodd;fill:#FFFFFF;" d="M571.49,6.66V0.5c0-0.59,0.479-1.07,1.069-1.07h8.12
			c0.6,0,1.08,0.48,1.08,1.07v6.16c0,0.59-0.48,1.07-1.08,1.07h-8.12C571.97,7.73,571.49,7.25,571.49,6.66L571.49,6.66z
			 M583.71,6.65L583.71,6.65V0.5c0-0.59,0.479-1.07,1.08-1.07h8.12c0.59,0,1.069,0.48,1.069,1.07v6.15c0,0.6-0.479,1.08-1.069,1.08
			h-8.12C584.189,7.73,583.71,7.25,583.71,6.65L583.71,6.65z M580.609,6.61L580.609,6.61V2.37h-7.979v4.24H580.609L580.609,6.61z
			 M592.84,6.61L592.84,6.61V2.37h-7.98v4.24H592.84L592.84,6.61z M575.67-1.459L575.67-1.459v-1.68c0-0.53,0.43-0.97,0.96-0.97
			h5.12v-1.41h1.97v1.41h5.12c0.53,0,0.97,0.44,0.97,0.97v1.68h-1.76v-0.86h-10.63v0.86H575.67L575.67-1.459z M577.6-7.48
			L577.6-7.48v-6.16c0-0.59,0.48-1.07,1.07-1.07h8.13c0.59,0,1.07,0.48,1.07,1.07v6.16c0,0.59-0.48,1.07-1.07,1.07h-8.13
			C578.08-6.41,577.6-6.89,577.6-7.48L577.6-7.48z M586.729-7.53L586.729-7.53v-4.24h-7.99v4.24H586.729z"/>
		<path style="fill-rule:evenodd;clip-rule:evenodd;fill:#FFFFFF;" d="M602.77,10.04V1.83c0-0.79,0.641-1.43,1.43-1.43h10.841
			c0.79,0,1.43,0.64,1.43,1.43v8.21c0,0.79-0.64,1.43-1.43,1.43h-10.841C603.41,11.47,602.77,10.83,602.77,10.04L602.77,10.04z
			 M619.07,10.03L619.07,10.03v-8.2c0-0.79,0.64-1.43,1.43-1.43h10.83c0.79,0,1.439,0.64,1.439,1.43v8.2
			c0,0.8-0.649,1.44-1.439,1.44H620.5C619.71,11.47,619.07,10.83,619.07,10.03L619.07,10.03z M614.939,9.98L614.939,9.98V4.32H604.3
			v5.66H614.939L614.939,9.98z M631.24,9.98L631.24,9.98V4.32H620.6v5.66H631.24L631.24,9.98z M608.34-0.78L608.34-0.78v-2.25
			c0-0.71,0.58-1.28,1.28-1.28h6.84V-6.2h2.62v1.89h6.83c0.71,0,1.289,0.57,1.289,1.28v2.25h-2.35v-1.15h-14.16v1.15H608.34
			L608.34-0.78z M610.92-8.82L610.92-8.82v-8.2c0-0.79,0.64-1.43,1.43-1.43h10.84c0.79,0,1.431,0.64,1.431,1.43v8.2
			c0,0.8-0.641,1.44-1.431,1.44h-10.84C611.56-7.38,610.92-8.02,610.92-8.82L610.92-8.82z M623.09-8.87L623.09-8.87v-5.66h-10.64
			v5.66H623.09z"/>
		<path style="fill-rule:evenodd;clip-rule:evenodd;fill:#FFFFFF;" d="M641.55,12.74V2.9c0-0.95,0.78-1.72,1.729-1.72h12.99
			c0.95,0,1.721,0.77,1.721,1.72v9.84c0,0.95-0.771,1.72-1.721,1.72h-12.99C642.33,14.46,641.55,13.69,641.55,12.74L641.55,12.74z
			 M661.109,12.74L661.109,12.74V2.9c0-0.95,0.771-1.72,1.721-1.72h13c0.95,0,1.72,0.77,1.72,1.72v9.84c0,0.95-0.77,1.72-1.72,1.72
			h-13C661.88,14.46,661.109,13.69,661.109,12.74L661.109,12.74z M656.16,12.67L656.16,12.67V5.89H643.39v6.78H656.16L656.16,12.67z
			 M675.72,12.67L675.72,12.67V5.89h-12.771v6.78H675.72L675.72,12.67z M648.24-0.24L648.24-0.24v-2.7c0-0.84,0.689-1.53,1.54-1.53
			h8.21v-2.27h3.13v2.27h8.21c0.85,0,1.539,0.69,1.539,1.53v2.7h-2.819v-1.38h-16.99v1.38H648.24L648.24-0.24z M651.33-9.88
			L651.33-9.88v-9.84c0-0.95,0.779-1.72,1.72-1.72h13c0.95,0,1.72,0.77,1.72,1.72v9.84c0,0.95-0.77,1.72-1.72,1.72h-13
			C652.109-8.16,651.33-8.93,651.33-9.88L651.33-9.88z M665.939-9.95L665.939-9.95v-6.78h-12.77v6.78H665.939z"/>
		<path style="fill-rule:evenodd;clip-rule:evenodd;fill:#FFFFFF;" d="M686.34,16.8V4.5c0-1.19,0.96-2.15,2.15-2.15h16.249
			c1.19,0,2.15,0.96,2.15,2.15v12.3c0,1.19-0.96,2.15-2.15,2.15H688.49C687.3,18.95,686.34,17.99,686.34,16.8L686.34,16.8z
			 M710.79,16.8L710.79,16.8V4.5c0-1.19,0.96-2.16,2.149-2.16h16.25c1.181,0,2.15,0.97,2.15,2.16v12.3c0,1.19-0.97,2.15-2.15,2.15
			h-16.25C711.75,18.95,710.79,17.99,710.79,16.8L710.79,16.8z M704.6,16.72L704.6,16.72V8.23h-15.97v8.49H704.6L704.6,16.72z
			 M729.05,16.71L729.05,16.71V8.23h-15.97v8.479H729.05L729.05,16.71z M694.699,0.57L694.699,0.57V-2.8
			c0-1.06,0.86-1.92,1.921-1.92h10.26v-2.83h3.92v2.83h10.26c1.061,0,1.92,0.86,1.92,1.92v3.37h-3.52v-1.72h-21.24v1.72H694.699
			L694.699,0.57z M698.569-11.48L698.569-11.48v-12.3c0-1.19,0.961-2.15,2.15-2.15h16.24c1.189,0,2.149,0.96,2.149,2.15v12.3
			c0,1.19-0.96,2.15-2.149,2.15h-16.24C699.53-9.33,698.569-10.29,698.569-11.48L698.569-11.48z M716.819-11.56L716.819-11.56v-8.48
			h-15.96v8.48H716.819z"/>
	</g>
</g>
</svg>
