<?xml version="1.0" encoding="iso-8859-1"?>
<!-- Generator: Adobe Illustrator 15.0.0, SVG Export Plug-In . SVG Version: 6.00 Build 0)  -->
<!DOCTYPE svg PUBLIC "-//W3C//DTD SVG 1.1//EN" "http://www.w3.org/Graphics/SVG/1.1/DTD/svg11.dtd">
<svg version="1.1" id="&#x421;&#x43B;&#x43E;&#x439;_1"
	 xmlns="http://www.w3.org/2000/svg" xmlns:xlink="http://www.w3.org/1999/xlink" x="0px" y="0px" width="600px" height="600px"
	 viewBox="0 0 600 600" style="enable-background:new 0 0 600 600;" xml:space="preserve">
<g>
	<rect x="444.27" y="-155.33" style="fill-rule:evenodd;clip-rule:evenodd;fill:#000003;" width="300" height="300"/>
	<g>
		<path style="fill-rule:evenodd;clip-rule:evenodd;fill:#FFFFFF;" d="M465.41-0.6l0.729-3.21c-0.97-0.129-1.72-0.959-1.72-1.959
			v-3.86c0-1.09,0.89-1.98,1.979-1.98h8.04c1.09,0,1.98,0.89,1.98,1.98v3.86c0,1.09-0.891,1.98-1.98,1.98h-5.47L465.41-0.6
			L465.41-0.6z M467.97-6.32L467.97-6.32c0.17-0.08,0.31-0.19,0.399-0.34c0.101-0.14,0.141-0.3,0.141-0.47
			c0-0.19-0.04-0.35-0.11-0.48c-0.08-0.13-0.189-0.23-0.33-0.3c-0.14-0.069-0.359-0.149-0.649-0.209c-0.29-0.07-0.48-0.14-0.55-0.2
			c-0.061-0.05-0.091-0.11-0.091-0.18c0-0.08,0.03-0.14,0.091-0.189c0.1-0.07,0.239-0.11,0.409-0.11c0.171,0,0.301,0.04,0.381,0.1
			c0.09,0.07,0.14,0.18,0.17,0.33l0.6-0.02c-0.01-0.28-0.11-0.49-0.3-0.66c-0.19-0.16-0.47-0.24-0.84-0.24
			c-0.23,0-0.43,0.03-0.591,0.101c-0.159,0.07-0.279,0.17-0.369,0.3c-0.08,0.13-0.131,0.28-0.131,0.43c0,0.23,0.101,0.43,0.28,0.6
			c0.131,0.11,0.351,0.21,0.681,0.29c0.239,0.06,0.399,0.11,0.47,0.13c0.11,0.041,0.18,0.08,0.22,0.13
			c0.04,0.05,0.061,0.11,0.061,0.18c0,0.11-0.051,0.2-0.141,0.28c-0.1,0.09-0.25,0.13-0.439,0.13c-0.18,0-0.33-0.05-0.44-0.14
			c-0.1-0.09-0.17-0.24-0.21-0.43l-0.58,0.05c0.04,0.34,0.16,0.59,0.36,0.76c0.2,0.18,0.49,0.26,0.859,0.26
			C467.58-6.22,467.8-6.25,467.97-6.32L467.97-6.32z M474.199-6.32L474.199-6.32c0.181-0.08,0.311-0.19,0.4-0.34
			c0.1-0.14,0.15-0.3,0.15-0.47c0-0.19-0.04-0.35-0.12-0.48s-0.19-0.23-0.33-0.3c-0.14-0.069-0.36-0.149-0.65-0.209
			c-0.29-0.07-0.479-0.14-0.55-0.2c-0.06-0.05-0.09-0.11-0.09-0.18c0-0.08,0.03-0.14,0.09-0.189c0.101-0.07,0.24-0.11,0.41-0.11
			s0.3,0.04,0.38,0.1c0.09,0.07,0.141,0.18,0.17,0.33l0.601-0.02c-0.011-0.28-0.11-0.49-0.301-0.66c-0.189-0.16-0.47-0.24-0.84-0.24
			c-0.229,0-0.42,0.03-0.59,0.101c-0.16,0.07-0.28,0.17-0.37,0.3c-0.08,0.13-0.13,0.28-0.13,0.43c0,0.23,0.1,0.43,0.28,0.6
			c0.13,0.11,0.35,0.21,0.68,0.29c0.25,0.06,0.41,0.11,0.48,0.13c0.1,0.041,0.17,0.08,0.21,0.13c0.04,0.05,0.06,0.11,0.06,0.18
			c0,0.11-0.04,0.2-0.14,0.28c-0.101,0.09-0.25,0.13-0.44,0.13c-0.18,0-0.33-0.05-0.43-0.14c-0.11-0.09-0.18-0.24-0.22-0.43
			l-0.58,0.05c0.04,0.34,0.16,0.59,0.359,0.76c0.2,0.18,0.49,0.26,0.86,0.26C473.81-6.22,474.03-6.25,474.199-6.32L474.199-6.32z
			 M469.569-6.27L469.569-6.27v-2.34l0.591,2.34h0.569l0.59-2.34v2.34h0.561v-2.97h-0.9l-0.53,2.03l-0.539-2.03h-0.9v2.97H469.569z"
			/>
		<path style="fill-rule:evenodd;clip-rule:evenodd;fill:#FFFFFF;" d="M485.91,0.78l0.909-4.01c-1.21-0.16-2.149-1.2-2.149-2.46
			v-4.82c0-1.36,1.109-2.47,2.479-2.47h10.04c1.37,0,2.48,1.109,2.48,2.47v4.82c0,1.37-1.11,2.48-2.48,2.48h-6.84L485.91,0.78
			L485.91,0.78z M489.11-6.38L489.11-6.38c0.209-0.09,0.379-0.229,0.499-0.41c0.12-0.19,0.181-0.39,0.181-0.6
			c0-0.24-0.051-0.44-0.15-0.6c-0.1-0.16-0.239-0.28-0.41-0.37c-0.18-0.09-0.45-0.18-0.81-0.27c-0.37-0.09-0.601-0.17-0.69-0.25
			c-0.08-0.06-0.109-0.14-0.109-0.221c0-0.1,0.04-0.18,0.109-0.229c0.13-0.09,0.301-0.14,0.521-0.14c0.21,0,0.37,0.04,0.47,0.13
			c0.11,0.08,0.18,0.22,0.21,0.41l0.75-0.04c-0.01-0.34-0.14-0.61-0.37-0.81c-0.24-0.21-0.59-0.31-1.06-0.31
			c-0.28,0-0.521,0.04-0.73,0.13c-0.2,0.08-0.35,0.209-0.46,0.38c-0.109,0.16-0.16,0.34-0.16,0.53c0,0.29,0.11,0.54,0.341,0.74
			c0.159,0.15,0.449,0.271,0.85,0.371c0.31,0.08,0.51,0.13,0.6,0.16c0.13,0.05,0.221,0.1,0.271,0.16c0.05,0.07,0.08,0.14,0.08,0.23
			c0,0.14-0.07,0.26-0.19,0.36s-0.3,0.15-0.54,0.15c-0.229,0-0.41-0.06-0.55-0.17c-0.13-0.12-0.22-0.3-0.27-0.54l-0.73,0.07
			c0.05,0.42,0.2,0.73,0.46,0.95c0.25,0.22,0.61,0.33,1.08,0.33C488.62-6.24,488.89-6.29,489.11-6.38L489.11-6.38z M496.899-6.38
			L496.899-6.38c0.21-0.09,0.38-0.229,0.5-0.41c0.12-0.19,0.181-0.39,0.181-0.6c0-0.24-0.051-0.44-0.15-0.6
			c-0.1-0.16-0.24-0.28-0.41-0.37c-0.18-0.09-0.45-0.18-0.81-0.27c-0.37-0.09-0.601-0.17-0.69-0.25
			c-0.08-0.06-0.109-0.14-0.109-0.221c0-0.1,0.04-0.18,0.109-0.229c0.13-0.09,0.3-0.14,0.521-0.14c0.21,0,0.37,0.04,0.47,0.13
			c0.11,0.08,0.18,0.22,0.21,0.41l0.75-0.04c-0.01-0.34-0.14-0.61-0.37-0.81c-0.24-0.21-0.59-0.31-1.06-0.31
			c-0.28,0-0.53,0.04-0.73,0.13c-0.2,0.08-0.35,0.209-0.46,0.38c-0.109,0.16-0.16,0.34-0.16,0.53c0,0.29,0.11,0.54,0.34,0.74
			c0.16,0.15,0.44,0.271,0.851,0.371c0.31,0.08,0.51,0.13,0.6,0.16c0.13,0.05,0.22,0.1,0.271,0.16c0.05,0.07,0.069,0.14,0.069,0.23
			c0,0.14-0.06,0.26-0.18,0.36s-0.3,0.15-0.55,0.15c-0.22,0-0.41-0.06-0.54-0.17c-0.13-0.12-0.22-0.3-0.271-0.54l-0.729,0.07
			c0.05,0.42,0.2,0.73,0.45,0.95c0.26,0.22,0.62,0.33,1.09,0.33C496.41-6.24,496.68-6.29,496.899-6.38L496.899-6.38z M491.109-6.31
			L491.109-6.31v-2.93l0.73,2.93h0.72l0.74-2.93v2.93h0.7v-3.72h-1.13l-0.671,2.54l-0.67-2.54h-1.119v3.72H491.109z"/>
		<path style="fill-rule:evenodd;clip-rule:evenodd;fill:#FFFFFF;" d="M535.779,2.84l1.19-5.21c-1.58-0.209-2.8-1.56-2.8-3.2v-6.26
			c0-1.78,1.439-3.22,3.22-3.22h13.06c1.78,0,3.221,1.44,3.221,3.22v6.26c0,1.78-1.44,3.22-3.221,3.22h-8.89L535.779,2.84
			L535.779,2.84z M539.939-6.459L539.939-6.459c0.28-0.121,0.5-0.3,0.65-0.54c0.16-0.24,0.229-0.5,0.229-0.78
			c0-0.31-0.06-0.56-0.189-0.77s-0.311-0.37-0.53-0.49c-0.229-0.12-0.58-0.24-1.06-0.35c-0.471-0.11-0.771-0.22-0.891-0.32
			c-0.1-0.08-0.149-0.18-0.149-0.3s0.05-0.22,0.149-0.29c0.16-0.12,0.391-0.18,0.67-0.18c0.28,0,0.48,0.05,0.62,0.161
			c0.141,0.11,0.23,0.29,0.271,0.54l0.97-0.04c-0.01-0.45-0.17-0.8-0.479-1.07c-0.311-0.27-0.761-0.4-1.37-0.4
			c-0.37,0-0.69,0.06-0.95,0.17c-0.26,0.11-0.46,0.28-0.6,0.49c-0.141,0.21-0.211,0.44-0.211,0.69c0,0.38,0.15,0.71,0.44,0.97
			c0.21,0.19,0.58,0.35,1.1,0.48c0.41,0.1,0.67,0.17,0.78,0.21c0.17,0.06,0.29,0.13,0.351,0.21c0.069,0.08,0.109,0.18,0.109,0.29
			c0,0.18-0.08,0.34-0.24,0.47c-0.159,0.13-0.399,0.2-0.709,0.2c-0.301,0-0.541-0.08-0.711-0.23c-0.18-0.15-0.29-0.38-0.35-0.7
			l-0.95,0.09c0.07,0.55,0.26,0.96,0.59,1.24c0.33,0.28,0.8,0.419,1.41,0.419C539.31-6.29,539.66-6.35,539.939-6.459L539.939-6.459z
			 M550.06-6.459L550.06-6.459c0.29-0.121,0.5-0.3,0.66-0.54c0.15-0.24,0.229-0.5,0.229-0.78c0-0.31-0.069-0.56-0.199-0.77
			c-0.12-0.21-0.301-0.37-0.53-0.49c-0.229-0.12-0.58-0.24-1.05-0.35c-0.48-0.11-0.78-0.22-0.9-0.32c-0.1-0.08-0.14-0.18-0.14-0.3
			s0.05-0.22,0.149-0.29c0.16-0.12,0.381-0.18,0.671-0.18c0.27,0,0.479,0.05,0.609,0.161c0.141,0.11,0.23,0.29,0.271,0.54
			l0.979-0.04c-0.02-0.45-0.18-0.8-0.479-1.07c-0.311-0.27-0.771-0.4-1.37-0.4c-0.37,0-0.69,0.06-0.95,0.17
			c-0.271,0.11-0.47,0.28-0.61,0.49c-0.14,0.21-0.21,0.44-0.21,0.69c0,0.38,0.15,0.71,0.45,0.97c0.21,0.19,0.58,0.35,1.101,0.48
			c0.409,0.1,0.67,0.17,0.779,0.21c0.17,0.06,0.28,0.13,0.351,0.21c0.069,0.08,0.1,0.18,0.1,0.29c0,0.18-0.08,0.34-0.24,0.47
			c-0.16,0.13-0.39,0.2-0.71,0.2c-0.29,0-0.529-0.08-0.7-0.23c-0.18-0.15-0.29-0.38-0.35-0.7l-0.95,0.09
			c0.061,0.55,0.26,0.96,0.59,1.24c0.32,0.28,0.79,0.419,1.4,0.419C549.43-6.29,549.779-6.35,550.06-6.459L550.06-6.459z
			 M542.54-6.37L542.54-6.37v-3.81l0.949,3.81h0.94l0.96-3.81v3.81h0.91v-4.84h-1.47l-0.86,3.299l-0.88-3.299h-1.46v4.84H542.54z"/>
		<path style="fill-rule:evenodd;clip-rule:evenodd;fill:#FFFFFF;" d="M563.779,4.22l1.37-6.02c-1.819-0.24-3.229-1.8-3.229-3.68
			v-7.23c0-2.05,1.67-3.71,3.72-3.71H580.7c2.06,0,3.72,1.66,3.72,3.71v7.23c0,2.05-1.66,3.71-3.72,3.71h-10.261L563.779,4.22
			L563.779,4.22z M568.58-6.52L568.58-6.52c0.319-0.13,0.569-0.34,0.75-0.62c0.18-0.28,0.26-0.58,0.26-0.9
			c0-0.35-0.07-0.65-0.22-0.89c-0.15-0.24-0.351-0.42-0.61-0.56c-0.27-0.14-0.67-0.28-1.22-0.41c-0.55-0.12-0.891-0.25-1.03-0.37
			c-0.12-0.09-0.17-0.2-0.17-0.34c0-0.14,0.06-0.25,0.18-0.34c0.181-0.14,0.44-0.2,0.771-0.2c0.31,0,0.55,0.06,0.71,0.19
			c0.16,0.12,0.26,0.33,0.31,0.61l1.13-0.05c-0.02-0.51-0.21-0.92-0.56-1.22c-0.36-0.31-0.88-0.459-1.58-0.459
			c-0.43,0-0.8,0.06-1.1,0.19s-0.53,0.32-0.7,0.56c-0.16,0.25-0.24,0.521-0.24,0.8c0,0.44,0.18,0.82,0.52,1.12
			c0.24,0.22,0.66,0.4,1.271,0.55c0.47,0.12,0.77,0.2,0.9,0.25c0.189,0.06,0.329,0.15,0.399,0.24c0.08,0.09,0.12,0.2,0.12,0.34
			c0,0.2-0.09,0.38-0.28,0.53c-0.18,0.16-0.449,0.23-0.82,0.23c-0.34,0-0.609-0.08-0.81-0.25c-0.2-0.18-0.34-0.45-0.399-0.81
			l-1.101,0.1c0.08,0.63,0.3,1.1,0.68,1.43c0.381,0.32,0.921,0.49,1.62,0.49C567.85-6.31,568.25-6.38,568.58-6.52L568.58-6.52z
			 M580.26-6.52L580.26-6.52c0.33-0.13,0.58-0.34,0.75-0.62c0.18-0.28,0.27-0.58,0.27-0.9c0-0.35-0.079-0.65-0.22-0.89
			c-0.149-0.24-0.359-0.42-0.62-0.56c-0.26-0.14-0.67-0.28-1.21-0.41c-0.55-0.12-0.899-0.25-1.04-0.37
			c-0.109-0.09-0.17-0.2-0.17-0.34c0-0.14,0.061-0.25,0.18-0.34c0.19-0.14,0.44-0.2,0.771-0.2c0.32,0,0.55,0.06,0.71,0.19
			c0.16,0.12,0.26,0.33,0.311,0.61l1.13-0.05c-0.021-0.51-0.2-0.92-0.561-1.22c-0.35-0.31-0.88-0.459-1.58-0.459
			c-0.43,0-0.79,0.06-1.1,0.19c-0.3,0.13-0.53,0.32-0.69,0.56c-0.16,0.25-0.239,0.521-0.239,0.8c0,0.44,0.17,0.82,0.51,1.12
			c0.239,0.22,0.67,0.4,1.27,0.55c0.47,0.12,0.771,0.2,0.9,0.25c0.2,0.06,0.33,0.15,0.41,0.24c0.069,0.09,0.109,0.2,0.109,0.34
			c0,0.2-0.09,0.38-0.27,0.53c-0.19,0.16-0.46,0.23-0.82,0.23c-0.35,0-0.62-0.08-0.82-0.25c-0.199-0.18-0.329-0.45-0.399-0.81
			l-1.09,0.1c0.069,0.63,0.29,1.1,0.67,1.43c0.38,0.32,0.92,0.49,1.63,0.49C579.529-6.31,579.939-6.38,580.26-6.52L580.26-6.52z
			 M571.569-6.41L571.569-6.41v-4.39l1.101,4.39h1.09l1.11-4.39v4.39h1.04v-5.58h-1.69l-1,3.8l-1.01-3.8h-1.681v5.58H571.569z"/>
		<path style="fill-rule:evenodd;clip-rule:evenodd;fill:#FFFFFF;" d="M509.409,2.15l1.091-4.81c-1.46-0.19-2.58-1.44-2.58-2.95
			v-5.78c0-1.64,1.33-2.97,2.97-2.97h12.061c1.64,0,2.97,1.33,2.97,2.97v5.78c0,1.64-1.33,2.98-2.97,2.98h-8.21L509.409,2.15
			L509.409,2.15z M513.24-6.43L513.24-6.43c0.26-0.11,0.46-0.28,0.609-0.5c0.141-0.22,0.21-0.46,0.21-0.72
			c0-0.28-0.06-0.521-0.18-0.71s-0.28-0.34-0.49-0.45c-0.21-0.11-0.54-0.22-0.97-0.33c-0.44-0.1-0.721-0.2-0.83-0.29
			c-0.09-0.08-0.13-0.17-0.13-0.27c0-0.12,0.04-0.21,0.14-0.28c0.15-0.11,0.351-0.16,0.61-0.16s0.45,0.05,0.569,0.15
			c0.131,0.1,0.211,0.26,0.25,0.49l0.9-0.04c-0.01-0.41-0.16-0.729-0.439-0.979c-0.29-0.25-0.711-0.37-1.271-0.37
			c-0.34,0-0.63,0.06-0.88,0.16c-0.24,0.1-0.42,0.25-0.55,0.45s-0.2,0.41-0.2,0.64c0,0.35,0.14,0.65,0.41,0.89
			c0.199,0.18,0.54,0.33,1.02,0.45c0.38,0.09,0.62,0.15,0.721,0.19c0.159,0.05,0.26,0.12,0.329,0.19
			c0.061,0.08,0.091,0.17,0.091,0.271c0,0.169-0.08,0.31-0.221,0.43c-0.149,0.13-0.37,0.19-0.66,0.19c-0.27,0-0.489-0.07-0.649-0.21
			s-0.27-0.35-0.32-0.65l-0.88,0.09c0.06,0.5,0.24,0.88,0.54,1.14c0.31,0.26,0.74,0.39,1.3,0.39
			C512.66-6.27,512.979-6.33,513.24-6.43L513.24-6.43z M522.59-6.43L522.59-6.43c0.26-0.11,0.46-0.28,0.6-0.5
			c0.15-0.22,0.221-0.46,0.221-0.72c0-0.28-0.061-0.521-0.181-0.71s-0.279-0.34-0.489-0.45c-0.211-0.11-0.54-0.22-0.98-0.33
			c-0.43-0.1-0.71-0.2-0.82-0.29c-0.09-0.08-0.14-0.17-0.14-0.27c0-0.12,0.05-0.21,0.14-0.28c0.15-0.11,0.36-0.16,0.62-0.16
			c0.25,0,0.44,0.05,0.57,0.15s0.21,0.26,0.25,0.49l0.899-0.04c-0.02-0.41-0.159-0.729-0.449-0.979c-0.28-0.25-0.7-0.37-1.261-0.37
			c-0.34,0-0.64,0.06-0.88,0.16s-0.43,0.25-0.56,0.45c-0.12,0.2-0.19,0.41-0.19,0.64c0,0.35,0.141,0.65,0.41,0.89
			c0.2,0.18,0.53,0.33,1.021,0.45c0.37,0.09,0.609,0.15,0.72,0.19c0.15,0.05,0.26,0.12,0.32,0.19c0.06,0.08,0.1,0.17,0.1,0.271
			c0,0.169-0.08,0.31-0.22,0.43c-0.15,0.13-0.37,0.19-0.66,0.19c-0.271,0-0.49-0.07-0.65-0.21s-0.27-0.35-0.319-0.65l-0.881,0.09
			c0.061,0.5,0.24,0.88,0.54,1.14c0.301,0.26,0.74,0.39,1.301,0.39C522.01-6.27,522.33-6.33,522.59-6.43L522.59-6.43z M515.64-6.35
			L515.64-6.35v-3.51l0.88,3.51h0.87l0.89-3.51v3.51h0.83v-4.46h-1.35l-0.8,3.04l-0.81-3.04H514.8v4.46H515.64z"/>
		<path style="fill-rule:evenodd;clip-rule:evenodd;fill:#FFFFFF;" d="M595.149,7.66l1.82-8.03c-2.42-0.32-4.3-2.39-4.3-4.91v-9.63
			c0-2.73,2.22-4.95,4.96-4.95h20.09c2.73,0,4.95,2.22,4.95,4.95v9.63c0,2.74-2.22,4.96-4.95,4.96h-13.68L595.149,7.66L595.149,7.66
			z M601.54-6.66L601.54-6.66c0.43-0.18,0.77-0.45,1.01-0.83c0.24-0.37,0.35-0.77,0.35-1.19c0-0.47-0.1-0.87-0.29-1.19
			c-0.199-0.32-0.47-0.57-0.819-0.75c-0.36-0.19-0.9-0.37-1.63-0.54c-0.73-0.17-1.19-0.34-1.381-0.5c-0.14-0.12-0.22-0.27-0.22-0.45
			c0-0.19,0.08-0.34,0.24-0.46c0.25-0.17,0.59-0.27,1.02-0.27c0.431,0,0.74,0.09,0.96,0.26c0.21,0.16,0.351,0.44,0.41,0.82l1.5-0.07
			c-0.02-0.68-0.27-1.23-0.739-1.63c-0.48-0.41-1.181-0.62-2.11-0.62c-0.57,0-1.061,0.09-1.46,0.26c-0.41,0.17-0.72,0.42-0.93,0.75
			c-0.211,0.33-0.32,0.69-0.32,1.07c0,0.58,0.229,1.08,0.68,1.49c0.33,0.29,0.891,0.54,1.7,0.74c0.62,0.15,1.021,0.26,1.2,0.32
			c0.25,0.09,0.43,0.2,0.54,0.32c0.1,0.129,0.149,0.279,0.149,0.45c0,0.28-0.12,0.52-0.37,0.72c-0.239,0.2-0.6,0.311-1.09,0.311
			c-0.449,0-0.819-0.121-1.09-0.35c-0.27-0.23-0.439-0.59-0.53-1.08l-1.46,0.14c0.101,0.84,0.4,1.47,0.9,1.9
			c0.51,0.44,1.23,0.66,2.17,0.66C600.57-6.38,601.109-6.48,601.54-6.66L601.54-6.66z M617.12-6.66L617.12-6.66
			c0.439-0.18,0.77-0.45,1.01-0.83c0.229-0.37,0.35-0.77,0.35-1.19c0-0.47-0.1-0.87-0.3-1.19c-0.189-0.32-0.47-0.57-0.82-0.75
			c-0.35-0.19-0.89-0.37-1.62-0.54c-0.729-0.17-1.189-0.34-1.38-0.5c-0.149-0.12-0.22-0.27-0.22-0.45c0-0.19,0.08-0.34,0.24-0.46
			c0.25-0.17,0.59-0.27,1.021-0.27c0.43,0,0.739,0.09,0.949,0.26c0.22,0.16,0.351,0.44,0.42,0.82l1.5-0.07
			c-0.03-0.68-0.27-1.23-0.74-1.63c-0.479-0.41-1.18-0.62-2.109-0.62c-0.57,0-1.061,0.09-1.471,0.26
			c-0.399,0.17-0.709,0.42-0.92,0.75c-0.22,0.33-0.319,0.69-0.319,1.07c0,0.58,0.22,1.08,0.68,1.49c0.32,0.29,0.89,0.54,1.69,0.74
			c0.63,0.15,1.029,0.26,1.199,0.32c0.261,0.09,0.44,0.2,0.551,0.32c0.1,0.129,0.149,0.279,0.149,0.45c0,0.28-0.12,0.52-0.37,0.72
			c-0.239,0.2-0.609,0.311-1.09,0.311c-0.46,0-0.82-0.121-1.09-0.35c-0.27-0.23-0.45-0.59-0.53-1.08l-1.46,0.14
			c0.09,0.84,0.391,1.47,0.9,1.9c0.5,0.44,1.22,0.66,2.16,0.66C616.149-6.38,616.689-6.48,617.12-6.66L617.12-6.66z M605.54-6.52
			L605.54-6.52v-5.85l1.47,5.85h1.44l1.479-5.85v5.85h1.4v-7.43h-2.261l-1.329,5.07l-1.351-5.07h-2.24v7.43H605.54z"/>
		<path style="fill-rule:evenodd;clip-rule:evenodd;fill:#FFFFFF;" d="M633.89,10.41l2.19-9.63c-2.91-0.38-5.16-2.88-5.16-5.89
			v-11.56c0-3.28,2.66-5.95,5.95-5.95h24.1c3.29,0,5.95,2.67,5.95,5.95v11.56c0,3.28-2.66,5.94-5.95,5.94h-16.41L633.89,10.41
			L633.89,10.41z M641.57-6.77L641.57-6.77c0.52-0.21,0.919-0.54,1.199-0.99c0.29-0.45,0.431-0.93,0.431-1.44
			c0-0.56-0.12-1.04-0.36-1.42s-0.561-0.68-0.98-0.91c-0.43-0.22-1.069-0.43-1.95-0.64c-0.869-0.2-1.43-0.4-1.649-0.6
			c-0.18-0.15-0.271-0.32-0.271-0.54c0-0.23,0.091-0.41,0.29-0.55c0.29-0.21,0.7-0.32,1.23-0.32c0.5,0,0.88,0.1,1.14,0.3
			c0.25,0.2,0.421,0.53,0.49,0.99l1.8-0.08c-0.02-0.82-0.319-1.48-0.89-1.97c-0.561-0.49-1.41-0.73-2.53-0.73
			c-0.68,0-1.27,0.1-1.75,0.311c-0.49,0.2-0.859,0.5-1.12,0.9c-0.25,0.4-0.38,0.82-0.38,1.28c0,0.7,0.271,1.3,0.82,1.79
			c0.39,0.35,1.07,0.64,2.029,0.88c0.751,0.19,1.23,0.32,1.44,0.39c0.311,0.11,0.53,0.24,0.65,0.39c0.13,0.15,0.189,0.33,0.189,0.54
			c0,0.33-0.149,0.61-0.439,0.86c-0.3,0.24-0.73,0.37-1.311,0.37c-0.55,0-0.989-0.14-1.31-0.42c-0.32-0.27-0.54-0.7-0.641-1.29
			l-1.76,0.169c0.12,1,0.48,1.76,1.09,2.28c0.601,0.52,1.471,0.78,2.601,0.78C640.399-6.44,641.05-6.55,641.57-6.77L641.57-6.77z
			 M660.26-6.77L660.26-6.77c0.52-0.21,0.92-0.54,1.21-0.99c0.28-0.45,0.42-0.93,0.42-1.44c0-0.56-0.12-1.04-0.35-1.42
			c-0.24-0.38-0.57-0.68-0.99-0.91c-0.42-0.22-1.07-0.43-1.94-0.64c-0.88-0.2-1.43-0.4-1.659-0.6c-0.181-0.15-0.271-0.32-0.271-0.54
			c0-0.23,0.1-0.41,0.29-0.55c0.3-0.21,0.71-0.32,1.229-0.32c0.511,0,0.891,0.1,1.141,0.3c0.25,0.2,0.42,0.53,0.5,0.99l1.8-0.08
			c-0.03-0.82-0.33-1.48-0.89-1.97c-0.57-0.49-1.41-0.73-2.53-0.73c-0.69,0-1.27,0.1-1.76,0.311c-0.48,0.2-0.851,0.5-1.11,0.9
			c-0.26,0.4-0.39,0.82-0.39,1.28c0,0.7,0.279,1.3,0.819,1.79c0.391,0.35,1.07,0.64,2.04,0.88c0.75,0.19,1.23,0.32,1.44,0.39
			c0.311,0.11,0.52,0.24,0.65,0.39c0.119,0.15,0.18,0.33,0.18,0.54c0,0.33-0.141,0.61-0.44,0.86c-0.29,0.24-0.729,0.37-1.31,0.37
			c-0.55,0-0.99-0.14-1.311-0.42c-0.319-0.27-0.529-0.7-0.64-1.29L654.64-9.5c0.12,1,0.48,1.76,1.08,2.28
			c0.61,0.52,1.47,0.78,2.6,0.78C659.1-6.44,659.739-6.55,660.26-6.77L660.26-6.77z M646.359-6.6L646.359-6.6v-7.02l1.771,7.02
			h1.729l1.771-7.02v7.02h1.68v-8.92h-2.71l-1.6,6.08l-1.62-6.08h-2.69v8.92H646.359z"/>
		<path style="fill-rule:evenodd;clip-rule:evenodd;fill:#FFFFFF;" d="M678.89,14.54l2.73-12.04c-3.641-0.48-6.45-3.59-6.45-7.36
			v-14.45c0-4.1,3.33-7.43,7.43-7.43h30.14c4.101,0,7.431,3.33,7.431,7.43v14.45c0,4.1-3.33,7.43-7.431,7.43h-20.52L678.89,14.54
			L678.89,14.54z M688.479-6.93L688.479-6.93c0.65-0.27,1.15-0.69,1.511-1.25c0.35-0.55,0.529-1.15,0.529-1.79
			c0-0.71-0.149-1.3-0.45-1.78c-0.29-0.48-0.699-0.85-1.229-1.13c-0.53-0.28-1.33-0.55-2.43-0.81c-1.091-0.25-1.78-0.5-2.07-0.74
			c-0.221-0.19-0.33-0.41-0.33-0.68c0-0.28,0.12-0.51,0.35-0.69c0.37-0.26,0.891-0.4,1.54-0.4c0.63,0,1.11,0.13,1.431,0.38
			s0.52,0.66,0.62,1.23l2.249-0.1c-0.039-1.02-0.409-1.84-1.109-2.45c-0.71-0.62-1.771-0.92-3.17-0.92c-0.851,0-1.58,0.13-2.19,0.38
			c-0.609,0.26-1.069,0.64-1.39,1.13c-0.32,0.5-0.49,1.03-0.49,1.6c0,0.88,0.35,1.63,1.03,2.24c0.49,0.44,1.34,0.8,2.54,1.1
			c0.939,0.24,1.54,0.4,1.8,0.49c0.39,0.14,0.66,0.3,0.81,0.48c0.16,0.19,0.24,0.41,0.24,0.68c0,0.41-0.189,0.77-0.55,1.07
			c-0.37,0.31-0.92,0.46-1.64,0.46c-0.69,0-1.23-0.17-1.63-0.51c-0.41-0.351-0.671-0.89-0.811-1.62l-2.19,0.21
			c0.15,1.25,0.601,2.2,1.36,2.85c0.75,0.65,1.83,0.98,3.25,0.98C687.02-6.52,687.83-6.66,688.479-6.93L688.479-6.93z M711.85-6.93
			L711.85-6.93c0.65-0.27,1.15-0.69,1.5-1.25c0.36-0.55,0.54-1.15,0.54-1.79c0-0.71-0.15-1.3-0.45-1.78
			c-0.29-0.48-0.7-0.85-1.229-1.13c-0.53-0.28-1.34-0.55-2.431-0.81c-1.1-0.25-1.789-0.5-2.069-0.74c-0.22-0.19-0.33-0.41-0.33-0.68
			c0-0.28,0.12-0.51,0.35-0.69c0.37-0.26,0.891-0.4,1.54-0.4c0.641,0,1.11,0.13,1.42,0.38c0.32,0.25,0.53,0.66,0.63,1.23l2.251-0.1
			c-0.041-1.02-0.41-1.84-1.121-2.45c-0.709-0.62-1.76-0.92-3.159-0.92c-0.86,0-1.591,0.13-2.19,0.38
			c-0.609,0.26-1.07,0.64-1.399,1.13c-0.32,0.5-0.48,1.03-0.48,1.6c0,0.88,0.35,1.63,1.03,2.24c0.49,0.44,1.33,0.8,2.54,1.1
			c0.939,0.24,1.54,0.4,1.8,0.49c0.39,0.14,0.66,0.3,0.81,0.48c0.16,0.19,0.23,0.41,0.23,0.68c0,0.41-0.18,0.77-0.55,1.07
			c-0.36,0.31-0.91,0.46-1.641,0.46c-0.68,0-1.229-0.17-1.63-0.51c-0.4-0.351-0.67-0.89-0.8-1.62l-2.19,0.21
			c0.15,1.25,0.601,2.2,1.351,2.85c0.76,0.65,1.84,0.98,3.25,0.98C710.39-6.52,711.2-6.66,711.85-6.93L711.85-6.93z M694.479-6.72
			L694.479-6.72v-8.78l2.2,8.78h2.17l2.21-8.78v8.78h2.09v-11.15h-3.37l-2.01,7.6l-2.02-7.6h-3.37v11.15H694.479z"/>
	</g>
</g>
</svg>
