<?xml version="1.0" encoding="utf-8"?>
<!-- Generator: Adobe Illustrator 15.0.0, SVG Export Plug-In . SVG Version: 6.00 Build 0)  -->
<!DOCTYPE svg PUBLIC "-//W3C//DTD SVG 1.1//EN" "http://www.w3.org/Graphics/SVG/1.1/DTD/svg11.dtd">
<svg version="1.1" id="Layer_1" xmlns="http://www.w3.org/2000/svg" xmlns:xlink="http://www.w3.org/1999/xlink" x="0px" y="0px"
	 width="162px" height="148px" viewBox="0 0 162 148" enable-background="new 0 0 162 148" xml:space="preserve">
<g>
	<path stroke="#010101" d="M90.576,39.833c0.1-2.672,0.067-4.312-0.263-6.167H72.795l1.464,6.167H90.576z"/>
	<path stroke="#010101" d="M87.085,65.536c0,0,3.094-16.982,3.363-21.202H74.77c0,0,0.313,1,1.396,5.833s0.667,16.167,0,19.5
		s-4.948,14.881-4.948,14.881s-5.113,5.722-6.136,6.534c0,0-2.912,1.178-1.534,3.18c0,0,2.09,2.648,6.374,1.678
		c0,0,3.049,0.016,7.149-4.161c0,0,2.822-4.14,9.254-5.161c0,0,8.341-3.451,4.174-8.451C90.5,78.167,84.667,74.667,87.085,65.536z"
		/>
</g>
<g>
	<path stroke="#010101" d="M117.576,39.833c0.1-2.672,0.067-4.312-0.263-6.167H99.795l1.464,6.167H117.576z"/>
	<path stroke="#010101" d="M114.085,65.536c0,0,3.094-16.982,3.363-21.202H101.77c0,0,0.313,1,1.396,5.833s0.667,16.167,0,19.5
		s-4.948,14.881-4.948,14.881s-5.113,5.722-6.136,6.534c0,0-2.912,1.178-1.534,3.18c0,0,2.09,2.648,6.374,1.678
		c0,0,3.049,0.016,7.149-4.161c0,0,2.822-4.14,9.254-5.161c0,0,8.341-3.451,4.174-8.451C117.5,78.167,111.667,74.667,114.085,65.536
		z"/>
</g>
</svg>
