<?xml version="1.0" encoding="iso-8859-1"?>
<!-- Generator: Adobe Illustrator 15.0.0, SVG Export Plug-In . SVG Version: 6.00 Build 0)  -->
<!DOCTYPE svg PUBLIC "-//W3C//DTD SVG 1.1//EN" "http://www.w3.org/Graphics/SVG/1.1/DTD/svg11.dtd">
<svg version="1.1" xmlns="http://www.w3.org/2000/svg" xmlns:xlink="http://www.w3.org/1999/xlink" x="0px" y="0px" width="300px"
	 height="300px" viewBox="0 0 300 300" style="enable-background:new 0 0 300 300;" xml:space="preserve">
<g id="Layer_1">
	<g>
		<rect x="1.81" y="-0.06" style="fill-rule:evenodd;clip-rule:evenodd;fill:#666666;" width="300" height="300"/>
		<g>
			<g>
				<path style="fill-rule:evenodd;clip-rule:evenodd;fill:#FFFFFF;" d="M59.63,175.03c0.1-0.271,0.18-0.561,0.17-0.87
					c-0.02-0.38-0.14-0.71-0.26-1.04c-0.07-0.21-0.15-0.41-0.22-0.62c-0.33-0.92-0.6-1.88-0.61-2.95c-0.02-0.96,0.19-1.8,0.63-2.54
					c0.19-0.33,0.46-0.64,0.76-0.89c0.46-0.38,0.97-0.61,1.53-0.79c-0.26,0.49-0.47,1.01-0.51,1.6c-0.05,0.87,0.31,1.561,0.6,2.271
					c0.33,0.78,0.62,1.59,0.74,2.479c0.07,0.521,0.07,1.11-0.01,1.63c-0.08,0.5-0.25,0.95-0.49,1.37
					c-0.1,0.181-0.23,0.351-0.38,0.521c-0.73,0.819-1.73,1.109-2.84,1.2C59.11,175.98,59.43,175.53,59.63,175.03z M60.96,173.54
					c0.03-0.11,0.06-0.21,0.09-0.33c0.05-0.25,0.07-0.53,0.07-0.83c-0.01-0.32-0.05-0.67-0.1-0.979
					c-0.09-0.53-0.23-1.011-0.38-1.471c-0.13-0.41-0.29-0.81-0.33-1.33c-0.02-0.359,0.01-0.68,0.07-0.979
					c-0.17,0.12-0.32,0.28-0.44,0.52c-0.08,0.16-0.14,0.36-0.18,0.561c-0.1,0.45-0.11,0.96-0.05,1.54c0.07,0.64,0.21,1.21,0.37,1.75
					c0.04,0.12,0.07,0.24,0.11,0.37c0.06,0.189,0.11,0.38,0.14,0.609c0.03,0.19,0.02,0.37,0,0.53c-0.03,0.31-0.11,0.58-0.19,0.85
					C60.48,174.26,60.77,174.05,60.96,173.54z M52.88,166.12c1.63,0.96,2.37,1.91,2.38,2.87h-4.98
					C50.3,168.02,51.13,167.06,52.88,166.12z M68.79,166.12c1.63,0.96,2.37,1.91,2.38,2.87h-4.98
					C66.21,168.02,67.04,167.06,68.79,166.12z M52.86,141.05c1.15,3.11,1.69,6.21,1.92,9.32h1.69c-0.04-5.86,0.83-11.7,4.45-17.47
					c3.13,5.82,3.96,11.65,4.02,17.47h1.67c0.23-3.12,0.84-6.23,2.16-9.32c2.97,8.06,1.89,16.12,1.78,24.19h-3.58
					c-0.04-1.34-0.11-2.67-0.19-4h-2.25c-0.06,1.33-0.12,2.66-0.15,4h-2.11v-4.94h-2.72v4.94h-2.13c-0.07-1.34-0.16-2.67-0.27-4
					h-2.4c-0.05,1.33-0.1,2.66-0.11,4h-3.58C50.8,157.14,49.44,149,52.86,141.05z M56.49,151.81h-1.63
					c0.12,2.561,0.05,5.11-0.05,7.671h2.2C56.79,156.92,56.57,154.36,56.49,151.81z M66.52,151.81h-1.58
					c-0.03,2.561-0.17,5.11-0.31,7.671h2.05C66.54,156.92,66.42,154.36,66.52,151.81z M58.09,149.18c2.04-1.24,3.71-0.98,5.2,0
					c0-0.07,0.01-0.15,0.01-0.22c0-2.87-1.17-5.2-2.61-5.2s-2.6,2.33-2.6,5.2C58.09,149.03,58.09,149.11,58.09,149.18z"/>
				<rect x="38.22" y="132.15" style="fill-rule:evenodd;clip-rule:evenodd;fill:none;" width="45" height="45"/>
			</g>
			<g>
				<path style="fill-rule:evenodd;clip-rule:evenodd;fill:#FFFFFF;" d="M103.56,170.95c0.09-0.21,0.15-0.44,0.14-0.69
					c-0.02-0.3-0.11-0.569-0.21-0.83c-0.05-0.17-0.12-0.33-0.18-0.5c-0.26-0.729-0.47-1.5-0.49-2.359
					c-0.01-0.771,0.16-1.44,0.51-2.03c0.15-0.26,0.37-0.51,0.61-0.71c0.36-0.3,0.78-0.49,1.22-0.63c-0.2,0.39-0.37,0.8-0.4,1.28
					c-0.05,0.689,0.25,1.25,0.48,1.81c0.26,0.63,0.49,1.27,0.58,1.99c0.06,0.41,0.07,0.89,0,1.3c-0.07,0.4-0.2,0.76-0.39,1.1
					c-0.09,0.141-0.19,0.28-0.3,0.41c-0.59,0.65-1.39,0.891-2.28,0.96C103.14,171.71,103.4,171.36,103.56,170.95z M104.62,169.76
					c0.03-0.08,0.06-0.17,0.08-0.26c0.04-0.2,0.06-0.43,0.05-0.67c0-0.25-0.03-0.53-0.07-0.78c-0.08-0.42-0.19-0.8-0.31-1.17
					c-0.11-0.33-0.23-0.66-0.26-1.07c-0.02-0.29,0.01-0.54,0.05-0.779c-0.13,0.1-0.25,0.22-0.35,0.41
					c-0.06,0.13-0.11,0.29-0.15,0.449c-0.07,0.36-0.08,0.771-0.03,1.24c0.05,0.51,0.17,0.96,0.29,1.39
					c0.03,0.101,0.06,0.2,0.09,0.301c0.05,0.149,0.09,0.31,0.11,0.489c0.02,0.15,0.02,0.29,0,0.421c-0.02,0.25-0.08,0.47-0.15,0.68
					C104.24,170.34,104.48,170.17,104.62,169.76z M98.16,163.83c1.31,0.76,1.9,1.53,1.91,2.29h-3.99
					C96.1,165.35,96.76,164.58,98.16,163.83z M110.89,163.83c1.31,0.76,1.9,1.53,1.91,2.29h-3.99
					C108.83,165.35,109.49,164.58,110.89,163.83z M98.15,143.77c0.91,2.49,1.35,4.97,1.53,7.46h1.35
					c-0.03-4.69,0.67-9.371,3.57-13.98c2.5,4.66,3.16,9.32,3.21,13.98h1.33c0.19-2.5,0.68-4.99,1.74-7.46
					c2.37,6.45,1.51,12.9,1.42,19.35h-2.86c-0.04-1.07-0.1-2.13-0.16-3.2h-1.79c-0.06,1.07-0.1,2.13-0.12,3.2h-1.69v-3.95h-2.18
					v3.95h-1.71c-0.05-1.07-0.12-2.13-0.21-3.2h-1.92c-0.04,1.07-0.08,2.13-0.09,3.2h-2.86C96.5,156.64,95.41,150.13,98.15,143.77z
					 M101.05,152.38h-1.3c0.09,2.04,0.03,4.09-0.04,6.14h1.75C101.29,156.47,101.12,154.42,101.05,152.38z M109.08,152.38h-1.27
					c-0.02,2.04-0.14,4.09-0.25,6.14h1.64C109.09,156.47,109,154.42,109.08,152.38z M102.33,150.28c1.64-1,2.97-0.79,4.16,0
					c0-0.06,0.01-0.12,0.01-0.18c0-2.3-0.94-4.16-2.09-4.16c-1.15,0-2.08,1.86-2.08,4.16C102.33,150.16,102.33,150.22,102.33,150.28
					z"/>
				<rect x="86.44" y="136.65" style="fill-rule:evenodd;clip-rule:evenodd;fill:none;" width="36" height="36"/>
			</g>
			<g>
				<path style="fill-rule:evenodd;clip-rule:evenodd;fill:#FFFFFF;" d="M139.92,168.24c0.07-0.181,0.12-0.37,0.11-0.58
					c-0.01-0.25-0.09-0.47-0.17-0.7c-0.04-0.13-0.1-0.27-0.14-0.41c-0.22-0.609-0.4-1.25-0.41-1.96c-0.01-0.649,0.13-1.21,0.42-1.7
					c0.13-0.22,0.3-0.42,0.51-0.59c0.3-0.25,0.64-0.41,1.02-0.53c-0.18,0.33-0.32,0.671-0.34,1.07c-0.04,0.58,0.21,1.04,0.4,1.51
					c0.21,0.521,0.41,1.061,0.49,1.66c0.04,0.34,0.05,0.74-0.01,1.08c-0.05,0.33-0.16,0.641-0.32,0.92
					c-0.07,0.12-0.16,0.23-0.26,0.34c-0.49,0.551-1.15,0.74-1.89,0.801C139.57,168.87,139.79,168.57,139.92,168.24z M140.81,167.24
					c0.02-0.07,0.04-0.141,0.06-0.21c0.03-0.17,0.05-0.36,0.04-0.561c0-0.21-0.02-0.439-0.06-0.649c-0.06-0.351-0.16-0.67-0.25-0.98
					c-0.09-0.27-0.2-0.54-0.22-0.89c-0.02-0.24,0.01-0.45,0.04-0.65c-0.11,0.08-0.21,0.19-0.29,0.351
					c-0.05,0.1-0.1,0.229-0.12,0.369c-0.07,0.301-0.08,0.641-0.03,1.03c0.04,0.42,0.14,0.8,0.24,1.16c0.03,0.08,0.05,0.16,0.07,0.25
					c0.04,0.13,0.08,0.25,0.1,0.41c0.02,0.12,0.01,0.24,0,0.35c-0.02,0.2-0.07,0.391-0.13,0.561
					C140.49,167.73,140.69,167.59,140.81,167.24z M135.42,162.3c1.09,0.641,1.58,1.271,1.59,1.91h-3.32
					C133.7,163.57,134.26,162.93,135.42,162.3z M146.03,162.3c1.09,0.641,1.58,1.271,1.59,1.91h-3.33
					C144.31,163.57,144.87,162.93,146.03,162.3z M135.41,145.59c0.76,2.07,1.12,4.14,1.28,6.21h1.12c-0.02-3.91,0.56-7.8,2.98-11.65
					c2.08,3.88,2.63,7.77,2.67,11.65h1.11c0.16-2.09,0.56-4.16,1.45-6.21c1.98,5.37,1.26,10.74,1.18,16.12h-2.38
					c-0.03-0.89-0.08-1.78-0.13-2.67h-1.5c-0.04,0.89-0.08,1.78-0.1,2.67h-1.41v-3.29h-1.81v3.29h-1.42
					c-0.05-0.89-0.11-1.78-0.18-2.67h-1.6c-0.03,0.89-0.06,1.78-0.08,2.67h-2.38C134.04,156.31,133.13,150.89,135.41,145.59z
					 M137.83,152.76h-1.09c0.08,1.7,0.03,3.41-0.03,5.11h1.46C138.03,156.17,137.88,154.46,137.83,152.76z M144.52,152.76h-1.06
					c-0.02,1.7-0.11,3.41-0.21,5.11h1.37C144.53,156.16,144.45,154.46,144.52,152.76z M138.89,151.01c1.37-0.83,2.48-0.66,3.47,0
					c0.01-0.05,0.01-0.1,0.01-0.16c0-1.91-0.78-3.46-1.74-3.46s-1.74,1.55-1.74,3.46C138.89,150.91,138.89,150.96,138.89,151.01z"/>
				<rect x="125.65" y="139.65" style="fill-rule:evenodd;clip-rule:evenodd;fill:none;" width="30" height="30"/>
			</g>
			<g>
				<path style="fill-rule:evenodd;clip-rule:evenodd;fill:#FFFFFF;" d="M169.57,164.84c0.05-0.13,0.09-0.28,0.08-0.43
					c-0.011-0.19-0.07-0.36-0.12-0.521c-0.04-0.109-0.08-0.21-0.12-0.31c-0.16-0.46-0.3-0.94-0.3-1.48
					c-0.011-0.479,0.09-0.899,0.31-1.27c0.1-0.16,0.23-0.32,0.38-0.44c0.23-0.189,0.49-0.31,0.771-0.399
					c-0.13,0.25-0.23,0.51-0.25,0.8c-0.03,0.43,0.149,0.78,0.3,1.13c0.16,0.4,0.3,0.8,0.36,1.25c0.039,0.26,0.039,0.55,0,0.811
					c-0.04,0.25-0.12,0.479-0.25,0.689c-0.051,0.09-0.11,0.17-0.181,0.25c-0.37,0.41-0.87,0.561-1.42,0.61
					C169.31,165.31,169.47,165.09,169.57,164.84z M170.23,164.09c0.02-0.05,0.039-0.1,0.05-0.16c0.02-0.13,0.029-0.26,0.029-0.42
					c0-0.149-0.02-0.33-0.05-0.479c-0.04-0.271-0.109-0.511-0.189-0.74c-0.061-0.2-0.141-0.41-0.16-0.67
					c-0.01-0.17,0.01-0.33,0.03-0.48c-0.08,0.061-0.15,0.141-0.21,0.261c-0.051,0.08-0.08,0.17-0.101,0.27
					c-0.05,0.23-0.05,0.49-0.02,0.78c0.029,0.319,0.109,0.6,0.18,0.87c0.02,0.06,0.04,0.12,0.06,0.18c0.03,0.1,0.061,0.2,0.07,0.31
					c0.01,0.101,0.01,0.181,0,0.261c-0.02,0.16-0.05,0.3-0.1,0.43C169.99,164.46,170.14,164.35,170.23,164.09z M166.19,160.39
					c0.819,0.471,1.189,0.95,1.189,1.431h-2.49C164.9,161.34,165.32,160.86,166.19,160.39z M174.15,160.39
					c0.819,0.471,1.189,0.95,1.189,1.431h-2.49C172.86,161.34,173.28,160.86,174.15,160.39z M166.18,147.85
					c0.58,1.56,0.851,3.11,0.96,4.66h0.851c-0.021-2.93,0.42-5.85,2.229-8.73c1.561,2.91,1.971,5.82,2,8.73h0.84
					c0.11-1.56,0.421-3.12,1.08-4.66c1.49,4.03,0.94,8.06,0.891,12.09h-1.79c-0.021-0.66-0.061-1.33-0.101-1.99h-1.12
					c-0.029,0.66-0.06,1.33-0.069,1.99h-1.061v-2.46h-1.359v2.46h-1.07c-0.03-0.66-0.08-1.33-0.13-1.99h-1.2
					c-0.03,0.66-0.05,1.33-0.06,1.99h-1.79C165.15,155.9,164.47,151.83,166.18,147.85z M168,153.23h-0.82
					c0.061,1.279,0.03,2.56-0.02,3.84h1.1C168.15,155.79,168.04,154.51,168,153.23z M173.02,153.23h-0.8
					c-0.01,1.279-0.08,2.56-0.149,3.84h1.02C173.02,155.79,172.97,154.51,173.02,153.23z M168.8,151.92c1.021-0.63,1.86-0.5,2.601,0
					c0-0.04,0-0.08,0-0.12c0-1.43-0.58-2.59-1.301-2.59c-0.72,0-1.3,1.16-1.3,2.59C168.8,151.84,168.8,151.88,168.8,151.92z"/>
				<rect x="158.87" y="143.4" style="fill-rule:evenodd;clip-rule:evenodd;fill:none;" width="22.5" height="22.5"/>
			</g>
			<g>
				<path style="fill-rule:evenodd;clip-rule:evenodd;fill:#FFFFFF;" d="M193.86,163.48c0.04-0.11,0.08-0.24,0.069-0.37
					c-0.01-0.17-0.06-0.311-0.109-0.46c-0.03-0.091-0.07-0.17-0.101-0.261c-0.14-0.399-0.26-0.819-0.26-1.279
					c-0.01-0.42,0.08-0.78,0.271-1.101c0.079-0.14,0.199-0.279,0.329-0.39c0.2-0.16,0.421-0.26,0.66-0.34
					c-0.109,0.21-0.2,0.439-0.22,0.689c-0.02,0.38,0.14,0.681,0.26,0.98c0.141,0.35,0.271,0.7,0.32,1.08
					c0.03,0.229,0.04,0.479,0,0.71c-0.04,0.21-0.11,0.41-0.21,0.59c-0.05,0.08-0.101,0.15-0.17,0.22c-0.32,0.36-0.75,0.49-1.23,0.53
					C193.63,163.89,193.77,163.7,193.86,163.48z M194.43,162.84c0.021-0.05,0.03-0.1,0.04-0.14c0.021-0.12,0.03-0.24,0.03-0.37
					s-0.02-0.29-0.04-0.42c-0.04-0.23-0.1-0.44-0.17-0.641c-0.05-0.17-0.12-0.35-0.14-0.579c-0.011-0.15,0.01-0.29,0.029-0.421
					c-0.069,0.061-0.14,0.12-0.189,0.23c-0.03,0.07-0.061,0.15-0.08,0.24c-0.04,0.2-0.05,0.42-0.021,0.67
					c0.03,0.28,0.091,0.52,0.16,0.76c0.021,0.05,0.03,0.1,0.05,0.15c0.021,0.09,0.051,0.17,0.061,0.27c0.01,0.08,0.01,0.16,0,0.23
					c-0.01,0.13-0.05,0.25-0.08,0.37C194.22,163.15,194.35,163.06,194.43,162.84z M190.93,159.62c0.71,0.42,1.03,0.83,1.03,1.24
					h-2.16C189.81,160.45,190.17,160.03,190.93,159.62z M197.83,159.62c0.7,0.42,1.02,0.83,1.03,1.24h-2.16
					C196.71,160.45,197.07,160.03,197.83,159.62z M190.92,148.76c0.5,1.35,0.73,2.69,0.83,4.04h0.74
					c-0.021-2.54,0.359-5.08,1.93-7.57c1.35,2.52,1.71,5.04,1.74,7.57h0.72c0.101-1.359,0.36-2.71,0.94-4.04
					c1.29,3.49,0.819,6.99,0.77,10.48h-1.55c-0.021-0.58-0.05-1.16-0.08-1.73h-0.979c-0.03,0.57-0.051,1.15-0.061,1.73H195V157.1
					h-1.18v2.141h-0.92c-0.03-0.58-0.07-1.16-0.12-1.73h-1.04c-0.021,0.57-0.04,1.15-0.05,1.73h-1.551
					C190.03,155.73,189.44,152.2,190.92,148.76z M192.5,153.42h-0.71c0.05,1.11,0.02,2.22-0.021,3.32h0.95
					C192.63,155.64,192.53,154.53,192.5,153.42z M196.84,153.42h-0.68c-0.01,1.11-0.08,2.22-0.141,3.32h0.891
					C196.85,155.63,196.8,154.53,196.84,153.42z M193.19,152.28c0.88-0.54,1.609-0.431,2.25,0c0-0.03,0.01-0.061,0.01-0.101
					c0-1.24-0.51-2.25-1.13-2.25c-0.63,0-1.13,1.01-1.13,2.25C193.19,152.22,193.19,152.25,193.19,152.28z"/>
				<rect x="184.58" y="144.9" style="fill-rule:evenodd;clip-rule:evenodd;fill:none;" width="19.5" height="19.5"/>
			</g>
			<g>
				<path style="fill-rule:evenodd;clip-rule:evenodd;fill:#FFFFFF;" d="M215.86,162.8c0.04-0.1,0.069-0.22,0.06-0.34
					c0-0.16-0.05-0.29-0.1-0.42c-0.03-0.08-0.061-0.17-0.09-0.25c-0.131-0.37-0.24-0.75-0.24-1.18
					c-0.01-0.38,0.069-0.721,0.25-1.021c0.08-0.13,0.18-0.25,0.31-0.35c0.181-0.15,0.38-0.25,0.61-0.32
					c-0.11,0.2-0.19,0.41-0.21,0.65c-0.021,0.34,0.13,0.62,0.24,0.899c0.13,0.311,0.25,0.641,0.3,0.99
					c0.029,0.21,0.029,0.45-0.01,0.65c-0.03,0.199-0.091,0.39-0.19,0.55c-0.04,0.08-0.09,0.149-0.15,0.21
					c-0.3,0.33-0.689,0.45-1.14,0.479C215.65,163.18,215.78,163,215.86,162.8z M216.39,162.21c0.011-0.04,0.021-0.09,0.03-0.13
					c0.021-0.11,0.03-0.22,0.03-0.34s-0.021-0.26-0.04-0.391c-0.03-0.21-0.09-0.399-0.15-0.59c-0.05-0.16-0.12-0.319-0.13-0.529
					c-0.01-0.141,0-0.271,0.03-0.391c-0.07,0.05-0.13,0.11-0.18,0.21c-0.03,0.061-0.061,0.141-0.07,0.22
					c-0.04,0.181-0.05,0.391-0.021,0.62c0.03,0.25,0.08,0.48,0.15,0.7c0.01,0.05,0.03,0.09,0.04,0.141
					c0.02,0.079,0.05,0.159,0.06,0.25c0.011,0.079,0,0.149,0,0.21c-0.02,0.119-0.05,0.229-0.08,0.34
					C216.2,162.5,216.31,162.41,216.39,162.21z M213.16,159.24c0.649,0.38,0.939,0.76,0.95,1.149h-2
					C212.12,160,212.46,159.62,213.16,159.24z M219.52,159.24c0.65,0.38,0.95,0.76,0.95,1.149h-1.989
					C218.49,160,218.82,159.62,219.52,159.24z M213.15,149.21c0.46,1.25,0.67,2.49,0.77,3.73h0.67c-0.01-2.351,0.34-4.681,1.78-6.99
					c1.26,2.33,1.59,4.66,1.61,6.99h0.67c0.09-1.25,0.33-2.49,0.859-3.73c1.19,3.23,0.76,6.45,0.71,9.68h-1.43
					c-0.01-0.54-0.04-1.069-0.07-1.6h-0.899c-0.03,0.53-0.051,1.06-0.061,1.6h-0.85v-1.979h-1.09v1.979h-0.851
					c-0.02-0.54-0.06-1.069-0.1-1.6h-0.97c-0.021,0.53-0.03,1.06-0.04,1.6h-1.431C212.32,155.65,211.78,152.39,213.15,149.21z
					 M214.6,153.52h-0.649c0.04,1.021,0.02,2.04-0.021,3.061h0.88C214.72,155.56,214.63,154.54,214.6,153.52z M218.61,153.52h-0.63
					c-0.011,1.021-0.07,2.04-0.12,3.061h0.819C218.62,155.56,218.57,154.54,218.61,153.52z M215.24,152.46
					c0.819-0.49,1.49-0.39,2.08,0c0-0.03,0-0.06,0-0.09c0-1.14-0.46-2.07-1.04-2.07c-0.57,0-1.04,0.931-1.04,2.07
					C215.24,152.4,215.24,152.43,215.24,152.46z"/>
				<rect x="207.29" y="145.65" style="fill-rule:evenodd;clip-rule:evenodd;fill:none;" width="18" height="18"/>
			</g>
			<g>
				<path style="fill-rule:evenodd;clip-rule:evenodd;fill:#FFFFFF;" d="M235.64,161.44c0.04-0.08,0.07-0.181,0.061-0.29
					c-0.01-0.12-0.05-0.23-0.08-0.341c-0.03-0.069-0.061-0.14-0.08-0.21c-0.11-0.3-0.2-0.619-0.2-0.979
					c-0.01-0.32,0.061-0.601,0.21-0.851c0.061-0.109,0.15-0.21,0.25-0.289c0.15-0.131,0.32-0.211,0.51-0.271
					c-0.09,0.17-0.149,0.34-0.17,0.54c-0.02,0.28,0.11,0.52,0.2,0.75c0.11,0.26,0.21,0.53,0.25,0.83
					c0.021,0.17,0.021,0.37-0.01,0.54c-0.021,0.17-0.08,0.32-0.16,0.46c-0.03,0.06-0.08,0.12-0.12,0.17
					c-0.25,0.27-0.58,0.37-0.95,0.4C235.47,161.76,235.58,161.61,235.64,161.44z M236.09,160.95c0.01-0.04,0.021-0.07,0.03-0.11
					c0.01-0.09,0.02-0.18,0.02-0.28c0-0.1-0.01-0.22-0.029-0.319c-0.03-0.181-0.08-0.34-0.13-0.49c-0.04-0.14-0.101-0.28-0.11-0.45
					c-0.01-0.12,0.01-0.22,0.02-0.319c-0.05,0.039-0.1,0.09-0.14,0.17c-0.03,0.05-0.05,0.119-0.06,0.18
					c-0.04,0.16-0.04,0.33-0.021,0.52c0.021,0.21,0.07,0.4,0.12,0.58c0.02,0.04,0.03,0.08,0.04,0.12c0.02,0.07,0.04,0.13,0.05,0.21
					c0.01,0.061,0,0.12,0,0.17c-0.01,0.11-0.04,0.2-0.07,0.29C235.93,161.19,236.03,161.12,236.09,160.95z M233.39,158.47
					c0.551,0.32,0.79,0.641,0.801,0.96h-1.66C232.53,159.11,232.81,158.79,233.39,158.47z M238.7,158.47
					c0.54,0.32,0.79,0.641,0.79,0.96h-1.66C237.84,159.11,238.12,158.79,238.7,158.47z M233.39,150.12
					c0.38,1.04,0.561,2.07,0.641,3.11h0.56c-0.01-1.961,0.28-3.911,1.49-5.831c1.04,1.94,1.31,3.88,1.33,5.831h0.56
					c0.08-1.051,0.28-2.08,0.721-3.11c0.989,2.689,0.63,5.37,0.59,8.06h-1.19c-0.01-0.439-0.04-0.89-0.06-1.33h-0.75
					c-0.021,0.44-0.04,0.891-0.05,1.33h-0.711v-1.64h-0.899v1.64h-0.71c-0.021-0.439-0.061-0.89-0.09-1.33h-0.801
					c-0.02,0.44-0.029,0.891-0.039,1.33h-1.19C232.7,155.48,232.25,152.77,233.39,150.12z M234.6,153.7h-0.55
					c0.04,0.859,0.021,1.71-0.01,2.56h0.729C234.7,155.41,234.62,154.56,234.6,153.7z M237.94,153.7h-0.53
					c-0.01,0.859-0.05,1.71-0.101,2.56h0.681C237.95,155.41,237.91,154.56,237.94,153.7z M235.13,152.83c0.68-0.42,1.24-0.33,1.73,0
					c0.01-0.03,0.01-0.05,0.01-0.08c0-0.95-0.39-1.73-0.87-1.73s-0.87,0.78-0.87,1.73C235.13,152.78,235.13,152.8,235.13,152.83z"/>
				<rect x="228.51" y="147.15" style="fill-rule:evenodd;clip-rule:evenodd;fill:none;" width="15" height="15"/>
			</g>
			<g>
				<path style="fill-rule:evenodd;clip-rule:evenodd;fill:#FFFFFF;" d="M252.43,160.09c0.03-0.07,0.051-0.149,0.051-0.24
					c-0.011-0.1-0.04-0.18-0.07-0.27c-0.021-0.061-0.04-0.11-0.061-0.17c-0.09-0.24-0.159-0.5-0.17-0.78
					c0-0.26,0.061-0.49,0.17-0.68c0.051-0.09,0.131-0.17,0.21-0.24c0.12-0.1,0.261-0.16,0.4-0.21c-0.06,0.13-0.12,0.27-0.13,0.43
					c-0.021,0.23,0.08,0.41,0.16,0.601c0.09,0.21,0.16,0.43,0.189,0.66c0.021,0.14,0.03,0.3,0,0.439c-0.02,0.13-0.06,0.25-0.13,0.36
					c-0.03,0.05-0.06,0.1-0.1,0.14c-0.2,0.22-0.46,0.3-0.76,0.32C252.29,160.34,252.38,160.22,252.43,160.09z M252.78,159.69
					c0.01-0.03,0.02-0.061,0.029-0.091c0.011-0.069,0.021-0.14,0.021-0.22s-0.01-0.18-0.03-0.26c-0.02-0.14-0.06-0.271-0.1-0.39
					c-0.04-0.11-0.08-0.221-0.09-0.36c0-0.09,0.01-0.18,0.02-0.26c-0.04,0.029-0.08,0.08-0.12,0.14c-0.02,0.04-0.029,0.09-0.05,0.15
					c-0.02,0.119-0.02,0.26-0.01,0.409c0.02,0.171,0.06,0.32,0.1,0.471c0.01,0.029,0.021,0.06,0.03,0.09
					c0.01,0.06,0.03,0.11,0.04,0.17c0,0.05,0,0.09,0,0.14c-0.01,0.08-0.03,0.15-0.05,0.221
					C252.66,159.88,252.74,159.83,252.78,159.69z M250.63,157.71c0.44,0.26,0.63,0.51,0.64,0.771h-1.329
					C249.94,158.22,250.16,157.96,250.63,157.71z M254.87,157.71c0.439,0.26,0.64,0.51,0.64,0.771h-1.33
					C254.19,158.22,254.41,157.96,254.87,157.71z M250.63,151.03c0.3,0.819,0.45,1.649,0.51,2.479h0.45
					c-0.01-1.56,0.22-3.12,1.19-4.66c0.83,1.56,1.05,3.11,1.069,4.66h0.44c0.06-0.83,0.22-1.66,0.58-2.479
					c0.79,2.149,0.5,4.3,0.47,6.439h-0.95c-0.01-0.35-0.029-0.71-0.05-1.06h-0.6c-0.021,0.35-0.03,0.71-0.04,1.06h-0.561v-1.31
					h-0.729v1.31h-0.57c-0.02-0.35-0.04-0.71-0.07-1.06h-0.64c-0.01,0.35-0.03,0.71-0.03,1.06h-0.949
					C250.08,155.32,249.71,153.15,250.63,151.03z M251.59,153.89h-0.43c0.03,0.69,0.01,1.37-0.01,2.051h0.58
					C251.67,155.26,251.61,154.58,251.59,153.89z M254.27,153.89h-0.42c-0.01,0.69-0.05,1.37-0.09,2.051h0.55
					C254.27,155.26,254.24,154.57,254.27,153.89z M252.02,153.19c0.551-0.33,0.99-0.261,1.391,0c0-0.021,0-0.04,0-0.061
					c0-0.76-0.311-1.38-0.7-1.38c-0.38,0-0.69,0.62-0.69,1.38C252.02,153.15,252.02,153.17,252.02,153.19z"/>
				<rect x="246.72" y="148.65" style="fill-rule:evenodd;clip-rule:evenodd;fill:none;" width="12" height="12"/>
			</g>
		</g>
	</g>
</g>
<g id="Guides">
</g>
</svg>
