<?xml version="1.0" encoding="iso-8859-1"?>
<!-- Generator: Adobe Illustrator 15.0.0, SVG Export Plug-In . SVG Version: 6.00 Build 0)  -->
<!DOCTYPE svg PUBLIC "-//W3C//DTD SVG 1.1//EN" "http://www.w3.org/Graphics/SVG/1.1/DTD/svg11.dtd">
<svg version="1.1" id="Layer_1" xmlns="http://www.w3.org/2000/svg" xmlns:xlink="http://www.w3.org/1999/xlink" x="0px" y="0px"
	 width="612px" height="792px" viewBox="0 0 612 792" style="enable-background:new 0 0 612 792;" xml:space="preserve">
<path d="M175.455,216.713H95.966c-2.706,0-4.898,2.193-4.898,4.898V335.95c0,2.706,2.193,4.898,4.898,4.898h79.489
	c2.706,0,4.898-2.193,4.898-4.898V221.611C180.354,218.906,178.161,216.713,175.455,216.713z M162.507,288.828
	c-5.166,13.069-20.849,10.381-23.331,4.49c-0.431-0.216-1.167-0.539-1.36-0.13c-0.918,0.958,0.458,10.834,3.254,13.278v0.476
	l-8.833,0.063l-0.018-0.55c2.791-2.625,4.338-12.45,2.989-13.3c-0.204-0.301-0.522-0.313-0.958-0.052
	c-13.477,14.055-30.049-1.701-24.396-11.452c2.2-4.768,5.465-8.176,9.167-11.141c9.928-8.085,14.746-14.356,16.993-19.697
	c0.271-0.334,0.543-0.346,0.669,0c3.067,8.369,13.04,19.141,21.595,24.26C161.707,279.433,163.295,283.583,162.507,288.828z"/>
</svg>
