<?xml version="1.0" encoding="iso-8859-1"?>
<!-- Generator: Adobe Illustrator 15.0.0, SVG Export Plug-In . SVG Version: 6.00 Build 0)  -->
<!DOCTYPE svg PUBLIC "-//W3C//DTD SVG 1.1//EN" "http://www.w3.org/Graphics/SVG/1.1/DTD/svg11.dtd">
<svg version="1.1" id="Layer_1" xmlns="http://www.w3.org/2000/svg" xmlns:xlink="http://www.w3.org/1999/xlink" x="0px" y="0px"
	 width="612px" height="792px" viewBox="0 0 612 792" style="enable-background:new 0 0 612 792;" xml:space="preserve">
<path style="fill:none;" d="M258.155,306.739l-0.117,1.626l-0.081,1.553c-0.041,1.042-0.057,2.085-0.047,3.131
	c0.02,2.092,0.142,4.192,0.37,6.289c0.456,4.195,1.336,8.384,2.641,12.485c2.604,8.203,6.93,16.046,12.733,22.867
	c5.797,6.823,13.069,12.617,21.353,16.818c6.028,3.068,12.595,5.266,19.427,6.513l1.737-1.003c0.256-0.853,0.499-1.708,0.781-2.554
	c0.459-1.381,0.953-2.754,1.48-4.115l0.82-2.04l0.83-1.948l0.025-0.058c2.409-5.653,8.944-8.283,14.598-5.874
	c1.784,0.76,3.265,1.933,4.383,3.357l49.095-28.345c-12.102,0.495-24.434-1.137-36.216-4.978
	c-13.112-4.253-25.52-11.199-36.237-20.388c-10.722-9.18-19.751-20.604-26.274-33.519c-2.446-4.836-4.541-9.877-6.258-15.068
	l-25.074,43.431C258.185,305.521,258.193,306.161,258.155,306.739z"/>
<path style="fill:none;" d="M239.171,317.736c-5.726,2.945-11.884,5.204-18.317,6.621c-9.929,2.202-20.466,2.431-30.808,0.567
	c-10.341-1.856-20.488-5.805-29.613-11.705c-0.823-0.531-1.627-1.096-2.433-1.658V458.34l81.173-140.596
	C239.173,317.741,239.172,317.739,239.171,317.736z"/>
<path style="fill:none;" d="M318.27,432.795c-4.009-10.26-6.039-21.496-5.768-32.885c0.075-3.226,0.354-6.46,0.797-9.686L171.66,472
	h178.72c-5.303-3.355-10.271-7.359-14.718-11.975C328.253,452.356,322.273,443.063,318.27,432.795z"/>
<path style="fill:none;" d="M161.531,290.826c2.488,3.515,5.351,6.813,8.549,9.822c6.392,6.021,14.14,10.869,22.7,14.071
	c8.555,3.207,17.913,4.765,27.384,4.401c6.233-0.23,12.504-1.32,18.607-3.206c-0.046-0.229-0.106-0.454-0.15-0.684
	c-0.26-1.335-0.487-2.679-0.682-4.03l-0.269-2.037l-0.217-1.967l-0.007-0.058c-0.631-5.709,3.485-10.848,9.193-11.479
	c1.726-0.191,3.397,0.058,4.91,0.648l28.059-48.6c-0.142-0.733-0.282-1.467-0.409-2.204c-0.068-0.396-0.127-0.795-0.191-1.193
	c-8.856,4.605-18.442,8.004-28.421,9.951c-13.801,2.713-28.312,2.676-42.427-0.199c-14.115-2.866-27.834-8.572-40.058-16.851
	c-3.5-2.367-6.872-4.95-10.102-7.718v55.758c0.028,0.05,0.052,0.101,0.081,0.15C159.136,287.258,160.287,289.068,161.531,290.826z"
	/>
<path style="fill:none;" d="M414.617,448.187c-9.99-10.85-17.91-23.841-23.075-38.036c-5.175-14.188-7.593-29.579-6.892-45.043
	c0.258-5.772,0.949-11.551,2.067-17.271l-45.879,26.489c-0.082,0.235-0.16,0.471-0.259,0.704c-0.261,0.611-0.605,1.239-0.957,1.778
	l-0.963,1.455l-0.891,1.405c-0.585,0.95-1.148,1.915-1.688,2.895c-1.081,1.96-2.069,3.982-2.958,6.057
	c-1.778,4.149-3.158,8.517-4.095,13.025c-1.879,9.014-1.966,18.597-0.138,28.004c1.822,9.404,5.56,18.624,11.074,26.89
	c3.784,5.689,8.433,10.899,13.748,15.462h92.359C434.412,466.091,423.664,458.04,414.617,448.187z"/>
<path style="fill:none;" d="M266.45,362.127c-7.971-6.517-14.778-14.734-19.781-24.134c-1.259-2.362-2.403-4.798-3.428-7.294
	L166.66,463.34l145.416-83.956c-6.35-0.197-12.746-1.196-18.974-3.062C283.552,373.477,274.419,368.651,266.45,362.127z"/>
<path d="M258.119,304.853c0.002,0.022,0.002,0.046,0.004,0.069l25.074-43.431c-0.574-1.736-1.106-3.489-1.594-5.256
	c-0.776-2.808-1.438-5.654-1.995-8.526l-28.059,48.6C255.041,297.669,257.679,300.87,258.119,304.853z"/>
<path d="M148.46,479.069c0.043,0.096,0.093,0.188,0.143,0.281c-0.019-0.035-0.03-0.071-0.048-0.106
	C148.525,479.185,148.487,479.13,148.46,479.069z"/>
<path d="M150.5,481.33c0.004,0.002,0.008,0.004,0.012,0.006c-0.015-0.008-0.028-0.019-0.042-0.028
	C150.48,481.314,150.489,481.324,150.5,481.33z"/>
<path d="M148.146,478.152c0.022,0.093,0.047,0.185,0.074,0.276c-0.014-0.046-0.02-0.093-0.032-0.14S148.158,478.199,148.146,478.152
	z"/>
<path d="M149.771,480.805c-0.051-0.043-0.103-0.085-0.151-0.13C149.668,480.719,149.719,480.761,149.771,480.805z"/>
<path d="M148.017,477.163c0.003,0.105,0.006,0.209,0.017,0.314c-0.006-0.066-0.001-0.133-0.005-0.199
	C148.026,477.239,148.018,477.202,148.017,477.163z"/>
<path d="M298.52,232.775c0.038,0.432,0.05,0.86,0.035,1.282l-0.004,0.09l-0.034,0.81l20.813-36.049
	c1.381-2.392,0.562-5.449-1.83-6.83c-2.392-1.38-5.45-0.561-6.83,1.83l-17.667,30.601
	C296.019,226.096,298.197,229.127,298.52,232.775z"/>
<path d="M152.098,481.909c0.298,0.055,0.598,0.092,0.897,0.092c0.001,0,0.003,0,0.005,0c-0.3,0-0.597-0.037-0.891-0.09
	C152.106,481.91,152.102,481.91,152.098,481.909z"/>
<path d="M151.328,481.703c0.191,0.068,0.383,0.125,0.577,0.168c-0.003,0-0.006-0.002-0.009-0.002
	C151.703,481.825,151.515,481.769,151.328,481.703z"/>
<path d="M151.079,481.615c0.011,0.005,0.022,0.01,0.034,0.015c-0.009-0.004-0.018-0.009-0.027-0.013
	C151.083,481.616,151.081,481.616,151.079,481.615z"/>
<polygon points="150.953,481.553 150.966,481.56 150.964,481.558 "/>
<path d="M149.032,480.04c-0.03-0.039-0.054-0.083-0.083-0.123C148.979,479.957,149.002,480,149.032,480.04z"/>
<path d="M166.66,463.34l76.581-132.642c-1.013-2.468-1.909-4.994-2.679-7.569c-0.53-1.772-0.979-3.573-1.389-5.385L158,458.34v10
	L166.66,463.34z"/>
<path d="M148.033,477.478c0.011,0.115,0.03,0.228,0.049,0.342c-0.006-0.039-0.006-0.081-0.012-0.12
	C148.06,477.625,148.041,477.552,148.033,477.478z"/>
<path d="M151.328,481.703c-0.071-0.026-0.145-0.043-0.216-0.073C151.183,481.659,151.257,481.677,151.328,481.703z"/>
<path d="M148.221,478.429c0.032,0.108,0.071,0.214,0.111,0.32c-0.016-0.043-0.026-0.09-0.042-0.134
	C148.269,478.552,148.24,478.492,148.221,478.429z"/>
<path d="M314.616,382.847c0.26-1.149,0.559-2.292,0.866-3.432c-1.133,0.017-2.268,0.004-3.405-0.031L166.66,463.34l-5,8.66h10
	l141.639-81.775C313.638,387.756,314.063,385.293,314.616,382.847z"/>
<path d="M340.838,374.325l45.879-26.489c0.379-1.94,0.807-3.875,1.285-5.799c0.556-2.238,1.186-4.462,1.872-6.671
	c-0.563,0.032-1.127,0.054-1.691,0.077l-49.095,28.345C341.369,366.692,342.124,370.646,340.838,374.325z"/>
<polygon points="153,482 153.005,482.001 153.02,482 153.01,482 "/>
<path d="M150.953,481.553c-0.148-0.067-0.296-0.134-0.44-0.217C150.655,481.418,150.804,481.486,150.953,481.553z"/>
<path d="M149.032,480.04c0.126,0.166,0.263,0.319,0.406,0.464c-0.07-0.071-0.125-0.155-0.19-0.23
	C149.179,480.193,149.096,480.123,149.032,480.04z"/>
<path d="M149.771,480.805c0.119,0.101,0.241,0.198,0.368,0.287c-0.074-0.051-0.137-0.116-0.208-0.171
	C149.879,480.88,149.82,480.847,149.771,480.805z"/>
<path d="M150.306,481.201c0.055,0.035,0.107,0.074,0.164,0.107c-0.038-0.022-0.066-0.051-0.103-0.074
	C150.347,481.222,150.325,481.213,150.306,481.201z"/>
<path d="M148.931,479.889c0.007,0.009,0.013,0.019,0.019,0.028c-0.005-0.006-0.008-0.014-0.013-0.02
	C148.935,479.894,148.933,479.891,148.931,479.889z"/>
<path d="M316.172,377.019l-1.737,1.003c0.452,0.083,0.906,0.159,1.36,0.232C315.912,377.841,316.048,377.432,316.172,377.019z"/>
<path d="M149.472,480.542c0.047,0.047,0.098,0.088,0.147,0.133c-0.017-0.015-0.028-0.033-0.044-0.048
	C149.542,480.596,149.503,480.573,149.472,480.542z"/>
<path d="M148.603,479.351c0.026,0.049,0.04,0.101,0.067,0.149c0.038,0.065,0.083,0.121,0.124,0.184
	c-0.04-0.062-0.068-0.13-0.105-0.193C148.661,479.443,148.628,479.399,148.603,479.351z"/>
<path d="M390.22,334.267l-1.244,0.718c0.331,0.026,0.662,0.056,0.993,0.079C390.053,334.798,390.135,334.532,390.22,334.267z"/>
<path d="M416.091,329.051c-0.191,0.423-0.406,0.828-0.641,1.213l-0.051,0.082l-0.897,1.449l21.591-12.465
	c2.392-1.381,3.211-4.438,1.83-6.83c-1.38-2.391-4.439-3.21-6.83-1.83l-15.22,8.788
	C417.338,322.354,417.533,325.862,416.091,329.051z"/>
<path d="M153,482c-0.305,0-0.601-0.038-0.891-0.09C152.403,481.964,152.7,482,153,482c0.003,0,0.007,0,0.01,0H153z"/>
<polygon points="158,472 161.66,472 166.66,463.34 158,468.34 "/>
<path d="M148.937,479.896c0.005,0.006,0.008,0.014,0.013,0.02c0.029,0.04,0.053,0.084,0.083,0.123
	c0.064,0.083,0.146,0.154,0.216,0.234C149.141,480.15,149.032,480.029,148.937,479.896z"/>
<path d="M150.367,481.234c0.037,0.023,0.065,0.052,0.103,0.074c0.015,0.009,0.028,0.02,0.042,0.028
	c0.144,0.083,0.292,0.15,0.44,0.217c0.004,0.002,0.007,0.004,0.011,0.005C150.756,481.465,150.559,481.354,150.367,481.234z"/>
<path d="M148.555,479.244c0.018,0.035,0.029,0.072,0.048,0.106c0.026,0.048,0.059,0.093,0.086,0.14
	C148.642,479.41,148.597,479.328,148.555,479.244z"/>
<path d="M148.028,477.278c0.004,0.066-0.001,0.133,0.005,0.199c0.007,0.075,0.027,0.147,0.037,0.222
	C148.051,477.561,148.036,477.42,148.028,477.278z"/>
<path d="M148.189,478.289c0.012,0.046,0.018,0.094,0.032,0.14c0.019,0.063,0.048,0.124,0.069,0.187
	C148.253,478.508,148.219,478.399,148.189,478.289z"/>
<path d="M149.575,480.626c0.016,0.015,0.028,0.033,0.044,0.048c0.049,0.045,0.101,0.087,0.151,0.13
	c0.05,0.042,0.109,0.075,0.16,0.115C149.81,480.825,149.687,480.732,149.575,480.626z"/>
<path d="M151.085,481.617c0.009,0.004,0.018,0.009,0.027,0.013c0.071,0.029,0.145,0.047,0.216,0.073
	c0.187,0.066,0.375,0.122,0.567,0.166C151.617,481.805,151.344,481.725,151.085,481.617z"/>
<path d="M477,472h-30.013c0.894,0.599,1.794,1.189,2.707,1.762c-1.218-0.562-2.423-1.154-3.623-1.762h-92.359
	c2.413,2.072,4.951,4.024,7.63,5.804c-3.774-1.625-7.44-3.576-10.963-5.804H171.66l-16.16,9.33
	c-0.004,0.002-0.008,0.004-0.012,0.006c-0.14,0.08-0.285,0.146-0.431,0.212c-0.008,0.003-0.016,0.008-0.024,0.012
	c-0.038,0.017-0.072,0.039-0.111,0.055c-0.012,0.005-0.023,0.011-0.035,0.016c-0.063,0.025-0.128,0.042-0.191,0.064
	c-0.198,0.072-0.398,0.131-0.601,0.176c-0.063,0.015-0.127,0.026-0.192,0.038c-0.293,0.054-0.588,0.09-0.882,0.091H477
	c2.761,0,5-2.239,5-5S479.761,472,477,472z"/>
<path d="M154.887,481.63c-0.063,0.026-0.128,0.042-0.191,0.064C154.759,481.672,154.824,481.656,154.887,481.63z"/>
<path d="M155.488,481.336c-0.141,0.081-0.286,0.146-0.431,0.212C155.203,481.482,155.348,481.416,155.488,481.336z"/>
<path d="M157.33,479.5c-0.038,0.065-0.083,0.122-0.124,0.184c-0.044,0.069-0.089,0.137-0.137,0.204
	c-0.157,0.221-0.325,0.43-0.51,0.618c-0.011,0.011-0.02,0.024-0.031,0.035c-0.207,0.206-0.432,0.386-0.667,0.551
	c-0.055,0.038-0.111,0.073-0.167,0.109c-0.069,0.044-0.136,0.094-0.207,0.135c0.004-0.002,0.008-0.003,0.012-0.006l16.16-9.33h-10
	L157.33,479.5z"/>
<path d="M154.887,481.63c0.012-0.005,0.023-0.011,0.035-0.016c-0.002,0.001-0.005,0.001-0.007,0.002
	C154.905,481.621,154.896,481.626,154.887,481.63z"/>
<path d="M154.095,481.871c0.202-0.045,0.402-0.104,0.601-0.176c-0.194,0.07-0.39,0.128-0.591,0.173
	C154.101,481.869,154.098,481.871,154.095,481.871z"/>
<path d="M155.033,481.56c0.008-0.003,0.016-0.008,0.024-0.012c-0.007,0.003-0.013,0.006-0.02,0.01
	C155.035,481.559,155.034,481.56,155.033,481.56z"/>
<path d="M153.89,481.91c-0.29,0.053-0.583,0.089-0.88,0.09h0.01c0.294-0.001,0.589-0.037,0.882-0.091
	C153.898,481.91,153.894,481.91,153.89,481.91z"/>
<path d="M156.528,480.541c-0.204,0.204-0.43,0.385-0.667,0.551C156.097,480.927,156.322,480.747,156.528,480.541z"/>
<path d="M158,477c0,0.99-0.297,1.908-0.793,2.684c0.04-0.063,0.086-0.119,0.124-0.184l4.33-7.5H158V477z"/>
<path d="M154.104,481.868c0.201-0.045,0.397-0.104,0.591-0.173c0.063-0.023,0.128-0.039,0.191-0.064
	c0.01-0.004,0.019-0.01,0.028-0.014C154.655,481.725,154.383,481.805,154.104,481.868z"/>
<path d="M153.01,482c0.296-0.001,0.59-0.037,0.88-0.09c-0.29,0.052-0.585,0.09-0.89,0.09H153.01z"/>
<path d="M157.07,479.888c-0.155,0.218-0.323,0.428-0.51,0.618C156.745,480.318,156.913,480.109,157.07,479.888z"/>
<path d="M155.037,481.558c0.007-0.003,0.013-0.007,0.02-0.01c0.145-0.066,0.29-0.131,0.431-0.212
	c0.071-0.041,0.137-0.091,0.207-0.135C155.485,481.335,155.266,481.456,155.037,481.558z"/>
<path d="M148.033,476.522c0.011-0.115,0.03-0.228,0.049-0.342c0.019-0.113,0.038-0.223,0.064-0.333
	c0.022-0.093,0.047-0.185,0.074-0.276c0.032-0.108,0.071-0.214,0.111-0.32c0.041-0.108,0.081-0.216,0.128-0.32
	c0.043-0.096,0.093-0.188,0.143-0.281c0.026-0.049,0.04-0.101,0.067-0.149l9.33-16.16V311.562c-3.519-2.456-6.87-5.195-10-8.207V477
	c0-0.056,0.015-0.107,0.017-0.163C148.02,476.731,148.023,476.627,148.033,476.522z"/>
<path d="M154.199,277.989c0.368,0.517,0.706,1.11,0.968,1.664l0.703,1.508l0.699,1.425c0.454,0.898,0.934,1.786,1.431,2.666v-55.758
	c-2.411-2.066-4.746-4.233-6.983-6.507c-1.03-1.047-2.025-2.131-3.017-3.22v54.056C150.417,274.396,152.647,275.806,154.199,277.989
	z"/>
<path d="M154.459,193.676c0.249,0.366,0.471,0.742,0.667,1.126l0.041,0.083l1.077,2.138l1.087,2.046
	c0.213,0.389,0.449,0.766,0.668,1.152V153c0-2.761-2.239-5-5-5s-5,2.239-5,5v36.297
	C150.541,189.863,152.882,191.352,154.459,193.676z"/>
<path d="M148.083,476.181c-0.019,0.114-0.039,0.227-0.049,0.342c0.007-0.075,0.027-0.147,0.037-0.222
	C148.076,476.261,148.076,476.22,148.083,476.181z"/>
<path d="M148.937,474.104c0.094-0.132,0.204-0.253,0.311-0.377c0.106-0.121,0.209-0.242,0.327-0.353
	c0.111-0.105,0.234-0.198,0.356-0.293c0.142-0.111,0.283-0.219,0.436-0.314c0.047-0.03,0.085-0.068,0.133-0.096l7.5-4.33v-10
	l-9.33,16.16c-0.028,0.048-0.041,0.101-0.067,0.149c0.026-0.048,0.059-0.093,0.086-0.14
	C148.769,474.371,148.845,474.233,148.937,474.104z"/>
<path d="M148.332,475.251c-0.04,0.106-0.079,0.212-0.111,0.32c0.019-0.063,0.048-0.124,0.069-0.187
	C148.305,475.341,148.315,475.294,148.332,475.251z"/>
<path d="M148.221,475.571c-0.027,0.092-0.052,0.183-0.074,0.276c0.011-0.047,0.03-0.09,0.042-0.137S148.207,475.617,148.221,475.571
	z"/>
<path d="M148.033,476.522c-0.01,0.105-0.013,0.209-0.017,0.314c0.001-0.039,0.009-0.076,0.011-0.115
	C148.032,476.655,148.027,476.589,148.033,476.522z"/>
<path d="M148.603,474.649c-0.05,0.093-0.099,0.185-0.143,0.281c0.027-0.061,0.065-0.116,0.095-0.175
	C148.572,474.721,148.584,474.684,148.603,474.649z"/>
<path d="M149.575,473.374c0.112-0.105,0.235-0.199,0.356-0.293C149.809,473.175,149.686,473.269,149.575,473.374z"/>
<path d="M148.29,475.385c-0.021,0.063-0.05,0.123-0.069,0.187c-0.014,0.046-0.02,0.093-0.032,0.14
	C148.219,475.601,148.253,475.492,148.29,475.385z"/>
<path d="M148.688,474.509c-0.027,0.047-0.06,0.092-0.086,0.14c-0.019,0.035-0.03,0.071-0.048,0.106
	C148.597,474.672,148.642,474.59,148.688,474.509z"/>
<path d="M150.5,472.67c-0.048,0.028-0.086,0.066-0.133,0.096C151.133,472.288,152.03,472,153,472h5v-3.66L150.5,472.67z"/>
<path d="M149.248,473.727c-0.107,0.124-0.217,0.245-0.311,0.377C149.032,473.971,149.141,473.85,149.248,473.727z"/>
<path d="M148.07,476.301c-0.01,0.074-0.03,0.147-0.037,0.222c-0.006,0.066-0.001,0.133-0.005,0.199
	C148.036,476.58,148.051,476.439,148.07,476.301z"/>
<path d="M155.033,481.56c-0.037,0.017-0.073,0.039-0.111,0.055C154.96,481.599,154.995,481.577,155.033,481.56z"/>
<path d="M151.079,481.615c-0.039-0.016-0.075-0.039-0.113-0.055C151.004,481.577,151.04,481.599,151.079,481.615z"/>
<path d="M154.095,481.871c-0.064,0.015-0.128,0.026-0.192,0.038C153.967,481.897,154.031,481.886,154.095,481.871z"/>
<path d="M148.931,479.889c-0.047-0.067-0.093-0.135-0.137-0.205C148.838,479.753,148.883,479.821,148.931,479.889z"/>
<path d="M152.098,481.909c-0.064-0.012-0.129-0.023-0.193-0.038C151.969,481.886,152.033,481.897,152.098,481.909z"/>
<path d="M149.472,480.542c-0.012-0.012-0.022-0.025-0.034-0.038C149.451,480.516,149.46,480.53,149.472,480.542z"/>
<path d="M150.306,481.201c-0.056-0.036-0.113-0.071-0.168-0.11C150.193,481.13,150.25,481.165,150.306,481.201z"/>
<path d="M148.332,478.749c0.041,0.108,0.081,0.216,0.128,0.32c-0.031-0.068-0.051-0.141-0.079-0.21
	C148.366,478.822,148.346,478.786,148.332,478.749z"/>
<path d="M148.017,476.837C148.015,476.893,148,476.944,148,477s0.015,0.107,0.017,0.163c-0.002-0.054,0.004-0.109,0.004-0.163
	S148.015,476.891,148.017,476.837z"/>
<path d="M148.083,477.819c0.019,0.113,0.038,0.223,0.064,0.333c-0.015-0.064-0.02-0.131-0.033-0.196
	C148.104,477.911,148.09,477.865,148.083,477.819z"/>
<path d="M148.146,475.848c-0.026,0.11-0.045,0.22-0.064,0.333c0.008-0.046,0.022-0.091,0.031-0.137
	C148.126,475.979,148.131,475.912,148.146,475.848z"/>
<path d="M148.46,474.931c-0.048,0.104-0.088,0.212-0.128,0.32c0.014-0.037,0.035-0.073,0.049-0.11
	C148.409,475.072,148.429,474.999,148.46,474.931z"/>
<path d="M148.021,477c0,0.054-0.006,0.109-0.004,0.163c0.001,0.039,0.009,0.076,0.011,0.115
	C148.023,477.185,148.021,477.093,148.021,477z"/>
<path d="M148.937,474.104c-0.092,0.129-0.168,0.268-0.249,0.406C148.768,474.372,148.845,474.233,148.937,474.104z"/>
<path d="M149.248,473.727c0.105-0.12,0.209-0.242,0.327-0.353C149.458,473.484,149.354,473.605,149.248,473.727z"/>
<path d="M148.114,477.957c0.013,0.065,0.018,0.131,0.033,0.196c0.011,0.047,0.03,0.09,0.042,0.137
	C148.159,478.179,148.135,478.068,148.114,477.957z"/>
<path d="M150.367,472.766c-0.153,0.095-0.294,0.203-0.436,0.314C150.071,472.97,150.212,472.862,150.367,472.766z"/>
<path d="M150.964,481.558c0,0,0.001,0.001,0.002,0.001c0.038,0.017,0.074,0.039,0.113,0.055c0.002,0.001,0.004,0.001,0.007,0.002
	C151.044,481.6,151.005,481.577,150.964,481.558z"/>
<path d="M148.381,478.859c0.028,0.069,0.048,0.142,0.079,0.21c0.027,0.061,0.065,0.116,0.095,0.175
	C148.491,479.117,148.434,478.989,148.381,478.859z"/>
<path d="M151.896,481.869c0.003,0,0.006,0.002,0.009,0.002c0.064,0.015,0.128,0.026,0.193,0.038c0.004,0,0.008,0,0.012,0.001
	C152.038,481.897,151.967,481.885,151.896,481.869z"/>
<path d="M148.114,476.043c-0.009,0.046-0.023,0.091-0.031,0.137c-0.006,0.039-0.006,0.081-0.012,0.12
	C148.083,476.214,148.097,476.129,148.114,476.043z"/>
<path d="M148.381,475.141c-0.015,0.037-0.035,0.073-0.049,0.11c-0.016,0.043-0.026,0.09-0.042,0.134
	C148.318,475.303,148.349,475.222,148.381,475.141z"/>
<path d="M148.07,477.699c0.006,0.04,0.006,0.081,0.012,0.12c0.008,0.046,0.022,0.091,0.031,0.137
	C148.097,477.871,148.083,477.786,148.07,477.699z"/>
<path d="M157.207,479.684c-0.044,0.069-0.09,0.138-0.137,0.204C157.117,479.821,157.162,479.753,157.207,479.684z"/>
<path d="M156.56,480.506c-0.011,0.011-0.02,0.024-0.031,0.035C156.54,480.53,156.549,480.517,156.56,480.506z"/>
<path d="M148.017,476.837c-0.002,0.054,0.004,0.109,0.004,0.163c0-0.093,0.002-0.185,0.007-0.278
	C148.026,476.761,148.018,476.798,148.017,476.837z"/>
<path d="M155.861,481.092c-0.055,0.038-0.111,0.073-0.167,0.109C155.75,481.165,155.807,481.13,155.861,481.092z"/>
<path d="M149.931,480.92c0.071,0.056,0.134,0.12,0.208,0.171c0.055,0.039,0.112,0.074,0.168,0.11
	c0.019,0.012,0.041,0.021,0.061,0.033C150.212,481.138,150.071,481.03,149.931,480.92z"/>
<path d="M153.89,481.91c0.004,0,0.008,0,0.012-0.001c0.064-0.012,0.128-0.023,0.192-0.038c0.003,0,0.006-0.002,0.01-0.003
	C154.033,481.885,153.962,481.897,153.89,481.91z"/>
<path d="M148.189,475.711c-0.012,0.046-0.031,0.09-0.042,0.137c-0.015,0.064-0.02,0.131-0.033,0.196
	C148.135,475.932,148.159,475.821,148.189,475.711z"/>
<path d="M148.555,474.756c-0.03,0.059-0.067,0.114-0.095,0.175c-0.031,0.068-0.051,0.141-0.079,0.21
	C148.434,475.011,148.491,474.883,148.555,474.756z"/>
<path d="M149.248,480.273c0.066,0.075,0.121,0.16,0.19,0.23c0.012,0.012,0.022,0.026,0.034,0.038
	c0.031,0.031,0.07,0.054,0.103,0.085C149.457,480.515,149.354,480.394,149.248,480.273z"/>
<path d="M148.688,479.491c0.037,0.063,0.065,0.132,0.105,0.193c0.044,0.069,0.09,0.138,0.137,0.205
	c0.002,0.002,0.004,0.005,0.006,0.008C148.845,479.767,148.768,479.628,148.688,479.491z"/>
<path d="M148.29,478.615c0.015,0.044,0.025,0.09,0.042,0.134c0.014,0.037,0.035,0.073,0.049,0.11
	C148.349,478.778,148.318,478.697,148.29,478.615z"/>
<path d="M154.915,481.617c0.002-0.001,0.005-0.001,0.007-0.002c0.038-0.016,0.074-0.038,0.111-0.055
	c0.001,0,0.002-0.001,0.004-0.002C154.995,481.576,154.956,481.6,154.915,481.617z"/>
<path d="M154.915,481.617c0.042-0.017,0.081-0.041,0.122-0.059c0.229-0.103,0.448-0.223,0.658-0.357
	c0.056-0.036,0.112-0.071,0.167-0.109c0.237-0.166,0.463-0.347,0.667-0.551c0.011-0.011,0.021-0.024,0.031-0.035
	c0.188-0.19,0.355-0.399,0.51-0.618c0.047-0.066,0.092-0.135,0.137-0.204C157.703,478.908,158,477.99,158,477v-5h-5
	c-0.97,0-1.867,0.288-2.633,0.766c-0.154,0.096-0.296,0.204-0.436,0.314c-0.121,0.095-0.244,0.188-0.356,0.293
	c-0.118,0.111-0.221,0.233-0.327,0.353c-0.107,0.123-0.216,0.244-0.311,0.377c-0.092,0.13-0.169,0.269-0.249,0.406
	c-0.047,0.081-0.091,0.163-0.134,0.247c-0.064,0.127-0.121,0.255-0.174,0.385c-0.032,0.081-0.063,0.162-0.091,0.244
	c-0.037,0.107-0.071,0.216-0.101,0.326s-0.054,0.221-0.075,0.333c-0.017,0.085-0.031,0.171-0.043,0.257
	c-0.02,0.139-0.034,0.279-0.042,0.421c-0.005,0.093-0.007,0.186-0.007,0.278s0.002,0.185,0.007,0.278
	c0.008,0.142,0.023,0.282,0.042,0.421c0.013,0.086,0.026,0.172,0.043,0.257c0.021,0.111,0.045,0.222,0.075,0.333
	s0.064,0.219,0.101,0.326c0.028,0.082,0.059,0.163,0.091,0.244c0.053,0.13,0.11,0.258,0.174,0.385
	c0.042,0.084,0.087,0.166,0.134,0.247c0.079,0.137,0.156,0.276,0.249,0.406c0.095,0.133,0.204,0.254,0.311,0.377
	c0.105,0.12,0.209,0.242,0.327,0.353c0.112,0.105,0.235,0.199,0.356,0.293c0.14,0.11,0.282,0.218,0.436,0.314
	c0.192,0.12,0.389,0.231,0.597,0.324c0.041,0.019,0.08,0.042,0.122,0.059c0.259,0.108,0.531,0.188,0.81,0.252
	c0.071,0.016,0.143,0.029,0.214,0.042c0.29,0.052,0.585,0.09,0.891,0.09c0.305,0,0.601-0.038,0.89-0.09
	c0.072-0.013,0.143-0.025,0.214-0.042C154.383,481.805,154.655,481.725,154.915,481.617z"/>
<path d="M168.102,237.212c12.224,8.279,25.943,13.985,40.058,16.851c14.115,2.875,28.625,2.912,42.427,0.199
	c9.979-1.947,19.564-5.346,28.421-9.951c-0.08-0.49-0.163-0.979-0.236-1.47c-9.351,3.463-19.109,5.557-28.875,6.184
	c-13.344,0.876-26.675-0.947-39.002-5.167c-12.333-4.212-23.654-10.816-33.145-19.218c-4.749-4.198-9.042-8.839-12.816-13.824
	c-1.887-2.492-3.645-5.071-5.268-7.721c-0.579-0.946-1.121-1.911-1.666-2.875v29.273
	C161.23,232.263,164.602,234.845,168.102,237.212z"/>
<path d="M158,229.494v-29.273c-0.219-0.386-0.455-0.763-0.668-1.152l-1.087-2.046l-1.077-2.138l-0.041-0.083
	c-0.197-0.384-0.419-0.76-0.667-1.126c-1.577-2.325-3.918-3.813-6.459-4.379v30.47c0.991,1.088,1.986,2.173,3.017,3.22
	C153.254,225.261,155.589,227.428,158,229.494z"/>
<path d="M190.046,324.924c10.342,1.863,20.879,1.634,30.808-0.567c6.433-1.417,12.591-3.676,18.317-6.621
	c-0.137-0.606-0.277-1.212-0.4-1.822c-6.103,1.885-12.374,2.976-18.607,3.206c-9.471,0.364-18.829-1.194-27.384-4.401
	c-8.56-3.203-16.308-8.05-22.7-14.071c-3.198-3.009-6.061-6.308-8.549-9.822c-1.244-1.757-2.395-3.568-3.451-5.423
	c-0.028-0.049-0.053-0.101-0.081-0.15v26.31c0.806,0.563,1.61,1.127,2.433,1.658C169.558,319.119,179.705,323.068,190.046,324.924z"
	/>
<path d="M158,285.252c-0.497-0.879-0.977-1.768-1.431-2.666l-0.699-1.425l-0.703-1.508c-0.262-0.554-0.601-1.147-0.968-1.664
	c-1.552-2.184-3.782-3.593-6.199-4.166v29.531c3.13,3.012,6.481,5.751,10,8.207V285.252z"/>
<path d="M384.65,365.107c-0.701,15.464,1.717,30.855,6.892,45.043c5.166,14.194,13.085,27.186,23.075,38.036
	c9.047,9.854,19.795,17.905,31.454,23.813h0.916c-11.034-7.393-20.594-16.701-28.066-27.301
	c-8.097-11.449-13.773-24.365-16.758-37.697c-2.995-13.333-3.296-27.073-0.987-40.162c1.149-6.545,2.946-12.928,5.333-19.033
	c1.194-3.053,2.536-6.037,4.015-8.94c0.739-1.453,1.514-2.884,2.321-4.295l1.232-2.093l0.424-0.685l-27.784,16.041
	C385.599,353.557,384.908,359.335,384.65,365.107z"/>
<path d="M392.263,335.202c-0.795,0.064-1.591,0.118-2.388,0.164c-0.687,2.209-1.316,4.433-1.872,6.671
	c-0.478,1.925-0.906,3.859-1.285,5.799l27.784-16.041l0.897-1.449l0.051-0.082c0.235-0.386,0.45-0.791,0.641-1.213
	c1.442-3.188,1.248-6.697-0.219-9.593l-25.651,14.81c-0.085,0.265-0.167,0.531-0.251,0.797
	C390.733,335.118,391.497,335.166,392.263,335.202z"/>
<path d="M449.694,473.762c-0.913-0.573-1.813-1.164-2.707-1.762h-0.916C447.271,472.608,448.476,473.2,449.694,473.762z"/>
<path d="M339.965,456.538c-5.515-8.266-9.252-17.486-11.074-26.89c-1.828-9.407-1.741-18.99,0.138-28.004
	c0.937-4.508,2.316-8.876,4.095-13.025c0.889-2.075,1.877-4.097,2.958-6.057c0.54-0.98,1.103-1.945,1.688-2.895l0.891-1.405
	l0.963-1.455c0.351-0.539,0.696-1.167,0.957-1.778c0.099-0.232,0.177-0.469,0.259-0.704l-27.539,15.899
	c-0.442,3.225-0.722,6.46-0.797,9.686c-0.271,11.39,1.759,22.625,5.768,32.885c4.003,10.267,9.983,19.561,17.392,27.229
	c4.447,4.616,9.415,8.62,14.718,11.975h3.333C348.397,467.437,343.749,462.227,339.965,456.538z"/>
<path d="M339.089,363.788l-22.917,13.231c-0.124,0.413-0.26,0.822-0.377,1.235c2.105,0.343,4.231,0.609,6.376,0.767
	c-2.212,0.236-4.446,0.36-6.689,0.394c-0.307,1.141-0.606,2.283-0.866,3.432c-0.553,2.446-0.978,4.909-1.316,7.377l27.539-15.899
	C342.124,370.646,341.369,366.692,339.089,363.788z"/>
<path d="M361.343,477.804c-2.68-1.78-5.217-3.732-7.63-5.804h-3.333C353.902,474.229,357.568,476.179,361.343,477.804z"/>
<path d="M279.608,247.708l3.138-5.435c-1.23,0.704-2.478,1.382-3.738,2.038c0.064,0.397,0.123,0.796,0.191,1.193
	C279.327,246.241,279.467,246.975,279.608,247.708z"/>
<path d="M289.456,276.559c6.523,12.915,15.552,24.339,26.274,33.519c10.717,9.189,23.125,16.135,36.237,20.388
	c11.783,3.841,24.114,5.472,36.216,4.978l0.792-0.458c-12.28-0.984-24.237-4.168-35.104-9.333
	c-11.844-5.609-22.392-13.523-30.938-23.01c-8.555-9.484-15.103-20.534-19.226-32.251c-2.066-5.857-3.532-11.878-4.387-17.946
	c-0.428-3.034-0.705-6.079-0.833-9.122c-0.063-1.522-0.089-3.042-0.079-4.562l0.043-2.27l0.063-1.534l-15.319,26.533
	C284.915,266.681,287.01,271.723,289.456,276.559z"/>
<path d="M288.867,238.492c-1.99,1.329-4.034,2.587-6.121,3.781l-3.138,5.435c0.557,2.872,1.219,5.718,1.995,8.526
	c0.488,1.768,1.021,3.521,1.594,5.256l15.319-26.533l0.034-0.81l0.004-0.09c0.015-0.422,0.003-0.851-0.035-1.282
	c-0.323-3.647-2.5-6.679-5.517-8.266l-9.495,16.445C285.313,240.184,287.102,239.367,288.867,238.492z"/>
<path d="M389.875,335.366c0.031-0.101,0.063-0.201,0.095-0.301c-0.332-0.023-0.662-0.053-0.993-0.079l-0.792,0.458
	C388.748,335.42,389.312,335.398,389.875,335.366z"/>
<path d="M282.746,242.273l0.762-1.319c-1.565,0.668-3.145,1.298-4.736,1.887c0.073,0.491,0.156,0.98,0.236,1.47
	C280.269,243.655,281.516,242.978,282.746,242.273z"/>
<path d="M283.508,240.954l-0.762,1.319c2.086-1.194,4.13-2.453,6.121-3.781C287.102,239.367,285.313,240.184,283.508,240.954z"/>
<path d="M389.969,335.064c-0.032,0.101-0.063,0.201-0.095,0.301c0.797-0.046,1.593-0.099,2.388-0.164
	C391.497,335.166,390.733,335.118,389.969,335.064z"/>
<polygon points="239.171,317.736 239.173,317.744 239.181,317.731 "/>
<path d="M295.008,371.509c-8.284-4.202-15.556-9.996-21.353-16.818c-5.804-6.821-10.129-14.664-12.733-22.867
	c-1.305-4.101-2.185-8.29-2.641-12.485c-0.228-2.097-0.35-4.197-0.37-6.289c-0.01-1.046,0.006-2.09,0.047-3.131l0.081-1.553
	l0.117-1.626c0.038-0.578,0.03-1.219-0.032-1.818l-14.882,25.777c1.024,2.496,2.169,4.933,3.428,7.294
	c5.003,9.4,11.81,17.618,19.781,24.134c7.969,6.524,17.102,11.35,26.652,14.195c6.228,1.865,12.624,2.864,18.974,3.062l2.358-1.362
	C307.603,376.775,301.036,374.578,295.008,371.509z"/>
<path d="M258.119,304.853c-0.44-3.982-3.078-7.184-6.57-8.545l-10.987,19.03c2.555-0.861,5.079-1.851,7.549-2.997
	c-2.826,1.992-5.817,3.789-8.931,5.391l-0.007,0.013c0.411,1.812,0.859,3.613,1.389,5.385c0.77,2.575,1.666,5.101,2.679,7.569
	l14.882-25.777C258.121,304.899,258.122,304.875,258.119,304.853z"/>
<path d="M314.435,378.022l-2.358,1.362c1.137,0.035,2.272,0.048,3.405,0.031c0.104-0.387,0.204-0.774,0.313-1.161
	C315.34,378.181,314.887,378.104,314.435,378.022z"/>
<path d="M240.562,315.338c-0.595,0.201-1.192,0.392-1.791,0.577c0.124,0.61,0.263,1.215,0.4,1.822
	c0.003-0.002,0.006-0.003,0.009-0.005L240.562,315.338z"/>
<path d="M248.111,312.341c-2.47,1.146-4.994,2.136-7.549,2.997l-1.381,2.394C242.294,316.129,245.285,314.333,248.111,312.341z"/>
<path d="M315.794,378.254c-0.109,0.386-0.209,0.773-0.313,1.161c2.243-0.034,4.477-0.158,6.689-0.394
	C320.025,378.864,317.9,378.598,315.794,378.254z"/>
</svg>
