<?xml version="1.0" encoding="utf-8"?>
<!-- Generator: Adobe Illustrator 15.0.0, SVG Export Plug-In . SVG Version: 6.00 Build 0)  -->
<!DOCTYPE svg PUBLIC "-//W3C//DTD SVG 1.1//EN" "http://www.w3.org/Graphics/SVG/1.1/DTD/svg11.dtd">
<svg version="1.1" id="Layer_1" xmlns="http://www.w3.org/2000/svg" xmlns:xlink="http://www.w3.org/1999/xlink" x="0px" y="0px"
	 width="283.464px" height="283.464px" viewBox="0 0 283.464 283.464" enable-background="new 0 0 283.464 283.464"
	 xml:space="preserve">
<path id="path3708" fill="#010101" d="M52.275,138.459c-3.216,23.416,2.549,47.977,18.756,67.679
	c27.081,32.911,77.853,41.073,111.529,12.165c27.208-23.357,33.619-66.639,8.107-94.543c-19.637-21.494-55.271-26.374-77.306-4.061
	c-7.875,7.984-12.473,18.615-12.926,29.659c-0.457,11.052,3.611,22.988,13.434,30.924c6.24,5.043,14.115,7.509,22.31,7.1
	c8.187-0.414,17.65-4.946,21.798-14.195c3.031-6.787,1.972-11.356-0.508-16.983c-1.247-2.813-3.271-6.367-7.861-8.368
	c-4.59-2.001-10.384-0.82-13.938,1.522c-2.698,1.668-4.51,4.438-4.953,7.578c-0.442,3.14,0.537,6.302,2.668,8.651
	c-2.183-0.333-4.83-0.769-6.084-1.784c-4.235-3.423-5.801-7.904-5.577-13.43c0.225-5.525,2.922-11.748,6.846-15.714
	c12.582-12.756,34.336-9.63,46.381,3.546c16.737,18.303,12.292,47.89-6.331,63.875c-24.002,20.605-61.515,14.753-81.37-9.376
	c-24.419-29.685-16.744-74.92,12.93-98.604c19.797-15.794,46.976-20.885,71.479-13.938c5.664,1.61,11.566-1.683,13.176-7.353
	c1.61-5.671-1.683-11.574-7.346-13.184c-31-8.782-65.014-2.582-90.489,17.752C67.699,92.774,55.495,115.044,52.275,138.459z"/>
</svg>
