<?xml version="1.0" encoding="iso-8859-1"?>
<!-- Generator: Adobe Illustrator 15.0.0, SVG Export Plug-In . SVG Version: 6.00 Build 0)  -->
<!DOCTYPE svg PUBLIC "-//W3C//DTD SVG 1.1//EN" "http://www.w3.org/Graphics/SVG/1.1/DTD/svg11.dtd">
<svg version="1.1" id="Layer_1" xmlns="http://www.w3.org/2000/svg" xmlns:xlink="http://www.w3.org/1999/xlink" x="0px" y="0px"
	 width="612px" height="792px" viewBox="0 0 612 792" style="enable-background:new 0 0 612 792;" xml:space="preserve">
<path d="M327.863,387.248c7.059-7.707,11.281-15.653,11.281-25.873c0-19.444-15.707-35.215-35.125-35.328c0-0.002,0-0.003,0-0.005
	c-0.035,0-0.069,0.002-0.104,0.002s-0.069-0.002-0.104-0.002c0,0.002,0,0.003,0,0.005c-19.417,0.113-35.125,15.884-35.125,35.328
	c0,10.22,4.222,18.166,11.281,25.873s-6.447,9.543-6.447,18.297v0.659c0,4.697,3.807,8.504,8.504,8.504h21.787h0.209h21.787
	c4.697,0,8.504-3.807,8.504-8.504v-0.659C334.31,396.792,320.804,394.955,327.863,387.248z"/>
<path d="M361.165,441.75v-12.246c0-4.697-3.807-8.504-8.504-8.504h-97.492c-4.697,0-8.504,3.807-8.504,8.504v12.246H361.165z"/>
<rect x="252.79" y="446.25" width="102.25" height="11"/>
</svg>
