<?xml version="1.0" encoding="utf-8"?>
<!-- Generator: Adobe Illustrator 15.0.0, SVG Export Plug-In . SVG Version: 6.00 Build 0)  -->
<!DOCTYPE svg PUBLIC "-//W3C//DTD SVG 1.1//EN" "http://www.w3.org/Graphics/SVG/1.1/DTD/svg11.dtd">
<svg version="1.1" id="Layer_2" xmlns="http://www.w3.org/2000/svg" xmlns:xlink="http://www.w3.org/1999/xlink" x="0px" y="0px"
	 width="162px" height="148px" viewBox="0 0 162 148" enable-background="new 0 0 162 148" xml:space="preserve">
<g>
	<path fill-rule="evenodd" clip-rule="evenodd" d="M-237.774-554.116c-0.195,0.324-0.341,0.599-0.336,0.748
		c0.006,0.179,0.236,0.569,0.553,1.038C-237.632-552.94-237.704-553.534-237.774-554.116z"/>
	<path fill-rule="evenodd" clip-rule="evenodd" d="M-300.314-553.078c0.016-0.191-0.124-0.482-0.314-0.811
		c-0.04,0.52-0.08,1.048-0.121,1.587C-300.498-552.655-300.326-552.938-300.314-553.078z"/>
</g>
<path fill="#010101" d="M127.614,42.7c-1.368-1.092-13.399-6.562-20.098-9.844c-6.7-3.28-8.203-7.929-8.203-7.929
	s-0.027,2.787-0.415,4.785c-0.601,3.126-1.935,23.801-2.563,29.02c-0.437,3.635-1.032,7.365-1.706,11.01
	c-1.074,1.677-2.203,3.244-3.359,4.685c0.378-13.89-1.218-25.805-3.866-36.667c0.503-0.785,1.195-1.382,1.871-1.996
	c2.089,1.57,3.395,3.922,4.49,6.485c-0.015-2.006-0.939-4.134-1.871-5.986c-1.38-2.745-2.263-5.641-4.989-6.86
	c3.135-0.988,5.876-2.492,8.605-4.115c0.796-0.474,2.013-0.796,2.245-1.871c-0.164-0.044-0.196-0.22-0.374-0.25
	c0.043-0.007,0.094-0.003,0.144,0c-5.924-4.094-20.934-4.093-24.057,1.212l-2.05,3.282c0,0-1.914,2.188-9.023,5.741
	c-7.109,3.554-16.952,7.11-17.636,8.478c-0.684,1.367,0,76.666,0,76.666h11.349v9.901h61.525v-9.901h9.981
	C127.614,118.546,128.98,43.793,127.614,42.7z M73.81,23.916c0.538-0.335,1.232-0.514,1.747-0.873
	c0.296,0.037-0.139,0.337-0.25,0.374c0.96,1.675,3.195,2.408,4.989,3.367c1.806,0.967,3.679,2.067,5.862,2.495
	c-3.882,2.77-5.564,7.739-6.984,12.971c1.304-2.396,2.446-4.954,4.614-6.485c0.687,0.561,1.257,1.238,1.871,1.871
	c-2.592,10.919-4.261,22.761-3.866,36.667c-0.247,0.209-0.634-0.3-0.936-0.731c-3.929-20.278-3.872-38.618-4.311-40.373
	c-0.504-2.019-2.25-6.657-2.862-8.26C73.757,24.584,73.806,24.241,73.81,23.916z"/>
</svg>
