<?xml version="1.0" encoding="utf-8"?>
<!-- Generator: Adobe Illustrator 15.0.0, SVG Export Plug-In . SVG Version: 6.00 Build 0)  -->
<!DOCTYPE svg PUBLIC "-//W3C//DTD SVG 1.1//EN" "http://www.w3.org/Graphics/SVG/1.1/DTD/svg11.dtd">
<svg version="1.1" id="Layer_1" xmlns="http://www.w3.org/2000/svg" xmlns:xlink="http://www.w3.org/1999/xlink" x="0px" y="0px"
	 width="283.464px" height="283.464px" viewBox="0 0 283.464 283.464" enable-background="new 0 0 283.464 283.464"
	 xml:space="preserve">
<polygon points="102.778,161.419 91.111,149.752 98.653,142.21 106.078,158.12 "/>
<polygon points="110.203,168.844 121.87,180.511 129.413,172.969 113.502,165.544 "/>
<polygon points="89.874,187.406 109.319,167.96 103.662,162.303 84.217,181.749 75.731,187.406 84.217,195.891 "/>
<polygon points="183.007,171.844 171.34,183.512 163.798,175.969 179.708,168.544 "/>
<polygon points="190.432,164.42 202.099,152.752 194.557,145.21 187.132,161.12 "/>
<polygon points="157.776,124.944 190.401,95.835 197.236,74.387 175.787,81.222 147.277,113.176 "/>
<polygon points="132.695,129.52 105.547,159.946 111.676,166.075 142.671,138.421 "/>
<g>
	<polygon points="187.663,162.946 181.534,169.075 102.81,98.835 95.975,77.386 117.423,84.222 	"/>
	<polygon points="208.994,184.749 189.548,165.304 183.891,170.96 203.337,190.406 208.994,198.891 217.479,190.406 	"/>
</g>
</svg>
