<?xml version="1.0" encoding="iso-8859-1"?>
<!-- Generator: Adobe Illustrator 15.0.0, SVG Export Plug-In . SVG Version: 6.00 Build 0)  -->
<!DOCTYPE svg PUBLIC "-//W3C//DTD SVG 1.1//EN" "http://www.w3.org/Graphics/SVG/1.1/DTD/svg11.dtd">
<svg version="1.1" id="Layer_1" xmlns="http://www.w3.org/2000/svg" xmlns:xlink="http://www.w3.org/1999/xlink" x="0px" y="0px"
	 width="612px" height="792px" viewBox="0 0 612 792" style="enable-background:new 0 0 612 792;" xml:space="preserve">
<g>
	<polygon points="180.998,280.552 185.185,273.3 176.811,273.3 	"/>
	<polygon points="176.811,311.804 185.185,311.804 180.998,304.552 	"/>
	<polygon points="209.72,254.804 205.97,261.3 213.471,261.3 	"/>
	<polygon points="209.72,330.3 213.471,323.804 205.97,323.804 	"/>
	<path d="M253.215,227.791v-34.112l-43.495-25.112l-43.496,25.112v34.112l-33.751,30v114.493h154.493V257.791L253.215,227.791z
		 M263.413,323.804h-36.086L209.72,354.3l-17.607-30.496l-36.087,0l18.043-31.252L156.026,261.3h36.087l17.607-30.496l17.607,30.496
		h36.086l-18.043,31.252L263.413,323.804z"/>
	<polygon points="238.442,280.552 242.629,273.3 234.255,273.3 	"/>
	<polygon points="199.042,273.3 187.926,292.552 199.042,311.804 220.399,311.804 231.514,292.552 220.399,273.3 	"/>
	<polygon points="234.255,311.804 242.629,311.804 238.442,304.552 	"/>
</g>
</svg>
