<?xml version="1.0" encoding="utf-8"?>
<!-- Generator: Adobe Illustrator 15.0.0, SVG Export Plug-In . SVG Version: 6.00 Build 0)  -->
<!DOCTYPE svg PUBLIC "-//W3C//DTD SVG 1.1//EN" "http://www.w3.org/Graphics/SVG/1.1/DTD/svg11.dtd">
<svg version="1.1" id="Layer_1" xmlns="http://www.w3.org/2000/svg" xmlns:xlink="http://www.w3.org/1999/xlink" x="0px" y="0px"
	 width="283.464px" height="283.464px" viewBox="0 0 283.464 283.464" enable-background="new 0 0 283.464 283.464"
	 xml:space="preserve">
<g>
	<polygon points="124.073,145.534 36.073,145.534 36.073,233.534 60.746,208.861 97.986,246.103 136.642,207.447 99.401,170.207 	
		"/>
	<polygon points="136.641,123.534 136.641,35.534 48.641,35.534 73.314,60.207 36.073,97.447 74.728,136.103 111.969,98.862 	"/>
	<polygon points="158.968,136.103 246.968,136.103 246.968,48.103 222.295,72.776 185.055,35.535 146.399,74.19 183.64,111.431 	"/>
	<polygon points="146.399,158.103 146.399,246.103 234.399,246.103 209.727,221.43 246.968,184.189 208.313,145.534 
		171.072,182.774 	"/>
</g>
</svg>
