<?xml version="1.0" encoding="iso-8859-1"?>
<!-- Generator: Adobe Illustrator 15.0.0, SVG Export Plug-In . SVG Version: 6.00 Build 0)  -->
<!DOCTYPE svg PUBLIC "-//W3C//DTD SVG 1.1//EN" "http://www.w3.org/Graphics/SVG/1.1/DTD/svg11.dtd">
<svg version="1.1" id="Layer_1" xmlns="http://www.w3.org/2000/svg" xmlns:xlink="http://www.w3.org/1999/xlink" x="0px" y="0px"
	 width="612px" height="792px" viewBox="0 0 612 792" style="enable-background:new 0 0 612 792;" xml:space="preserve">
<path style="fill:none;" d="M341.667,386.917c0-5.56-4.523-10.083-10.083-10.083c-5.56,0-10.083,4.523-10.083,10.083
	c0,5.56,4.523,10.083,10.083,10.083C337.143,397,341.667,392.477,341.667,386.917z"/>
<path style="fill:none;" d="M290.833,386.917c0-5.56-4.523-10.083-10.083-10.083c-5.56,0-10.083,4.523-10.083,10.083
	c0,5.56,4.523,10.083,10.083,10.083C286.31,397,290.833,392.477,290.833,386.917z"/>
<path d="M314.243,397H298.09c-3.485,5.969-9.944,10-17.34,10h50.833C324.187,407,317.728,402.969,314.243,397z"/>
<path d="M280.75,397c-5.56,0-10.083-4.523-10.083-10.083c0-5.56,4.523-10.083,10.083-10.083c5.56,0,10.083,4.523,10.083,10.083
	C290.833,392.477,286.31,397,280.75,397h17.34c1.732-2.968,2.743-6.406,2.743-10.083c0-11.074-9.009-20.083-20.083-20.083
	c-11.074,0-20.083,9.009-20.083,20.083c0,5.063,1.897,9.68,5,13.216V397H280.75z"/>
<path d="M298.09,397h-17.34h-15.083v3.133c3.684,4.199,9.072,6.867,15.083,6.867C288.146,407,294.605,402.969,298.09,397z"/>
<path d="M321.5,386.917c0-5.56,4.523-10.083,10.083-10.083c5.56,0,10.083,4.523,10.083,10.083c0,5.56-4.523,10.083-10.083,10.083
	h15.083v3.133c3.103-3.536,5-8.154,5-13.216c0-11.074-9.009-20.083-20.083-20.083c-11.074,0-20.083,9.009-20.083,20.083
	c0,3.677,1.01,7.115,2.743,10.083h17.341C326.023,397,321.5,392.477,321.5,386.917z"/>
<path d="M346.667,400.133V397h-15.083h-17.341c3.485,5.969,9.944,10,17.341,10C337.595,407,342.983,404.332,346.667,400.133z"/>
</svg>
