<?xml version="1.0" encoding="utf-8"?>
<!-- Generator: Adobe Illustrator 15.0.0, SVG Export Plug-In . SVG Version: 6.00 Build 0)  -->
<!DOCTYPE svg PUBLIC "-//W3C//DTD SVG 1.1//EN" "http://www.w3.org/Graphics/SVG/1.1/DTD/svg11.dtd">
<svg version="1.1" id="Layer_1" xmlns="http://www.w3.org/2000/svg" xmlns:xlink="http://www.w3.org/1999/xlink" x="0px" y="0px"
	 width="283.464px" height="283.464px" viewBox="0 0 283.464 283.464" enable-background="new 0 0 283.464 283.464"
	 xml:space="preserve">
<path fill-rule="evenodd" clip-rule="evenodd" d="M57.15,89.697c0,63.429,20.408,114.849,45.582,114.849
	s45.582-51.419,45.582-114.849C101.839,89.697,92.901,89.697,57.15,89.697z M67.467,116.063c0,0,12.65,1.085,19.49,7.928
	c6.845,6.841,8.479,13.656,5.288,16.847c-3.193,3.193-10.008,1.559-16.849-5.286C68.555,128.712,67.467,116.063,67.467,116.063z
	 M102.732,180.535c-11.595,0-20.997-7.929-20.997-17.706c0-1.403,0.215-2.765,0.58-4.074c2.188,7.812,10.486,13.632,20.417,13.632
	c9.931,0,18.229-5.82,20.417-13.632c0.367,1.31,0.58,2.671,0.58,4.074C123.729,172.606,114.331,180.535,102.732,180.535z
	 M113.22,140.839c-3.191-3.191-1.557-10.006,5.288-16.847c6.841-6.843,19.49-7.928,19.49-7.928s-1.084,12.648-7.929,19.49
	C123.228,142.398,116.413,144.032,113.22,140.839z"/>
<path fill-rule="evenodd" clip-rule="evenodd" d="M152.024,89.697c0,63.429,20.408,114.849,45.582,114.849
	s45.582-51.419,45.582-114.849C196.712,89.697,187.774,89.697,152.024,89.697z M203.311,117.271
	c2.479-3.956,5.927-10.456,14.667-4.977c8.742,5.478,10.983,22.819,10.983,22.819S200.83,121.225,203.311,117.271z M176.857,112.294
	c8.739-5.479,12.188,1.021,14.667,4.977c2.479,3.954-25.65,17.843-25.65,17.843S168.115,117.772,176.857,112.294z M218.473,175.722
	c-2.255-8.056-10.814-14.06-21.056-14.06s-18.801,6.003-21.056,14.06c-0.375-1.351-0.599-2.753-0.599-4.202
	c0-10.084,9.697-18.259,21.655-18.259c11.961,0,21.653,8.175,21.653,18.259C219.07,172.969,218.852,174.371,218.473,175.722z"/>
</svg>
