<?xml version="1.0" encoding="utf-8"?>
<!-- Generator: Adobe Illustrator 15.0.0, SVG Export Plug-In . SVG Version: 6.00 Build 0)  -->
<!DOCTYPE svg PUBLIC "-//W3C//DTD SVG 1.1//EN" "http://www.w3.org/Graphics/SVG/1.1/DTD/svg11.dtd">
<svg version="1.1" id="Layer_2" xmlns="http://www.w3.org/2000/svg" xmlns:xlink="http://www.w3.org/1999/xlink" x="0px" y="0px"
	 width="162px" height="148px" viewBox="0 0 162 148" enable-background="new 0 0 162 148" xml:space="preserve">
<g>
	<path fill-rule="evenodd" clip-rule="evenodd" d="M-237.774-554.116c-0.195,0.324-0.341,0.599-0.336,0.748
		c0.006,0.179,0.236,0.569,0.553,1.038C-237.632-552.94-237.704-553.534-237.774-554.116z"/>
	<path fill-rule="evenodd" clip-rule="evenodd" d="M-300.314-553.078c0.016-0.191-0.124-0.482-0.314-0.811
		c-0.04,0.52-0.08,1.048-0.121,1.587C-300.498-552.655-300.326-552.938-300.314-553.078z"/>
</g>
<path fill="#010101" d="M106.602,29.534c0-9.693-13.021-17.552-29.084-17.552c-16.063,0-29.084,7.858-29.084,17.552
	c0,7.627,8.063,14.116,19.325,16.537l4.966,6.602h-0.041L61.21,125.745l16.437,14.785l16.438-14.785L82.612,52.673h-0.301
	l4.965-6.602C98.539,43.65,106.602,37.162,106.602,29.534z M69.871,42.596c-0.93,0-1.783,0.372-2.284,0.969
	c-7.566-2.567-12.77-7.915-12.77-14.098c0-8.683,10.258-15.722,22.912-15.722c12.655,0,22.912,7.039,22.912,15.722
	c0,6.272-5.354,11.685-13.097,14.208c-0.007-0.01-0.009-0.021-0.017-0.032c-0.488-0.648-1.389-1.047-2.363-1.047H69.871z"/>
</svg>
