<?xml version="1.0" encoding="iso-8859-1"?>
<!-- Generator: Adobe Illustrator 15.0.0, SVG Export Plug-In . SVG Version: 6.00 Build 0)  -->
<!DOCTYPE svg PUBLIC "-//W3C//DTD SVG 1.1//EN" "http://www.w3.org/Graphics/SVG/1.1/DTD/svg11.dtd">
<svg version="1.1" id="Layer_1" xmlns="http://www.w3.org/2000/svg" xmlns:xlink="http://www.w3.org/1999/xlink" x="0px" y="0px"
	 width="612px" height="792px" viewBox="0 0 612 792" style="enable-background:new 0 0 612 792;" xml:space="preserve">
<path d="M306.484,271.384c-83.713,0-152.023,67.191-153.845,150.475h30.005c1.815-66.74,56.669-120.475,123.84-120.475
	c68.313,0,123.889,55.576,123.889,123.889s-55.577,123.889-123.889,123.889c-22.175,0-43.004-5.861-61.029-16.108l-27.238,18.205
	c25.006,17.572,55.451,27.903,88.267,27.903c84.855,0,153.889-69.034,153.889-153.889
	C460.374,340.418,391.339,271.384,306.484,271.384z"/>
<polygon points="219.915,410 168,499.919 116.085,410 "/>
<path d="M405.059,418.292l-75.838-7.027c-2.214-3.026-4.946-5.648-8.07-7.734l-5.9-75.863c0-4.11-3.333-7.441-7.441-7.441h-10.493
	c-4.11,0-7.441,3.331-7.441,7.441l-5.993,77.196c-7.53,5.842-12.382,14.973-12.382,25.242c0,17.638,14.298,31.937,31.938,31.937
	c9.762,0,18.496-4.386,24.353-11.287l77.268-7.088c4.11,0,7.441-3.331,7.441-7.441v-10.493
	C412.5,421.625,409.168,418.292,405.059,418.292z"/>
</svg>
