<?xml version="1.0" encoding="iso-8859-1"?>
<!-- Generator: Adobe Illustrator 15.0.0, SVG Export Plug-In . SVG Version: 6.00 Build 0)  -->
<!DOCTYPE svg PUBLIC "-//W3C//DTD SVG 1.1//EN" "http://www.w3.org/Graphics/SVG/1.1/DTD/svg11.dtd">
<svg version="1.1" id="&#x421;&#x43B;&#x43E;&#x439;_1"
	 xmlns="http://www.w3.org/2000/svg" xmlns:xlink="http://www.w3.org/1999/xlink" x="0px" y="0px" width="600px" height="600px"
	 viewBox="0 0 600 600" style="enable-background:new 0 0 600 600;" xml:space="preserve">
<g>
	<rect x="454.37" y="-154.38" style="fill-rule:evenodd;clip-rule:evenodd;fill:#000003;" width="300" height="300"/>
	<g>
		<path style="fill-rule:evenodd;clip-rule:evenodd;fill:#FFFFFF;" d="M471.93,1.74l0.19-1.2l-0.881-0.85l1.211-0.19l0.529-1.1
			l0.55,1.09l1.221,0.17l-0.87,0.86l0.21,1.21l-1.08-0.56L471.93,1.74L471.93,1.74z M467.43,1.74L467.43,1.74v-11.99h2.61V1.74
			H467.43L467.43,1.74z M475.95,1.74L475.95,1.74v-11.99h2.609V1.74H475.95L475.95,1.74z M469.399,1.05L469.399,1.05v-1.38h-1.38
			v1.38H469.399L469.399,1.05z M477.93,1.05L477.93,1.05v-1.38h-1.38v1.38H477.93L477.93,1.05z M469.399-1.27L469.399-1.27v-1.38
			h-1.38v1.38H469.399L469.399-1.27z M477.93-1.27L477.93-1.27v-1.38h-1.38v1.38H477.93L477.93-1.27z M471.93-2.58L471.93-2.58
			l0.19-1.21l-0.881-0.85l1.211-0.18l0.529-1.11l0.55,1.1l1.221,0.16l-0.87,0.86l0.21,1.21l-1.08-0.561L471.93-2.58L471.93-2.58z
			 M469.399-3.59L469.399-3.59v-1.38h-1.38v1.38H469.399L469.399-3.59z M477.93-3.59L477.93-3.59v-1.38h-1.38v1.38H477.93
			L477.93-3.59z M469.399-5.91L469.399-5.91V-7.3h-1.38v1.39H469.399L469.399-5.91z M477.93-5.91L477.93-5.91V-7.3h-1.38v1.39
			H477.93L477.93-5.91z M471.93-6.91L471.93-6.91l0.19-1.21l-0.881-0.85l1.211-0.18l0.529-1.11l0.55,1.1L474.75-9l-0.87,0.87
			l0.21,1.2l-1.08-0.56L471.93-6.91L471.93-6.91z M469.399-8.229L469.399-8.229v-1.39h-1.38v1.39H469.399L469.399-8.229z
			 M477.93-8.229L477.93-8.229v-1.39h-1.38v1.39H477.93z"/>
		<path style="fill-rule:evenodd;clip-rule:evenodd;fill:#FFFFFF;" d="M497.29,3.24l0.25-1.51l-1.11-1.05l1.52-0.24l0.66-1.37
			l0.69,1.36l1.52,0.21l-1.09,1.08L500,3.22l-1.36-0.7L497.29,3.24L497.29,3.24z M491.67,3.24L491.67,3.24v-14.99h3.26V3.24H491.67
			L491.67,3.24z M502.319,3.24L502.319,3.24v-14.99h3.261V3.24H502.319L502.319,3.24z M494.14,2.38L494.14,2.38V0.65h-1.729v1.73
			H494.14L494.14,2.38z M504.79,2.38L504.79,2.38V0.65h-1.73v1.73H504.79L504.79,2.38z M494.14-0.53L494.14-0.53v-1.72h-1.729v1.72
			H494.14L494.14-0.53z M504.79-0.53L504.79-0.53v-1.72h-1.73v1.72H504.79L504.79-0.53z M497.29-2.17L497.29-2.17l0.25-1.51
			l-1.11-1.05l1.52-0.24l0.66-1.38l0.69,1.37l1.52,0.21l-1.09,1.08L500-2.19l-1.36-0.7L497.29-2.17L497.29-2.17z M494.14-3.43
			L494.14-3.43v-1.73h-1.729v1.73H494.14L494.14-3.43z M504.79-3.43L504.79-3.43v-1.73h-1.73v1.73H504.79L504.79-3.43z M494.14-6.33
			L494.14-6.33V-8.06h-1.729v1.729H494.14L494.14-6.33z M504.79-6.33L504.79-6.33V-8.06h-1.73v1.729H504.79L504.79-6.33z
			 M497.29-7.58L497.29-7.58l0.25-1.51l-1.11-1.05l1.52-0.24l0.66-1.38l0.69,1.37l1.52,0.21l-1.09,1.08L500-7.6l-1.36-0.7
			L497.29-7.58L497.29-7.58z M494.14-9.229L494.14-9.229v-1.73h-1.729v1.73H494.14L494.14-9.229z M504.79-9.229L504.79-9.229v-1.73
			h-1.73v1.73H504.79z"/>
		<path style="fill-rule:evenodd;clip-rule:evenodd;fill:#FFFFFF;" d="M525.439,4.74l0.29-1.81L524.41,1.66l1.81-0.28l0.8-1.65
			l0.83,1.64l1.82,0.25l-1.311,1.29l0.33,1.81l-1.63-0.84L525.439,4.74L525.439,4.74z M518.689,4.74L518.689,4.74v-17.99h3.91V4.74
			H518.689L518.689,4.74z M531.47,4.74L531.47,4.74v-17.99h3.92V4.74H531.47L531.47,4.74z M521.649,3.7L521.649,3.7V1.63h-2.069V3.7
			H521.649L521.649,3.7z M534.439,3.7L534.439,3.7V1.63h-2.069V3.7H534.439L534.439,3.7z M521.649,0.22L521.649,0.22v-2.07h-2.069
			v2.07H521.649L521.649,0.22z M534.439,0.22L534.439,0.22v-2.07h-2.069v2.07H534.439L534.439,0.22z M525.439-1.75L525.439-1.75
			l0.29-1.81l-1.319-1.27l1.81-0.28l0.8-1.65l0.83,1.64l1.82,0.24l-1.311,1.3l0.33,1.8l-1.63-0.84L525.439-1.75L525.439-1.75z
			 M521.649-3.26L521.649-3.26v-2.08h-2.069v2.08H521.649L521.649-3.26z M534.439-3.26L534.439-3.26v-2.08h-2.069v2.08H534.439
			L534.439-3.26z M521.649-6.74L521.649-6.74v-2.08h-2.069v2.08H521.649L521.649-6.74z M534.439-6.74L534.439-6.74v-2.08h-2.069
			v2.08H534.439L534.439-6.74z M525.439-8.24L525.439-8.24l0.29-1.81l-1.319-1.27l1.81-0.28l0.8-1.66l0.83,1.64l1.82,0.25
			l-1.311,1.3l0.33,1.8l-1.63-0.84L525.439-8.24L525.439-8.24z M521.649-10.22L521.649-10.22v-2.08h-2.069v2.08H521.649
			L521.649-10.22z M534.439-10.22L534.439-10.22v-2.08h-2.069v2.08H534.439z"/>
		<path style="fill-rule:evenodd;clip-rule:evenodd;fill:#FFFFFF;" d="M555.81,5.5l0.32-1.97l-1.44-1.37l1.971-0.31l0.859-1.79
			l0.9,1.78l1.97,0.27l-1.41,1.4l0.351,1.96l-1.771-0.91L555.81,5.5L555.81,5.5z M548.49,5.49L548.49,5.49V-14h4.249V5.49H548.49
			L548.49,5.49z M562.34,5.49L562.34,5.49V-14h4.25V5.49H562.34L562.34,5.49z M551.71,4.371L551.71,4.371V2.12h-2.25v2.25H551.71
			L551.71,4.371z M565.56,4.371L565.56,4.371V2.12h-2.25v2.25H565.56L565.56,4.371z M551.71,0.59L551.71,0.59v-2.24h-2.25v2.24
			H551.71L551.71,0.59z M565.56,0.59L565.56,0.59v-2.24h-2.25v2.24H565.56L565.56,0.59z M555.81-1.54L555.81-1.54l0.32-1.959
			l-1.44-1.38l1.971-0.3l0.859-1.79l0.9,1.77l1.97,0.27l-1.41,1.4l0.351,1.96L557.56-2.48L555.81-1.54L555.81-1.54z M551.71-3.18
			L551.71-3.18v-2.24h-2.25v2.24H551.71L551.71-3.18z M565.56-3.18L565.56-3.18v-2.24h-2.25v2.24H565.56L565.56-3.18z M551.71-6.95
			L551.71-6.95V-9.2h-2.25v2.25H551.71L551.71-6.95z M565.56-6.95L565.56-6.95V-9.2h-2.25v2.25H565.56L565.56-6.95z M555.81-8.57
			L555.81-8.57l0.32-1.96l-1.44-1.38l1.971-0.3l0.859-1.8l0.9,1.78l1.97,0.271l-1.41,1.4l0.351,1.96l-1.771-0.91L555.81-8.57
			L555.81-8.57z M551.71-10.72L551.71-10.72v-2.25h-2.25v2.25H551.71L551.71-10.72z M565.56-10.72L565.56-10.72v-2.25h-2.25v2.25
			H565.56z"/>
		<path style="fill-rule:evenodd;clip-rule:evenodd;fill:#FFFFFF;" d="M588.13,6.99l0.37-2.26l-1.66-1.59l2.27-0.35l1-2.061
			l1.03,2.04l2.28,0.32l-1.63,1.61l0.399,2.26l-2.04-1.05L588.13,6.99L588.13,6.99z M579.689,6.99L579.689,6.99V-15.5h4.891V6.99
			H579.689L579.689,6.99z M595.67,6.99L595.67,6.99V-15.5h4.9V6.99H595.67L595.67,6.99z M583.399,5.69L583.399,5.69V3.1h-2.59v2.59
			H583.399L583.399,5.69z M599.38,5.69L599.38,5.69V3.1h-2.59v2.59H599.38L599.38,5.69z M583.399,1.34L583.399,1.34v-2.59h-2.59
			v2.59H583.399L583.399,1.34z M599.38,1.34L599.38,1.34v-2.59h-2.59v2.59H599.38L599.38,1.34z M588.13-1.12L588.13-1.12l0.37-2.27
			l-1.66-1.58l2.27-0.35l1-2.07l1.03,2.05l2.28,0.31l-1.63,1.62l0.399,2.26l-2.04-1.06L588.13-1.12L588.13-1.12z M583.399-3.01
			L583.399-3.01V-5.6h-2.59v2.59H583.399L583.399-3.01z M599.38-3.01L599.38-3.01V-5.6h-2.59v2.59H599.38L599.38-3.01z
			 M583.399-7.36L583.399-7.36v-2.6h-2.59v2.6H583.399L583.399-7.36z M599.38-7.36L599.38-7.36v-2.6h-2.59v2.6H599.38L599.38-7.36z
			 M588.13-9.24L588.13-9.24l0.37-2.26l-1.66-1.59l2.27-0.35l1-2.07l1.03,2.06l2.28,0.31l-1.63,1.61l0.399,2.26l-2.04-1.05
			L588.13-9.24L588.13-9.24z M583.399-11.709L583.399-11.709v-2.6h-2.59v2.6H583.399L583.399-11.709z M599.38-11.709L599.38-11.709
			v-2.6h-2.59v2.6H599.38z"/>
		<path style="fill-rule:evenodd;clip-rule:evenodd;fill:#FFFFFF;" d="M624.93,10.74l0.49-3.02l-2.21-2.11l3.02-0.47l1.33-2.75
			l1.38,2.729l3.03,0.41l-2.17,2.16l0.54,3.01l-2.72-1.4L624.93,10.74L624.93,10.74z M613.67,10.74L613.67,10.74v-29.99h6.53v29.99
			H613.67L613.67,10.74z M634.979,10.74L634.979,10.74v-29.99h6.53v29.99H634.979L634.979,10.74z M618.62,9.01L618.62,9.01V5.55
			h-3.46v3.46H618.62L618.62,9.01z M639.93,9.01L639.93,9.01V5.55h-3.46v3.46H639.93L639.93,9.01z M618.62,3.2L618.62,3.2v-3.45
			h-3.46V3.2H618.62L618.62,3.2z M639.93,3.2L639.93,3.2v-3.45h-3.46V3.2H639.93L639.93,3.2z M624.93-0.08L624.93-0.08l0.49-3.02
			l-2.21-2.11l3.02-0.47l1.33-2.75l1.38,2.73l3.03,0.41l-2.17,2.16l0.54,3.01l-2.72-1.4L624.93-0.08L624.93-0.08z M618.62-2.6
			L618.62-2.6v-3.46h-3.46v3.46H618.62L618.62-2.6z M639.93-2.6L639.93-2.6v-3.46h-3.46v3.46H639.93L639.93-2.6z M618.62-8.399
			L618.62-8.399v-3.46h-3.46v3.46H618.62L618.62-8.399z M639.93-8.399L639.93-8.399v-3.46h-3.46v3.46H639.93L639.93-8.399z
			 M624.93-10.9L624.93-10.9l0.49-3.02l-2.21-2.11l3.02-0.47l1.33-2.76l1.38,2.74l3.03,0.41l-2.17,2.16l0.54,3.01l-2.72-1.4
			L624.93-10.9L624.93-10.9z M618.62-14.2L618.62-14.2v-3.46h-3.46v3.46H618.62L618.62-14.2z M639.93-14.2L639.93-14.2v-3.46h-3.46
			v3.46H639.93z"/>
		<path style="fill-rule:evenodd;clip-rule:evenodd;fill:#FFFFFF;" d="M668.12,13.74l0.59-3.62l-2.66-2.54l3.63-0.56l1.6-3.3
			l1.65,3.27l3.64,0.5l-2.609,2.59l0.66,3.61l-3.271-1.68L668.12,13.74L668.12,13.74z M654.609,13.73L654.609,13.73v-35.97h7.83
			v35.97H654.609L654.609,13.73z M680.18,13.73L680.18,13.73v-35.97h7.83v35.97H680.18L680.18,13.73z M660.54,11.66L660.54,11.66
			V7.51h-4.141v4.15H660.54L660.54,11.66z M686.12,11.66L686.12,11.66V7.51h-4.15v4.15H686.12L686.12,11.66z M660.54,4.7L660.54,4.7
			V0.55h-4.141V4.7H660.54L660.54,4.7z M686.12,4.7L686.12,4.7V0.55h-4.15V4.7H686.12L686.12,4.7z M668.12,0.76L668.12,0.76
			l0.59-3.62l-2.66-2.54l3.63-0.56l1.6-3.31l1.65,3.28l3.64,0.5l-2.609,2.58l0.66,3.621l-3.271-1.69L668.12,0.76L668.12,0.76z
			 M660.54-2.26L660.54-2.26v-4.15h-4.141v4.15H660.54L660.54-2.26z M686.12-2.26L686.12-2.26v-4.15h-4.15v4.15H686.12L686.12-2.26z
			 M660.54-9.229L660.54-9.229v-4.15h-4.141v4.15H660.54L660.54-9.229z M686.12-9.229L686.12-9.229v-4.15h-4.15v4.15H686.12
			L686.12-9.229z M668.12-12.22L668.12-12.22l0.59-3.63l-2.66-2.54l3.63-0.56l1.6-3.31l1.65,3.29l3.64,0.49l-2.609,2.59l0.66,3.61
			l-3.271-1.68L668.12-12.22L668.12-12.22z M660.54-16.19L660.54-16.19v-4.15h-4.141v4.15H660.54L660.54-16.19z M686.12-16.19
			L686.12-16.19v-4.15h-4.15v4.15H686.12z"/>
		<path style="fill-rule:evenodd;clip-rule:evenodd;fill:#FFFFFF;" d="M718,18.24l0.739-4.53l-3.319-3.169l4.54-0.701l1.989-4.129
			l2.07,4.1l4.55,0.62l-3.26,3.23l0.811,4.52l-4.08-2.1L718,18.24L718,18.24z M701.12,18.23L701.12,18.23v-44.97h9.79v44.97H701.12
			L701.12,18.23z M733.08,18.23L733.08,18.23v-44.97h9.789v44.97H733.08L733.08,18.23z M708.53,15.64L708.53,15.64v-5.19h-5.181
			v5.19H708.53L708.53,15.64z M740.5,15.64L740.5,15.64v-5.19h-5.19v5.19H740.5L740.5,15.64z M708.53,6.94L708.53,6.94V1.75h-5.181
			v5.19H708.53L708.53,6.94z M740.5,6.94L740.5,6.94V1.75h-5.19v5.19H740.5L740.5,6.94z M718,2.02L718,2.02l0.739-4.54l-3.319-3.17
			l4.54-0.7l1.989-4.13l2.07,4.09l4.55,0.63l-3.26,3.23l0.811,4.52l-4.08-2.11L718,2.02L718,2.02z M708.53-1.77L708.53-1.77v-5.18
			h-5.181v5.18H708.53L708.53-1.77z M740.5-1.77L740.5-1.77v-5.18h-5.19v5.18H740.5L740.5-1.77z M708.53-10.47L708.53-10.47v-5.19
			h-5.181v5.19H708.53L708.53-10.47z M740.5-10.47L740.5-10.47v-5.19h-5.19v5.19H740.5L740.5-10.47z M718-14.22L718-14.22
			l0.739-4.53l-3.319-3.17l4.54-0.7l1.989-4.14l2.07,4.11l4.55,0.62l-3.26,3.23l0.811,4.51l-4.08-2.1L718-14.22L718-14.22z
			 M708.53-19.17L708.53-19.17v-5.189h-5.181v5.189H708.53L708.53-19.17z M740.5-19.17L740.5-19.17v-5.189h-5.19v5.189H740.5z"/>
	</g>
</g>
</svg>
