<?xml version="1.0" encoding="utf-8"?>
<!-- Generator: Adobe Illustrator 15.0.0, SVG Export Plug-In . SVG Version: 6.00 Build 0)  -->
<!DOCTYPE svg PUBLIC "-//W3C//DTD SVG 1.1//EN" "http://www.w3.org/Graphics/SVG/1.1/DTD/svg11.dtd">
<svg version="1.1" id="Layer_1" xmlns="http://www.w3.org/2000/svg" xmlns:xlink="http://www.w3.org/1999/xlink" x="0px" y="0px"
	 width="283.464px" height="283.464px" viewBox="0 0 283.464 283.464" enable-background="new 0 0 283.464 283.464"
	 xml:space="preserve">
<g>
	<path fill="#FFFFFF" stroke="#000000" stroke-width="1.6" d="M75.896,90.64"/>
	<g>
		<ellipse stroke="#000000" stroke-width="1.6" cx="135.637" cy="49.845" rx="7.31" ry="3.489"/>
		<path stroke="#000000" stroke-width="1.6" d="M137.887,51.053c0,1.186-1.007,2.147-2.249,2.147h-5.342
			c-1.242,0-2.249-0.961-2.249-2.147v-2.55c0-1.186,1.007-2.147,2.249-2.147h5.342c1.242,0,2.249,0.961,2.249,2.147V51.053z"/>
	</g>
	<g>
		<ellipse stroke="#000000" stroke-width="1.6" cx="115.395" cy="71.182" rx="7.309" ry="3.489"/>
		<path stroke="#000000" stroke-width="1.6" d="M117.644,72.39c0,1.186-1.006,2.147-2.248,2.147h-5.342
			c-1.242,0-2.249-0.961-2.249-2.147v-2.55c0-1.186,1.007-2.147,2.249-2.147h5.342c1.242,0,2.248,0.962,2.248,2.147V72.39z"/>
	</g>
	<g>
		<ellipse stroke="#000000" stroke-width="1.6" cx="115.536" cy="126.337" rx="7.31" ry="3.49"/>
		<path stroke="#000000" stroke-width="1.6" d="M117.785,125.128c0-1.186-1.007-2.146-2.249-2.146h-5.341
			c-1.243,0-2.249,0.961-2.249,2.146v2.55c0,1.186,1.006,2.147,2.249,2.147h5.341c1.242,0,2.249-0.961,2.249-2.147V125.128z"/>
	</g>
	<g>
		<ellipse stroke="#000000" stroke-width="1.6" cx="136.199" cy="147.673" rx="7.31" ry="3.489"/>
		<path stroke="#000000" stroke-width="1.6" d="M138.449,146.466c0-1.186-1.007-2.147-2.249-2.147h-5.341
			c-1.243,0-2.25,0.961-2.25,2.147v2.55c0,1.186,1.007,2.147,2.25,2.147h5.341c1.242,0,2.249-0.961,2.249-2.147V146.466z"/>
	</g>
	<polygon stroke="#000000" stroke-width="1.6" stroke-linecap="round" stroke-linejoin="round" points="150.912,142.843 
		160.471,142.977 151.053,140.159 	"/>
	<polygon stroke="#000000" stroke-width="1.6" stroke-linecap="round" stroke-linejoin="round" points="144.915,133.807 
		154.474,133.941 145.055,131.123 	"/>
	<polygon stroke="#000000" stroke-width="1.6" stroke-linecap="round" stroke-linejoin="round" points="138.73,119.67 
		148.288,119.806 138.871,116.987 	"/>
	<polygon stroke="#000000" stroke-width="1.6" stroke-linecap="round" stroke-linejoin="round" points="136.481,112.604 
		146.039,112.738 136.621,109.919 	"/>
	<polygon stroke="#000000" stroke-width="1.6" stroke-linecap="round" stroke-linejoin="round" points="150.762,54.406 
		160.321,54.272 150.903,57.091 	"/>
	<polygon stroke="#000000" stroke-width="1.6" stroke-linecap="round" stroke-linejoin="round" points="144.765,63.443 
		154.324,63.309 144.905,66.126 	"/>
	<polygon stroke="#000000" stroke-width="1.6" stroke-linecap="round" stroke-linejoin="round" points="138.58,77.579 
		148.139,77.445 138.721,80.262 	"/>
	<polygon stroke="#000000" stroke-width="1.6" stroke-linecap="round" stroke-linejoin="round" points="136.331,84.646 
		145.89,84.512 136.472,87.33 	"/>
	<g>
		<path d="M97.636,94.364c-0.619,0.019-0.81-0.344-0.426-0.807l2.165-2.611c0.384-0.463,1.042-1.197,1.461-1.63l23.215-24.01
			c0.419-0.434,1.1-1.149,1.512-1.589l31.862-34.006c0.412-0.44,1.236-0.936,1.829-1.101l2.338-0.651
			c0.594-0.166,1.584-0.347,2.199-0.403l3.572-0.331c0.616-0.057,1.624-0.06,2.24-0.006l3.945,0.342
			c0.615,0.053,1.614,0.202,2.217,0.331l2.308,0.492c0.604,0.127,0.606,0.349,0.005,0.49l-2.16,0.511
			c-0.601,0.141-1.596,0.299-2.211,0.351l-2.571,0.215c-0.616,0.052-1.419,0.483-1.783,0.96l-0.957,1.25
			c-0.365,0.477-0.937,1.274-1.272,1.77l-5.53,8.214c-0.334,0.497-0.867,1.319-1.183,1.826l-10.659,17.121
			c-0.316,0.507-0.83,1.339-1.143,1.849l-2.049,3.336c-0.313,0.51-0.721,1.387-0.909,1.95l-7.942,23.898
			c-0.188,0.563-0.846,1.04-1.464,1.058L97.636,94.364z"/>
		<path fill="none" stroke="#000000" stroke-width="1.6" stroke-linecap="round" stroke-linejoin="round" d="M97.636,94.364
			c-0.619,0.019-0.81-0.344-0.426-0.807l2.165-2.611c0.384-0.463,1.042-1.197,1.461-1.63l23.215-24.01
			c0.419-0.434,1.1-1.149,1.512-1.589l31.862-34.006c0.412-0.44,1.236-0.936,1.829-1.101l2.338-0.651
			c0.594-0.166,1.584-0.347,2.199-0.403l3.572-0.331c0.616-0.057,1.624-0.06,2.24-0.006l3.945,0.342
			c0.615,0.053,1.614,0.202,2.217,0.331l2.308,0.492c0.604,0.127,0.606,0.349,0.005,0.49l-2.16,0.511
			c-0.601,0.141-1.596,0.299-2.211,0.351l-2.571,0.215c-0.616,0.052-1.419,0.483-1.783,0.96l-0.957,1.25
			c-0.365,0.477-0.937,1.274-1.272,1.77l-5.53,8.214c-0.334,0.497-0.867,1.319-1.183,1.826l-10.659,17.121
			c-0.316,0.507-0.83,1.339-1.143,1.849l-2.049,3.336c-0.313,0.51-0.721,1.387-0.909,1.95l-7.942,23.898
			c-0.188,0.563-0.846,1.04-1.464,1.058L97.636,94.364z"/>
	</g>
	<g>
		<path d="M97.354,102.306c-0.618-0.019-0.81,0.344-0.426,0.807l2.166,2.611c0.385,0.463,1.042,1.197,1.461,1.63l23.214,24.009
			c0.42,0.434,1.1,1.149,1.513,1.589l31.862,34.007c0.413,0.439,1.235,0.936,1.83,1.101l2.339,0.65
			c0.593,0.166,1.583,0.347,2.199,0.404l3.571,0.331c0.616,0.057,1.624,0.06,2.239,0.006l3.946-0.343
			c0.615-0.053,1.613-0.202,2.217-0.33l2.308-0.492c0.603-0.128,0.606-0.349,0.005-0.491l-2.159-0.51
			c-0.602-0.142-1.596-0.3-2.212-0.351l-2.57-0.215c-0.616-0.052-1.419-0.483-1.784-0.96l-0.957-1.25
			c-0.364-0.477-0.937-1.273-1.271-1.771l-5.531-8.214c-0.335-0.497-0.867-1.318-1.183-1.826l-10.659-17.12
			c-0.316-0.508-0.831-1.34-1.144-1.849l-2.049-3.337c-0.313-0.51-0.722-1.387-0.908-1.95l-7.942-23.898
			c-0.186-0.563-0.846-1.039-1.464-1.057L97.354,102.306z"/>
		<path fill="none" stroke="#000000" stroke-width="1.6" stroke-linecap="round" stroke-linejoin="round" d="M97.354,102.306
			c-0.618-0.019-0.81,0.344-0.426,0.807l2.166,2.611c0.385,0.463,1.042,1.197,1.461,1.63l23.214,24.009
			c0.42,0.434,1.1,1.149,1.513,1.589l31.862,34.007c0.413,0.439,1.235,0.936,1.83,1.101l2.339,0.65
			c0.593,0.166,1.583,0.347,2.199,0.404l3.571,0.331c0.616,0.057,1.624,0.06,2.239,0.006l3.946-0.343
			c0.615-0.053,1.613-0.202,2.217-0.33l2.308-0.492c0.603-0.128,0.606-0.349,0.005-0.491l-2.159-0.51
			c-0.602-0.142-1.596-0.3-2.212-0.351l-2.57-0.215c-0.616-0.052-1.419-0.483-1.784-0.96l-0.957-1.25
			c-0.364-0.477-0.937-1.273-1.271-1.771l-5.531-8.214c-0.335-0.497-0.867-1.318-1.183-1.826l-10.659-17.12
			c-0.316-0.508-0.831-1.34-1.144-1.849l-2.049-3.337c-0.313-0.51-0.722-1.387-0.908-1.95l-7.942-23.898
			c-0.186-0.563-0.846-1.039-1.464-1.057L97.354,102.306z"/>
	</g>
	<g>
		<path d="M134.235,95.84c0.152-2.948-2.254-5.366-5.346-5.373l-39.078-0.083c-3.092-0.007-8.152,0.03-11.245,0.082l-4.781,0.08
			c-3.092,0.051-7.646,0.426-10.12,0.832c-2.474,0.406-6.554,1.373-9.066,2.147c-2.513,0.775-5.233,1.862-6.044,2.416
			c-0.812,0.554-1.571,1.55-1.687,2.215c-0.116,0.664,0.548,1.841,1.476,2.617c0.929,0.775,3.617,2.013,5.974,2.751
			c2.358,0.737,6.343,1.674,8.856,2.079c2.513,0.407,7.098,0.799,10.189,0.872l5.627,0.134c3.091,0.074,8.15,0.139,11.244,0.144
			l37.813,0.062c3.093,0.006,5.748-2.403,5.9-5.351L134.235,95.84z"/>
		<path fill="none" stroke="#000000" stroke-width="1.6" stroke-linecap="round" stroke-linejoin="round" d="M134.235,95.84
			c0.152-2.948-2.254-5.366-5.346-5.373l-39.078-0.083c-3.092-0.007-8.152,0.03-11.245,0.082l-4.781,0.08
			c-3.092,0.051-7.646,0.426-10.12,0.832c-2.474,0.406-6.554,1.373-9.066,2.147c-2.513,0.775-5.233,1.862-6.044,2.416
			c-0.812,0.554-1.571,1.55-1.687,2.215c-0.116,0.664,0.548,1.841,1.476,2.617c0.929,0.775,3.617,2.013,5.974,2.751
			c2.358,0.737,6.343,1.674,8.856,2.079c2.513,0.407,7.098,0.799,10.189,0.872l5.627,0.134c3.091,0.074,8.15,0.139,11.244,0.144
			l37.813,0.062c3.093,0.006,5.748-2.403,5.9-5.351L134.235,95.84z"/>
	</g>
	<g>
		<path d="M131.329,95.816c0.128-2.95,2.763-5.37,5.854-5.378l19.68-0.052c3.093-0.007,8.152,0.042,11.244,0.112l6.61,0.149
			c3.091,0.07,7.455,0.277,9.697,0.462c2.243,0.185,5.943,0.638,8.224,1.007c2.28,0.369,6.641,1.076,9.69,1.571l1.312,0.213
			c3.048,0.495,5.543,2.561,5.543,4.59c0,2.029-2.493,4.104-5.54,4.609l-0.898,0.149c-3.046,0.505-7.374,1.256-9.616,1.67
			c-2.242,0.413-5.911,0.872-8.152,1.02c-2.243,0.148-6.605,0.343-9.697,0.433l-6.191,0.182c-3.09,0.09-8.149,0.16-11.243,0.155
			l-21.366-0.036c-3.092-0.005-5.518-2.423-5.39-5.373L131.329,95.816z"/>
		<path fill="none" stroke="#000000" stroke-width="1.6" stroke-linecap="round" stroke-linejoin="round" d="M131.329,95.816
			c0.128-2.95,2.763-5.37,5.854-5.378l19.68-0.052c3.093-0.007,8.152,0.042,11.244,0.112l6.61,0.149
			c3.091,0.07,7.455,0.277,9.697,0.462c2.243,0.185,5.943,0.638,8.224,1.007c2.28,0.369,6.641,1.076,9.69,1.571l1.312,0.213
			c3.048,0.495,5.543,2.561,5.543,4.59c0,2.029-2.493,4.104-5.54,4.609l-0.898,0.149c-3.046,0.505-7.374,1.256-9.616,1.67
			c-2.242,0.413-5.911,0.872-8.152,1.02c-2.243,0.148-6.605,0.343-9.697,0.433l-6.191,0.182c-3.09,0.09-8.149,0.16-11.243,0.155
			l-21.366-0.036c-3.092-0.005-5.518-2.423-5.39-5.373L131.329,95.816z"/>
	</g>
	<g>
		<path d="M195.795,95.273c-0.306-0.039-0.387-0.249-0.18-0.467l21.877-23.092c0.208-0.218,0.63-0.397,0.939-0.397h7.028
			c0.31,0,0.491,0.232,0.405,0.515l-7.838,25.674c-0.086,0.284-0.409,0.484-0.715,0.447L195.795,95.273z"/>
		<path fill="none" stroke="#000000" stroke-width="1.6" stroke-linecap="round" stroke-linejoin="round" d="M195.795,95.273
			c-0.306-0.039-0.387-0.249-0.18-0.467l21.877-23.092c0.208-0.218,0.63-0.397,0.939-0.397h7.028c0.31,0,0.491,0.232,0.405,0.515
			l-7.838,25.674c-0.086,0.284-0.409,0.484-0.715,0.447L195.795,95.273z"/>
	</g>
	<g>
		<path d="M195.833,101.548c-0.307,0.038-0.388,0.248-0.181,0.466l21.876,23.092c0.208,0.218,0.631,0.397,0.939,0.397h7.029
			c0.31,0,0.491-0.231,0.405-0.515l-7.838-25.674c-0.087-0.284-0.409-0.484-0.716-0.446L195.833,101.548z"/>
		<path fill="none" stroke="#000000" stroke-width="1.6" stroke-linecap="round" stroke-linejoin="round" d="M195.833,101.548
			c-0.307,0.038-0.388,0.248-0.181,0.466l21.876,23.092c0.208,0.218,0.631,0.397,0.939,0.397h7.029c0.31,0,0.491-0.231,0.405-0.515
			l-7.838-25.674c-0.087-0.284-0.409-0.484-0.716-0.446L195.833,101.548z"/>
	</g>
	
		<ellipse stroke="#000000" stroke-width="1.6" stroke-linecap="round" stroke-linejoin="round" cx="203.962" cy="98.379" rx="18.743" ry="2.281"/>
</g>
<path d="M75.279,214.791c-6.965,0-12.632,5.37-12.632,11.97c0,6.6,5.667,11.969,12.632,11.969s12.632-5.37,12.632-11.969
	C87.911,220.16,82.244,214.791,75.279,214.791z"/>
<path d="M187.131,214.791c-6.965,0-12.632,5.37-12.632,11.97c0,6.6,5.667,11.969,12.632,11.969s12.632-5.37,12.632-11.969
	C199.763,220.16,194.096,214.791,187.131,214.791z"/>
<g>
	<path d="M223.487,216.713c-0.191-2.329-0.622-5.767-0.957-7.639c-0.335-1.873-0.882-4.375-1.217-5.563
		c-0.335-1.188-0.766-2.309-0.957-2.491c-0.192-0.183-2.149-0.481-4.349-0.664c-2.201-0.183-6.488-0.62-9.526-0.972l-0.429-0.05
		c-3.04-0.352-5.957-0.677-6.482-0.723c-0.526-0.046-2.953-1.092-5.393-2.325c-2.44-1.232-6.713-3.239-9.495-4.459l-0.493-0.216
		c-2.782-1.219-7.055-2.814-9.495-3.545c-2.439-0.73-6.929-1.55-9.978-1.822l-1.962-0.174c-3.049-0.272-8.047-0.468-11.108-0.435
		l-4.35,0.047c-3.062,0.032-7.836,0.284-10.611,0.558c-2.775,0.274-7.393,1.059-10.264,1.744c-2.87,0.685-7.097,2.255-9.393,3.488
		c-2.297,1.232-6.25,3.325-8.785,4.649s-5.627,2.669-6.871,2.989c-1.244,0.319-4.744,0.903-7.777,1.296l-3.058,0.397
		c-3.035,0.393-7.974,1.178-10.978,1.745l-3.168,0.597c-3.003,0.566-7.884,1.636-10.846,2.375l-0.537,0.134
		c-2.961,0.739-6.755,1.905-8.429,2.59c-1.674,0.685-3.357,1.769-3.74,2.408c-0.382,0.639-1.008,1.648-1.392,2.242
		c-0.383,0.594-1.009,1.864-1.392,2.823c-0.382,0.96-0.735,2.417-0.782,3.239c-0.048,0.822-0.086,2.392-0.086,3.487
		c0,1.096,0.117,2.553,0.261,3.238c0.143,0.685,0.457,1.844,0.695,2.574c0.24,0.731,1.062,1.553,1.827,1.827
		c0.766,0.274,2.801,0.76,4.523,1.079c0.691,0.129,1.744,0.246,2.945,0.34c-0.487-1.498-0.75-3.09-0.75-4.74
		c0-8.784,7.443-15.93,16.592-15.93s16.592,7.146,16.592,15.93c0,1.703-0.287,3.342-0.805,4.882l15.35-0.048
		c3.062-0.01,8.072-0.027,11.133-0.041l29.921-0.121c3.061-0.012,8.07,0.002,11.131,0.031l6.09,0.059
		c3.062,0.029,5.84,0.053,6.175,0.053c0.153,0,0.289-0.068,0.396-0.17c-0.468-1.471-0.724-3.029-0.724-4.645
		c0-8.784,7.443-15.93,16.592-15.93s16.592,7.146,16.592,15.93c0,0.915-0.099,1.806-0.253,2.678
		c0.186,0.117,0.399,0.184,0.622,0.145c0.526-0.092,3.384-0.428,6.35-0.748c2.966-0.32,6.606-0.881,8.089-1.246
		c1.483-0.365,3.048-0.963,3.479-1.329c0.431-0.366,1.018-1.711,1.304-2.989C223.6,221.995,223.678,219.042,223.487,216.713z
		 M150.343,201.791l-11.747,0.451c-1.53,0.058-4.034,0.1-5.564,0.093l-11.916-0.056c-1.531-0.007-3.136-0.05-3.566-0.096
		c-0.431-0.046-0.763-0.214-0.739-0.374s0.102-0.515,0.174-0.789c0.071-0.274,0.111-0.741,0.087-1.038
		c-0.024-0.296-0.219-0.82-0.435-1.163c-0.215-0.342-0.411-0.958-0.435-1.37c-0.024-0.411,0.954-1.4,2.175-2.201
		c1.22-0.799,3.364-1.935,4.765-2.524l0.038-0.016c1.401-0.589,3.624-1.445,4.94-1.902c1.314-0.457,3.628-1.018,5.14-1.246
		l1.635-0.247c1.511-0.229,3.997-0.511,5.523-0.625l1.061-0.08c1.526-0.115,4.027-0.223,5.558-0.241l1.826-0.02
		c1.532-0.018,4.035,0.025,5.564,0.094l1.221,0.054l-3.727,13.236C151.343,201.753,150.797,201.773,150.343,201.791z
		 M181.652,199.193c-0.097,0.319-0.782,0.711-1.523,0.872c-0.741,0.16-2.597,0.376-4.124,0.48l-6.625,0.452
		c-1.527,0.104-4.027,0.235-5.557,0.292l-7.919,0.292c-0.262,0.01-0.559,0.021-0.868,0.032l3.639-12.923
		c1.119,0.097,2.271,0.217,3.118,0.333l1.187,0.163c1.515,0.207,3.948,0.74,5.406,1.186l1.222,0.373
		c1.458,0.445,3.79,1.307,5.182,1.915l0.225,0.098c1.392,0.607,3.201,1.463,4.019,1.902c0.818,0.439,1.8,1.171,2.183,1.627
		c0.383,0.457,0.676,1.167,0.653,1.578C181.846,198.276,181.747,198.874,181.652,199.193z"/>
	<path d="M86.794,231.656c0.711-1.497,1.117-3.15,1.117-4.896c0-6.601-5.667-11.97-12.632-11.97s-12.632,5.37-12.632,11.97
		c0,1.767,0.417,3.439,1.145,4.95c0.477,0.009,0.948,0.015,1.398,0.014L86.794,231.656z"/>
	<path d="M188.037,214.834c2.783,0.868,6.505,2.881,8.609,4.703l1.149,0.995c0.083,0.071,0.162,0.146,0.244,0.219
		C195.99,217.427,192.307,215.124,188.037,214.834z"/>
</g>
</svg>
