<?xml version="1.0" encoding="utf-8"?>
<!-- Generator: Adobe Illustrator 15.0.0, SVG Export Plug-In . SVG Version: 6.00 Build 0)  -->
<!DOCTYPE svg PUBLIC "-//W3C//DTD SVG 1.1//EN" "http://www.w3.org/Graphics/SVG/1.1/DTD/svg11.dtd">
<svg version="1.1" id="Layer_1" xmlns="http://www.w3.org/2000/svg" xmlns:xlink="http://www.w3.org/1999/xlink" x="0px" y="0px"
	 width="162px" height="148px" viewBox="0 0 162 148" enable-background="new 0 0 162 148" xml:space="preserve">
<g>
	<g>
		<polygon fill="#020202" points="37.717,134.485 60.742,134.485 62.521,127.425 38.968,127.425 		"/>
		<path fill="#020202" d="M80.203,27.678H55.265v7.718c3.065-0.004,6.703,0.01,10.59,0.066c0,7.503-4.374,13.584-9.769,13.584
			c-1.047,0-2.055-0.521-3-1.346l-13.443,75.908h23.839l16.72-66.379V27.678z"/>
		<rect x="55.265" y="17.075" fill="#020202" width="24.938" height="6.94"/>
	</g>
	<g>
		<polygon fill="#020202" points="121.11,134.485 98.085,134.485 96.306,127.425 119.859,127.425 		"/>
		<path fill="#020202" d="M78.625,27.678h24.937v7.718c-3.064-0.004-6.702,0.01-10.59,0.066c0,7.503,4.374,13.584,9.769,13.584
			c1.047,0,2.054-0.521,3-1.346l13.443,75.908H95.345L78.625,57.229V27.678z"/>
		<rect x="78.625" y="17.075" fill="#020202" width="24.937" height="6.94"/>
	</g>
	<path fill="#020202" d="M55.095,37.539c1.965-0.002,4.298,0.005,6.792,0.042c0,4.813-2.806,8.713-6.266,8.713
		c-0.671,0-1.318-0.334-1.924-0.864L55.095,37.539z"/>
	<path fill="#020202" d="M103.532,37.539c-1.965-0.002-4.298,0.005-6.792,0.042c0,4.813,2.806,8.713,6.265,8.713
		c0.671,0,1.318-0.334,1.925-0.864L103.532,37.539z"/>
</g>
</svg>
