<?xml version="1.0" encoding="iso-8859-1"?>
<!-- Generator: Adobe Illustrator 15.0.0, SVG Export Plug-In . SVG Version: 6.00 Build 0)  -->
<!DOCTYPE svg PUBLIC "-//W3C//DTD SVG 1.1//EN" "http://www.w3.org/Graphics/SVG/1.1/DTD/svg11.dtd">
<svg version="1.1" id="&#x421;&#x43B;&#x43E;&#x439;_1"
	 xmlns="http://www.w3.org/2000/svg" xmlns:xlink="http://www.w3.org/1999/xlink" x="0px" y="0px" width="600px" height="600px"
	 viewBox="0 0 600 600" style="enable-background:new 0 0 600 600;" xml:space="preserve">
<g>
	<rect x="454.64" y="-157.03" style="fill-rule:evenodd;clip-rule:evenodd;fill:#000003;" width="300" height="300"/>
	<g>
		<path style="fill-rule:evenodd;clip-rule:evenodd;fill:#FFFFFF;" d="M491.54-0.93c-0.471-0.47-0.59-1.15-0.37-1.73l-1.42-1.42
			l-0.86,0.86c-0.38,0.37-0.979,0.37-1.35,0l-5.221-5.21l0.961-0.96l4.539,4.53c0.23,0.23,0.61,0.23,0.841,0l1.26-1.26
			c0.229-0.23,0.229-0.6,0-0.84l-4.54-4.53l0.96-0.96l5.22,5.21c0.37,0.37,0.37,0.98,0,1.35l-0.87,0.86l1.42,1.42
			c0.58-0.22,1.271-0.09,1.74,0.37c0.63,0.64,0.63,1.67,0,2.31C493.21-0.29,492.18-0.29,491.54-0.93z"/>
		<path style="fill-rule:evenodd;clip-rule:evenodd;fill:#FFFFFF;" d="M512.16,0.45c-0.58-0.58-0.74-1.44-0.461-2.17l-1.77-1.77
			l-1.08,1.08c-0.47,0.46-1.229,0.46-1.689,0l-6.511-6.51l1.2-1.21l5.66,5.67c0.29,0.29,0.76,0.29,1.05,0l1.58-1.57
			c0.29-0.29,0.29-0.76,0-1.05l-5.67-5.67l1.2-1.2l6.51,6.51c0.47,0.47,0.47,1.23,0,1.69l-1.069,1.08l1.77,1.771
			c0.729-0.271,1.58-0.12,2.17,0.47c0.79,0.79,0.79,2.09,0,2.88C514.25,1.25,512.96,1.25,512.16,0.45z"/>
		<path style="fill-rule:evenodd;clip-rule:evenodd;fill:#FFFFFF;" d="M535.79,1.83c-0.7-0.7-0.891-1.729-0.561-2.6l-2.13-2.13
			l-1.29,1.3c-0.56,0.55-1.47,0.55-2.03,0l-7.81-7.82l1.44-1.439l6.8,6.799c0.35,0.35,0.909,0.35,1.26,0l1.89-1.89
			c0.34-0.35,0.34-0.91,0-1.26l-6.8-6.8l1.44-1.44l7.81,7.82c0.561,0.56,0.561,1.46,0,2.02l-1.29,1.3l2.13,2.12
			c0.87-0.33,1.9-0.14,2.601,0.56c0.96,0.96,0.96,2.51,0,3.46C538.29,2.791,536.74,2.791,535.79,1.83z"/>
		<path style="fill-rule:evenodd;clip-rule:evenodd;fill:#FFFFFF;" d="M561.26,2.52c-0.76-0.76-0.96-1.87-0.6-2.82l-2.311-2.3
			l-1.399,1.4c-0.61,0.6-1.591,0.6-2.2,0l-8.46-8.47l1.56-1.561l7.37,7.37c0.37,0.38,0.979,0.38,1.36,0l2.05-2.05
			c0.37-0.37,0.37-0.99,0-1.36l-7.37-7.37l1.56-1.56l8.471,8.47c0.6,0.6,0.6,1.59,0,2.19l-1.4,1.4l2.3,2.31
			c0.95-0.36,2.061-0.16,2.82,0.6c1.04,1.041,1.04,2.72,0,3.75C563.979,3.56,562.3,3.56,561.26,2.52z"/>
		<path style="fill-rule:evenodd;clip-rule:evenodd;fill:#FFFFFF;" d="M589.38,3.9c-0.87-0.88-1.11-2.16-0.69-3.25l-2.66-2.66
			l-1.619,1.62c-0.7,0.7-1.83,0.7-2.53,0l-9.771-9.77l1.801-1.8l8.5,8.5c0.43,0.43,1.14,0.43,1.569,0l2.37-2.37
			c0.431-0.43,0.431-1.13,0-1.57l-8.51-8.5l1.8-1.8l9.771,9.77c0.699,0.7,0.699,1.83,0,2.53l-1.61,1.62l2.66,2.66
			c1.09-0.41,2.37-0.18,3.25,0.7c1.199,1.19,1.199,3.13,0,4.32C592.52,5.101,590.58,5.101,589.38,3.9z"/>
		<path style="fill-rule:evenodd;clip-rule:evenodd;fill:#FFFFFF;" d="M623.96,7.36c-1.17-1.18-1.48-2.88-0.92-4.34l-3.551-3.55
			l-2.159,2.16c-0.931,0.93-2.44,0.93-3.37,0l-13.03-13.029l2.4-2.4l11.34,11.34c0.569,0.57,1.51,0.57,2.09,0l3.15-3.16
			c0.58-0.58,0.58-1.51,0-2.09l-11.33-11.34l2.399-2.4l13.03,13.03c0.93,0.93,0.93,2.44,0,3.37l-2.16,2.16l3.55,3.55
			c1.45-0.55,3.16-0.24,4.33,0.93c1.601,1.591,1.601,4.17,0.011,5.771C628.14,8.95,625.56,8.95,623.96,7.36z"/>
		<path style="fill-rule:evenodd;clip-rule:evenodd;fill:#FFFFFF;" d="M664.89,10.12c-1.4-1.41-1.77-3.46-1.11-5.21l-4.26-4.25
			l-2.58,2.58c-1.12,1.12-2.939,1.12-4.06,0l-15.63-15.63l2.88-2.88l13.61,13.6c0.689,0.7,1.819,0.7,2.51,0l3.779-3.78
			c0.7-0.69,0.7-1.82,0-2.51l-13.6-13.61l2.88-2.88l15.63,15.63c1.12,1.12,1.12,2.94,0,4.06l-2.58,2.58l4.25,4.26
			c1.75-0.66,3.801-0.29,5.21,1.11c1.91,1.91,1.91,5.02,0,6.93C669.91,12.03,666.8,12.03,664.89,10.12z"/>
		<path style="fill-rule:evenodd;clip-rule:evenodd;fill:#FFFFFF;" d="M714.13,14.26c-1.76-1.76-2.221-4.32-1.4-6.5l-5.32-5.33
			l-3.229,3.24c-1.4,1.39-3.67,1.39-5.07,0l-19.54-19.54l3.601-3.6l17.01,17c0.87,0.87,2.271,0.87,3.14,0l4.73-4.73
			c0.87-0.87,0.87-2.28,0-3.14l-17-17.01l3.6-3.6l19.54,19.54c1.4,1.4,1.4,3.67,0,5.07l-3.239,3.23l5.329,5.32
			c2.181-0.82,4.75-0.36,6.5,1.4c2.391,2.38,2.391,6.26,0,8.65C720.39,16.65,716.52,16.65,714.13,14.26z"/>
	</g>
</g>
</svg>
