<?xml version="1.0" encoding="iso-8859-1"?>
<!-- Generator: Adobe Illustrator 15.0.0, SVG Export Plug-In . SVG Version: 6.00 Build 0)  -->
<!DOCTYPE svg PUBLIC "-//W3C//DTD SVG 1.1//EN" "http://www.w3.org/Graphics/SVG/1.1/DTD/svg11.dtd">
<svg version="1.1" id="Layer_1" xmlns="http://www.w3.org/2000/svg" xmlns:xlink="http://www.w3.org/1999/xlink" x="0px" y="0px"
	 width="612px" height="792px" viewBox="0 0 612 792" style="enable-background:new 0 0 612 792;" xml:space="preserve">
<g>
	<rect x="303.39" y="204.283" width="130.823" height="88.006"/>
	<polygon points="270.685,302.403 270.685,317.978 236.231,317.978 236.231,378.309 260.016,378.309 260.016,384.163 
		264.539,384.163 264.539,365.898 260.016,365.898 260.016,373.786 240.754,373.786 240.754,322.5 270.685,322.5 270.685,347 
		466.919,347 466.919,302.403 	"/>
	<path d="M291.498,356.783l-13.38,87.172h181.37l-13.38-87.172H291.498z M307.939,405.767h-10.8v-10.8h10.8V405.767z
		 M322.664,426.381h-10.799v-10.799h10.799V426.381z M322.664,385.151h-10.799v-10.799h10.799V385.151z M337.388,405.767H326.59
		v-10.8h10.797V405.767z M352.113,426.381h-10.798v-10.799h10.798V426.381z M352.113,385.151h-10.798v-10.799h10.798V385.151z
		 M366.838,405.767h-10.799v-10.8h10.799V405.767z M381.564,426.381h-10.799v-10.799h10.799V426.381z M381.564,385.151h-10.799
		v-10.799h10.799V385.151z M396.287,405.767H385.49v-10.8h10.797V405.767z M411.012,426.381h-10.8v-10.799h10.8V426.381z
		 M411.012,385.151h-10.8v-10.799h10.8V385.151z M425.738,405.767h-10.799v-10.8h10.799V405.767z M440.464,426.381h-10.799v-10.799
		h10.799V426.381z M440.464,385.151h-10.799v-10.799h10.799V385.151z"/>
</g>
</svg>
