<?xml version="1.0" encoding="iso-8859-1"?>
<!-- Generator: Adobe Illustrator 15.0.0, SVG Export Plug-In . SVG Version: 6.00 Build 0)  -->
<!DOCTYPE svg PUBLIC "-//W3C//DTD SVG 1.1//EN" "http://www.w3.org/Graphics/SVG/1.1/DTD/svg11.dtd">
<svg version="1.1" id="Layer_1" xmlns="http://www.w3.org/2000/svg" xmlns:xlink="http://www.w3.org/1999/xlink" x="0px" y="0px"
	 width="612px" height="792px" viewBox="0 0 612 792" style="enable-background:new 0 0 612 792;" xml:space="preserve">
<polygon points="379.333,347.667 357.408,347.667 343.705,347.667 343.705,361.371 343.705,369.593 335.482,369.593 
	321.779,369.593 321.779,383.296 321.779,391.519 313.556,391.519 299.853,391.519 299.853,405.222 299.853,413.445 291.63,413.445 
	277.927,413.445 277.927,427.148 277.927,435.371 269.705,435.371 256.001,435.371 256.001,449.074 256.001,471 269.705,471 
	269.705,449.074 277.927,449.074 291.63,449.074 291.63,435.371 291.63,427.148 299.853,427.148 313.556,427.148 313.556,413.445 
	313.556,405.222 321.779,405.222 335.482,405.222 335.482,391.519 335.482,383.296 343.705,383.296 357.408,383.296 
	357.408,369.593 357.408,361.371 379.333,361.371 "/>
<polygon points="309.579,381.198 309.579,337.197 265.579,337.197 279.094,350.712 243.267,386.539 260.237,403.509 
	296.064,367.683 "/>
</svg>
