<?xml version="1.0" encoding="iso-8859-1"?>
<!-- Generator: Adobe Illustrator 15.0.0, SVG Export Plug-In . SVG Version: 6.00 Build 0)  -->
<!DOCTYPE svg PUBLIC "-//W3C//DTD SVG 1.1//EN" "http://www.w3.org/Graphics/SVG/1.1/DTD/svg11.dtd">
<svg version="1.1" id="&#x421;&#x43B;&#x43E;&#x439;_1"
	 xmlns="http://www.w3.org/2000/svg" xmlns:xlink="http://www.w3.org/1999/xlink" x="0px" y="0px" width="600px" height="600px"
	 viewBox="0 0 600 600" style="enable-background:new 0 0 600 600;" xml:space="preserve">
<g>
	<rect x="454.49" y="-151.35" style="fill-rule:evenodd;clip-rule:evenodd;fill:#000003;" width="299.999" height="300"/>
	<g>
		<g>
			<path style="fill-rule:evenodd;clip-rule:evenodd;fill:#FFFFFF;" d="M484.22,2.56c0.77-0.16,1.37-0.97,1.37-1.94v-3.14h-3.42
				v3.14c0,1.01,0.64,1.84,1.46,1.95c-0.37,0.79-1.01,1.32-1.75,1.32c-1.13,0-2.061-1.28-2.061-2.84v-1.46
				c0.521-0.16,0.91-0.84,0.91-1.66s-0.39-1.5-0.91-1.66v-0.72h-0.47v0.72c-0.52,0.16-0.9,0.84-0.9,1.66c0,0.81,0.381,1.5,0.9,1.66
				v1.46c0,1.56-0.92,2.84-2.06,2.84c-0.73,0-1.38-0.53-1.74-1.32c0.81-0.11,1.45-0.94,1.45-1.95v-3.14h-3.41v3.14
				c0,0.97,0.59,1.78,1.37,1.94c0.37,1.15,1.27,1.96,2.319,1.96h0.011c1.02,0,1.899-0.771,2.3-1.87c0.39,1.1,1.27,1.87,2.29,1.87
				C482.939,4.521,483.84,3.71,484.22,2.56z"/>
		</g>
		<g>
			<path style="fill-rule:evenodd;clip-rule:evenodd;fill:#FFFFFF;" d="M507.66,3.19c0.97-0.2,1.71-1.21,1.71-2.42V-3.16H505.1
				v3.931c0,1.26,0.8,2.29,1.82,2.439c-0.46,0.99-1.26,1.641-2.18,1.641c-1.421,0-2.58-1.59-2.58-3.55v-1.82
				c0.649-0.2,1.14-1.06,1.14-2.08s-0.49-1.87-1.14-2.08v-0.9h-0.58v0.91c-0.65,0.2-1.13,1.05-1.13,2.07s0.479,1.88,1.13,2.08V1.3
				c0,1.96-1.16,3.55-2.58,3.55c-0.92,0-1.721-0.65-2.181-1.641c1.021-0.15,1.82-1.18,1.82-2.439V-3.16h-4.27v3.931
				c0,1.21,0.739,2.22,1.71,2.42c0.47,1.44,1.6,2.45,2.91,2.45H499c1.279,0,2.38-0.96,2.87-2.33c0.49,1.37,1.59,2.33,2.87,2.33
				C506.06,5.64,507.189,4.63,507.66,3.19z"/>
		</g>
		<g>
			<path style="fill-rule:evenodd;clip-rule:evenodd;fill:#FFFFFF;" d="M534.1,3.82c1.17-0.24,2.06-1.45,2.06-2.9V-3.8h-5.119v4.72
				c0,1.51,0.95,2.75,2.18,2.93c-0.55,1.18-1.52,1.96-2.62,1.96c-1.71,0-3.09-1.9-3.09-4.26v-2.18c0.771-0.24,1.36-1.27,1.36-2.49
				c0-1.23-0.59-2.25-1.36-2.5V-6.7h-0.71v1.08c-0.771,0.25-1.36,1.27-1.36,2.5c0,1.22,0.59,2.25,1.36,2.49v2.18
				c0,2.35-1.39,4.26-3.09,4.26h-0.011c-1.09,0-2.05-0.78-2.6-1.96c1.22-0.18,2.17-1.42,2.17-2.93V-3.8h-5.11v4.72
				c0,1.45,0.881,2.66,2.051,2.9c0.569,1.73,1.92,2.94,3.489,2.94h0.011c1.529,0,2.85-1.15,3.439-2.8c0.601,1.65,1.921,2.8,3.45,2.8
				C532.18,6.76,533.54,5.55,534.1,3.82z"/>
		</g>
		<g>
			<path style="fill-rule:evenodd;clip-rule:evenodd;fill:#FFFFFF;" d="M562.21,4.14c1.27-0.26,2.229-1.57,2.229-3.15v-5.11h-5.55
				v5.11c0,1.63,1.04,2.98,2.37,3.17c-0.6,1.29-1.64,2.14-2.83,2.14h-0.01c-1.851,0-3.351-2.07-3.351-4.62v-2.37
				c0.841-0.26,1.48-1.37,1.48-2.7c0-1.32-0.64-2.44-1.48-2.7v-1.17h-0.76v1.17c-0.84,0.271-1.47,1.38-1.47,2.7
				c0,1.33,0.63,2.44,1.47,2.7v2.37c0,2.55-1.5,4.62-3.36,4.62c-1.18,0-2.229-0.85-2.819-2.14c1.32-0.19,2.36-1.54,2.36-3.17v-5.11
				h-5.551v5.11c0,1.58,0.96,2.89,2.221,3.15c0.619,1.87,2.08,3.18,3.789,3.18c1.671,0,3.101-1.24,3.74-3.03
				c0.641,1.79,2.07,3.03,3.73,3.03h0.01C560.14,7.32,561.6,6.01,562.21,4.14z"/>
		</g>
		<g>
			<path style="fill-rule:evenodd;clip-rule:evenodd;fill:#FFFFFF;" d="M593.16,4.771c1.46-0.3,2.569-1.811,2.569-3.63v-5.9h-6.399
				v5.9c0,1.88,1.189,3.44,2.72,3.66c-0.69,1.48-1.89,2.46-3.26,2.46h-0.011c-2.13,0-3.859-2.39-3.859-5.33V-0.8
				c0.97-0.3,1.7-1.58,1.7-3.11c0-1.54-0.73-2.82-1.7-3.12v-1.35h-0.891v1.35c-0.97,0.3-1.689,1.58-1.689,3.12
				c0,1.53,0.72,2.81,1.689,3.11v2.73c0,2.94-1.729,5.33-3.869,5.33c-1.37,0-2.57-0.98-3.261-2.46c1.53-0.22,2.73-1.78,2.73-3.66
				v-5.9h-6.4v5.9c0,1.82,1.11,3.33,2.561,3.63c0.71,2.149,2.399,3.67,4.37,3.67c1.92,0,3.579-1.44,4.319-3.5
				c0.73,2.07,2.391,3.5,4.3,3.5h0.011C590.76,8.44,592.449,6.92,593.16,4.771z"/>
		</g>
		<g>
			<path style="fill-rule:evenodd;clip-rule:evenodd;fill:#FFFFFF;" d="M631.09,6.351c1.939-0.4,3.42-2.42,3.42-4.84v-7.87h-8.53
				v7.87c0,2.51,1.591,4.59,3.63,4.88c-0.92,1.97-2.52,3.28-4.35,3.28c-2.85,0-5.16-3.18-5.16-7.1v-3.64
				c1.29-0.4,2.26-2.11,2.26-4.16c0-2.04-0.97-3.75-2.26-4.15v-1.8h-1.18v1.8c-1.29,0.4-2.26,2.11-2.26,4.15s0.97,3.75,2.26,4.16
				v3.64c0,3.92-2.311,7.1-5.16,7.1c-1.82,0-3.43-1.31-4.35-3.28c2.05-0.29,3.63-2.37,3.63-4.88v-7.87h-8.53v7.87
				c0,2.42,1.479,4.44,3.42,4.84c0.95,2.87,3.2,4.89,5.83,4.89c2.56,0,4.76-1.91,5.75-4.66c0.98,2.75,3.189,4.67,5.74,4.67h0.01
				C627.89,11.25,630.149,9.22,631.09,6.351z"/>
		</g>
		<g>
			<path style="fill-rule:evenodd;clip-rule:evenodd;fill:#FFFFFF;" d="M675.189,7.62c2.33-0.48,4.11-2.91,4.11-5.82v-9.43h-10.24
				V1.8c0,3.02,1.9,5.51,4.36,5.86c-1.101,2.37-3.03,3.94-5.23,3.94c-3.42,0-6.189-3.82-6.189-8.52v-4.37
				c1.55-0.49,2.72-2.54,2.72-4.99c0-2.45-1.17-4.5-2.72-4.99v-2.16h-1.41v2.17c-1.55,0.48-2.72,2.53-2.72,4.98
				c0,2.45,1.17,4.5,2.72,4.99v4.37c0,4.7-2.78,8.52-6.19,8.52h-0.01c-2.189,0-4.11-1.57-5.22-3.94c2.46-0.35,4.359-2.84,4.359-5.86
				v-9.43H643.3V1.8c0,2.91,1.77,5.34,4.1,5.82c1.13,3.44,3.84,5.87,6.99,5.87h0.01c3.07,0,5.71-2.3,6.891-5.6
				c1.18,3.3,3.83,5.6,6.899,5.6C671.35,13.49,674.06,11.06,675.189,7.62z"/>
		</g>
		<g>
			<path style="fill-rule:evenodd;clip-rule:evenodd;fill:#FFFFFF;" d="M727.939,9.51c2.92-0.6,5.141-3.63,5.141-7.27V-9.55h-12.801
				V2.24c0,3.77,2.381,6.89,5.45,7.33c-1.37,2.96-3.79,4.92-6.529,4.92c-4.271,0-7.74-4.77-7.74-10.65v-5.47
				c1.939-0.6,3.399-3.16,3.399-6.23c0-3.06-1.46-5.63-3.399-6.23v-2.7h-1.761v2.7c-1.939,0.61-3.399,3.17-3.399,6.23
				s1.46,5.63,3.399,6.23v5.47c0,5.87-3.47,10.65-7.739,10.65h-0.01c-2.73,0-5.141-1.96-6.521-4.92c3.07-0.44,5.45-3.56,5.45-7.33
				V-9.55h-12.8V2.24c0,3.64,2.22,6.67,5.13,7.27c1.42,4.31,4.8,7.34,8.74,7.34h0.01c3.84,0,7.14-2.87,8.62-6.99
				c1.47,4.12,4.779,6.99,8.609,6.99h0.011C723.15,16.85,726.53,13.82,727.939,9.51z"/>
		</g>
	</g>
</g>
</svg>
