<?xml version="1.0" encoding="iso-8859-1"?>
<!-- Generator: Adobe Illustrator 15.0.0, SVG Export Plug-In . SVG Version: 6.00 Build 0)  -->
<!DOCTYPE svg PUBLIC "-//W3C//DTD SVG 1.1//EN" "http://www.w3.org/Graphics/SVG/1.1/DTD/svg11.dtd">
<svg version="1.1" id="&#x421;&#x43B;&#x43E;&#x439;_1"
	 xmlns="http://www.w3.org/2000/svg" xmlns:xlink="http://www.w3.org/1999/xlink" x="0px" y="0px" width="600px" height="600px"
	 viewBox="0 0 600 600" style="enable-background:new 0 0 600 600;" xml:space="preserve">
<g>
	<rect x="459.296" y="-122.71" style="fill-rule:evenodd;clip-rule:evenodd;fill:#000003;" width="300.001" height="300"/>
	<g>
		<g>
			<g>
				<path style="fill-rule:evenodd;clip-rule:evenodd;fill:#FFFFFF;" d="M477.177,30.63V29.2c0-0.21,0.17-0.38,0.38-0.38h3.729
					c0.2,0,0.37,0.17,0.37,0.38v1.43c0,0.21-0.17,0.38-0.37,0.38h-3.729C477.347,31.01,477.177,30.84,477.177,30.63L477.177,30.63z
					 M482.046,30.63L482.046,30.63V29.2c0-0.21,0.17-0.38,0.381-0.38h3.72c0.21,0,0.38,0.17,0.38,0.38v1.43
					c0,0.21-0.17,0.38-0.38,0.38h-3.72C482.216,31.01,482.046,30.84,482.046,30.63L482.046,30.63z M474.526,30.63L474.526,30.63
					V29.2c0-0.21,0.17-0.38,0.38-0.38h1.51c0.21,0,0.381,0.17,0.381,0.38v1.43c0,0.21-0.171,0.38-0.381,0.38h-1.51
					C474.696,31.01,474.526,30.84,474.526,30.63L474.526,30.63z M474.526,27.95L474.526,27.95v-1.43c0-0.21,0.17-0.38,0.38-0.38
					h3.72c0.21,0,0.381,0.17,0.381,0.38v1.43c0,0.21-0.171,0.38-0.381,0.38h-3.72C474.696,28.33,474.526,28.16,474.526,27.95
					L474.526,27.95z M479.396,27.95L479.396,27.95v-1.43c0-0.21,0.17-0.38,0.37-0.38h3.729c0.21,0,0.38,0.17,0.38,0.38v1.43
					c0,0.21-0.17,0.38-0.38,0.38h-3.729C479.566,28.33,479.396,28.16,479.396,27.95L479.396,27.95z M484.257,27.95L484.257,27.95
					v-1.43c0-0.21,0.17-0.38,0.38-0.38h1.51c0.21,0,0.38,0.17,0.38,0.38v1.43c0,0.21-0.17,0.38-0.38,0.38h-1.51
					C484.427,28.33,484.257,28.16,484.257,27.95L484.257,27.95z M477.177,25.27L477.177,25.27v-1.43c0-0.21,0.17-0.38,0.38-0.38
					h3.729c0.2,0,0.37,0.17,0.37,0.38v1.43c0,0.21-0.17,0.38-0.37,0.38h-3.729C477.347,25.65,477.177,25.48,477.177,25.27
					L477.177,25.27z M482.046,25.27L482.046,25.27v-1.43c0-0.21,0.17-0.38,0.381-0.38h3.72c0.21,0,0.38,0.17,0.38,0.38v1.43
					c0,0.21-0.17,0.38-0.38,0.38h-3.72C482.216,25.65,482.046,25.48,482.046,25.27L482.046,25.27z M474.526,25.27L474.526,25.27
					v-1.43c0-0.21,0.17-0.38,0.38-0.38h1.51c0.21,0,0.381,0.17,0.381,0.38v1.43c0,0.21-0.171,0.38-0.381,0.38h-1.51
					C474.696,25.65,474.526,25.48,474.526,25.27L474.526,25.27z M474.526,22.59L474.526,22.59v-1.43c0-0.21,0.17-0.38,0.38-0.38
					h3.72c0.21,0,0.381,0.17,0.381,0.38v1.43c0,0.21-0.171,0.38-0.381,0.38h-3.72C474.696,22.97,474.526,22.8,474.526,22.59
					L474.526,22.59z M479.396,22.59L479.396,22.59v-1.43c0-0.21,0.17-0.38,0.37-0.38h3.729c0.21,0,0.38,0.17,0.38,0.38v1.43
					c0,0.21-0.17,0.38-0.38,0.38h-3.729C479.566,22.97,479.396,22.8,479.396,22.59L479.396,22.59z M484.257,22.59L484.257,22.59
					v-1.43c0-0.21,0.17-0.38,0.38-0.38h1.51c0.21,0,0.38,0.17,0.38,0.38v1.43c0,0.21-0.17,0.38-0.38,0.38h-1.51
					C484.427,22.97,484.257,22.8,484.257,22.59z"/>
			</g>
		</g>
		<g>
			<g>
				<path style="fill-rule:evenodd;clip-rule:evenodd;fill:#FFFFFF;" d="M499.166,31.82v-1.8c0-0.26,0.21-0.47,0.471-0.47h4.659
					c0.261,0,0.471,0.21,0.471,0.47v1.8c0,0.26-0.21,0.47-0.471,0.47h-4.659C499.376,32.29,499.166,32.08,499.166,31.82
					L499.166,31.82z M505.246,31.82L505.246,31.82v-1.8c0-0.26,0.21-0.47,0.471-0.47h4.659c0.261,0,0.47,0.21,0.47,0.47v1.8
					c0,0.26-0.209,0.47-0.47,0.47h-4.659C505.456,32.29,505.246,32.08,505.246,31.82L505.246,31.82z M495.847,31.82L495.847,31.82
					v-1.8c0-0.26,0.21-0.47,0.47-0.47h1.9c0.26,0,0.47,0.21,0.47,0.47v1.8c0,0.26-0.21,0.47-0.47,0.47h-1.9
					C496.057,32.29,495.847,32.08,495.847,31.82L495.847,31.82z M495.847,28.47L495.847,28.47v-1.8c0-0.26,0.21-0.47,0.47-0.47h4.66
					c0.26,0,0.47,0.209,0.47,0.47v1.8c0,0.26-0.21,0.47-0.47,0.47h-4.66C496.057,28.94,495.847,28.73,495.847,28.47L495.847,28.47z
					 M501.927,28.47L501.927,28.47v-1.8c0-0.26,0.22-0.47,0.479-0.47h4.66c0.25,0,0.47,0.209,0.47,0.47v1.8
					c0,0.26-0.22,0.47-0.47,0.47h-4.66C502.146,28.94,501.927,28.73,501.927,28.47L501.927,28.47z M508.017,28.47L508.017,28.47
					v-1.8c0-0.26,0.21-0.47,0.47-0.47h1.89c0.261,0,0.47,0.209,0.47,0.47v1.8c0,0.26-0.209,0.47-0.47,0.47h-1.89
					C508.227,28.94,508.017,28.73,508.017,28.47L508.017,28.47z M499.166,25.11L499.166,25.11v-1.79c0-0.26,0.21-0.47,0.471-0.47
					h4.659c0.261,0,0.471,0.209,0.471,0.47v1.79c0,0.26-0.21,0.48-0.471,0.48h-4.659C499.376,25.59,499.166,25.37,499.166,25.11
					L499.166,25.11z M505.246,25.11L505.246,25.11v-1.79c0-0.26,0.21-0.47,0.471-0.47h4.659c0.261,0,0.47,0.209,0.47,0.47v1.79
					c0,0.26-0.209,0.48-0.47,0.48h-4.659C505.456,25.59,505.246,25.37,505.246,25.11L505.246,25.11z M495.847,25.11L495.847,25.11
					v-1.79c0-0.26,0.21-0.47,0.47-0.47h1.9c0.26,0,0.47,0.209,0.47,0.47v1.79c0,0.26-0.21,0.48-0.47,0.48h-1.9
					C496.057,25.59,495.847,25.37,495.847,25.11L495.847,25.11z M495.847,21.76L495.847,21.76v-1.79c0-0.26,0.21-0.47,0.47-0.47
					h4.66c0.26,0,0.47,0.21,0.47,0.47v1.79c0,0.26-0.21,0.47-0.47,0.47h-4.66C496.057,22.23,495.847,22.02,495.847,21.76
					L495.847,21.76z M501.927,21.76L501.927,21.76v-1.79c0-0.26,0.22-0.47,0.479-0.47h4.66c0.25,0,0.47,0.21,0.47,0.47v1.79
					c0,0.26-0.22,0.47-0.47,0.47h-4.66C502.146,22.23,501.927,22.02,501.927,21.76L501.927,21.76z M508.017,21.76L508.017,21.76
					v-1.79c0-0.26,0.21-0.47,0.47-0.47h1.89c0.261,0,0.47,0.21,0.47,0.47v1.79c0,0.26-0.209,0.47-0.47,0.47h-1.89
					C508.227,22.23,508.017,22.02,508.017,21.76z"/>
			</g>
		</g>
		<g>
			<g>
				<path style="fill-rule:evenodd;clip-rule:evenodd;fill:#FFFFFF;" d="M551.807,33.59v-2.33c0-0.33,0.27-0.61,0.609-0.61h6.051
					c0.34,0,0.619,0.28,0.619,0.61v2.33c0,0.34-0.279,0.62-0.619,0.62h-6.051C552.076,34.21,551.807,33.93,551.807,33.59
					L551.807,33.59z M559.706,33.59L559.706,33.59v-2.33c0-0.33,0.28-0.61,0.62-0.61h6.05c0.341,0,0.61,0.28,0.61,0.61v2.33
					c0,0.34-0.27,0.62-0.61,0.62h-6.05C559.986,34.21,559.706,33.93,559.706,33.59L559.706,33.59z M547.486,33.59L547.486,33.59
					v-2.33c0-0.33,0.28-0.61,0.62-0.61h2.46c0.34,0,0.61,0.28,0.61,0.61v2.33c0,0.34-0.271,0.61-0.61,0.61h-2.46
					C547.767,34.2,547.486,33.93,547.486,33.59L547.486,33.59z M547.486,29.24L547.486,29.24v-2.33c0-0.34,0.28-0.62,0.62-0.62h6.05
					c0.34,0,0.62,0.28,0.62,0.62v2.33c0,0.34-0.28,0.61-0.62,0.61h-6.05C547.767,29.85,547.486,29.58,547.486,29.24L547.486,29.24z
					 M555.396,29.24L555.396,29.24v-2.33c0-0.34,0.28-0.62,0.61-0.62h6.06c0.34,0,0.609,0.28,0.609,0.62v2.33
					c0,0.34-0.27,0.61-0.609,0.61h-6.06C555.677,29.85,555.396,29.58,555.396,29.24L555.396,29.24z M563.307,29.24L563.307,29.24
					v-2.33c0-0.34,0.27-0.62,0.609-0.62h2.46c0.341,0,0.61,0.28,0.61,0.62v2.33c0,0.34-0.27,0.61-0.61,0.61h-2.46
					C563.576,29.85,563.307,29.58,563.307,29.24L563.307,29.24z M551.807,24.88L551.807,24.88v-2.33c0-0.34,0.27-0.61,0.609-0.61
					h6.051c0.34,0,0.619,0.27,0.619,0.61v2.33c0,0.34-0.279,0.61-0.619,0.61h-6.051C552.076,25.49,551.807,25.22,551.807,24.88
					L551.807,24.88z M559.706,24.88L559.706,24.88v-2.33c0-0.34,0.28-0.61,0.62-0.61h6.05c0.341,0,0.61,0.27,0.61,0.61v2.33
					c0,0.34-0.27,0.61-0.61,0.61h-6.05C559.986,25.49,559.706,25.22,559.706,24.88L559.706,24.88z M547.486,24.88L547.486,24.88
					v-2.33c0-0.34,0.28-0.61,0.62-0.61h2.46c0.34,0,0.61,0.27,0.61,0.61v2.33c0,0.34-0.271,0.61-0.61,0.61h-2.46
					C547.767,25.49,547.486,25.22,547.486,24.88L547.486,24.88z M547.486,20.52L547.486,20.52v-2.33c0-0.33,0.28-0.61,0.62-0.61
					h6.05c0.34,0,0.62,0.28,0.62,0.61v2.33c0,0.34-0.28,0.62-0.62,0.62h-6.05C547.767,21.14,547.486,20.86,547.486,20.52
					L547.486,20.52z M555.396,20.52L555.396,20.52v-2.33c0-0.33,0.28-0.61,0.61-0.61h6.06c0.34,0,0.609,0.28,0.609,0.61v2.33
					c0,0.34-0.27,0.62-0.609,0.62h-6.06C555.677,21.14,555.396,20.86,555.396,20.52L555.396,20.52z M563.307,20.52L563.307,20.52
					v-2.33c0-0.33,0.27-0.61,0.609-0.61h2.46c0.341,0,0.61,0.28,0.61,0.61v2.33c0,0.34-0.27,0.62-0.61,0.62h-2.46
					C563.576,21.14,563.307,20.86,563.307,20.52z"/>
			</g>
		</g>
		<g>
			<g>
				<path style="fill-rule:evenodd;clip-rule:evenodd;fill:#FFFFFF;" d="M524.146,33v-2.15c0-0.31,0.26-0.56,0.57-0.56h5.59
					c0.31,0,0.56,0.25,0.56,0.56V33c0,0.31-0.25,0.57-0.56,0.57h-5.59C524.406,33.57,524.146,33.31,524.146,33L524.146,33z
					 M531.446,33L531.446,33v-2.15c0-0.31,0.25-0.56,0.57-0.56h5.59c0.31,0,0.56,0.25,0.56,0.56V33c0,0.31-0.25,0.57-0.56,0.57
					h-5.59C531.696,33.57,531.446,33.31,531.446,33L531.446,33z M520.166,33L520.166,33v-2.15c0-0.31,0.261-0.56,0.57-0.56h2.27
					c0.311,0,0.57,0.25,0.57,0.56V33c0,0.31-0.26,0.56-0.57,0.56h-2.27C520.427,33.56,520.166,33.31,520.166,33L520.166,33z
					 M520.166,28.98L520.166,28.98v-2.15c0-0.31,0.261-0.57,0.57-0.57h5.59c0.311,0,0.561,0.26,0.561,0.57v2.15
					c0,0.31-0.25,0.57-0.561,0.57h-5.59C520.427,29.55,520.166,29.29,520.166,28.98L520.166,28.98z M527.467,28.98L527.467,28.98
					v-2.15c0-0.31,0.26-0.57,0.569-0.57h5.59c0.311,0,0.561,0.26,0.561,0.57v2.15c0,0.31-0.25,0.57-0.561,0.57h-5.59
					C527.727,29.55,527.467,29.29,527.467,28.98L527.467,28.98z M534.767,28.98L534.767,28.98v-2.15c0-0.31,0.26-0.57,0.569-0.57
					h2.271c0.31,0,0.56,0.26,0.56,0.57v2.15c0,0.31-0.25,0.57-0.56,0.57h-2.271C535.026,29.55,534.767,29.29,534.767,28.98
					L534.767,28.98z M524.146,24.96L524.146,24.96v-2.15c0-0.31,0.26-0.569,0.57-0.569h5.59c0.31,0,0.56,0.26,0.56,0.569v2.15
					c0,0.31-0.25,0.56-0.56,0.56h-5.59C524.406,25.52,524.146,25.27,524.146,24.96L524.146,24.96z M531.446,24.96L531.446,24.96
					v-2.15c0-0.31,0.25-0.569,0.57-0.569h5.59c0.31,0,0.56,0.26,0.56,0.569v2.15c0,0.31-0.25,0.56-0.56,0.56h-5.59
					C531.696,25.52,531.446,25.27,531.446,24.96L531.446,24.96z M520.166,24.96L520.166,24.96v-2.15c0-0.31,0.261-0.569,0.57-0.569
					h2.27c0.311,0,0.57,0.26,0.57,0.569v2.15c0,0.31-0.26,0.56-0.57,0.56h-2.27C520.427,25.52,520.166,25.27,520.166,24.96
					L520.166,24.96z M520.166,20.94L520.166,20.94v-2.15c0-0.32,0.261-0.57,0.57-0.57h5.59c0.311,0,0.561,0.25,0.561,0.57v2.15
					c0,0.31-0.25,0.56-0.561,0.56h-5.59C520.427,21.5,520.166,21.25,520.166,20.94L520.166,20.94z M527.467,20.94L527.467,20.94
					v-2.15c0-0.32,0.26-0.57,0.569-0.57h5.59c0.311,0,0.561,0.25,0.561,0.57v2.15c0,0.31-0.25,0.56-0.561,0.56h-5.59
					C527.727,21.5,527.467,21.25,527.467,20.94L527.467,20.94z M534.767,20.94L534.767,20.94v-2.15c0-0.32,0.26-0.57,0.569-0.57
					h2.271c0.31,0,0.56,0.25,0.56,0.57v2.15c0,0.31-0.25,0.56-0.56,0.56h-2.271C535.026,21.5,534.767,21.25,534.767,20.94z"/>
			</g>
		</g>
		<g>
			<g>
				<path style="fill-rule:evenodd;clip-rule:evenodd;fill:#FFFFFF;" d="M581.286,34.78v-2.69c0-0.39,0.32-0.71,0.71-0.71h6.98
					c0.39,0,0.71,0.32,0.71,0.71v2.69c0,0.39-0.32,0.71-0.71,0.71h-6.98C581.606,35.49,581.286,35.17,581.286,34.78L581.286,34.78z
					 M590.406,34.78L590.406,34.78v-2.69c0-0.39,0.32-0.71,0.71-0.71h6.99c0.39,0,0.7,0.32,0.7,0.71v2.69
					c0,0.39-0.311,0.71-0.7,0.71h-6.99C590.727,35.49,590.406,35.17,590.406,34.78L590.406,34.78z M576.307,34.78L576.307,34.78
					v-2.69c0-0.39,0.32-0.71,0.71-0.71h2.84c0.39,0,0.71,0.32,0.71,0.71v2.69c0,0.39-0.32,0.7-0.71,0.7h-2.84
					C576.627,35.479,576.307,35.17,576.307,34.78L576.307,34.78z M576.307,29.75L576.307,29.75v-2.69c0-0.39,0.32-0.7,0.71-0.7h6.99
					c0.39,0,0.71,0.31,0.71,0.7v2.69c0,0.39-0.32,0.71-0.71,0.71h-6.99C576.627,30.46,576.307,30.14,576.307,29.75L576.307,29.75z
					 M585.437,29.75L585.437,29.75v-2.69c0-0.39,0.319-0.7,0.7-0.7h6.989c0.391,0,0.71,0.31,0.71,0.7v2.69
					c0,0.39-0.319,0.71-0.71,0.71h-6.989C585.756,30.46,585.437,30.14,585.437,29.75L585.437,29.75z M594.557,29.75L594.557,29.75
					v-2.69c0-0.39,0.32-0.7,0.71-0.7h2.84c0.39,0,0.7,0.31,0.7,0.7v2.69c0,0.39-0.311,0.71-0.7,0.71h-2.84
					C594.877,30.46,594.557,30.14,594.557,29.75L594.557,29.75z M581.286,24.73L581.286,24.73v-2.69c0-0.39,0.32-0.71,0.71-0.71
					h6.98c0.39,0,0.71,0.32,0.71,0.71v2.69c0,0.38-0.32,0.7-0.71,0.7h-6.98C581.606,25.43,581.286,25.11,581.286,24.73
					L581.286,24.73z M590.406,24.73L590.406,24.73v-2.69c0-0.39,0.32-0.71,0.71-0.71h6.99c0.39,0,0.7,0.32,0.7,0.71v2.69
					c0,0.38-0.311,0.7-0.7,0.7h-6.99C590.727,25.43,590.406,25.11,590.406,24.73L590.406,24.73z M576.307,24.73L576.307,24.73v-2.69
					c0-0.39,0.32-0.71,0.71-0.71h2.84c0.39,0,0.71,0.32,0.71,0.71v2.69c0,0.38-0.32,0.7-0.71,0.7h-2.84
					C576.627,25.43,576.307,25.11,576.307,24.73L576.307,24.73z M576.307,19.7L576.307,19.7v-2.69c0-0.39,0.32-0.71,0.71-0.71h6.99
					c0.39,0,0.71,0.32,0.71,0.71v2.69c0,0.39-0.32,0.7-0.71,0.7h-6.99C576.627,20.4,576.307,20.09,576.307,19.7L576.307,19.7z
					 M585.437,19.7L585.437,19.7v-2.69c0-0.39,0.319-0.71,0.7-0.71h6.989c0.391,0,0.71,0.32,0.71,0.71v2.69
					c0,0.39-0.319,0.7-0.71,0.7h-6.989C585.756,20.4,585.437,20.09,585.437,19.7L585.437,19.7z M594.557,19.7L594.557,19.7v-2.69
					c0-0.39,0.32-0.71,0.71-0.71h2.84c0.39,0,0.7,0.32,0.7,0.71v2.69c0,0.39-0.311,0.7-0.7,0.7h-2.84
					C594.877,20.4,594.557,20.09,594.557,19.7z"/>
			</g>
		</g>
		<g>
			<g>
				<path style="fill-rule:evenodd;clip-rule:evenodd;fill:#FFFFFF;" d="M614.767,37.74v-3.59c0-0.51,0.42-0.94,0.939-0.94h9.32
					c0.521,0,0.94,0.43,0.94,0.94v3.59c0,0.52-0.42,0.94-0.94,0.94h-9.32C615.187,38.68,614.767,38.26,614.767,37.74L614.767,37.74z
					 M626.927,37.74L626.927,37.74v-3.59c0-0.51,0.43-0.94,0.949-0.94h9.311c0.52,0,0.95,0.43,0.95,0.94v3.59
					c0,0.52-0.431,0.94-0.95,0.94h-9.311C627.356,38.68,626.927,38.26,626.927,37.74L626.927,37.74z M608.137,37.74L608.137,37.74
					v-3.59c0-0.51,0.42-0.94,0.939-0.94h3.78c0.52,0,0.95,0.43,0.95,0.94v3.59c0,0.52-0.431,0.94-0.95,0.94h-3.78
					C608.557,38.68,608.137,38.26,608.137,37.74L608.137,37.74z M608.137,31.04L608.137,31.04v-3.59c0-0.52,0.42-0.94,0.939-0.94
					h9.32c0.52,0,0.939,0.42,0.939,0.94v3.59c0,0.52-0.42,0.94-0.939,0.94h-9.32C608.557,31.98,608.137,31.56,608.137,31.04
					L608.137,31.04z M620.297,31.04L620.297,31.04v-3.59c0-0.52,0.42-0.94,0.939-0.94h9.32c0.52,0,0.939,0.42,0.939,0.94v3.59
					c0,0.52-0.42,0.94-0.939,0.94h-9.32C620.717,31.98,620.297,31.56,620.297,31.04L620.297,31.04z M632.467,31.04L632.467,31.04
					v-3.59c0-0.52,0.419-0.94,0.939-0.94h3.78c0.52,0,0.95,0.42,0.95,0.94v3.59c0,0.52-0.431,0.94-0.95,0.94h-3.78
					C632.886,31.98,632.467,31.56,632.467,31.04L632.467,31.04z M614.767,24.34L614.767,24.34v-3.59c0-0.52,0.42-0.94,0.939-0.94
					h9.32c0.521,0,0.94,0.42,0.94,0.94v3.59c0,0.51-0.42,0.94-0.94,0.94h-9.32C615.187,25.28,614.767,24.85,614.767,24.34
					L614.767,24.34z M626.927,24.34L626.927,24.34v-3.59c0-0.52,0.43-0.94,0.949-0.94h9.311c0.52,0,0.95,0.42,0.95,0.94v3.59
					c0,0.51-0.431,0.94-0.95,0.94h-9.311C627.356,25.28,626.927,24.85,626.927,24.34L626.927,24.34z M608.137,24.34L608.137,24.34
					v-3.59c0-0.52,0.42-0.94,0.939-0.94h3.78c0.52,0,0.95,0.42,0.95,0.94v3.59c0,0.51-0.431,0.94-0.95,0.94h-3.78
					C608.557,25.28,608.137,24.85,608.137,24.34L608.137,24.34z M608.137,17.63L608.137,17.63v-3.58c0-0.52,0.42-0.94,0.939-0.94
					h9.32c0.52,0,0.939,0.42,0.939,0.94v3.58c0,0.52-0.42,0.94-0.939,0.94h-9.32C608.557,18.57,608.137,18.15,608.137,17.63
					L608.137,17.63z M620.297,17.63L620.297,17.63v-3.58c0-0.52,0.42-0.94,0.939-0.94h9.32c0.52,0,0.939,0.42,0.939,0.94v3.58
					c0,0.52-0.42,0.94-0.939,0.94h-9.32C620.717,18.57,620.297,18.15,620.297,17.63L620.297,17.63z M632.467,17.63L632.467,17.63
					v-3.58c0-0.52,0.419-0.94,0.939-0.94h3.78c0.52,0,0.95,0.42,0.95,0.94v3.58c0,0.52-0.431,0.94-0.95,0.94h-3.78
					C632.886,18.57,632.467,18.15,632.467,17.63z"/>
			</g>
		</g>
		<g>
			<g>
				<path style="fill-rule:evenodd;clip-rule:evenodd;fill:#FFFFFF;" d="M655.416,40.11v-4.3c0-0.63,0.51-1.13,1.131-1.13h11.18
					c0.619,0,1.13,0.5,1.13,1.13v4.3c0,0.62-0.511,1.13-1.13,1.13h-11.18C655.926,41.24,655.416,40.73,655.416,40.11L655.416,40.11z
					 M670.007,40.11L670.007,40.11v-4.3c0-0.63,0.51-1.13,1.14-1.13h11.18c0.62,0,1.13,0.5,1.13,1.13v4.3
					c0,0.62-0.51,1.13-1.13,1.13h-11.18C670.517,41.24,670.007,40.73,670.007,40.11L670.007,40.11z M647.456,40.11L647.456,40.11
					v-4.3c0-0.63,0.5-1.13,1.131-1.13h4.54c0.629,0,1.129,0.5,1.129,1.13v4.3c0,0.62-0.5,1.13-1.129,1.13h-4.54
					C647.956,41.24,647.456,40.73,647.456,40.11L647.456,40.11z M647.456,32.07L647.456,32.07v-4.31c0-0.62,0.5-1.13,1.131-1.13
					h11.18c0.62,0,1.13,0.51,1.13,1.13v4.31c0,0.62-0.51,1.13-1.13,1.13h-11.18C647.956,33.2,647.456,32.69,647.456,32.07
					L647.456,32.07z M662.057,32.07L662.057,32.07v-4.31c0-0.62,0.5-1.13,1.13-1.13h11.18c0.62,0,1.13,0.51,1.13,1.13v4.31
					c0,0.62-0.51,1.13-1.13,1.13h-11.18C662.557,33.2,662.057,32.69,662.057,32.07L662.057,32.07z M676.656,32.07L676.656,32.07
					v-4.31c0-0.62,0.5-1.13,1.12-1.13h4.55c0.62,0,1.13,0.51,1.13,1.13v4.31c0,0.62-0.51,1.13-1.13,1.13h-4.55
					C677.156,33.2,676.656,32.69,676.656,32.07L676.656,32.07z M655.416,24.02L655.416,24.02v-4.3c0-0.621,0.51-1.13,1.131-1.13
					h11.18c0.619,0,1.13,0.51,1.13,1.13v4.3c0,0.63-0.511,1.13-1.13,1.13h-11.18C655.926,25.15,655.416,24.65,655.416,24.02
					L655.416,24.02z M670.007,24.02L670.007,24.02v-4.3c0-0.621,0.51-1.13,1.14-1.13h11.18c0.62,0,1.13,0.51,1.13,1.13v4.3
					c0,0.63-0.51,1.13-1.13,1.13h-11.18C670.517,25.15,670.007,24.65,670.007,24.02L670.007,24.02z M647.456,24.02L647.456,24.02
					v-4.3c0-0.621,0.5-1.13,1.131-1.13h4.54c0.629,0,1.129,0.51,1.129,1.13v4.3c0,0.63-0.5,1.13-1.129,1.13h-4.54
					C647.956,25.15,647.456,24.65,647.456,24.02L647.456,24.02z M647.456,15.98L647.456,15.98v-4.3c0-0.63,0.5-1.13,1.131-1.13
					h11.18c0.62,0,1.13,0.5,1.13,1.13v4.3c0,0.62-0.51,1.13-1.13,1.13h-11.18C647.956,17.11,647.456,16.6,647.456,15.98
					L647.456,15.98z M662.057,15.98L662.057,15.98v-4.3c0-0.63,0.5-1.13,1.13-1.13h11.18c0.62,0,1.13,0.5,1.13,1.13v4.3
					c0,0.62-0.51,1.13-1.13,1.13h-11.18C662.557,17.11,662.057,16.6,662.057,15.98L662.057,15.98z M676.656,15.98L676.656,15.98
					v-4.3c0-0.63,0.5-1.13,1.12-1.13h4.55c0.62,0,1.13,0.5,1.13,1.13v4.3c0,0.62-0.51,1.13-1.13,1.13h-4.55
					C677.156,17.11,676.656,16.6,676.656,15.98z"/>
			</g>
		</g>
		<g>
			<g>
				<path style="fill-rule:evenodd;clip-rule:evenodd;fill:#FFFFFF;" d="M702.727,43.67v-5.38c0-0.78,0.63-1.419,1.41-1.419h13.979
					c0.771,0,1.41,0.64,1.41,1.419v5.38c0,0.77-0.64,1.41-1.41,1.41h-13.979C703.356,45.08,702.727,44.44,702.727,43.67
					L702.727,43.67z M720.967,43.67L720.967,43.67v-5.38c0-0.78,0.64-1.419,1.42-1.419h13.979c0.771,0,1.41,0.64,1.41,1.419v5.38
					c0,0.77-0.64,1.41-1.41,1.41h-13.979C721.606,45.08,720.967,44.44,720.967,43.67L720.967,43.67z M692.776,43.66L692.776,43.66
					V38.29c0-0.78,0.63-1.419,1.41-1.419h5.68c0.78,0,1.41,0.64,1.41,1.419v5.371c0,0.78-0.63,1.41-1.41,1.41h-5.68
					C693.406,45.07,692.776,44.44,692.776,43.66L692.776,43.66z M692.776,33.61L692.776,33.61v-5.38c0-0.78,0.63-1.41,1.41-1.41
					h13.979c0.78,0,1.41,0.63,1.41,1.41v5.38c0,0.78-0.63,1.41-1.41,1.41h-13.979C693.406,35.02,692.776,34.39,692.776,33.61
					L692.776,33.61z M711.026,33.61L711.026,33.61v-5.38c0-0.78,0.63-1.41,1.41-1.41h13.979c0.78,0,1.41,0.63,1.41,1.41v5.38
					c0,0.78-0.63,1.41-1.41,1.41h-13.979C711.656,35.02,711.026,34.39,711.026,33.61L711.026,33.61z M729.276,33.61L729.276,33.61
					v-5.38c0-0.78,0.63-1.41,1.41-1.41h5.68c0.771,0,1.41,0.63,1.41,1.41v5.38c0,0.78-0.64,1.41-1.41,1.41h-5.68
					C729.906,35.02,729.276,34.39,729.276,33.61L729.276,33.61z M702.727,23.56L702.727,23.56v-5.38c0-0.78,0.63-1.41,1.41-1.41
					h13.979c0.771,0,1.41,0.63,1.41,1.41v5.38c0,0.78-0.64,1.41-1.41,1.41h-13.979C703.356,24.97,702.727,24.34,702.727,23.56
					L702.727,23.56z M720.967,23.56L720.967,23.56v-5.38c0-0.78,0.64-1.41,1.42-1.41h13.979c0.771,0,1.41,0.63,1.41,1.41v5.38
					c0,0.78-0.64,1.41-1.41,1.41h-13.979C721.606,24.97,720.967,24.34,720.967,23.56L720.967,23.56z M692.776,23.56L692.776,23.56
					v-5.38c0-0.78,0.63-1.41,1.41-1.41h5.68c0.78,0,1.41,0.63,1.41,1.41v5.38c0,0.78-0.63,1.41-1.41,1.41h-5.68
					C693.406,24.97,692.776,24.34,692.776,23.56L692.776,23.56z M692.776,13.5L692.776,13.5V8.12c0-0.77,0.63-1.41,1.41-1.41h13.979
					c0.78,0,1.41,0.64,1.41,1.41v5.38c0,0.78-0.63,1.42-1.41,1.42h-13.979C693.406,14.92,692.776,14.28,692.776,13.5L692.776,13.5z
					 M711.026,13.5L711.026,13.5V8.12c0-0.77,0.63-1.41,1.41-1.41h13.979c0.78,0,1.41,0.64,1.41,1.41v5.38
					c0,0.78-0.63,1.42-1.41,1.42h-13.979C711.656,14.92,711.026,14.28,711.026,13.5L711.026,13.5z M729.276,13.5L729.276,13.5V8.12
					c0-0.77,0.63-1.41,1.41-1.41h5.68c0.771,0,1.41,0.64,1.41,1.41v5.38c0,0.78-0.64,1.42-1.41,1.42h-5.68
					C729.906,14.92,729.276,14.28,729.276,13.5z"/>
			</g>
		</g>
	</g>
</g>
</svg>
