<?xml version="1.0" encoding="iso-8859-1"?>
<!-- Generator: Adobe Illustrator 15.0.0, SVG Export Plug-In . SVG Version: 6.00 Build 0)  -->
<!DOCTYPE svg PUBLIC "-//W3C//DTD SVG 1.1//EN" "http://www.w3.org/Graphics/SVG/1.1/DTD/svg11.dtd">
<svg version="1.1" id="Layer_1" xmlns="http://www.w3.org/2000/svg" xmlns:xlink="http://www.w3.org/1999/xlink" x="0px" y="0px"
	 width="612px" height="792px" viewBox="0 0 612 792" style="enable-background:new 0 0 612 792;" xml:space="preserve">
<path style="fill:none;" d="M248.115,489.61c2.384,0.987,5.183-0.304,7.341-5.513c2.157-5.209,0.473-13.352,0.473-13.352
	s-6.948,4.567-9.105,9.776C244.665,485.731,245.732,488.623,248.115,489.61z"/>
<path style="fill:none;" d="M278.099,560.682c4.78,0,8.655-4.193,8.655-14.64s-8.655-23.188-8.655-23.188
	s-8.656,12.742-8.656,23.188S273.318,560.682,278.099,560.682z"/>
<path style="fill:none;" d="M220.153,534.889c-3.998,9.651-2.021,15.008,2.395,16.837c4.416,1.83,9.602-0.562,13.6-10.212
	c3.997-9.651,0.876-24.736,0.876-24.736S224.15,525.238,220.153,534.889z"/>
<path style="fill:none;" d="M393.743,476.235c9.65,3.997,15.008,2.021,16.837-2.396c1.83-4.416-0.562-9.601-10.213-13.599
	c-9.65-3.997-24.735-0.877-24.735-0.877S384.092,472.237,393.743,476.235z"/>
<path style="fill:none;" d="M144.662,473.841c1.83,4.416,7.187,6.392,16.838,2.395c9.65-3.998,18.111-16.871,18.111-16.871
	s-15.086-3.12-24.736,0.877S142.833,469.424,144.662,473.841z"/>
<path style="fill:none;" d="M223.173,471.692c1.824,1.824,4.904,1.703,8.891-2.283c3.986-3.987,5.546-12.153,5.546-12.153
	s-8.167,1.56-12.153,5.546C221.47,466.789,221.349,469.868,223.173,471.692z"/>
<path style="fill:none;" d="M278.099,494.443c2.58,0,4.671-2.264,4.671-7.901s-4.671-12.516-4.671-12.516s-4.673,6.878-4.673,12.516
	S275.518,494.443,278.099,494.443z"/>
<path style="fill:none;" d="M176.336,518.529c3.38,3.381,9.085,3.156,16.472-4.23s10.276-22.518,10.276-22.518
	s-15.131,2.891-22.518,10.276C173.18,509.444,172.955,515.149,176.336,518.529z"/>
<path style="fill:none;" d="M215.166,448.864c5.208-2.157,9.775-9.105,9.775-9.105s-8.143-1.685-13.351,0.473
	c-5.209,2.158-6.5,4.957-5.513,7.341C207.064,449.955,209.956,451.022,215.166,448.864z"/>
<path style="fill:none;" d="M379.86,518.529c3.381-3.38,3.155-9.085-4.231-16.472c-7.386-7.386-22.517-10.276-22.517-10.276
	s2.89,15.131,10.275,22.518C370.774,521.686,376.48,521.91,379.86,518.529z"/>
<path style="fill:none;" d="M340.517,448.865c5.208,2.157,8.101,1.09,9.088-1.293c0.987-2.384-0.304-5.183-5.513-7.34
	c-5.208-2.157-13.351-0.474-13.351-0.474S335.308,446.707,340.517,448.865z"/>
<path style="fill:none;" d="M307.566,489.61c2.384-0.987,3.45-3.879,1.292-9.088c-2.157-5.209-9.105-9.775-9.105-9.775
	s-1.685,8.142,0.474,13.351C302.384,489.308,305.183,490.598,307.566,489.61z"/>
<path style="fill:none;" d="M333.023,471.692c1.825-1.824,1.703-4.903-2.284-8.891c-3.986-3.986-12.153-5.546-12.153-5.546
	s1.56,8.166,5.547,12.153C328.119,473.396,331.199,473.517,333.023,471.692z"/>
<path style="fill:none;" d="M278.099,605.758c104.376,0,188.99-84.614,188.99-188.99c0-0.496-0.015-0.989-0.019-1.484h-17.498
	c0.004,0.495,0.019,0.988,0.019,1.484c0,94.712-76.78,171.492-171.492,171.492s-171.492-76.78-171.492-171.492
	c0-0.496,0.015-0.989,0.019-1.484H89.126c-0.003,0.495-0.019,0.988-0.019,1.484C89.107,521.144,173.722,605.758,278.099,605.758z"/>
<path style="fill:none;" d="M332.695,551.727c4.416-1.83,6.392-7.187,2.394-16.838c-3.997-9.65-16.87-18.111-16.87-18.111
	s-3.121,15.085,0.877,24.736C323.093,551.165,328.279,553.556,332.695,551.727z"/>
<path d="M467.089,416.768c0,104.376-84.614,188.99-188.99,188.99c-104.377,0-188.991-84.614-188.991-188.99
	c0-0.496,0.015-0.989,0.019-1.484h-30c-0.003,0.495-0.018,0.989-0.018,1.484c0,29.55,5.794,58.232,17.222,85.25
	c11.031,26.081,26.817,49.497,46.92,69.6c20.102,20.102,43.519,35.888,69.6,46.919c27.018,11.428,55.699,17.222,85.25,17.222
	c29.55,0,58.232-5.794,85.25-17.222c26.081-11.031,49.497-26.817,69.6-46.919c20.102-20.103,35.888-43.519,46.919-69.6
	c11.428-27.018,17.222-55.7,17.222-85.25c0-0.496-0.015-0.989-0.018-1.484h-30C467.074,415.778,467.089,416.271,467.089,416.768z"/>
<path d="M106.606,416.768c0,94.712,76.78,171.492,171.492,171.492s171.492-76.78,171.492-171.492c0-0.496-0.015-0.989-0.019-1.484
	H106.625C106.621,415.778,106.606,416.271,106.606,416.768z M400.367,460.241c9.651,3.998,12.043,9.183,10.213,13.599
	c-1.829,4.417-7.187,6.393-16.837,2.396c-9.651-3.998-18.111-16.871-18.111-16.871S390.717,456.244,400.367,460.241z
	 M375.629,502.058c7.387,7.387,7.612,13.092,4.231,16.472c-3.38,3.381-9.086,3.156-16.473-4.23
	c-7.386-7.387-10.275-22.518-10.275-22.518S368.243,494.672,375.629,502.058z M344.092,440.232c5.209,2.157,6.5,4.956,5.513,7.34
	c-0.987,2.383-3.88,3.45-9.088,1.293c-5.209-2.158-9.775-9.106-9.775-9.106S338.883,438.075,344.092,440.232z M330.739,462.802
	c3.987,3.987,4.109,7.066,2.284,8.891c-1.824,1.824-4.904,1.703-8.891-2.283c-3.987-3.987-5.547-12.153-5.547-12.153
	S326.753,458.815,330.739,462.802z M318.219,516.777c0,0,12.873,8.461,16.87,18.111c3.998,9.651,2.022,15.008-2.394,16.838
	c-4.416,1.829-9.603-0.562-13.6-10.213C315.098,531.862,318.219,516.777,318.219,516.777z M299.753,470.747
	c0,0,6.948,4.566,9.105,9.775c2.158,5.209,1.092,8.101-1.292,9.088s-5.183-0.303-7.34-5.513
	C298.068,478.889,299.753,470.747,299.753,470.747z M278.099,474.026c0,0,4.671,6.878,4.671,12.516s-2.091,7.901-4.671,7.901
	c-2.581,0-4.673-2.264-4.673-7.901S278.099,474.026,278.099,474.026z M278.099,522.854c0,0,8.655,12.742,8.655,23.188
	s-3.875,14.64-8.655,14.64s-8.656-4.193-8.656-14.64S278.099,522.854,278.099,522.854z M246.823,480.522
	c2.157-5.209,9.105-9.776,9.105-9.776s1.685,8.143-0.473,13.352c-2.158,5.209-4.957,6.5-7.341,5.513
	C245.732,488.623,244.665,485.731,246.823,480.522z M236.147,541.514c-3.998,9.65-9.184,12.042-13.6,10.212
	c-4.416-1.829-6.393-7.186-2.395-16.837c3.997-9.65,16.87-18.111,16.87-18.111S240.145,531.862,236.147,541.514z M237.61,457.256
	c0,0-1.56,8.166-5.546,12.153c-3.987,3.986-7.066,4.107-8.891,2.283s-1.703-4.903,2.284-8.891
	C229.443,458.815,237.61,457.256,237.61,457.256z M211.59,440.231c5.208-2.157,13.351-0.473,13.351-0.473s-4.567,6.948-9.775,9.105
	c-5.209,2.158-8.101,1.091-9.088-1.292C205.09,445.188,206.381,442.39,211.59,440.231z M203.084,491.781
	c0,0-2.89,15.131-10.276,22.518s-13.092,7.611-16.472,4.23c-3.381-3.38-3.156-9.085,4.23-16.472
	C187.953,494.672,203.084,491.781,203.084,491.781z M154.875,460.241c9.65-3.997,24.736-0.877,24.736-0.877
	s-8.461,12.873-18.111,16.871c-9.651,3.997-15.008,2.021-16.838-2.395C142.833,469.424,145.225,464.238,154.875,460.241z"/>
</svg>
