<?xml version="1.0" encoding="iso-8859-1"?>
<!-- Generator: Adobe Illustrator 15.0.0, SVG Export Plug-In . SVG Version: 6.00 Build 0)  -->
<!DOCTYPE svg PUBLIC "-//W3C//DTD SVG 1.1//EN" "http://www.w3.org/Graphics/SVG/1.1/DTD/svg11.dtd">
<svg version="1.1" xmlns="http://www.w3.org/2000/svg" xmlns:xlink="http://www.w3.org/1999/xlink" x="0px" y="0px" width="300px"
	 height="300px" viewBox="0 0 300 300" style="enable-background:new 0 0 300 300;" xml:space="preserve">
<g id="Layer_1">
	<g>
		<rect x="0.56" y="0.44" style="fill-rule:evenodd;clip-rule:evenodd;fill:#666666;" width="300" height="300"/>
		<g>
			<g>
				<path style="fill-rule:evenodd;clip-rule:evenodd;fill:#FFFFFF;" d="M75.5,171.34v-2.81H40.22c-0.37,1.59-1.8,2.77-3.5,2.77
					c-0.38,0-0.74-0.06-1.08-0.16c1.46-0.46,2.52-1.819,2.52-3.439c0-1.61-1.06-2.98-2.52-3.431c0.34-0.109,0.7-0.159,1.08-0.159
					c1.7,0,3.13,1.18,3.5,2.77h15.03v-3.729c-1.17-0.091-1.97-1.021-2.44-1.94c-0.22-0.44-0.25-0.63-0.38-1.07
					c-0.24-0.76-0.43-1.489-0.67-2.26c-0.23-0.729,0.14-0.5-1.61-1.31l-2.03-0.9c-0.68-0.24-1.76,0.95-1.78,0.97l-1.83,4.021
					c-0.58-0.391-0.67-1.16-0.79-2.04c-0.38-3.13,0.78-4.23,2.51-6.12c-4.43,0-4.54,2.11-5.41,5.33
					c-0.01-0.021-0.03-0.07-0.03-0.061c-0.05,0.131-0.05-0.09-0.06-0.1l-0.19-0.6c-0.51-2.061-0.67-4.36,0.28-6.28
					c0.21-0.43,0.47-0.93,0.79-1.27c1.42-1.51,2.59-1.45,4.71-1.74c-0.72-1.06-4.39-3.45-7.07,0.15c-0.28,0.37-0.48,0.66-0.69,1.11
					c-0.34,0.72-0.27,0.85-0.49,1.32c-0.08-0.34-0.25-1.78-0.22-2.11c0.19-1.99,0.67-3.83,2.27-5.12c1.89-1.52,4.41-1.63,6.25-0.29
					l0.72,0.56c-0.27-1.13-0.39-2.16-1.23-3.15c-1.49-1.77-4.34-2.36-6.34-0.98c-0.52,0.36-1.35,1.09-1.74,1.61
					c-0.11,0.13-0.13,0.18-0.22,0.3l-0.26,0.33c0-5.46,4.62-8.13,9.42-5.89c4.27,1.99,5.13,6.27,6.46,10.45
					c1.72,0,5.85-0.47,7.33-1.18c0.99-0.47,1.49-1.26,2.01-2.29c0.5-1,0.44-1.52,0.28-2.71c-0.08-0.56-0.01-0.34-0.26-0.87
					c-0.14,0.56-1.21,1.67-1.88,1.98c-1.36,0.63-3.42-0.05-4.34-0.89c-0.4-0.36-0.56-0.83-0.41-1.45c0.34-1.4,1.13-1.37,1.91-2.04
					c-0.5-0.12-1.24-0.04-1.47-0.42c-0.49-0.85,0.71-1.84,1.39-2.23c0.32-0.19,0.66-0.31,1.02-0.44l0.35-0.17
					c-2.32,0-3.05-0.97-1.85-1.68c1.29-0.78,2.39-0.5,3.91-0.38c-0.08-0.31-1.15-1.17-1.46-1.46c0.27-0.37,2.97-2.21,4.77-1.43
					c1.35,0.59,1.82,2.74,2.35,4.26c0.35,0,1.96-0.59,2.35-0.75l2.29-0.79l-2.14,3.09l3.6,0.85c-0.16,0.05-2.27,1.39-2.66,1.73
					c1.74,0,4.13,0.21,4.37,2.41c0,0.03,0,0.06,0.01,0.09v0.71c-0.15,1.56-1.37,2.05-2.46,1.82c-0.53-0.12-0.75-0.36-1.15-0.57
					c0.09,0.32,0.31,0.5,0.49,0.8c1.05,1.74,2.5,4.49,2.97,6.39c0.27,1.13-0.21,4.21-1.25,5.24c-0.74,0.729-1.39,1.159-2.35,1.68
					c-2.96,1.62-6.05,2.93-9.44,3.86c-0.82,0.22-0.41-0.091-1.29,1.38c-0.79,1.35-1.57,1.699-3.03,2.37v3.899H75.5v-2.81l3.64,3.63
					L75.5,171.34z M58.79,159.49c0.24-0.42,0.96-2.28,1-2.771c-0.89,0.07-2.61,0.73-4.72,0.681l-1.8-0.091
					c-0.21,0.9-0.18,2.23,0.58,2.95C55.1,161.46,57.69,161.48,58.79,159.49z M62.29,156.54c3.01-1.5,6.3-2.42,8.26-5.65
					c1.29-2.13,0.7-5,0.33-7.33c-0.05-0.31-0.02-0.29-0.18-0.59l-0.17,3.44c-0.33-0.12-0.85-1.03-1.07-1.34l-1.08-1.41
					c-0.24,1.04-0.42,2.13-0.6,3.18h-0.17c-0.08-0.35-1.06-2.2-1.29-2.67c-0.33,0.1-0.43,0.34-0.67,0.54l-1.99,1.7v-2.4
					c-0.84,0.56-0.77,0.75-2.13,1.38c-0.13,0.06-0.23,0.1-0.36,0.16c-0.93,0.46-1.91,0.79-2.97,1.15c-2.38,0.79-3.99,1.23-6.39,1.77
					c-0.23-0.99-0.57-2.06-0.85-3.01c-0.21-0.73-0.67-2.48-0.9-3.05c-0.53-1.3-1.67-3.1-2.8-3.98c-0.24-0.19-0.32-0.36-0.6-0.43
					c0.07,0.24,0.17,0.3,0.33,0.53c0.82,1.18,1.61,3.03,2.02,4.41l1.6,5.7c-0.54-0.4-3.44-4.63-7.3-4.64
					c-0.81,0-1.07,0.09-1.69,0.29c-0.47,0.17-0.65,0.22-1.09,0.46l-0.31,0.2c1.98,0,3.65-0.98,6.49,1.07
					c0.87,0.63,1.84,1.66,2.59,2.39c0.65,0.62,0.75,0.67,1.57,1.52c-1.09,0-2.55-0.89-5.57-0.59c-1.12,0.11-2.58,0.82-3.08,1.64
					l-0.54,1.1c0.38-0.26,1.12-1.1,1.92-1.52c1.9-1.02,3.4-0.46,5.73,0.22l2,0.581l0.57,0.37c-0.48,0.039-3.27,1-3.86,1.21
					c-1,0.38-2.5,1.63-2.58,2.569l1.45-1.04c0.46-0.37,0.94-0.739,1.47-1.02c0.74-0.38,2.77-0.98,3.67-1.271l1.57,1.53
					c0.25-0.01,0.31-0.04,0.5-0.09c0.14-0.04,0.21-0.061,0.26-0.07c0.01-0.01,0.06-0.04,0.18-0.1c-1.92-0.04-1.95-1.33-0.7-2.33
					c1.07-0.87,1.73-1.24,2.93-1.79c-0.08,0.31-0.42,0.5-0.83,1.06c-0.26,0.33-0.65,0.77-0.63,1.34l2.66,1.289
					c-0.16,0.23-0.51,0.271-0.83,0.381c-0.38,0.119-0.57,0.199-0.94,0.34c-0.98,0.399-0.71,0.25-1.49,1
					c0.27,1.02,3.63,0.66,4.27,0.569c1.91-0.26,3.73-1.46,5.24-2.479l1.58-1l0.75-4.05c1.32,0.88,2.12,2.68,1.24,4.331
					c-1.13,2.1-4.38,3.21-6.55,4.09v0.77C61.5,156.92,62.06,156.65,62.29,156.54z M52.76,154.4l-2.15,0.34
					c0.19,0.17,1.64,0.899,1.89,1.029C52.5,155.47,52.67,154.59,52.76,154.4z M54.38,153.56c0.02-0.01,0.09-0.029,0-0.01
					C54.37,153.55,54.37,153.56,54.38,153.56z M70.36,141.09c-0.13-0.28-0.57-2.19-1.63-4.29l-1.98-3.95
					c-0.67,0-1.18,0.03-1.72,0.08c-0.85,0.05-0.81-0.01-1.26,0.54c-1.03,1.25-1.11,1.12-0.95,2.44c0.35,2.63-0.16,1.01,0.84,2.77
					c0.63,1.12,0.56,2.02,0.77,2.92C65.1,141.6,69.32,141.18,70.36,141.09z M63.53,135.63c0-1.1,0.89-2,2-2c1.1,0,2.01,0.9,2.01,2
					c0,1.11-0.91,2-2.01,2C64.42,137.63,63.53,136.74,63.53,135.63z M70.1,136.88l-0.03,0.02C70.07,136.9,70.11,136.89,70.1,136.88z
					 M66.9,135.5c0-0.75-0.61-1.37-1.37-1.37c-0.75,0-1.37,0.62-1.37,1.37c0,0.76,0.62,1.37,1.37,1.37
					C66.29,136.87,66.9,136.26,66.9,135.5z M64.67,135.31c0-0.44,0.36-0.79,0.8-0.79c0.44,0,0.79,0.35,0.79,0.79s-0.35,0.8-0.79,0.8
					C65.03,136.11,64.67,135.75,64.67,135.31z"/>
				<rect x="34.89" y="127.28" style="fill-rule:evenodd;clip-rule:evenodd;fill:none;" width="45" height="45"/>
			</g>
			<g>
				<path style="fill-rule:evenodd;clip-rule:evenodd;fill:#FFFFFF;" d="M117.31,167.03v-2.25H89.08c-0.3,1.27-1.44,2.22-2.8,2.22
					c-0.3,0-0.59-0.05-0.86-0.13c1.17-0.37,2.02-1.46,2.02-2.75s-0.85-2.38-2.02-2.75c0.27-0.08,0.56-0.13,0.86-0.13
					c1.36,0,2.5,0.95,2.8,2.22h12.02v-2.979c-0.93-0.08-1.57-0.82-1.94-1.561c-0.18-0.34-0.2-0.5-0.31-0.85
					c-0.19-0.61-0.34-1.19-0.54-1.811c-0.18-0.58,0.11-0.399-1.28-1.05l-1.63-0.72c-0.54-0.19-1.41,0.76-1.43,0.779l-1.45,3.211
					c-0.47-0.301-0.55-0.921-0.64-1.631c-0.31-2.5,0.62-3.38,2.01-4.89c-3.55,0-3.63,1.68-4.33,4.26c-0.01-0.01-0.02-0.05-0.02-0.04
					c-0.04,0.101-0.04-0.08-0.05-0.09l-0.15-0.479c-0.41-1.65-0.54-3.49,0.22-5.021c0.17-0.35,0.38-0.74,0.64-1.02
					c1.13-1.2,2.07-1.16,3.76-1.39c-0.57-0.85-3.51-2.76-5.65,0.12c-0.23,0.3-0.39,0.53-0.56,0.89c-0.27,0.57-0.21,0.67-0.39,1.05
					c-0.06-0.27-0.2-1.42-0.17-1.68c0.15-1.59,0.53-3.06,1.81-4.1c1.51-1.22,3.53-1.3,5-0.23l0.58,0.45
					c-0.22-0.91-0.32-1.73-0.98-2.52c-1.2-1.42-3.48-1.89-5.08-0.79c-0.41,0.29-1.08,0.87-1.39,1.29c-0.08,0.11-0.11,0.14-0.18,0.24
					l-0.2,0.27c0-4.38,3.69-6.51,7.53-4.72c3.41,1.6,4.11,5.02,5.17,8.36c1.38,0,4.68-0.37,5.86-0.94c0.8-0.37,1.2-1.01,1.61-1.83
					c0.4-0.8,0.35-1.22,0.22-2.17c-0.06-0.45,0-0.27-0.2-0.7c-0.12,0.45-0.97,1.34-1.51,1.59c-1.09,0.5-2.73-0.04-3.47-0.72
					c-0.31-0.28-0.44-0.66-0.33-1.16c0.27-1.11,0.91-1.1,1.53-1.63c-0.4-0.09-0.99-0.03-1.17-0.34c-0.39-0.67,0.56-1.46,1.11-1.78
					c0.25-0.15,0.53-0.24,0.81-0.35l0.28-0.14c-1.85,0-2.44-0.77-1.48-1.34c1.04-0.62,1.92-0.4,3.13-0.31
					c-0.06-0.24-0.92-0.93-1.16-1.16c0.21-0.3,2.37-1.77,3.81-1.14c1.08,0.46,1.45,2.18,1.88,3.4c0.28,0,1.57-0.47,1.88-0.6
					l1.83-0.63l-1.71,2.47l2.88,0.68c-0.13,0.04-1.82,1.11-2.13,1.38c1.4,0,3.31,0.18,3.5,1.93c0,0.03,0,0.05,0,0.08v0.57
					c-0.12,1.24-1.09,1.63-1.96,1.45c-0.42-0.09-0.6-0.29-0.92-0.46c0.07,0.26,0.25,0.4,0.39,0.64c0.84,1.4,2,3.6,2.37,5.11
					c0.22,0.91-0.16,3.38-0.99,4.2c-0.6,0.58-1.12,0.92-1.88,1.34c-2.37,1.3-4.85,2.34-7.56,3.09c-0.65,0.18-0.32-0.07-1.03,1.11
					c-0.63,1.069-1.26,1.35-2.42,1.89v3.12h14.69v-2.25l2.91,2.91L117.31,167.03z M103.94,157.55c0.19-0.34,0.77-1.83,0.8-2.22
					c-0.72,0.06-2.09,0.58-3.78,0.55l-1.44-0.07c-0.17,0.71-0.14,1.771,0.46,2.351C100.99,159.13,103.06,159.14,103.94,157.55z
					 M106.74,155.19c2.41-1.21,5.04-1.94,6.6-4.521c1.04-1.71,0.57-4,0.27-5.87c-0.04-0.25-0.01-0.23-0.15-0.46l-0.13,2.74
					c-0.27-0.09-0.68-0.82-0.86-1.07l-0.86-1.12c-0.19,0.83-0.34,1.7-0.48,2.54h-0.14c-0.06-0.28-0.84-1.76-1.03-2.13
					c-0.26,0.07-0.34,0.26-0.53,0.43l-1.59,1.35v-1.92c-0.68,0.45-0.62,0.61-1.71,1.11c-0.1,0.04-0.19,0.08-0.29,0.13
					c-0.74,0.36-1.53,0.63-2.38,0.92c-1.9,0.63-3.18,0.98-5.1,1.41c-0.19-0.79-0.46-1.64-0.68-2.41c-0.17-0.58-0.54-1.98-0.73-2.44
					c-0.42-1.04-1.33-2.48-2.23-3.18c-0.19-0.15-0.26-0.29-0.49-0.35c0.06,0.2,0.14,0.25,0.27,0.43c0.66,0.94,1.29,2.43,1.61,3.53
					l1.28,4.56c-0.43-0.32-2.75-3.71-5.84-3.71c-0.64,0-0.85,0.07-1.35,0.23c-0.38,0.13-0.52,0.18-0.87,0.36l-0.25,0.17
					c1.59,0,2.92-0.79,5.19,0.85c0.7,0.51,1.47,1.33,2.07,1.91c0.52,0.5,0.6,0.54,1.26,1.22c-0.87,0-2.04-0.71-4.46-0.47
					c-0.89,0.09-2.06,0.65-2.46,1.31l-0.43,0.88c0.31-0.21,0.9-0.88,1.53-1.22c1.53-0.81,2.72-0.37,4.59,0.18l1.6,0.46l0.45,0.3
					c-0.38,0.03-2.61,0.8-3.08,0.97c-0.8,0.301-2,1.311-2.07,2.051l1.16-0.83c0.37-0.29,0.76-0.59,1.18-0.811
					c0.59-0.31,2.22-0.79,2.94-1.02l1.25,1.22c0.2,0,0.25-0.03,0.4-0.07c0.11-0.029,0.17-0.05,0.21-0.06c0.01,0,0.05-0.03,0.15-0.07
					c-1.54-0.04-1.57-1.06-0.57-1.87c0.86-0.69,1.39-0.99,2.35-1.43c-0.07,0.25-0.34,0.4-0.67,0.84c-0.2,0.27-0.52,0.63-0.5,1.08
					l2.13,1.03c-0.13,0.18-0.41,0.22-0.66,0.3c-0.31,0.1-0.46,0.17-0.76,0.28c-0.78,0.319-0.56,0.2-1.19,0.8
					c0.22,0.81,2.91,0.53,3.42,0.46c1.53-0.21,2.98-1.17,4.19-1.99l1.26-0.8l0.61-3.24c1.05,0.71,1.69,2.14,0.98,3.459
					c-0.9,1.681-3.5,2.58-5.24,3.28v0.61C106.11,155.49,106.56,155.28,106.74,155.19z M99.11,153.47l-1.72,0.28
					c0.16,0.13,1.32,0.72,1.51,0.82C98.9,154.33,99.04,153.62,99.11,153.47z M100.41,152.8c0.02,0,0.07-0.02,0-0.01
					C100.4,152.8,100.4,152.8,100.41,152.8z M113.19,142.83c-0.1-0.23-0.45-1.75-1.3-3.44l-1.59-3.16c-0.53,0-0.94,0.03-1.37,0.07
					c-0.68,0.04-0.65-0.01-1.01,0.43c-0.82,1-0.89,0.9-0.75,1.95c0.27,2.11-0.14,0.81,0.66,2.22c0.51,0.89,0.45,1.62,0.62,2.34
					C108.98,143.24,112.36,142.9,113.19,142.83z M107.73,138.46c0-0.88,0.71-1.6,1.6-1.6c0.88,0,1.6,0.72,1.6,1.6
					c0,0.89-0.72,1.6-1.6,1.6C108.44,140.06,107.73,139.35,107.73,138.46z M112.99,139.46l-0.03,0.02
					C112.96,139.48,112.99,139.47,112.99,139.46z M110.42,138.36c0-0.61-0.48-1.1-1.09-1.1c-0.6,0-1.09,0.49-1.09,1.1
					c0,0.6,0.49,1.09,1.09,1.09C109.94,139.45,110.42,138.96,110.42,138.36z M108.64,138.21c0-0.36,0.29-0.64,0.64-0.64
					c0.35,0,0.64,0.28,0.64,0.64c0,0.35-0.29,0.64-0.64,0.64C108.93,138.85,108.64,138.56,108.64,138.21z"/>
				<rect x="84.82" y="131.78" style="fill-rule:evenodd;clip-rule:evenodd;fill:none;" width="36" height="36"/>
			</g>
			<g>
				<path style="fill-rule:evenodd;clip-rule:evenodd;fill:#FFFFFF;" d="M152.82,164.16v-1.88H129.3c-0.25,1.06-1.2,1.85-2.34,1.85
					c-0.25,0-0.49-0.04-0.71-0.11c0.97-0.3,1.68-1.22,1.68-2.289c0-1.07-0.71-1.99-1.68-2.29c0.22-0.07,0.46-0.11,0.71-0.11
					c1.14,0,2.09,0.79,2.34,1.85h10.02V158.7c-0.78-0.07-1.31-0.681-1.63-1.3c-0.14-0.29-0.16-0.42-0.25-0.71
					c-0.16-0.511-0.29-0.99-0.45-1.511c-0.15-0.489,0.1-0.33-1.07-0.87l-1.35-0.6c-0.45-0.16-1.18,0.63-1.19,0.65l-1.22,2.67
					c-0.39-0.25-0.45-0.771-0.53-1.36c-0.25-2.08,0.52-2.82,1.67-4.07c-2.95,0-3.02,1.4-3.6,3.551c-0.01-0.011-0.02-0.051-0.02-0.04
					c-0.03,0.08-0.03-0.061-0.04-0.07l-0.13-0.4c-0.34-1.37-0.44-2.909,0.19-4.189c0.14-0.28,0.32-0.61,0.53-0.84
					c0.94-1.01,1.73-0.97,3.14-1.16c-0.48-0.71-2.93-2.3-4.72,0.1c-0.19,0.25-0.32,0.44-0.46,0.74c-0.23,0.47-0.18,0.56-0.32,0.88
					c-0.05-0.23-0.17-1.19-0.15-1.41c0.13-1.32,0.45-2.55,1.51-3.41c1.26-1.02,2.94-1.09,4.17-0.2l0.48,0.38
					c-0.18-0.75-0.26-1.44-0.82-2.1c-0.99-1.18-2.89-1.58-4.23-0.66c-0.34,0.25-0.9,0.73-1.16,1.08c-0.07,0.09-0.09,0.12-0.14,0.19
					l-0.17,0.23c0-3.64,3.07-5.42,6.27-3.93c2.85,1.33,3.42,4.18,4.31,6.96c1.15,0,3.9-0.3,4.89-0.78c0.66-0.31,0.99-0.84,1.33-1.52
					c0.34-0.67,0.3-1.02,0.19-1.81c-0.05-0.38,0-0.23-0.17-0.58c-0.1,0.37-0.81,1.11-1.26,1.32c-0.9,0.42-2.27-0.03-2.89-0.6
					c-0.26-0.23-0.37-0.55-0.27-0.96c0.22-0.93,0.75-0.92,1.27-1.36c-0.33-0.08-0.83-0.03-0.97-0.28c-0.33-0.57,0.46-1.23,0.92-1.49
					c0.21-0.13,0.44-0.2,0.68-0.3l0.23-0.11c-1.54,0-2.03-0.64-1.23-1.12c0.86-0.51,1.59-0.33,2.61-0.25
					c-0.06-0.2-0.77-0.78-0.98-0.97c0.19-0.25,1.99-1.48,3.18-0.95c0.9,0.39,1.21,1.82,1.57,2.84c0.23-0.01,1.31-0.4,1.57-0.5
					l1.52-0.53l-1.42,2.05l2.4,0.58c-0.11,0.03-1.521,0.92-1.78,1.15c1.16,0,2.76,0.14,2.91,1.6c0.01,0.02,0.01,0.04,0.01,0.07v0.47
					c-0.1,1.04-0.91,1.36-1.64,1.21c-0.35-0.08-0.5-0.24-0.76-0.38c0.05,0.21,0.2,0.33,0.32,0.53c0.7,1.16,1.67,3,1.98,4.26
					c0.18,0.75-0.131,2.81-0.83,3.5c-0.5,0.49-0.93,0.771-1.57,1.12c-1.97,1.08-4.03,1.95-6.29,2.57
					c-0.55,0.15-0.27-0.061-0.86,0.92c-0.53,0.9-1.05,1.13-2.02,1.58v2.6h12.24v-1.87l2.43,2.421L152.82,164.16z M141.68,156.25
					c0.16-0.27,0.64-1.52,0.67-1.85c-0.6,0.05-1.74,0.489-3.15,0.46L138,154.8c-0.14,0.601-0.12,1.48,0.39,1.97
					C139.22,157.57,140.95,157.58,141.68,156.25z M144.01,154.29c2.01-1.01,4.2-1.62,5.51-3.77c0.86-1.42,0.47-3.33,0.22-4.89
					c-0.03-0.21-0.01-0.19-0.12-0.39l-0.11,2.29c-0.22-0.07-0.57-0.69-0.72-0.89l-0.72-0.94c-0.16,0.7-0.28,1.42-0.4,2.12h-0.11
					c-0.05-0.23-0.71-1.46-0.86-1.78c-0.22,0.07-0.29,0.23-0.45,0.36l-1.32,1.13v-1.6c-0.56,0.38-0.52,0.51-1.43,0.93
					c-0.08,0.03-0.15,0.06-0.23,0.1c-0.62,0.3-1.28,0.53-1.99,0.77c-1.58,0.53-2.65,0.82-4.25,1.18c-0.16-0.66-0.38-1.37-0.57-2.01
					c-0.14-0.49-0.45-1.65-0.6-2.03c-0.35-0.87-1.11-2.07-1.86-2.66c-0.16-0.12-0.22-0.23-0.41-0.28c0.05,0.16,0.12,0.2,0.22,0.35
					c0.55,0.79,1.08,2.02,1.35,2.94l1.07,3.8c-0.37-0.26-2.3-3.09-4.87-3.09c-0.54,0-0.71,0.06-1.12,0.19
					c-0.32,0.11-0.44,0.15-0.73,0.3l-0.21,0.14c1.32,0,2.43-0.65,4.33,0.71c0.58,0.43,1.22,1.11,1.72,1.6
					c0.43,0.41,0.5,0.44,1.05,1.01c-0.72,0-1.7-0.59-3.72-0.39c-0.74,0.07-1.71,0.54-2.05,1.09l-0.36,0.729
					c0.26-0.17,0.75-0.729,1.28-1.01c1.27-0.68,2.27-0.31,3.82,0.15l1.34,0.38l0.38,0.25c-0.32,0.03-2.19,0.67-2.58,0.81
					c-0.66,0.25-1.67,1.091-1.72,1.71l0.97-0.689c0.3-0.25,0.63-0.49,0.98-0.68c0.49-0.261,1.85-0.65,2.45-0.851l1.04,1.021
					c0.17-0.011,0.21-0.021,0.34-0.061c0.09-0.03,0.14-0.04,0.17-0.05c0.01,0,0.04-0.021,0.12-0.06c-1.28-0.03-1.3-0.891-0.47-1.561
					c0.72-0.57,1.16-0.82,1.96-1.19c-0.06,0.21-0.28,0.33-0.56,0.7c-0.17,0.23-0.43,0.52-0.42,0.9l1.78,0.86
					c-0.11,0.149-0.34,0.18-0.55,0.25c-0.26,0.079-0.39,0.14-0.63,0.229c-0.66,0.271-0.48,0.17-1,0.67
					c0.18,0.68,2.43,0.44,2.85,0.38c1.27-0.17,2.48-0.97,3.5-1.66l1.05-0.659l0.5-2.7c0.88,0.59,1.41,1.78,0.82,2.88
					c-0.75,1.4-2.91,2.15-4.37,2.729v0.521C143.49,154.54,143.86,154.36,144.01,154.29z M137.66,152.86l-1.43,0.229
					c0.12,0.11,1.09,0.601,1.25,0.68C137.48,153.57,137.6,152.98,137.66,152.86z M138.74,152.3c0.02,0,0.06-0.02,0-0.01
					C138.73,152.3,138.73,152.3,138.74,152.3z M149.39,143.99c-0.09-0.19-0.38-1.46-1.09-2.86l-1.32-2.64
					c-0.44,0-0.78,0.03-1.14,0.06c-0.57,0.03-0.54-0.01-0.84,0.36c-0.68,0.83-0.74,0.74-0.63,1.62c0.23,1.76-0.11,0.68,0.55,1.85
					c0.42,0.74,0.38,1.35,0.52,1.95C145.88,144.33,148.7,144.04,149.39,143.99z M144.84,140.35c0-0.74,0.59-1.34,1.33-1.34
					c0.74,0,1.34,0.6,1.34,1.34c0,0.74-0.6,1.33-1.34,1.33C145.43,141.68,144.84,141.09,144.84,140.35z M149.22,141.18l-0.02,0.02
					C149.2,141.2,149.22,141.19,149.22,141.18z M147.08,140.26c0-0.5-0.4-0.91-0.91-0.91c-0.5,0-0.91,0.41-0.91,0.91
					c0,0.51,0.41,0.92,0.91,0.92C146.68,141.18,147.08,140.77,147.08,140.26z M145.6,140.14c0-0.3,0.24-0.53,0.53-0.53
					s0.53,0.23,0.53,0.53c0,0.29-0.24,0.53-0.53,0.53S145.6,140.43,145.6,140.14z"/>
				<rect x="125.75" y="134.78" style="fill-rule:evenodd;clip-rule:evenodd;fill:none;" width="30" height="30"/>
			</g>
			<g>
				<path style="fill-rule:evenodd;clip-rule:evenodd;fill:#FFFFFF;" d="M180.98,160.56v-1.409H163.34
					c-0.189,0.8-0.899,1.39-1.75,1.39c-0.189,0-0.37-0.03-0.54-0.08c0.73-0.229,1.26-0.91,1.26-1.72c0-0.8-0.529-1.49-1.26-1.721
					c0.17-0.05,0.351-0.079,0.54-0.079c0.851,0,1.561,0.6,1.75,1.39h7.51v-1.86c-0.58-0.05-0.979-0.51-1.21-0.97
					c-0.12-0.22-0.13-0.32-0.199-0.54c-0.12-0.38-0.21-0.74-0.33-1.13c-0.12-0.36,0.069-0.25-0.811-0.65l-1.01-0.449
					c-0.34-0.131-0.88,0.47-0.89,0.479l-0.91,2.01c-0.3-0.189-0.34-0.58-0.4-1.02c-0.189-1.57,0.391-2.11,1.25-3.061
					c-2.21,0-2.27,1.051-2.7,2.67c-0.01-0.01-0.01-0.04-0.02-0.029c-0.021,0.06-0.021-0.05-0.03-0.061l-0.09-0.29
					c-0.26-1.029-0.34-2.18,0.14-3.15c0.11-0.21,0.24-0.46,0.4-0.63c0.7-0.75,1.29-0.72,2.35-0.87c-0.359-0.53-2.189-1.72-3.54,0.08
					c-0.14,0.18-0.229,0.33-0.34,0.55c-0.17,0.36-0.14,0.42-0.24,0.66c-0.039-0.17-0.13-0.89-0.109-1.05c0.09-1,0.33-1.92,1.13-2.56
					c0.94-0.76,2.21-0.82,3.12-0.15l0.37,0.28c-0.141-0.56-0.2-1.08-0.62-1.57c-0.74-0.89-2.17-1.18-3.17-0.49
					c-0.26,0.18-0.681,0.54-0.87,0.8c-0.05,0.07-0.07,0.09-0.11,0.15l-0.13,0.17c0-2.74,2.311-4.07,4.71-2.95
					c2.13,1,2.561,3.14,3.23,5.22c0.859,0,2.92-0.23,3.67-0.58c0.49-0.24,0.74-0.64,1-1.15c0.25-0.5,0.22-0.76,0.14-1.36
					c-0.04-0.28,0-0.16-0.13-0.43c-0.07,0.28-0.61,0.84-0.94,0.99c-0.68,0.32-1.71-0.02-2.17-0.45c-0.199-0.17-0.279-0.41-0.21-0.72
					c0.17-0.7,0.57-0.69,0.96-1.02c-0.25-0.06-0.62-0.02-0.729-0.21c-0.25-0.42,0.35-0.92,0.689-1.12
					c0.16-0.09,0.33-0.15,0.511-0.22l0.17-0.08c-1.15,0-1.521-0.48-0.92-0.84c0.649-0.39,1.199-0.25,1.949-0.19
					c-0.04-0.15-0.569-0.58-0.72-0.73c0.13-0.19,1.48-1.1,2.38-0.71c0.67,0.29,0.91,1.36,1.181,2.13c0.17-0.01,0.979-0.3,1.17-0.38
					l1.14-0.39l-1.07,1.54l1.811,0.43c-0.08,0.02-1.141,0.69-1.34,0.86c0.88,0,2.069,0.11,2.189,1.21c0,0.01,0,0.03,0,0.04v0.36
					c-0.069,0.78-0.68,1.02-1.22,0.9c-0.271-0.05-0.38-0.17-0.58-0.28c0.04,0.16,0.15,0.25,0.24,0.4c0.529,0.87,1.26,2.25,1.49,3.19
					c0.14,0.57-0.101,2.11-0.62,2.63c-0.38,0.359-0.7,0.569-1.181,0.83c-1.479,0.81-3.029,1.47-4.72,1.939
					c-0.41,0.11-0.2-0.05-0.64,0.69c-0.4,0.67-0.79,0.84-1.521,1.18v1.95h9.181v-1.41l1.819,1.82L180.98,160.56z M172.63,154.63
					c0.11-0.2,0.48-1.13,0.5-1.38c-0.45,0.04-1.31,0.37-2.36,0.34l-0.899-0.04c-0.11,0.45-0.09,1.11,0.28,1.47
					C170.78,155.62,172.08,155.63,172.63,154.63z M174.37,153.16c1.51-0.75,3.149-1.21,4.13-2.82c0.65-1.07,0.36-2.5,0.17-3.67
					c-0.02-0.16-0.01-0.15-0.09-0.29l-0.08,1.71c-0.17-0.05-0.43-0.51-0.54-0.66l-0.54-0.71c-0.12,0.52-0.21,1.07-0.3,1.59h-0.09
					c-0.03-0.17-0.521-1.1-0.641-1.33c-0.17,0.04-0.22,0.16-0.33,0.27l-1,0.84v-1.2c-0.42,0.28-0.38,0.38-1.069,0.7
					c-0.061,0.02-0.11,0.05-0.181,0.08c-0.46,0.22-0.949,0.39-1.479,0.57c-1.19,0.4-1.99,0.62-3.19,0.88
					c-0.12-0.49-0.29-1.02-0.43-1.5c-0.1-0.36-0.33-1.24-0.45-1.52c-0.27-0.66-0.84-1.56-1.399-2c-0.12-0.09-0.16-0.17-0.301-0.21
					c0.03,0.12,0.08,0.15,0.16,0.27c0.42,0.59,0.811,1.51,1.011,2.2l0.81,2.85c-0.28-0.2-1.73-2.32-3.66-2.32
					c-0.399,0-0.53,0.04-0.84,0.15c-0.24,0.08-0.33,0.11-0.54,0.22l-0.16,0.11c0.99,0,1.82-0.49,3.24,0.53
					c0.439,0.32,0.92,0.83,1.3,1.19c0.32,0.32,0.37,0.34,0.78,0.77c-0.54,0-1.271-0.45-2.78-0.3c-0.56,0.06-1.29,0.41-1.54,0.82
					l-0.27,0.55c0.189-0.13,0.56-0.55,0.96-0.76c0.95-0.51,1.7-0.23,2.859,0.11l1,0.29l0.29,0.19c-0.239,0.02-1.64,0.49-1.93,0.601
					c-0.5,0.189-1.25,0.819-1.29,1.29l0.72-0.521c0.23-0.189,0.48-0.37,0.74-0.51c0.37-0.19,1.38-0.49,1.84-0.64l0.78,0.76
					c0.13,0,0.15-0.01,0.25-0.04c0.07-0.021,0.11-0.03,0.13-0.04c0.01,0,0.03-0.01,0.09-0.04c-0.96-0.03-0.97-0.67-0.35-1.17
					c0.54-0.43,0.87-0.62,1.46-0.9c-0.04,0.16-0.2,0.26-0.41,0.53c-0.13,0.17-0.33,0.39-0.32,0.68l1.33,0.641
					c-0.08,0.119-0.25,0.14-0.41,0.189c-0.189,0.061-0.29,0.101-0.47,0.17c-0.49,0.2-0.35,0.12-0.75,0.5
					c0.141,0.51,1.82,0.33,2.141,0.29c0.96-0.13,1.859-0.729,2.619-1.24l0.79-0.5l0.38-2.03c0.66,0.44,1.061,1.34,0.61,2.16
					c-0.56,1.06-2.18,1.61-3.27,2.05v0.39C173.98,153.35,174.26,153.22,174.37,153.16z M169.61,152.09l-1.07,0.17
					c0.09,0.08,0.82,0.45,0.94,0.521C169.48,152.62,169.56,152.18,169.61,152.09z M170.42,151.67c0.01,0,0.04-0.02,0-0.01
					C170.42,151.67,170.42,151.67,170.42,151.67z M178.41,145.44c-0.07-0.15-0.28-1.1-0.82-2.15l-0.99-1.98
					c-0.33,0-0.59,0.02-0.859,0.04c-0.42,0.03-0.4,0-0.62,0.28c-0.521,0.62-0.561,0.56-0.48,1.22c0.17,1.31-0.08,0.5,0.42,1.38
					c0.311,0.56,0.28,1.01,0.391,1.46C175.78,145.69,177.89,145.48,178.41,145.44z M174.99,142.71c0-0.56,0.45-1,1.01-1
					c0.55,0,1,0.44,1,1c0,0.55-0.45,1-1,1C175.44,143.71,174.99,143.26,174.99,142.71z M178.28,143.33l-0.011,0.01
					C178.27,143.34,178.28,143.34,178.28,143.33z M176.68,142.64c0-0.37-0.31-0.68-0.68-0.68c-0.38,0-0.69,0.31-0.69,0.68
					c0,0.38,0.311,0.69,0.69,0.69C176.37,143.33,176.68,143.02,176.68,142.64z M175.57,142.55c0-0.22,0.17-0.4,0.39-0.4
					s0.4,0.18,0.4,0.4c0,0.22-0.181,0.4-0.4,0.4S175.57,142.77,175.57,142.55z"/>
				<rect x="160.68" y="138.53" style="fill-rule:evenodd;clip-rule:evenodd;fill:none;" width="22.5" height="22.5"/>
			</g>
			<g>
				<path style="fill-rule:evenodd;clip-rule:evenodd;fill:#FFFFFF;" d="M205.7,159.12v-1.22h-15.29
					c-0.16,0.689-0.78,1.21-1.51,1.21c-0.17,0-0.32-0.03-0.471-0.07c0.63-0.2,1.09-0.79,1.09-1.49s-0.46-1.29-1.09-1.49
					c0.15-0.05,0.301-0.069,0.471-0.069c0.729,0,1.35,0.51,1.51,1.2h6.51v-1.61c-0.5-0.05-0.85-0.45-1.05-0.85
					c-0.101-0.19-0.11-0.271-0.17-0.461c-0.101-0.329-0.181-0.64-0.29-0.979c-0.101-0.32,0.06-0.22-0.69-0.57l-0.88-0.39
					c-0.3-0.1-0.77,0.42-0.78,0.43l-0.79,1.74c-0.25-0.17-0.289-0.51-0.34-0.89c-0.17-1.36,0.34-1.83,1.09-2.65
					c-1.92,0-1.97,0.91-2.35,2.31c0-0.01-0.01-0.029-0.01-0.02c-0.021,0.05-0.021-0.04-0.03-0.05l-0.08-0.26
					c-0.22-0.891-0.29-1.891,0.12-2.72c0.1-0.19,0.21-0.4,0.35-0.55c0.61-0.66,1.12-0.63,2.04-0.75c-0.31-0.47-1.899-1.5-3.069,0.06
					c-0.12,0.16-0.2,0.29-0.3,0.48c-0.141,0.31-0.11,0.37-0.21,0.57c-0.03-0.14-0.11-0.77-0.091-0.91c0.08-0.86,0.29-1.66,0.98-2.22
					c0.82-0.66,1.91-0.71,2.71-0.13l0.31,0.25c-0.109-0.49-0.17-0.94-0.529-1.37c-0.65-0.77-1.88-1.02-2.75-0.42
					c-0.23,0.15-0.591,0.47-0.761,0.69c-0.04,0.06-0.05,0.08-0.09,0.13l-0.109,0.15c0-2.37,2-3.52,4.08-2.56
					c1.85,0.87,2.22,2.72,2.8,4.53c0.75,0,2.529-0.2,3.18-0.51c0.42-0.2,0.64-0.55,0.87-0.99c0.21-0.43,0.189-0.66,0.12-1.18
					c-0.04-0.24,0-0.14-0.11-0.37c-0.07,0.24-0.53,0.72-0.82,0.86c-0.59,0.27-1.479-0.02-1.88-0.39c-0.17-0.15-0.239-0.36-0.18-0.63
					c0.15-0.6,0.49-0.59,0.83-0.88c-0.22-0.05-0.54-0.02-0.63-0.18c-0.22-0.37,0.3-0.8,0.6-0.97c0.13-0.08,0.28-0.13,0.44-0.19
					l0.149-0.08c-1,0-1.319-0.41-0.8-0.72c0.561-0.34,1.03-0.22,1.69-0.17c-0.03-0.13-0.5-0.5-0.63-0.63
					c0.12-0.16,1.29-0.96,2.069-0.62c0.58,0.26,0.78,1.19,1.021,1.85c0.149,0,0.84-0.26,1.01-0.33l1-0.34l-0.93,1.34l1.56,0.37
					c-0.07,0.02-0.99,0.6-1.149,0.74c0.75,0,1.79,0.1,1.89,1.05c0,0.01,0,0.03,0,0.04v0.31c-0.061,0.67-0.59,0.88-1.061,0.79
					c-0.229-0.05-0.329-0.16-0.5-0.25c0.04,0.14,0.131,0.21,0.211,0.34c0.46,0.76,1.09,1.95,1.289,2.77
					c0.12,0.49-0.09,1.83-0.539,2.27c-0.33,0.32-0.61,0.511-1.021,0.73c-1.28,0.7-2.62,1.27-4.09,1.68
					c-0.36,0.09-0.18-0.04-0.561,0.59c-0.35,0.59-0.68,0.74-1.319,1.03v1.69h7.96v-1.221l1.58,1.58L205.7,159.12z M198.46,153.99
					c0.1-0.181,0.42-0.99,0.44-1.2c-0.391,0.03-1.141,0.31-2.051,0.29l-0.779-0.03c-0.09,0.38-0.08,0.96,0.25,1.271
					C196.86,154.84,197.98,154.85,198.46,153.99z M199.98,152.71c1.3-0.65,2.729-1.05,3.579-2.45c0.561-0.92,0.301-2.16,0.141-3.17
					c-0.021-0.14-0.01-0.13-0.08-0.26l-0.07,1.49c-0.149-0.05-0.37-0.45-0.47-0.58l-0.46-0.61c-0.11,0.45-0.19,0.92-0.26,1.38h-0.08
					c-0.03-0.15-0.46-0.96-0.561-1.16c-0.14,0.04-0.18,0.15-0.29,0.24l-0.859,0.73v-1.04c-0.36,0.24-0.33,0.33-0.92,0.6
					c-0.061,0.02-0.101,0.04-0.16,0.07c-0.4,0.2-0.83,0.34-1.29,0.5c-1.03,0.34-1.72,0.53-2.76,0.76c-0.101-0.43-0.25-0.89-0.37-1.3
					c-0.09-0.32-0.29-1.08-0.391-1.32c-0.229-0.57-0.729-1.35-1.21-1.73c-0.109-0.08-0.14-0.15-0.27-0.18
					c0.03,0.1,0.08,0.13,0.149,0.23c0.351,0.51,0.69,1.31,0.87,1.91l0.7,2.47c-0.24-0.17-1.5-2.01-3.17-2.01
					c-0.35,0-0.46,0.03-0.73,0.12c-0.21,0.07-0.279,0.1-0.47,0.2l-0.14,0.09c0.859,0,1.58-0.43,2.82,0.46
					c0.369,0.28,0.789,0.72,1.119,1.04c0.28,0.27,0.32,0.29,0.681,0.66c-0.471,0-1.11-0.39-2.42-0.26
					c-0.48,0.05-1.11,0.35-1.33,0.71l-0.23,0.48c0.16-0.12,0.48-0.48,0.83-0.66c0.82-0.44,1.47-0.2,2.48,0.09l0.87,0.25l0.239,0.17
					c-0.2,0.01-1.41,0.43-1.67,0.521c-0.43,0.159-1.08,0.71-1.12,1.109l0.63-0.45c0.2-0.159,0.41-0.319,0.641-0.439
					c0.319-0.16,1.2-0.42,1.59-0.55l0.68,0.661c0.11,0,0.13-0.011,0.221-0.04c0.06-0.011,0.09-0.021,0.109-0.03
					c0.01,0,0.021-0.01,0.08-0.04c-0.83-0.021-0.85-0.57-0.31-1.01c0.47-0.37,0.76-0.54,1.27-0.78c-0.03,0.14-0.18,0.22-0.359,0.46
					c-0.11,0.15-0.28,0.34-0.271,0.59l1.15,0.561c-0.07,0.09-0.221,0.109-0.351,0.159c-0.17,0.051-0.25,0.091-0.41,0.15
					c-0.43,0.17-0.31,0.1-0.649,0.43c0.12,0.44,1.58,0.29,1.85,0.25c0.83-0.109,1.62-0.63,2.271-1.08l0.689-0.43l0.32-1.75
					c0.58,0.38,0.92,1.15,0.54,1.87c-0.49,0.91-1.9,1.39-2.84,1.77v0.341C199.63,152.87,199.88,152.76,199.98,152.71z
					 M195.85,151.78l-0.93,0.149c0.08,0.07,0.71,0.391,0.811,0.45C195.73,152.24,195.81,151.86,195.85,151.78z M196.55,151.42
					c0.01,0,0.04-0.02,0-0.01C196.55,151.42,196.55,151.42,196.55,151.42z M203.47,146.02c-0.05-0.13-0.239-0.95-0.7-1.87
					l-0.859-1.71c-0.29,0-0.51,0.02-0.75,0.04c-0.36,0.02-0.351,0-0.54,0.23c-0.45,0.54-0.48,0.49-0.41,1.06
					c0.15,1.14-0.07,0.44,0.36,1.2c0.27,0.48,0.239,0.88,0.34,1.27C201.19,146.24,203.03,146.05,203.47,146.02z M200.51,143.65
					c0-0.48,0.391-0.87,0.87-0.87c0.48,0,0.87,0.39,0.87,0.87s-0.39,0.87-0.87,0.87C200.9,144.52,200.51,144.13,200.51,143.65z
					 M203.36,144.19l-0.011,0.01C203.35,144.2,203.36,144.2,203.36,144.19z M201.97,143.59c0-0.32-0.26-0.59-0.59-0.59
					s-0.59,0.27-0.59,0.59c0,0.33,0.26,0.6,0.59,0.6S201.97,143.92,201.97,143.59z M201.01,143.51c0-0.19,0.15-0.34,0.34-0.34
					c0.19,0,0.351,0.15,0.351,0.34c0,0.19-0.16,0.35-0.351,0.35C201.16,143.86,201.01,143.7,201.01,143.51z"/>
				<rect x="188.1" y="140.03" style="fill-rule:evenodd;clip-rule:evenodd;fill:none;" width="19.5" height="19.5"/>
			</g>
			<g>
				<path style="fill-rule:evenodd;clip-rule:evenodd;fill:#FFFFFF;" d="M228.78,158.41v-1.13h-14.12
					c-0.15,0.64-0.72,1.109-1.4,1.109c-0.149,0-0.29-0.02-0.43-0.069c0.59-0.181,1.01-0.73,1.01-1.37c0-0.641-0.42-1.19-1.01-1.37
					c0.14-0.05,0.28-0.07,0.43-0.07c0.681,0,1.25,0.471,1.4,1.11h6.01v-1.49c-0.46-0.04-0.78-0.41-0.97-0.78
					c-0.09-0.17-0.101-0.25-0.15-0.43c-0.1-0.3-0.17-0.59-0.27-0.9c-0.09-0.289,0.05-0.199-0.641-0.52l-0.819-0.36
					c-0.271-0.1-0.7,0.38-0.71,0.391l-0.73,1.6c-0.229-0.149-0.27-0.46-0.32-0.81c-0.149-1.261,0.32-1.7,1.011-2.45
					c-1.78,0-1.82,0.84-2.17,2.13c0-0.01-0.011-0.03-0.011-0.02c-0.02,0.05-0.02-0.04-0.02-0.051l-0.08-0.229
					c-0.2-0.83-0.271-1.75,0.11-2.52c0.09-0.17,0.189-0.37,0.319-0.5c0.57-0.61,1.04-0.58,1.88-0.7
					c-0.279-0.42-1.75-1.38-2.819,0.06c-0.12,0.15-0.2,0.27-0.28,0.45c-0.14,0.28-0.11,0.33-0.2,0.52c-0.03-0.13-0.1-0.71-0.08-0.84
					c0.07-0.8,0.261-1.53,0.9-2.05c0.76-0.61,1.77-0.65,2.5-0.12l0.29,0.23c-0.101-0.45-0.15-0.87-0.49-1.26
					c-0.59-0.71-1.74-0.95-2.54-0.39c-0.2,0.14-0.54,0.43-0.689,0.64c-0.04,0.05-0.061,0.07-0.091,0.12l-0.1,0.13
					c0-2.18,1.84-3.25,3.76-2.35c1.71,0.79,2.061,2.51,2.59,4.17c0.69,0,2.341-0.18,2.931-0.46c0.399-0.19,0.6-0.51,0.8-0.92
					c0.2-0.4,0.18-0.61,0.11-1.09c-0.03-0.22,0-0.13-0.101-0.34c-0.06,0.22-0.479,0.67-0.75,0.79c-0.55,0.25-1.37-0.02-1.74-0.36
					c-0.149-0.14-0.22-0.33-0.159-0.58c0.13-0.56,0.449-0.55,0.76-0.81c-0.2-0.05-0.49-0.02-0.58-0.17c-0.2-0.34,0.28-0.74,0.55-0.9
					c0.13-0.07,0.271-0.12,0.41-0.17l0.14-0.07c-0.93,0-1.22-0.39-0.739-0.67c0.52-0.31,0.96-0.2,1.56-0.15
					c-0.03-0.12-0.46-0.47-0.58-0.58c0.11-0.15,1.19-0.89,1.91-0.58c0.54,0.24,0.72,1.1,0.939,1.71c0.141,0,0.78-0.24,0.94-0.3
					l0.91-0.32l-0.851,1.23l1.44,0.35c-0.07,0.02-0.91,0.55-1.07,0.69c0.7,0,1.66,0.08,1.75,0.96c0,0.01,0,0.03,0,0.04v0.28
					c-0.06,0.63-0.54,0.82-0.979,0.73c-0.21-0.05-0.3-0.14-0.46-0.23c0.04,0.13,0.13,0.2,0.2,0.32c0.42,0.7,1,1.8,1.18,2.56
					c0.11,0.45-0.08,1.68-0.49,2.09c-0.3,0.3-0.56,0.47-0.939,0.68c-1.19,0.641-2.431,1.171-3.78,1.54
					c-0.33,0.091-0.16-0.029-0.521,0.551c-0.31,0.54-0.63,0.68-1.21,0.949v1.561h7.351v-1.12l1.45,1.45L228.78,158.41z
					 M222.09,153.66c0.101-0.16,0.391-0.91,0.4-1.11c-0.36,0.03-1.04,0.3-1.891,0.28l-0.72-0.04c-0.08,0.36-0.07,0.89,0.23,1.18
					C220.62,154.45,221.65,154.46,222.09,153.66z M223.49,152.48c1.21-0.601,2.52-0.961,3.3-2.25c0.52-0.86,0.29-2,0.14-2.94
					c-0.02-0.12-0.01-0.11-0.08-0.23l-0.06,1.37c-0.14-0.04-0.34-0.41-0.43-0.53l-0.431-0.57c-0.1,0.42-0.17,0.86-0.239,1.27h-0.07
					c-0.03-0.13-0.42-0.87-0.521-1.06c-0.13,0.04-0.17,0.13-0.26,0.21l-0.8,0.68v-0.96c-0.34,0.23-0.31,0.3-0.85,0.56
					c-0.051,0.02-0.101,0.03-0.15,0.06c-0.37,0.18-0.76,0.32-1.19,0.46c-0.949,0.32-1.59,0.49-2.55,0.71
					c-0.09-0.4-0.229-0.83-0.34-1.21c-0.08-0.29-0.27-0.99-0.36-1.22c-0.21-0.52-0.67-1.24-1.119-1.59
					c-0.091-0.07-0.131-0.14-0.24-0.17c0.029,0.1,0.069,0.12,0.13,0.21c0.33,0.47,0.649,1.21,0.81,1.77l0.641,2.27
					c-0.221-0.15-1.38-1.85-2.92-1.85c-0.32,0-0.431,0.03-0.67,0.12c-0.2,0.06-0.271,0.08-0.44,0.18l-0.13,0.08
					c0.8,0,1.46-0.39,2.6,0.43c0.351,0.25,0.73,0.66,1.03,0.95c0.26,0.25,0.3,0.27,0.63,0.61c-0.43,0-1.02-0.35-2.229-0.24
					c-0.44,0.05-1.03,0.33-1.23,0.66l-0.21,0.44c0.15-0.1,0.45-0.44,0.76-0.61c0.771-0.4,1.36-0.18,2.3,0.09l0.801,0.23l0.22,0.15
					c-0.19,0.02-1.3,0.4-1.54,0.49c-0.4,0.15-1,0.65-1.03,1.021l0.58-0.41c0.18-0.15,0.38-0.3,0.59-0.41
					c0.29-0.15,1.11-0.39,1.471-0.51l0.619,0.609c0.101,0,0.131-0.01,0.2-0.029c0.061-0.021,0.09-0.03,0.11-0.03
					c0-0.01,0.02-0.021,0.07-0.04c-0.771-0.02-0.78-0.53-0.28-0.93c0.43-0.35,0.689-0.5,1.17-0.72c-0.03,0.12-0.17,0.2-0.33,0.42
					c-0.1,0.14-0.26,0.31-0.25,0.54l1.06,0.52c-0.06,0.09-0.199,0.11-0.329,0.15c-0.15,0.05-0.23,0.079-0.381,0.14
					c-0.39,0.149-0.279,0.09-0.59,0.39c0.11,0.41,1.45,0.271,1.71,0.23c0.761-0.101,1.49-0.58,2.09-0.99l0.631-0.4l0.31-1.62
					c0.521,0.35,0.84,1.07,0.49,1.73c-0.45,0.84-1.75,1.29-2.62,1.64v0.311C223.18,152.63,223.4,152.53,223.49,152.48z
					 M219.68,151.63l-0.859,0.13c0.08,0.07,0.66,0.36,0.75,0.42C219.57,152.05,219.64,151.7,219.68,151.63z M220.33,151.29
					C220.34,151.29,220.36,151.28,220.33,151.29C220.32,151.29,220.32,151.29,220.33,151.29z M226.72,146.3
					c-0.05-0.11-0.229-0.87-0.649-1.71l-0.801-1.58c-0.26,0-0.47,0.01-0.68,0.03c-0.34,0.02-0.33,0-0.51,0.22
					c-0.41,0.49-0.44,0.44-0.37,0.97c0.13,1.05-0.07,0.41,0.33,1.11c0.25,0.45,0.22,0.81,0.31,1.17
					C224.61,146.51,226.3,146.34,226.72,146.3z M223.99,144.12c0-0.44,0.35-0.8,0.8-0.8c0.44,0,0.8,0.36,0.8,0.8s-0.359,0.8-0.8,0.8
					C224.34,144.92,223.99,144.56,223.99,144.12z M226.62,144.62l-0.021,0.01L226.62,144.62z M225.33,144.07
					c0-0.3-0.24-0.55-0.54-0.55s-0.55,0.25-0.55,0.55c0,0.3,0.25,0.55,0.55,0.55S225.33,144.37,225.33,144.07z M224.44,143.99
					c0-0.17,0.149-0.31,0.319-0.31c0.181,0,0.32,0.14,0.32,0.31c0,0.18-0.14,0.32-0.32,0.32
					C224.59,144.31,224.44,144.17,224.44,143.99z"/>
				<rect x="212.53" y="140.78" style="fill-rule:evenodd;clip-rule:evenodd;fill:none;" width="18" height="18"/>
			</g>
			<g>
				<path style="fill-rule:evenodd;clip-rule:evenodd;fill:#FFFFFF;" d="M249,156.97v-0.939h-11.76
					c-0.13,0.529-0.601,0.92-1.17,0.92c-0.13,0-0.25-0.01-0.36-0.05c0.49-0.15,0.84-0.61,0.84-1.15c0-0.53-0.35-0.99-0.84-1.14
					c0.11-0.03,0.23-0.051,0.36-0.051c0.569,0,1.04,0.391,1.17,0.921h5v-1.24c-0.38-0.03-0.65-0.34-0.811-0.65
					c-0.069-0.149-0.08-0.21-0.13-0.359c-0.069-0.25-0.14-0.49-0.22-0.75c-0.07-0.24,0.05-0.171-0.53-0.44l-0.68-0.3
					c-0.23-0.08-0.59,0.319-0.601,0.33l-0.6,1.34c-0.2-0.13-0.229-0.391-0.27-0.68c-0.131-1.051,0.26-1.41,0.84-2.041
					c-1.48,0-1.51,0.7-1.8,1.77c-0.011,0-0.011-0.02-0.011-0.01c-0.02,0.04-0.02-0.04-0.02-0.04l-0.07-0.2
					c-0.17-0.69-0.22-1.45,0.101-2.09c0.069-0.15,0.149-0.31,0.26-0.43c0.47-0.5,0.859-0.48,1.569-0.58
					c-0.239-0.35-1.46-1.15-2.359,0.05c-0.09,0.13-0.16,0.22-0.23,0.37c-0.109,0.24-0.09,0.29-0.16,0.44
					c-0.029-0.11-0.079-0.59-0.069-0.7c0.06-0.66,0.22-1.27,0.75-1.71c0.63-0.5,1.47-0.54,2.09-0.09l0.24,0.18
					c-0.09-0.37-0.13-0.72-0.41-1.05c-0.5-0.59-1.45-0.78-2.12-0.32c-0.17,0.12-0.45,0.36-0.58,0.53c-0.03,0.05-0.04,0.06-0.07,0.1
					l-0.09,0.11c0-1.82,1.54-2.7,3.141-1.96c1.42,0.66,1.71,2.09,2.159,3.48c0.57,0,1.95-0.15,2.44-0.39
					c0.33-0.15,0.5-0.42,0.67-0.76c0.17-0.34,0.14-0.51,0.09-0.91c-0.02-0.18,0-0.11-0.08-0.28c-0.05,0.18-0.41,0.55-0.63,0.65
					c-0.45,0.21-1.14-0.01-1.45-0.29c-0.13-0.12-0.18-0.28-0.13-0.49c0.11-0.46,0.37-0.45,0.63-0.68
					c-0.159-0.03-0.409-0.01-0.489-0.14c-0.16-0.28,0.239-0.61,0.47-0.74c0.1-0.06,0.22-0.1,0.33-0.15l0.12-0.05
					c-0.771,0-1.021-0.33-0.62-0.56c0.439-0.26,0.8-0.17,1.31-0.13c-0.029-0.1-0.39-0.39-0.489-0.49c0.09-0.12,0.989-0.73,1.59-0.47
					c0.449,0.19,0.609,0.91,0.79,1.42c0.109,0,0.649-0.2,0.779-0.25l0.761-0.27l-0.71,1.03l1.199,0.29
					c-0.05,0.01-0.76,0.46-0.89,0.57c0.58,0,1.38,0.08,1.46,0.81c0,0.01,0,0.02,0,0.03v0.23c-0.05,0.52-0.45,0.69-0.82,0.61
					c-0.17-0.04-0.25-0.12-0.38-0.19c0.03,0.11,0.101,0.17,0.16,0.27c0.35,0.58,0.84,1.5,0.99,2.13c0.09,0.37-0.07,1.4-0.41,1.74
					c-0.25,0.25-0.47,0.39-0.79,0.56c-0.979,0.54-2.01,0.98-3.15,1.29c-0.27,0.08-0.13-0.029-0.42,0.46
					c-0.27,0.45-0.529,0.57-1.01,0.79v1.301H249v-0.94l1.21,1.21L249,156.97z M243.43,153.02c0.08-0.14,0.32-0.76,0.33-0.93
					c-0.3,0.03-0.87,0.25-1.569,0.23l-0.601-0.03c-0.07,0.3-0.06,0.74,0.19,0.979C242.2,153.67,243.06,153.68,243.43,153.02z
					 M244.59,152.03c1.01-0.5,2.101-0.8,2.76-1.88c0.431-0.71,0.23-1.67,0.11-2.44c-0.02-0.11-0.01-0.1-0.06-0.2l-0.061,1.15
					c-0.109-0.04-0.28-0.35-0.359-0.45l-0.36-0.47c-0.08,0.35-0.14,0.71-0.2,1.06h-0.05c-0.03-0.11-0.36-0.73-0.43-0.89
					c-0.11,0.03-0.15,0.11-0.23,0.18l-0.66,0.57v-0.8c-0.28,0.18-0.26,0.25-0.71,0.46c-0.04,0.02-0.08,0.03-0.12,0.05
					c-0.31,0.15-0.64,0.27-0.989,0.38c-0.79,0.27-1.33,0.41-2.131,0.59c-0.08-0.33-0.189-0.68-0.279-1
					c-0.07-0.24-0.23-0.83-0.301-1.02c-0.18-0.43-0.56-1.03-0.939-1.32c-0.08-0.07-0.1-0.12-0.2-0.15c0.03,0.08,0.061,0.1,0.11,0.18
					c0.279,0.39,0.54,1.01,0.68,1.47l0.53,1.9c-0.181-0.13-1.15-1.54-2.431-1.55c-0.27,0-0.359,0.03-0.569,0.1
					c-0.16,0.06-0.21,0.07-0.36,0.15l-0.1,0.07c0.66,0,1.21-0.33,2.16,0.36c0.29,0.21,0.609,0.55,0.859,0.79
					c0.221,0.21,0.25,0.23,0.521,0.51c-0.36,0-0.84-0.3-1.851-0.2c-0.37,0.04-0.859,0.28-1.029,0.55l-0.181,0.37
					c0.13-0.09,0.38-0.37,0.641-0.51c0.64-0.34,1.14-0.15,1.909,0.07l0.671,0.2l0.189,0.12c-0.16,0.01-1.09,0.33-1.29,0.41
					c-0.33,0.12-0.83,0.54-0.859,0.851l0.479-0.351c0.16-0.12,0.32-0.24,0.5-0.33c0.24-0.13,0.92-0.33,1.22-0.43l0.521,0.51
					c0.09,0,0.1-0.01,0.17-0.03c0.05-0.01,0.07-0.02,0.09-0.02c0-0.01,0.021-0.021,0.06-0.04c-0.64-0.01-0.649-0.44-0.239-0.77
					c0.359-0.29,0.58-0.42,0.979-0.6c-0.029,0.1-0.14,0.17-0.279,0.35c-0.08,0.11-0.221,0.26-0.211,0.45l0.891,0.43
					c-0.05,0.08-0.17,0.09-0.28,0.13c-0.12,0.04-0.189,0.06-0.31,0.109c-0.33,0.131-0.24,0.08-0.5,0.33
					c0.09,0.34,1.21,0.221,1.43,0.19c0.63-0.08,1.24-0.48,1.74-0.82l0.529-0.34l0.25-1.35c0.44,0.3,0.711,0.9,0.41,1.45
					c-0.37,0.7-1.46,1.07-2.18,1.36v0.26C244.33,152.16,244.52,152.07,244.59,152.03z M241.42,151.32l-0.72,0.109
					c0.06,0.061,0.55,0.301,0.63,0.351C241.33,151.68,241.39,151.38,241.42,151.32z M241.96,151.04
					C241.96,151.04,241.99,151.03,241.96,151.04C241.95,151.04,241.95,151.04,241.96,151.04z M247.28,146.88
					c-0.04-0.09-0.19-0.72-0.54-1.43l-0.66-1.31c-0.22,0-0.39,0.01-0.58,0.02c-0.28,0.02-0.26,0-0.41,0.18
					c-0.35,0.42-0.37,0.38-0.32,0.82c0.12,0.87-0.05,0.33,0.28,0.92c0.21,0.37,0.19,0.68,0.26,0.98
					C245.53,147.06,246.94,146.91,247.28,146.88z M245,145.06c0-0.36,0.3-0.66,0.67-0.66s0.67,0.3,0.67,0.66
					c0,0.37-0.3,0.67-0.67,0.67S245,145.43,245,145.06z M247.2,145.48l-0.01,0.01L247.2,145.48z M246.13,145.02
					c0-0.25-0.2-0.45-0.46-0.45c-0.25,0-0.45,0.2-0.45,0.45s0.2,0.46,0.45,0.46C245.93,145.48,246.13,145.27,246.13,145.02z
					 M245.39,144.96c0-0.15,0.11-0.27,0.261-0.27c0.149,0,0.27,0.12,0.27,0.27s-0.12,0.26-0.27,0.26
					C245.5,145.22,245.39,145.11,245.39,144.96z"/>
				<rect x="235.46" y="142.28" style="fill-rule:evenodd;clip-rule:evenodd;fill:none;" width="15" height="15"/>
			</g>
			<g>
				<path style="fill-rule:evenodd;clip-rule:evenodd;fill:#FFFFFF;" d="M266.22,155.53v-0.75h-9.41
					c-0.1,0.42-0.479,0.739-0.93,0.739c-0.1,0-0.2-0.02-0.29-0.039c0.391-0.131,0.67-0.49,0.67-0.921c0-0.43-0.279-0.79-0.67-0.92
					c0.09-0.02,0.19-0.04,0.29-0.04c0.45,0,0.83,0.32,0.93,0.74h4.011v-0.99c-0.311-0.029-0.53-0.279-0.65-0.52
					c-0.06-0.12-0.07-0.17-0.11-0.29c-0.06-0.2-0.109-0.39-0.17-0.6c-0.069-0.19,0.03-0.131-0.43-0.351l-0.54-0.24
					c-0.18-0.06-0.47,0.261-0.479,0.261l-0.49,1.069c-0.15-0.1-0.181-0.31-0.21-0.54c-0.101-0.84,0.21-1.13,0.67-1.63
					c-1.18,0-1.21,0.561-1.44,1.42c0-0.01-0.01-0.02-0.01-0.02c-0.01,0.04-0.01-0.021-0.02-0.03l-0.04-0.149
					c-0.141-0.561-0.181-1.17,0.069-1.681c0.061-0.12,0.13-0.25,0.21-0.34c0.38-0.4,0.69-0.39,1.261-0.46
					c-0.2-0.29-1.171-0.92-1.891,0.04c-0.08,0.1-0.13,0.17-0.18,0.29c-0.101,0.19-0.08,0.23-0.13,0.35
					c-0.021-0.09-0.07-0.47-0.061-0.56c0.051-0.53,0.181-1.02,0.601-1.36c0.51-0.41,1.18-0.44,1.67-0.08l0.189,0.15
					c-0.069-0.3-0.1-0.58-0.33-0.84c-0.39-0.47-1.149-0.63-1.689-0.26c-0.14,0.09-0.36,0.29-0.46,0.43
					c-0.03,0.03-0.04,0.04-0.061,0.08l-0.069,0.09c0-1.46,1.229-2.17,2.51-1.58c1.14,0.54,1.37,1.68,1.729,2.79
					c0.45,0,1.551-0.12,1.95-0.31c0.261-0.13,0.4-0.34,0.53-0.61c0.14-0.27,0.12-0.41,0.08-0.73c-0.021-0.15,0-0.09-0.07-0.23
					c-0.04,0.15-0.319,0.45-0.5,0.53c-0.359,0.17-0.91-0.01-1.16-0.24c-0.1-0.09-0.149-0.22-0.109-0.38
					c0.09-0.38,0.3-0.37,0.51-0.55c-0.13-0.03-0.33-0.01-0.39-0.11c-0.13-0.23,0.189-0.49,0.37-0.6c0.09-0.05,0.18-0.08,0.27-0.11
					l0.1-0.05c-0.619,0-0.819-0.26-0.5-0.45c0.351-0.2,0.641-0.13,1.051-0.1c-0.03-0.08-0.311-0.31-0.391-0.39
					c0.07-0.1,0.79-0.59,1.271-0.38c0.359,0.16,0.479,0.73,0.63,1.14c0.09,0,0.52-0.16,0.62-0.2l0.609-0.21l-0.569,0.82l0.96,0.23
					c-0.04,0.01-0.601,0.37-0.71,0.46c0.47,0,1.1,0.06,1.17,0.64c0,0.01,0,0.02,0,0.03v0.19c-0.04,0.41-0.36,0.54-0.65,0.48
					c-0.149-0.03-0.2-0.1-0.31-0.15c0.02,0.08,0.08,0.13,0.13,0.21c0.28,0.47,0.67,1.2,0.79,1.7c0.069,0.31-0.05,1.13-0.33,1.4
					c-0.2,0.2-0.37,0.31-0.63,0.45c-0.79,0.431-1.61,0.78-2.521,1.03c-0.22,0.061-0.109-0.02-0.34,0.37
					c-0.21,0.36-0.42,0.45-0.81,0.63v1.04h4.899v-0.75l0.971,0.97L266.22,155.53z M261.76,152.37c0.061-0.11,0.26-0.61,0.271-0.74
					c-0.24,0.021-0.7,0.2-1.261,0.18l-0.479-0.02c-0.06,0.24-0.05,0.59,0.15,0.78C260.78,152.9,261.47,152.9,261.76,152.37z
					 M262.69,151.58c0.81-0.4,1.68-0.64,2.21-1.5c0.34-0.57,0.18-1.34,0.09-1.96c-0.021-0.08-0.01-0.08-0.05-0.15l-0.051,0.91
					c-0.09-0.03-0.229-0.27-0.279-0.36l-0.29-0.37c-0.07,0.28-0.11,0.57-0.16,0.85h-0.05c-0.021-0.1-0.28-0.59-0.341-0.71
					c-0.09,0.02-0.119,0.08-0.18,0.14l-0.53,0.45v-0.64c-0.22,0.15-0.21,0.2-0.569,0.37c-0.03,0.01-0.061,0.03-0.09,0.04
					c-0.25,0.12-0.511,0.21-0.801,0.31c-0.63,0.21-1.06,0.33-1.699,0.47c-0.061-0.26-0.15-0.55-0.23-0.8
					c-0.05-0.2-0.18-0.66-0.24-0.81c-0.14-0.35-0.439-0.83-0.739-1.07c-0.07-0.05-0.091-0.09-0.16-0.11
					c0.01,0.06,0.04,0.08,0.08,0.14c0.22,0.31,0.43,0.81,0.54,1.18l0.43,1.52c-0.14-0.11-0.92-1.24-1.95-1.24
					c-0.21,0-0.28,0.02-0.45,0.08c-0.12,0.04-0.17,0.06-0.29,0.12l-0.08,0.05c0.53,0,0.971-0.26,1.73,0.29
					c0.229,0.17,0.49,0.44,0.69,0.63c0.17,0.17,0.199,0.18,0.42,0.41c-0.29,0-0.681-0.24-1.49-0.16c-0.29,0.03-0.68,0.22-0.82,0.44
					l-0.14,0.29c0.1-0.07,0.3-0.29,0.51-0.4c0.51-0.27,0.91-0.13,1.53,0.06l0.529,0.15l0.15,0.1c-0.12,0.01-0.87,0.27-1.03,0.32
					c-0.26,0.1-0.659,0.439-0.68,0.689l0.38-0.279c0.12-0.1,0.25-0.2,0.391-0.271c0.199-0.1,0.739-0.26,0.979-0.34l0.42,0.41
					c0.07,0,0.08-0.01,0.14-0.03c0.03-0.01,0.051-0.01,0.061-0.01c0.01-0.01,0.02-0.02,0.05-0.03c-0.51-0.01-0.52-0.35-0.18-0.62
					c0.28-0.23,0.46-0.33,0.78-0.48c-0.021,0.08-0.11,0.13-0.221,0.28c-0.069,0.09-0.18,0.21-0.17,0.36l0.71,0.34
					c-0.05,0.07-0.14,0.08-0.22,0.1c-0.1,0.04-0.16,0.06-0.25,0.1c-0.271,0.1-0.19,0.06-0.4,0.26c0.07,0.271,0.971,0.181,1.141,0.16
					c0.51-0.069,0.989-0.39,1.399-0.67l0.42-0.26l0.2-1.08c0.351,0.23,0.561,0.71,0.33,1.15c-0.3,0.56-1.17,0.86-1.75,1.09v0.21
					C262.48,151.68,262.63,151.61,262.69,151.58z M260.15,151.01l-0.57,0.09c0.05,0.051,0.439,0.24,0.5,0.28
					C260.08,151.3,260.13,151.06,260.15,151.01z M260.59,150.79c0,0,0.021-0.01-0.01,0C260.58,150.79,260.58,150.79,260.59,150.79z
					 M264.85,147.46c-0.04-0.07-0.159-0.58-0.439-1.14l-0.53-1.06c-0.18,0-0.31,0.02-0.46,0.03c-0.22,0.01-0.21,0-0.33,0.14
					c-0.27,0.33-0.3,0.3-0.25,0.65c0.09,0.7-0.05,0.27,0.22,0.74c0.171,0.3,0.15,0.54,0.21,0.78
					C263.44,147.6,264.57,147.49,264.85,147.46z M263.02,146.01c0-0.3,0.24-0.54,0.54-0.54c0.29,0,0.53,0.24,0.53,0.54
					c0,0.29-0.24,0.53-0.53,0.53C263.26,146.54,263.02,146.3,263.02,146.01z M264.78,146.34l-0.011,0.01L264.78,146.34z
					 M263.92,145.97c0-0.2-0.16-0.36-0.36-0.36c-0.199,0-0.369,0.16-0.369,0.36c0,0.2,0.17,0.37,0.369,0.37
					C263.76,146.34,263.92,146.17,263.92,145.97z M263.33,145.92c0-0.11,0.09-0.21,0.21-0.21s0.21,0.1,0.21,0.21
					c0,0.12-0.09,0.22-0.21,0.22S263.33,146.04,263.33,145.92z"/>
				<rect x="255.39" y="143.78" style="fill-rule:evenodd;clip-rule:evenodd;fill:none;" width="12" height="12"/>
			</g>
		</g>
	</g>
</g>
<g id="Guides">
</g>
</svg>
