<?xml version="1.0" encoding="utf-8"?>
<!-- Generator: Adobe Illustrator 15.0.0, SVG Export Plug-In . SVG Version: 6.00 Build 0)  -->
<!DOCTYPE svg PUBLIC "-//W3C//DTD SVG 1.1//EN" "http://www.w3.org/Graphics/SVG/1.1/DTD/svg11.dtd">
<svg version="1.1" id="Layer_1" xmlns="http://www.w3.org/2000/svg" xmlns:xlink="http://www.w3.org/1999/xlink" x="0px" y="0px"
	 width="162px" height="148px" viewBox="0 0 162 148" enable-background="new 0 0 162 148" xml:space="preserve">
<g>
	<path d="M81.833,30.342c-9.539,0-17.271,7.732-17.271,17.271c0,9.539,7.732,17.271,17.271,17.271s17.271-7.732,17.271-17.271
		C99.104,38.074,91.372,30.342,81.833,30.342z M81.833,56.304c-4.8,0-8.691-3.891-8.691-8.69c0-4.8,3.891-8.691,8.691-8.691
		c4.8,0,8.69,3.891,8.69,8.691C90.524,52.413,86.633,56.304,81.833,56.304z"/>
	<path d="M115.331,108.333c3.131,0,5.669-2.538,5.669-5.669V16.669c0-3.131-2.538-5.669-5.669-5.669H48.336
		c-3.131,0-5.669,2.538-5.669,5.669v85.995c0,3.131,2.538,5.669,5.669,5.669h19.83V122h-19.83c-3.131,0-5.669,2.539-5.669,5.67
		v5.994c0,3.131,2.538,5.67,5.669,5.67h66.994c3.131,0,5.669-2.539,5.669-5.67v-5.994c0-3.131-2.538-5.67-5.669-5.67H95.5v-13.667
		H115.331z M113.667,90.502c0,4.694-3.806,8.5-8.5,8.5s-8.5-3.806-8.5-8.5s3.806-8.5,8.5-8.5S113.667,85.808,113.667,90.502z
		 M81.833,74.78c-15.004,0-27.167-12.163-27.167-27.167S66.83,20.446,81.833,20.446S109,32.609,109,47.613
		S96.837,74.78,81.833,74.78z"/>
</g>
</svg>
