<?xml version="1.0" encoding="utf-8"?>
<!-- Generator: Adobe Illustrator 15.0.0, SVG Export Plug-In . SVG Version: 6.00 Build 0)  -->
<!DOCTYPE svg PUBLIC "-//W3C//DTD SVG 1.1//EN" "http://www.w3.org/Graphics/SVG/1.1/DTD/svg11.dtd">
<svg version="1.1" id="Layer_1" xmlns="http://www.w3.org/2000/svg" xmlns:xlink="http://www.w3.org/1999/xlink" x="0px" y="0px"
	 width="283.464px" height="283.464px" viewBox="0 0 283.464 283.464" enable-background="new 0 0 283.464 283.464"
	 xml:space="preserve">
<path fill-rule="evenodd" clip-rule="evenodd" d="M133.917,127.437c10.466,10.466,9.161,17.709,3.889,22.981
	s-12.515,6.577-22.981-3.889c-10.466-10.465-14.919-34.011-14.919-34.011S123.451,116.971,133.917,127.437z"/>
<path fill-rule="evenodd" clip-rule="evenodd" d="M135.165,99.162c8.809,8.81,7.711,14.905,3.273,19.343s-10.533,5.536-19.343-3.273
	c-8.809-8.809-12.558-28.626-12.558-28.626S126.356,90.354,135.165,99.162z"/>
<path fill-rule="evenodd" clip-rule="evenodd" d="M135.962,73.875c7.751,7.751,6.785,13.114,2.88,17.019s-9.268,4.871-17.019-2.88
	c-7.75-7.75-11.049-25.187-11.049-25.187S128.212,66.125,135.962,73.875z"/>
<path fill-rule="evenodd" clip-rule="evenodd" d="M146.718,113.4c-10.466,10.466-9.161,17.709-3.889,22.981
	s12.515,6.577,22.981-3.889c10.466-10.465,14.919-34.011,14.919-34.011S157.183,102.935,146.718,113.4z"/>
<path fill-rule="evenodd" clip-rule="evenodd" d="M145.469,85.125c-8.809,8.81-7.711,14.905-3.273,19.343s10.533,5.536,19.343-3.273
	c8.809-8.809,12.558-28.626,12.558-28.626S154.278,76.317,145.469,85.125z"/>
<path fill-rule="evenodd" clip-rule="evenodd" d="M144.672,59.839c-7.751,7.751-6.785,13.114-2.88,17.019s9.268,4.871,17.019-2.88
	c7.75-7.75,11.049-25.187,11.049-25.187S152.422,52.088,144.672,59.839z"/>
<path fill-rule="evenodd" clip-rule="evenodd" d="M145.067,45.387c0,12.999-5.309,16.686-11.856,16.686
	c-6.547,0-11.855-3.688-11.855-16.686c0-12.998,11.855-30.385,11.855-30.385S145.067,32.389,145.067,45.387z"/>
<polygon fill-rule="evenodd" clip-rule="evenodd" points="137.017,273.601 147.026,273.601 144.392,154.935 139.651,154.935 "/>
<path fill-rule="evenodd" clip-rule="evenodd" d="M141.354,272.602c0,0-18.333-101,50.667-123.333
	c-49,64-45.333,121.333-45.333,121.333"/>
</svg>
