<?xml version="1.0" encoding="iso-8859-1"?>
<!-- Generator: Adobe Illustrator 15.0.0, SVG Export Plug-In . SVG Version: 6.00 Build 0)  -->
<!DOCTYPE svg PUBLIC "-//W3C//DTD SVG 1.1//EN" "http://www.w3.org/Graphics/SVG/1.1/DTD/svg11.dtd">
<svg version="1.1" id="&#x421;&#x43B;&#x43E;&#x439;_1"
	 xmlns="http://www.w3.org/2000/svg" xmlns:xlink="http://www.w3.org/1999/xlink" x="0px" y="0px" width="600px" height="600px"
	 viewBox="0 0 600 600" style="enable-background:new 0 0 600 600;" xml:space="preserve">
<g>
	<rect x="453.18" y="-164.72" style="fill-rule:evenodd;clip-rule:evenodd;fill:#000003;" width="300" height="300"/>
	<g>
		<path style="fill-rule:evenodd;clip-rule:evenodd;fill:#FFFFFF;" d="M483.47-8.29c-0.39-0.03-0.76-0.09-1.11-0.18
			c-0.46-0.11-0.88-0.28-1.29-0.49c-0.29-0.14-0.569-0.32-0.83-0.52c-0.22-0.16-0.43-0.34-0.64-0.55c-0.45-0.44-0.8-0.94-1.069-1.48
			c-0.261-0.52-0.44-1.09-0.521-1.7c-0.03-0.189-0.05-0.39-0.06-0.59c-0.03-1.05,0.21-1.98,0.63-2.81c0.189-0.35,0.409-0.69,0.67-1
			c0.12-0.14,0.239-0.28,0.37-0.4c0.21-0.2,0.43-0.39,0.659-0.55c0.46-0.32,0.961-0.56,1.511-0.72c0.45-0.13,0.93-0.2,1.439-0.2
			c0.29,0,0.57,0.021,0.841,0.07c0.93,0.15,1.749,0.53,2.47,1.12c0.109,0.09,0.21,0.19,0.319,0.29c0.45,0.45,0.79,0.96,1.03,1.51
			c0.13,0.33,0.23,0.67,0.29,1.03c0.03,0.169,0.06,0.36,0.07,0.54c0.01,0.35,0,0.7-0.061,1.03c-0.08,0.49-0.229,0.95-0.449,1.37
			c-0.131,0.25-0.28,0.49-0.45,0.71c-0.141,0.18-0.28,0.35-0.45,0.5c-0.13,0.13-0.26,0.24-0.4,0.35c-0.67,0.5-1.45,0.79-2.35,0.83
			c-0.28,0.01-0.56,0-0.82-0.05c-0.54-0.08-1.05-0.26-1.5-0.54c-0.24-0.14-0.46-0.3-0.67-0.49c-0.399-0.37-0.699-0.79-0.9-1.25
			c-0.189-0.43-0.31-0.9-0.319-1.42c-0.01-0.19,0.01-0.38,0.03-0.56c0.05-0.43,0.189-0.83,0.369-1.2c0.19-0.37,0.45-0.71,0.771-1.01
			c0.19-0.18,0.4-0.33,0.62-0.45c0.109-0.05,0.22-0.11,0.33-0.15c0.39-0.149,0.81-0.25,1.27-0.24c0.08,0.01,0.16,0.01,0.23,0.02
			c0.1,0.01,0.199,0.02,0.29,0.04c0.52,0.1,0.979,0.31,1.39,0.64c0.53,0.419,0.88,0.99,0.99,1.64c0.04,0.21,0.05,0.46,0.03,0.68
			c-0.021,0.19-0.051,0.36-0.101,0.53c-0.05,0.17-0.109,0.33-0.189,0.479c-0.03,0.061-0.061,0.11-0.101,0.16
			c-0.16,0.27-0.399,0.55-0.68,0.73c-0.16,0.11-0.33,0.19-0.52,0.26c-0.15,0.05-0.301,0.08-0.471,0.1c-0.54,0.05-1.04-0.1-1.43-0.39
			c-0.141-0.1-0.271-0.22-0.38-0.35c-0.23-0.29-0.36-0.64-0.34-1.05c0-0.13,0.02-0.25,0.05-0.36c0.05-0.2,0.149-0.38,0.27-0.55
			c0.19-0.24,0.44-0.4,0.73-0.45c0.25-0.03,0.5,0.02,0.699,0.14c0.091,0.06,0.19,0.14,0.25,0.23c0.081,0.1,0.131,0.25,0.101,0.39
			c-0.01,0.03-0.01,0.06-0.02,0.08c-0.021,0.08-0.07,0.15-0.131,0.21c-0.02,0.02-0.029,0.04-0.06,0.02h0.04l0.09-0.14
			c0.03-0.05,0.04-0.11,0.05-0.17c0-0.05-0.01-0.09-0.01-0.14c-0.021-0.07-0.05-0.14-0.09-0.19c-0.011-0.01-0.021-0.03-0.04-0.04
			c-0.07-0.08-0.181-0.15-0.29-0.2c-0.06-0.02-0.12-0.04-0.181-0.05c-0.05-0.01-0.1-0.02-0.159-0.02
			c-0.21-0.01-0.391,0.05-0.55,0.15l-0.141,0.12l-0.14,0.18c-0.181,0.26-0.28,0.59-0.23,0.94c0.011,0.081,0.021,0.15,0.04,0.221
			c0.05,0.15,0.12,0.29,0.21,0.419c0.03,0.03,0.05,0.061,0.08,0.09c0.01,0.02,0.03,0.04,0.04,0.05s0.021,0.02,0.021,0.01
			c0.229,0.24,0.52,0.39,0.85,0.47c0.16,0.03,0.34,0.05,0.52,0.04c0.11-0.01,0.21-0.03,0.301-0.05c0.159-0.04,0.31-0.1,0.449-0.17
			l0.381-0.3l0.199-0.22c0.181-0.24,0.301-0.51,0.381-0.8c0.06-0.26,0.079-0.58,0.04-0.86c-0.03-0.13-0.051-0.25-0.091-0.37
			c-0.04-0.1-0.08-0.2-0.12-0.3c-0.029-0.04-0.05-0.08-0.069-0.12c-0.03-0.06-0.08-0.12-0.12-0.18l-0.22-0.25l-0.03-0.04
			c-0.03-0.021-0.061-0.05-0.08-0.07c-0.08-0.07-0.17-0.14-0.25-0.2c-0.26-0.169-0.53-0.3-0.83-0.38c-0.15-0.03-0.3-0.06-0.45-0.07
			c-0.26-0.03-0.52-0.01-0.75,0.04c-0.38,0.08-0.729,0.229-1.029,0.46l-0.29,0.25l-0.311,0.35c-0.27,0.38-0.449,0.79-0.54,1.26
			c-0.06,0.27-0.07,0.58-0.04,0.87c0.021,0.18,0.05,0.34,0.09,0.51c0.101,0.35,0.25,0.669,0.46,0.97c0.07,0.09,0.15,0.19,0.23,0.28
			c0.02,0.02,0.04,0.05,0.06,0.07c0.011,0,0.04,0.03,0.021,0.021c0.35,0.35,0.76,0.62,1.2,0.79c0.199,0.08,0.41,0.15,0.64,0.19
			c0.311,0.05,0.65,0.08,0.99,0.05c0.189-0.02,0.38-0.06,0.56-0.1c0.2-0.05,0.391-0.12,0.58-0.2c0.18-0.09,0.36-0.19,0.521-0.3
			l0.479-0.39l0.04-0.05c0.021-0.01,0.04-0.03,0.05-0.04c0.08-0.081,0.15-0.16,0.21-0.25c0.2-0.24,0.37-0.511,0.5-0.79
			c0.19-0.38,0.311-0.8,0.36-1.25c0.021-0.21,0.03-0.42,0.021-0.64c0-0.12-0.011-0.24-0.03-0.35c-0.021-0.15-0.051-0.29-0.08-0.43
			c-0.15-0.59-0.42-1.11-0.8-1.58c-0.04-0.05-0.08-0.09-0.12-0.14c-0.021-0.03-0.05-0.05-0.07-0.07c0-0.01-0.03-0.03-0.02-0.03
			c0,0.01-0.011,0-0.011-0.01c-0.01-0.01-0.03-0.021-0.04-0.04c-0.02-0.01-0.029-0.03-0.04-0.04c-0.119-0.11-0.239-0.22-0.359-0.31
			c-0.16-0.12-0.32-0.23-0.48-0.33c-0.479-0.28-1.02-0.47-1.6-0.56c-0.31-0.04-0.65-0.06-0.98-0.03
			c-0.359,0.021-0.699,0.09-1.02,0.19c-0.3,0.1-0.58,0.22-0.86,0.37c-0.13,0.07-0.25,0.16-0.369,0.24
			c-0.101,0.06-0.19,0.13-0.28,0.21l-0.26,0.23l-0.351,0.39c-0.53,0.64-0.89,1.37-1.05,2.19c-0.08,0.44-0.11,0.93-0.07,1.41
			c0.021,0.28,0.07,0.55,0.141,0.82c0.149,0.57,0.39,1.1,0.72,1.58c0.11,0.16,0.229,0.32,0.37,0.46c0.029,0.04,0.069,0.08,0.1,0.12
			c0.01,0.01,0.02,0.021,0.03,0.021v0.01l0.01,0.01c0.01,0,0,0,0,0c0.54,0.55,1.15,0.97,1.83,1.25c0.319,0.13,0.65,0.23,0.99,0.3
			c0.479,0.1,1.02,0.14,1.55,0.1c0.31-0.02,0.6-0.07,0.89-0.14c0.26-0.06,0.521-0.15,0.771-0.25c0.489-0.19,0.95-0.47,1.38-0.8
			l0.36-0.32l0.029-0.03c0.021-0.02,0.04-0.04,0.061-0.06c0.05-0.05,0.09-0.09,0.13-0.13c0.17-0.18,0.32-0.37,0.47-0.56
			c0.141-0.19,0.27-0.4,0.391-0.61c0.229-0.4,0.419-0.83,0.55-1.28c0.09-0.33,0.159-0.67,0.21-1.03c0.02-0.21,0.04-0.41,0.04-0.63
			c0.01-0.73-0.11-1.41-0.311-2.04c-0.1-0.32-0.229-0.64-0.39-0.94c-0.11-0.209-0.23-0.42-0.37-0.63
			c-0.17-0.25-0.351-0.49-0.56-0.72c0.05,0.04,0.1,0.09,0.14,0.14c0.08,0.08,0.16,0.16,0.229,0.24c0.23,0.26,0.431,0.53,0.61,0.81
			c0.16,0.25,0.29,0.5,0.41,0.76c0.21,0.5,0.37,1.02,0.45,1.57c0.04,0.27,0.069,0.55,0.08,0.84c0.02,1-0.19,1.9-0.55,2.72
			c-0.181,0.42-0.411,0.82-0.69,1.19c-0.15,0.2-0.311,0.4-0.49,0.58c-0.53,0.58-1.15,1.01-1.82,1.32
			c-0.319,0.161-0.659,0.28-1.01,0.371c-0.51,0.13-1.05,0.2-1.62,0.2C483.67-8.28,483.57-8.29,483.47-8.29z"/>
		<path style="fill-rule:evenodd;clip-rule:evenodd;fill:#FFFFFF;" d="M504.17-6.899c-0.49-0.03-0.95-0.1-1.391-0.21
			c-0.569-0.15-1.1-0.36-1.609-0.62c-0.36-0.18-0.71-0.4-1.04-0.65c-0.28-0.21-0.54-0.43-0.79-0.68c-0.57-0.56-1.01-1.18-1.351-1.86
			c-0.319-0.65-0.54-1.36-0.649-2.12c-0.04-0.24-0.061-0.48-0.07-0.74c-0.04-1.32,0.26-2.48,0.79-3.52
			c0.23-0.43,0.51-0.86,0.84-1.25c0.15-0.16,0.301-0.34,0.46-0.49c0.271-0.25,0.54-0.49,0.83-0.69c0.57-0.4,1.2-0.7,1.881-0.9
			c0.56-0.16,1.159-0.25,1.8-0.25c0.359,0,0.71,0.03,1.05,0.08c1.16,0.2,2.19,0.66,3.08,1.4c0.14,0.12,0.279,0.24,0.41,0.37
			c0.569,0.56,0.979,1.2,1.279,1.89c0.17,0.4,0.301,0.83,0.37,1.28c0.04,0.22,0.07,0.45,0.08,0.68c0.021,0.44,0,0.88-0.07,1.29
			c-0.1,0.61-0.29,1.19-0.569,1.71c-0.16,0.31-0.341,0.61-0.561,0.89c-0.16,0.22-0.35,0.43-0.55,0.63c-0.17,0.15-0.33,0.3-0.51,0.43
			c-0.83,0.63-1.81,0.99-2.94,1.041c-0.34,0.02-0.689-0.01-1.02-0.061c-0.681-0.1-1.31-0.34-1.88-0.68
			c-0.29-0.17-0.57-0.38-0.841-0.62c-0.489-0.45-0.869-0.98-1.119-1.55c-0.24-0.55-0.38-1.13-0.4-1.78c0-0.24,0.01-0.47,0.04-0.7
			c0.07-0.54,0.24-1.04,0.47-1.5c0.23-0.46,0.551-0.88,0.96-1.26c0.23-0.23,0.5-0.41,0.78-0.56c0.13-0.07,0.26-0.141,0.4-0.19
			c0.489-0.19,1.01-0.32,1.6-0.3c0.09,0.01,0.19,0.01,0.28,0.02c0.12,0.01,0.25,0.03,0.359,0.05c0.65,0.12,1.221,0.4,1.73,0.8
			c0.67,0.52,1.101,1.24,1.24,2.05c0.05,0.27,0.069,0.57,0.05,0.85c-0.03,0.24-0.07,0.46-0.13,0.67c-0.06,0.2-0.141,0.41-0.24,0.6
			c-0.04,0.07-0.08,0.13-0.12,0.201c-0.21,0.339-0.51,0.68-0.85,0.91c-0.21,0.13-0.42,0.24-0.66,0.32c-0.18,0.06-0.37,0.1-0.58,0.12
			c-0.68,0.07-1.3-0.12-1.79-0.48c-0.17-0.12-0.34-0.28-0.47-0.44c-0.29-0.36-0.45-0.8-0.431-1.31c0-0.16,0.03-0.31,0.061-0.45
			c0.069-0.25,0.189-0.48,0.34-0.68c0.24-0.31,0.55-0.51,0.91-0.57c0.32-0.04,0.63,0.03,0.88,0.18c0.11,0.07,0.23,0.17,0.31,0.28
			c0.101,0.13,0.16,0.31,0.131,0.49c-0.011,0.04-0.021,0.07-0.03,0.1c-0.03,0.1-0.08,0.19-0.16,0.27c-0.02,0.02-0.04,0.04-0.07,0.01
			h0.051l0.109-0.17c0.03-0.07,0.04-0.13,0.05-0.21c0.01-0.06,0-0.12-0.01-0.17c-0.02-0.09-0.06-0.17-0.11-0.24
			c-0.01-0.02-0.029-0.04-0.039-0.05c-0.101-0.1-0.24-0.19-0.36-0.25c-0.08-0.03-0.15-0.06-0.23-0.07
			c-0.069-0.01-0.13-0.021-0.199-0.021c-0.261-0.02-0.49,0.061-0.69,0.19l-0.18,0.15l-0.17,0.22c-0.221,0.32-0.351,0.74-0.29,1.18
			c0.01,0.09,0.03,0.18,0.05,0.27c0.06,0.19,0.149,0.37,0.26,0.53c0.04,0.03,0.07,0.08,0.1,0.11c0.021,0.03,0.04,0.04,0.061,0.06
			c0.01,0.01,0.02,0.03,0.01,0.02c0.3,0.29,0.66,0.49,1.07,0.58c0.199,0.04,0.43,0.07,0.66,0.05c0.13-0.01,0.25-0.03,0.369-0.06
			c0.2-0.04,0.391-0.12,0.561-0.22l0.479-0.37l0.24-0.28c0.23-0.3,0.381-0.63,0.47-0.99c0.091-0.33,0.11-0.73,0.051-1.08
			c-0.021-0.16-0.061-0.31-0.11-0.46c-0.04-0.13-0.09-0.25-0.15-0.37c-0.029-0.05-0.05-0.1-0.079-0.15
			c-0.04-0.08-0.101-0.15-0.15-0.23l-0.28-0.32l-0.04-0.04c-0.029-0.03-0.06-0.06-0.1-0.09c-0.101-0.09-0.2-0.17-0.31-0.25
			c-0.32-0.21-0.66-0.37-1.04-0.47c-0.181-0.05-0.36-0.08-0.561-0.1c-0.32-0.02-0.65,0-0.94,0.06c-0.47,0.1-0.899,0.29-1.279,0.57
			l-0.37,0.31l-0.38,0.45c-0.34,0.47-0.57,0.979-0.681,1.57c-0.069,0.34-0.09,0.73-0.05,1.09c0.03,0.22,0.061,0.43,0.12,0.63
			c0.12,0.44,0.311,0.84,0.57,1.21c0.09,0.12,0.18,0.24,0.279,0.35c0.03,0.03,0.061,0.06,0.091,0.089c0,0,0.04,0.04,0.02,0.03
			c0.44,0.44,0.95,0.771,1.5,0.99c0.25,0.1,0.51,0.18,0.79,0.23c0.391,0.07,0.82,0.1,1.24,0.06c0.25-0.02,0.479-0.07,0.71-0.12
			c0.25-0.06,0.49-0.15,0.72-0.25c0.23-0.11,0.45-0.23,0.66-0.38l0.6-0.49l0.04-0.05c0.03-0.021,0.04-0.04,0.061-0.06
			c0.1-0.1,0.189-0.2,0.27-0.3c0.25-0.31,0.45-0.64,0.62-0.99c0.23-0.48,0.39-1.01,0.45-1.57c0.03-0.26,0.04-0.53,0.03-0.79
			c-0.01-0.16-0.021-0.3-0.04-0.45c-0.03-0.18-0.061-0.36-0.101-0.54c-0.18-0.73-0.52-1.38-1-1.97c-0.05-0.06-0.1-0.12-0.149-0.17
			c-0.03-0.03-0.061-0.061-0.09-0.09c-0.011-0.01-0.03-0.04-0.03-0.04c0.01,0.01,0,0,0-0.01c-0.021-0.01-0.04-0.03-0.061-0.05
			c-0.02-0.02-0.029-0.03-0.05-0.05c-0.149-0.14-0.3-0.27-0.45-0.39c-0.189-0.15-0.39-0.28-0.6-0.4c-0.6-0.35-1.27-0.6-2-0.7
			c-0.39-0.06-0.81-0.08-1.229-0.05c-0.44,0.03-0.87,0.11-1.261,0.24c-0.38,0.12-0.74,0.271-1.08,0.47
			c-0.16,0.08-0.31,0.19-0.47,0.29c-0.12,0.08-0.23,0.17-0.34,0.26l-0.33,0.3l-0.44,0.48c-0.659,0.8-1.1,1.71-1.3,2.74
			c-0.109,0.55-0.149,1.17-0.1,1.76c0.03,0.35,0.09,0.69,0.17,1.02c0.189,0.72,0.49,1.38,0.91,1.98c0.14,0.2,0.29,0.4,0.45,0.58
			c0.05,0.05,0.1,0.1,0.14,0.15c0.01,0.01,0.02,0.02,0.03,0.03h0.01v0.01c0.01,0.01,0.01,0,0,0c0.68,0.69,1.45,1.22,2.3,1.56
			c0.39,0.17,0.8,0.3,1.23,0.38c0.6,0.12,1.279,0.18,1.939,0.13c0.38-0.03,0.75-0.09,1.11-0.18c0.33-0.08,0.649-0.19,0.96-0.3
			c0.62-0.25,1.2-0.6,1.729-1.02l0.44-0.39l0.04-0.04c0.03-0.021,0.06-0.05,0.09-0.08c0.05-0.05,0.1-0.1,0.15-0.16
			c0.21-0.22,0.41-0.45,0.59-0.7c0.18-0.24,0.34-0.49,0.49-0.75c0.289-0.5,0.52-1.04,0.68-1.601c0.12-0.419,0.21-0.85,0.271-1.3
			c0.02-0.25,0.039-0.51,0.05-0.78c0.02-0.92-0.131-1.76-0.391-2.55c-0.13-0.411-0.29-0.8-0.479-1.17
			c-0.141-0.27-0.301-0.54-0.47-0.79c-0.211-0.31-0.44-0.62-0.7-0.9c0.06,0.05,0.12,0.11,0.18,0.17c0.1,0.1,0.2,0.2,0.29,0.3
			c0.28,0.331,0.53,0.67,0.76,1.021c0.19,0.3,0.36,0.62,0.5,0.95c0.271,0.61,0.47,1.26,0.57,1.96c0.06,0.34,0.09,0.68,0.1,1.04
			c0.021,1.25-0.24,2.38-0.68,3.4c-0.229,0.52-0.52,1.03-0.87,1.5c-0.189,0.25-0.39,0.49-0.61,0.72
			c-0.67,0.72-1.449,1.25-2.279,1.65c-0.4,0.2-0.82,0.35-1.26,0.46c-0.641,0.16-1.311,0.26-2.03,0.25
			C504.42-6.88,504.29-6.89,504.17-6.899z"/>
		<path style="fill-rule:evenodd;clip-rule:evenodd;fill:#FFFFFF;" d="M527.87-5.5c-0.58-0.04-1.141-0.12-1.67-0.26
			c-0.681-0.18-1.32-0.42-1.931-0.74c-0.43-0.22-0.85-0.48-1.25-0.78c-0.33-0.25-0.64-0.51-0.95-0.82
			c-0.68-0.67-1.21-1.41-1.609-2.22c-0.39-0.79-0.65-1.64-0.78-2.55c-0.05-0.29-0.08-0.58-0.09-0.89c-0.05-1.58,0.31-2.97,0.96-4.22
			c0.27-0.53,0.601-1.03,1-1.5c0.17-0.2,0.35-0.41,0.55-0.59c0.32-0.31,0.65-0.59,0.99-0.83c0.69-0.48,1.439-0.84,2.26-1.08
			c0.67-0.19,1.391-0.3,2.16-0.3c0.43,0,0.86,0.03,1.26,0.1c1.4,0.23,2.63,0.79,3.7,1.68c0.17,0.14,0.33,0.29,0.49,0.44
			c0.68,0.67,1.18,1.44,1.54,2.27c0.2,0.48,0.35,1,0.439,1.53c0.051,0.27,0.09,0.54,0.101,0.82c0.02,0.53,0,1.06-0.09,1.55
			c-0.12,0.73-0.341,1.43-0.681,2.05c-0.189,0.37-0.41,0.73-0.67,1.07c-0.2,0.26-0.42,0.52-0.67,0.75c-0.2,0.18-0.39,0.36-0.61,0.52
			c-0.989,0.75-2.169,1.19-3.52,1.24c-0.42,0.03-0.84,0-1.22-0.06c-0.82-0.13-1.58-0.41-2.261-0.82c-0.35-0.2-0.689-0.45-1.01-0.74
			c-0.59-0.54-1.05-1.17-1.35-1.87c-0.28-0.65-0.45-1.35-0.47-2.14c-0.011-0.28,0.01-0.56,0.039-0.83c0.08-0.65,0.29-1.24,0.561-1.8
			c0.28-0.55,0.67-1.06,1.149-1.51c0.29-0.27,0.61-0.5,0.94-0.68c0.15-0.08,0.32-0.16,0.49-0.23c0.58-0.22,1.21-0.37,1.91-0.35
			c0.109,0,0.229,0.01,0.34,0.021c0.149,0.02,0.29,0.04,0.43,0.06c0.79,0.15,1.47,0.48,2.08,0.959c0.811,0.63,1.32,1.49,1.49,2.47
			c0.06,0.32,0.08,0.68,0.05,1.02c-0.03,0.28-0.07,0.54-0.15,0.79c-0.069,0.25-0.17,0.5-0.29,0.72c-0.05,0.09-0.09,0.17-0.14,0.24
			c-0.26,0.41-0.61,0.82-1.03,1.1c-0.239,0.161-0.5,0.29-0.779,0.38c-0.221,0.08-0.45,0.13-0.7,0.15
			c-0.82,0.08-1.561-0.15-2.15-0.58c-0.2-0.15-0.399-0.33-0.56-0.53c-0.351-0.43-0.54-0.96-0.52-1.57c0-0.19,0.039-0.37,0.079-0.54
			c0.08-0.3,0.221-0.57,0.41-0.82c0.271-0.36,0.65-0.61,1.08-0.68c0.39-0.05,0.76,0.03,1.05,0.22c0.141,0.08,0.28,0.2,0.391,0.33
			c0.109,0.16,0.18,0.37,0.149,0.59c-0.02,0.05-0.02,0.08-0.04,0.12c-0.03,0.12-0.1,0.23-0.189,0.32
			c-0.03,0.03-0.05,0.05-0.091,0.02h0.061l0.14-0.209c0.03-0.081,0.05-0.16,0.061-0.25c0.01-0.07,0-0.14-0.011-0.21
			c-0.02-0.1-0.079-0.2-0.14-0.29c-0.01-0.021-0.029-0.04-0.05-0.05c-0.11-0.12-0.28-0.23-0.43-0.3c-0.09-0.04-0.181-0.07-0.28-0.09
			c-0.07-0.01-0.15-0.021-0.24-0.021c-0.31-0.02-0.58,0.07-0.82,0.23l-0.21,0.18l-0.21,0.26c-0.27,0.39-0.42,0.88-0.35,1.42
			c0.01,0.11,0.03,0.22,0.06,0.32c0.07,0.23,0.181,0.44,0.32,0.63c0.04,0.05,0.08,0.1,0.12,0.14c0.02,0.03,0.04,0.05,0.06,0.08
			c0.011,0.011,0.03,0.021,0.021,0.011c0.36,0.36,0.79,0.59,1.28,0.7c0.239,0.05,0.52,0.08,0.79,0.06c0.16-0.01,0.3-0.03,0.449-0.07
			c0.24-0.05,0.46-0.14,0.67-0.26l0.57-0.45l0.3-0.33c0.271-0.36,0.45-0.76,0.561-1.19c0.1-0.4,0.13-0.879,0.06-1.3
			c-0.029-0.19-0.069-0.37-0.13-0.55c-0.05-0.15-0.11-0.3-0.18-0.44c-0.04-0.06-0.07-0.13-0.101-0.19
			c-0.05-0.09-0.119-0.18-0.18-0.27l-0.33-0.38l-0.05-0.05c-0.04-0.04-0.08-0.07-0.12-0.11c-0.12-0.11-0.25-0.21-0.38-0.3
			c-0.38-0.25-0.79-0.45-1.24-0.56c-0.22-0.06-0.439-0.1-0.68-0.12c-0.38-0.03-0.771,0-1.12,0.07c-0.57,0.11-1.09,0.34-1.54,0.68
			l-0.44,0.38l-0.459,0.53c-0.41,0.56-0.681,1.18-0.82,1.89c-0.08,0.4-0.101,0.87-0.051,1.31c0.021,0.26,0.07,0.51,0.141,0.75
			c0.14,0.53,0.37,1.01,0.68,1.46c0.11,0.14,0.22,0.28,0.34,0.41c0.04,0.04,0.07,0.08,0.101,0.11c0.01,0,0.05,0.06,0.029,0.03
			c0.521,0.53,1.131,0.93,1.79,1.19c0.311,0.12,0.63,0.22,0.961,0.28c0.47,0.08,0.989,0.12,1.489,0.07
			c0.29-0.02,0.58-0.07,0.851-0.14c0.3-0.07,0.58-0.18,0.859-0.311c0.28-0.12,0.54-0.27,0.79-0.44l0.721-0.59l0.06-0.06
			c0.02-0.03,0.05-0.05,0.07-0.08c0.109-0.12,0.22-0.24,0.319-0.36c0.3-0.37,0.54-0.77,0.74-1.18c0.28-0.58,0.46-1.21,0.54-1.89
			c0.03-0.31,0.05-0.63,0.03-0.95c0-0.19-0.021-0.36-0.04-0.54c-0.03-0.22-0.07-0.43-0.12-0.64c-0.22-0.88-0.63-1.66-1.2-2.37
			c-0.06-0.07-0.12-0.14-0.18-0.21c-0.04-0.03-0.07-0.07-0.11-0.11c0,0-0.04-0.04-0.03-0.04c0.011,0.01-0.01,0-0.01,0
			c-0.02-0.021-0.04-0.05-0.06-0.07c-0.03-0.02-0.04-0.04-0.07-0.06c-0.17-0.17-0.35-0.32-0.54-0.47c-0.23-0.18-0.47-0.34-0.71-0.48
			c-0.729-0.42-1.53-0.72-2.4-0.84c-0.47-0.07-0.979-0.09-1.479-0.06c-0.53,0.04-1.05,0.14-1.521,0.29
			c-0.46,0.15-0.88,0.33-1.29,0.56c-0.189,0.11-0.38,0.23-0.56,0.35c-0.149,0.1-0.28,0.21-0.42,0.32l-0.38,0.351l-0.54,0.58
			c-0.79,0.96-1.32,2.06-1.561,3.29c-0.13,0.66-0.18,1.4-0.119,2.11c0.04,0.42,0.109,0.83,0.21,1.22c0.229,0.87,0.59,1.66,1.09,2.39
			c0.17,0.229,0.35,0.47,0.55,0.68c0.05,0.06,0.1,0.12,0.16,0.18c0.01,0.01,0.02,0.03,0.029,0.04h0.011l0.01,0.01
			c0.01,0.02,0,0.01,0,0c0.811,0.84,1.73,1.47,2.75,1.88c0.48,0.19,0.97,0.35,1.48,0.45c0.729,0.15,1.529,0.22,2.329,0.15
			c0.46-0.03,0.9-0.11,1.33-0.2c0.4-0.1,0.78-0.23,1.15-0.37c0.74-0.29,1.44-0.71,2.08-1.22l0.53-0.47l0.05-0.04
			c0.03-0.04,0.07-0.07,0.1-0.1c0.061-0.06,0.13-0.13,0.181-0.19c0.26-0.27,0.489-0.55,0.71-0.84c0.22-0.29,0.409-0.6,0.59-0.91
			c0.34-0.6,0.62-1.24,0.819-1.92c0.141-0.5,0.251-1.01,0.311-1.56c0.04-0.3,0.06-0.61,0.07-0.93c0.02-1.1-0.16-2.12-0.46-3.06
			c-0.16-0.49-0.36-0.96-0.591-1.41c-0.17-0.32-0.35-0.64-0.56-0.94c-0.25-0.38-0.521-0.74-0.84-1.09
			c0.08,0.06,0.149,0.14,0.22,0.21c0.12,0.12,0.23,0.24,0.34,0.37c0.35,0.38,0.641,0.79,0.92,1.21c0.23,0.36,0.431,0.75,0.601,1.14
			c0.319,0.74,0.56,1.52,0.689,2.36c0.061,0.4,0.101,0.81,0.11,1.25c0.03,1.5-0.28,2.85-0.82,4.07c-0.279,0.63-0.62,1.24-1.04,1.8
			c-0.229,0.3-0.47,0.59-0.729,0.87c-0.801,0.87-1.73,1.5-2.73,1.98c-0.479,0.23-0.99,0.42-1.52,0.55
			c-0.761,0.2-1.57,0.31-2.431,0.3C528.17-5.49,528.02-5.49,527.87-5.5z"/>
		<path style="fill-rule:evenodd;clip-rule:evenodd;fill:#FFFFFF;" d="M553.88-4.8c-0.63-0.04-1.229-0.14-1.811-0.28
			c-0.729-0.2-1.43-0.46-2.09-0.8c-0.47-0.24-0.92-0.52-1.35-0.85c-0.36-0.27-0.7-0.56-1.03-0.89c-0.74-0.72-1.31-1.53-1.74-2.41
			c-0.43-0.85-0.71-1.77-0.859-2.76c-0.04-0.31-0.07-0.63-0.08-0.96c-0.061-1.709,0.33-3.22,1.029-4.57
			c0.291-0.57,0.66-1.12,1.08-1.62c0.19-0.22,0.391-0.45,0.601-0.65c0.34-0.33,0.7-0.63,1.08-0.89c0.74-0.53,1.56-0.91,2.439-1.17
			c0.73-0.21,1.511-0.33,2.341-0.33c0.47,0,0.93,0.04,1.369,0.11c1.511,0.25,2.851,0.86,4.011,1.82c0.18,0.15,0.35,0.31,0.52,0.48
			c0.74,0.73,1.28,1.55,1.67,2.45c0.22,0.53,0.391,1.08,0.48,1.67c0.05,0.28,0.09,0.58,0.11,0.88c0.02,0.57-0.011,1.14-0.101,1.68
			c-0.13,0.79-0.37,1.54-0.73,2.22c-0.22,0.4-0.449,0.79-0.739,1.16c-0.21,0.28-0.45,0.56-0.721,0.81
			c-0.21,0.2-0.42,0.39-0.649,0.56c-1.09,0.82-2.36,1.29-3.82,1.35c-0.45,0.03-0.91,0-1.33-0.07c-0.89-0.14-1.7-0.44-2.439-0.88
			c-0.38-0.23-0.75-0.5-1.091-0.81c-0.64-0.59-1.14-1.27-1.47-2.02c-0.31-0.71-0.49-1.47-0.51-2.32c-0.01-0.31,0.01-0.61,0.05-0.9
			c0.09-0.7,0.3-1.35,0.61-1.95c0.3-0.6,0.72-1.15,1.24-1.64c0.31-0.29,0.659-0.53,1.01-0.73c0.17-0.09,0.35-0.18,0.529-0.25
			c0.631-0.25,1.311-0.41,2.08-0.38c0.12,0,0.24,0.01,0.37,0.02c0.15,0.02,0.311,0.04,0.46,0.07c0.851,0.16,1.59,0.51,2.261,1.03
			c0.869,0.69,1.43,1.62,1.609,2.68c0.061,0.34,0.09,0.74,0.05,1.1c-0.029,0.31-0.079,0.59-0.159,0.87
			c-0.08,0.26-0.181,0.54-0.32,0.78c-0.04,0.09-0.09,0.17-0.15,0.26c-0.27,0.44-0.66,0.88-1.109,1.18
			c-0.271,0.18-0.54,0.31-0.851,0.419c-0.229,0.081-0.479,0.13-0.75,0.16c-0.89,0.08-1.7-0.16-2.34-0.63
			c-0.21-0.16-0.43-0.36-0.61-0.58c-0.369-0.46-0.58-1.03-0.56-1.69c0.01-0.21,0.04-0.4,0.09-0.59c0.09-0.33,0.24-0.62,0.44-0.89
			c0.3-0.39,0.71-0.66,1.18-0.73c0.42-0.06,0.82,0.03,1.14,0.23c0.15,0.09,0.301,0.22,0.41,0.36c0.13,0.17,0.2,0.4,0.16,0.64
			c-0.01,0.05-0.01,0.09-0.03,0.13c-0.04,0.13-0.109,0.25-0.21,0.35c-0.029,0.02-0.06,0.05-0.1,0.02h0.07l0.149-0.23
			c0.04-0.08,0.05-0.17,0.07-0.27c0-0.08-0.01-0.15-0.021-0.23c-0.02-0.11-0.079-0.22-0.14-0.31c-0.02-0.02-0.04-0.04-0.06-0.06
			c-0.12-0.13-0.301-0.25-0.471-0.32c-0.1-0.04-0.199-0.08-0.3-0.09c-0.08-0.02-0.17-0.03-0.26-0.03c-0.33-0.02-0.63,0.08-0.89,0.25
			l-0.23,0.2l-0.23,0.27c-0.29,0.43-0.449,0.96-0.38,1.55c0.021,0.11,0.04,0.23,0.08,0.34c0.07,0.25,0.181,0.479,0.34,0.69
			c0.04,0.05,0.08,0.1,0.121,0.15c0.029,0.03,0.05,0.05,0.079,0.08c0.01,0.01,0.03,0.03,0.021,0.02c0.38,0.379,0.85,0.629,1.38,0.75
			c0.26,0.06,0.56,0.09,0.86,0.07c0.17-0.02,0.329-0.04,0.479-0.08c0.26-0.06,0.51-0.15,0.729-0.28l0.62-0.48l0.32-0.37
			c0.29-0.39,0.49-0.82,0.61-1.29c0.109-0.43,0.14-0.95,0.069-1.4c-0.04-0.21-0.079-0.41-0.149-0.6c-0.05-0.16-0.12-0.32-0.2-0.48
			c-0.03-0.07-0.069-0.13-0.1-0.2c-0.061-0.1-0.131-0.19-0.2-0.29l-0.36-0.42l-0.05-0.05c-0.04-0.04-0.08-0.08-0.13-0.12
			c-0.13-0.12-0.26-0.23-0.41-0.32c-0.41-0.27-0.85-0.49-1.34-0.62c-0.24-0.05-0.48-0.1-0.73-0.12c-0.42-0.04-0.84-0.01-1.22,0.07
			c-0.62,0.13-1.18,0.38-1.67,0.75l-0.479,0.4l-0.49,0.58c-0.45,0.61-0.74,1.28-0.891,2.04c-0.09,0.44-0.109,0.95-0.06,1.42
			c0.029,0.28,0.08,0.55,0.15,0.82c0.159,0.57,0.399,1.09,0.75,1.57c0.109,0.16,0.229,0.31,0.359,0.45
			c0.04,0.05,0.07,0.09,0.11,0.12c0.01,0.01,0.06,0.06,0.03,0.04c0.569,0.57,1.229,1,1.939,1.29c0.33,0.12,0.68,0.23,1.04,0.3
			c0.5,0.09,1.07,0.13,1.61,0.08c0.319-0.03,0.63-0.09,0.92-0.16c0.33-0.08,0.64-0.2,0.93-0.33c0.31-0.13,0.59-0.3,0.86-0.49
			l0.779-0.63l0.061-0.07c0.03-0.03,0.06-0.05,0.08-0.08c0.12-0.13,0.24-0.26,0.35-0.39c0.32-0.4,0.59-0.83,0.8-1.29
			c0.311-0.62,0.5-1.31,0.59-2.04c0.03-0.33,0.051-0.68,0.03-1.03c0-0.2-0.02-0.39-0.05-0.58c-0.03-0.24-0.08-0.47-0.13-0.7
			c-0.229-0.95-0.67-1.79-1.29-2.56c-0.07-0.08-0.13-0.15-0.2-0.23c-0.04-0.04-0.08-0.08-0.109-0.12c-0.011,0-0.051-0.05-0.04-0.04
			c0,0.01-0.011,0-0.011-0.01c-0.029-0.02-0.05-0.04-0.069-0.07c-0.021-0.02-0.051-0.04-0.07-0.06c-0.19-0.18-0.391-0.36-0.59-0.51
			c-0.25-0.19-0.5-0.37-0.77-0.53c-0.78-0.45-1.661-0.78-2.601-0.91c-0.51-0.07-1.06-0.09-1.6-0.06c-0.58,0.04-1.131,0.15-1.65,0.31
			c-0.49,0.17-0.95,0.36-1.4,0.61c-0.199,0.12-0.399,0.25-0.609,0.39c-0.15,0.1-0.3,0.21-0.44,0.34l-0.42,0.37l-0.58,0.63
			c-0.85,1.04-1.439,2.23-1.7,3.57c-0.13,0.71-0.189,1.51-0.119,2.28c0.039,0.46,0.119,0.91,0.229,1.33
			c0.24,0.94,0.63,1.8,1.18,2.58c0.181,0.26,0.37,0.51,0.59,0.75c0.061,0.06,0.11,0.12,0.171,0.19c0.02,0.01,0.029,0.03,0.039,0.04
			h0.011l0.01,0.01c0.01,0.02,0,0.01-0.01,0c0.89,0.91,1.88,1.59,2.989,2.04c0.511,0.209,1.051,0.379,1.61,0.49
			c0.78,0.16,1.65,0.23,2.51,0.16c0.5-0.03,0.98-0.12,1.45-0.22c0.43-0.11,0.84-0.25,1.24-0.4c0.81-0.32,1.56-0.77,2.25-1.319
			l0.58-0.511l0.05-0.05c0.04-0.03,0.08-0.07,0.11-0.1c0.069-0.07,0.14-0.14,0.199-0.209c0.28-0.291,0.53-0.59,0.761-0.91
			c0.24-0.31,0.45-0.65,0.649-0.98c0.37-0.65,0.67-1.35,0.88-2.08c0.15-0.54,0.271-1.1,0.341-1.69c0.04-0.33,0.06-0.66,0.069-1.01
			c0.021-1.19-0.17-2.29-0.5-3.32c-0.17-0.53-0.38-1.04-0.63-1.52c-0.18-0.35-0.38-0.7-0.6-1.03c-0.28-0.4-0.58-0.8-0.92-1.17
			c0.08,0.06,0.16,0.15,0.239,0.22c0.121,0.13,0.25,0.27,0.37,0.4c0.37,0.42,0.69,0.86,0.99,1.32c0.25,0.39,0.47,0.8,0.66,1.23
			c0.34,0.8,0.6,1.65,0.74,2.55c0.069,0.44,0.109,0.89,0.12,1.36c0.029,1.62-0.301,3.09-0.891,4.41c-0.3,0.69-0.67,1.34-1.13,1.95
			c-0.24,0.32-0.5,0.641-0.79,0.95c-0.87,0.93-1.87,1.62-2.96,2.14c-0.521,0.25-1.07,0.45-1.64,0.6c-0.83,0.21-1.7,0.33-2.641,0.32
			C554.2-4.79,554.04-4.79,553.88-4.8z"/>
		<path style="fill-rule:evenodd;clip-rule:evenodd;fill:#FFFFFF;" d="M582.08-3.41c-0.721-0.04-1.42-0.149-2.08-0.319
			c-0.85-0.22-1.65-0.53-2.42-0.92c-0.54-0.27-1.061-0.6-1.561-0.97c-0.41-0.32-0.81-0.65-1.189-1.03
			c-0.851-0.84-1.5-1.77-2.011-2.78c-0.489-0.98-0.819-2.05-0.979-3.19c-0.05-0.36-0.09-0.72-0.1-1.11
			c-0.061-1.98,0.38-3.71,1.189-5.271c0.34-0.66,0.76-1.3,1.25-1.88c0.22-0.25,0.44-0.51,0.69-0.74c0.399-0.38,0.81-0.73,1.239-1.03
			c0.86-0.61,1.801-1.05,2.82-1.35c0.84-0.24,1.74-0.38,2.7-0.38c0.55,0,1.069,0.04,1.58,0.13c1.74,0.28,3.29,0.99,4.63,2.1
			c0.2,0.17,0.399,0.35,0.6,0.55c0.851,0.84,1.48,1.79,1.931,2.83c0.25,0.61,0.439,1.25,0.55,1.92c0.06,0.33,0.11,0.68,0.12,1.02
			c0.029,0.66,0,1.32-0.11,1.94c-0.15,0.91-0.43,1.78-0.85,2.57c-0.24,0.46-0.511,0.91-0.84,1.33c-0.25,0.32-0.521,0.65-0.83,0.94
			c-0.25,0.23-0.5,0.44-0.761,0.64c-1.25,0.94-2.72,1.49-4.399,1.56c-0.521,0.03-1.051-0.01-1.54-0.08
			c-1.021-0.16-1.971-0.51-2.82-1.02c-0.44-0.26-0.859-0.57-1.26-0.93c-0.74-0.68-1.311-1.47-1.68-2.34
			c-0.36-0.81-0.57-1.69-0.591-2.67c-0.02-0.35,0.011-0.7,0.051-1.04c0.1-0.81,0.35-1.55,0.699-2.24c0.351-0.7,0.841-1.34,1.44-1.9
			c0.35-0.34,0.75-0.62,1.17-0.84c0.19-0.11,0.4-0.21,0.61-0.29c0.72-0.28,1.51-0.47,2.39-0.44c0.14,0,0.28,0.01,0.42,0.02
			c0.19,0.03,0.37,0.05,0.55,0.081c0.98,0.19,1.83,0.59,2.59,1.2c1.011,0.79,1.65,1.87,1.87,3.08c0.07,0.4,0.101,0.86,0.061,1.28
			c-0.04,0.35-0.09,0.68-0.19,0.99c-0.09,0.31-0.21,0.63-0.37,0.9c-0.05,0.11-0.109,0.21-0.17,0.3c-0.319,0.51-0.76,1.03-1.279,1.37
			c-0.311,0.2-0.631,0.36-0.98,0.48c-0.27,0.09-0.56,0.16-0.87,0.18c-1.03,0.1-1.96-0.18-2.689-0.72
			c-0.261-0.19-0.511-0.419-0.71-0.66c-0.431-0.54-0.671-1.2-0.65-1.96c0.01-0.24,0.05-0.46,0.101-0.68
			c0.1-0.38,0.279-0.72,0.52-1.02c0.34-0.46,0.81-0.77,1.35-0.85c0.48-0.07,0.95,0.04,1.32,0.27c0.17,0.1,0.35,0.25,0.48,0.41
			c0.14,0.2,0.229,0.47,0.18,0.75c-0.011,0.05-0.021,0.1-0.04,0.15c-0.04,0.14-0.13,0.279-0.24,0.39c-0.03,0.03-0.07,0.06-0.11,0.03
			l0.08-0.01l0.17-0.25c0.04-0.1,0.061-0.2,0.07-0.31c0.01-0.1,0-0.18-0.01-0.27c-0.03-0.13-0.1-0.26-0.17-0.36
			c-0.021-0.03-0.04-0.05-0.061-0.07c-0.14-0.15-0.35-0.29-0.55-0.37c-0.109-0.05-0.22-0.09-0.34-0.11
			c-0.101-0.021-0.2-0.03-0.3-0.03c-0.391-0.02-0.73,0.09-1.03,0.29l-0.27,0.23l-0.261,0.32c-0.33,0.49-0.529,1.1-0.439,1.78
			c0.02,0.13,0.05,0.27,0.09,0.39c0.08,0.29,0.21,0.56,0.39,0.79c0.05,0.06,0.101,0.12,0.15,0.18c0.02,0.03,0.06,0.06,0.08,0.09
			c0.01,0.02,0.04,0.04,0.03,0.02c0.439,0.44,0.979,0.74,1.59,0.88c0.3,0.06,0.649,0.1,0.99,0.07c0.189-0.02,0.379-0.04,0.56-0.09
			c0.3-0.07,0.58-0.18,0.84-0.32l0.72-0.56l0.37-0.42c0.33-0.45,0.561-0.95,0.7-1.49c0.13-0.49,0.16-1.09,0.07-1.62
			c-0.04-0.24-0.09-0.47-0.16-0.69c-0.061-0.19-0.141-0.37-0.23-0.55c-0.04-0.08-0.08-0.16-0.13-0.23
			c-0.06-0.12-0.14-0.23-0.22-0.34l-0.41-0.48l-0.061-0.06c-0.05-0.05-0.1-0.09-0.149-0.14c-0.15-0.13-0.31-0.26-0.47-0.37
			c-0.49-0.31-0.99-0.569-1.561-0.709c-0.27-0.07-0.55-0.12-0.84-0.14c-0.479-0.04-0.97-0.01-1.41,0.08
			c-0.71,0.15-1.35,0.43-1.93,0.86l-0.54,0.46l-0.57,0.67c-0.52,0.7-0.859,1.48-1.029,2.36c-0.101,0.51-0.12,1.09-0.07,1.64
			c0.04,0.32,0.09,0.63,0.18,0.94c0.18,0.66,0.46,1.26,0.86,1.82c0.13,0.18,0.27,0.36,0.42,0.52c0.04,0.05,0.08,0.1,0.13,0.14
			c0,0,0.06,0.06,0.03,0.03c0.649,0.67,1.42,1.16,2.24,1.49c0.38,0.15,0.779,0.27,1.199,0.35c0.58,0.1,1.23,0.15,1.86,0.09
			c0.37-0.03,0.72-0.101,1.06-0.18c0.37-0.09,0.73-0.23,1.08-0.38c0.341-0.16,0.67-0.34,0.98-0.56l0.899-0.74l0.07-0.07
			c0.04-0.03,0.07-0.06,0.101-0.09c0.14-0.149,0.27-0.3,0.399-0.46c0.37-0.46,0.67-0.96,0.931-1.48c0.34-0.72,0.569-1.51,0.67-2.36
			c0.04-0.38,0.06-0.79,0.04-1.19c-0.011-0.23-0.03-0.44-0.061-0.66c-0.04-0.28-0.09-0.55-0.149-0.81
			c-0.271-1.1-0.78-2.07-1.49-2.96c-0.08-0.08-0.15-0.17-0.23-0.26c-0.05-0.05-0.09-0.09-0.13-0.14c-0.01-0.01-0.06-0.05-0.05-0.05
			c0.01,0.02,0,0-0.01-0.01c-0.021-0.02-0.051-0.05-0.08-0.07c-0.021-0.029-0.051-0.06-0.08-0.08c-0.221-0.21-0.44-0.41-0.67-0.59
			c-0.29-0.22-0.59-0.42-0.891-0.61c-0.909-0.521-1.92-0.891-3.01-1.05c-0.58-0.08-1.22-0.11-1.84-0.06
			c-0.67,0.04-1.31,0.16-1.9,0.36c-0.569,0.18-1.1,0.41-1.619,0.69c-0.24,0.14-0.471,0.29-0.7,0.45
			c-0.181,0.12-0.351,0.25-0.511,0.39l-0.489,0.44l-0.67,0.72c-0.98,1.2-1.65,2.58-1.95,4.12c-0.16,0.82-0.221,1.75-0.15,2.63
			c0.05,0.53,0.141,1.05,0.261,1.53c0.29,1.09,0.739,2.08,1.37,2.98c0.199,0.3,0.43,0.59,0.68,0.86c0.069,0.08,0.13,0.15,0.199,0.23
			c0.021,0.01,0.03,0.03,0.04,0.04l0.011,0.01l0.01,0.01c0.02,0.02,0.01,0.01,0,0c1.02,1.04,2.17,1.83,3.45,2.35
			c0.59,0.24,1.2,0.44,1.85,0.56c0.9,0.19,1.91,0.27,2.9,0.19c0.58-0.04,1.13-0.14,1.67-0.26c0.5-0.12,0.97-0.28,1.439-0.459
			c0.931-0.36,1.79-0.89,2.591-1.521l0.67-0.59l0.06-0.05c0.04-0.041,0.08-0.09,0.12-0.12c0.08-0.08,0.16-0.16,0.24-0.24
			c0.31-0.34,0.6-0.69,0.869-1.05c0.28-0.36,0.521-0.75,0.75-1.14c0.431-0.75,0.771-1.55,1.011-2.4c0.18-0.62,0.319-1.26,0.399-1.94
			c0.04-0.38,0.07-0.77,0.08-1.17c0.03-1.38-0.199-2.65-0.569-3.83c-0.2-0.61-0.44-1.2-0.74-1.76c-0.21-0.4-0.431-0.8-0.69-1.18
			c-0.319-0.47-0.659-0.92-1.06-1.35c0.1,0.07,0.189,0.17,0.27,0.25c0.15,0.16,0.3,0.31,0.44,0.46c0.43,0.49,0.8,1,1.14,1.52
			c0.29,0.46,0.54,0.93,0.75,1.42c0.4,0.93,0.7,1.91,0.86,2.949c0.08,0.511,0.13,1.021,0.14,1.57c0.04,1.87-0.35,3.56-1.02,5.09
			c-0.351,0.79-0.78,1.55-1.311,2.24c-0.279,0.38-0.58,0.74-0.909,1.1c-1,1.08-2.16,1.87-3.41,2.47c-0.601,0.29-1.24,0.52-1.9,0.689
			c-0.95,0.24-1.96,0.38-3.04,0.37C582.449-3.39,582.27-3.39,582.08-3.41z"/>
		<path style="fill-rule:evenodd;clip-rule:evenodd;fill:#FFFFFF;" d="M615.35,0.09c-0.97-0.06-1.89-0.21-2.78-0.44
			c-1.13-0.29-2.199-0.7-3.22-1.219c-0.72-0.371-1.42-0.811-2.08-1.301c-0.55-0.419-1.08-0.859-1.59-1.37
			c-1.13-1.12-2-2.36-2.68-3.71c-0.66-1.31-1.09-2.73-1.311-4.25c-0.069-0.48-0.12-0.97-0.13-1.47c-0.08-2.64,0.51-4.96,1.58-7.04
			c0.46-0.88,1.021-1.72,1.68-2.5c0.29-0.34,0.591-0.68,0.92-0.99c0.53-0.51,1.07-0.97,1.65-1.37c1.15-0.81,2.4-1.4,3.761-1.8
			c1.119-0.33,2.319-0.51,3.6-0.51c0.729-0.01,1.43,0.06,2.1,0.17c2.33,0.38,4.391,1.32,6.17,2.8c0.28,0.23,0.551,0.47,0.811,0.74
			c1.14,1.12,1.97,2.39,2.569,3.771c0.341,0.81,0.591,1.67,0.74,2.56c0.08,0.44,0.141,0.9,0.16,1.36c0.04,0.89-0.01,1.76-0.15,2.58
			c-0.2,1.22-0.569,2.38-1.13,3.43c-0.319,0.61-0.689,1.21-1.12,1.77c-0.33,0.43-0.7,0.87-1.109,1.25
			c-0.341,0.31-0.66,0.6-1.01,0.87c-1.671,1.25-3.641,1.98-5.881,2.08c-0.689,0.03-1.39-0.01-2.04-0.12
			c-1.369-0.2-2.619-0.67-3.76-1.35c-0.59-0.35-1.15-0.76-1.68-1.25c-0.98-0.9-1.74-1.95-2.25-3.11c-0.48-1.08-0.75-2.25-0.79-3.56
			c-0.01-0.48,0.021-0.94,0.08-1.39c0.13-1.08,0.47-2.07,0.93-2.99c0.47-0.93,1.11-1.78,1.92-2.53c0.47-0.45,1-0.82,1.55-1.12
			c0.271-0.14,0.54-0.28,0.82-0.39c0.97-0.379,2.01-0.62,3.19-0.58c0.189,0,0.38,0.01,0.56,0.03c0.25,0.03,0.49,0.06,0.73,0.1
			c1.3,0.25,2.439,0.79,3.46,1.6c1.34,1.051,2.199,2.491,2.479,4.11c0.1,0.53,0.141,1.14,0.08,1.7c-0.04,0.47-0.12,0.9-0.24,1.33
			c-0.13,0.41-0.29,0.83-0.489,1.2c-0.081,0.13-0.15,0.27-0.23,0.4c-0.43,0.68-1.02,1.36-1.72,1.82c-0.4,0.27-0.83,0.48-1.301,0.64
			c-0.359,0.13-0.749,0.209-1.159,0.25c-1.37,0.13-2.61-0.25-3.591-0.97c-0.34-0.25-0.67-0.55-0.939-0.89
			c-0.57-0.7-0.9-1.59-0.86-2.6c0.011-0.32,0.061-0.621,0.13-0.91c0.131-0.5,0.37-0.95,0.681-1.37c0.47-0.6,1.08-1.01,1.81-1.12
			c0.641-0.1,1.271,0.05,1.76,0.35c0.23,0.14,0.461,0.33,0.631,0.56c0.199,0.261,0.31,0.621,0.25,0.99
			c-0.021,0.07-0.03,0.13-0.051,0.2c-0.06,0.19-0.17,0.38-0.319,0.53c-0.05,0.04-0.09,0.07-0.15,0.03h0.101l0.229-0.35
			c0.05-0.13,0.08-0.26,0.1-0.41c0.011-0.13,0-0.24-0.02-0.35c-0.04-0.18-0.13-0.351-0.22-0.48c-0.03-0.04-0.061-0.07-0.09-0.1
			c-0.19-0.2-0.471-0.38-0.721-0.5c-0.149-0.061-0.31-0.11-0.46-0.14c-0.13-0.02-0.26-0.04-0.399-0.04
			c-0.521-0.03-0.98,0.12-1.37,0.39l-0.36,0.3l-0.35,0.43c-0.45,0.65-0.7,1.47-0.58,2.37c0.02,0.18,0.06,0.36,0.109,0.53
			c0.11,0.38,0.29,0.73,0.521,1.05c0.06,0.08,0.13,0.16,0.2,0.24c0.029,0.04,0.08,0.08,0.109,0.12c0.021,0.02,0.051,0.04,0.03,0.03
			c0.59,0.59,1.32,0.98,2.13,1.16c0.4,0.09,0.86,0.14,1.32,0.1c0.26-0.02,0.51-0.06,0.739-0.12c0.41-0.09,0.78-0.24,1.121-0.43
			l0.959-0.74l0.49-0.561c0.45-0.6,0.75-1.27,0.94-1.99c0.17-0.66,0.21-1.46,0.1-2.16c-0.05-0.32-0.12-0.62-0.22-0.92
			c-0.08-0.25-0.18-0.5-0.3-0.74c-0.061-0.1-0.11-0.2-0.17-0.3c-0.08-0.16-0.2-0.3-0.301-0.46l-0.55-0.63l-0.08-0.08
			c-0.069-0.07-0.13-0.13-0.2-0.19c-0.199-0.18-0.409-0.35-0.629-0.49c-0.641-0.419-1.32-0.76-2.07-0.95
			c-0.36-0.09-0.73-0.16-1.13-0.19c-0.631-0.06-1.29-0.01-1.87,0.11c-0.95,0.189-1.811,0.58-2.57,1.15l-0.73,0.61l-0.76,0.9
			c-0.689,0.93-1.14,1.97-1.37,3.14c-0.13,0.68-0.17,1.46-0.09,2.18c0.05,0.44,0.12,0.85,0.23,1.26c0.25,0.88,0.62,1.68,1.149,2.431
			c0.171,0.24,0.36,0.47,0.561,0.689c0.06,0.061,0.109,0.13,0.17,0.18c0.01,0.01,0.09,0.09,0.05,0.05c0.87,0.89,1.88,1.55,2.99,1.99
			c0.5,0.2,1.03,0.35,1.59,0.46c0.77,0.14,1.64,0.2,2.48,0.12c0.489-0.04,0.96-0.13,1.42-0.24c0.489-0.12,0.97-0.3,1.43-0.51
			c0.46-0.2,0.9-0.45,1.319-0.74l1.2-0.98l0.091-0.11c0.05-0.04,0.079-0.07,0.12-0.12c0.189-0.2,0.369-0.4,0.54-0.601
			c0.489-0.62,0.899-1.28,1.239-1.979c0.46-0.96,0.771-2.01,0.891-3.14c0.06-0.51,0.079-1.05,0.06-1.59
			c-0.01-0.3-0.04-0.6-0.08-0.89c-0.05-0.37-0.12-0.72-0.2-1.07c-0.359-1.47-1.04-2.76-1.99-3.939c-0.1-0.12-0.199-0.24-0.31-0.351
			c-0.05-0.07-0.12-0.12-0.17-0.189c-0.021-0.01-0.07-0.07-0.061-0.07c0.011,0.02-0.01,0-0.01-0.01c-0.04-0.03-0.08-0.07-0.109-0.1
			c-0.04-0.04-0.07-0.07-0.11-0.11c-0.29-0.271-0.59-0.54-0.9-0.78c-0.39-0.29-0.779-0.56-1.189-0.81c-1.21-0.7-2.55-1.2-4-1.4
			c-0.78-0.1-1.63-0.15-2.46-0.09c-0.891,0.06-1.75,0.22-2.53,0.48c-0.77,0.25-1.47,0.55-2.16,0.93c-0.319,0.18-0.63,0.38-0.93,0.6
			c-0.24,0.16-0.47,0.33-0.69,0.52l-0.649,0.58l-0.891,0.97c-1.31,1.6-2.21,3.43-2.609,5.49c-0.21,1.09-0.29,2.32-0.19,3.51
			c0.07,0.709,0.181,1.39,0.351,2.04c0.38,1.44,0.979,2.76,1.819,3.97c0.271,0.4,0.58,0.78,0.9,1.15c0.1,0.1,0.189,0.2,0.28,0.29
			c0.02,0.03,0.04,0.05,0.05,0.06l0.02,0.01l0.011,0.02c0.02,0.02,0,0.01-0.011,0c1.36,1.39,2.9,2.44,4.601,3.13
			c0.79,0.32,1.609,0.58,2.47,0.76c1.2,0.24,2.55,0.35,3.87,0.25c0.77-0.06,1.5-0.19,2.22-0.35c0.67-0.16,1.3-0.38,1.92-0.62
			c1.24-0.48,2.4-1.18,3.46-2.021l0.891-0.78l0.08-0.08c0.05-0.05,0.109-0.11,0.17-0.16c0.1-0.11,0.21-0.22,0.31-0.32
			c0.42-0.45,0.8-0.91,1.17-1.4c0.36-0.48,0.68-0.99,0.99-1.52c0.57-0.99,1.03-2.07,1.35-3.19c0.24-0.83,0.431-1.69,0.54-2.6
			c0.05-0.5,0.09-1.02,0.101-1.55c0.029-1.84-0.261-3.53-0.771-5.11c-0.26-0.811-0.58-1.601-0.97-2.34
			c-0.28-0.54-0.59-1.07-0.93-1.58c-0.431-0.62-0.88-1.229-1.41-1.81c0.13,0.1,0.25,0.229,0.359,0.35c0.2,0.2,0.4,0.4,0.58,0.61
			c0.57,0.64,1.07,1.32,1.521,2.03c0.39,0.6,0.72,1.24,1.01,1.89c0.54,1.24,0.94,2.54,1.14,3.93c0.11,0.67,0.181,1.37,0.19,2.09
			c0.05,2.5-0.47,4.75-1.36,6.79c-0.46,1.05-1.039,2.06-1.74,2.99c-0.379,0.5-0.779,0.98-1.22,1.46c-1.34,1.44-2.89,2.5-4.55,3.3
			c-0.8,0.39-1.65,0.69-2.529,0.91c-1.271,0.33-2.61,0.51-4.061,0.5C615.85,0.11,615.6,0.101,615.35,0.09z"/>
		<path style="fill-rule:evenodd;clip-rule:evenodd;fill:#FFFFFF;" d="M655.43,2.88c-1.16-0.07-2.27-0.25-3.34-0.52
			c-1.36-0.35-2.63-0.84-3.86-1.47c-0.859-0.44-1.7-0.97-2.5-1.56c-0.649-0.5-1.29-1.03-1.899-1.64
			c-1.36-1.351-2.41-2.84-3.221-4.46c-0.79-1.56-1.31-3.271-1.569-5.09c-0.08-0.58-0.141-1.16-0.16-1.77
			c-0.101-3.17,0.61-5.95,1.9-8.45c0.55-1.05,1.22-2.06,2.01-2.99c0.35-0.41,0.71-0.82,1.109-1.2c0.63-0.6,1.28-1.16,1.98-1.64
			c1.38-0.97,2.88-1.68,4.51-2.16c1.35-0.39,2.78-0.61,4.32-0.61c0.87-0.01,1.71,0.07,2.52,0.2c2.79,0.46,5.271,1.59,7.41,3.36
			c0.33,0.27,0.65,0.57,0.96,0.89c1.37,1.34,2.37,2.87,3.08,4.53c0.42,0.97,0.721,1.99,0.9,3.07c0.09,0.53,0.159,1.08,0.189,1.63
			c0.04,1.06-0.01,2.11-0.18,3.1c-0.25,1.46-0.68,2.85-1.36,4.11c-0.39,0.74-0.819,1.46-1.35,2.13c-0.39,0.521-0.83,1.041-1.33,1.5
			c-0.399,0.37-0.79,0.72-1.21,1.04c-2,1.5-4.36,2.38-7.05,2.49c-0.83,0.05-1.67-0.01-2.45-0.13c-1.64-0.25-3.15-0.81-4.51-1.63
			c-0.71-0.42-1.38-0.92-2.021-1.49c-1.18-1.09-2.09-2.35-2.7-3.74c-0.569-1.3-0.899-2.7-0.939-4.27
			c-0.021-0.57,0.02-1.13,0.09-1.67c0.16-1.29,0.56-2.49,1.12-3.59c0.56-1.11,1.33-2.13,2.3-3.04c0.57-0.53,1.21-0.98,1.87-1.34
			c0.31-0.17,0.64-0.34,0.97-0.46c1.16-0.46,2.42-0.76,3.83-0.71c0.23,0.01,0.46,0.02,0.68,0.04c0.29,0.04,0.591,0.07,0.87,0.12
			c1.561,0.3,2.931,0.95,4.16,1.92c1.601,1.26,2.64,2.99,2.971,4.93c0.119,0.64,0.159,1.37,0.1,2.05c-0.05,0.56-0.141,1.08-0.3,1.59
			c-0.141,0.49-0.34,0.99-0.58,1.44c-0.09,0.16-0.181,0.32-0.28,0.48c-0.51,0.82-1.229,1.64-2.06,2.18c-0.49,0.33-1,0.58-1.561,0.78
			c-0.439,0.15-0.899,0.24-1.39,0.291c-1.641,0.15-3.13-0.291-4.311-1.161c-0.399-0.3-0.81-0.669-1.13-1.06
			c-0.689-0.85-1.08-1.92-1.03-3.13c0.011-0.39,0.07-0.74,0.161-1.09c0.149-0.6,0.439-1.15,0.819-1.64
			c0.55-0.72,1.29-1.22,2.17-1.35c0.76-0.11,1.511,0.06,2.1,0.42c0.28,0.17,0.561,0.4,0.761,0.67c0.24,0.32,0.369,0.75,0.3,1.19
			c-0.021,0.08-0.03,0.16-0.06,0.24c-0.07,0.23-0.211,0.45-0.381,0.63c-0.06,0.05-0.119,0.1-0.18,0.04h0.12l0.27-0.42
			c0.07-0.15,0.101-0.31,0.12-0.49c0.021-0.15,0-0.29-0.02-0.42c-0.051-0.21-0.15-0.42-0.271-0.58c-0.029-0.04-0.069-0.08-0.1-0.12
			c-0.23-0.23-0.561-0.45-0.87-0.59c-0.18-0.08-0.36-0.14-0.55-0.17c-0.16-0.03-0.32-0.05-0.48-0.06
			c-0.619-0.03-1.17,0.15-1.64,0.47l-0.43,0.37l-0.42,0.51c-0.54,0.78-0.851,1.77-0.7,2.85c0.029,0.21,0.069,0.43,0.13,0.63
			c0.13,0.46,0.34,0.88,0.63,1.27c0.07,0.09,0.149,0.19,0.23,0.28c0.05,0.05,0.1,0.1,0.14,0.15c0.02,0.02,0.06,0.05,0.04,0.03
			c0.7,0.7,1.58,1.17,2.54,1.39c0.49,0.11,1.05,0.17,1.59,0.13c0.31-0.03,0.61-0.08,0.899-0.15c0.48-0.11,0.931-0.279,1.341-0.52
			l1.15-0.89l0.59-0.67c0.529-0.72,0.899-1.52,1.119-2.38c0.21-0.79,0.261-1.75,0.131-2.6c-0.07-0.38-0.15-0.74-0.271-1.1
			c-0.101-0.3-0.22-0.6-0.37-0.89c-0.06-0.12-0.13-0.24-0.2-0.36c-0.1-0.2-0.229-0.36-0.35-0.55l-0.66-0.76l-0.1-0.09
			c-0.08-0.08-0.16-0.16-0.24-0.23c-0.24-0.21-0.49-0.42-0.76-0.59c-0.771-0.51-1.58-0.91-2.48-1.14c-0.439-0.1-0.88-0.19-1.35-0.23
			c-0.761-0.06-1.55-0.01-2.25,0.14c-1.15,0.23-2.17,0.69-3.09,1.37l-0.87,0.74l-0.91,1.08c-0.83,1.12-1.37,2.36-1.641,3.76
			c-0.159,0.82-0.21,1.76-0.109,2.62c0.05,0.53,0.14,1.02,0.28,1.51c0.29,1.06,0.739,2.02,1.37,2.92
			c0.21,0.28,0.439,0.57,0.669,0.83c0.07,0.07,0.141,0.15,0.211,0.22c0.01,0,0.1,0.1,0.05,0.06c1.05,1.06,2.27,1.85,3.59,2.38
			c0.61,0.24,1.24,0.43,1.91,0.55c0.93,0.17,1.979,0.25,2.979,0.15c0.591-0.05,1.15-0.16,1.7-0.29c0.6-0.15,1.17-0.36,1.72-0.61
			s1.08-0.55,1.58-0.9l1.44-1.17l0.109-0.12c0.061-0.05,0.101-0.1,0.15-0.15c0.22-0.24,0.44-0.48,0.64-0.73
			c0.591-0.74,1.08-1.53,1.49-2.37c0.55-1.15,0.92-2.42,1.07-3.77c0.07-0.61,0.1-1.26,0.07-1.9c-0.011-0.37-0.04-0.72-0.101-1.07
			c-0.06-0.439-0.14-0.87-0.24-1.29c-0.43-1.76-1.239-3.31-2.379-4.73c-0.121-0.14-0.25-0.28-0.371-0.42
			c-0.069-0.07-0.14-0.14-0.21-0.22c-0.02-0.01-0.09-0.09-0.069-0.09c0.01,0.03-0.011,0-0.021-0.01c-0.04-0.04-0.09-0.08-0.13-0.12
			c-0.04-0.05-0.08-0.09-0.13-0.13c-0.35-0.33-0.71-0.65-1.08-0.94c-0.46-0.35-0.93-0.67-1.42-0.96c-1.45-0.85-3.06-1.44-4.81-1.68
			c-0.94-0.13-1.961-0.18-2.95-0.11c-1.061,0.07-2.09,0.26-3.04,0.57c-0.91,0.3-1.761,0.66-2.58,1.12
			c-0.38,0.21-0.76,0.46-1.13,0.71c-0.28,0.2-0.561,0.4-0.82,0.63l-0.78,0.7l-1.06,1.15c-1.58,1.93-2.65,4.12-3.13,6.59
			c-0.26,1.32-0.36,2.8-0.23,4.22c0.08,0.85,0.21,1.67,0.42,2.45c0.45,1.73,1.17,3.31,2.181,4.76c0.329,0.48,0.689,0.94,1.08,1.38
			c0.109,0.12,0.22,0.24,0.329,0.35c0.021,0.03,0.051,0.05,0.07,0.08l0.011,0.01l0.02,0.02c0.02,0.021,0,0.01-0.01,0
			c1.63,1.67,3.47,2.92,5.52,3.75c0.94,0.39,1.931,0.7,2.96,0.91c1.44,0.29,3.061,0.42,4.641,0.3c0.93-0.07,1.81-0.22,2.67-0.41
			c0.8-0.2,1.56-0.46,2.31-0.75c1.48-0.58,2.87-1.41,4.14-2.42l1.08-0.939l0.09-0.101c0.061-0.06,0.131-0.129,0.2-0.189
			c0.13-0.13,0.261-0.26,0.37-0.38c0.51-0.54,0.971-1.1,1.4-1.68c0.449-0.58,0.83-1.19,1.2-1.82c0.68-1.2,1.229-2.49,1.619-3.83
			c0.28-1,0.511-2.03,0.641-3.12c0.07-0.6,0.109-1.23,0.12-1.86c0.05-2.21-0.311-4.24-0.91-6.13c-0.32-0.98-0.71-1.92-1.18-2.82
			c-0.33-0.64-0.7-1.28-1.11-1.88c-0.51-0.76-1.061-1.48-1.69-2.18c0.15,0.12,0.301,0.28,0.44,0.42c0.229,0.24,0.47,0.48,0.69,0.73
			c0.68,0.78,1.279,1.59,1.819,2.43c0.471,0.73,0.87,1.49,1.22,2.28c0.641,1.48,1.12,3.041,1.37,4.71c0.12,0.81,0.2,1.64,0.221,2.51
			c0.06,2.99-0.561,5.71-1.641,8.15c-0.55,1.26-1.239,2.47-2.08,3.59c-0.449,0.6-0.93,1.18-1.46,1.75c-1.609,1.72-3.47,3-5.47,3.95
			c-0.95,0.47-1.979,0.84-3.03,1.1c-1.52,0.39-3.13,0.62-4.87,0.6C656.029,2.91,655.72,2.9,655.43,2.88z"/>
		<path style="fill-rule:evenodd;clip-rule:evenodd;fill:#FFFFFF;" d="M702.899,7.07c-1.46-0.08-2.85-0.31-4.18-0.65
			c-1.7-0.44-3.3-1.05-4.82-1.84c-1.09-0.54-2.14-1.2-3.13-1.95c-0.82-0.63-1.609-1.291-2.38-2.05c-1.7-1.68-3.01-3.54-4.021-5.57
			c-0.989-1.95-1.64-4.08-1.959-6.36c-0.11-0.72-0.181-1.46-0.211-2.22c-0.119-3.96,0.771-7.44,2.381-10.55
			c0.689-1.32,1.52-2.59,2.51-3.75c0.43-0.51,0.89-1.03,1.38-1.49c0.79-0.76,1.61-1.46,2.479-2.06c1.721-1.21,3.601-2.1,5.641-2.7
			c1.68-0.49,3.48-0.76,5.4-0.76c1.09-0.01,2.14,0.09,3.16,0.25c3.479,0.58,6.579,1.98,9.25,4.2c0.409,0.34,0.819,0.72,1.209,1.11
			c1.71,1.68,2.96,3.59,3.851,5.66c0.51,1.22,0.89,2.5,1.12,3.85c0.109,0.65,0.199,1.34,0.229,2.03c0.061,1.33,0,2.64-0.22,3.88
			c-0.311,1.83-0.86,3.56-1.689,5.13c-0.49,0.93-1.041,1.83-1.69,2.67c-0.5,0.64-1.05,1.3-1.67,1.87c-0.49,0.459-0.98,0.9-1.511,1.3
			c-2.5,1.88-5.449,2.97-8.81,3.12c-1.04,0.05-2.1-0.02-3.06-0.169c-2.061-0.32-3.94-1.01-5.65-2.03c-0.88-0.53-1.72-1.15-2.51-1.87
			c-1.48-1.36-2.62-2.93-3.38-4.67c-0.71-1.63-1.13-3.38-1.181-5.34c-0.02-0.72,0.03-1.41,0.11-2.09c0.2-1.62,0.7-3.11,1.399-4.49
			c0.701-1.39,1.671-2.66,2.87-3.79c0.721-0.67,1.521-1.23,2.341-1.68c0.39-0.21,0.8-0.42,1.22-0.58c1.45-0.57,3.03-0.94,4.79-0.88
			c0.28,0.01,0.57,0.02,0.85,0.05c0.36,0.041,0.73,0.09,1.08,0.15c1.96,0.37,3.66,1.19,5.2,2.4c2.01,1.57,3.3,3.73,3.72,6.16
			c0.15,0.8,0.2,1.71,0.12,2.55c-0.069,0.71-0.18,1.36-0.37,1.99c-0.189,0.63-0.42,1.25-0.74,1.81c-0.109,0.2-0.21,0.4-0.34,0.6
			c-0.64,1.02-1.529,2.05-2.569,2.73c-0.61,0.41-1.25,0.72-1.95,0.96c-0.551,0.19-1.13,0.31-1.74,0.37
			c-2.06,0.19-3.92-0.37-5.39-1.45c-0.5-0.37-1.01-0.83-1.41-1.33c-0.86-1.06-1.351-2.39-1.29-3.91c0.01-0.48,0.09-0.93,0.2-1.36
			c0.189-0.75,0.55-1.43,1.02-2.05c0.69-0.9,1.62-1.521,2.71-1.69c0.96-0.14,1.9,0.08,2.63,0.53c0.351,0.21,0.7,0.5,0.96,0.83
			c0.291,0.4,0.46,0.94,0.37,1.49c-0.03,0.11-0.04,0.2-0.079,0.3c-0.091,0.29-0.251,0.57-0.48,0.79
			c-0.07,0.07-0.141,0.121-0.221,0.05h0.15l0.34-0.52c0.08-0.19,0.12-0.39,0.15-0.62c0.03-0.18,0-0.36-0.03-0.53
			c-0.05-0.26-0.189-0.51-0.33-0.71c-0.04-0.06-0.08-0.11-0.13-0.15c-0.279-0.3-0.7-0.57-1.09-0.74c-0.22-0.1-0.45-0.18-0.69-0.22
			c-0.189-0.03-0.39-0.06-0.59-0.07c-0.779-0.03-1.47,0.19-2.06,0.59l-0.53,0.45l-0.53,0.64c-0.67,0.98-1.05,2.22-0.869,3.56
			c0.039,0.28,0.09,0.54,0.159,0.8c0.17,0.57,0.431,1.1,0.79,1.58c0.091,0.121,0.19,0.24,0.29,0.351
			c0.061,0.07,0.12,0.13,0.17,0.189c0.03,0.021,0.07,0.061,0.05,0.04c0.881,0.88,1.98,1.47,3.181,1.74c0.61,0.14,1.31,0.2,1.99,0.15
			c0.39-0.03,0.76-0.09,1.109-0.17c0.61-0.14,1.17-0.36,1.69-0.66l1.43-1.11l0.74-0.84c0.67-0.89,1.12-1.9,1.4-2.98
			c0.26-0.98,0.319-2.18,0.159-3.24c-0.09-0.48-0.189-0.93-0.33-1.38c-0.13-0.38-0.279-0.74-0.46-1.11
			c-0.08-0.15-0.17-0.3-0.25-0.45c-0.13-0.25-0.3-0.46-0.449-0.68l-0.83-0.959l-0.11-0.121c-0.11-0.1-0.21-0.19-0.31-0.28
			c-0.301-0.26-0.61-0.52-0.94-0.74c-0.96-0.63-1.98-1.13-3.1-1.42c-0.55-0.13-1.11-0.24-1.7-0.29
			c-0.95-0.081-1.931-0.01-2.811,0.17c-1.43,0.29-2.71,0.87-3.85,1.72l-1.09,0.93l-1.141,1.34c-1.039,1.4-1.72,2.95-2.06,4.71
			c-0.19,1.02-0.25,2.19-0.13,3.27c0.061,0.66,0.18,1.279,0.35,1.89c0.36,1.32,0.92,2.52,1.71,3.64
			c0.261,0.36,0.55,0.72,0.851,1.041c0.08,0.1,0.16,0.19,0.25,0.28c0.01,0,0.13,0.13,0.07,0.07c1.31,1.33,2.829,2.32,4.479,2.98
			c0.76,0.29,1.56,0.53,2.39,0.69c1.17,0.21,2.471,0.31,3.721,0.18c0.739-0.06,1.449-0.19,2.13-0.36c0.75-0.18,1.46-0.45,2.149-0.76
			c0.69-0.31,1.351-0.68,1.98-1.12l1.8-1.47l0.14-0.15c0.061-0.06,0.12-0.12,0.181-0.19c0.279-0.3,0.55-0.6,0.8-0.91
			c0.74-0.92,1.36-1.91,1.859-2.96c0.7-1.44,1.15-3.02,1.341-4.71c0.09-0.77,0.12-1.58,0.09-2.38c-0.021-0.46-0.06-0.9-0.12-1.34
			c-0.08-0.55-0.18-1.08-0.311-1.601c-0.539-2.209-1.55-4.149-2.979-5.919c-0.15-0.18-0.3-0.35-0.46-0.53
			c-0.08-0.09-0.17-0.18-0.26-0.27c-0.021-0.02-0.11-0.12-0.09-0.11c0.02,0.03-0.011,0-0.021-0.01c-0.05-0.05-0.11-0.11-0.16-0.16
			c-0.05-0.06-0.1-0.1-0.159-0.16c-0.44-0.41-0.891-0.81-1.351-1.17c-0.58-0.44-1.17-0.85-1.78-1.21c-1.81-1.05-3.83-1.8-6.01-2.1
			c-1.17-0.16-2.45-0.22-3.69-0.13c-1.329,0.09-2.609,0.33-3.8,0.71c-1.14,0.37-2.2,0.82-3.229,1.4c-0.47,0.27-0.94,0.57-1.4,0.89
			c-0.359,0.24-0.7,0.5-1.03,0.79l-0.97,0.87l-1.33,1.44c-1.979,2.41-3.319,5.15-3.92,8.24c-0.31,1.64-0.439,3.49-0.29,5.27
			c0.11,1.06,0.28,2.08,0.53,3.06c0.57,2.16,1.47,4.15,2.729,5.96c0.41,0.6,0.86,1.17,1.351,1.72c0.14,0.15,0.27,0.291,0.41,0.44
			c0.029,0.04,0.06,0.06,0.09,0.09l0.01,0.02l0.021,0.02c0.029,0.03,0.01,0.01,0,0c2.029,2.09,4.33,3.66,6.89,4.69
			c1.18,0.49,2.41,0.88,3.7,1.14c1.81,0.36,3.83,0.53,5.81,0.37c1.15-0.08,2.261-0.271,3.33-0.51c1-0.24,1.95-0.57,2.88-0.93
			c1.86-0.73,3.601-1.771,5.19-3.03l1.34-1.18l0.11-0.121c0.09-0.08,0.17-0.16,0.26-0.229c0.149-0.17,0.31-0.33,0.46-0.48
			c0.63-0.68,1.21-1.371,1.75-2.1c0.56-0.73,1.04-1.5,1.49-2.28c0.859-1.5,1.55-3.11,2.04-4.79c0.35-1.25,0.63-2.54,0.789-3.9
			c0.091-0.75,0.141-1.53,0.16-2.33c0.051-2.76-0.399-5.29-1.149-7.66c-0.391-1.22-0.88-2.39-1.471-3.51
			c-0.42-0.81-0.869-1.61-1.39-2.37c-0.64-0.94-1.32-1.84-2.109-2.71c0.189,0.15,0.369,0.34,0.55,0.52
			c0.29,0.3,0.59,0.61,0.859,0.92c0.86,0.96,1.601,1.98,2.28,3.03c0.58,0.91,1.08,1.87,1.521,2.85c0.8,1.85,1.399,3.8,1.71,5.89
			c0.149,1.01,0.26,2.05,0.279,3.13c0.08,3.75-0.7,7.14-2.05,10.19c-0.689,1.58-1.55,3.09-2.6,4.49c-0.561,0.75-1.17,1.47-1.83,2.18
			c-2,2.16-4.33,3.76-6.83,4.95c-1.2,0.58-2.47,1.041-3.79,1.37c-1.91,0.49-3.91,0.77-6.08,0.75
			C703.64,7.11,703.26,7.1,702.899,7.07z"/>
	</g>
</g>
</svg>
