<?xml version="1.0" encoding="iso-8859-1"?>
<!-- Generator: Adobe Illustrator 15.0.0, SVG Export Plug-In . SVG Version: 6.00 Build 0)  -->
<!DOCTYPE svg PUBLIC "-//W3C//DTD SVG 1.1//EN" "http://www.w3.org/Graphics/SVG/1.1/DTD/svg11.dtd">
<svg version="1.1" id="Layer_1" xmlns="http://www.w3.org/2000/svg" xmlns:xlink="http://www.w3.org/1999/xlink" x="0px" y="0px"
	 width="612px" height="792px" viewBox="0 0 612 792" style="enable-background:new 0 0 612 792;" xml:space="preserve">
<path d="M254.574,417.667h12.768l-18.736-65.34c-0.534-2.146-2.198-3.582-3.717-3.204l-1.938,0.482
	c-1.519,0.378-2.318,2.425-1.784,4.571L254.574,417.667z"/>
<path d="M358.76,417.667l13.408-63.491c0.534-2.146-0.265-4.193-1.784-4.571l-1.938-0.482c-1.519-0.378-3.184,1.057-3.717,3.204
	l-18.736,65.34H358.76z"/>
<path d="M241,421.583v29.333h131.333v-29.333H241z M261.667,441.666c0,0.783-0.635,1.417-1.417,1.417h-10.832
	c-0.783,0-1.417-0.635-1.417-1.417v-10.832c0-0.783,0.635-1.417,1.417-1.417h10.832c0.783,0,1.417,0.635,1.417,1.417V441.666z
	 M270.084,443.208c-2.301,0-4.167-1.866-4.167-4.167c0-2.301,1.866-4.167,4.167-4.167c2.301,0,4.167,1.866,4.167,4.167
	C274.25,441.343,272.385,443.208,270.084,443.208z"/>
</svg>
