<?xml version="1.0" encoding="iso-8859-1"?>
<!-- Generator: Adobe Illustrator 15.0.0, SVG Export Plug-In . SVG Version: 6.00 Build 0)  -->
<!DOCTYPE svg PUBLIC "-//W3C//DTD SVG 1.1//EN" "http://www.w3.org/Graphics/SVG/1.1/DTD/svg11.dtd">
<svg version="1.1" id="Layer_1" xmlns="http://www.w3.org/2000/svg" xmlns:xlink="http://www.w3.org/1999/xlink" x="0px" y="0px"
	 width="612px" height="792px" viewBox="0 0 612 792" style="enable-background:new 0 0 612 792;" xml:space="preserve">
<path d="M313.195,419.388c3.965,3.965,3.953,10.382-0.019,14.354c-3.956,3.957-10.374,3.969-14.339,0.004
	c-3.955-3.955-3.975-10.405-0.019-14.361C302.791,415.412,309.24,415.433,313.195,419.388z"/>
<path d="M340.795,405.319l-9.445,9.446c-6.859-6.614-15.835-10.252-25.346-10.259c-9.525-0.014-18.483,3.596-25.307,10.171
	l-9.414-9.414C290.576,386.485,321.474,386.51,340.795,405.319L340.795,405.319z"/>
<path d="M359.179,386.936l-9.427,9.427c-24.279-23.76-63.217-23.808-87.439-0.106l-9.412-9.412
	C282.325,357.946,329.71,357.985,359.179,386.936L359.179,386.936z"/>
</svg>
