<?xml version="1.0" encoding="iso-8859-1"?>
<!-- Generator: Adobe Illustrator 15.0.0, SVG Export Plug-In . SVG Version: 6.00 Build 0)  -->
<!DOCTYPE svg PUBLIC "-//W3C//DTD SVG 1.1//EN" "http://www.w3.org/Graphics/SVG/1.1/DTD/svg11.dtd">
<svg version="1.1" id="_x23_Layer_1" xmlns="http://www.w3.org/2000/svg" xmlns:xlink="http://www.w3.org/1999/xlink" x="0px"
	 y="0px" width="600px" height="600px" viewBox="0 0 600 600" style="enable-background:new 0 0 600 600;" xml:space="preserve">
<rect x="455.39" y="-163.9" style="fill-rule:evenodd;clip-rule:evenodd;fill:#000003;" width="299.19" height="299.19"/>
<g>
	<path style="fill-rule:evenodd;clip-rule:evenodd;fill:#FFFFFF;" d="M485.15-7.47l1.77-5.29l1.58,5.19
		c-0.58,0.19-1.2,0.29-1.841,0.29C486.13-7.28,485.63-7.35,485.15-7.47L485.15-7.47z M480.66-13.28c0,2.63,1.699,4.87,4.05,5.68
		l-2.11-6.66c-0.229-0.71-0.39-1.14-0.49-1.29c-0.09-0.15-0.24-0.24-0.46-0.26v-0.24h2.98v0.24c-0.24,0-0.4,0.05-0.48,0.13
		c-0.079,0.09-0.109,0.19-0.109,0.31c0,0.17,0.08,0.51,0.239,1.04l1.25,3.89l1.04-3.42l-0.14-0.47c-0.16-0.51-0.28-0.84-0.36-1.01
		c-0.09-0.17-0.189-0.29-0.29-0.37c-0.109-0.07-0.279-0.1-0.489-0.1v-0.24h3.33v0.24c-0.23,0-0.4,0.02-0.5,0.07
		c-0.07,0.02-0.131,0.08-0.171,0.15c-0.039,0.07-0.06,0.15-0.06,0.24c0,0.1,0.08,0.4,0.23,0.9l1.119,3.69l1.23-4.01
		c-0.17-0.5-0.64-0.76-0.87-1.04c-0.729-0.89-0.06-1.91,0.97-1.87c0.07,0,0.131,0.01,0.19,0.02c-1.08-1-2.521-1.62-4.101-1.62
		C483.35-19.28,480.66-16.59,480.66-13.28L480.66-13.28L480.66-13.28z M489-7.75L489-7.75l1.81-6.06c0.22-0.54,0.83-2.05,0.851-2.48
		c0-0.121-0.011-0.24-0.03-0.35c0.65,0.96,1.03,2.12,1.03,3.36C492.66-10.8,491.149-8.67,489-7.75z"/>
	<path style="fill-rule:evenodd;clip-rule:evenodd;fill:#FFFFFF;" d="M505.609-6.02l2.221-6.62l1.97,6.5
		c-0.72,0.23-1.49,0.36-2.3,0.36C506.85-5.78,506.22-5.86,505.609-6.02L505.609-6.02z M500-13.28c0,3.29,2.13,6.09,5.069,7.1
		l-2.64-8.32c-0.29-0.89-0.49-1.43-0.609-1.62c-0.11-0.189-0.301-0.3-0.57-0.33v-0.29h3.72v0.29c-0.3,0.01-0.5,0.07-0.601,0.17
		c-0.1,0.11-0.14,0.24-0.14,0.39c0,0.21,0.101,0.63,0.3,1.29l1.561,4.88L507.4-14l-0.19-0.6c-0.19-0.63-0.34-1.05-0.44-1.26
		c-0.109-0.21-0.229-0.36-0.37-0.45c-0.14-0.09-0.34-0.14-0.6-0.14v-0.29h4.16v0.29c-0.29,0.01-0.5,0.04-0.63,0.09
		c-0.09,0.04-0.16,0.1-0.21,0.19c-0.051,0.09-0.07,0.19-0.07,0.3c0,0.121,0.09,0.5,0.28,1.13l1.399,4.62l1.54-5.03
		c-0.21-0.62-0.8-0.94-1.09-1.29c-0.91-1.12-0.08-2.39,1.22-2.34c0.08,0,0.16,0.01,0.23,0.03c-1.34-1.26-3.15-2.03-5.13-2.03
		C503.359-20.78,500-17.42,500-13.28L500-13.28L500-13.28z M510.43-6.37L510.43-6.37l2.271-7.58c0.27-0.67,1.04-2.56,1.06-3.09
		c0-0.16-0.02-0.3-0.04-0.44c0.811,1.2,1.28,2.64,1.28,4.2C515-10.18,513.12-7.51,510.43-6.37z"/>
	<path style="fill-rule:evenodd;clip-rule:evenodd;fill:#FFFFFF;" d="M529.08-4.57l2.66-7.94l2.369,7.8
		c-0.87,0.28-1.8,0.43-2.76,0.43C530.56-4.28,529.81-4.379,529.08-4.57L529.08-4.57z M522.35-13.28c0,3.95,2.55,7.31,6.08,8.52
		l-3.17-9.99c-0.35-1.07-0.59-1.709-0.73-1.939c-0.13-0.221-0.359-0.35-0.689-0.39v-0.36h4.47v0.36c-0.36,0.01-0.6,0.08-0.72,0.2
		c-0.12,0.13-0.17,0.29-0.17,0.47c0,0.24,0.12,0.76,0.37,1.55l1.87,5.85l1.56-5.13L531-14.86c-0.23-0.76-0.41-1.26-0.54-1.52
		c-0.12-0.25-0.271-0.43-0.431-0.54c-0.17-0.11-0.409-0.16-0.729-0.16v-0.36h4.99v0.36c-0.351,0-0.601,0.04-0.75,0.1
		c-0.11,0.05-0.19,0.12-0.25,0.23c-0.061,0.1-0.091,0.22-0.091,0.36c0,0.15,0.11,0.6,0.341,1.36l1.689,5.54l1.84-6.03
		c-0.25-0.74-0.96-1.13-1.3-1.55c-1.109-1.34-0.1-2.87,1.45-2.82c0.1,0.01,0.19,0.02,0.28,0.04c-1.61-1.51-3.771-2.43-6.15-2.43
		C526.38-22.28,522.35-18.25,522.35-13.28L522.35-13.28L522.35-13.28z M534.859-4.99L534.859-4.99l2.721-9.09
		c0.319-0.81,1.25-3.07,1.27-3.72c0-0.18-0.01-0.35-0.04-0.52c0.97,1.44,1.54,3.17,1.54,5.04C540.35-9.56,538.08-6.359,534.859-4.99
		z"/>
	<path style="fill-rule:evenodd;clip-rule:evenodd;fill:#FFFFFF;" d="M554.99-3.84l2.88-8.6L560.43-4
		c-0.939,0.3-1.939,0.47-2.99,0.47C556.59-3.53,555.77-3.64,554.99-3.84L554.99-3.84z M547.699-13.28c0,4.28,2.75,7.92,6.591,9.23
		l-3.45-10.82c-0.37-1.16-0.63-1.86-0.78-2.1c-0.15-0.24-0.4-0.39-0.75-0.43v-0.38h4.84v0.38c-0.39,0.01-0.649,0.089-0.77,0.229
		c-0.13,0.13-0.2,0.3-0.2,0.5c0,0.26,0.14,0.82,0.41,1.68l2.02,6.33l1.7-5.56l-0.24-0.77c-0.26-0.82-0.449-1.37-0.58-1.64
		c-0.14-0.28-0.3-0.47-0.479-0.59s-0.439-0.18-0.78-0.18v-0.38h5.4v0.38c-0.37,0.01-0.65,0.05-0.811,0.12
		c-0.12,0.04-0.21,0.13-0.27,0.24c-0.07,0.11-0.101,0.24-0.101,0.39c0,0.16,0.12,0.65,0.37,1.47l1.831,6l1.989-6.53
		c-0.27-0.8-1.04-1.22-1.41-1.68c-1.189-1.45-0.109-3.1,1.58-3.05c0.101,0.01,0.2,0.02,0.3,0.05c-1.75-1.64-4.09-2.64-6.67-2.64
		C552.06-23.03,547.699-18.66,547.699-13.28L547.699-13.28L547.699-13.28z M561.239-4.3L561.239-4.3l2.96-9.85
		c0.351-0.87,1.351-3.33,1.37-4.02c0-0.2-0.01-0.39-0.05-0.57c1.061,1.56,1.67,3.44,1.67,5.46
		C567.189-9.25,564.739-5.78,561.239-4.3z"/>
	<path style="fill-rule:evenodd;clip-rule:evenodd;fill:#FFFFFF;" d="M582.96-2.39l3.319-9.92l2.961,9.74
		c-1.09,0.35-2.251,0.54-3.45,0.54C584.81-2.03,583.859-2.16,582.96-2.39L582.96-2.39z M574.54-13.28c0,4.94,3.18,9.13,7.609,10.65
		l-3.979-12.48c-0.431-1.34-0.73-2.15-0.9-2.43c-0.17-0.28-0.46-0.44-0.859-0.49v-0.45h5.58v0.45c-0.45,0.01-0.75,0.1-0.891,0.26
		c-0.149,0.15-0.23,0.35-0.23,0.58c0,0.3,0.16,0.95,0.471,1.93l2.33,7.31l1.96-6.41l-0.271-0.9c-0.3-0.94-0.52-1.57-0.68-1.89
		c-0.16-0.32-0.34-0.54-0.54-0.68c-0.21-0.14-0.51-0.2-0.91-0.2v-0.45h6.24v0.45c-0.44,0-0.75,0.05-0.94,0.13
		c-0.129,0.049-0.239,0.149-0.31,0.28c-0.08,0.13-0.12,0.28-0.12,0.45c0,0.19,0.14,0.75,0.43,1.7l2.11,6.92l2.3-7.53
		c-0.319-0.93-1.2-1.41-1.63-1.94c-1.38-1.68-0.12-3.58,1.82-3.52c0.12,0.01,0.24,0.02,0.35,0.05c-2.01-1.89-4.72-3.04-7.689-3.04
		C579.58-24.53,574.54-19.49,574.54-13.28L574.54-13.28L574.54-13.28z M590.17-2.92L590.17-2.92l3.41-11.36
		c0.399-1.01,1.56-3.84,1.59-4.65c0-0.22-0.021-0.44-0.061-0.65c1.221,1.8,1.931,3.97,1.931,6.3
		C597.04-8.63,594.21-4.629,590.17-2.92z"/>
	<path style="fill-rule:evenodd;clip-rule:evenodd;fill:#FFFFFF;" d="M615.609,1.24l4.42-13.23L623.989,1
		c-1.459,0.47-2.999,0.72-4.6,0.72C618.08,1.72,616.81,1.55,615.609,1.24L615.609,1.24z M604.39-13.28c0,6.58,4.24,12.18,10.14,14.2
		l-5.3-16.64c-0.569-1.79-0.97-2.87-1.2-3.24c-0.229-0.37-0.609-0.59-1.159-0.66v-0.59h7.45v0.59c-0.601,0.02-1.001,0.14-1.19,0.35
		c-0.2,0.21-0.3,0.47-0.3,0.78c0,0.4,0.199,1.26,0.619,2.57l3.11,9.75l2.61-8.55l-0.36-1.2c-0.39-1.26-0.689-2.1-0.899-2.52
		c-0.211-0.42-0.46-0.72-0.73-0.91c-0.27-0.18-0.68-0.27-1.21-0.27v-0.59h8.32v0.59c-0.58,0.01-1,0.07-1.25,0.18
		c-0.181,0.07-0.32,0.2-0.42,0.38c-0.101,0.17-0.15,0.37-0.15,0.6c0,0.24,0.19,0.99,0.57,2.26l2.81,9.23l3.061-10.05
		c-0.41-1.23-1.591-1.88-2.16-2.58c-1.84-2.24-0.17-4.78,2.42-4.69c0.16,0.01,0.32,0.03,0.46,0.06c-2.681-2.51-6.28-4.05-10.24-4.05
		C611.109-28.28,604.39-21.56,604.39-13.28L604.39-13.28L604.39-13.28z M625.229,0.54L625.229,0.54l4.55-15.15
		c0.53-1.35,2.07-5.13,2.11-6.2c0-0.3-0.02-0.59-0.08-0.87c1.62,2.4,2.58,5.29,2.58,8.4C634.39-7.08,630.609-1.75,625.229,0.54z"/>
	<path style="fill-rule:evenodd;clip-rule:evenodd;fill:#FFFFFF;" d="M655.199,4.14l5.311-15.87l4.74,15.59
		c-1.74,0.55-3.59,0.86-5.521,0.86C658.16,4.72,656.64,4.521,655.199,4.14L655.199,4.14z M641.729-13.28
		c0,7.9,5.101,14.61,12.17,17.03l-6.35-19.959c-0.69-2.141-1.17-3.44-1.45-3.89c-0.27-0.45-0.729-0.71-1.38-0.78v-0.72h8.94v0.72
		c-0.721,0.02-1.2,0.16-1.44,0.41s-0.35,0.56-0.35,0.93c0,0.49,0.239,1.521,0.739,3.1l3.73,11.69l3.14-10.26l-0.439-1.43
		c-0.471-1.52-0.83-2.52-1.08-3.03c-0.26-0.51-0.55-0.87-0.87-1.09c-0.33-0.22-0.82-0.32-1.45-0.32v-0.72h9.98v0.72
		c-0.7,0-1.2,0.08-1.511,0.21c-0.21,0.08-0.37,0.24-0.5,0.45c-0.12,0.21-0.18,0.45-0.18,0.72c0,0.3,0.23,1.2,0.68,2.71l3.381,11.08
		l3.67-12.05c-0.5-1.49-1.9-2.26-2.601-3.1c-2.2-2.69-0.189-5.74,2.92-5.63c0.19,0,0.37,0.03,0.551,0.07
		c-3.221-3.01-7.551-4.86-12.301-4.86C649.8-31.28,641.729-23.22,641.729-13.28L641.729-13.28L641.729-13.28z M666.75,3.3
		L666.75,3.3l5.449-18.18c0.641-1.62,2.49-6.15,2.541-7.44c0-0.36-0.03-0.71-0.101-1.04c1.95,2.87,3.09,6.35,3.09,10.08
		C677.729-5.84,673.199,0.561,666.75,3.3z"/>
	<path style="fill-rule:evenodd;clip-rule:evenodd;fill:#FFFFFF;" d="M701.91,8.5l6.64-19.85l5.93,19.49
		c-2.18,0.7-4.49,1.08-6.899,1.08C705.62,9.22,703.72,8.97,701.91,8.5L701.91,8.5z M685.08-13.28c0,9.87,6.369,18.27,15.21,21.29
		l-7.94-24.96c-0.87-2.67-1.47-4.29-1.81-4.85c-0.341-0.56-0.92-0.89-1.73-0.99v-0.88h11.17v0.88c-0.899,0.03-1.5,0.21-1.79,0.521
		c-0.3,0.32-0.439,0.7-0.439,1.17c0,0.61,0.3,1.89,0.92,3.86l4.67,14.63l3.92-12.83l-0.55-1.8c-0.59-1.89-1.03-3.15-1.34-3.78
		c-0.33-0.63-0.69-1.09-1.101-1.36c-0.41-0.271-1.02-0.411-1.81-0.411v-0.88h12.479v0.88c-0.87,0.021-1.5,0.11-1.88,0.271
		c-0.27,0.11-0.479,0.3-0.63,0.57c-0.15,0.26-0.22,0.56-0.22,0.9c0,0.36,0.27,1.49,0.85,3.38l4.21,13.86l4.601-15.08
		c-0.63-1.85-2.391-2.82-3.25-3.87c-2.751-3.36-0.25-7.17,3.64-7.03c0.24,0,0.47,0.04,0.689,0.09c-4.02-3.77-9.43-6.08-15.369-6.08
		C695.16-35.78,685.08-25.7,685.08-13.28L685.08-13.28L685.08-13.28z M716.35,7.45L716.35,7.45l6.811-22.73
		c0.81-2.02,3.109-7.69,3.18-9.29c0-0.46-0.04-0.9-0.12-1.31c2.43,3.59,3.86,7.93,3.86,12.6C730.08-3.979,724.41,4.021,716.35,7.45z
		"/>
</g>
</svg>
