<?xml version="1.0" encoding="iso-8859-1"?>
<!-- Generator: Adobe Illustrator 15.0.0, SVG Export Plug-In . SVG Version: 6.00 Build 0)  -->
<!DOCTYPE svg PUBLIC "-//W3C//DTD SVG 1.1//EN" "http://www.w3.org/Graphics/SVG/1.1/DTD/svg11.dtd">
<svg version="1.1" id="Layer_1" xmlns="http://www.w3.org/2000/svg" xmlns:xlink="http://www.w3.org/1999/xlink" x="0px" y="0px"
	 width="612px" height="792px" viewBox="0 0 612 792" style="enable-background:new 0 0 612 792;" xml:space="preserve">
<path style="fill:#010101;" d="M236.32,270.861c-34.029,0-61.615,27.587-61.615,61.616s27.586,61.616,61.615,61.616
	c34.03,0,61.616-27.587,61.616-61.616S270.351,270.861,236.32,270.861z M262.458,327.291v11.238h-19.119v6.102h19.119v11.238
	h-19.119v13.882h-14.289v-13.882h-18.865v-11.238h18.865v-6.102h-18.865v-11.238h13.271l-15.814-32.086h15.662l10.17,21.662
	c1.289,2.713,2.204,5.103,2.746,7.17c0.644-2.237,1.559-4.627,2.747-7.17l10.373-21.662H265l-16.018,32.086H262.458z"/>
</svg>
