<?xml version="1.0" encoding="iso-8859-1"?>
<!-- Generator: Adobe Illustrator 15.0.0, SVG Export Plug-In . SVG Version: 6.00 Build 0)  -->
<!DOCTYPE svg PUBLIC "-//W3C//DTD SVG 1.1//EN" "http://www.w3.org/Graphics/SVG/1.1/DTD/svg11.dtd">
<svg version="1.1" id="Layer_1" xmlns="http://www.w3.org/2000/svg" xmlns:xlink="http://www.w3.org/1999/xlink" x="0px" y="0px"
	 width="612px" height="792px" viewBox="0 0 612 792" style="enable-background:new 0 0 612 792;" xml:space="preserve">
<g>
	<polygon points="276.621,382.671 282.203,382.671 282.203,367.675 288.699,346.531 283.028,346.531 279.574,360.977 
		279.224,360.977 275.602,346.531 269.979,346.531 276.621,368.35 	"/>
	<path d="M288.446,375.926c0,2.265,0.65,4.067,1.952,5.408c1.301,1.34,3.036,2.011,5.205,2.011c2.252,0,4.021-0.65,5.305-1.948
		c1.284-1.299,1.927-3.089,1.927-5.371v-13.77c0-2.032-0.655-3.693-1.965-4.983c-1.31-1.291-2.99-1.936-5.042-1.936
		c-2.252,0-4.046,0.612-5.381,1.836c-1.334,1.224-2.001,2.868-2.001,4.933V375.926z M293.547,361.906
		c0-0.583,0.189-1.053,0.567-1.411c0.378-0.358,0.87-0.538,1.475-0.538c0.656,0,1.185,0.18,1.588,0.538s0.605,0.829,0.605,1.411
		v14.52c0,0.717-0.198,1.279-0.593,1.688c-0.395,0.408-0.928,0.611-1.601,0.611c-0.656,0-1.16-0.199-1.512-0.599
		c-0.354-0.4-0.529-0.966-0.529-1.701V361.906z"/>
	<path d="M310.505,383.056c0.93,0,1.889-0.284,2.877-0.85c0.988-0.567,1.938-1.394,2.852-2.478v2.943h4.957v-26.66h-4.957v20.237
		c-0.465,0.583-0.976,1.061-1.532,1.435c-0.557,0.375-1.017,0.562-1.382,0.562c-0.465,0-0.801-0.142-1.009-0.425
		s-0.312-0.739-0.312-1.372v-20.437h-4.957v22.283c0,1.587,0.291,2.778,0.872,3.571C308.495,382.66,309.359,383.056,310.505,383.056
		z"/>
	<path d="M329.997,397.163c0-5.212-4.279-9.442-9.552-9.442c-7.525-0.314-15.226-0.454-23.08-0.439
		c-7.854-0.014-15.554,0.125-23.08,0.439c-5.272,0-9.552,4.23-9.552,9.442c-0.316,4.128-0.454,8.257-0.441,12.386
		c-0.012,4.129,0.125,8.257,0.442,12.386c0,5.213,4.279,9.442,9.551,9.442c7.526,0.314,15.226,0.454,23.08,0.439
		c7.854,0.014,15.554-0.125,23.08-0.439c5.273,0,9.552-4.229,9.552-9.442c0.317-4.128,0.454-8.257,0.441-12.386
		C330.451,405.42,330.314,401.291,329.997,397.163z M278.613,423.447v0.312h-4.519v-0.312v-24.702h-4.676v-0.312v-3.935v-0.312
		h13.871v0.312v3.935v0.312h-4.676V423.447z M294.689,402.174v21.273v0.312h-4.013v-0.312v-2.071
		c-0.74,0.877-1.509,1.547-2.31,2.006c-0.799,0.458-1.576,0.688-2.329,0.688c-0.928,0-1.627-0.321-2.098-0.963
		c-0.47-0.643-0.706-1.607-0.706-2.892v-0.312v-17.73v-0.312h4.013v0.312v16.235c0,0.512,0.084,0.882,0.252,1.111
		c0.168,0.229,0.44,0.343,0.817,0.343c0.296,0,0.668-0.151,1.119-0.454c0.45-0.303,0.864-0.69,1.241-1.162v-16.073v-0.312h4.013
		V402.174z M310.138,407.312v11.663v0.312c0,1.535-0.315,2.71-0.943,3.524c-0.628,0.815-1.537,1.221-2.726,1.221
		c-0.785,0-1.484-0.158-2.099-0.473c-0.614-0.315-1.186-0.802-1.713-1.459v1.348v0.312h-4.052v-0.312v-28.949v-0.312h4.052v0.312
		v9.108c0.541-0.659,1.115-1.159,1.723-1.503c0.609-0.343,1.224-0.514,1.846-0.514c1.27,0,2.24,0.461,2.909,1.383
		c0.669,0.922,1.004,2.265,1.004,4.028V407.312z M324.97,407.977v5.185v0.311h-7.676v3.76c0,1.135,0.133,1.923,0.397,2.361
		c0.265,0.44,0.716,0.659,1.356,0.659c0.665,0,1.13-0.186,1.395-0.558c0.266-0.371,0.397-1.192,0.397-2.463v-1.188v-0.312h4.13
		v0.312v1.31v0.312c0,2.213-0.502,3.879-1.508,4.998c-1.006,1.12-2.508,1.68-4.505,1.68c-1.796,0-3.211-0.594-4.243-1.781
		s-1.549-2.819-1.549-4.897v-0.312v-9.377v-0.312c0-1.874,0.567-3.4,1.701-4.58c1.133-1.179,2.599-1.77,4.394-1.77
		c1.836,0,3.247,0.546,4.232,1.639c0.985,1.092,1.479,2.662,1.479,4.71V407.977z"/>
	<path d="M304.332,405.33c-0.286,0-0.569,0.072-0.848,0.212c-0.279,0.142-0.555,0.361-0.828,0.658v13.14
		c0.327,0.351,0.643,0.604,0.95,0.759c0.307,0.155,0.63,0.232,0.971,0.232c0.49,0,0.851-0.151,1.083-0.455
		c0.231-0.303,0.347-0.799,0.347-1.487v-10.833c0-0.729-0.143-1.281-0.429-1.659C305.292,405.519,304.876,405.33,304.332,405.33z"/>
	<path d="M319.087,405.408c-0.638,0-1.097,0.196-1.375,0.587c-0.279,0.392-0.418,1.039-0.418,1.942v1.874h3.545v-1.874
		c0-0.903-0.139-1.551-0.417-1.942C320.144,405.604,319.699,405.408,319.087,405.408z"/>
</g>
</svg>
