<?xml version="1.0" encoding="iso-8859-1"?>
<!-- Generator: Adobe Illustrator 15.0.0, SVG Export Plug-In . SVG Version: 6.00 Build 0)  -->
<!DOCTYPE svg PUBLIC "-//W3C//DTD SVG 1.1//EN" "http://www.w3.org/Graphics/SVG/1.1/DTD/svg11.dtd">
<svg version="1.1" id="Layer_1" xmlns="http://www.w3.org/2000/svg" xmlns:xlink="http://www.w3.org/1999/xlink" x="0px" y="0px"
	 width="612px" height="792px" viewBox="0 0 612 792" style="enable-background:new 0 0 612 792;" xml:space="preserve">
<path style="fill:#010101;" d="M240.299,270.861c-34.029,0-61.615,27.587-61.615,61.616s27.586,61.616,61.615,61.616
	c34.03,0,61.616-27.587,61.616-61.616S274.329,270.861,240.299,270.861z M207.791,293.146h61.278v11.235h-61.278V293.146z
	 M233.366,354.781h-0.136c-0.787,8.13-5.163,15.596-11.98,20.276l-3.393,2.329v-14.146l0.495-0.6
	c2.437-2.957,3.778-6.692,3.778-10.519v-28.955h11.236V354.781z M207.791,319.775V308.54h61.278v11.235H207.791z M272.808,370.064
	h-2.167c-14.323,0-26.313-11.097-27.669-25.145h-0.123l-0.012-2.167v-19.587h11.235v19.094c0,9.136,7.433,16.568,16.568,16.568
	h2.167V370.064z"/>
</svg>
