<?xml version="1.0" encoding="iso-8859-1"?>
<!-- Generator: Adobe Illustrator 15.0.0, SVG Export Plug-In . SVG Version: 6.00 Build 0)  -->
<!DOCTYPE svg PUBLIC "-//W3C//DTD SVG 1.1//EN" "http://www.w3.org/Graphics/SVG/1.1/DTD/svg11.dtd">
<svg version="1.1" xmlns="http://www.w3.org/2000/svg" xmlns:xlink="http://www.w3.org/1999/xlink" x="0px" y="0px" width="300px"
	 height="300px" viewBox="0 0 300 300" style="enable-background:new 0 0 300 300;" xml:space="preserve">
<g id="Layer_1">
	<g>
		<rect x="1.31" y="0.44" style="fill-rule:evenodd;clip-rule:evenodd;fill:#666666;" width="300" height="300"/>
		<g>
			<g>
				<g>
					<g>
						<path style="fill:#FFFFFF;" d="M66.8,173.24l-7.99-0.03l-1.93-11.24c0.37,0.101,0.78,0.15,1.21,0.15
							c1.79,0,3.24-0.92,3.24-2.05c0-0.141-0.02-0.271-0.06-0.4c-0.19,1.021-1.57,1.8-3.22,1.8c-0.46,0-0.89-0.05-1.28-0.16l0,0
							l-2.42-1c0.89-0.43,1.48-1.229,1.48-2.13c0-0.609-0.28-1.18-0.73-1.609c0.14,0.29,0.22,0.6,0.22,0.93
							c0,1.09-0.87,2.02-2.08,2.36l-0.89-0.37l-7.03-2.721c-3.55-0.409-4.03-5.71,0.62-5.35c0.07,0,3.53,0.4,5.84,0.47l1.82-1.919
							c-1.83-1.05-2.56-2.61-2.72-4.43c2.2-0.05,3.64,1.16,4.64,3.07c0.56-0.23,0.27-2.32-0.01-4.39c-0.73-0.12-1.27-0.51-1.27-0.96
							c0-0.55,0.8-0.99,1.79-0.99c0.99,0,1.8,0.44,1.8,0.99c0,0.41-0.44,0.75-1.06,0.91c0.15,1.57,0.47,3.07,1.47,4.21l2.95,0.91
							c0.94-1.07,1.68-2.33,2.22-3.8c-0.49-0.45-0.71-0.97-0.52-1.35c0.27-0.54,1.28-0.58,2.25-0.09c0.97,0.49,1.53,1.33,1.26,1.86
							c-0.21,0.41-0.83,0.53-1.54,0.36c-1.07,1.21-1.65,2.63-1.74,4.26l0.34,1.14h1.93c1.11,0.061,1.79,0.47,2.15,1.13
							c0.91,0.97,1.82,1.29,2.73,1.59c-1.11,1.391-3.23,1.69-6.13,1.13l0.11,0.74c-0.25,0.141-0.46,0.351-0.6,0.62l-0.92,1.83
							c-0.37,0.73-0.07,1.62,0.66,1.99l1.65,0.83l0.23,1.55l-2.6,0.29c-0.82,0.1-1.4,0.83-1.31,1.64l0.23,2.03
							c0.09,0.81,0.83,1.4,1.64,1.3l2.78-0.31l0.09,0.58c-0.13,0.149-0.22,0.319-0.27,0.47l-0.7,2.61
							c-0.14,0.529,0.35,0.819,1.09,0.659l0.43-0.09L66.8,173.24z M65.66,171.39l0.55-2.069l0.39,2.569l-0.09,0.011
							C65.93,172.03,65.54,171.8,65.66,171.39z M62.19,166.76L62,165.14c-0.07-0.64,0.4-1.22,1.04-1.3l2.31-0.26l0.59,3.939
							l-2.45,0.28C62.85,167.87,62.26,167.4,62.19,166.76z M64.95,160.9l-1.04-0.521c-0.58-0.29-0.82-1-0.53-1.58l0.73-1.45
							c0.07-0.13,0.15-0.239,0.25-0.33L64.95,160.9z M48.5,154.23c0-1.261-0.97-2.311-2.23-2.5c0.94,0.39,1.6,1.289,1.6,2.329
							c0,1.4-1.17,2.53-2.61,2.53c-0.14,0-0.27-0.01-0.4-0.03c0.31,0.131,0.66,0.2,1.02,0.2C47.33,156.76,48.5,155.63,48.5,154.23z
							 M67.88,155.16c1.96,0-2.77-3.24-4.04-1.93c-0.02,0-0.03-0.051-0.06-0.051c-0.08,0.08-0.8,0.11-0.91,0.11
							c-0.47,0.15,0.61,1.16,0.91,1.31C64.93,155.18,66.39,155.16,67.88,155.16z M58.58,152.89c0.2-0.689-0.04-1.37-0.55-1.529
							c-0.51-0.15-1.1,0.29-1.31,0.979c-0.2,0.69,0.04,1.37,0.55,1.53C57.78,154.02,58.37,153.58,58.58,152.89z M57.34,153.48
							c-0.18-0.07-0.3-0.25-0.34-0.461c0.06,0.07,0.13,0.131,0.21,0.16c0.34,0.141,0.77-0.109,0.96-0.56
							c0.09-0.21,0.12-0.43,0.08-0.62c0.16,0.22,0.19,0.58,0.05,0.92C58.11,153.37,57.67,153.62,57.34,153.48z M57.38,152.97
							c-0.2-0.08-0.28-0.39-0.16-0.68c0.12-0.29,0.38-0.46,0.58-0.38c0.2,0.08,0.28,0.39,0.16,0.68l-0.03,0.04
							c0.01,0.021-0.02,0.08-0.07,0.14c-0.02,0.021-0.05,0.04-0.08,0.051C57.85,152.88,57.58,153.05,57.38,152.97z M55.67,151.79
							c0.23-0.61,0.05-1.25-0.4-1.42c-0.45-0.18-1.01,0.18-1.24,0.79c-0.24,0.62-0.06,1.25,0.39,1.43
							C54.87,152.76,55.43,152.41,55.67,151.79z M54.44,152.23c-0.18-0.07-0.29-0.25-0.33-0.461c0.05,0.07,0.12,0.131,0.21,0.16
							c0.33,0.141,0.77-0.109,0.95-0.56c0.09-0.22,0.12-0.43,0.08-0.62c0.17,0.22,0.19,0.58,0.05,0.92
							C55.21,152.12,54.78,152.37,54.44,152.23z M54.54,151.72c-0.2-0.08-0.28-0.39-0.16-0.68c0.11-0.28,0.38-0.46,0.58-0.38
							s0.27,0.39,0.16,0.68C55,151.63,54.74,151.8,54.54,151.72z M51.38,139.83c-0.98-1.02-1.48-2.42-1.48-4.21
							c0-1.15,0.17-2.11,0.52-2.88c0.25-0.57,0.6-1.09,1.04-1.55c0.45-0.45,0.93-0.79,1.46-1c0.7-0.3,1.51-0.45,2.42-0.45
							c1.66,0,2.98,0.51,3.98,1.54c0.99,1.03,1.49,2.46,1.49,4.28s-0.5,3.24-1.48,4.26c-0.99,1.03-2.31,1.55-3.96,1.55
							C53.7,141.37,52.37,140.85,51.38,139.83z M63.6,139.83c-0.99-1.02-1.48-2.42-1.48-4.21c0-1.15,0.17-2.11,0.51-2.88
							c0.26-0.57,0.61-1.09,1.05-1.55c0.44-0.45,0.92-0.79,1.45-1c0.7-0.3,1.51-0.45,2.43-0.45c1.65,0,2.97,0.51,3.97,1.54
							c1,1.03,1.49,2.46,1.49,4.28s-0.49,3.24-1.48,4.26c-0.98,1.03-2.31,1.55-3.95,1.55C65.92,141.37,64.59,140.85,63.6,139.83z
							 M39.8,141.17v-2.04l5.9-7.3h-5.24v-1.9h8.23v1.76l-6.16,7.59h6.4v1.89H39.8z M57.59,138.45c0.58-0.66,0.87-1.63,0.87-2.94
							c0-1.29-0.28-2.25-0.85-2.88c-0.56-0.64-1.31-0.95-2.25-0.95c-0.93,0-1.69,0.32-2.26,0.96c-0.57,0.64-0.86,1.61-0.86,2.9
							c0,1.28,0.29,2.24,0.88,2.9c0.59,0.65,1.34,0.98,2.24,0.98C56.27,139.42,57.01,139.1,57.59,138.45z M69.81,138.45
							c0.58-0.66,0.87-1.63,0.87-2.94c0-1.29-0.29-2.25-0.85-2.88c-0.57-0.64-1.31-0.95-2.25-0.95s-1.69,0.32-2.26,0.96
							c-0.58,0.64-0.86,1.61-0.86,2.9c0,1.28,0.29,2.24,0.88,2.9c0.59,0.65,1.34,0.98,2.24,0.98S69.23,139.1,69.81,138.45z"/>
					</g>
				</g>
				<rect x="33.91" y="128.99" style="fill-rule:evenodd;clip-rule:evenodd;fill:none;" width="45" height="45"/>
			</g>
			<g>
				<g>
					<g>
						<path style="fill:#FFFFFF;" d="M109.93,168.89l-6.38-0.02l-1.55-8.99c0.3,0.07,0.62,0.11,0.96,0.11c1.44,0,2.6-0.73,2.6-1.641
							c0-0.1-0.02-0.21-0.05-0.319c-0.15,0.819-1.25,1.45-2.58,1.45c-0.36,0-0.7-0.051-1.02-0.131v-0.01l-1.93-0.79
							c0.71-0.35,1.18-0.99,1.18-1.71c0-0.49-0.22-0.939-0.59-1.29c0.12,0.23,0.18,0.48,0.18,0.75c0,0.87-0.69,1.61-1.66,1.891
							l-0.72-0.301l-5.62-2.18c-2.84-0.33-3.22-4.57,0.5-4.28c0.05,0.011,2.83,0.32,4.67,0.38l1.45-1.54
							c-1.46-0.84-2.04-2.08-2.17-3.54c1.76-0.04,2.91,0.93,3.71,2.45c0.45-0.18,0.22-1.85,0-3.51c-0.59-0.09-1.02-0.4-1.02-0.76
							c0-0.44,0.64-0.8,1.43-0.8s1.44,0.36,1.44,0.8c0,0.32-0.35,0.6-0.84,0.73c0.11,1.25,0.37,2.45,1.17,3.36l2.36,0.73
							c0.75-0.85,1.34-1.87,1.77-3.04c-0.39-0.36-0.56-0.78-0.41-1.08c0.22-0.43,1.02-0.46,1.8-0.07c0.77,0.39,1.22,1.06,1.01,1.49
							c-0.17,0.33-0.67,0.42-1.24,0.28c-0.85,0.97-1.32,2.11-1.39,3.42l0.28,0.9h1.54c0.89,0.05,1.43,0.38,1.72,0.91
							c0.73,0.77,1.45,1.03,2.18,1.27c-0.89,1.11-2.58,1.351-4.9,0.91l0.09,0.58c-0.2,0.12-0.37,0.28-0.48,0.5l-0.74,1.46
							c-0.29,0.59-0.06,1.3,0.53,1.59l1.32,0.67l0.19,1.24l-2.09,0.24c-0.65,0.07-1.12,0.66-1.04,1.31l0.18,1.62
							c0.07,0.65,0.66,1.12,1.31,1.04l2.23-0.25l0.07,0.471c-0.11,0.119-0.18,0.25-0.22,0.369l-0.56,2.091
							c-0.11,0.42,0.28,0.659,0.87,0.529l0.34-0.08L109.93,168.89z M109.02,167.41l0.44-1.65l0.31,2.05l-0.06,0.011
							C109.24,167.93,108.93,167.74,109.02,167.41z M106.25,163.71l-0.15-1.3c-0.06-0.51,0.31-0.98,0.83-1.04l1.85-0.21l0.47,3.16
							l-1.96,0.22C106.77,164.59,106.3,164.22,106.25,163.71z M108.45,159.02l-0.83-0.42c-0.46-0.229-0.65-0.8-0.42-1.26l0.59-1.16
							c0.05-0.109,0.12-0.199,0.2-0.27L108.45,159.02z M95.3,153.68c0-1.01-0.78-1.85-1.78-2c0.75,0.311,1.27,1.03,1.27,1.87
							c0,1.11-0.93,2.021-2.09,2.021c-0.11,0-0.21-0.011-0.31-0.021c0.24,0.101,0.52,0.16,0.81,0.16
							C94.36,155.71,95.3,154.8,95.3,153.68z M110.8,154.43c1.57,0-2.21-2.6-3.23-1.55c-0.02,0-0.03-0.04-0.05-0.04
							c-0.06,0.07-0.64,0.09-0.73,0.09c-0.37,0.12,0.49,0.931,0.73,1.051C108.44,154.44,109.6,154.43,110.8,154.43z M103.36,152.61
							c0.16-0.551-0.03-1.101-0.44-1.221c-0.41-0.13-0.88,0.221-1.05,0.78c-0.16,0.55,0.03,1.1,0.44,1.22
							C102.72,153.52,103.19,153.17,103.36,152.61z M102.37,153.08c-0.15-0.05-0.24-0.2-0.27-0.37c0.04,0.06,0.1,0.11,0.17,0.14
							c0.27,0.11,0.61-0.09,0.76-0.46c0.07-0.17,0.09-0.34,0.07-0.489c0.13,0.17,0.15,0.46,0.04,0.729
							C102.98,153,102.63,153.2,102.37,153.08z M102.4,152.67c-0.16-0.06-0.22-0.31-0.13-0.54c0.09-0.229,0.3-0.37,0.47-0.3
							c0.16,0.06,0.22,0.31,0.13,0.54l-0.03,0.04c0.01,0.01-0.01,0.06-0.05,0.1c-0.02,0.021-0.04,0.04-0.07,0.05
							C102.77,152.6,102.56,152.74,102.4,152.67z M101.03,151.73c0.19-0.49,0.04-1-0.31-1.141c-0.37-0.14-0.81,0.15-1,0.641
							c-0.19,0.489-0.05,1,0.31,1.14C100.39,152.51,100.84,152.22,101.03,151.73z M100.05,152.08c-0.14-0.061-0.24-0.2-0.27-0.37
							c0.04,0.06,0.1,0.11,0.17,0.13c0.27,0.12,0.61-0.09,0.77-0.45c0.07-0.17,0.09-0.34,0.06-0.49c0.13,0.17,0.15,0.46,0.04,0.73
							C100.66,152,100.32,152.2,100.05,152.08z M100.13,151.67c-0.17-0.06-0.22-0.3-0.13-0.54c0.09-0.23,0.3-0.37,0.46-0.3
							c0.17,0.06,0.22,0.31,0.13,0.54C100.5,151.6,100.29,151.74,100.13,151.67z M97.6,142.17c-0.79-0.82-1.18-1.95-1.18-3.37
							c0-0.92,0.13-1.69,0.41-2.31c0.2-0.46,0.48-0.87,0.84-1.24c0.35-0.36,0.74-0.63,1.16-0.8c0.56-0.24,1.21-0.36,1.94-0.36
							c1.32,0,2.38,0.41,3.18,1.23c0.79,0.82,1.19,1.97,1.19,3.43c0,1.45-0.4,2.59-1.18,3.41c-0.79,0.82-1.85,1.23-3.17,1.23
							C99.45,143.39,98.39,142.98,97.6,142.17z M107.37,142.17c-0.78-0.82-1.18-1.95-1.18-3.37c0-0.92,0.14-1.69,0.41-2.31
							c0.21-0.46,0.49-0.87,0.84-1.24c0.35-0.36,0.74-0.63,1.16-0.8c0.56-0.24,1.21-0.36,1.94-0.36c1.33,0,2.38,0.41,3.18,1.23
							c0.8,0.82,1.19,1.97,1.19,3.43c0,1.45-0.39,2.59-1.18,3.41c-0.79,0.82-1.85,1.23-3.16,1.23
							C109.23,143.39,108.17,142.98,107.37,142.17z M88.33,143.23v-1.63l4.73-5.84h-4.2v-1.52h6.59v1.41l-4.93,6.07h5.12v1.51H88.33
							z M102.57,141.06c0.46-0.53,0.69-1.31,0.69-2.35c0-1.03-0.22-1.8-0.67-2.31c-0.46-0.51-1.06-0.76-1.8-0.76
							c-0.75,0-1.36,0.26-1.82,0.77c-0.45,0.51-0.68,1.29-0.68,2.32c0,1.02,0.23,1.79,0.7,2.32c0.48,0.52,1.07,0.79,1.8,0.79
							C101.51,141.84,102.1,141.58,102.57,141.06z M112.34,141.06c0.47-0.53,0.7-1.31,0.7-2.35c0-1.03-0.23-1.8-0.68-2.31
							c-0.45-0.51-1.05-0.76-1.8-0.76s-1.35,0.26-1.81,0.77c-0.46,0.51-0.69,1.29-0.69,2.32c0,1.02,0.24,1.79,0.71,2.32
							c0.47,0.52,1.07,0.79,1.79,0.79C111.28,141.84,111.88,141.58,112.34,141.06z"/>
					</g>
				</g>
				<rect x="83.62" y="133.49" style="fill-rule:evenodd;clip-rule:evenodd;fill:none;" width="36" height="36"/>
			</g>
			<g>
				<g>
					<g>
						<path style="fill:#FFFFFF;" d="M146.26,165.99l-5.32-0.021l-1.29-7.489c0.25,0.06,0.52,0.1,0.81,0.1
							c1.19,0,2.16-0.62,2.16-1.37c0-0.09-0.02-0.18-0.04-0.27c-0.13,0.68-1.05,1.21-2.15,1.21c-0.3,0-0.59-0.04-0.85-0.11v-0.01
							l-1.62-0.66c0.6-0.29,0.99-0.82,0.99-1.42c0-0.41-0.18-0.78-0.49-1.07c0.1,0.19,0.15,0.4,0.15,0.62
							c0,0.72-0.58,1.34-1.38,1.57l-0.6-0.24l-4.69-1.82c-2.36-0.27-2.68-3.81,0.42-3.569c0.04,0.01,2.35,0.27,3.89,0.319l1.21-1.28
							c-1.22-0.71-1.7-1.74-1.81-2.95c1.47-0.04,2.43,0.77,3.1,2.04c0.37-0.15,0.17-1.55-0.01-2.93c-0.49-0.08-0.85-0.33-0.85-0.63
							c0-0.37,0.54-0.67,1.2-0.67c0.65,0,1.19,0.3,1.19,0.67c0,0.27-0.29,0.5-0.7,0.6c0.1,1.05,0.31,2.05,0.98,2.81l1.97,0.6
							c0.62-0.71,1.11-1.55,1.47-2.53c-0.32-0.3-0.47-0.65-0.34-0.9c0.18-0.36,0.85-0.38,1.5-0.06c0.64,0.33,1.02,0.89,0.84,1.24
							c-0.14,0.28-0.56,0.36-1.03,0.24c-0.71,0.81-1.1,1.76-1.16,2.84l0.23,0.76h1.28c0.75,0.04,1.2,0.319,1.44,0.76
							c0.6,0.64,1.21,0.85,1.82,1.05c-0.74,0.93-2.15,1.13-4.09,0.76l0.08,0.49c-0.17,0.09-0.31,0.23-0.4,0.42l-0.62,1.21
							c-0.24,0.49-0.05,1.08,0.44,1.33l1.1,0.55l0.16,1.04l-1.74,0.19c-0.54,0.07-0.93,0.55-0.87,1.09l0.15,1.36
							c0.06,0.54,0.55,0.93,1.09,0.87l1.86-0.211l0.06,0.391c-0.09,0.1-0.15,0.2-0.18,0.31l-0.47,1.74
							c-0.09,0.35,0.23,0.54,0.73,0.44l0.28-0.07L146.26,165.99z M145.5,164.76l0.37-1.38l0.26,1.71l-0.06,0.01
							C145.68,165.19,145.43,165.03,145.5,164.76z M143.19,161.67l-0.12-1.08c-0.05-0.42,0.26-0.81,0.69-0.859l1.54-0.181l0.39,2.63
							l-1.63,0.181C143.63,162.41,143.24,162.1,143.19,161.67z M145.03,157.77l-0.69-0.35c-0.39-0.2-0.55-0.67-0.35-1.05l0.48-0.97
							c0.05-0.091,0.1-0.16,0.17-0.23L145.03,157.77z M134.06,153.32c0-0.84-0.64-1.551-1.48-1.67c0.63,0.26,1.07,0.859,1.07,1.55
							c0,0.93-0.78,1.689-1.75,1.689c-0.09,0-0.17-0.01-0.26-0.02c0.21,0.09,0.44,0.13,0.68,0.13
							C133.28,155,134.06,154.25,134.06,153.32z M146.98,153.94c1.31,0-1.84-2.171-2.69-1.29c-0.01,0-0.02-0.03-0.04-0.03
							c-0.05,0.05-0.53,0.07-0.6,0.07c-0.32,0.1,0.4,0.77,0.6,0.869C145.02,153.95,145.99,153.94,146.98,153.94z M140.78,152.43
							c0.14-0.46-0.02-0.92-0.36-1.02c-0.34-0.11-0.73,0.18-0.87,0.649c-0.14,0.46,0.02,0.91,0.36,1.021
							C140.25,153.18,140.64,152.89,140.78,152.43z M139.96,152.82c-0.12-0.051-0.2-0.17-0.23-0.311c0.04,0.05,0.09,0.09,0.14,0.11
							c0.23,0.09,0.52-0.07,0.64-0.38c0.06-0.141,0.08-0.28,0.06-0.41c0.1,0.15,0.12,0.39,0.03,0.61
							C140.47,152.75,140.18,152.91,139.96,152.82z M139.99,152.48c-0.14-0.061-0.19-0.261-0.11-0.461
							c0.08-0.189,0.25-0.3,0.39-0.25c0.13,0.061,0.18,0.261,0.1,0.45l-0.02,0.03c0.01,0.01-0.01,0.06-0.04,0.09
							c-0.02,0.021-0.04,0.03-0.06,0.04C140.3,152.42,140.12,152.53,139.99,152.48z M138.84,151.69c0.16-0.41,0.04-0.831-0.26-0.95
							c-0.3-0.11-0.67,0.12-0.83,0.529c-0.16,0.41-0.04,0.841,0.26,0.95C138.31,152.34,138.69,152.1,138.84,151.69z M138.03,151.99
							c-0.12-0.05-0.2-0.17-0.23-0.311c0.04,0.04,0.08,0.08,0.14,0.101c0.23,0.1,0.52-0.07,0.64-0.37
							c0.06-0.141,0.08-0.29,0.05-0.41c0.11,0.14,0.13,0.38,0.04,0.61C138.54,151.91,138.25,152.08,138.03,151.99z M138.09,151.64
							c-0.13-0.05-0.18-0.25-0.11-0.449c0.08-0.19,0.26-0.3,0.39-0.25c0.14,0.05,0.18,0.26,0.11,0.45
							C138.4,151.59,138.23,151.7,138.09,151.64z M135.99,143.72c-0.66-0.68-0.99-1.62-0.99-2.81c0-0.76,0.11-1.4,0.34-1.92
							c0.17-0.38,0.4-0.73,0.7-1.03s0.62-0.53,0.97-0.67c0.47-0.2,1.01-0.3,1.62-0.3c1.1,0,1.98,0.34,2.65,1.03
							c0.66,0.68,0.99,1.63,0.99,2.85c0,1.21-0.33,2.16-0.99,2.84c-0.66,0.69-1.54,1.03-2.64,1.03
							C137.53,144.74,136.64,144.4,135.99,143.72z M144.13,143.72c-0.66-0.68-0.99-1.62-0.99-2.81c0-0.76,0.12-1.4,0.35-1.92
							c0.17-0.38,0.4-0.73,0.69-1.03c0.3-0.3,0.62-0.53,0.97-0.67c0.47-0.2,1.01-0.3,1.62-0.3c1.1,0,1.98,0.34,2.65,1.03
							c0.66,0.68,0.99,1.63,0.99,2.85c0,1.21-0.33,2.16-0.98,2.84c-0.66,0.69-1.54,1.03-2.64,1.03
							C145.68,144.74,144.79,144.4,144.13,143.72z M128.26,144.61v-1.36l3.94-4.86h-3.5v-1.27h5.49v1.17l-4.1,5.06h4.26v1.26H128.26
							z M140.13,142.8c0.38-0.44,0.58-1.09,0.58-1.96c0-0.86-0.19-1.5-0.57-1.92c-0.38-0.43-0.88-0.64-1.5-0.64
							c-0.62,0-1.13,0.22-1.51,0.65c-0.38,0.42-0.57,1.07-0.57,1.93c0,0.85,0.19,1.49,0.59,1.93c0.39,0.44,0.89,0.66,1.49,0.66
							S139.74,143.23,140.13,142.8z M148.27,142.8c0.39-0.44,0.58-1.09,0.58-1.96c0-0.86-0.19-1.5-0.56-1.92
							c-0.38-0.43-0.88-0.64-1.5-0.64c-0.63,0-1.13,0.22-1.51,0.65c-0.39,0.42-0.58,1.07-0.58,1.93c0,0.85,0.2,1.49,0.59,1.93
							s0.89,0.66,1.5,0.66C147.39,143.45,147.88,143.23,148.27,142.8z"/>
					</g>
				</g>
				<rect x="124.34" y="136.49" style="fill-rule:evenodd;clip-rule:evenodd;fill:none;" width="30" height="30"/>
			</g>
			<g>
				<g>
					<g>
						<path style="fill:#FFFFFF;" d="M175.5,162.37l-4-0.021l-0.96-5.619c0.18,0.05,0.39,0.079,0.6,0.079
							c0.9,0,1.62-0.46,1.62-1.029c0-0.07-0.01-0.13-0.029-0.2c-0.101,0.51-0.78,0.9-1.61,0.9c-0.23,0-0.44-0.03-0.64-0.08l0,0
							l-1.211-0.5c0.45-0.221,0.74-0.61,0.74-1.061c0-0.31-0.14-0.59-0.37-0.81c0.08,0.14,0.12,0.3,0.12,0.47
							c0,0.54-0.439,1-1.04,1.18l-0.45-0.189l-3.51-1.36c-1.779-0.21-2.02-2.86,0.311-2.68c0.029,0.01,1.76,0.2,2.92,0.24
							l0.899-0.96c-0.909-0.53-1.27-1.3-1.35-2.21c1.1-0.03,1.82,0.58,2.32,1.53c0.279-0.11,0.13-1.16-0.011-2.19
							c-0.359-0.07-0.63-0.26-0.63-0.48c0-0.28,0.4-0.5,0.891-0.5c0.5,0,0.899,0.22,0.899,0.5c0,0.2-0.22,0.37-0.529,0.45
							c0.079,0.79,0.239,1.53,0.739,2.11l1.471,0.45c0.47-0.53,0.84-1.17,1.109-1.9c-0.24-0.22-0.35-0.49-0.26-0.67
							c0.14-0.27,0.64-0.29,1.13-0.05c0.48,0.25,0.76,0.67,0.63,0.93c-0.109,0.21-0.42,0.27-0.77,0.18
							c-0.54,0.61-0.83,1.32-0.87,2.13l0.17,0.57h0.96c0.56,0.03,0.9,0.24,1.08,0.57c0.45,0.479,0.91,0.64,1.36,0.79
							c-0.551,0.689-1.61,0.85-3.061,0.569l0.05,0.36c-0.12,0.08-0.229,0.18-0.3,0.32l-0.46,0.909c-0.18,0.37-0.03,0.811,0.33,0.99
							l0.83,0.42l0.11,0.78l-1.301,0.14c-0.41,0.051-0.699,0.42-0.649,0.82l0.109,1.02c0.051,0.4,0.42,0.69,0.82,0.65l1.39-0.16
							l0.051,0.29c-0.07,0.08-0.11,0.16-0.141,0.24l-0.35,1.3c-0.07,0.26,0.18,0.41,0.55,0.33l0.21-0.05L175.5,162.37z
							 M174.92,161.44l0.28-1.03l0.189,1.28l-0.04,0.01C175.06,161.76,174.87,161.65,174.92,161.44z M173.19,159.13l-0.091-0.81
							c-0.04-0.32,0.2-0.62,0.521-0.65l1.149-0.13l0.301,1.97l-1.23,0.141C173.52,159.68,173.23,159.45,173.19,159.13z
							 M174.57,156.2l-0.521-0.26c-0.29-0.15-0.41-0.5-0.26-0.79l0.36-0.73c0.04-0.06,0.08-0.12,0.13-0.17L174.57,156.2z
							 M166.35,152.86c0-0.63-0.489-1.16-1.119-1.25c0.47,0.189,0.8,0.64,0.8,1.17c0,0.689-0.58,1.26-1.3,1.26
							c-0.07,0-0.141,0-0.2-0.01c0.149,0.06,0.33,0.1,0.51,0.1C165.76,154.13,166.35,153.56,166.35,152.86z M176.04,153.33
							c0.979,0-1.39-1.63-2.021-0.97c-0.02,0-0.02-0.03-0.029-0.03c-0.04,0.05-0.4,0.06-0.46,0.06c-0.23,0.08,0.31,0.58,0.46,0.65
							C174.56,153.34,175.29,153.33,176.04,153.33z M171.39,152.19c0.101-0.341-0.02-0.69-0.279-0.761
							c-0.25-0.08-0.551,0.141-0.65,0.48c-0.11,0.35,0.021,0.689,0.271,0.77C170.99,152.76,171.28,152.54,171.39,152.19z
							 M170.77,152.49c-0.09-0.04-0.149-0.13-0.17-0.23c0.03,0.03,0.061,0.061,0.101,0.08c0.17,0.07,0.39-0.06,0.479-0.29
							c0.051-0.1,0.061-0.21,0.04-0.3c0.08,0.11,0.101,0.28,0.03,0.45C171.15,152.43,170.93,152.56,170.77,152.49z M170.79,152.23
							c-0.1-0.04-0.14-0.19-0.08-0.341c0.05-0.14,0.19-0.229,0.29-0.189s0.14,0.189,0.08,0.34l-0.021,0.02
							c0.011,0.011-0.01,0.04-0.029,0.07c-0.011,0.01-0.03,0.021-0.04,0.03C171.02,152.19,170.89,152.27,170.79,152.23z
							 M169.93,151.64c0.12-0.3,0.03-0.62-0.199-0.709c-0.221-0.09-0.5,0.089-0.62,0.4c-0.12,0.3-0.03,0.62,0.199,0.71
							C169.53,152.13,169.81,151.95,169.93,151.64z M169.32,151.86c-0.09-0.04-0.15-0.12-0.17-0.23
							c0.029,0.04,0.06,0.061,0.109,0.08c0.16,0.07,0.38-0.05,0.471-0.28c0.05-0.109,0.06-0.22,0.039-0.31
							c0.091,0.11,0.101,0.29,0.03,0.46C169.7,151.81,169.49,151.93,169.32,151.86z M169.37,151.61c-0.11-0.04-0.14-0.2-0.08-0.341
							c0.05-0.149,0.18-0.229,0.29-0.189c0.1,0.04,0.13,0.189,0.08,0.34C169.6,151.56,169.47,151.65,169.37,151.61z M167.79,145.66
							c-0.49-0.51-0.74-1.21-0.74-2.1c0-0.58,0.08-1.06,0.26-1.45c0.12-0.28,0.301-0.54,0.521-0.77c0.22-0.22,0.46-0.39,0.72-0.5
							c0.36-0.15,0.76-0.22,1.22-0.22c0.82,0,1.49,0.25,1.98,0.77c0.5,0.51,0.75,1.22,0.75,2.14c0,0.91-0.25,1.62-0.74,2.13
							c-0.49,0.51-1.149,0.77-1.979,0.77S168.28,146.17,167.79,145.66z M173.9,145.66c-0.5-0.51-0.74-1.21-0.74-2.1
							c0-0.58,0.08-1.06,0.25-1.45c0.13-0.28,0.31-0.54,0.53-0.77c0.22-0.22,0.46-0.39,0.72-0.5c0.35-0.15,0.76-0.22,1.21-0.22
							c0.83,0,1.49,0.25,1.99,0.77c0.5,0.51,0.75,1.22,0.75,2.14c0,0.91-0.25,1.62-0.74,2.13c-0.5,0.51-1.16,0.77-1.98,0.77
							C175.05,146.43,174.39,146.17,173.9,145.66z M162,146.33v-1.02l2.95-3.65h-2.62v-0.95h4.11v0.88l-3.08,3.79h3.199v0.95H162z
							 M170.89,144.97c0.29-0.33,0.44-0.82,0.44-1.47c0-0.64-0.14-1.12-0.43-1.44c-0.28-0.32-0.65-0.47-1.12-0.47
							c-0.471,0-0.851,0.16-1.13,0.48c-0.29,0.32-0.431,0.8-0.431,1.45c0,0.63,0.141,1.12,0.44,1.45c0.29,0.32,0.67,0.49,1.12,0.49
							S170.6,145.3,170.89,144.97z M177,144.97c0.29-0.33,0.43-0.82,0.43-1.47c0-0.64-0.14-1.12-0.42-1.44
							c-0.279-0.32-0.66-0.47-1.12-0.47c-0.47,0-0.85,0.16-1.14,0.48c-0.28,0.32-0.42,0.8-0.42,1.45c0,0.63,0.14,1.12,0.439,1.45
							c0.29,0.32,0.66,0.49,1.12,0.49C176.34,145.46,176.71,145.3,177,144.97z"/>
					</g>
				</g>
				<rect x="159.05" y="140.24" style="fill-rule:evenodd;clip-rule:evenodd;fill:none;" width="22.5" height="22.5"/>
			</g>
			<g>
				<g>
					<g>
						<path style="fill:#FFFFFF;" d="M200.52,160.92l-3.46-0.02l-0.84-4.87c0.16,0.05,0.34,0.069,0.521,0.069
							c0.779,0,1.41-0.399,1.41-0.89c0-0.06-0.011-0.12-0.03-0.17c-0.08,0.44-0.68,0.78-1.39,0.78c-0.2,0-0.391-0.03-0.561-0.07
							v-0.01l-1.05-0.431c0.39-0.189,0.649-0.529,0.649-0.92c0-0.26-0.13-0.51-0.319-0.699c0.06,0.13,0.09,0.26,0.09,0.409
							c0,0.471-0.37,0.87-0.9,1.021l-0.38-0.16l-3.05-1.18c-1.54-0.181-1.74-2.48,0.271-2.32c0.029,0,1.529,0.17,2.529,0.21
							l0.79-0.84c-0.79-0.45-1.109-1.13-1.18-1.92c0.96-0.02,1.58,0.51,2.01,1.33c0.24-0.1,0.12-1,0-1.9
							c-0.32-0.05-0.56-0.22-0.56-0.41c0-0.24,0.35-0.43,0.779-0.43c0.431,0,0.78,0.19,0.78,0.43c0,0.17-0.189,0.32-0.46,0.39
							c0.07,0.68,0.2,1.33,0.64,1.82l1.28,0.4c0.41-0.47,0.73-1.01,0.96-1.65c-0.21-0.19-0.31-0.42-0.22-0.58
							c0.11-0.24,0.55-0.25,0.97-0.04s0.66,0.57,0.55,0.81c-0.09,0.17-0.359,0.22-0.67,0.15c-0.46,0.52-0.72,1.14-0.75,1.85
							l0.141,0.49h0.84c0.479,0.029,0.77,0.199,0.93,0.489c0.391,0.421,0.79,0.561,1.18,0.69c-0.479,0.6-1.399,0.73-2.649,0.49
							l0.04,0.319c-0.101,0.061-0.2,0.15-0.26,0.271l-0.391,0.79c-0.16,0.32-0.04,0.7,0.28,0.86l0.72,0.359l0.101,0.67l-1.13,0.13
							c-0.36,0.04-0.61,0.36-0.57,0.71l0.1,0.881c0.04,0.35,0.36,0.609,0.71,0.56l1.21-0.13l0.04,0.25c-0.06,0.07-0.1,0.14-0.12,0.2
							l-0.3,1.14c-0.06,0.22,0.15,0.35,0.47,0.28l0.181-0.04L200.52,160.92z M200.02,160.11l0.24-0.891l0.17,1.11l-0.04,0.01
							C200.14,160.39,199.97,160.29,200.02,160.11z M198.52,158.11l-0.079-0.7c-0.03-0.28,0.17-0.53,0.449-0.57l1-0.109l0.261,1.71
							l-1.07,0.119C198.81,158.59,198.55,158.39,198.52,158.11z M199.72,155.57l-0.45-0.23c-0.26-0.12-0.359-0.43-0.229-0.68
							l0.31-0.63c0.03-0.061,0.07-0.11,0.11-0.141L199.72,155.57z M192.59,152.68c0-0.55-0.42-1-0.97-1.08
							c0.41,0.16,0.7,0.551,0.7,1.011c0,0.6-0.511,1.09-1.141,1.09c-0.06,0-0.109,0-0.17-0.01c0.141,0.05,0.29,0.079,0.44,0.079
							C192.08,153.77,192.59,153.28,192.59,152.68z M200.99,153.08c0.85,0-1.2-1.4-1.75-0.83c-0.01,0-0.021-0.03-0.03-0.03
							c-0.03,0.04-0.35,0.05-0.39,0.05c-0.21,0.07,0.26,0.5,0.39,0.57C199.71,153.09,200.34,153.08,200.99,153.08z M196.96,152.1
							c0.08-0.3-0.02-0.6-0.24-0.659c-0.22-0.07-0.479,0.119-0.569,0.42c-0.091,0.3,0.02,0.59,0.239,0.659
							C196.61,152.59,196.87,152.4,196.96,152.1z M196.42,152.35c-0.08-0.029-0.13-0.1-0.15-0.199c0.03,0.029,0.061,0.06,0.091,0.08
							c0.149,0.06,0.34-0.051,0.42-0.25c0.04-0.091,0.05-0.181,0.029-0.271c0.07,0.1,0.091,0.25,0.03,0.4
							C196.75,152.31,196.56,152.42,196.42,152.35z M196.44,152.13c-0.091-0.03-0.12-0.17-0.07-0.29c0.05-0.13,0.16-0.2,0.25-0.17
							c0.09,0.04,0.12,0.17,0.07,0.3l-0.021,0.021c0.01,0,0,0.029-0.02,0.05c-0.011,0.02-0.03,0.02-0.04,0.03
							C196.64,152.09,196.53,152.17,196.44,152.13z M195.69,151.62c0.109-0.26,0.029-0.54-0.171-0.62
							c-0.189-0.07-0.43,0.08-0.539,0.35c-0.101,0.261-0.021,0.54,0.17,0.62C195.35,152.04,195.59,151.89,195.69,151.62z
							 M195.16,151.81c-0.07-0.029-0.12-0.109-0.141-0.199c0.021,0.029,0.051,0.06,0.091,0.069c0.14,0.061,0.33-0.05,0.409-0.239
							c0.04-0.091,0.051-0.19,0.04-0.271c0.07,0.1,0.08,0.25,0.021,0.4C195.5,151.77,195.31,151.87,195.16,151.81z M195.21,151.59
							c-0.09-0.03-0.12-0.17-0.07-0.29c0.051-0.13,0.16-0.2,0.25-0.17c0.091,0.04,0.12,0.17,0.07,0.3
							C195.41,151.55,195.29,151.63,195.21,151.59z M193.84,146.44c-0.43-0.44-0.64-1.05-0.64-1.83c0-0.49,0.069-0.91,0.22-1.25
							c0.11-0.24,0.26-0.47,0.45-0.66c0.189-0.2,0.399-0.35,0.63-0.44c0.31-0.13,0.66-0.19,1.05-0.19c0.72,0,1.29,0.22,1.73,0.66
							c0.43,0.45,0.64,1.07,0.64,1.86s-0.21,1.4-0.64,1.85c-0.431,0.44-1,0.66-1.71,0.66C194.84,147.1,194.27,146.88,193.84,146.44z
							 M199.13,146.44c-0.43-0.44-0.64-1.05-0.64-1.83c0-0.49,0.069-0.91,0.22-1.25c0.11-0.24,0.26-0.47,0.46-0.66
							c0.19-0.2,0.4-0.35,0.63-0.44c0.3-0.13,0.65-0.19,1.05-0.19c0.71,0,1.29,0.22,1.721,0.66c0.43,0.45,0.649,1.07,0.649,1.86
							s-0.22,1.4-0.649,1.85c-0.42,0.44-1,0.66-1.71,0.66C200.14,147.1,199.56,146.88,199.13,146.44z M188.82,147.02v-0.89
							l2.56-3.16h-2.28v-0.82h3.57v0.76L190,146.2h2.77v0.82H188.82z M196.53,145.84c0.25-0.28,0.37-0.71,0.37-1.27
							s-0.12-0.98-0.36-1.25c-0.25-0.28-0.57-0.41-0.98-0.41c-0.399,0-0.729,0.14-0.979,0.41c-0.25,0.28-0.37,0.7-0.37,1.26
							c0,0.55,0.13,0.97,0.38,1.26c0.26,0.28,0.58,0.42,0.97,0.42C195.95,146.26,196.28,146.12,196.53,145.84z M201.82,145.84
							c0.25-0.28,0.38-0.71,0.38-1.27s-0.13-0.98-0.37-1.25c-0.24-0.28-0.57-0.41-0.97-0.41c-0.41,0-0.74,0.14-0.98,0.41
							c-0.25,0.28-0.38,0.7-0.38,1.26c0,0.55,0.13,0.97,0.39,1.26c0.25,0.28,0.57,0.42,0.971,0.42
							C201.25,146.26,201.57,146.12,201.82,145.84z"/>
					</g>
				</g>
				<rect x="186.27" y="141.74" style="fill-rule:evenodd;clip-rule:evenodd;fill:none;" width="19.5" height="19.5"/>
			</g>
			<g>
				<g>
					<g>
						<path style="fill:#FFFFFF;" d="M223.64,160.19l-3.199-0.011l-0.771-4.5c0.15,0.04,0.311,0.061,0.48,0.061
							c0.72,0,1.3-0.37,1.3-0.82c0-0.05-0.01-0.11-0.03-0.16c-0.07,0.41-0.62,0.721-1.28,0.721c-0.189,0-0.359-0.021-0.51-0.061l0,0
							l-0.97-0.4c0.35-0.18,0.59-0.489,0.59-0.85c0-0.25-0.11-0.47-0.3-0.65c0.06,0.12,0.09,0.24,0.09,0.37
							c0,0.44-0.34,0.811-0.83,0.95l-0.35-0.149l-2.82-1.091c-1.42-0.159-1.61-2.279,0.25-2.14c0.03,0,1.42,0.16,2.34,0.19
							l0.72-0.771c-0.729-0.42-1.02-1.04-1.08-1.77c0.881-0.02,1.45,0.47,1.86,1.23c0.22-0.09,0.101-0.93-0.01-1.76
							c-0.29-0.05-0.51-0.2-0.51-0.38c0-0.22,0.319-0.4,0.72-0.4c0.39,0,0.72,0.18,0.72,0.4c0,0.16-0.18,0.3-0.42,0.36
							c0.061,0.63,0.18,1.23,0.58,1.69l1.18,0.36c0.38-0.43,0.67-0.93,0.891-1.52c-0.19-0.18-0.28-0.39-0.21-0.54
							c0.109-0.21,0.52-0.23,0.899-0.03c0.391,0.19,0.61,0.53,0.511,0.74c-0.091,0.16-0.341,0.21-0.62,0.14
							c-0.431,0.49-0.66,1.06-0.69,1.71l0.13,0.449h0.771c0.449,0.03,0.72,0.19,0.859,0.46c0.37,0.381,0.73,0.511,1.09,0.631
							c-0.439,0.56-1.289,0.68-2.449,0.449l0.05,0.301c-0.101,0.05-0.19,0.14-0.24,0.25l-0.37,0.729
							c-0.149,0.29-0.029,0.65,0.26,0.79l0.66,0.33l0.101,0.63l-1.05,0.11c-0.32,0.04-0.561,0.33-0.521,0.66l0.09,0.81
							c0.04,0.33,0.33,0.56,0.66,0.521l1.11-0.12l0.04,0.229c-0.061,0.061-0.091,0.12-0.11,0.19l-0.28,1.04
							c-0.06,0.21,0.141,0.33,0.431,0.26l0.18-0.03L223.64,160.19z M223.18,159.45l0.221-0.83l0.149,1.03l-0.03,0.01
							C223.29,159.71,223.13,159.61,223.18,159.45z M221.79,157.6l-0.07-0.649c-0.029-0.25,0.15-0.49,0.41-0.521l0.93-0.1l0.23,1.57
							l-0.98,0.109C222.05,158.04,221.82,157.86,221.79,157.6z M222.9,155.26l-0.42-0.21c-0.23-0.12-0.33-0.399-0.211-0.63
							l0.29-0.59c0.03-0.05,0.061-0.09,0.101-0.13L222.9,155.26z M216.32,152.59c0-0.51-0.391-0.93-0.891-1
							c0.37,0.15,0.641,0.51,0.641,0.93c0,0.561-0.471,1.011-1.051,1.011c-0.05,0-0.109,0-0.159-0.011
							c0.13,0.051,0.26,0.08,0.409,0.08C215.85,153.6,216.32,153.15,216.32,152.59z M224.07,152.96c0.779,0-1.11-1.3-1.62-0.77
							c-0.01,0-0.01-0.021-0.021-0.021c-0.029,0.03-0.319,0.04-0.359,0.04c-0.19,0.06,0.239,0.46,0.359,0.521
							C222.89,152.97,223.47,152.96,224.07,152.96z M220.35,152.05c0.08-0.27-0.02-0.55-0.22-0.609
							c-0.21-0.061-0.439,0.109-0.52,0.39c-0.091,0.28,0.01,0.55,0.22,0.61C220.03,152.5,220.26,152.33,220.35,152.05z
							 M219.85,152.29c-0.069-0.03-0.119-0.1-0.13-0.19c0.021,0.03,0.05,0.051,0.08,0.07c0.141,0.05,0.311-0.05,0.391-0.229
							c0.029-0.08,0.04-0.171,0.029-0.24c0.061,0.08,0.07,0.229,0.021,0.359C220.16,152.24,219.99,152.34,219.85,152.29z
							 M219.87,152.08c-0.08-0.03-0.11-0.15-0.07-0.271c0.05-0.109,0.16-0.18,0.24-0.149s0.11,0.149,0.06,0.27l-0.01,0.021
							c0,0-0.01,0.03-0.03,0.05c-0.01,0.01-0.02,0.02-0.029,0.02C220.06,152.05,219.95,152.11,219.87,152.08z M219.18,151.61
							c0.101-0.24,0.03-0.5-0.149-0.57c-0.181-0.07-0.41,0.07-0.5,0.32c-0.101,0.239-0.03,0.5,0.149,0.569
							C218.87,152,219.09,151.86,219.18,151.61z M218.69,151.79c-0.07-0.03-0.11-0.1-0.131-0.19c0.021,0.03,0.051,0.051,0.08,0.07
							c0.141,0.05,0.311-0.05,0.391-0.229c0.029-0.08,0.04-0.171,0.029-0.24c0.061,0.08,0.07,0.229,0.021,0.359
							C219,151.74,218.83,151.84,218.69,151.79z M218.73,151.58c-0.08-0.03-0.11-0.15-0.061-0.271c0.04-0.109,0.15-0.18,0.23-0.149
							s0.109,0.149,0.06,0.27C218.92,151.55,218.81,151.61,218.73,151.58z M217.47,146.83c-0.39-0.41-0.59-0.97-0.59-1.69
							c0-0.46,0.07-0.84,0.2-1.15c0.11-0.23,0.24-0.44,0.42-0.62c0.18-0.18,0.37-0.31,0.58-0.4c0.28-0.12,0.61-0.18,0.97-0.18
							c0.66,0,1.19,0.21,1.59,0.62c0.4,0.41,0.601,0.98,0.601,1.71s-0.2,1.29-0.59,1.7c-0.4,0.41-0.931,0.62-1.591,0.62
							C218.4,147.44,217.86,147.24,217.47,146.83z M222.36,146.83c-0.4-0.41-0.601-0.97-0.601-1.69c0-0.46,0.07-0.84,0.21-1.15
							c0.101-0.23,0.24-0.44,0.42-0.62c0.17-0.18,0.37-0.31,0.58-0.4c0.28-0.12,0.601-0.18,0.971-0.18c0.659,0,1.189,0.21,1.59,0.62
							c0.399,0.41,0.6,0.98,0.6,1.71s-0.2,1.29-0.6,1.7c-0.391,0.41-0.92,0.62-1.58,0.62C223.28,147.44,222.75,147.24,222.36,146.83
							z M212.84,147.36v-0.81l2.36-2.92H213.1v-0.76h3.29v0.7l-2.46,3.04h2.561v0.75H212.84z M219.95,146.27
							c0.229-0.26,0.35-0.65,0.35-1.17s-0.109-0.9-0.34-1.15c-0.22-0.26-0.52-0.38-0.9-0.38c-0.369,0-0.67,0.12-0.899,0.38
							c-0.23,0.26-0.351,0.64-0.351,1.16c0,0.51,0.12,0.9,0.36,1.16c0.23,0.26,0.53,0.39,0.89,0.39
							C219.42,146.66,219.72,146.53,219.95,146.27z M224.84,146.27c0.23-0.26,0.351-0.65,0.351-1.17s-0.12-0.9-0.341-1.15
							c-0.229-0.26-0.529-0.38-0.899-0.38c-0.38,0-0.681,0.12-0.91,0.38c-0.23,0.26-0.34,0.64-0.34,1.16c0,0.51,0.12,0.9,0.35,1.16
							c0.24,0.26,0.54,0.39,0.9,0.39C224.31,146.66,224.61,146.53,224.84,146.27z"/>
					</g>
				</g>
				<rect x="210.48" y="142.49" style="fill-rule:evenodd;clip-rule:evenodd;fill:none;" width="18" height="18"/>
			</g>
			<g>
				<g>
					<g>
						<path style="fill:#FFFFFF;" d="M244.16,158.74l-2.66-0.01l-0.65-3.74c0.131,0.029,0.261,0.04,0.4,0.04
							c0.6,0,1.09-0.3,1.09-0.681c0-0.04-0.01-0.09-0.03-0.13c-0.06,0.34-0.52,0.601-1.069,0.601c-0.15,0-0.29-0.021-0.42-0.061l0,0
							l-0.811-0.33c0.29-0.14,0.49-0.41,0.49-0.71c0-0.2-0.09-0.39-0.24-0.54c0.04,0.101,0.07,0.2,0.07,0.311
							c0,0.37-0.29,0.68-0.69,0.79l-0.3-0.12l-2.34-0.91c-1.19-0.14-1.34-1.9,0.21-1.78c0.021,0,1.17,0.13,1.94,0.16l0.609-0.65
							c-0.609-0.35-0.859-0.87-0.91-1.47c0.74-0.02,1.21,0.39,1.551,1.02c0.18-0.08,0.09-0.77,0-1.46
							c-0.25-0.04-0.431-0.17-0.431-0.32c0-0.18,0.271-0.33,0.601-0.33s0.6,0.15,0.6,0.33c0,0.13-0.15,0.25-0.35,0.3
							c0.05,0.53,0.149,1.02,0.489,1.4l0.98,0.31c0.31-0.36,0.56-0.78,0.74-1.27c-0.16-0.15-0.24-0.32-0.17-0.45
							c0.09-0.18,0.42-0.19,0.75-0.03c0.319,0.17,0.5,0.44,0.409,0.62c-0.06,0.14-0.27,0.18-0.51,0.12
							c-0.35,0.4-0.55,0.88-0.58,1.42l0.12,0.38h0.641c0.369,0.021,0.6,0.16,0.72,0.38c0.3,0.32,0.6,0.431,0.899,0.53
							c-0.369,0.46-1.069,0.56-2.04,0.37l0.04,0.25c-0.079,0.05-0.159,0.12-0.199,0.21l-0.311,0.61
							c-0.12,0.239-0.02,0.54,0.22,0.659l0.551,0.28l0.08,0.51l-0.87,0.101c-0.271,0.03-0.471,0.28-0.431,0.55l0.07,0.67
							c0.03,0.271,0.28,0.47,0.55,0.44L243.9,157l0.029,0.2c-0.05,0.05-0.08,0.1-0.09,0.149l-0.24,0.87
							c-0.04,0.181,0.12,0.28,0.36,0.221l0.15-0.03L244.16,158.74z M243.78,158.12l0.18-0.68l0.13,0.85h-0.03
							C243.87,158.34,243.74,158.26,243.78,158.12z M242.62,156.58l-0.061-0.54c-0.02-0.21,0.131-0.41,0.341-0.43l0.779-0.091
							l0.19,1.311l-0.82,0.1C242.84,156.95,242.64,156.79,242.62,156.58z M243.54,154.63l-0.35-0.18
							c-0.19-0.09-0.271-0.33-0.171-0.521l0.24-0.489c0.03-0.04,0.05-0.08,0.09-0.11L243.54,154.63z M238.06,152.4
							c0-0.42-0.329-0.771-0.739-0.83c0.31,0.13,0.529,0.43,0.529,0.779c0,0.46-0.39,0.841-0.869,0.841
							c-0.051,0-0.091,0-0.131-0.011c0.101,0.04,0.221,0.07,0.341,0.07C237.67,153.25,238.06,152.87,238.06,152.4z M244.52,152.72
							c0.65,0-0.92-1.09-1.35-0.649c-0.01,0-0.01-0.021-0.02-0.021c-0.021,0.03-0.261,0.04-0.301,0.04
							c-0.159,0.05,0.2,0.391,0.301,0.44C243.54,152.72,244.02,152.72,244.52,152.72z M241.42,151.96
							c0.07-0.229-0.02-0.46-0.189-0.51c-0.171-0.05-0.36,0.09-0.431,0.319c-0.069,0.23,0.01,0.461,0.181,0.511
							C241.15,152.33,241.35,152.19,241.42,151.96z M241,152.15c-0.05-0.021-0.09-0.08-0.11-0.15c0.021,0.02,0.04,0.04,0.07,0.06
							c0.11,0.04,0.26-0.04,0.32-0.189c0.029-0.07,0.04-0.15,0.029-0.21c0.051,0.07,0.061,0.189,0.011,0.31
							C241.26,152.12,241.12,152.2,241,152.15z M241.02,151.98c-0.069-0.021-0.09-0.131-0.06-0.221c0.04-0.1,0.13-0.16,0.2-0.13
							s0.09,0.13,0.05,0.23l-0.01,0.01c0,0.01,0,0.03-0.021,0.05c-0.01,0-0.02,0.01-0.029,0.021
							C241.17,151.95,241.09,152.01,241.02,151.98z M240.45,151.59c0.08-0.2,0.02-0.42-0.13-0.47c-0.15-0.061-0.34,0.06-0.42,0.26
							c-0.08,0.21-0.021,0.42,0.13,0.48C240.18,151.91,240.37,151.8,240.45,151.59z M240.04,151.74c-0.06-0.03-0.1-0.09-0.11-0.16
							c0.011,0.03,0.04,0.05,0.07,0.06c0.11,0.04,0.25-0.04,0.32-0.189c0.029-0.07,0.029-0.141,0.02-0.21
							c0.061,0.08,0.07,0.2,0.021,0.31C240.29,151.7,240.15,151.78,240.04,151.74z M240.07,151.57c-0.07-0.03-0.09-0.13-0.051-0.23
							c0.04-0.09,0.12-0.149,0.19-0.12c0.07,0.021,0.09,0.12,0.06,0.221C240.23,151.54,240.14,151.59,240.07,151.57z M239.02,147.61
							c-0.329-0.34-0.489-0.81-0.489-1.41c0-0.38,0.05-0.7,0.17-0.96c0.08-0.19,0.2-0.36,0.35-0.51c0.141-0.16,0.3-0.27,0.48-0.34
							c0.229-0.1,0.5-0.15,0.81-0.15c0.55,0,0.99,0.17,1.32,0.51c0.33,0.35,0.5,0.82,0.5,1.43c0,0.61-0.16,1.08-0.49,1.42
							c-0.33,0.34-0.77,0.52-1.32,0.52C239.79,148.12,239.35,147.95,239.02,147.61z M243.09,147.61c-0.33-0.34-0.49-0.81-0.49-1.41
							c0-0.38,0.061-0.7,0.17-0.96c0.091-0.19,0.2-0.36,0.351-0.51c0.149-0.16,0.31-0.27,0.479-0.34c0.24-0.1,0.511-0.15,0.811-0.15
							c0.55,0,0.99,0.17,1.33,0.51c0.33,0.35,0.49,0.82,0.49,1.43c0,0.61-0.16,1.08-0.49,1.42c-0.33,0.34-0.771,0.52-1.32,0.52
							C243.86,148.12,243.42,147.95,243.09,147.61z M235.16,148.05v-0.68l1.96-2.43h-1.74v-0.64h2.74v0.59l-2.05,2.53h2.13v0.63
							H235.16z M241.09,147.14c0.19-0.21,0.29-0.54,0.29-0.98c0-0.43-0.1-0.75-0.28-0.96c-0.189-0.21-0.439-0.31-0.75-0.31
							c-0.319,0-0.569,0.1-0.76,0.32c-0.189,0.21-0.28,0.53-0.28,0.97c0,0.42,0.091,0.74,0.29,0.96c0.2,0.22,0.44,0.33,0.75,0.33
							C240.65,147.47,240.89,147.36,241.09,147.14z M245.16,147.14c0.189-0.21,0.29-0.54,0.29-0.98c0-0.43-0.09-0.75-0.28-0.96
							c-0.189-0.21-0.439-0.31-0.75-0.31c-0.31,0-0.57,0.1-0.76,0.32c-0.19,0.21-0.28,0.53-0.28,0.97c0,0.42,0.101,0.74,0.29,0.96
							c0.2,0.22,0.45,0.33,0.75,0.33S244.97,147.36,245.16,147.14z"/>
					</g>
				</g>
				<rect x="233.19" y="143.99" style="fill-rule:evenodd;clip-rule:evenodd;fill:none;" width="15" height="15"/>
			</g>
			<g>
				<g>
					<g>
						<path style="fill:#FFFFFF;" d="M261.68,157.29l-2.13-0.01l-0.52-2.99c0.1,0.02,0.21,0.03,0.33,0.03
							c0.47,0,0.859-0.24,0.859-0.54c0-0.04-0.01-0.07-0.02-0.11c-0.05,0.271-0.41,0.48-0.851,0.48c-0.13,0-0.239-0.011-0.35-0.04
							l0,0l-0.64-0.271c0.239-0.109,0.39-0.32,0.39-0.56c0-0.17-0.07-0.32-0.19-0.44c0.04,0.08,0.061,0.16,0.061,0.25
							c0,0.29-0.23,0.54-0.561,0.63l-0.229-0.1l-1.88-0.72c-0.95-0.11-1.07-1.53,0.17-1.431c0.01,0,0.939,0.11,1.55,0.13l0.49-0.52
							c-0.49-0.28-0.68-0.69-0.73-1.18c0.59-0.01,0.971,0.31,1.24,0.82c0.15-0.06,0.07-0.62,0-1.17c-0.2-0.03-0.34-0.13-0.34-0.25
							c0-0.15,0.21-0.27,0.479-0.27c0.261,0,0.48,0.12,0.48,0.27c0,0.1-0.12,0.2-0.28,0.24c0.03,0.42,0.12,0.82,0.391,1.12
							l0.779,0.24c0.25-0.28,0.45-0.62,0.59-1.01c-0.119-0.12-0.18-0.26-0.13-0.36c0.07-0.14,0.341-0.15,0.601-0.02
							c0.25,0.13,0.399,0.35,0.33,0.49c-0.051,0.11-0.221,0.14-0.41,0.1c-0.28,0.32-0.44,0.7-0.46,1.14l0.09,0.3h0.51
							c0.3,0.02,0.48,0.12,0.58,0.3c0.24,0.26,0.48,0.34,0.72,0.42c-0.29,0.37-0.859,0.46-1.63,0.311l0.03,0.189
							c-0.07,0.04-0.12,0.101-0.16,0.17l-0.25,0.49c-0.09,0.19-0.02,0.43,0.18,0.53l0.44,0.22l0.06,0.41l-0.689,0.08
							c-0.22,0.02-0.38,0.22-0.35,0.439l0.06,0.54c0.02,0.21,0.22,0.37,0.44,0.341l0.739-0.08l0.021,0.159
							c-0.03,0.04-0.061,0.08-0.07,0.12l-0.189,0.7c-0.03,0.14,0.1,0.22,0.289,0.17l0.12-0.02L261.68,157.29z M261.37,156.8
							l0.149-0.55l0.101,0.68H261.6C261.45,156.97,261.34,156.91,261.37,156.8z M260.45,155.56l-0.05-0.43
							c-0.021-0.17,0.1-0.33,0.279-0.35l0.61-0.061l0.16,1.05l-0.65,0.07C260.62,155.86,260.47,155.73,260.45,155.56z M261.19,154
							l-0.28-0.14c-0.16-0.08-0.22-0.271-0.141-0.42l0.19-0.391c0.021-0.03,0.04-0.06,0.07-0.09L261.19,154z M256.8,152.22
							c0-0.34-0.26-0.62-0.59-0.66c0.25,0.101,0.42,0.341,0.42,0.62c0,0.37-0.31,0.67-0.7,0.67c-0.029,0-0.069,0-0.1-0.01
							c0.08,0.04,0.17,0.061,0.27,0.061C256.49,152.9,256.8,152.59,256.8,152.22z M261.97,152.47c0.521,0-0.739-0.87-1.08-0.51
							c-0.01,0-0.01-0.02-0.02-0.02c-0.021,0.02-0.21,0.029-0.24,0.029c-0.12,0.04,0.16,0.311,0.24,0.351
							C261.18,152.47,261.57,152.47,261.97,152.47z M259.49,151.86c0.05-0.181-0.01-0.36-0.15-0.4c-0.14-0.04-0.29,0.07-0.35,0.26
							c-0.05,0.181,0.01,0.36,0.149,0.4C259.27,152.17,259.43,152.05,259.49,151.86z M259.16,152.02
							c-0.05-0.02-0.08-0.06-0.09-0.119c0.01,0.02,0.029,0.029,0.05,0.04c0.09,0.04,0.21-0.03,0.26-0.15
							c0.021-0.06,0.03-0.11,0.021-0.16c0.04,0.061,0.05,0.15,0.01,0.24C259.36,151.99,259.25,152.06,259.16,152.02z M259.17,151.88
							c-0.06-0.02-0.08-0.1-0.05-0.18c0.04-0.07,0.11-0.12,0.16-0.101c0.05,0.021,0.069,0.11,0.04,0.181l-0.011,0.02
							c0.011,0,0,0.021-0.01,0.03s-0.02,0.01-0.03,0.02C259.29,151.86,259.22,151.91,259.17,151.88z M258.71,151.57
							c0.06-0.16,0.021-0.33-0.1-0.38c-0.12-0.051-0.271,0.05-0.341,0.21c-0.06,0.17-0.01,0.34,0.11,0.38
							C258.5,151.83,258.65,151.73,258.71,151.57z M258.38,151.69c-0.04-0.021-0.08-0.07-0.09-0.131
							c0.02,0.021,0.04,0.04,0.06,0.051c0.091,0.04,0.21-0.03,0.261-0.15c0.02-0.06,0.029-0.12,0.02-0.17
							c0.04,0.06,0.05,0.16,0.01,0.25C258.59,151.66,258.47,151.73,258.38,151.69z M258.41,151.55c-0.05-0.02-0.07-0.1-0.04-0.18
							s0.1-0.12,0.149-0.101c0.061,0.021,0.07,0.101,0.04,0.181C258.53,151.53,258.46,151.57,258.41,151.55z M257.57,148.38
							c-0.271-0.27-0.4-0.64-0.4-1.12c0-0.31,0.05-0.56,0.14-0.77c0.07-0.15,0.16-0.29,0.28-0.41s0.25-0.21,0.391-0.27
							c0.18-0.08,0.399-0.12,0.64-0.12c0.439,0,0.8,0.14,1.06,0.41c0.271,0.27,0.4,0.66,0.4,1.14c0,0.49-0.13,0.87-0.39,1.14
							c-0.271,0.27-0.62,0.41-1.061,0.41C258.19,148.79,257.83,148.65,257.57,148.38z M260.83,148.38c-0.271-0.27-0.4-0.64-0.4-1.12
							c0-0.31,0.051-0.56,0.141-0.77c0.069-0.15,0.16-0.29,0.279-0.41c0.11-0.12,0.24-0.21,0.381-0.27
							c0.189-0.08,0.409-0.12,0.649-0.12c0.44,0,0.79,0.14,1.061,0.41c0.27,0.27,0.399,0.66,0.399,1.14c0,0.49-0.13,0.87-0.399,1.14
							c-0.261,0.27-0.61,0.41-1.051,0.41C261.44,148.79,261.09,148.65,260.83,148.38z M254.48,148.74v-0.55l1.569-1.94h-1.39v-0.51
							h2.189v0.47l-1.64,2.02h1.7v0.51H254.48z M259.22,148.01c0.16-0.17,0.24-0.43,0.24-0.78c0-0.34-0.08-0.6-0.229-0.77
							c-0.15-0.17-0.351-0.25-0.601-0.25s-0.45,0.08-0.6,0.25c-0.16,0.18-0.23,0.43-0.23,0.78c0,0.34,0.08,0.59,0.23,0.77
							c0.16,0.18,0.359,0.26,0.6,0.26S259.07,148.19,259.22,148.01z M262.48,148.01c0.159-0.17,0.229-0.43,0.229-0.78
							c0-0.34-0.07-0.6-0.22-0.77c-0.15-0.17-0.351-0.25-0.601-0.25s-0.449,0.08-0.609,0.25c-0.15,0.18-0.23,0.43-0.23,0.78
							c0,0.34,0.08,0.59,0.24,0.77c0.16,0.18,0.36,0.26,0.6,0.26C262.13,148.27,262.33,148.19,262.48,148.01z"/>
					</g>
				</g>
				<rect x="252.91" y="145.49" style="fill-rule:evenodd;clip-rule:evenodd;fill:none;" width="12" height="12"/>
			</g>
		</g>
	</g>
</g>
<g id="Guides">
</g>
</svg>
